%TF.GenerationSoftware,KiCad,Pcbnew,7.0.11+dfsg-1build4*%
%TF.CreationDate,2025-07-18T03:09:10+04:00*%
%TF.ProjectId,tpa3116_amplifier_board,74706133-3131-4365-9f61-6d706c696669,rev?*%
%TF.SameCoordinates,Original*%
%TF.FileFunction,Soldermask,Bot*%
%TF.FilePolarity,Negative*%
%FSLAX46Y46*%
G04 Gerber Fmt 4.6, Leading zero omitted, Abs format (unit mm)*
G04 Created by KiCad (PCBNEW 7.0.11+dfsg-1build4) date 2025-07-18 03:09:10*
%MOMM*%
%LPD*%
G01*
G04 APERTURE LIST*
G04 Aperture macros list*
%AMRoundRect*
0 Rectangle with rounded corners*
0 $1 Rounding radius*
0 $2 $3 $4 $5 $6 $7 $8 $9 X,Y pos of 4 corners*
0 Add a 4 corners polygon primitive as box body*
4,1,4,$2,$3,$4,$5,$6,$7,$8,$9,$2,$3,0*
0 Add four circle primitives for the rounded corners*
1,1,$1+$1,$2,$3*
1,1,$1+$1,$4,$5*
1,1,$1+$1,$6,$7*
1,1,$1+$1,$8,$9*
0 Add four rect primitives between the rounded corners*
20,1,$1+$1,$2,$3,$4,$5,0*
20,1,$1+$1,$4,$5,$6,$7,0*
20,1,$1+$1,$6,$7,$8,$9,0*
20,1,$1+$1,$8,$9,$2,$3,0*%
G04 Aperture macros list end*
%ADD10C,1.600000*%
%ADD11RoundRect,0.250000X0.675000X-0.675000X0.675000X0.675000X-0.675000X0.675000X-0.675000X-0.675000X0*%
%ADD12C,1.850000*%
%ADD13C,5.600000*%
%ADD14RoundRect,0.272727X-1.227273X1.227273X-1.227273X-1.227273X1.227273X-1.227273X1.227273X1.227273X0*%
%ADD15C,3.000000*%
%ADD16RoundRect,0.272727X-1.227273X-1.227273X1.227273X-1.227273X1.227273X1.227273X-1.227273X1.227273X0*%
%ADD17R,2.000000X2.000000*%
%ADD18C,2.000000*%
G04 APERTURE END LIST*
D10*
%TO.C,C4*%
X102848000Y-133945000D03*
X102848000Y-138945000D03*
%TD*%
D11*
%TO.C,J1*%
X94615000Y-136525000D03*
D12*
X94615000Y-132325000D03*
X94615000Y-128125000D03*
X94615000Y-123925000D03*
%TD*%
D13*
%TO.C,H3*%
X161925000Y-144145000D03*
%TD*%
D10*
%TO.C,C2*%
X102848000Y-126405000D03*
X102848000Y-131405000D03*
%TD*%
D13*
%TO.C,H6*%
X116205000Y-135001000D03*
%TD*%
D10*
%TO.C,C17*%
X157400000Y-95885000D03*
X152400000Y-95885000D03*
%TD*%
%TO.C,C1*%
X102870000Y-100965000D03*
X102870000Y-105965000D03*
%TD*%
D14*
%TO.C,J4*%
X162560000Y-127000000D03*
D15*
X162560000Y-132400000D03*
%TD*%
D13*
%TO.C,H2*%
X95885000Y-144145000D03*
%TD*%
D10*
%TO.C,C20*%
X152400000Y-136525000D03*
X157400000Y-136525000D03*
%TD*%
D14*
%TO.C,J3*%
X162560000Y-107630000D03*
D15*
X162560000Y-113030000D03*
%TD*%
D11*
%TO.C,J2*%
X94615000Y-116105000D03*
D12*
X94615000Y-111905000D03*
X94615000Y-107705000D03*
X94615000Y-103505000D03*
%TD*%
D16*
%TO.C,J6*%
X127315000Y-144780000D03*
D15*
X132715000Y-144780000D03*
%TD*%
D13*
%TO.C,H1*%
X95885000Y-95885000D03*
%TD*%
D16*
%TO.C,J5*%
X127315000Y-95250000D03*
D15*
X132715000Y-95250000D03*
%TD*%
D13*
%TO.C,H5*%
X116227000Y-105029000D03*
%TD*%
D17*
%TO.C,C15*%
X129215000Y-105410000D03*
D18*
X134215000Y-105410000D03*
%TD*%
D13*
%TO.C,H4*%
X161925000Y-95885000D03*
%TD*%
D10*
%TO.C,C3*%
X102870000Y-108585000D03*
X102870000Y-113585000D03*
%TD*%
%TO.C,C18*%
X152440000Y-109220000D03*
X157440000Y-109220000D03*
%TD*%
D17*
%TO.C,C16*%
X129215000Y-134620000D03*
D18*
X134215000Y-134620000D03*
%TD*%
D10*
%TO.C,C19*%
X157400000Y-123190000D03*
X152400000Y-123190000D03*
%TD*%
M02*
