%TF.GenerationSoftware,KiCad,Pcbnew,7.0.11+dfsg-1build4*%
%TF.CreationDate,2025-07-18T03:09:10+04:00*%
%TF.ProjectId,tpa3116_amplifier_board,74706133-3131-4365-9f61-6d706c696669,rev?*%
%TF.SameCoordinates,Original*%
%TF.FileFunction,Soldermask,Top*%
%TF.FilePolarity,Negative*%
%FSLAX46Y46*%
G04 Gerber Fmt 4.6, Leading zero omitted, Abs format (unit mm)*
G04 Created by KiCad (PCBNEW 7.0.11+dfsg-1build4) date 2025-07-18 03:09:10*
%MOMM*%
%LPD*%
G01*
G04 APERTURE LIST*
G04 Aperture macros list*
%AMRoundRect*
0 Rectangle with rounded corners*
0 $1 Rounding radius*
0 $2 $3 $4 $5 $6 $7 $8 $9 X,Y pos of 4 corners*
0 Add a 4 corners polygon primitive as box body*
4,1,4,$2,$3,$4,$5,$6,$7,$8,$9,$2,$3,0*
0 Add four circle primitives for the rounded corners*
1,1,$1+$1,$2,$3*
1,1,$1+$1,$4,$5*
1,1,$1+$1,$6,$7*
1,1,$1+$1,$8,$9*
0 Add four rect primitives between the rounded corners*
20,1,$1+$1,$2,$3,$4,$5,0*
20,1,$1+$1,$4,$5,$6,$7,0*
20,1,$1+$1,$6,$7,$8,$9,0*
20,1,$1+$1,$8,$9,$2,$3,0*%
%AMFreePoly0*
4,1,19,0.500000,-0.750000,0.000000,-0.750000,0.000000,-0.744911,-0.071157,-0.744911,-0.207708,-0.704816,-0.327430,-0.627875,-0.420627,-0.520320,-0.479746,-0.390866,-0.500000,-0.250000,-0.500000,0.250000,-0.479746,0.390866,-0.420627,0.520320,-0.327430,0.627875,-0.207708,0.704816,-0.071157,0.744911,0.000000,0.744911,0.000000,0.750000,0.500000,0.750000,0.500000,-0.750000,0.500000,-0.750000,
$1*%
%AMFreePoly1*
4,1,19,0.000000,0.744911,0.071157,0.744911,0.207708,0.704816,0.327430,0.627875,0.420627,0.520320,0.479746,0.390866,0.500000,0.250000,0.500000,-0.250000,0.479746,-0.390866,0.420627,-0.520320,0.327430,-0.627875,0.207708,-0.704816,0.071157,-0.744911,0.000000,-0.744911,0.000000,-0.750000,-0.500000,-0.750000,-0.500000,0.750000,0.000000,0.750000,0.000000,0.744911,0.000000,0.744911,
$1*%
G04 Aperture macros list end*
%ADD10C,1.600000*%
%ADD11RoundRect,0.200000X-0.200000X-0.275000X0.200000X-0.275000X0.200000X0.275000X-0.200000X0.275000X0*%
%ADD12RoundRect,0.200000X-0.275000X0.200000X-0.275000X-0.200000X0.275000X-0.200000X0.275000X0.200000X0*%
%ADD13RoundRect,0.250000X0.675000X-0.675000X0.675000X0.675000X-0.675000X0.675000X-0.675000X-0.675000X0*%
%ADD14C,1.850000*%
%ADD15C,5.600000*%
%ADD16RoundRect,0.225000X0.250000X-0.225000X0.250000X0.225000X-0.250000X0.225000X-0.250000X-0.225000X0*%
%ADD17RoundRect,0.250000X-0.250000X-0.475000X0.250000X-0.475000X0.250000X0.475000X-0.250000X0.475000X0*%
%ADD18RoundRect,0.200000X0.200000X0.275000X-0.200000X0.275000X-0.200000X-0.275000X0.200000X-0.275000X0*%
%ADD19RoundRect,0.225000X-0.250000X0.225000X-0.250000X-0.225000X0.250000X-0.225000X0.250000X0.225000X0*%
%ADD20RoundRect,0.225000X0.225000X0.250000X-0.225000X0.250000X-0.225000X-0.250000X0.225000X-0.250000X0*%
%ADD21R,2.900000X5.400000*%
%ADD22RoundRect,0.272727X-1.227273X1.227273X-1.227273X-1.227273X1.227273X-1.227273X1.227273X1.227273X0*%
%ADD23C,3.000000*%
%ADD24FreePoly0,180.000000*%
%ADD25FreePoly1,180.000000*%
%ADD26RoundRect,0.225000X-0.225000X-0.250000X0.225000X-0.250000X0.225000X0.250000X-0.225000X0.250000X0*%
%ADD27R,1.475000X0.450000*%
%ADD28R,3.040000X3.740000*%
%ADD29RoundRect,0.272727X-1.227273X-1.227273X1.227273X-1.227273X1.227273X1.227273X-1.227273X1.227273X0*%
%ADD30R,2.000000X2.000000*%
%ADD31C,2.000000*%
G04 APERTURE END LIST*
D10*
%TO.C,C4*%
X102848000Y-133945000D03*
X102848000Y-138945000D03*
%TD*%
D11*
%TO.C,R4*%
X105410000Y-118110000D03*
X107060000Y-118110000D03*
%TD*%
D12*
%TO.C,R10*%
X156210000Y-128080000D03*
X156210000Y-129730000D03*
%TD*%
D13*
%TO.C,J1*%
X94615000Y-136525000D03*
D14*
X94615000Y-132325000D03*
X94615000Y-128125000D03*
X94615000Y-123925000D03*
%TD*%
D15*
%TO.C,H3*%
X161925000Y-144145000D03*
%TD*%
D10*
%TO.C,C2*%
X102848000Y-126405000D03*
X102848000Y-131405000D03*
%TD*%
D12*
%TO.C,R6*%
X107950000Y-132080000D03*
X107950000Y-133730000D03*
%TD*%
D15*
%TO.C,H6*%
X116205000Y-135001000D03*
%TD*%
D16*
%TO.C,C23*%
X152400000Y-129680000D03*
X152400000Y-128130000D03*
%TD*%
D10*
%TO.C,C17*%
X157400000Y-95885000D03*
X152400000Y-95885000D03*
%TD*%
D17*
%TO.C,C6*%
X100970000Y-120650000D03*
X102870000Y-120650000D03*
%TD*%
D18*
%TO.C,R7*%
X109600000Y-108585000D03*
X107950000Y-108585000D03*
%TD*%
D19*
%TO.C,C12*%
X125730000Y-117335000D03*
X125730000Y-118885000D03*
%TD*%
D20*
%TO.C,C7*%
X119380000Y-112395000D03*
X117830000Y-112395000D03*
%TD*%
D12*
%TO.C,R5*%
X107950000Y-126620000D03*
X107950000Y-128270000D03*
%TD*%
D16*
%TO.C,C13*%
X125730000Y-122060000D03*
X125730000Y-120510000D03*
%TD*%
D20*
%TO.C,C9*%
X119380000Y-127635000D03*
X117830000Y-127635000D03*
%TD*%
D10*
%TO.C,C1*%
X102870000Y-100965000D03*
X102870000Y-105965000D03*
%TD*%
D21*
%TO.C,L2*%
X139195000Y-113030000D03*
X149095000Y-113030000D03*
%TD*%
D22*
%TO.C,J4*%
X162560000Y-127000000D03*
D23*
X162560000Y-132400000D03*
%TD*%
D24*
%TO.C,JP2*%
X108615000Y-139065000D03*
D25*
X107315000Y-139065000D03*
%TD*%
D15*
%TO.C,H2*%
X95885000Y-144145000D03*
%TD*%
D16*
%TO.C,C11*%
X125730000Y-113665000D03*
X125730000Y-112115000D03*
%TD*%
D26*
%TO.C,C28*%
X154660000Y-145415000D03*
X156210000Y-145415000D03*
%TD*%
D19*
%TO.C,C24*%
X152400000Y-141465000D03*
X152400000Y-143015000D03*
%TD*%
D10*
%TO.C,C20*%
X152400000Y-136525000D03*
X157400000Y-136525000D03*
%TD*%
D26*
%TO.C,C8*%
X117830000Y-109855000D03*
X119380000Y-109855000D03*
%TD*%
D12*
%TO.C,R8*%
X156210000Y-100775000D03*
X156210000Y-102425000D03*
%TD*%
D26*
%TO.C,C25*%
X154660000Y-104775000D03*
X156210000Y-104775000D03*
%TD*%
D22*
%TO.C,J3*%
X162560000Y-107630000D03*
D23*
X162560000Y-113030000D03*
%TD*%
D21*
%TO.C,L4*%
X139195000Y-140355000D03*
X149095000Y-140355000D03*
%TD*%
D13*
%TO.C,J2*%
X94615000Y-116105000D03*
D14*
X94615000Y-111905000D03*
X94615000Y-107705000D03*
X94615000Y-103505000D03*
%TD*%
D27*
%TO.C,IC1*%
X112439000Y-115140000D03*
X112439000Y-115790000D03*
X112439000Y-116440000D03*
X112439000Y-117090000D03*
X112439000Y-117740000D03*
X112439000Y-118390000D03*
X112439000Y-119040000D03*
X112439000Y-119690000D03*
X112439000Y-120340000D03*
X112439000Y-120990000D03*
X112439000Y-121640000D03*
X112439000Y-122290000D03*
X112439000Y-122940000D03*
X112439000Y-123590000D03*
X112439000Y-124240000D03*
X112439000Y-124890000D03*
X120015000Y-124890000D03*
X120015000Y-124240000D03*
X120015000Y-123590000D03*
X120015000Y-122940000D03*
X120015000Y-122290000D03*
X120015000Y-121640000D03*
X120015000Y-120990000D03*
X120015000Y-120340000D03*
X120015000Y-119690000D03*
X120015000Y-119040000D03*
X120015000Y-118390000D03*
X120015000Y-117740000D03*
X120015000Y-117090000D03*
X120015000Y-116440000D03*
X120015000Y-115790000D03*
X120015000Y-115140000D03*
D28*
X116227000Y-120015000D03*
%TD*%
D11*
%TO.C,R3*%
X105410000Y-120650000D03*
X107060000Y-120650000D03*
%TD*%
D12*
%TO.C,R9*%
X156210000Y-114110000D03*
X156210000Y-115760000D03*
%TD*%
%TO.C,R11*%
X156210000Y-141415000D03*
X156210000Y-143065000D03*
%TD*%
D21*
%TO.C,L3*%
X139195000Y-127020000D03*
X149095000Y-127020000D03*
%TD*%
D29*
%TO.C,J6*%
X127315000Y-144780000D03*
D23*
X132715000Y-144780000D03*
%TD*%
D15*
%TO.C,H1*%
X95885000Y-95885000D03*
%TD*%
D29*
%TO.C,J5*%
X127315000Y-95250000D03*
D23*
X132715000Y-95250000D03*
%TD*%
D26*
%TO.C,C5*%
X101320000Y-118745000D03*
X102870000Y-118745000D03*
%TD*%
D15*
%TO.C,H5*%
X116227000Y-105029000D03*
%TD*%
D21*
%TO.C,L1*%
X139195000Y-99695000D03*
X149095000Y-99695000D03*
%TD*%
D30*
%TO.C,C15*%
X129215000Y-105410000D03*
D31*
X134215000Y-105410000D03*
%TD*%
D15*
%TO.C,H4*%
X161925000Y-95885000D03*
%TD*%
D18*
%TO.C,R2*%
X107060000Y-116205000D03*
X105410000Y-116205000D03*
%TD*%
D20*
%TO.C,C10*%
X119380000Y-130175000D03*
X117830000Y-130175000D03*
%TD*%
D16*
%TO.C,C21*%
X152400000Y-102375000D03*
X152400000Y-100825000D03*
%TD*%
D26*
%TO.C,C26*%
X154660000Y-118110000D03*
X156210000Y-118110000D03*
%TD*%
D10*
%TO.C,C3*%
X102870000Y-108585000D03*
X102870000Y-113585000D03*
%TD*%
D26*
%TO.C,C27*%
X154660000Y-132080000D03*
X156210000Y-132080000D03*
%TD*%
D19*
%TO.C,C14*%
X125730000Y-125730000D03*
X125730000Y-127280000D03*
%TD*%
D24*
%TO.C,JP1*%
X108615000Y-141605000D03*
D25*
X107315000Y-141605000D03*
%TD*%
D10*
%TO.C,C18*%
X152440000Y-109220000D03*
X157440000Y-109220000D03*
%TD*%
D30*
%TO.C,C16*%
X129215000Y-134620000D03*
D31*
X134215000Y-134620000D03*
%TD*%
D18*
%TO.C,R1*%
X107060000Y-122555000D03*
X105410000Y-122555000D03*
%TD*%
D10*
%TO.C,C19*%
X157400000Y-123190000D03*
X152400000Y-123190000D03*
%TD*%
D19*
%TO.C,C22*%
X152400000Y-114160000D03*
X152400000Y-115710000D03*
%TD*%
M02*
