%TF.GenerationSoftware,KiCad,Pcbnew,7.0.11+dfsg-1build4*%
%TF.CreationDate,2025-08-03T13:49:17+04:00*%
%TF.ProjectId,tpa3116_amplifier_board,74706133-3131-4365-9f61-6d706c696669,rev?*%
%TF.SameCoordinates,Original*%
%TF.FileFunction,Copper,L2,Bot*%
%TF.FilePolarity,Positive*%
%FSLAX46Y46*%
G04 Gerber Fmt 4.6, Leading zero omitted, Abs format (unit mm)*
G04 Created by KiCad (PCBNEW 7.0.11+dfsg-1build4) date 2025-08-03 13:49:17*
%MOMM*%
%LPD*%
G01*
G04 APERTURE LIST*
G04 Aperture macros list*
%AMRoundRect*
0 Rectangle with rounded corners*
0 $1 Rounding radius*
0 $2 $3 $4 $5 $6 $7 $8 $9 X,Y pos of 4 corners*
0 Add a 4 corners polygon primitive as box body*
4,1,4,$2,$3,$4,$5,$6,$7,$8,$9,$2,$3,0*
0 Add four circle primitives for the rounded corners*
1,1,$1+$1,$2,$3*
1,1,$1+$1,$4,$5*
1,1,$1+$1,$6,$7*
1,1,$1+$1,$8,$9*
0 Add four rect primitives between the rounded corners*
20,1,$1+$1,$2,$3,$4,$5,0*
20,1,$1+$1,$4,$5,$6,$7,0*
20,1,$1+$1,$6,$7,$8,$9,0*
20,1,$1+$1,$8,$9,$2,$3,0*%
G04 Aperture macros list end*
%TA.AperFunction,ComponentPad*%
%ADD10RoundRect,0.250000X0.750000X-0.600000X0.750000X0.600000X-0.750000X0.600000X-0.750000X-0.600000X0*%
%TD*%
%TA.AperFunction,ComponentPad*%
%ADD11O,2.000000X1.700000*%
%TD*%
%TA.AperFunction,ComponentPad*%
%ADD12C,5.600000*%
%TD*%
%TA.AperFunction,ComponentPad*%
%ADD13C,1.600000*%
%TD*%
%TA.AperFunction,ComponentPad*%
%ADD14R,2.000000X2.000000*%
%TD*%
%TA.AperFunction,ComponentPad*%
%ADD15C,2.000000*%
%TD*%
%TA.AperFunction,ComponentPad*%
%ADD16RoundRect,0.250001X1.099999X-1.099999X1.099999X1.099999X-1.099999X1.099999X-1.099999X-1.099999X0*%
%TD*%
%TA.AperFunction,ComponentPad*%
%ADD17C,2.700000*%
%TD*%
%TA.AperFunction,ComponentPad*%
%ADD18RoundRect,0.250000X0.725000X-0.600000X0.725000X0.600000X-0.725000X0.600000X-0.725000X-0.600000X0*%
%TD*%
%TA.AperFunction,ComponentPad*%
%ADD19O,1.950000X1.700000*%
%TD*%
%TA.AperFunction,ViaPad*%
%ADD20C,0.800000*%
%TD*%
%TA.AperFunction,ViaPad*%
%ADD21C,1.000000*%
%TD*%
%TA.AperFunction,Conductor*%
%ADD22C,0.350000*%
%TD*%
%TA.AperFunction,Conductor*%
%ADD23C,0.600000*%
%TD*%
%TA.AperFunction,Conductor*%
%ADD24C,1.000000*%
%TD*%
%TA.AperFunction,Conductor*%
%ADD25C,2.000000*%
%TD*%
G04 APERTURE END LIST*
D10*
%TO.P,J1,1,Pin_1*%
%TO.N,/R-*%
X106045000Y-118110000D03*
D11*
%TO.P,J1,2,Pin_2*%
%TO.N,/R+*%
X106045000Y-115610000D03*
%TD*%
D12*
%TO.P,H3,1*%
%TO.N,N/C*%
X161925000Y-142240000D03*
%TD*%
D13*
%TO.P,C2,1*%
%TO.N,/R-*%
X106045000Y-104775000D03*
%TO.P,C2,2*%
%TO.N,Net-(IC1-RINN)*%
X111045000Y-104775000D03*
%TD*%
D12*
%TO.P,H6,1*%
%TO.N,N/C*%
X124460000Y-140000000D03*
%TD*%
D14*
%TO.P,C12,1*%
%TO.N,VCC*%
X139700000Y-100330000D03*
D15*
%TO.P,C12,2*%
%TO.N,GND*%
X144700000Y-100330000D03*
%TD*%
D14*
%TO.P,C13,1*%
%TO.N,VCC*%
X139700000Y-139700000D03*
D15*
%TO.P,C13,2*%
%TO.N,GND*%
X144700000Y-139700000D03*
%TD*%
D13*
%TO.P,C1,1*%
%TO.N,/R+*%
X106045000Y-109855000D03*
%TO.P,C1,2*%
%TO.N,Net-(IC1-RINP)*%
X111045000Y-109855000D03*
%TD*%
D12*
%TO.P,H2,1*%
%TO.N,N/C*%
X106680000Y-142240000D03*
%TD*%
D16*
%TO.P,J4,1,Pin_1*%
%TO.N,Net-(J4-Pin_1)*%
X159385000Y-132567500D03*
D17*
%TO.P,J4,2,Pin_2*%
%TO.N,Net-(J4-Pin_2)*%
X159385000Y-128607500D03*
%TD*%
D16*
%TO.P,J3,1,Pin_1*%
%TO.N,GND*%
X159385000Y-110977500D03*
D17*
%TO.P,J3,2,Pin_2*%
%TO.N,VCC*%
X159385000Y-107017500D03*
%TD*%
D18*
%TO.P,J2,1,Pin_1*%
%TO.N,GND*%
X106045000Y-134540000D03*
D19*
%TO.P,J2,2,Pin_2*%
%TO.N,/sync*%
X106045000Y-132040000D03*
%TO.P,J2,3,Pin_3*%
%TO.N,/mute*%
X106045000Y-129540000D03*
%TO.P,J2,4,Pin_4*%
%TO.N,/SD_LR*%
X106045000Y-127040000D03*
%TD*%
D12*
%TO.P,H1,1*%
%TO.N,N/C*%
X106680000Y-97790000D03*
%TD*%
%TO.P,H5,1*%
%TO.N,N/C*%
X124460000Y-100000000D03*
%TD*%
%TO.P,H4,1*%
%TO.N,N/C*%
X161925000Y-97790000D03*
%TD*%
D20*
%TO.N,GND*%
X122533000Y-113665000D03*
X147955000Y-118110000D03*
X125730000Y-125095000D03*
X145415000Y-121920000D03*
X142875000Y-129540000D03*
X147955000Y-107950000D03*
X137665000Y-118110000D03*
X140335000Y-118110000D03*
X123190000Y-114935000D03*
X145415000Y-134620000D03*
X110490000Y-119380000D03*
X121263000Y-113665000D03*
X137665000Y-121920000D03*
X122533000Y-109855000D03*
X145415000Y-132080000D03*
X153670000Y-121285000D03*
X125730000Y-122555000D03*
X119380000Y-137795000D03*
X122533000Y-112395000D03*
X153670000Y-102870000D03*
X123190000Y-107315000D03*
X121263000Y-130175000D03*
X124460000Y-123825000D03*
X153670000Y-105410000D03*
X153670000Y-123825000D03*
X124460000Y-116205000D03*
X129540000Y-142875000D03*
X114300000Y-102235000D03*
X134620000Y-142875000D03*
X147955000Y-102870000D03*
X111760000Y-119380000D03*
X110490000Y-120650000D03*
X121263000Y-126365000D03*
X142875000Y-121920000D03*
X122533000Y-128905000D03*
X119380000Y-97155000D03*
X114300000Y-137795000D03*
X147955000Y-137160000D03*
X121263000Y-111125000D03*
X124460000Y-125095000D03*
X142875000Y-107950000D03*
X128270000Y-107315000D03*
X124460000Y-117475000D03*
X147955000Y-121920000D03*
X142875000Y-110490000D03*
X147955000Y-134620000D03*
X142875000Y-118110000D03*
X121263000Y-127635000D03*
X129540000Y-102235000D03*
X151130000Y-100330000D03*
X122533000Y-111125000D03*
X156210000Y-121285000D03*
X140335000Y-107950000D03*
X121263000Y-128905000D03*
X142875000Y-132080000D03*
X109220000Y-125095000D03*
X156210000Y-123825000D03*
X153670000Y-140335000D03*
X142875000Y-115570000D03*
X145415000Y-118110000D03*
X125730000Y-116205000D03*
X156210000Y-118745000D03*
X111760000Y-125095000D03*
X129540000Y-97155000D03*
X123190000Y-122555000D03*
X125730000Y-114935000D03*
X110490000Y-125095000D03*
X134620000Y-97155000D03*
X142875000Y-124460000D03*
X147955000Y-105410000D03*
X123190000Y-123825000D03*
X148590000Y-140335000D03*
X121263000Y-112395000D03*
X119380000Y-102235000D03*
X123190000Y-117475000D03*
X114300000Y-142875000D03*
X140335000Y-121920000D03*
X114300000Y-97155000D03*
X124460000Y-122555000D03*
X151130000Y-140335000D03*
X125730000Y-123825000D03*
X119380000Y-142875000D03*
X145415000Y-107950000D03*
X124460000Y-114935000D03*
X123190000Y-116205000D03*
X123190000Y-125095000D03*
X111760000Y-120650000D03*
X122533000Y-126365000D03*
X145415000Y-105410000D03*
X122533000Y-127635000D03*
X121263000Y-109855000D03*
X129540000Y-137795000D03*
X125730000Y-117475000D03*
X140335000Y-132080000D03*
X153670000Y-100330000D03*
X122555000Y-130175000D03*
X163195000Y-102870000D03*
%TO.N,VCC*%
X130175000Y-130810000D03*
X130197000Y-127000000D03*
X130175000Y-113030000D03*
X130197000Y-109220000D03*
X131467000Y-127000000D03*
X130175000Y-128270000D03*
X131445000Y-130810000D03*
X131445000Y-110490000D03*
X131467000Y-113030000D03*
X131445000Y-128270000D03*
X131445000Y-129540000D03*
X130175000Y-111760000D03*
X130197000Y-129540000D03*
X131445000Y-111760000D03*
X130175000Y-110490000D03*
X131445000Y-109220000D03*
D21*
%TO.N,/SD_LR*%
X116205000Y-110300000D03*
X116205000Y-111760000D03*
%TD*%
D22*
%TO.N,/SD_LR*%
X116205000Y-111760000D02*
X106045000Y-121920000D01*
X106045000Y-121920000D02*
X106045000Y-127040000D01*
D23*
X116205000Y-110300000D02*
X116205000Y-111760000D01*
D24*
%TO.N,GND*%
X159385000Y-111137500D02*
X157480000Y-111137500D01*
X159385000Y-111137500D02*
X159385000Y-112882500D01*
D25*
%TO.N,VCC*%
X142875000Y-96520000D02*
X141605000Y-97790000D01*
X163115000Y-109140000D02*
X159385000Y-105410000D01*
X153945164Y-143510000D02*
X163115000Y-134340164D01*
X142875000Y-143510000D02*
X153945164Y-143510000D01*
X159385000Y-105410000D02*
X159385000Y-102235000D01*
X159385000Y-105410000D02*
X159385000Y-107017500D01*
X141605000Y-142240000D02*
X142875000Y-143510000D01*
X163115000Y-134340164D02*
X163115000Y-109140000D01*
X159385000Y-102235000D02*
X153670000Y-96520000D01*
X153670000Y-96520000D02*
X142875000Y-96520000D01*
%TD*%
%TA.AperFunction,Conductor*%
%TO.N,GND*%
G36*
X142400525Y-94985185D02*
G01*
X142446280Y-95037989D01*
X142456224Y-95107147D01*
X142427199Y-95170703D01*
X142382936Y-95201559D01*
X142383478Y-95202692D01*
X142285799Y-95249366D01*
X142283416Y-95250474D01*
X142189515Y-95292921D01*
X142184762Y-95296134D01*
X142168812Y-95305268D01*
X142163624Y-95307747D01*
X142163618Y-95307750D01*
X142079510Y-95367236D01*
X142077348Y-95368731D01*
X141992004Y-95426415D01*
X141991992Y-95426424D01*
X141987850Y-95430394D01*
X141973680Y-95442087D01*
X141968989Y-95445405D01*
X141968987Y-95445407D01*
X141896142Y-95518250D01*
X141894263Y-95520089D01*
X141819879Y-95591381D01*
X141816466Y-95595996D01*
X141804457Y-95609935D01*
X140701213Y-96713181D01*
X140639890Y-96746666D01*
X140613532Y-96749500D01*
X138745181Y-96749500D01*
X138738778Y-96749682D01*
X138722120Y-96750156D01*
X138708058Y-96750957D01*
X138685110Y-96752918D01*
X138564134Y-96766734D01*
X138564095Y-96766740D01*
X138518725Y-96774555D01*
X138518708Y-96774558D01*
X138518700Y-96774560D01*
X138496654Y-96779662D01*
X138491302Y-96780901D01*
X138491297Y-96780902D01*
X138473829Y-96786006D01*
X138447062Y-96793828D01*
X138447054Y-96793830D01*
X138447043Y-96793834D01*
X138339009Y-96832190D01*
X138338982Y-96832200D01*
X138296516Y-96850056D01*
X138296491Y-96850068D01*
X138271242Y-96862418D01*
X138271236Y-96862421D01*
X138255520Y-96871247D01*
X138231075Y-96884977D01*
X138231062Y-96884985D01*
X138134421Y-96946737D01*
X138097055Y-96973724D01*
X138075241Y-96991448D01*
X138041176Y-97022501D01*
X137956009Y-97109500D01*
X137940372Y-97126407D01*
X137931116Y-97137003D01*
X137916424Y-97154823D01*
X135956676Y-99674500D01*
X135436277Y-100343585D01*
X134937010Y-100985500D01*
X134937009Y-100985499D01*
X134825484Y-101128890D01*
X134825484Y-101128891D01*
X129356806Y-108160045D01*
X129343578Y-108178057D01*
X129335816Y-108189260D01*
X129323627Y-108207928D01*
X129261850Y-108308494D01*
X129240603Y-108347780D01*
X129240599Y-108347788D01*
X129228984Y-108372418D01*
X129228982Y-108372423D01*
X129221875Y-108389933D01*
X129212192Y-108413787D01*
X129212184Y-108413807D01*
X129176129Y-108518889D01*
X129176122Y-108518912D01*
X129163991Y-108561836D01*
X129163977Y-108561894D01*
X129158032Y-108588436D01*
X129158027Y-108588465D01*
X129150679Y-108632520D01*
X129137712Y-108749753D01*
X129135866Y-108772032D01*
X129135114Y-108785662D01*
X129134500Y-108807991D01*
X129134500Y-113026860D01*
X129135368Y-113053399D01*
X129136429Y-113069583D01*
X129139031Y-113096000D01*
X129157304Y-113234792D01*
X129167653Y-113286821D01*
X129167653Y-113286823D01*
X129176029Y-113318082D01*
X129176033Y-113318096D01*
X129193079Y-113368310D01*
X129193087Y-113368332D01*
X129243514Y-113490075D01*
X129243521Y-113490090D01*
X129266989Y-113537677D01*
X129283164Y-113565693D01*
X129312642Y-113609811D01*
X129392876Y-113714372D01*
X129392881Y-113714377D01*
X129392882Y-113714379D01*
X129427854Y-113754257D01*
X129450742Y-113777145D01*
X129490620Y-113812117D01*
X129490626Y-113812122D01*
X129595187Y-113892356D01*
X129639305Y-113921834D01*
X129667322Y-113938009D01*
X129667321Y-113938009D01*
X129667327Y-113938011D01*
X129667334Y-113938016D01*
X129714907Y-113961477D01*
X129714915Y-113961480D01*
X129714923Y-113961484D01*
X129836666Y-114011911D01*
X129836671Y-114011913D01*
X129836686Y-114011919D01*
X129859087Y-114019523D01*
X129886892Y-114028962D01*
X129886898Y-114028963D01*
X129886908Y-114028967D01*
X129912919Y-114035936D01*
X129918166Y-114037343D01*
X129918168Y-114037343D01*
X129918174Y-114037345D01*
X129970198Y-114047694D01*
X130109011Y-114065970D01*
X130135415Y-114068570D01*
X130135429Y-114068570D01*
X130135430Y-114068571D01*
X130151567Y-114069629D01*
X130151569Y-114069629D01*
X130151599Y-114069631D01*
X130178126Y-114070500D01*
X130178140Y-114070500D01*
X131777898Y-114070500D01*
X131800369Y-114069684D01*
X131807288Y-114069433D01*
X131825224Y-114068129D01*
X131854476Y-114064931D01*
X132007953Y-114042495D01*
X132065375Y-114029791D01*
X132099744Y-114019523D01*
X132154714Y-113998651D01*
X132287084Y-113937068D01*
X132338457Y-113908466D01*
X132368451Y-113888790D01*
X132415161Y-113853047D01*
X132531182Y-113750102D01*
X132533686Y-113747711D01*
X132552454Y-113729801D01*
X132552469Y-113729786D01*
X132565019Y-113716907D01*
X132584773Y-113695106D01*
X142397403Y-102042608D01*
X142412096Y-102024091D01*
X142420748Y-102012509D01*
X142429319Y-102000309D01*
X142434335Y-101993170D01*
X142434348Y-101993151D01*
X142503118Y-101888924D01*
X142526814Y-101848003D01*
X142539797Y-101822225D01*
X142558560Y-101778849D01*
X142598873Y-101668393D01*
X142612463Y-101623121D01*
X142619136Y-101595041D01*
X142627367Y-101548485D01*
X142641901Y-101424462D01*
X142643967Y-101400909D01*
X142643967Y-101400908D01*
X142643969Y-101400886D01*
X142644456Y-101392524D01*
X142644810Y-101386476D01*
X142645500Y-101362832D01*
X142645500Y-100330005D01*
X143194859Y-100330005D01*
X143215385Y-100577729D01*
X143215387Y-100577738D01*
X143276412Y-100818717D01*
X143376266Y-101046364D01*
X143476564Y-101199882D01*
X144216923Y-100459523D01*
X144240507Y-100539844D01*
X144318239Y-100660798D01*
X144426900Y-100754952D01*
X144557685Y-100814680D01*
X144567466Y-100816086D01*
X143829942Y-101553609D01*
X143876768Y-101590055D01*
X143876770Y-101590056D01*
X144095385Y-101708364D01*
X144095396Y-101708369D01*
X144330506Y-101789083D01*
X144575707Y-101830000D01*
X144824293Y-101830000D01*
X145069493Y-101789083D01*
X145304603Y-101708369D01*
X145304614Y-101708364D01*
X145523228Y-101590057D01*
X145523231Y-101590055D01*
X145570056Y-101553609D01*
X144832533Y-100816086D01*
X144842315Y-100814680D01*
X144973100Y-100754952D01*
X145081761Y-100660798D01*
X145159493Y-100539844D01*
X145183076Y-100459524D01*
X145923434Y-101199882D01*
X146023731Y-101046369D01*
X146123587Y-100818717D01*
X146184612Y-100577738D01*
X146184614Y-100577729D01*
X146205141Y-100330005D01*
X146205141Y-100329994D01*
X146184614Y-100082270D01*
X146184612Y-100082261D01*
X146123587Y-99841282D01*
X146023731Y-99613630D01*
X145923434Y-99460116D01*
X145183076Y-100200475D01*
X145159493Y-100120156D01*
X145081761Y-99999202D01*
X144973100Y-99905048D01*
X144842315Y-99845320D01*
X144832534Y-99843913D01*
X145570057Y-99106390D01*
X145570056Y-99106389D01*
X145523229Y-99069943D01*
X145304614Y-98951635D01*
X145304603Y-98951630D01*
X145069493Y-98870916D01*
X144824293Y-98830000D01*
X144575707Y-98830000D01*
X144330506Y-98870916D01*
X144095396Y-98951630D01*
X144095390Y-98951632D01*
X143876761Y-99069949D01*
X143829942Y-99106388D01*
X143829942Y-99106390D01*
X144567466Y-99843913D01*
X144557685Y-99845320D01*
X144426900Y-99905048D01*
X144318239Y-99999202D01*
X144240507Y-100120156D01*
X144216923Y-100200475D01*
X143476564Y-99460116D01*
X143376267Y-99613632D01*
X143276412Y-99841282D01*
X143215387Y-100082261D01*
X143215385Y-100082270D01*
X143194859Y-100329994D01*
X143194859Y-100330005D01*
X142645500Y-100330005D01*
X142645500Y-98781468D01*
X142665185Y-98714429D01*
X142681819Y-98693787D01*
X143418787Y-97956819D01*
X143480110Y-97923334D01*
X143506468Y-97920500D01*
X153038532Y-97920500D01*
X153105571Y-97940185D01*
X153126213Y-97956819D01*
X157948181Y-102778787D01*
X157981666Y-102840110D01*
X157984500Y-102866468D01*
X157984500Y-105361434D01*
X157984249Y-105369324D01*
X157979753Y-105439834D01*
X157983802Y-105477840D01*
X157984500Y-105490976D01*
X157984500Y-105922697D01*
X157964815Y-105989736D01*
X157957449Y-106000007D01*
X157934615Y-106028640D01*
X157803432Y-106255856D01*
X157707582Y-106500078D01*
X157707576Y-106500097D01*
X157649197Y-106755874D01*
X157649196Y-106755879D01*
X157629592Y-107017495D01*
X157629592Y-107017504D01*
X157649196Y-107279120D01*
X157649197Y-107279125D01*
X157707576Y-107534902D01*
X157707578Y-107534911D01*
X157707580Y-107534916D01*
X157803432Y-107779143D01*
X157934614Y-108006357D01*
X157984934Y-108069456D01*
X158098198Y-108211485D01*
X158245091Y-108347780D01*
X158290521Y-108389933D01*
X158507296Y-108537728D01*
X158507301Y-108537730D01*
X158507302Y-108537731D01*
X158507303Y-108537732D01*
X158632843Y-108598188D01*
X158743673Y-108651561D01*
X158743674Y-108651561D01*
X158743677Y-108651563D01*
X158994385Y-108728896D01*
X159253818Y-108768000D01*
X159516182Y-108768000D01*
X159775615Y-108728896D01*
X160026323Y-108651563D01*
X160262704Y-108537728D01*
X160338018Y-108486379D01*
X160404492Y-108464880D01*
X160472042Y-108482733D01*
X160495547Y-108501153D01*
X161054545Y-109060151D01*
X161088030Y-109121474D01*
X161083046Y-109191166D01*
X161041174Y-109247099D01*
X160975710Y-109271516D01*
X160907437Y-109256664D01*
X160901767Y-109253371D01*
X160804123Y-109193143D01*
X160804118Y-109193141D01*
X160637696Y-109137994D01*
X160637689Y-109137993D01*
X160534985Y-109127500D01*
X159635000Y-109127500D01*
X159635000Y-110162180D01*
X159477443Y-110127500D01*
X159338916Y-110127500D01*
X159201198Y-110142478D01*
X159135000Y-110164782D01*
X159135000Y-109127500D01*
X158235014Y-109127500D01*
X158132310Y-109137993D01*
X158132303Y-109137994D01*
X157965881Y-109193141D01*
X157965876Y-109193143D01*
X157816655Y-109285184D01*
X157692684Y-109409155D01*
X157600643Y-109558376D01*
X157600641Y-109558381D01*
X157545494Y-109724803D01*
X157545493Y-109724810D01*
X157535000Y-109827514D01*
X157535000Y-110727500D01*
X158569624Y-110727500D01*
X158561153Y-110748760D01*
X158531242Y-110931211D01*
X158541251Y-111115826D01*
X158572258Y-111227500D01*
X157535000Y-111227500D01*
X157535000Y-112127485D01*
X157545493Y-112230189D01*
X157545494Y-112230196D01*
X157600641Y-112396618D01*
X157600643Y-112396623D01*
X157692684Y-112545844D01*
X157816655Y-112669815D01*
X157965876Y-112761856D01*
X157965881Y-112761858D01*
X158132303Y-112817005D01*
X158132310Y-112817006D01*
X158235014Y-112827499D01*
X158235027Y-112827500D01*
X159135000Y-112827500D01*
X159135000Y-111792819D01*
X159292557Y-111827500D01*
X159431084Y-111827500D01*
X159568802Y-111812522D01*
X159635000Y-111790217D01*
X159635000Y-112827500D01*
X160534973Y-112827500D01*
X160534985Y-112827499D01*
X160637689Y-112817006D01*
X160637696Y-112817005D01*
X160804118Y-112761858D01*
X160804123Y-112761856D01*
X160953344Y-112669815D01*
X161077315Y-112545844D01*
X161169356Y-112396623D01*
X161169358Y-112396618D01*
X161224505Y-112230196D01*
X161224506Y-112230189D01*
X161234999Y-112127485D01*
X161235000Y-112127472D01*
X161235000Y-111227500D01*
X160200376Y-111227500D01*
X160208847Y-111206240D01*
X160238758Y-111023789D01*
X160228749Y-110839174D01*
X160197742Y-110727500D01*
X161235000Y-110727500D01*
X161235000Y-109827527D01*
X161234999Y-109827514D01*
X161224506Y-109724810D01*
X161224505Y-109724803D01*
X161169358Y-109558381D01*
X161169356Y-109558376D01*
X161109128Y-109460732D01*
X161090688Y-109393340D01*
X161111610Y-109326676D01*
X161165252Y-109281906D01*
X161234583Y-109273245D01*
X161297591Y-109303441D01*
X161302348Y-109307954D01*
X161678181Y-109683787D01*
X161711666Y-109745110D01*
X161714500Y-109771468D01*
X161714500Y-133708696D01*
X161694815Y-133775735D01*
X161678181Y-133796377D01*
X153401377Y-142073181D01*
X153340054Y-142106666D01*
X153313696Y-142109500D01*
X143506468Y-142109500D01*
X143439429Y-142089815D01*
X143418787Y-142073181D01*
X142681819Y-141336213D01*
X142648334Y-141274890D01*
X142645500Y-141248532D01*
X142645500Y-139700005D01*
X143194859Y-139700005D01*
X143215385Y-139947729D01*
X143215387Y-139947738D01*
X143276412Y-140188717D01*
X143376266Y-140416364D01*
X143476564Y-140569882D01*
X144216923Y-139829523D01*
X144240507Y-139909844D01*
X144318239Y-140030798D01*
X144426900Y-140124952D01*
X144557685Y-140184680D01*
X144567466Y-140186086D01*
X143829942Y-140923609D01*
X143876768Y-140960055D01*
X143876770Y-140960056D01*
X144095385Y-141078364D01*
X144095396Y-141078369D01*
X144330506Y-141159083D01*
X144575707Y-141200000D01*
X144824293Y-141200000D01*
X145069493Y-141159083D01*
X145304603Y-141078369D01*
X145304614Y-141078364D01*
X145523228Y-140960057D01*
X145523231Y-140960055D01*
X145570056Y-140923609D01*
X144832533Y-140186086D01*
X144842315Y-140184680D01*
X144973100Y-140124952D01*
X145081761Y-140030798D01*
X145159493Y-139909844D01*
X145183076Y-139829524D01*
X145923434Y-140569882D01*
X146023731Y-140416369D01*
X146123587Y-140188717D01*
X146184612Y-139947738D01*
X146184614Y-139947729D01*
X146205141Y-139700005D01*
X146205141Y-139699994D01*
X146184614Y-139452270D01*
X146184612Y-139452261D01*
X146123587Y-139211282D01*
X146023731Y-138983630D01*
X145923434Y-138830116D01*
X145183076Y-139570475D01*
X145159493Y-139490156D01*
X145081761Y-139369202D01*
X144973100Y-139275048D01*
X144842315Y-139215320D01*
X144832534Y-139213913D01*
X145570057Y-138476390D01*
X145570056Y-138476389D01*
X145523229Y-138439943D01*
X145304614Y-138321635D01*
X145304603Y-138321630D01*
X145069493Y-138240916D01*
X144824293Y-138200000D01*
X144575707Y-138200000D01*
X144330506Y-138240916D01*
X144095396Y-138321630D01*
X144095390Y-138321632D01*
X143876761Y-138439949D01*
X143829942Y-138476388D01*
X143829942Y-138476390D01*
X144567466Y-139213913D01*
X144557685Y-139215320D01*
X144426900Y-139275048D01*
X144318239Y-139369202D01*
X144240507Y-139490156D01*
X144216923Y-139570475D01*
X143476564Y-138830116D01*
X143376267Y-138983632D01*
X143276412Y-139211282D01*
X143215387Y-139452261D01*
X143215385Y-139452270D01*
X143194859Y-139699994D01*
X143194859Y-139700005D01*
X142645500Y-139700005D01*
X142645500Y-138667161D01*
X142645363Y-138662473D01*
X142644810Y-138643523D01*
X142644500Y-138638216D01*
X142643969Y-138629112D01*
X142642478Y-138612120D01*
X142641901Y-138605537D01*
X142627367Y-138481514D01*
X142619136Y-138434958D01*
X142612463Y-138406878D01*
X142598873Y-138361606D01*
X142558560Y-138251150D01*
X142539797Y-138207774D01*
X142526814Y-138181996D01*
X142503116Y-138141073D01*
X142434339Y-138036837D01*
X142434338Y-138036835D01*
X142420762Y-138017508D01*
X142417719Y-138013436D01*
X142412100Y-138005913D01*
X142397403Y-137987391D01*
X141633016Y-137079682D01*
X138814927Y-133733201D01*
X157634500Y-133733201D01*
X157637401Y-133770067D01*
X157637402Y-133770073D01*
X157683253Y-133927892D01*
X157683255Y-133927895D01*
X157766917Y-134069361D01*
X157766923Y-134069369D01*
X157883130Y-134185576D01*
X157883134Y-134185579D01*
X157883136Y-134185581D01*
X158024603Y-134269244D01*
X158024604Y-134269244D01*
X158024607Y-134269246D01*
X158182426Y-134315097D01*
X158182429Y-134315097D01*
X158182431Y-134315098D01*
X158219306Y-134318000D01*
X158219314Y-134318000D01*
X160550686Y-134318000D01*
X160550694Y-134318000D01*
X160587569Y-134315098D01*
X160587571Y-134315097D01*
X160587573Y-134315097D01*
X160745392Y-134269246D01*
X160745393Y-134269245D01*
X160745397Y-134269244D01*
X160886864Y-134185581D01*
X161003081Y-134069364D01*
X161086744Y-133927897D01*
X161086745Y-133927893D01*
X161086746Y-133927892D01*
X161132597Y-133770073D01*
X161132598Y-133770067D01*
X161135499Y-133733201D01*
X161135500Y-133733194D01*
X161135500Y-131401806D01*
X161132598Y-131364931D01*
X161132597Y-131364926D01*
X161086746Y-131207107D01*
X161086744Y-131207104D01*
X161086744Y-131207103D01*
X161003081Y-131065636D01*
X161003079Y-131065634D01*
X161003076Y-131065630D01*
X160886869Y-130949423D01*
X160886861Y-130949417D01*
X160745395Y-130865755D01*
X160745392Y-130865753D01*
X160587573Y-130819902D01*
X160587567Y-130819901D01*
X160550701Y-130817000D01*
X160550694Y-130817000D01*
X158219306Y-130817000D01*
X158219298Y-130817000D01*
X158182432Y-130819901D01*
X158182426Y-130819902D01*
X158024607Y-130865753D01*
X158024604Y-130865755D01*
X157883138Y-130949417D01*
X157883130Y-130949423D01*
X157766923Y-131065630D01*
X157766917Y-131065638D01*
X157683255Y-131207104D01*
X157683253Y-131207107D01*
X157637402Y-131364926D01*
X157637401Y-131364932D01*
X157634500Y-131401798D01*
X157634500Y-133733201D01*
X138814927Y-133733201D01*
X134498551Y-128607504D01*
X157629592Y-128607504D01*
X157649196Y-128869120D01*
X157649197Y-128869125D01*
X157707576Y-129124902D01*
X157707578Y-129124911D01*
X157707580Y-129124916D01*
X157803432Y-129369143D01*
X157934614Y-129596357D01*
X158024070Y-129708531D01*
X158098198Y-129801485D01*
X158234531Y-129927982D01*
X158290521Y-129979933D01*
X158507296Y-130127728D01*
X158507301Y-130127730D01*
X158507302Y-130127731D01*
X158507303Y-130127732D01*
X158632843Y-130188188D01*
X158743673Y-130241561D01*
X158743674Y-130241561D01*
X158743677Y-130241563D01*
X158994385Y-130318896D01*
X159253818Y-130358000D01*
X159516182Y-130358000D01*
X159775615Y-130318896D01*
X160026323Y-130241563D01*
X160262704Y-130127728D01*
X160479479Y-129979933D01*
X160671805Y-129801481D01*
X160835386Y-129596357D01*
X160966568Y-129369143D01*
X161062420Y-129124916D01*
X161120802Y-128869130D01*
X161120803Y-128869120D01*
X161140408Y-128607504D01*
X161140408Y-128607495D01*
X161120803Y-128345879D01*
X161120802Y-128345874D01*
X161120802Y-128345870D01*
X161062420Y-128090084D01*
X160966568Y-127845857D01*
X160835386Y-127618643D01*
X160671805Y-127413519D01*
X160671804Y-127413518D01*
X160671801Y-127413514D01*
X160479479Y-127235067D01*
X160440558Y-127208531D01*
X160262704Y-127087272D01*
X160262700Y-127087270D01*
X160262697Y-127087268D01*
X160262696Y-127087267D01*
X160026325Y-126973438D01*
X160026327Y-126973438D01*
X159775623Y-126896106D01*
X159775619Y-126896105D01*
X159775615Y-126896104D01*
X159650823Y-126877294D01*
X159516187Y-126857000D01*
X159516182Y-126857000D01*
X159253818Y-126857000D01*
X159253812Y-126857000D01*
X159092247Y-126881353D01*
X158994385Y-126896104D01*
X158994382Y-126896105D01*
X158994376Y-126896106D01*
X158743673Y-126973438D01*
X158507303Y-127087267D01*
X158507302Y-127087268D01*
X158290520Y-127235067D01*
X158098198Y-127413514D01*
X157934614Y-127618643D01*
X157803432Y-127845856D01*
X157707582Y-128090078D01*
X157707576Y-128090097D01*
X157649197Y-128345874D01*
X157649196Y-128345879D01*
X157629592Y-128607495D01*
X157629592Y-128607504D01*
X134498551Y-128607504D01*
X132584768Y-126334887D01*
X132567315Y-126315626D01*
X132565019Y-126313092D01*
X132557716Y-126305597D01*
X132552454Y-126300197D01*
X132531184Y-126279898D01*
X132415165Y-126176955D01*
X132415160Y-126176950D01*
X132368456Y-126141212D01*
X132368451Y-126141209D01*
X132338454Y-126121531D01*
X132287092Y-126092935D01*
X132287087Y-126092932D01*
X132287084Y-126092931D01*
X132154714Y-126031348D01*
X132154710Y-126031346D01*
X132154697Y-126031341D01*
X132099769Y-126010484D01*
X132099729Y-126010471D01*
X132065372Y-126000207D01*
X132007941Y-125987501D01*
X131854488Y-125965070D01*
X131854478Y-125965068D01*
X131854472Y-125965068D01*
X131825225Y-125961872D01*
X131825207Y-125961870D01*
X131807283Y-125960567D01*
X131777895Y-125959500D01*
X131777885Y-125959500D01*
X130178126Y-125959500D01*
X130155137Y-125960252D01*
X130151599Y-125960368D01*
X130135415Y-125961429D01*
X130108998Y-125964031D01*
X129970206Y-125982304D01*
X129918177Y-125992653D01*
X129918175Y-125992653D01*
X129886916Y-126001029D01*
X129886902Y-126001033D01*
X129836688Y-126018079D01*
X129836666Y-126018087D01*
X129714923Y-126068514D01*
X129714908Y-126068521D01*
X129667321Y-126091989D01*
X129639305Y-126108164D01*
X129595187Y-126137642D01*
X129490626Y-126217876D01*
X129450737Y-126252858D01*
X129427858Y-126275737D01*
X129392876Y-126315626D01*
X129312642Y-126420187D01*
X129283164Y-126464305D01*
X129266989Y-126492321D01*
X129243521Y-126539908D01*
X129243514Y-126539923D01*
X129193087Y-126661666D01*
X129193079Y-126661688D01*
X129176033Y-126711902D01*
X129176029Y-126711916D01*
X129167653Y-126743175D01*
X129167653Y-126743177D01*
X129157304Y-126795206D01*
X129139031Y-126933998D01*
X129136429Y-126960415D01*
X129135368Y-126976599D01*
X129134500Y-127003138D01*
X129134500Y-131222007D01*
X129135114Y-131244336D01*
X129135866Y-131257969D01*
X129137711Y-131280238D01*
X129150682Y-131397497D01*
X129158027Y-131441533D01*
X129158027Y-131441537D01*
X129163987Y-131468144D01*
X129163993Y-131468167D01*
X129176128Y-131511102D01*
X129176135Y-131511125D01*
X129210476Y-131611212D01*
X129212190Y-131616207D01*
X129228984Y-131657582D01*
X129228988Y-131657592D01*
X129228992Y-131657600D01*
X129240610Y-131682233D01*
X129240615Y-131682242D01*
X129261840Y-131721487D01*
X129261849Y-131721502D01*
X129261854Y-131721511D01*
X129323613Y-131822046D01*
X129335821Y-131840745D01*
X129343594Y-131851963D01*
X129356818Y-131869967D01*
X134937010Y-139044500D01*
X135457410Y-139713585D01*
X135956677Y-140355500D01*
X136455463Y-140996797D01*
X137916416Y-142875165D01*
X137931097Y-142892971D01*
X137940368Y-142903585D01*
X137940377Y-142903595D01*
X137956013Y-142920502D01*
X138041172Y-143007493D01*
X138075238Y-143038547D01*
X138097063Y-143056280D01*
X138097072Y-143056287D01*
X138134438Y-143083273D01*
X138134450Y-143083280D01*
X138134456Y-143083285D01*
X138231054Y-143145010D01*
X138271230Y-143167575D01*
X138271245Y-143167583D01*
X138296488Y-143179929D01*
X138296494Y-143179932D01*
X138296498Y-143179933D01*
X138296513Y-143179941D01*
X138339006Y-143197808D01*
X138431125Y-143230513D01*
X138447045Y-143236166D01*
X138447048Y-143236166D01*
X138447054Y-143236169D01*
X138491294Y-143249096D01*
X138518710Y-143255441D01*
X138564127Y-143263264D01*
X138685097Y-143277080D01*
X138708064Y-143279044D01*
X138722135Y-143279845D01*
X138745181Y-143280500D01*
X140613532Y-143280500D01*
X140680571Y-143300185D01*
X140701213Y-143316819D01*
X141850358Y-144465964D01*
X141855760Y-144471721D01*
X141902435Y-144524754D01*
X141982570Y-144589459D01*
X141984592Y-144591127D01*
X142063379Y-144657554D01*
X142068323Y-144660455D01*
X142083459Y-144670921D01*
X142087920Y-144674523D01*
X142087923Y-144674524D01*
X142087925Y-144674526D01*
X142177867Y-144724770D01*
X142180070Y-144726031D01*
X142268991Y-144778213D01*
X142268994Y-144778214D01*
X142274341Y-144780232D01*
X142291050Y-144787999D01*
X142296046Y-144790790D01*
X142357518Y-144812509D01*
X142388859Y-144823583D01*
X142445511Y-144864477D01*
X142471062Y-144929507D01*
X142457398Y-144998028D01*
X142408858Y-145048284D01*
X142347550Y-145064500D01*
X109176028Y-145064500D01*
X109108989Y-145044815D01*
X109063234Y-144992011D01*
X109053290Y-144922853D01*
X109082315Y-144859297D01*
X109088347Y-144852819D01*
X109205138Y-144736028D01*
X109322157Y-144619009D01*
X109556357Y-144329796D01*
X109759043Y-144017687D01*
X109927995Y-143686100D01*
X110061361Y-143338671D01*
X110157680Y-142979204D01*
X110215896Y-142611638D01*
X110235373Y-142240000D01*
X110215896Y-141868362D01*
X110157680Y-141500796D01*
X110061361Y-141141329D01*
X109927995Y-140793900D01*
X109759043Y-140462314D01*
X109690902Y-140357385D01*
X109556358Y-140150205D01*
X109434726Y-140000002D01*
X121154652Y-140000002D01*
X121174028Y-140357368D01*
X121174029Y-140357385D01*
X121231926Y-140710539D01*
X121231932Y-140710565D01*
X121327672Y-141055392D01*
X121327674Y-141055399D01*
X121460142Y-141387870D01*
X121460151Y-141387888D01*
X121627784Y-141704077D01*
X121627787Y-141704082D01*
X121627789Y-141704085D01*
X121739171Y-141868362D01*
X121828634Y-142000309D01*
X121828641Y-142000319D01*
X122060331Y-142273085D01*
X122060332Y-142273086D01*
X122320163Y-142519211D01*
X122605081Y-142735800D01*
X122911747Y-142920315D01*
X122911749Y-142920316D01*
X122911751Y-142920317D01*
X122911755Y-142920319D01*
X123205632Y-143056280D01*
X123236565Y-143070591D01*
X123575726Y-143184868D01*
X123925254Y-143261805D01*
X124281052Y-143300500D01*
X124281058Y-143300500D01*
X124638942Y-143300500D01*
X124638948Y-143300500D01*
X124994746Y-143261805D01*
X125344274Y-143184868D01*
X125683435Y-143070591D01*
X126008253Y-142920315D01*
X126314919Y-142735800D01*
X126599837Y-142519211D01*
X126859668Y-142273086D01*
X127091365Y-142000311D01*
X127292211Y-141704085D01*
X127459853Y-141387880D01*
X127592324Y-141055403D01*
X127688071Y-140710552D01*
X127711133Y-140569882D01*
X127745970Y-140357385D01*
X127745970Y-140357382D01*
X127745972Y-140357371D01*
X127765348Y-140000000D01*
X127745972Y-139642629D01*
X127738630Y-139597846D01*
X127688073Y-139289460D01*
X127688072Y-139289459D01*
X127688071Y-139289448D01*
X127603162Y-138983632D01*
X127592327Y-138944607D01*
X127592325Y-138944600D01*
X127459857Y-138612129D01*
X127459848Y-138612111D01*
X127292215Y-138295922D01*
X127292213Y-138295919D01*
X127292211Y-138295915D01*
X127091365Y-137999689D01*
X127091361Y-137999684D01*
X127091358Y-137999680D01*
X126859668Y-137726914D01*
X126599837Y-137480789D01*
X126599830Y-137480783D01*
X126599827Y-137480781D01*
X126532245Y-137429407D01*
X126314919Y-137264200D01*
X126008253Y-137079685D01*
X126008252Y-137079684D01*
X126008248Y-137079682D01*
X126008244Y-137079680D01*
X125683447Y-136929414D01*
X125683441Y-136929411D01*
X125683435Y-136929409D01*
X125513854Y-136872270D01*
X125344273Y-136815131D01*
X124994744Y-136738194D01*
X124638949Y-136699500D01*
X124638948Y-136699500D01*
X124281052Y-136699500D01*
X124281050Y-136699500D01*
X123925255Y-136738194D01*
X123575726Y-136815131D01*
X123319970Y-136901306D01*
X123236565Y-136929409D01*
X123236563Y-136929410D01*
X123236552Y-136929414D01*
X122911755Y-137079680D01*
X122911751Y-137079682D01*
X122683367Y-137217096D01*
X122605081Y-137264200D01*
X122516768Y-137331333D01*
X122320172Y-137480781D01*
X122320163Y-137480789D01*
X122060331Y-137726914D01*
X121828641Y-137999680D01*
X121828634Y-137999690D01*
X121627790Y-138295913D01*
X121627784Y-138295922D01*
X121460151Y-138612111D01*
X121460142Y-138612129D01*
X121327674Y-138944600D01*
X121327672Y-138944607D01*
X121231932Y-139289434D01*
X121231926Y-139289460D01*
X121174029Y-139642614D01*
X121174028Y-139642627D01*
X121174028Y-139642629D01*
X121170917Y-139700001D01*
X121154652Y-139999997D01*
X121154652Y-140000002D01*
X109434726Y-140000002D01*
X109322160Y-139860995D01*
X109322157Y-139860991D01*
X109059009Y-139597843D01*
X108926027Y-139490156D01*
X108769794Y-139363641D01*
X108457691Y-139160959D01*
X108126103Y-138992006D01*
X107778678Y-138858641D01*
X107778671Y-138858639D01*
X107419204Y-138762320D01*
X107419200Y-138762319D01*
X107419199Y-138762319D01*
X107051639Y-138704104D01*
X106680001Y-138684627D01*
X106679999Y-138684627D01*
X106308360Y-138704104D01*
X105940801Y-138762319D01*
X105940799Y-138762319D01*
X105581321Y-138858641D01*
X105233896Y-138992006D01*
X104902309Y-139160959D01*
X104590205Y-139363641D01*
X104300995Y-139597839D01*
X104300987Y-139597846D01*
X104067181Y-139831653D01*
X104005858Y-139865138D01*
X103936166Y-139860154D01*
X103880233Y-139818282D01*
X103855816Y-139752818D01*
X103855500Y-139743972D01*
X103855500Y-134290000D01*
X104570000Y-134290000D01*
X105641031Y-134290000D01*
X105608481Y-134340649D01*
X105570000Y-134471705D01*
X105570000Y-134608295D01*
X105608481Y-134739351D01*
X105641031Y-134790000D01*
X104570001Y-134790000D01*
X104570001Y-135189986D01*
X104580494Y-135292697D01*
X104635641Y-135459119D01*
X104635643Y-135459124D01*
X104727684Y-135608345D01*
X104851654Y-135732315D01*
X105000875Y-135824356D01*
X105000880Y-135824358D01*
X105167302Y-135879505D01*
X105167309Y-135879506D01*
X105270019Y-135889999D01*
X105794999Y-135889999D01*
X105795000Y-135889998D01*
X105795000Y-134948018D01*
X105909801Y-135000446D01*
X106011025Y-135015000D01*
X106078975Y-135015000D01*
X106180199Y-135000446D01*
X106295000Y-134948018D01*
X106295000Y-135889999D01*
X106819972Y-135889999D01*
X106819986Y-135889998D01*
X106922697Y-135879505D01*
X107089119Y-135824358D01*
X107089124Y-135824356D01*
X107238345Y-135732315D01*
X107362315Y-135608345D01*
X107454356Y-135459124D01*
X107454358Y-135459119D01*
X107509505Y-135292697D01*
X107509506Y-135292690D01*
X107519999Y-135189986D01*
X107520000Y-135189973D01*
X107520000Y-134790000D01*
X106448969Y-134790000D01*
X106481519Y-134739351D01*
X106520000Y-134608295D01*
X106520000Y-134471705D01*
X106481519Y-134340649D01*
X106448969Y-134290000D01*
X107519999Y-134290000D01*
X107519999Y-133890028D01*
X107519998Y-133890013D01*
X107509505Y-133787302D01*
X107454358Y-133620880D01*
X107454356Y-133620875D01*
X107362315Y-133471654D01*
X107238345Y-133347684D01*
X107089124Y-133255643D01*
X107089119Y-133255641D01*
X106999246Y-133225860D01*
X106941801Y-133186087D01*
X106914978Y-133121571D01*
X106927293Y-133052795D01*
X106965365Y-133007836D01*
X106996078Y-132985522D01*
X107151632Y-132822825D01*
X107275635Y-132634968D01*
X107364103Y-132427988D01*
X107414191Y-132208537D01*
X107424290Y-131983670D01*
X107394075Y-131760613D01*
X107324517Y-131546536D01*
X107217852Y-131348319D01*
X107105239Y-131207107D01*
X107077510Y-131172336D01*
X107077508Y-131172334D01*
X106907996Y-131024235D01*
X106714764Y-130908785D01*
X106714763Y-130908784D01*
X106714762Y-130908784D01*
X106702577Y-130904211D01*
X106646730Y-130862225D01*
X106622448Y-130796710D01*
X106637441Y-130728468D01*
X106686948Y-130679165D01*
X106692314Y-130676416D01*
X106813973Y-130617829D01*
X106996078Y-130485522D01*
X107151632Y-130322825D01*
X107275635Y-130134968D01*
X107364103Y-129927988D01*
X107414191Y-129708537D01*
X107424290Y-129483670D01*
X107394075Y-129260613D01*
X107324517Y-129046536D01*
X107217852Y-128848319D01*
X107077508Y-128672334D01*
X106907996Y-128524235D01*
X106714764Y-128408785D01*
X106714763Y-128408784D01*
X106714762Y-128408784D01*
X106702577Y-128404211D01*
X106646730Y-128362225D01*
X106622448Y-128296710D01*
X106637441Y-128228468D01*
X106686948Y-128179165D01*
X106692314Y-128176416D01*
X106813973Y-128117829D01*
X106996078Y-127985522D01*
X107151632Y-127822825D01*
X107275635Y-127634968D01*
X107364103Y-127427988D01*
X107414191Y-127208537D01*
X107424290Y-126983670D01*
X107394075Y-126760613D01*
X107324517Y-126546536D01*
X107217852Y-126348319D01*
X107141721Y-126252854D01*
X107077510Y-126172336D01*
X107041886Y-126141212D01*
X106907996Y-126024235D01*
X106714766Y-125908786D01*
X106714765Y-125908785D01*
X106707901Y-125906209D01*
X106700927Y-125903592D01*
X106645081Y-125861607D01*
X106620798Y-125796093D01*
X106620500Y-125787500D01*
X106620500Y-122209742D01*
X106640185Y-122142703D01*
X106656819Y-122122061D01*
X116082061Y-112696819D01*
X116143384Y-112663334D01*
X116169742Y-112660500D01*
X116299644Y-112660500D01*
X116299646Y-112660500D01*
X116484803Y-112621144D01*
X116657730Y-112544151D01*
X116810871Y-112432888D01*
X116937533Y-112292216D01*
X117032179Y-112128284D01*
X117090674Y-111948256D01*
X117110460Y-111760000D01*
X117090674Y-111571744D01*
X117032179Y-111391716D01*
X116937533Y-111227784D01*
X116937344Y-111227574D01*
X116937273Y-111227427D01*
X116933714Y-111222528D01*
X116934610Y-111221876D01*
X116907119Y-111164580D01*
X116905500Y-111144608D01*
X116905500Y-110915391D01*
X116925185Y-110848352D01*
X116937352Y-110832417D01*
X116937533Y-110832216D01*
X117032179Y-110668284D01*
X117090674Y-110488256D01*
X117110460Y-110300000D01*
X117090674Y-110111744D01*
X117032179Y-109931716D01*
X116937533Y-109767784D01*
X116810871Y-109627112D01*
X116716271Y-109558381D01*
X116657734Y-109515851D01*
X116657729Y-109515848D01*
X116484807Y-109438857D01*
X116484802Y-109438855D01*
X116339001Y-109407865D01*
X116299646Y-109399500D01*
X116110354Y-109399500D01*
X116077897Y-109406398D01*
X115925197Y-109438855D01*
X115925192Y-109438857D01*
X115752270Y-109515848D01*
X115752265Y-109515851D01*
X115599129Y-109627111D01*
X115472466Y-109767785D01*
X115377821Y-109931715D01*
X115377818Y-109931722D01*
X115319327Y-110111740D01*
X115319326Y-110111744D01*
X115299540Y-110300000D01*
X115319326Y-110488256D01*
X115319327Y-110488259D01*
X115377818Y-110668277D01*
X115377821Y-110668284D01*
X115472466Y-110832215D01*
X115472648Y-110832417D01*
X115472716Y-110832559D01*
X115476285Y-110837471D01*
X115475386Y-110838123D01*
X115502879Y-110895408D01*
X115504500Y-110915391D01*
X115504500Y-111144608D01*
X115484815Y-111211647D01*
X115472656Y-111227574D01*
X115472468Y-111227782D01*
X115472464Y-111227787D01*
X115377821Y-111391715D01*
X115377818Y-111391722D01*
X115332557Y-111531023D01*
X115319326Y-111571744D01*
X115299540Y-111760000D01*
X115299540Y-111760002D01*
X115302067Y-111784052D01*
X115289496Y-111852782D01*
X115266427Y-111884691D01*
X105670477Y-121480641D01*
X105658288Y-121491332D01*
X105634550Y-121509548D01*
X105610133Y-121541367D01*
X105610132Y-121541366D01*
X105610118Y-121541386D01*
X105542301Y-121629766D01*
X105484313Y-121769763D01*
X105484313Y-121769764D01*
X105468970Y-121886305D01*
X105468968Y-121886315D01*
X105468969Y-121886316D01*
X105464535Y-121920000D01*
X105468439Y-121949653D01*
X105469500Y-121965839D01*
X105469500Y-125791085D01*
X105449815Y-125858124D01*
X105399301Y-125902805D01*
X105276033Y-125962167D01*
X105276025Y-125962171D01*
X105093927Y-126094473D01*
X105093925Y-126094474D01*
X104938366Y-126257176D01*
X104814363Y-126445033D01*
X104725899Y-126652004D01*
X104725895Y-126652017D01*
X104675810Y-126871457D01*
X104675808Y-126871468D01*
X104669895Y-127003138D01*
X104665710Y-127096330D01*
X104695925Y-127319387D01*
X104695926Y-127319390D01*
X104765483Y-127533465D01*
X104872146Y-127731678D01*
X104872148Y-127731681D01*
X105012489Y-127907663D01*
X105012491Y-127907664D01*
X105012492Y-127907666D01*
X105182004Y-128055765D01*
X105375236Y-128171215D01*
X105387420Y-128175787D01*
X105443267Y-128217771D01*
X105467551Y-128283285D01*
X105452560Y-128351528D01*
X105403055Y-128400833D01*
X105397651Y-128403600D01*
X105276029Y-128462169D01*
X105276025Y-128462171D01*
X105093927Y-128594473D01*
X105093925Y-128594474D01*
X104938366Y-128757176D01*
X104814363Y-128945033D01*
X104725899Y-129152004D01*
X104725895Y-129152017D01*
X104675810Y-129371457D01*
X104675808Y-129371468D01*
X104670769Y-129483674D01*
X104665710Y-129596330D01*
X104695925Y-129819387D01*
X104695926Y-129819390D01*
X104765483Y-130033465D01*
X104872146Y-130231678D01*
X104872148Y-130231681D01*
X105012489Y-130407663D01*
X105012491Y-130407664D01*
X105012492Y-130407666D01*
X105182004Y-130555765D01*
X105375236Y-130671215D01*
X105387420Y-130675787D01*
X105443267Y-130717771D01*
X105467551Y-130783285D01*
X105452560Y-130851528D01*
X105403055Y-130900833D01*
X105397651Y-130903600D01*
X105276029Y-130962169D01*
X105276025Y-130962171D01*
X105093927Y-131094473D01*
X105093925Y-131094474D01*
X104938366Y-131257176D01*
X104814363Y-131445033D01*
X104725899Y-131652004D01*
X104725895Y-131652017D01*
X104675810Y-131871457D01*
X104675808Y-131871468D01*
X104670769Y-131983674D01*
X104665710Y-132096330D01*
X104695925Y-132319387D01*
X104695926Y-132319390D01*
X104765483Y-132533465D01*
X104872146Y-132731678D01*
X104872148Y-132731681D01*
X105012489Y-132907663D01*
X105012491Y-132907664D01*
X105012492Y-132907666D01*
X105134604Y-133014353D01*
X105172138Y-133073284D01*
X105171853Y-133143153D01*
X105133838Y-133201777D01*
X105092024Y-133225439D01*
X105000878Y-133255642D01*
X105000875Y-133255643D01*
X104851654Y-133347684D01*
X104727684Y-133471654D01*
X104635643Y-133620875D01*
X104635641Y-133620880D01*
X104580494Y-133787302D01*
X104580493Y-133787309D01*
X104570000Y-133890013D01*
X104570000Y-134290000D01*
X103855500Y-134290000D01*
X103855500Y-115666330D01*
X104640710Y-115666330D01*
X104670925Y-115889387D01*
X104670926Y-115889390D01*
X104740483Y-116103465D01*
X104847146Y-116301678D01*
X104847148Y-116301681D01*
X104987489Y-116477663D01*
X105157000Y-116625762D01*
X105157001Y-116625763D01*
X105157004Y-116625765D01*
X105190600Y-116645838D01*
X105238052Y-116697119D01*
X105250247Y-116765916D01*
X105223312Y-116830385D01*
X105165798Y-116870058D01*
X105161595Y-116871360D01*
X105034604Y-116908254D01*
X105034603Y-116908255D01*
X104893137Y-116991917D01*
X104893129Y-116991923D01*
X104776923Y-117108129D01*
X104776917Y-117108137D01*
X104693255Y-117249603D01*
X104693254Y-117249606D01*
X104647402Y-117407426D01*
X104647401Y-117407432D01*
X104644500Y-117444298D01*
X104644500Y-118775701D01*
X104647401Y-118812567D01*
X104647402Y-118812573D01*
X104693254Y-118970393D01*
X104693255Y-118970396D01*
X104776917Y-119111862D01*
X104776923Y-119111870D01*
X104893129Y-119228076D01*
X104893133Y-119228079D01*
X104893135Y-119228081D01*
X105034602Y-119311744D01*
X105076224Y-119323836D01*
X105192426Y-119357597D01*
X105192429Y-119357597D01*
X105192431Y-119357598D01*
X105229306Y-119360500D01*
X105229314Y-119360500D01*
X106860686Y-119360500D01*
X106860694Y-119360500D01*
X106897569Y-119357598D01*
X106897571Y-119357597D01*
X106897573Y-119357597D01*
X106939191Y-119345505D01*
X107055398Y-119311744D01*
X107196865Y-119228081D01*
X107313081Y-119111865D01*
X107396744Y-118970398D01*
X107442598Y-118812569D01*
X107445500Y-118775694D01*
X107445500Y-117444306D01*
X107442598Y-117407431D01*
X107396744Y-117249602D01*
X107313081Y-117108135D01*
X107313079Y-117108133D01*
X107313076Y-117108129D01*
X107196870Y-116991923D01*
X107196862Y-116991917D01*
X107055396Y-116908255D01*
X107055393Y-116908253D01*
X106927132Y-116870990D01*
X106868246Y-116833384D01*
X106839040Y-116769911D01*
X106848786Y-116700724D01*
X106888840Y-116651598D01*
X107021078Y-116555522D01*
X107176632Y-116392825D01*
X107300635Y-116204968D01*
X107389103Y-115997988D01*
X107439191Y-115778537D01*
X107449290Y-115553670D01*
X107419075Y-115330613D01*
X107349517Y-115116536D01*
X107242852Y-114918319D01*
X107102508Y-114742334D01*
X106932996Y-114594235D01*
X106739764Y-114478785D01*
X106621775Y-114434503D01*
X106529023Y-114399692D01*
X106307550Y-114359500D01*
X106307547Y-114359500D01*
X105838845Y-114359500D01*
X105800399Y-114362960D01*
X105670813Y-114374622D01*
X105670807Y-114374623D01*
X105453839Y-114434503D01*
X105453826Y-114434508D01*
X105251033Y-114532167D01*
X105251025Y-114532171D01*
X105068927Y-114664473D01*
X105068925Y-114664474D01*
X104913366Y-114827176D01*
X104789363Y-115015033D01*
X104700899Y-115222004D01*
X104700895Y-115222017D01*
X104650810Y-115441457D01*
X104650808Y-115441468D01*
X104645769Y-115553674D01*
X104640710Y-115666330D01*
X103855500Y-115666330D01*
X103855500Y-109855000D01*
X104839357Y-109855000D01*
X104859884Y-110076535D01*
X104859885Y-110076537D01*
X104920769Y-110290523D01*
X104920775Y-110290538D01*
X105019938Y-110489683D01*
X105019943Y-110489691D01*
X105154020Y-110667238D01*
X105318437Y-110817123D01*
X105318439Y-110817125D01*
X105507595Y-110934245D01*
X105507596Y-110934245D01*
X105507599Y-110934247D01*
X105715060Y-111014618D01*
X105933757Y-111055500D01*
X105933759Y-111055500D01*
X106156241Y-111055500D01*
X106156243Y-111055500D01*
X106374940Y-111014618D01*
X106582401Y-110934247D01*
X106771562Y-110817124D01*
X106911282Y-110689751D01*
X106935979Y-110667238D01*
X106940670Y-110661027D01*
X107070058Y-110489689D01*
X107169229Y-110290528D01*
X107230115Y-110076536D01*
X107250643Y-109855000D01*
X109839357Y-109855000D01*
X109859884Y-110076535D01*
X109859885Y-110076537D01*
X109920769Y-110290523D01*
X109920775Y-110290538D01*
X110019938Y-110489683D01*
X110019943Y-110489691D01*
X110154020Y-110667238D01*
X110318437Y-110817123D01*
X110318439Y-110817125D01*
X110507595Y-110934245D01*
X110507596Y-110934245D01*
X110507599Y-110934247D01*
X110715060Y-111014618D01*
X110933757Y-111055500D01*
X110933759Y-111055500D01*
X111156241Y-111055500D01*
X111156243Y-111055500D01*
X111374940Y-111014618D01*
X111582401Y-110934247D01*
X111771562Y-110817124D01*
X111911282Y-110689751D01*
X111935979Y-110667238D01*
X111940670Y-110661027D01*
X112070058Y-110489689D01*
X112169229Y-110290528D01*
X112230115Y-110076536D01*
X112250643Y-109855000D01*
X112242561Y-109767785D01*
X112230115Y-109633464D01*
X112230114Y-109633462D01*
X112228307Y-109627112D01*
X112169229Y-109419472D01*
X112164092Y-109409155D01*
X112070061Y-109220316D01*
X112070056Y-109220308D01*
X111935979Y-109042761D01*
X111771562Y-108892876D01*
X111771560Y-108892874D01*
X111582404Y-108775754D01*
X111582398Y-108775752D01*
X111577806Y-108773973D01*
X111374940Y-108695382D01*
X111156243Y-108654500D01*
X110933757Y-108654500D01*
X110715060Y-108695382D01*
X110628556Y-108728894D01*
X110507601Y-108775752D01*
X110507595Y-108775754D01*
X110318439Y-108892874D01*
X110318437Y-108892876D01*
X110154020Y-109042761D01*
X110019943Y-109220308D01*
X110019938Y-109220316D01*
X109920775Y-109419461D01*
X109920769Y-109419476D01*
X109859885Y-109633462D01*
X109859884Y-109633464D01*
X109839357Y-109854999D01*
X109839357Y-109855000D01*
X107250643Y-109855000D01*
X107242561Y-109767785D01*
X107230115Y-109633464D01*
X107230114Y-109633462D01*
X107228307Y-109627112D01*
X107169229Y-109419472D01*
X107164092Y-109409155D01*
X107070061Y-109220316D01*
X107070056Y-109220308D01*
X106935979Y-109042761D01*
X106771562Y-108892876D01*
X106771560Y-108892874D01*
X106582404Y-108775754D01*
X106582398Y-108775752D01*
X106577806Y-108773973D01*
X106374940Y-108695382D01*
X106156243Y-108654500D01*
X105933757Y-108654500D01*
X105715060Y-108695382D01*
X105628556Y-108728894D01*
X105507601Y-108775752D01*
X105507595Y-108775754D01*
X105318439Y-108892874D01*
X105318437Y-108892876D01*
X105154020Y-109042761D01*
X105019943Y-109220308D01*
X105019938Y-109220316D01*
X104920775Y-109419461D01*
X104920769Y-109419476D01*
X104859885Y-109633462D01*
X104859884Y-109633464D01*
X104839357Y-109854999D01*
X104839357Y-109855000D01*
X103855500Y-109855000D01*
X103855500Y-104775000D01*
X104839357Y-104775000D01*
X104859884Y-104996535D01*
X104859885Y-104996537D01*
X104920769Y-105210523D01*
X104920775Y-105210538D01*
X105019938Y-105409683D01*
X105019943Y-105409691D01*
X105154020Y-105587238D01*
X105318437Y-105737123D01*
X105318439Y-105737125D01*
X105507595Y-105854245D01*
X105507596Y-105854245D01*
X105507599Y-105854247D01*
X105715060Y-105934618D01*
X105933757Y-105975500D01*
X105933759Y-105975500D01*
X106156241Y-105975500D01*
X106156243Y-105975500D01*
X106374940Y-105934618D01*
X106582401Y-105854247D01*
X106771562Y-105737124D01*
X106935981Y-105587236D01*
X107070058Y-105409689D01*
X107169229Y-105210528D01*
X107230115Y-104996536D01*
X107250643Y-104775000D01*
X109839357Y-104775000D01*
X109859884Y-104996535D01*
X109859885Y-104996537D01*
X109920769Y-105210523D01*
X109920775Y-105210538D01*
X110019938Y-105409683D01*
X110019943Y-105409691D01*
X110154020Y-105587238D01*
X110318437Y-105737123D01*
X110318439Y-105737125D01*
X110507595Y-105854245D01*
X110507596Y-105854245D01*
X110507599Y-105854247D01*
X110715060Y-105934618D01*
X110933757Y-105975500D01*
X110933759Y-105975500D01*
X111156241Y-105975500D01*
X111156243Y-105975500D01*
X111374940Y-105934618D01*
X111582401Y-105854247D01*
X111771562Y-105737124D01*
X111935981Y-105587236D01*
X112070058Y-105409689D01*
X112169229Y-105210528D01*
X112230115Y-104996536D01*
X112250643Y-104775000D01*
X112230115Y-104553464D01*
X112169229Y-104339472D01*
X112169224Y-104339461D01*
X112070061Y-104140316D01*
X112070056Y-104140308D01*
X111935979Y-103962761D01*
X111771562Y-103812876D01*
X111771560Y-103812874D01*
X111582404Y-103695754D01*
X111582398Y-103695752D01*
X111374940Y-103615382D01*
X111156243Y-103574500D01*
X110933757Y-103574500D01*
X110715060Y-103615382D01*
X110583864Y-103666207D01*
X110507601Y-103695752D01*
X110507595Y-103695754D01*
X110318439Y-103812874D01*
X110318437Y-103812876D01*
X110154020Y-103962761D01*
X110019943Y-104140308D01*
X110019938Y-104140316D01*
X109920775Y-104339461D01*
X109920769Y-104339476D01*
X109859885Y-104553462D01*
X109859884Y-104553464D01*
X109839357Y-104774999D01*
X109839357Y-104775000D01*
X107250643Y-104775000D01*
X107230115Y-104553464D01*
X107169229Y-104339472D01*
X107169224Y-104339461D01*
X107070061Y-104140316D01*
X107070056Y-104140308D01*
X106935979Y-103962761D01*
X106771562Y-103812876D01*
X106771560Y-103812874D01*
X106582404Y-103695754D01*
X106582398Y-103695752D01*
X106374940Y-103615382D01*
X106156243Y-103574500D01*
X105933757Y-103574500D01*
X105715060Y-103615382D01*
X105583864Y-103666207D01*
X105507601Y-103695752D01*
X105507595Y-103695754D01*
X105318439Y-103812874D01*
X105318437Y-103812876D01*
X105154020Y-103962761D01*
X105019943Y-104140308D01*
X105019938Y-104140316D01*
X104920775Y-104339461D01*
X104920769Y-104339476D01*
X104859885Y-104553462D01*
X104859884Y-104553464D01*
X104839357Y-104774999D01*
X104839357Y-104775000D01*
X103855500Y-104775000D01*
X103855500Y-100286028D01*
X103875185Y-100218989D01*
X103927989Y-100173234D01*
X103997147Y-100163290D01*
X104060703Y-100192315D01*
X104067181Y-100198347D01*
X104300991Y-100432157D01*
X104300995Y-100432160D01*
X104590205Y-100666358D01*
X104842192Y-100830000D01*
X104902313Y-100869043D01*
X105233900Y-101037995D01*
X105581329Y-101171361D01*
X105940796Y-101267680D01*
X106308362Y-101325896D01*
X106659444Y-101344295D01*
X106679999Y-101345373D01*
X106680000Y-101345373D01*
X106680001Y-101345373D01*
X106699478Y-101344352D01*
X107051638Y-101325896D01*
X107419204Y-101267680D01*
X107778671Y-101171361D01*
X108126100Y-101037995D01*
X108457687Y-100869043D01*
X108769796Y-100666357D01*
X109059009Y-100432157D01*
X109322157Y-100169009D01*
X109459016Y-100000002D01*
X121154652Y-100000002D01*
X121174028Y-100357368D01*
X121174029Y-100357385D01*
X121231926Y-100710539D01*
X121231932Y-100710565D01*
X121327672Y-101055392D01*
X121327674Y-101055399D01*
X121460142Y-101387870D01*
X121460151Y-101387888D01*
X121627784Y-101704077D01*
X121627787Y-101704082D01*
X121627789Y-101704085D01*
X121826701Y-101997459D01*
X121828634Y-102000309D01*
X121828641Y-102000319D01*
X122002640Y-102205166D01*
X122060332Y-102273086D01*
X122320163Y-102519211D01*
X122605081Y-102735800D01*
X122911747Y-102920315D01*
X122911749Y-102920316D01*
X122911751Y-102920317D01*
X122911755Y-102920319D01*
X123236552Y-103070585D01*
X123236565Y-103070591D01*
X123575726Y-103184868D01*
X123925254Y-103261805D01*
X124281052Y-103300500D01*
X124281058Y-103300500D01*
X124638942Y-103300500D01*
X124638948Y-103300500D01*
X124994746Y-103261805D01*
X125344274Y-103184868D01*
X125683435Y-103070591D01*
X126008253Y-102920315D01*
X126314919Y-102735800D01*
X126599837Y-102519211D01*
X126859668Y-102273086D01*
X127091365Y-102000311D01*
X127292211Y-101704085D01*
X127459853Y-101387880D01*
X127592324Y-101055403D01*
X127688071Y-100710552D01*
X127733711Y-100432160D01*
X127745970Y-100357385D01*
X127745970Y-100357382D01*
X127745972Y-100357371D01*
X127765348Y-100000000D01*
X127745972Y-99642629D01*
X127741218Y-99613632D01*
X127688073Y-99289460D01*
X127688072Y-99289459D01*
X127688071Y-99289448D01*
X127592324Y-98944597D01*
X127546664Y-98830000D01*
X127459857Y-98612129D01*
X127459848Y-98612111D01*
X127415893Y-98529204D01*
X127292211Y-98295915D01*
X127091365Y-97999689D01*
X127091361Y-97999684D01*
X127091358Y-97999680D01*
X126859668Y-97726914D01*
X126599837Y-97480789D01*
X126599830Y-97480783D01*
X126599827Y-97480781D01*
X126517713Y-97418360D01*
X126314919Y-97264200D01*
X126008253Y-97079685D01*
X126008252Y-97079684D01*
X126008248Y-97079682D01*
X126008244Y-97079680D01*
X125683447Y-96929414D01*
X125683441Y-96929411D01*
X125683435Y-96929409D01*
X125513854Y-96872270D01*
X125344273Y-96815131D01*
X124994744Y-96738194D01*
X124638949Y-96699500D01*
X124638948Y-96699500D01*
X124281052Y-96699500D01*
X124281050Y-96699500D01*
X123925255Y-96738194D01*
X123575726Y-96815131D01*
X123368434Y-96884977D01*
X123236565Y-96929409D01*
X123236563Y-96929410D01*
X123236552Y-96929414D01*
X122911755Y-97079680D01*
X122911751Y-97079682D01*
X122683367Y-97217096D01*
X122605081Y-97264200D01*
X122516768Y-97331333D01*
X122320172Y-97480781D01*
X122320163Y-97480789D01*
X122060331Y-97726914D01*
X121828641Y-97999680D01*
X121828634Y-97999690D01*
X121627790Y-98295913D01*
X121627784Y-98295922D01*
X121460151Y-98612111D01*
X121460142Y-98612129D01*
X121327674Y-98944600D01*
X121327672Y-98944607D01*
X121231932Y-99289434D01*
X121231926Y-99289460D01*
X121174029Y-99642614D01*
X121174028Y-99642631D01*
X121154652Y-99999997D01*
X121154652Y-100000002D01*
X109459016Y-100000002D01*
X109556357Y-99879796D01*
X109759043Y-99567687D01*
X109927995Y-99236100D01*
X110061361Y-98888671D01*
X110157680Y-98529204D01*
X110215896Y-98161638D01*
X110235373Y-97790000D01*
X110215896Y-97418362D01*
X110157680Y-97050796D01*
X110061361Y-96691329D01*
X109927995Y-96343900D01*
X109759043Y-96012314D01*
X109556357Y-95700204D01*
X109322157Y-95410991D01*
X109088347Y-95177181D01*
X109054862Y-95115858D01*
X109059846Y-95046166D01*
X109101718Y-94990233D01*
X109167182Y-94965816D01*
X109176028Y-94965500D01*
X142333486Y-94965500D01*
X142400525Y-94985185D01*
G37*
%TD.AperFunction*%
%TA.AperFunction,Conductor*%
G36*
X164668834Y-100169846D02*
G01*
X164724767Y-100211718D01*
X164749184Y-100277182D01*
X164749500Y-100286028D01*
X164749500Y-108910755D01*
X164729815Y-108977794D01*
X164677011Y-109023549D01*
X164607853Y-109033493D01*
X164544297Y-109004468D01*
X164506523Y-108945690D01*
X164501947Y-108921271D01*
X164501052Y-108910755D01*
X164500346Y-108902459D01*
X164500344Y-108902450D01*
X164498904Y-108896919D01*
X164495598Y-108878799D01*
X164494992Y-108873111D01*
X164494992Y-108873108D01*
X164466896Y-108773891D01*
X164466245Y-108771492D01*
X164440275Y-108671751D01*
X164437913Y-108666525D01*
X164431601Y-108649244D01*
X164430039Y-108643731D01*
X164430038Y-108643727D01*
X164385591Y-108550713D01*
X164384520Y-108548408D01*
X164342077Y-108454514D01*
X164338867Y-108449764D01*
X164329721Y-108433792D01*
X164327251Y-108428623D01*
X164270073Y-108347780D01*
X164267753Y-108344500D01*
X164266273Y-108342357D01*
X164208583Y-108257002D01*
X164208581Y-108256999D01*
X164204614Y-108252860D01*
X164192896Y-108238658D01*
X164189596Y-108233992D01*
X164189593Y-108233989D01*
X164189590Y-108233984D01*
X164116774Y-108161168D01*
X164114932Y-108159287D01*
X164043620Y-108084881D01*
X164043619Y-108084880D01*
X164039008Y-108081470D01*
X164025062Y-108069456D01*
X160821819Y-104866213D01*
X160788334Y-104804890D01*
X160785500Y-104778532D01*
X160785500Y-102283564D01*
X160785751Y-102275673D01*
X160785916Y-102273085D01*
X160790247Y-102205167D01*
X160779331Y-102102711D01*
X160779083Y-102100114D01*
X160770346Y-101997459D01*
X160770344Y-101997450D01*
X160768904Y-101991919D01*
X160765598Y-101973799D01*
X160764992Y-101968111D01*
X160764992Y-101968108D01*
X160736896Y-101868891D01*
X160736245Y-101866492D01*
X160713425Y-101778849D01*
X160710276Y-101766754D01*
X160710275Y-101766753D01*
X160710275Y-101766751D01*
X160707913Y-101761525D01*
X160701601Y-101744244D01*
X160700039Y-101738731D01*
X160700038Y-101738727D01*
X160655591Y-101645713D01*
X160654520Y-101643408D01*
X160629239Y-101587481D01*
X160612078Y-101549515D01*
X160608871Y-101544771D01*
X160599721Y-101528791D01*
X160597253Y-101523627D01*
X160597252Y-101523626D01*
X160597251Y-101523623D01*
X160537753Y-101439498D01*
X160536257Y-101437334D01*
X160478586Y-101352006D01*
X160478582Y-101352001D01*
X160478579Y-101351997D01*
X160474611Y-101347857D01*
X160462903Y-101333667D01*
X160459591Y-101328984D01*
X160387787Y-101257180D01*
X160354302Y-101195857D01*
X160359286Y-101126165D01*
X160401158Y-101070232D01*
X160466622Y-101045815D01*
X160519902Y-101053734D01*
X160826329Y-101171361D01*
X161185796Y-101267680D01*
X161553362Y-101325896D01*
X161904444Y-101344295D01*
X161924999Y-101345373D01*
X161925000Y-101345373D01*
X161925001Y-101345373D01*
X161944478Y-101344352D01*
X162296638Y-101325896D01*
X162664204Y-101267680D01*
X163023671Y-101171361D01*
X163371100Y-101037995D01*
X163702687Y-100869043D01*
X164014796Y-100666357D01*
X164304009Y-100432157D01*
X164537819Y-100198347D01*
X164599142Y-100164862D01*
X164668834Y-100169846D01*
G37*
%TD.AperFunction*%
%TD*%
%TA.AperFunction,Conductor*%
%TO.N,VCC*%
G36*
X141618057Y-97156060D02*
G01*
X141733232Y-97171224D01*
X141756870Y-97174336D01*
X141788136Y-97182714D01*
X141909915Y-97233156D01*
X141937950Y-97249342D01*
X142042525Y-97329586D01*
X142065413Y-97352474D01*
X142145657Y-97457049D01*
X142161843Y-97485084D01*
X142212285Y-97606863D01*
X142220663Y-97638129D01*
X142238939Y-97776940D01*
X142240000Y-97793126D01*
X142240000Y-101362832D01*
X142239157Y-101377265D01*
X142224623Y-101501288D01*
X142217950Y-101529368D01*
X142177637Y-101639824D01*
X142164654Y-101665602D01*
X142095884Y-101769829D01*
X142087232Y-101781411D01*
X132274602Y-113433909D01*
X132262052Y-113446788D01*
X132146031Y-113549733D01*
X132116037Y-113569409D01*
X131983667Y-113630992D01*
X131949298Y-113641260D01*
X131795821Y-113663696D01*
X131777885Y-113665000D01*
X130178126Y-113665000D01*
X130161942Y-113663939D01*
X130142681Y-113661403D01*
X130023129Y-113645663D01*
X129991863Y-113637285D01*
X129870084Y-113586843D01*
X129842049Y-113570657D01*
X129737474Y-113490413D01*
X129714586Y-113467525D01*
X129634342Y-113362950D01*
X129618156Y-113334915D01*
X129567714Y-113213136D01*
X129559336Y-113181869D01*
X129541061Y-113043058D01*
X129540000Y-113026873D01*
X129540000Y-108807992D01*
X129540752Y-108794359D01*
X129553724Y-108677087D01*
X129559681Y-108650491D01*
X129595744Y-108545386D01*
X129607366Y-108520742D01*
X129669134Y-108420192D01*
X129676896Y-108408989D01*
X135145566Y-101377844D01*
X138200000Y-101377844D01*
X138206401Y-101437372D01*
X138206403Y-101437379D01*
X138256645Y-101572086D01*
X138256649Y-101572093D01*
X138342809Y-101687187D01*
X138342812Y-101687190D01*
X138457906Y-101773350D01*
X138457913Y-101773354D01*
X138592620Y-101823596D01*
X138592627Y-101823598D01*
X138652155Y-101829999D01*
X138652172Y-101830000D01*
X139450000Y-101830000D01*
X139450000Y-100765501D01*
X139557685Y-100814680D01*
X139664237Y-100830000D01*
X139735763Y-100830000D01*
X139842315Y-100814680D01*
X139950000Y-100765501D01*
X139950000Y-101830000D01*
X140747828Y-101830000D01*
X140747844Y-101829999D01*
X140807372Y-101823598D01*
X140807379Y-101823596D01*
X140942086Y-101773354D01*
X140942093Y-101773350D01*
X141057187Y-101687190D01*
X141057190Y-101687187D01*
X141143350Y-101572093D01*
X141143354Y-101572086D01*
X141193596Y-101437379D01*
X141193598Y-101437372D01*
X141199999Y-101377844D01*
X141200000Y-101377827D01*
X141200000Y-100580000D01*
X140133686Y-100580000D01*
X140159493Y-100539844D01*
X140200000Y-100401889D01*
X140200000Y-100258111D01*
X140159493Y-100120156D01*
X140133686Y-100080000D01*
X141200000Y-100080000D01*
X141200000Y-99282172D01*
X141199999Y-99282155D01*
X141193598Y-99222627D01*
X141193596Y-99222620D01*
X141143354Y-99087913D01*
X141143350Y-99087906D01*
X141057190Y-98972812D01*
X141057187Y-98972809D01*
X140942093Y-98886649D01*
X140942086Y-98886645D01*
X140807379Y-98836403D01*
X140807372Y-98836401D01*
X140747844Y-98830000D01*
X139950000Y-98830000D01*
X139950000Y-99894498D01*
X139842315Y-99845320D01*
X139735763Y-99830000D01*
X139664237Y-99830000D01*
X139557685Y-99845320D01*
X139450000Y-99894498D01*
X139450000Y-98830000D01*
X138652155Y-98830000D01*
X138592627Y-98836401D01*
X138592620Y-98836403D01*
X138457913Y-98886645D01*
X138457906Y-98886649D01*
X138342812Y-98972809D01*
X138342809Y-98972812D01*
X138256649Y-99087906D01*
X138256645Y-99087913D01*
X138206403Y-99222620D01*
X138206401Y-99222627D01*
X138200000Y-99282155D01*
X138200000Y-100080000D01*
X139266314Y-100080000D01*
X139240507Y-100120156D01*
X139200000Y-100258111D01*
X139200000Y-100401889D01*
X139240507Y-100539844D01*
X139266314Y-100580000D01*
X138200000Y-100580000D01*
X138200000Y-101377844D01*
X135145566Y-101377844D01*
X135960556Y-100330000D01*
X138236500Y-97403784D01*
X138245769Y-97393173D01*
X138308017Y-97329586D01*
X138330948Y-97306162D01*
X138352775Y-97288427D01*
X138449402Y-97226683D01*
X138474668Y-97214325D01*
X138582731Y-97175959D01*
X138610133Y-97169617D01*
X138711787Y-97158007D01*
X138731111Y-97155801D01*
X138745181Y-97155000D01*
X141601874Y-97155000D01*
X141618057Y-97156060D01*
G37*
%TD.AperFunction*%
%TD*%
%TA.AperFunction,Conductor*%
%TO.N,VCC*%
G36*
X131795820Y-126366304D02*
G01*
X131898097Y-126381254D01*
X131949297Y-126388739D01*
X131983667Y-126399007D01*
X132116037Y-126460590D01*
X132146031Y-126480266D01*
X132262052Y-126583211D01*
X132274602Y-126596090D01*
X142087232Y-138248588D01*
X142095877Y-138260161D01*
X142150410Y-138342809D01*
X142164654Y-138364397D01*
X142177637Y-138390175D01*
X142217950Y-138500631D01*
X142224623Y-138528711D01*
X142239157Y-138652734D01*
X142240000Y-138667167D01*
X142240000Y-142236873D01*
X142238939Y-142253059D01*
X142220663Y-142391870D01*
X142212285Y-142423136D01*
X142161843Y-142544915D01*
X142145657Y-142572950D01*
X142065413Y-142677525D01*
X142042525Y-142700413D01*
X141937950Y-142780657D01*
X141909915Y-142796843D01*
X141788136Y-142847285D01*
X141756870Y-142855663D01*
X141634984Y-142871710D01*
X141618057Y-142873939D01*
X141601874Y-142875000D01*
X138745181Y-142875000D01*
X138731110Y-142874199D01*
X138610140Y-142860383D01*
X138582724Y-142854038D01*
X138474676Y-142815677D01*
X138449395Y-142803312D01*
X138413941Y-142780657D01*
X138352781Y-142741576D01*
X138330944Y-142723833D01*
X138245769Y-142636826D01*
X138236498Y-142626212D01*
X136775545Y-140747844D01*
X138200000Y-140747844D01*
X138206401Y-140807372D01*
X138206403Y-140807379D01*
X138256645Y-140942086D01*
X138256649Y-140942093D01*
X138342809Y-141057187D01*
X138342812Y-141057190D01*
X138457906Y-141143350D01*
X138457913Y-141143354D01*
X138592620Y-141193596D01*
X138592627Y-141193598D01*
X138652155Y-141199999D01*
X138652172Y-141200000D01*
X139450000Y-141200000D01*
X139450000Y-140135501D01*
X139557685Y-140184680D01*
X139664237Y-140200000D01*
X139735763Y-140200000D01*
X139842315Y-140184680D01*
X139950000Y-140135501D01*
X139950000Y-141200000D01*
X140747828Y-141200000D01*
X140747844Y-141199999D01*
X140807372Y-141193598D01*
X140807379Y-141193596D01*
X140942086Y-141143354D01*
X140942093Y-141143350D01*
X141057187Y-141057190D01*
X141057190Y-141057187D01*
X141143350Y-140942093D01*
X141143354Y-140942086D01*
X141193596Y-140807379D01*
X141193598Y-140807372D01*
X141199999Y-140747844D01*
X141200000Y-140747827D01*
X141200000Y-139950000D01*
X140133686Y-139950000D01*
X140159493Y-139909844D01*
X140200000Y-139771889D01*
X140200000Y-139628111D01*
X140159493Y-139490156D01*
X140133686Y-139450000D01*
X141200000Y-139450000D01*
X141200000Y-138652172D01*
X141199999Y-138652155D01*
X141193598Y-138592627D01*
X141193596Y-138592620D01*
X141143354Y-138457913D01*
X141143350Y-138457906D01*
X141057190Y-138342812D01*
X141057187Y-138342809D01*
X140942093Y-138256649D01*
X140942086Y-138256645D01*
X140807379Y-138206403D01*
X140807372Y-138206401D01*
X140747844Y-138200000D01*
X139950000Y-138200000D01*
X139950000Y-139264498D01*
X139842315Y-139215320D01*
X139735763Y-139200000D01*
X139664237Y-139200000D01*
X139557685Y-139215320D01*
X139450000Y-139264498D01*
X139450000Y-138200000D01*
X138652155Y-138200000D01*
X138592627Y-138206401D01*
X138592620Y-138206403D01*
X138457913Y-138256645D01*
X138457906Y-138256649D01*
X138342812Y-138342809D01*
X138342809Y-138342812D01*
X138256649Y-138457906D01*
X138256645Y-138457913D01*
X138206403Y-138592620D01*
X138206401Y-138592627D01*
X138200000Y-138652155D01*
X138200000Y-139450000D01*
X139266314Y-139450000D01*
X139240507Y-139490156D01*
X139200000Y-139628111D01*
X139200000Y-139771889D01*
X139240507Y-139909844D01*
X139266314Y-139950000D01*
X138200000Y-139950000D01*
X138200000Y-140747844D01*
X136775545Y-140747844D01*
X134994482Y-138457906D01*
X129676900Y-131621014D01*
X129669127Y-131609796D01*
X129607368Y-131509261D01*
X129595742Y-131484610D01*
X129559682Y-131379510D01*
X129553724Y-131352910D01*
X129540752Y-131235640D01*
X129540000Y-131222007D01*
X129540000Y-127003126D01*
X129541061Y-126986941D01*
X129559336Y-126848130D01*
X129567714Y-126816863D01*
X129618156Y-126695084D01*
X129634342Y-126667049D01*
X129714586Y-126562474D01*
X129737474Y-126539586D01*
X129842049Y-126459342D01*
X129870084Y-126443156D01*
X129991863Y-126392714D01*
X130023130Y-126384336D01*
X130161941Y-126366061D01*
X130178126Y-126365000D01*
X131777885Y-126365000D01*
X131795820Y-126366304D01*
G37*
%TD.AperFunction*%
%TD*%
M02*
