%TF.GenerationSoftware,KiCad,Pcbnew,7.0.11+dfsg-1build4*%
%TF.CreationDate,2025-08-03T13:49:17+04:00*%
%TF.ProjectId,tpa3116_amplifier_board,74706133-3131-4365-9f61-6d706c696669,rev?*%
%TF.SameCoordinates,Original*%
%TF.FileFunction,Copper,L1,Top*%
%TF.FilePolarity,Positive*%
%FSLAX46Y46*%
G04 Gerber Fmt 4.6, Leading zero omitted, Abs format (unit mm)*
G04 Created by KiCad (PCBNEW 7.0.11+dfsg-1build4) date 2025-08-03 13:49:17*
%MOMM*%
%LPD*%
G01*
G04 APERTURE LIST*
G04 Aperture macros list*
%AMRoundRect*
0 Rectangle with rounded corners*
0 $1 Rounding radius*
0 $2 $3 $4 $5 $6 $7 $8 $9 X,Y pos of 4 corners*
0 Add a 4 corners polygon primitive as box body*
4,1,4,$2,$3,$4,$5,$6,$7,$8,$9,$2,$3,0*
0 Add four circle primitives for the rounded corners*
1,1,$1+$1,$2,$3*
1,1,$1+$1,$4,$5*
1,1,$1+$1,$6,$7*
1,1,$1+$1,$8,$9*
0 Add four rect primitives between the rounded corners*
20,1,$1+$1,$2,$3,$4,$5,0*
20,1,$1+$1,$4,$5,$6,$7,0*
20,1,$1+$1,$6,$7,$8,$9,0*
20,1,$1+$1,$8,$9,$2,$3,0*%
G04 Aperture macros list end*
%TA.AperFunction,SMDPad,CuDef*%
%ADD10RoundRect,0.200000X-0.275000X0.200000X-0.275000X-0.200000X0.275000X-0.200000X0.275000X0.200000X0*%
%TD*%
%TA.AperFunction,SMDPad,CuDef*%
%ADD11RoundRect,0.200000X-0.200000X-0.275000X0.200000X-0.275000X0.200000X0.275000X-0.200000X0.275000X0*%
%TD*%
%TA.AperFunction,ComponentPad*%
%ADD12RoundRect,0.250000X0.750000X-0.600000X0.750000X0.600000X-0.750000X0.600000X-0.750000X-0.600000X0*%
%TD*%
%TA.AperFunction,ComponentPad*%
%ADD13O,2.000000X1.700000*%
%TD*%
%TA.AperFunction,ComponentPad*%
%ADD14C,5.600000*%
%TD*%
%TA.AperFunction,ComponentPad*%
%ADD15C,1.600000*%
%TD*%
%TA.AperFunction,SMDPad,CuDef*%
%ADD16RoundRect,0.200000X0.200000X0.275000X-0.200000X0.275000X-0.200000X-0.275000X0.200000X-0.275000X0*%
%TD*%
%TA.AperFunction,SMDPad,CuDef*%
%ADD17RoundRect,0.249999X-1.450001X0.450001X-1.450001X-0.450001X1.450001X-0.450001X1.450001X0.450001X0*%
%TD*%
%TA.AperFunction,ComponentPad*%
%ADD18R,2.000000X2.000000*%
%TD*%
%TA.AperFunction,ComponentPad*%
%ADD19C,2.000000*%
%TD*%
%TA.AperFunction,SMDPad,CuDef*%
%ADD20R,2.900000X5.400000*%
%TD*%
%TA.AperFunction,SMDPad,CuDef*%
%ADD21RoundRect,0.225000X0.225000X0.250000X-0.225000X0.250000X-0.225000X-0.250000X0.225000X-0.250000X0*%
%TD*%
%TA.AperFunction,SMDPad,CuDef*%
%ADD22RoundRect,0.249999X1.450001X-0.450001X1.450001X0.450001X-1.450001X0.450001X-1.450001X-0.450001X0*%
%TD*%
%TA.AperFunction,ComponentPad*%
%ADD23RoundRect,0.250001X1.099999X-1.099999X1.099999X1.099999X-1.099999X1.099999X-1.099999X-1.099999X0*%
%TD*%
%TA.AperFunction,ComponentPad*%
%ADD24C,2.700000*%
%TD*%
%TA.AperFunction,SMDPad,CuDef*%
%ADD25RoundRect,0.225000X-0.250000X0.225000X-0.250000X-0.225000X0.250000X-0.225000X0.250000X0.225000X0*%
%TD*%
%TA.AperFunction,SMDPad,CuDef*%
%ADD26RoundRect,0.225000X0.250000X-0.225000X0.250000X0.225000X-0.250000X0.225000X-0.250000X-0.225000X0*%
%TD*%
%TA.AperFunction,ComponentPad*%
%ADD27RoundRect,0.250000X0.725000X-0.600000X0.725000X0.600000X-0.725000X0.600000X-0.725000X-0.600000X0*%
%TD*%
%TA.AperFunction,ComponentPad*%
%ADD28O,1.950000X1.700000*%
%TD*%
%TA.AperFunction,SMDPad,CuDef*%
%ADD29R,1.475000X0.450000*%
%TD*%
%TA.AperFunction,SMDPad,CuDef*%
%ADD30R,3.040000X3.740000*%
%TD*%
%TA.AperFunction,SMDPad,CuDef*%
%ADD31RoundRect,0.225000X-0.225000X-0.250000X0.225000X-0.250000X0.225000X0.250000X-0.225000X0.250000X0*%
%TD*%
%TA.AperFunction,SMDPad,CuDef*%
%ADD32RoundRect,0.250000X-0.250000X-0.475000X0.250000X-0.475000X0.250000X0.475000X-0.250000X0.475000X0*%
%TD*%
%TA.AperFunction,ViaPad*%
%ADD33C,0.800000*%
%TD*%
%TA.AperFunction,ViaPad*%
%ADD34C,1.000000*%
%TD*%
%TA.AperFunction,Conductor*%
%ADD35C,0.350000*%
%TD*%
%TA.AperFunction,Conductor*%
%ADD36C,0.600000*%
%TD*%
%TA.AperFunction,Conductor*%
%ADD37C,2.000000*%
%TD*%
%TA.AperFunction,Conductor*%
%ADD38C,1.000000*%
%TD*%
G04 APERTURE END LIST*
D10*
%TO.P,R9,1*%
%TO.N,GND*%
X151130000Y-123495000D03*
%TO.P,R9,2*%
%TO.N,Net-(C19-Pad2)*%
X151130000Y-125145000D03*
%TD*%
D11*
%TO.P,R4,1*%
%TO.N,Net-(IC1-GVDD)*%
X113643000Y-120015000D03*
%TO.P,R4,2*%
%TO.N,Net-(IC1-PLIMIT)*%
X115293000Y-120015000D03*
%TD*%
D12*
%TO.P,J1,1,Pin_1*%
%TO.N,/R-*%
X106045000Y-118110000D03*
D13*
%TO.P,J1,2,Pin_2*%
%TO.N,/R+*%
X106045000Y-115610000D03*
%TD*%
D14*
%TO.P,H3,1*%
%TO.N,N/C*%
X161925000Y-142240000D03*
%TD*%
D15*
%TO.P,C2,1*%
%TO.N,/R-*%
X106045000Y-104775000D03*
%TO.P,C2,2*%
%TO.N,Net-(IC1-RINN)*%
X111045000Y-104775000D03*
%TD*%
D16*
%TO.P,R6,1*%
%TO.N,/mute*%
X115315000Y-128270000D03*
%TO.P,R6,2*%
%TO.N,GND*%
X113665000Y-128270000D03*
%TD*%
D17*
%TO.P,C15,1*%
%TO.N,Net-(J4-Pin_1)*%
X152400000Y-133840000D03*
%TO.P,C15,2*%
%TO.N,GND*%
X152400000Y-137940000D03*
%TD*%
D14*
%TO.P,H6,1*%
%TO.N,N/C*%
X124460000Y-140000000D03*
%TD*%
D16*
%TO.P,R7,1*%
%TO.N,VCC*%
X119570000Y-108585000D03*
%TO.P,R7,2*%
%TO.N,/SD_LR*%
X117920000Y-108585000D03*
%TD*%
D18*
%TO.P,C12,1*%
%TO.N,VCC*%
X139700000Y-100330000D03*
D19*
%TO.P,C12,2*%
%TO.N,GND*%
X144700000Y-100330000D03*
%TD*%
D16*
%TO.P,R5,1*%
%TO.N,Net-(IC1-SYNC)*%
X115315000Y-130810000D03*
%TO.P,R5,2*%
%TO.N,/sync*%
X113665000Y-130810000D03*
%TD*%
D18*
%TO.P,C13,1*%
%TO.N,VCC*%
X139700000Y-139700000D03*
D19*
%TO.P,C13,2*%
%TO.N,GND*%
X144700000Y-139700000D03*
%TD*%
D15*
%TO.P,C1,1*%
%TO.N,/R+*%
X106045000Y-109855000D03*
%TO.P,C1,2*%
%TO.N,Net-(IC1-RINP)*%
X111045000Y-109855000D03*
%TD*%
D20*
%TO.P,L2,1,1*%
%TO.N,Net-(IC1-OUTNL)*%
X137795000Y-127000000D03*
%TO.P,L2,2,2*%
%TO.N,Net-(J4-Pin_1)*%
X147695000Y-127000000D03*
%TD*%
D21*
%TO.P,C6,1*%
%TO.N,VCC*%
X127635000Y-130175000D03*
%TO.P,C6,2*%
%TO.N,GND*%
X126085000Y-130175000D03*
%TD*%
D22*
%TO.P,C14,1*%
%TO.N,GND*%
X152400000Y-118255000D03*
%TO.P,C14,2*%
%TO.N,Net-(J4-Pin_2)*%
X152400000Y-114155000D03*
%TD*%
D14*
%TO.P,H2,1*%
%TO.N,N/C*%
X106680000Y-142240000D03*
%TD*%
D23*
%TO.P,J4,1,Pin_1*%
%TO.N,Net-(J4-Pin_1)*%
X159385000Y-132567500D03*
D24*
%TO.P,J4,2,Pin_2*%
%TO.N,Net-(J4-Pin_2)*%
X159385000Y-128607500D03*
%TD*%
D25*
%TO.P,C11,1*%
%TO.N,Net-(IC1-OUTNL)*%
X133985000Y-125590000D03*
%TO.P,C11,2*%
%TO.N,Net-(IC1-BSNL)*%
X133985000Y-127140000D03*
%TD*%
%TO.P,C16,1*%
%TO.N,GND*%
X153670000Y-110350000D03*
%TO.P,C16,2*%
%TO.N,Net-(J4-Pin_2)*%
X153670000Y-111900000D03*
%TD*%
D26*
%TO.P,C19,1*%
%TO.N,Net-(J4-Pin_1)*%
X151130000Y-131445000D03*
%TO.P,C19,2*%
%TO.N,Net-(C19-Pad2)*%
X151130000Y-129895000D03*
%TD*%
D23*
%TO.P,J3,1,Pin_1*%
%TO.N,GND*%
X159385000Y-110977500D03*
D24*
%TO.P,J3,2,Pin_2*%
%TO.N,VCC*%
X159385000Y-107017500D03*
%TD*%
D26*
%TO.P,C8,1*%
%TO.N,Net-(IC1-OUTNR)*%
X133985000Y-114440000D03*
%TO.P,C8,2*%
%TO.N,Net-(IC1-BSPR)*%
X133985000Y-112890000D03*
%TD*%
D10*
%TO.P,R8,1*%
%TO.N,GND*%
X151130000Y-103950000D03*
%TO.P,R8,2*%
%TO.N,Net-(C18-Pad2)*%
X151130000Y-105600000D03*
%TD*%
D27*
%TO.P,J2,1,Pin_1*%
%TO.N,GND*%
X106045000Y-134540000D03*
D28*
%TO.P,J2,2,Pin_2*%
%TO.N,/sync*%
X106045000Y-132040000D03*
%TO.P,J2,3,Pin_3*%
%TO.N,/mute*%
X106045000Y-129540000D03*
%TO.P,J2,4,Pin_4*%
%TO.N,/SD_LR*%
X106045000Y-127040000D03*
%TD*%
D29*
%TO.P,IC1,1,MODSEL*%
%TO.N,GND*%
X120672000Y-115140000D03*
%TO.P,IC1,2,SD*%
%TO.N,/SD_LR*%
X120672000Y-115790000D03*
%TO.P,IC1,3,FAULT*%
X120672000Y-116440000D03*
%TO.P,IC1,4,RINP*%
%TO.N,Net-(IC1-RINP)*%
X120672000Y-117090000D03*
%TO.P,IC1,5,RINN*%
%TO.N,Net-(IC1-RINN)*%
X120672000Y-117740000D03*
%TO.P,IC1,6,PLIMIT*%
%TO.N,Net-(IC1-PLIMIT)*%
X120672000Y-118390000D03*
%TO.P,IC1,7,GVDD*%
%TO.N,Net-(IC1-GVDD)*%
X120672000Y-119040000D03*
%TO.P,IC1,8,GAIN/SLV*%
%TO.N,Net-(IC1-GAIN{slash}SLV)*%
X120672000Y-119690000D03*
%TO.P,IC1,9,GND_1*%
%TO.N,GND*%
X120672000Y-120340000D03*
%TO.P,IC1,10,LINP*%
X120672000Y-120990000D03*
%TO.P,IC1,11,LINN*%
X120672000Y-121640000D03*
%TO.P,IC1,12,MUTE*%
%TO.N,/mute*%
X120672000Y-122290000D03*
%TO.P,IC1,13,AM2*%
%TO.N,GND*%
X120672000Y-122940000D03*
%TO.P,IC1,14,AM1*%
X120672000Y-123590000D03*
%TO.P,IC1,15,AM0*%
X120672000Y-124240000D03*
%TO.P,IC1,16,SYNC*%
%TO.N,Net-(IC1-SYNC)*%
X120672000Y-124890000D03*
%TO.P,IC1,17,AVCC*%
%TO.N,VCC*%
X128248000Y-124890000D03*
%TO.P,IC1,18,PVCC_1*%
X128248000Y-124240000D03*
%TO.P,IC1,19,PVCC_2*%
X128248000Y-123590000D03*
%TO.P,IC1,20,BSNL*%
%TO.N,Net-(IC1-BSNL)*%
X128248000Y-122940000D03*
%TO.P,IC1,21,OUTNL*%
%TO.N,Net-(IC1-OUTNL)*%
X128248000Y-122290000D03*
%TO.P,IC1,22,GND_2*%
%TO.N,GND*%
X128248000Y-121640000D03*
%TO.P,IC1,23,OUTPL*%
%TO.N,Net-(IC1-OUTNL)*%
X128248000Y-120990000D03*
%TO.P,IC1,24,BSPL*%
%TO.N,Net-(IC1-BSPL)*%
X128248000Y-120340000D03*
%TO.P,IC1,25,GND_3*%
%TO.N,GND*%
X128248000Y-119690000D03*
%TO.P,IC1,26,BSNR*%
%TO.N,Net-(IC1-BSNR)*%
X128248000Y-119040000D03*
%TO.P,IC1,27,OUTNR*%
%TO.N,Net-(IC1-OUTNR)*%
X128248000Y-118390000D03*
%TO.P,IC1,28,GND_4*%
%TO.N,GND*%
X128248000Y-117740000D03*
%TO.P,IC1,29,OUTPR*%
%TO.N,Net-(IC1-OUTNR)*%
X128248000Y-117090000D03*
%TO.P,IC1,30,BSPR*%
%TO.N,Net-(IC1-BSPR)*%
X128248000Y-116440000D03*
%TO.P,IC1,31,PVCC_3*%
%TO.N,VCC*%
X128248000Y-115790000D03*
%TO.P,IC1,32,PVCC_4*%
X128248000Y-115140000D03*
D30*
%TO.P,IC1,33,GND_5*%
%TO.N,GND*%
X124460000Y-120015000D03*
%TD*%
D11*
%TO.P,R3,1*%
%TO.N,Net-(IC1-GVDD)*%
X113643000Y-122555000D03*
%TO.P,R3,2*%
%TO.N,Net-(IC1-GAIN{slash}SLV)*%
X115293000Y-122555000D03*
%TD*%
D25*
%TO.P,C9,1*%
%TO.N,Net-(IC1-OUTNR)*%
X133985000Y-117195000D03*
%TO.P,C9,2*%
%TO.N,Net-(IC1-BSNR)*%
X133985000Y-118745000D03*
%TD*%
D31*
%TO.P,C5,1*%
%TO.N,GND*%
X126085000Y-112395000D03*
%TO.P,C5,2*%
%TO.N,VCC*%
X127635000Y-112395000D03*
%TD*%
D14*
%TO.P,H1,1*%
%TO.N,N/C*%
X106680000Y-97790000D03*
%TD*%
D26*
%TO.P,C10,1*%
%TO.N,Net-(IC1-OUTNL)*%
X133985000Y-122200000D03*
%TO.P,C10,2*%
%TO.N,Net-(IC1-BSPL)*%
X133985000Y-120650000D03*
%TD*%
D21*
%TO.P,C7,1*%
%TO.N,VCC*%
X127635000Y-109855000D03*
%TO.P,C7,2*%
%TO.N,GND*%
X126085000Y-109855000D03*
%TD*%
D32*
%TO.P,C3,1*%
%TO.N,GND*%
X108905000Y-122555000D03*
%TO.P,C3,2*%
%TO.N,Net-(IC1-GVDD)*%
X110805000Y-122555000D03*
%TD*%
D21*
%TO.P,C4,1*%
%TO.N,VCC*%
X127635000Y-127635000D03*
%TO.P,C4,2*%
%TO.N,GND*%
X126085000Y-127635000D03*
%TD*%
D14*
%TO.P,H5,1*%
%TO.N,N/C*%
X124460000Y-100000000D03*
%TD*%
D20*
%TO.P,L1,1,1*%
%TO.N,Net-(IC1-OUTNR)*%
X137795000Y-113030000D03*
%TO.P,L1,2,2*%
%TO.N,Net-(J4-Pin_2)*%
X147695000Y-113030000D03*
%TD*%
D14*
%TO.P,H4,1*%
%TO.N,N/C*%
X161925000Y-97790000D03*
%TD*%
D26*
%TO.P,C17,1*%
%TO.N,Net-(J4-Pin_1)*%
X153670000Y-131585000D03*
%TO.P,C17,2*%
%TO.N,GND*%
X153670000Y-130035000D03*
%TD*%
D16*
%TO.P,R2,1*%
%TO.N,Net-(IC1-PLIMIT)*%
X115293000Y-117792500D03*
%TO.P,R2,2*%
%TO.N,GND*%
X113643000Y-117792500D03*
%TD*%
D26*
%TO.P,C18,1*%
%TO.N,Net-(J4-Pin_2)*%
X151130000Y-111900000D03*
%TO.P,C18,2*%
%TO.N,Net-(C18-Pad2)*%
X151130000Y-110350000D03*
%TD*%
D16*
%TO.P,R1,1*%
%TO.N,Net-(IC1-GAIN{slash}SLV)*%
X115293000Y-124777500D03*
%TO.P,R1,2*%
%TO.N,GND*%
X113643000Y-124777500D03*
%TD*%
D33*
%TO.N,GND*%
X122533000Y-113665000D03*
X147955000Y-118110000D03*
X125730000Y-125095000D03*
X145415000Y-121920000D03*
X142875000Y-129540000D03*
X147955000Y-107950000D03*
X137665000Y-118110000D03*
X140335000Y-118110000D03*
X123190000Y-114935000D03*
X145415000Y-134620000D03*
X110490000Y-119380000D03*
X121263000Y-113665000D03*
X137665000Y-121920000D03*
X122533000Y-109855000D03*
X145415000Y-132080000D03*
X153670000Y-121285000D03*
X125730000Y-122555000D03*
X119380000Y-137795000D03*
X122533000Y-112395000D03*
X153670000Y-102870000D03*
X123190000Y-107315000D03*
X121263000Y-130175000D03*
X124460000Y-123825000D03*
X153670000Y-105410000D03*
X153670000Y-123825000D03*
X124460000Y-116205000D03*
X129540000Y-142875000D03*
X114300000Y-102235000D03*
X134620000Y-142875000D03*
X147955000Y-102870000D03*
X111760000Y-119380000D03*
X110490000Y-120650000D03*
X121263000Y-126365000D03*
X142875000Y-121920000D03*
X122533000Y-128905000D03*
X119380000Y-97155000D03*
X114300000Y-137795000D03*
X147955000Y-137160000D03*
X121263000Y-111125000D03*
X124460000Y-125095000D03*
X142875000Y-107950000D03*
X128270000Y-107315000D03*
X124460000Y-117475000D03*
X147955000Y-121920000D03*
X142875000Y-110490000D03*
X147955000Y-134620000D03*
X142875000Y-118110000D03*
X121263000Y-127635000D03*
X129540000Y-102235000D03*
X151130000Y-100330000D03*
X122533000Y-111125000D03*
X156210000Y-121285000D03*
X140335000Y-107950000D03*
X121263000Y-128905000D03*
X142875000Y-132080000D03*
X109220000Y-125095000D03*
X156210000Y-123825000D03*
X153670000Y-140335000D03*
X142875000Y-115570000D03*
X145415000Y-118110000D03*
X125730000Y-116205000D03*
X156210000Y-118745000D03*
X111760000Y-125095000D03*
X129540000Y-97155000D03*
X123190000Y-122555000D03*
X125730000Y-114935000D03*
X110490000Y-125095000D03*
X134620000Y-97155000D03*
X142875000Y-124460000D03*
X147955000Y-105410000D03*
X123190000Y-123825000D03*
X148590000Y-140335000D03*
X121263000Y-112395000D03*
X119380000Y-102235000D03*
X123190000Y-117475000D03*
X114300000Y-142875000D03*
X140335000Y-121920000D03*
X114300000Y-97155000D03*
X124460000Y-122555000D03*
X151130000Y-140335000D03*
X125730000Y-123825000D03*
X119380000Y-142875000D03*
X145415000Y-107950000D03*
X124460000Y-114935000D03*
X123190000Y-116205000D03*
X123190000Y-125095000D03*
X111760000Y-120650000D03*
X122533000Y-126365000D03*
X145415000Y-105410000D03*
X122533000Y-127635000D03*
X121263000Y-109855000D03*
X129540000Y-137795000D03*
X125730000Y-117475000D03*
X140335000Y-132080000D03*
X153670000Y-100330000D03*
X122555000Y-130175000D03*
X163195000Y-102870000D03*
%TO.N,VCC*%
X130175000Y-130810000D03*
X130197000Y-127000000D03*
X130175000Y-113030000D03*
X130197000Y-109220000D03*
X131467000Y-127000000D03*
X130175000Y-128270000D03*
X131445000Y-130810000D03*
X131445000Y-110490000D03*
X131467000Y-113030000D03*
X131445000Y-128270000D03*
X131445000Y-129540000D03*
X130175000Y-111760000D03*
X130197000Y-129540000D03*
X131445000Y-111760000D03*
X130175000Y-110490000D03*
X131445000Y-109220000D03*
D34*
%TO.N,/SD_LR*%
X116205000Y-110300000D03*
X116205000Y-111760000D03*
%TD*%
D35*
%TO.N,GND*%
X122555000Y-115140000D02*
X118950000Y-115140000D01*
%TO.N,/SD_LR*%
X116205000Y-111760000D02*
X116205000Y-113982500D01*
X116205000Y-113982500D02*
X118662500Y-116440000D01*
X118662500Y-116440000D02*
X120672000Y-116440000D01*
D36*
X116205000Y-110300000D02*
X116205000Y-111760000D01*
D35*
X116205000Y-110300000D02*
X117920000Y-108585000D01*
X120672000Y-116440000D02*
X120672000Y-115790000D01*
%TO.N,/R+*%
X106045000Y-115610000D02*
X106045000Y-109855000D01*
%TO.N,Net-(IC1-RINP)*%
X118280000Y-117090000D02*
X111045000Y-109855000D01*
X120672000Y-117090000D02*
X118280000Y-117090000D01*
X110490000Y-109855000D02*
X111045000Y-109855000D01*
%TO.N,/R-*%
X106045000Y-118110000D02*
X107950000Y-116205000D01*
X107950000Y-106680000D02*
X106045000Y-104775000D01*
X107950000Y-116205000D02*
X107950000Y-106680000D01*
%TO.N,Net-(IC1-RINN)*%
X109220000Y-106600000D02*
X111045000Y-104775000D01*
X110490000Y-111760000D02*
X109220000Y-110490000D01*
X109220000Y-110490000D02*
X109220000Y-106600000D01*
X120672000Y-117740000D02*
X118166324Y-117740000D01*
X112186324Y-111760000D02*
X110490000Y-111760000D01*
X118166324Y-117740000D02*
X112186324Y-111760000D01*
%TO.N,GND*%
X128248000Y-119690000D02*
X126978000Y-119690000D01*
X120672000Y-122940000D02*
X121898000Y-122940000D01*
D37*
X125730000Y-117475000D02*
X125730000Y-122555000D01*
X124460000Y-120015000D02*
X125073000Y-120015000D01*
D35*
X118872000Y-121117000D02*
X119019500Y-121264500D01*
X128248000Y-121640000D02*
X126978000Y-121640000D01*
X120672000Y-124240000D02*
X121898000Y-124240000D01*
X120672000Y-121640000D02*
X121920000Y-121640000D01*
X120672000Y-120340000D02*
X121920000Y-120340000D01*
X128248000Y-117740000D02*
X126978000Y-117740000D01*
X119294000Y-120990000D02*
X120672000Y-120990000D01*
X120672000Y-123590000D02*
X121898000Y-123590000D01*
D37*
X123190000Y-117475000D02*
X123190000Y-122555000D01*
X124460000Y-117475000D02*
X124460000Y-122555000D01*
D35*
X120672000Y-120340000D02*
X119436000Y-120340000D01*
X118872000Y-120904000D02*
X118872000Y-121117000D01*
X119019500Y-121264500D02*
X119395000Y-121640000D01*
X119395000Y-121640000D02*
X120672000Y-121640000D01*
X120672000Y-120990000D02*
X121920000Y-120990000D01*
X119436000Y-120340000D02*
X118872000Y-120904000D01*
X119019500Y-121264500D02*
X119294000Y-120990000D01*
D36*
%TO.N,Net-(IC1-GVDD)*%
X111125000Y-122555000D02*
X113643000Y-122555000D01*
D35*
X118044324Y-119040000D02*
X120672000Y-119040000D01*
X115799324Y-121285000D02*
X118044324Y-119040000D01*
X113643000Y-122555000D02*
X114913000Y-121285000D01*
X113643000Y-120015000D02*
X113643000Y-122555000D01*
X114913000Y-121285000D02*
X115799324Y-121285000D01*
%TO.N,VCC*%
X119570000Y-108585000D02*
X129562000Y-108585000D01*
X129562000Y-108585000D02*
X130197000Y-109220000D01*
D38*
X128248000Y-125730000D02*
X128248000Y-123855000D01*
X128248000Y-114300000D02*
X128248000Y-115525000D01*
D36*
%TO.N,Net-(C18-Pad2)*%
X151130000Y-110350000D02*
X151130000Y-105600000D01*
D35*
%TO.N,Net-(IC1-BSPR)*%
X130435000Y-116440000D02*
X133985000Y-112890000D01*
X128248000Y-116440000D02*
X130435000Y-116440000D01*
%TO.N,Net-(IC1-OUTNR)*%
X129540000Y-117090000D02*
X128248000Y-117090000D01*
X128248000Y-118390000D02*
X129540000Y-118390000D01*
%TO.N,Net-(IC1-BSNR)*%
X132420000Y-119040000D02*
X132715000Y-118745000D01*
X132715000Y-118745000D02*
X133985000Y-118745000D01*
X128248000Y-119040000D02*
X132420000Y-119040000D01*
D36*
%TO.N,Net-(C19-Pad2)*%
X151130000Y-125145000D02*
X151130000Y-129894999D01*
D35*
%TO.N,Net-(IC1-BSPL)*%
X132405000Y-120340000D02*
X132715000Y-120650000D01*
X132715000Y-120650000D02*
X133985000Y-120650000D01*
X128248000Y-120340000D02*
X132405000Y-120340000D01*
%TO.N,Net-(IC1-OUTNL)*%
X128248000Y-120990000D02*
X129540000Y-120990000D01*
X129540000Y-122290000D02*
X128248000Y-122290000D01*
%TO.N,Net-(IC1-BSNL)*%
X129785000Y-122940000D02*
X133985000Y-127140000D01*
X128248000Y-122940000D02*
X129785000Y-122940000D01*
%TO.N,Net-(IC1-GAIN{slash}SLV)*%
X115293000Y-124777500D02*
X115293000Y-122555000D01*
X120672000Y-119690000D02*
X118158000Y-119690000D01*
X118158000Y-119690000D02*
X115293000Y-122555000D01*
%TO.N,/mute*%
X119629500Y-122290000D02*
X118745000Y-123174500D01*
X118745000Y-124943449D02*
X118205000Y-125483450D01*
X114045000Y-129540000D02*
X106045000Y-129540000D01*
X117091324Y-128270000D02*
X115315000Y-128270000D01*
X118745000Y-123174500D02*
X118745000Y-124943449D01*
X120672000Y-122290000D02*
X119629500Y-122290000D01*
X118205000Y-125483450D02*
X118205000Y-127156324D01*
X118205000Y-127156324D02*
X117091324Y-128270000D01*
X115315000Y-128270000D02*
X114045000Y-129540000D01*
%TO.N,Net-(IC1-SYNC)*%
X120672000Y-124890000D02*
X119562125Y-124890000D01*
X118745000Y-125707125D02*
X118745000Y-127380000D01*
X118745000Y-127380000D02*
X115315000Y-130810000D01*
X119562125Y-124890000D02*
X118745000Y-125707125D01*
%TO.N,/sync*%
X107275000Y-130810000D02*
X113665000Y-130810000D01*
X107275000Y-130810000D02*
X106045000Y-132040000D01*
%TO.N,Net-(IC1-PLIMIT)*%
X115293000Y-120015000D02*
X116305648Y-120015000D01*
X116305648Y-120015000D02*
X117930649Y-118390000D01*
X117930649Y-118390000D02*
X120672000Y-118390000D01*
X115293000Y-117792500D02*
X115293000Y-120015000D01*
D37*
%TO.N,Net-(J4-Pin_1)*%
X159385000Y-132567500D02*
X149712500Y-132567500D01*
X149712500Y-132567500D02*
X147695000Y-130550000D01*
X147695000Y-130550000D02*
X147695000Y-127000000D01*
%TO.N,Net-(J4-Pin_2)*%
X159385000Y-117777500D02*
X159385000Y-128607500D01*
X147695000Y-113030000D02*
X154637500Y-113030000D01*
X154637500Y-113030000D02*
X159385000Y-117777500D01*
%TD*%
%TA.AperFunction,Conductor*%
%TO.N,Net-(IC1-OUTNL)*%
G36*
X132223718Y-120835185D02*
G01*
X132244360Y-120851819D01*
X132333192Y-120940651D01*
X132349825Y-120961291D01*
X132351945Y-120964589D01*
X132387450Y-120995354D01*
X132393913Y-121001372D01*
X132402820Y-121010279D01*
X132402826Y-121010284D01*
X132402829Y-121010286D01*
X132412900Y-121017825D01*
X132419793Y-121023379D01*
X132455282Y-121054130D01*
X132458844Y-121055756D01*
X132481634Y-121069278D01*
X132484774Y-121071629D01*
X132486376Y-121072226D01*
X132489251Y-121074074D01*
X132492557Y-121075879D01*
X132492427Y-121076115D01*
X132530729Y-121100729D01*
X133350000Y-121920000D01*
X134568638Y-121920000D01*
X134635677Y-121939685D01*
X134656319Y-121956319D01*
X137123681Y-124423681D01*
X137157166Y-124485004D01*
X137160000Y-124511362D01*
X137160000Y-127970638D01*
X137140315Y-128037677D01*
X137087511Y-128083432D01*
X137018353Y-128093376D01*
X136954797Y-128064351D01*
X136948319Y-128058319D01*
X134620000Y-125730000D01*
X133401362Y-125730000D01*
X133334323Y-125710315D01*
X133313681Y-125693681D01*
X130175000Y-122555000D01*
X130110895Y-122555000D01*
X130053431Y-122538126D01*
X130052780Y-122539552D01*
X130041151Y-122534240D01*
X130018368Y-122520722D01*
X130015227Y-122518371D01*
X129971223Y-122501959D01*
X129963068Y-122498581D01*
X129920342Y-122479069D01*
X129920341Y-122479068D01*
X129920337Y-122479067D01*
X129916455Y-122478509D01*
X129890791Y-122471959D01*
X129887122Y-122470591D01*
X129887117Y-122470590D01*
X129887115Y-122470589D01*
X129878760Y-122469991D01*
X129840273Y-122467237D01*
X129831494Y-122466293D01*
X129819019Y-122464501D01*
X129819016Y-122464500D01*
X129819011Y-122464500D01*
X129819005Y-122464500D01*
X129806423Y-122464500D01*
X129797575Y-122464184D01*
X129750731Y-122460833D01*
X129750728Y-122460833D01*
X129748841Y-122461243D01*
X129746898Y-122461666D01*
X129720542Y-122464500D01*
X129188285Y-122464500D01*
X129138199Y-122453934D01*
X129098077Y-122436218D01*
X129055492Y-122417415D01*
X129030368Y-122414500D01*
X128394000Y-122414500D01*
X128326961Y-122394815D01*
X128281206Y-122342011D01*
X128270000Y-122290500D01*
X128270000Y-122289499D01*
X128289685Y-122222460D01*
X128342489Y-122176705D01*
X128393998Y-122165499D01*
X129030364Y-122165499D01*
X129030379Y-122165497D01*
X129030382Y-122165497D01*
X129055487Y-122162586D01*
X129055488Y-122162585D01*
X129055491Y-122162585D01*
X129158265Y-122117206D01*
X129237706Y-122037765D01*
X129283085Y-121934991D01*
X129286000Y-121909865D01*
X129285999Y-121370136D01*
X129285997Y-121370117D01*
X129283086Y-121345012D01*
X129283085Y-121345010D01*
X129283085Y-121345009D01*
X129237706Y-121242235D01*
X129158265Y-121162794D01*
X129095261Y-121134975D01*
X129055492Y-121117415D01*
X129030368Y-121114500D01*
X128394000Y-121114500D01*
X128326961Y-121094815D01*
X128281206Y-121042011D01*
X128270000Y-120990500D01*
X128270000Y-120989499D01*
X128289685Y-120922460D01*
X128342489Y-120876705D01*
X128393998Y-120865499D01*
X129030364Y-120865499D01*
X129030379Y-120865497D01*
X129030382Y-120865497D01*
X129055487Y-120862586D01*
X129055491Y-120862585D01*
X129138199Y-120826066D01*
X129188285Y-120815500D01*
X132156679Y-120815500D01*
X132223718Y-120835185D01*
G37*
%TD.AperFunction*%
%TD*%
%TA.AperFunction,Conductor*%
%TO.N,VCC*%
G36*
X129603718Y-123435185D02*
G01*
X129624360Y-123451819D01*
X132043681Y-125871140D01*
X132077166Y-125932463D01*
X132080000Y-125958821D01*
X132080000Y-130806873D01*
X132078939Y-130823059D01*
X132060663Y-130961870D01*
X132052285Y-130993136D01*
X132001843Y-131114915D01*
X131985657Y-131142950D01*
X131905413Y-131247525D01*
X131882525Y-131270413D01*
X131777950Y-131350657D01*
X131749915Y-131366843D01*
X131628136Y-131417285D01*
X131596870Y-131425663D01*
X131474984Y-131441710D01*
X131458057Y-131443939D01*
X131441874Y-131445000D01*
X127638126Y-131445000D01*
X127621942Y-131443939D01*
X127602681Y-131441403D01*
X127483129Y-131425663D01*
X127451863Y-131417286D01*
X127423338Y-131405471D01*
X127382507Y-131388558D01*
X127328105Y-131344718D01*
X127306039Y-131278424D01*
X127323318Y-131210725D01*
X127349092Y-131186727D01*
X127348683Y-131186318D01*
X127385000Y-131149999D01*
X127385000Y-130425000D01*
X127885000Y-130425000D01*
X127885000Y-131149999D01*
X127908308Y-131149999D01*
X127908322Y-131149998D01*
X128007607Y-131139855D01*
X128168481Y-131086547D01*
X128168492Y-131086542D01*
X128312728Y-130997575D01*
X128312732Y-130997572D01*
X128432572Y-130877732D01*
X128432575Y-130877728D01*
X128521542Y-130733492D01*
X128521547Y-130733481D01*
X128574855Y-130572606D01*
X128584999Y-130473322D01*
X128585000Y-130473309D01*
X128585000Y-130425000D01*
X127885000Y-130425000D01*
X127385000Y-130425000D01*
X127385000Y-129200000D01*
X127885000Y-129200000D01*
X127885000Y-129925000D01*
X128584999Y-129925000D01*
X128584999Y-129876692D01*
X128584998Y-129876677D01*
X128574855Y-129777392D01*
X128521547Y-129616518D01*
X128521542Y-129616507D01*
X128432575Y-129472271D01*
X128432572Y-129472267D01*
X128312732Y-129352427D01*
X128312728Y-129352424D01*
X128168492Y-129263457D01*
X128168481Y-129263452D01*
X128007606Y-129210144D01*
X127908322Y-129200000D01*
X127885000Y-129200000D01*
X127385000Y-129200000D01*
X127385000Y-129199999D01*
X127361693Y-129200000D01*
X127361674Y-129200001D01*
X127262392Y-129210144D01*
X127163004Y-129243078D01*
X127093175Y-129245480D01*
X127033133Y-129209748D01*
X127001941Y-129147227D01*
X127000000Y-129125372D01*
X127000000Y-128684627D01*
X127019685Y-128617588D01*
X127072489Y-128571833D01*
X127141647Y-128561889D01*
X127163005Y-128566921D01*
X127262394Y-128599856D01*
X127361683Y-128609999D01*
X127385000Y-128609998D01*
X127385000Y-127885000D01*
X127885000Y-127885000D01*
X127885000Y-128609999D01*
X127908308Y-128609999D01*
X127908322Y-128609998D01*
X128007607Y-128599855D01*
X128168481Y-128546547D01*
X128168492Y-128546542D01*
X128312728Y-128457575D01*
X128312732Y-128457572D01*
X128432572Y-128337732D01*
X128432575Y-128337728D01*
X128521542Y-128193492D01*
X128521547Y-128193481D01*
X128574855Y-128032606D01*
X128584999Y-127933322D01*
X128585000Y-127933309D01*
X128585000Y-127885000D01*
X127885000Y-127885000D01*
X127385000Y-127885000D01*
X127385000Y-126660000D01*
X127885000Y-126660000D01*
X127885000Y-127385000D01*
X128584999Y-127385000D01*
X128584999Y-127336692D01*
X128584998Y-127336677D01*
X128574855Y-127237392D01*
X128521547Y-127076518D01*
X128521542Y-127076507D01*
X128432575Y-126932271D01*
X128432572Y-126932267D01*
X128312732Y-126812427D01*
X128312728Y-126812424D01*
X128168492Y-126723457D01*
X128168481Y-126723452D01*
X128007606Y-126670144D01*
X127908322Y-126660000D01*
X127885000Y-126660000D01*
X127385000Y-126660000D01*
X127385000Y-126659999D01*
X127361693Y-126660000D01*
X127361674Y-126660001D01*
X127262392Y-126670144D01*
X127163004Y-126703078D01*
X127093175Y-126705480D01*
X127033133Y-126669748D01*
X127001941Y-126607227D01*
X127000000Y-126585372D01*
X127000000Y-125605142D01*
X127019685Y-125538103D01*
X127072489Y-125492348D01*
X127141647Y-125482404D01*
X127198312Y-125505876D01*
X127268410Y-125558352D01*
X127268413Y-125558354D01*
X127403120Y-125608596D01*
X127403127Y-125608598D01*
X127462655Y-125614999D01*
X127462672Y-125615000D01*
X128023000Y-125615000D01*
X128023000Y-125115000D01*
X128473000Y-125115000D01*
X128473000Y-125615000D01*
X129033328Y-125615000D01*
X129033344Y-125614999D01*
X129092872Y-125608598D01*
X129092879Y-125608596D01*
X129227586Y-125558354D01*
X129227593Y-125558350D01*
X129342687Y-125472190D01*
X129342690Y-125472187D01*
X129428850Y-125357093D01*
X129428854Y-125357086D01*
X129479096Y-125222379D01*
X129479098Y-125222372D01*
X129485499Y-125162844D01*
X129485500Y-125162827D01*
X129485500Y-125115000D01*
X128473000Y-125115000D01*
X128023000Y-125115000D01*
X128023000Y-124465000D01*
X128473000Y-124465000D01*
X128473000Y-124665000D01*
X129485500Y-124665000D01*
X129485500Y-124617179D01*
X129485499Y-124617168D01*
X129481315Y-124578258D01*
X129481315Y-124551742D01*
X129485499Y-124512831D01*
X129485500Y-124512821D01*
X129485500Y-124465000D01*
X128473000Y-124465000D01*
X128023000Y-124465000D01*
X128023000Y-123815000D01*
X128473000Y-123815000D01*
X128473000Y-124015000D01*
X129485500Y-124015000D01*
X129485500Y-123967179D01*
X129485499Y-123967168D01*
X129481315Y-123928258D01*
X129481315Y-123901742D01*
X129485499Y-123862831D01*
X129485500Y-123862821D01*
X129485500Y-123815000D01*
X128473000Y-123815000D01*
X128023000Y-123815000D01*
X128023000Y-123589499D01*
X128042685Y-123522460D01*
X128095489Y-123476705D01*
X128146997Y-123465499D01*
X129030364Y-123465499D01*
X129030379Y-123465497D01*
X129030382Y-123465497D01*
X129055487Y-123462586D01*
X129055491Y-123462585D01*
X129138199Y-123426066D01*
X129188285Y-123415500D01*
X129536679Y-123415500D01*
X129603718Y-123435185D01*
G37*
%TD.AperFunction*%
%TD*%
%TA.AperFunction,Conductor*%
%TO.N,VCC*%
G36*
X131456433Y-108585846D02*
G01*
X131600137Y-108604766D01*
X131625095Y-108611453D01*
X131752957Y-108664415D01*
X131775338Y-108677337D01*
X131885136Y-108761588D01*
X131903411Y-108779863D01*
X131987662Y-108889661D01*
X132000584Y-108912043D01*
X132053545Y-109039903D01*
X132060234Y-109064866D01*
X132079153Y-109208566D01*
X132080000Y-109221488D01*
X132080000Y-114081533D01*
X132061093Y-114139724D01*
X132051004Y-114151537D01*
X130267037Y-115935504D01*
X130212520Y-115963281D01*
X130197033Y-115964500D01*
X129183012Y-115964500D01*
X129143026Y-115956065D01*
X129055491Y-115917415D01*
X129055490Y-115917414D01*
X129055488Y-115917414D01*
X129030369Y-115914500D01*
X128122000Y-115914500D01*
X128063809Y-115895593D01*
X128027845Y-115846093D01*
X128023000Y-115815500D01*
X128023000Y-115564999D01*
X128473000Y-115564999D01*
X128473001Y-115565000D01*
X129485499Y-115565000D01*
X129485500Y-115564999D01*
X129485500Y-115517175D01*
X129481028Y-115475584D01*
X129481028Y-115454416D01*
X129485500Y-115412824D01*
X129485500Y-115365001D01*
X129485499Y-115365000D01*
X128473001Y-115365000D01*
X128473000Y-115365001D01*
X128473000Y-115564999D01*
X128023000Y-115564999D01*
X128023000Y-114914999D01*
X128473000Y-114914999D01*
X128473001Y-114915000D01*
X129485499Y-114915000D01*
X129485500Y-114914999D01*
X129485500Y-114867175D01*
X129479098Y-114807629D01*
X129479096Y-114807618D01*
X129428853Y-114672911D01*
X129428852Y-114672909D01*
X129342692Y-114557815D01*
X129342684Y-114557807D01*
X129227590Y-114471647D01*
X129227588Y-114471646D01*
X129092881Y-114421403D01*
X129092870Y-114421401D01*
X129033324Y-114415000D01*
X128473001Y-114415000D01*
X128473000Y-114415001D01*
X128473000Y-114914999D01*
X128023000Y-114914999D01*
X128023000Y-114415001D01*
X128022999Y-114415000D01*
X127462676Y-114415000D01*
X127403129Y-114421401D01*
X127403118Y-114421403D01*
X127268411Y-114471646D01*
X127268409Y-114471647D01*
X127158329Y-114554054D01*
X127100415Y-114573791D01*
X127041960Y-114555717D01*
X127005292Y-114506736D01*
X127000000Y-114474801D01*
X127000000Y-113410006D01*
X127018907Y-113351815D01*
X127068407Y-113315851D01*
X127129593Y-113315851D01*
X127130140Y-113316031D01*
X127262396Y-113359856D01*
X127361676Y-113369999D01*
X127385000Y-113369998D01*
X127885000Y-113369998D01*
X127885001Y-113369999D01*
X127908322Y-113369999D01*
X128007597Y-113359857D01*
X128007609Y-113359854D01*
X128168487Y-113306545D01*
X128312729Y-113217574D01*
X128432574Y-113097729D01*
X128521545Y-112953487D01*
X128574856Y-112792603D01*
X128585000Y-112693323D01*
X128585000Y-112645001D01*
X128584999Y-112645000D01*
X127885001Y-112645000D01*
X127885000Y-112645001D01*
X127885000Y-113369998D01*
X127385000Y-113369998D01*
X127385000Y-112144999D01*
X127885000Y-112144999D01*
X127885001Y-112145000D01*
X128584998Y-112145000D01*
X128584999Y-112144999D01*
X128584999Y-112096677D01*
X128574857Y-111997402D01*
X128574854Y-111997390D01*
X128521545Y-111836512D01*
X128432574Y-111692270D01*
X128312729Y-111572425D01*
X128168487Y-111483454D01*
X128007603Y-111430143D01*
X127908323Y-111420000D01*
X127885001Y-111420000D01*
X127885000Y-111420001D01*
X127885000Y-112144999D01*
X127385000Y-112144999D01*
X127385000Y-111420000D01*
X127384999Y-111419999D01*
X127361689Y-111420000D01*
X127361684Y-111420001D01*
X127262401Y-111430142D01*
X127262390Y-111430145D01*
X127130140Y-111473968D01*
X127068955Y-111474324D01*
X127019247Y-111438648D01*
X127000002Y-111380569D01*
X127000000Y-111379993D01*
X127000000Y-110870006D01*
X127018907Y-110811815D01*
X127068407Y-110775851D01*
X127129593Y-110775851D01*
X127130140Y-110776031D01*
X127262396Y-110819856D01*
X127361676Y-110829999D01*
X127385000Y-110829998D01*
X127885000Y-110829998D01*
X127885001Y-110829999D01*
X127908322Y-110829999D01*
X128007597Y-110819857D01*
X128007609Y-110819854D01*
X128168487Y-110766545D01*
X128312729Y-110677574D01*
X128432574Y-110557729D01*
X128521545Y-110413487D01*
X128574856Y-110252603D01*
X128585000Y-110153323D01*
X128585000Y-110105001D01*
X128584999Y-110105000D01*
X127885001Y-110105000D01*
X127885000Y-110105001D01*
X127885000Y-110829998D01*
X127385000Y-110829998D01*
X127385000Y-109604999D01*
X127885000Y-109604999D01*
X127885001Y-109605000D01*
X128584998Y-109605000D01*
X128584999Y-109604999D01*
X128584999Y-109556677D01*
X128574857Y-109457402D01*
X128574854Y-109457390D01*
X128521545Y-109296512D01*
X128432574Y-109152270D01*
X128312729Y-109032425D01*
X128168487Y-108943454D01*
X128007603Y-108890143D01*
X127908323Y-108880000D01*
X127885001Y-108880000D01*
X127885000Y-108880001D01*
X127885000Y-109604999D01*
X127385000Y-109604999D01*
X127385000Y-108880000D01*
X127384999Y-108879999D01*
X127361691Y-108880000D01*
X127338491Y-108882370D01*
X127278680Y-108869472D01*
X127237874Y-108823881D01*
X127231659Y-108763012D01*
X127262408Y-108710115D01*
X127268147Y-108705355D01*
X127304666Y-108677333D01*
X127327039Y-108664417D01*
X127454906Y-108611453D01*
X127479860Y-108604766D01*
X127623566Y-108585846D01*
X127636488Y-108585000D01*
X131443512Y-108585000D01*
X131456433Y-108585846D01*
G37*
%TD.AperFunction*%
%TD*%
%TA.AperFunction,Conductor*%
%TO.N,Net-(IC1-OUTNR)*%
G36*
X136444334Y-112578180D02*
G01*
X136500267Y-112620052D01*
X136524684Y-112685516D01*
X136525000Y-112694362D01*
X136525000Y-115518638D01*
X136505315Y-115585677D01*
X136488681Y-115606319D01*
X134656319Y-117438681D01*
X134594996Y-117472166D01*
X134568638Y-117475000D01*
X133349999Y-117475000D01*
X132530727Y-118294271D01*
X132492423Y-118318889D01*
X132492552Y-118319124D01*
X132489274Y-118320913D01*
X132486389Y-118322768D01*
X132484774Y-118323370D01*
X132484773Y-118323370D01*
X132481628Y-118325725D01*
X132458859Y-118339235D01*
X132455286Y-118340867D01*
X132455278Y-118340872D01*
X132419800Y-118371613D01*
X132412922Y-118377156D01*
X132402821Y-118384718D01*
X132393898Y-118393641D01*
X132387428Y-118399663D01*
X132351949Y-118430406D01*
X132351943Y-118430413D01*
X132349823Y-118433712D01*
X132333196Y-118454342D01*
X132259360Y-118528180D01*
X132198038Y-118561666D01*
X132171678Y-118564500D01*
X129188285Y-118564500D01*
X129138199Y-118553934D01*
X129098077Y-118536218D01*
X129055492Y-118517415D01*
X129030368Y-118514500D01*
X128394000Y-118514500D01*
X128326961Y-118494815D01*
X128281206Y-118442011D01*
X128270000Y-118390500D01*
X128270000Y-118389499D01*
X128289685Y-118322460D01*
X128342489Y-118276705D01*
X128393998Y-118265499D01*
X129030364Y-118265499D01*
X129030379Y-118265497D01*
X129030382Y-118265497D01*
X129055487Y-118262586D01*
X129055488Y-118262585D01*
X129055491Y-118262585D01*
X129158265Y-118217206D01*
X129237706Y-118137765D01*
X129283085Y-118034991D01*
X129286000Y-118009865D01*
X129285999Y-117470136D01*
X129285997Y-117470117D01*
X129283086Y-117445012D01*
X129283085Y-117445010D01*
X129283085Y-117445009D01*
X129237706Y-117342235D01*
X129158265Y-117262794D01*
X129055492Y-117217415D01*
X129030368Y-117214500D01*
X128394000Y-117214500D01*
X128326961Y-117194815D01*
X128281206Y-117142011D01*
X128270000Y-117090500D01*
X128270000Y-117089499D01*
X128289685Y-117022460D01*
X128342489Y-116976705D01*
X128393998Y-116965499D01*
X129030364Y-116965499D01*
X129030379Y-116965497D01*
X129030382Y-116965497D01*
X129055487Y-116962586D01*
X129055491Y-116962585D01*
X129138199Y-116926066D01*
X129188285Y-116915500D01*
X130370542Y-116915500D01*
X130396898Y-116918333D01*
X130400729Y-116919167D01*
X130447575Y-116915815D01*
X130456423Y-116915500D01*
X130469011Y-116915500D01*
X130481485Y-116913706D01*
X130490266Y-116912761D01*
X130537115Y-116909411D01*
X130540781Y-116908043D01*
X130566469Y-116901487D01*
X130570342Y-116900931D01*
X130613072Y-116881415D01*
X130621207Y-116878045D01*
X130665226Y-116861629D01*
X130665227Y-116861627D01*
X130665230Y-116861627D01*
X130673012Y-116857378D01*
X130674330Y-116859793D01*
X130726533Y-116840317D01*
X130735390Y-116840000D01*
X130810000Y-116840000D01*
X133313681Y-114336319D01*
X133375004Y-114302834D01*
X133401362Y-114300000D01*
X134620000Y-114300000D01*
X136313319Y-112606681D01*
X136374642Y-112573196D01*
X136444334Y-112578180D01*
G37*
%TD.AperFunction*%
%TD*%
%TA.AperFunction,Conductor*%
%TO.N,GND*%
G36*
X159496011Y-94985185D02*
G01*
X159541766Y-95037989D01*
X159551710Y-95107147D01*
X159522685Y-95170703D01*
X159516653Y-95177181D01*
X159282846Y-95410987D01*
X159282839Y-95410995D01*
X159048641Y-95700205D01*
X158845959Y-96012309D01*
X158677006Y-96343896D01*
X158543641Y-96691321D01*
X158447319Y-97050799D01*
X158447319Y-97050801D01*
X158389104Y-97418360D01*
X158369627Y-97789999D01*
X158369627Y-97790000D01*
X158389104Y-98161639D01*
X158447319Y-98529198D01*
X158447319Y-98529200D01*
X158543641Y-98888678D01*
X158677006Y-99236103D01*
X158845959Y-99567691D01*
X159048641Y-99879794D01*
X159100500Y-99943834D01*
X159282843Y-100169009D01*
X159545991Y-100432157D01*
X159545995Y-100432160D01*
X159835205Y-100666358D01*
X160087192Y-100830000D01*
X160147313Y-100869043D01*
X160478900Y-101037995D01*
X160826329Y-101171361D01*
X161185796Y-101267680D01*
X161553362Y-101325896D01*
X161904444Y-101344295D01*
X161924999Y-101345373D01*
X161925000Y-101345373D01*
X161925001Y-101345373D01*
X161944478Y-101344352D01*
X162296638Y-101325896D01*
X162664204Y-101267680D01*
X163023671Y-101171361D01*
X163371100Y-101037995D01*
X163702687Y-100869043D01*
X164014796Y-100666357D01*
X164304009Y-100432157D01*
X164537819Y-100198347D01*
X164599142Y-100164862D01*
X164668834Y-100169846D01*
X164724767Y-100211718D01*
X164749184Y-100277182D01*
X164749500Y-100286028D01*
X164749500Y-139743972D01*
X164729815Y-139811011D01*
X164677011Y-139856766D01*
X164607853Y-139866710D01*
X164544297Y-139837685D01*
X164537819Y-139831653D01*
X164304012Y-139597846D01*
X164304004Y-139597839D01*
X164014794Y-139363641D01*
X163702691Y-139160959D01*
X163371103Y-138992006D01*
X163023678Y-138858641D01*
X163022555Y-138858340D01*
X162664204Y-138762320D01*
X162664200Y-138762319D01*
X162664199Y-138762319D01*
X162296639Y-138704104D01*
X161925001Y-138684627D01*
X161924999Y-138684627D01*
X161553360Y-138704104D01*
X161185801Y-138762319D01*
X161185799Y-138762319D01*
X160826321Y-138858641D01*
X160478896Y-138992006D01*
X160147309Y-139160959D01*
X159835205Y-139363641D01*
X159545995Y-139597839D01*
X159545987Y-139597846D01*
X159282846Y-139860987D01*
X159282839Y-139860995D01*
X159048641Y-140150205D01*
X158845959Y-140462309D01*
X158677006Y-140793896D01*
X158543641Y-141141321D01*
X158447319Y-141500799D01*
X158447319Y-141500801D01*
X158415123Y-141704085D01*
X158389104Y-141868362D01*
X158369627Y-142240000D01*
X158389104Y-142611638D01*
X158447320Y-142979204D01*
X158471805Y-143070585D01*
X158543641Y-143338678D01*
X158677006Y-143686103D01*
X158845959Y-144017691D01*
X159048641Y-144329794D01*
X159282839Y-144619004D01*
X159282846Y-144619012D01*
X159516653Y-144852819D01*
X159550138Y-144914142D01*
X159545154Y-144983834D01*
X159503282Y-145039767D01*
X159437818Y-145064184D01*
X159428972Y-145064500D01*
X109176028Y-145064500D01*
X109108989Y-145044815D01*
X109063234Y-144992011D01*
X109053290Y-144922853D01*
X109082315Y-144859297D01*
X109088347Y-144852819D01*
X109205138Y-144736028D01*
X109322157Y-144619009D01*
X109556357Y-144329796D01*
X109759043Y-144017687D01*
X109927995Y-143686100D01*
X110061361Y-143338671D01*
X110157680Y-142979204D01*
X110215896Y-142611638D01*
X110235373Y-142240000D01*
X110215896Y-141868362D01*
X110157680Y-141500796D01*
X110061361Y-141141329D01*
X109927995Y-140793900D01*
X109759043Y-140462314D01*
X109690902Y-140357385D01*
X109556358Y-140150205D01*
X109434726Y-140000002D01*
X121154652Y-140000002D01*
X121174028Y-140357368D01*
X121174029Y-140357385D01*
X121231926Y-140710539D01*
X121231932Y-140710565D01*
X121327672Y-141055392D01*
X121327674Y-141055399D01*
X121460142Y-141387870D01*
X121460151Y-141387888D01*
X121627784Y-141704077D01*
X121627787Y-141704082D01*
X121627789Y-141704085D01*
X121739171Y-141868362D01*
X121828634Y-142000309D01*
X121828641Y-142000319D01*
X122060331Y-142273085D01*
X122060332Y-142273086D01*
X122320163Y-142519211D01*
X122605081Y-142735800D01*
X122911747Y-142920315D01*
X122911749Y-142920316D01*
X122911751Y-142920317D01*
X122911755Y-142920319D01*
X123039034Y-142979204D01*
X123236565Y-143070591D01*
X123575726Y-143184868D01*
X123925254Y-143261805D01*
X124281052Y-143300500D01*
X124281058Y-143300500D01*
X124638942Y-143300500D01*
X124638948Y-143300500D01*
X124994746Y-143261805D01*
X125344274Y-143184868D01*
X125683435Y-143070591D01*
X126008253Y-142920315D01*
X126314919Y-142735800D01*
X126599837Y-142519211D01*
X126859668Y-142273086D01*
X127091365Y-142000311D01*
X127292211Y-141704085D01*
X127459853Y-141387880D01*
X127592324Y-141055403D01*
X127682250Y-140731517D01*
X138299500Y-140731517D01*
X138310292Y-140799657D01*
X138314354Y-140825304D01*
X138371950Y-140938342D01*
X138371952Y-140938344D01*
X138371954Y-140938347D01*
X138461652Y-141028045D01*
X138461654Y-141028046D01*
X138461658Y-141028050D01*
X138574694Y-141085645D01*
X138574698Y-141085647D01*
X138668475Y-141100499D01*
X138668481Y-141100500D01*
X140731518Y-141100499D01*
X140825304Y-141085646D01*
X140938342Y-141028050D01*
X141028050Y-140938342D01*
X141085646Y-140825304D01*
X141085646Y-140825302D01*
X141085647Y-140825301D01*
X141100499Y-140731524D01*
X141100500Y-140731519D01*
X141100500Y-139700005D01*
X143194859Y-139700005D01*
X143215385Y-139947729D01*
X143215387Y-139947738D01*
X143276412Y-140188717D01*
X143376266Y-140416364D01*
X143476564Y-140569882D01*
X144216923Y-139829523D01*
X144240507Y-139909844D01*
X144318239Y-140030798D01*
X144426900Y-140124952D01*
X144557685Y-140184680D01*
X144567466Y-140186086D01*
X143829942Y-140923609D01*
X143876768Y-140960055D01*
X143876770Y-140960056D01*
X144095385Y-141078364D01*
X144095396Y-141078369D01*
X144330506Y-141159083D01*
X144575707Y-141200000D01*
X144824293Y-141200000D01*
X145069493Y-141159083D01*
X145304603Y-141078369D01*
X145304614Y-141078364D01*
X145523228Y-140960057D01*
X145523231Y-140960055D01*
X145570056Y-140923609D01*
X144832533Y-140186086D01*
X144842315Y-140184680D01*
X144973100Y-140124952D01*
X145081761Y-140030798D01*
X145159493Y-139909844D01*
X145183076Y-139829524D01*
X145923434Y-140569882D01*
X146023731Y-140416369D01*
X146123587Y-140188717D01*
X146184612Y-139947738D01*
X146184614Y-139947729D01*
X146205141Y-139700005D01*
X146205141Y-139699994D01*
X146184614Y-139452270D01*
X146184612Y-139452261D01*
X146123587Y-139211282D01*
X146023731Y-138983630D01*
X145923434Y-138830116D01*
X145183076Y-139570475D01*
X145159493Y-139490156D01*
X145081761Y-139369202D01*
X144973100Y-139275048D01*
X144842315Y-139215320D01*
X144832534Y-139213913D01*
X145570057Y-138476390D01*
X145570056Y-138476389D01*
X145523229Y-138439943D01*
X145304614Y-138321635D01*
X145304603Y-138321630D01*
X145069493Y-138240916D01*
X144824293Y-138200000D01*
X144575707Y-138200000D01*
X144330506Y-138240916D01*
X144095396Y-138321630D01*
X144095390Y-138321632D01*
X143876761Y-138439949D01*
X143829942Y-138476388D01*
X143829942Y-138476390D01*
X144567466Y-139213913D01*
X144557685Y-139215320D01*
X144426900Y-139275048D01*
X144318239Y-139369202D01*
X144240507Y-139490156D01*
X144216923Y-139570475D01*
X143476564Y-138830116D01*
X143376267Y-138983632D01*
X143276412Y-139211282D01*
X143215387Y-139452261D01*
X143215385Y-139452270D01*
X143194859Y-139699994D01*
X143194859Y-139700005D01*
X141100500Y-139700005D01*
X141100499Y-138668482D01*
X141085646Y-138574696D01*
X141028050Y-138461658D01*
X141028046Y-138461654D01*
X141028045Y-138461652D01*
X140938347Y-138371954D01*
X140938344Y-138371952D01*
X140938342Y-138371950D01*
X140839584Y-138321630D01*
X140825301Y-138314352D01*
X140731524Y-138299500D01*
X138668482Y-138299500D01*
X138587519Y-138312323D01*
X138574696Y-138314354D01*
X138461658Y-138371950D01*
X138461657Y-138371951D01*
X138461652Y-138371954D01*
X138371954Y-138461652D01*
X138371951Y-138461657D01*
X138314352Y-138574698D01*
X138299500Y-138668475D01*
X138299500Y-140731517D01*
X127682250Y-140731517D01*
X127688071Y-140710552D01*
X127711133Y-140569882D01*
X127745970Y-140357385D01*
X127745970Y-140357382D01*
X127745972Y-140357371D01*
X127765348Y-140000000D01*
X127745972Y-139642629D01*
X127738630Y-139597846D01*
X127688073Y-139289460D01*
X127688072Y-139289459D01*
X127688071Y-139289448D01*
X127603162Y-138983632D01*
X127592327Y-138944607D01*
X127592325Y-138944600D01*
X127459857Y-138612129D01*
X127459848Y-138612111D01*
X127423046Y-138542696D01*
X127368570Y-138439943D01*
X127292215Y-138295922D01*
X127292213Y-138295919D01*
X127292211Y-138295915D01*
X127220399Y-138190000D01*
X150200001Y-138190000D01*
X150200001Y-138439986D01*
X150210494Y-138542696D01*
X150210494Y-138542698D01*
X150265640Y-138709119D01*
X150265645Y-138709130D01*
X150357680Y-138858340D01*
X150357683Y-138858344D01*
X150481655Y-138982316D01*
X150481659Y-138982319D01*
X150630869Y-139074354D01*
X150630880Y-139074359D01*
X150797302Y-139129505D01*
X150900020Y-139139999D01*
X152149999Y-139139999D01*
X152150000Y-139139998D01*
X152150000Y-138190000D01*
X152650000Y-138190000D01*
X152650000Y-139139999D01*
X153899972Y-139139999D01*
X153899986Y-139139998D01*
X154002696Y-139129505D01*
X154002698Y-139129505D01*
X154169119Y-139074359D01*
X154169130Y-139074354D01*
X154318340Y-138982319D01*
X154318344Y-138982316D01*
X154442316Y-138858344D01*
X154442319Y-138858340D01*
X154534354Y-138709130D01*
X154534359Y-138709119D01*
X154589505Y-138542697D01*
X154599999Y-138439986D01*
X154600000Y-138439973D01*
X154600000Y-138190000D01*
X152650000Y-138190000D01*
X152150000Y-138190000D01*
X150200001Y-138190000D01*
X127220399Y-138190000D01*
X127091365Y-137999689D01*
X127091361Y-137999684D01*
X127091358Y-137999680D01*
X126859668Y-137726914D01*
X126820698Y-137690000D01*
X150200000Y-137690000D01*
X152150000Y-137690000D01*
X152150000Y-136740000D01*
X152650000Y-136740000D01*
X152650000Y-137690000D01*
X154599999Y-137690000D01*
X154599999Y-137440028D01*
X154599998Y-137440013D01*
X154589505Y-137337303D01*
X154589505Y-137337301D01*
X154534359Y-137170880D01*
X154534354Y-137170869D01*
X154442319Y-137021659D01*
X154442316Y-137021655D01*
X154318344Y-136897683D01*
X154318340Y-136897680D01*
X154169130Y-136805645D01*
X154169119Y-136805640D01*
X154002697Y-136750494D01*
X153899986Y-136740000D01*
X152650000Y-136740000D01*
X152150000Y-136740000D01*
X150900028Y-136740000D01*
X150900012Y-136740001D01*
X150797303Y-136750494D01*
X150797301Y-136750494D01*
X150630880Y-136805640D01*
X150630869Y-136805645D01*
X150481659Y-136897680D01*
X150481655Y-136897683D01*
X150357683Y-137021655D01*
X150357680Y-137021659D01*
X150265645Y-137170869D01*
X150265640Y-137170880D01*
X150210494Y-137337302D01*
X150200000Y-137440013D01*
X150200000Y-137690000D01*
X126820698Y-137690000D01*
X126599837Y-137480789D01*
X126599830Y-137480783D01*
X126599827Y-137480781D01*
X126532245Y-137429407D01*
X126314919Y-137264200D01*
X126008253Y-137079685D01*
X126008252Y-137079684D01*
X126008248Y-137079682D01*
X126008244Y-137079680D01*
X125683447Y-136929414D01*
X125683441Y-136929411D01*
X125683435Y-136929409D01*
X125513854Y-136872270D01*
X125344273Y-136815131D01*
X124994744Y-136738194D01*
X124638949Y-136699500D01*
X124638948Y-136699500D01*
X124281052Y-136699500D01*
X124281050Y-136699500D01*
X123925255Y-136738194D01*
X123575726Y-136815131D01*
X123330733Y-136897680D01*
X123236565Y-136929409D01*
X123236563Y-136929410D01*
X123236552Y-136929414D01*
X122911755Y-137079680D01*
X122911751Y-137079682D01*
X122760198Y-137170869D01*
X122605081Y-137264200D01*
X122516768Y-137331333D01*
X122320172Y-137480781D01*
X122320163Y-137480789D01*
X122060331Y-137726914D01*
X121828641Y-137999680D01*
X121828634Y-137999690D01*
X121627790Y-138295913D01*
X121627784Y-138295922D01*
X121460151Y-138612111D01*
X121460142Y-138612129D01*
X121327674Y-138944600D01*
X121327672Y-138944607D01*
X121231932Y-139289434D01*
X121231926Y-139289460D01*
X121174029Y-139642614D01*
X121174028Y-139642627D01*
X121174028Y-139642629D01*
X121170917Y-139700001D01*
X121154652Y-139999997D01*
X121154652Y-140000002D01*
X109434726Y-140000002D01*
X109322160Y-139860995D01*
X109322157Y-139860991D01*
X109059009Y-139597843D01*
X108926027Y-139490156D01*
X108769794Y-139363641D01*
X108457691Y-139160959D01*
X108126103Y-138992006D01*
X107778678Y-138858641D01*
X107777555Y-138858340D01*
X107419204Y-138762320D01*
X107419200Y-138762319D01*
X107419199Y-138762319D01*
X107051639Y-138704104D01*
X106680001Y-138684627D01*
X106679999Y-138684627D01*
X106308360Y-138704104D01*
X105940801Y-138762319D01*
X105940799Y-138762319D01*
X105581321Y-138858641D01*
X105233896Y-138992006D01*
X104902309Y-139160959D01*
X104590205Y-139363641D01*
X104300995Y-139597839D01*
X104300987Y-139597846D01*
X104067181Y-139831653D01*
X104005858Y-139865138D01*
X103936166Y-139860154D01*
X103880233Y-139818282D01*
X103855816Y-139752818D01*
X103855500Y-139743972D01*
X103855500Y-134290000D01*
X104570000Y-134290000D01*
X105641031Y-134290000D01*
X105608481Y-134340649D01*
X105570000Y-134471705D01*
X105570000Y-134608295D01*
X105608481Y-134739351D01*
X105641031Y-134790000D01*
X104570001Y-134790000D01*
X104570001Y-135189986D01*
X104580494Y-135292697D01*
X104635641Y-135459119D01*
X104635643Y-135459124D01*
X104727684Y-135608345D01*
X104851654Y-135732315D01*
X105000875Y-135824356D01*
X105000880Y-135824358D01*
X105167302Y-135879505D01*
X105167309Y-135879506D01*
X105270019Y-135889999D01*
X105794999Y-135889999D01*
X105795000Y-135889998D01*
X105795000Y-134948018D01*
X105909801Y-135000446D01*
X106011025Y-135015000D01*
X106078975Y-135015000D01*
X106180199Y-135000446D01*
X106295000Y-134948018D01*
X106295000Y-135889999D01*
X106819972Y-135889999D01*
X106819986Y-135889998D01*
X106922697Y-135879505D01*
X107089119Y-135824358D01*
X107089124Y-135824356D01*
X107238345Y-135732315D01*
X107362315Y-135608345D01*
X107454356Y-135459124D01*
X107454358Y-135459119D01*
X107509505Y-135292697D01*
X107509506Y-135292690D01*
X107519999Y-135189986D01*
X107520000Y-135189973D01*
X107520000Y-134790000D01*
X106448969Y-134790000D01*
X106481519Y-134739351D01*
X106520000Y-134608295D01*
X106520000Y-134471705D01*
X106481519Y-134340649D01*
X106448969Y-134290000D01*
X107519999Y-134290000D01*
X107519999Y-133890028D01*
X107519998Y-133890013D01*
X107509505Y-133787302D01*
X107454358Y-133620880D01*
X107454356Y-133620875D01*
X107362315Y-133471654D01*
X107238345Y-133347684D01*
X107089124Y-133255643D01*
X107089119Y-133255641D01*
X106999246Y-133225860D01*
X106941801Y-133186087D01*
X106914978Y-133121571D01*
X106927293Y-133052795D01*
X106965365Y-133007836D01*
X106996078Y-132985522D01*
X107151632Y-132822825D01*
X107275635Y-132634968D01*
X107364103Y-132427988D01*
X107414191Y-132208537D01*
X107424290Y-131983670D01*
X107394075Y-131760613D01*
X107354821Y-131639804D01*
X107352827Y-131569964D01*
X107385071Y-131513808D01*
X107477062Y-131421818D01*
X107538385Y-131388334D01*
X107564742Y-131385500D01*
X112877518Y-131385500D01*
X112944557Y-131405185D01*
X112975892Y-131434013D01*
X113036718Y-131513282D01*
X113162159Y-131609536D01*
X113308238Y-131670044D01*
X113425639Y-131685500D01*
X113904360Y-131685499D01*
X113904363Y-131685499D01*
X114021753Y-131670046D01*
X114021757Y-131670044D01*
X114021762Y-131670044D01*
X114167841Y-131609536D01*
X114293282Y-131513282D01*
X114389536Y-131387841D01*
X114389535Y-131387841D01*
X114391624Y-131385120D01*
X114448052Y-131343917D01*
X114517798Y-131339762D01*
X114578718Y-131373974D01*
X114588376Y-131385120D01*
X114672207Y-131494372D01*
X114686718Y-131513282D01*
X114812159Y-131609536D01*
X114958238Y-131670044D01*
X115075639Y-131685500D01*
X115554360Y-131685499D01*
X115554363Y-131685499D01*
X115671753Y-131670046D01*
X115671757Y-131670044D01*
X115671762Y-131670044D01*
X115817841Y-131609536D01*
X115943282Y-131513282D01*
X116039536Y-131387841D01*
X116100044Y-131241762D01*
X116115500Y-131124361D01*
X116115499Y-130874740D01*
X116135183Y-130807702D01*
X116151813Y-130787065D01*
X116513878Y-130425000D01*
X125135001Y-130425000D01*
X125135001Y-130473322D01*
X125145144Y-130572607D01*
X125198452Y-130733481D01*
X125198457Y-130733492D01*
X125287424Y-130877728D01*
X125287427Y-130877732D01*
X125407267Y-130997572D01*
X125407271Y-130997575D01*
X125551507Y-131086542D01*
X125551518Y-131086547D01*
X125712393Y-131139855D01*
X125811683Y-131149999D01*
X125835000Y-131149998D01*
X125835000Y-130425000D01*
X125135001Y-130425000D01*
X116513878Y-130425000D01*
X117013878Y-129925000D01*
X125135000Y-129925000D01*
X125835000Y-129925000D01*
X125835000Y-129199999D01*
X125811693Y-129200000D01*
X125811674Y-129200001D01*
X125712392Y-129210144D01*
X125551518Y-129263452D01*
X125551507Y-129263457D01*
X125407271Y-129352424D01*
X125407267Y-129352427D01*
X125287427Y-129472267D01*
X125287424Y-129472271D01*
X125198457Y-129616507D01*
X125198452Y-129616518D01*
X125145144Y-129777393D01*
X125135000Y-129876677D01*
X125135000Y-129925000D01*
X117013878Y-129925000D01*
X119053878Y-127885000D01*
X125135001Y-127885000D01*
X125135001Y-127933322D01*
X125145144Y-128032607D01*
X125198452Y-128193481D01*
X125198457Y-128193492D01*
X125287424Y-128337728D01*
X125287427Y-128337732D01*
X125407267Y-128457572D01*
X125407271Y-128457575D01*
X125551507Y-128546542D01*
X125551518Y-128546547D01*
X125712393Y-128599855D01*
X125811683Y-128609999D01*
X125835000Y-128609998D01*
X125835000Y-127885000D01*
X125135001Y-127885000D01*
X119053878Y-127885000D01*
X119119527Y-127819351D01*
X119131706Y-127808670D01*
X119155451Y-127790451D01*
X119178609Y-127760270D01*
X119178612Y-127760268D01*
X119247699Y-127670232D01*
X119290552Y-127566775D01*
X119305687Y-127530236D01*
X119320500Y-127417720D01*
X119324808Y-127385000D01*
X125135000Y-127385000D01*
X125835000Y-127385000D01*
X125835000Y-126659999D01*
X125811693Y-126660000D01*
X125811674Y-126660001D01*
X125712392Y-126670144D01*
X125551518Y-126723452D01*
X125551507Y-126723457D01*
X125407271Y-126812424D01*
X125407267Y-126812427D01*
X125287427Y-126932267D01*
X125287424Y-126932271D01*
X125198457Y-127076507D01*
X125198452Y-127076518D01*
X125145144Y-127237393D01*
X125135000Y-127336677D01*
X125135000Y-127385000D01*
X119324808Y-127385000D01*
X119325466Y-127380000D01*
X119321561Y-127350337D01*
X119320500Y-127334152D01*
X119320500Y-125996866D01*
X119340185Y-125929827D01*
X119356815Y-125909189D01*
X119726677Y-125539326D01*
X119787998Y-125505843D01*
X119833754Y-125504536D01*
X119902975Y-125515499D01*
X119902981Y-125515500D01*
X121441018Y-125515499D01*
X121534804Y-125500646D01*
X121647842Y-125443050D01*
X121737550Y-125353342D01*
X121795146Y-125240304D01*
X121795146Y-125240302D01*
X121795147Y-125240301D01*
X121809999Y-125146524D01*
X121810000Y-125146519D01*
X121809999Y-124805602D01*
X121829683Y-124738565D01*
X121834734Y-124731291D01*
X121852851Y-124707090D01*
X121852852Y-124707088D01*
X121903097Y-124572376D01*
X121903098Y-124572372D01*
X121909499Y-124512844D01*
X121909500Y-124512827D01*
X121909500Y-124465000D01*
X121827254Y-124465000D01*
X121760215Y-124445315D01*
X121739572Y-124428681D01*
X121737551Y-124426659D01*
X121737550Y-124426658D01*
X121647842Y-124336950D01*
X121590202Y-124307580D01*
X121534801Y-124279352D01*
X121441024Y-124264500D01*
X120571000Y-124264500D01*
X120503961Y-124244815D01*
X120458206Y-124192011D01*
X120447000Y-124140500D01*
X120447000Y-123815000D01*
X120897000Y-123815000D01*
X120897000Y-124015000D01*
X121909500Y-124015000D01*
X121909500Y-123967179D01*
X121909499Y-123967168D01*
X121905315Y-123928258D01*
X121905315Y-123901742D01*
X121909499Y-123862831D01*
X121909500Y-123862821D01*
X121909500Y-123815000D01*
X120897000Y-123815000D01*
X120447000Y-123815000D01*
X120447000Y-123165000D01*
X120897000Y-123165000D01*
X120897000Y-123365000D01*
X121909500Y-123365000D01*
X121909500Y-123317179D01*
X121909499Y-123317168D01*
X121905315Y-123278258D01*
X121905315Y-123251742D01*
X121909499Y-123212831D01*
X121909500Y-123212821D01*
X121909500Y-123165000D01*
X120897000Y-123165000D01*
X120447000Y-123165000D01*
X120447000Y-123039499D01*
X120466685Y-122972460D01*
X120519489Y-122926705D01*
X120570997Y-122915499D01*
X121441018Y-122915499D01*
X121534804Y-122900646D01*
X121647842Y-122843050D01*
X121737550Y-122753342D01*
X121737551Y-122753339D01*
X121739572Y-122751319D01*
X121800895Y-122717834D01*
X121827254Y-122715000D01*
X121909500Y-122715000D01*
X121909500Y-122667172D01*
X121909499Y-122667155D01*
X121903098Y-122607627D01*
X121903097Y-122607623D01*
X121852852Y-122472911D01*
X121834732Y-122448706D01*
X121810315Y-122383242D01*
X121809999Y-122374413D01*
X121809999Y-122205602D01*
X121829684Y-122138565D01*
X121834734Y-122131291D01*
X121852851Y-122107090D01*
X121852852Y-122107088D01*
X121903097Y-121972376D01*
X121903098Y-121972372D01*
X121909499Y-121912844D01*
X121909500Y-121912827D01*
X121909500Y-121865000D01*
X121827254Y-121865000D01*
X121760215Y-121845315D01*
X121739572Y-121828681D01*
X121737551Y-121826659D01*
X121737550Y-121826658D01*
X121647842Y-121736950D01*
X121577257Y-121700985D01*
X121534801Y-121679352D01*
X121441024Y-121664500D01*
X119902982Y-121664500D01*
X119809194Y-121679354D01*
X119766743Y-121700985D01*
X119710448Y-121714500D01*
X119675340Y-121714500D01*
X119659155Y-121713439D01*
X119629501Y-121709535D01*
X119629500Y-121709535D01*
X119621950Y-121710528D01*
X119595816Y-121713969D01*
X119595815Y-121713968D01*
X119595805Y-121713970D01*
X119479261Y-121729313D01*
X119460825Y-121736949D01*
X119460826Y-121736950D01*
X119339266Y-121787301D01*
X119250890Y-121855115D01*
X119250866Y-121855132D01*
X119250867Y-121855133D01*
X119219048Y-121879550D01*
X119200832Y-121903288D01*
X119190141Y-121915477D01*
X118370477Y-122735141D01*
X118358288Y-122745832D01*
X118334550Y-122764048D01*
X118310133Y-122795867D01*
X118310119Y-122795885D01*
X118283117Y-122831074D01*
X118252933Y-122870413D01*
X118244774Y-122881045D01*
X118242301Y-122884268D01*
X118242299Y-122884271D01*
X118184313Y-123024263D01*
X118184313Y-123024264D01*
X118168970Y-123140805D01*
X118168968Y-123140815D01*
X118168969Y-123140816D01*
X118164535Y-123174500D01*
X118168439Y-123204153D01*
X118169500Y-123220339D01*
X118169500Y-124653707D01*
X118149815Y-124720746D01*
X118133181Y-124741388D01*
X117830481Y-125044088D01*
X117818291Y-125054779D01*
X117794549Y-125072998D01*
X117771389Y-125103182D01*
X117771388Y-125103183D01*
X117702301Y-125193216D01*
X117702300Y-125193219D01*
X117682798Y-125240303D01*
X117682798Y-125240304D01*
X117644313Y-125333213D01*
X117644313Y-125333214D01*
X117628983Y-125449651D01*
X117628969Y-125449769D01*
X117624535Y-125483451D01*
X117626944Y-125501753D01*
X117628439Y-125513104D01*
X117629500Y-125529290D01*
X117629500Y-126866582D01*
X117609815Y-126933621D01*
X117593181Y-126954263D01*
X116889263Y-127658181D01*
X116827940Y-127691666D01*
X116801582Y-127694500D01*
X116102482Y-127694500D01*
X116035443Y-127674815D01*
X116004106Y-127645986D01*
X115990277Y-127627964D01*
X115943326Y-127566775D01*
X115943283Y-127566719D01*
X115929427Y-127556087D01*
X115817841Y-127470464D01*
X115801318Y-127463620D01*
X115671762Y-127409956D01*
X115671760Y-127409955D01*
X115554361Y-127394500D01*
X115075636Y-127394500D01*
X114958246Y-127409953D01*
X114958237Y-127409956D01*
X114812160Y-127470463D01*
X114812159Y-127470464D01*
X114686718Y-127566718D01*
X114686716Y-127566719D01*
X114686715Y-127566721D01*
X114650348Y-127614114D01*
X114593920Y-127655316D01*
X114524174Y-127659469D01*
X114463254Y-127625256D01*
X114445857Y-127602776D01*
X114420072Y-127560122D01*
X114299877Y-127439927D01*
X114154395Y-127351980D01*
X114154396Y-127351980D01*
X113992105Y-127301409D01*
X113992106Y-127301409D01*
X113921572Y-127295000D01*
X113915000Y-127295000D01*
X113915000Y-128396000D01*
X113895315Y-128463039D01*
X113842511Y-128508794D01*
X113791000Y-128520000D01*
X112765001Y-128520000D01*
X112765001Y-128601582D01*
X112771408Y-128672102D01*
X112771409Y-128672107D01*
X112812387Y-128803609D01*
X112813539Y-128873469D01*
X112776738Y-128932862D01*
X112713669Y-128962930D01*
X112694002Y-128964500D01*
X107354459Y-128964500D01*
X107287420Y-128944815D01*
X107245266Y-128899261D01*
X107217855Y-128848325D01*
X107217851Y-128848318D01*
X107077510Y-128672336D01*
X107077242Y-128672102D01*
X106907996Y-128524235D01*
X106714764Y-128408785D01*
X106714763Y-128408784D01*
X106714762Y-128408784D01*
X106702577Y-128404211D01*
X106646730Y-128362225D01*
X106622448Y-128296710D01*
X106637441Y-128228468D01*
X106686948Y-128179165D01*
X106692314Y-128176416D01*
X106813973Y-128117829D01*
X106948623Y-128020000D01*
X112765000Y-128020000D01*
X113415000Y-128020000D01*
X113415000Y-127295000D01*
X113414999Y-127294999D01*
X113408436Y-127295000D01*
X113408417Y-127295001D01*
X113337897Y-127301408D01*
X113337892Y-127301409D01*
X113175603Y-127351981D01*
X113030122Y-127439927D01*
X112909927Y-127560122D01*
X112821980Y-127705604D01*
X112771409Y-127867893D01*
X112765000Y-127938427D01*
X112765000Y-128020000D01*
X106948623Y-128020000D01*
X106996078Y-127985522D01*
X107151632Y-127822825D01*
X107275635Y-127634968D01*
X107284549Y-127614114D01*
X107364100Y-127427995D01*
X107364099Y-127427995D01*
X107364103Y-127427988D01*
X107414191Y-127208537D01*
X107424290Y-126983670D01*
X107394075Y-126760613D01*
X107324517Y-126546536D01*
X107314854Y-126528580D01*
X107217853Y-126348321D01*
X107217851Y-126348318D01*
X107186517Y-126309027D01*
X107077508Y-126172334D01*
X106907996Y-126024235D01*
X106714764Y-125908785D01*
X106596775Y-125864503D01*
X106504023Y-125829692D01*
X106282550Y-125789500D01*
X106282547Y-125789500D01*
X105863845Y-125789500D01*
X105825399Y-125792960D01*
X105695813Y-125804622D01*
X105695807Y-125804623D01*
X105478839Y-125864503D01*
X105478826Y-125864508D01*
X105276033Y-125962167D01*
X105276025Y-125962171D01*
X105093927Y-126094473D01*
X105093925Y-126094474D01*
X104938366Y-126257176D01*
X104814363Y-126445033D01*
X104725899Y-126652004D01*
X104725895Y-126652017D01*
X104675810Y-126871457D01*
X104675808Y-126871468D01*
X104670769Y-126983674D01*
X104665710Y-127096330D01*
X104695925Y-127319387D01*
X104695926Y-127319390D01*
X104765483Y-127533465D01*
X104872146Y-127731678D01*
X104872148Y-127731681D01*
X105012489Y-127907663D01*
X105012491Y-127907664D01*
X105012492Y-127907666D01*
X105182004Y-128055765D01*
X105375236Y-128171215D01*
X105387420Y-128175787D01*
X105443267Y-128217771D01*
X105467551Y-128283285D01*
X105452560Y-128351528D01*
X105403055Y-128400833D01*
X105397651Y-128403600D01*
X105276029Y-128462169D01*
X105276025Y-128462171D01*
X105093927Y-128594473D01*
X105093925Y-128594474D01*
X104938366Y-128757176D01*
X104814363Y-128945033D01*
X104725899Y-129152004D01*
X104725895Y-129152017D01*
X104675810Y-129371457D01*
X104675808Y-129371468D01*
X104665950Y-129590987D01*
X104665710Y-129596330D01*
X104695925Y-129819387D01*
X104695926Y-129819390D01*
X104765483Y-130033465D01*
X104872146Y-130231678D01*
X104872148Y-130231681D01*
X105012489Y-130407663D01*
X105012491Y-130407664D01*
X105012492Y-130407666D01*
X105182004Y-130555765D01*
X105375236Y-130671215D01*
X105387420Y-130675787D01*
X105443267Y-130717771D01*
X105467551Y-130783285D01*
X105452560Y-130851528D01*
X105403055Y-130900833D01*
X105397651Y-130903600D01*
X105276029Y-130962169D01*
X105276025Y-130962171D01*
X105093927Y-131094473D01*
X105093925Y-131094474D01*
X104938366Y-131257176D01*
X104814363Y-131445033D01*
X104725899Y-131652004D01*
X104725895Y-131652017D01*
X104675810Y-131871457D01*
X104675808Y-131871468D01*
X104670769Y-131983674D01*
X104665710Y-132096330D01*
X104695925Y-132319387D01*
X104695926Y-132319390D01*
X104765483Y-132533465D01*
X104872146Y-132731678D01*
X104872148Y-132731681D01*
X105012489Y-132907663D01*
X105012491Y-132907664D01*
X105012492Y-132907666D01*
X105134604Y-133014353D01*
X105172138Y-133073284D01*
X105171853Y-133143153D01*
X105133838Y-133201777D01*
X105092024Y-133225439D01*
X105000878Y-133255642D01*
X105000875Y-133255643D01*
X104851654Y-133347684D01*
X104727684Y-133471654D01*
X104635643Y-133620875D01*
X104635641Y-133620880D01*
X104580494Y-133787302D01*
X104580493Y-133787309D01*
X104570000Y-133890013D01*
X104570000Y-134290000D01*
X103855500Y-134290000D01*
X103855500Y-125027500D01*
X112743001Y-125027500D01*
X112743001Y-125109082D01*
X112749408Y-125179602D01*
X112749409Y-125179607D01*
X112799981Y-125341896D01*
X112887927Y-125487377D01*
X113008122Y-125607572D01*
X113153604Y-125695519D01*
X113153603Y-125695519D01*
X113315894Y-125746090D01*
X113315893Y-125746090D01*
X113386408Y-125752498D01*
X113386426Y-125752499D01*
X113392999Y-125752498D01*
X113393000Y-125752498D01*
X113393000Y-125027500D01*
X112743001Y-125027500D01*
X103855500Y-125027500D01*
X103855500Y-124527500D01*
X112743000Y-124527500D01*
X113393000Y-124527500D01*
X113393000Y-123802500D01*
X113392999Y-123802499D01*
X113386436Y-123802500D01*
X113386417Y-123802501D01*
X113315897Y-123808908D01*
X113315892Y-123808909D01*
X113153603Y-123859481D01*
X113008122Y-123947427D01*
X112887927Y-124067622D01*
X112799980Y-124213104D01*
X112749409Y-124375393D01*
X112743000Y-124445927D01*
X112743000Y-124527500D01*
X103855500Y-124527500D01*
X103855500Y-122805000D01*
X107905001Y-122805000D01*
X107905001Y-123079986D01*
X107915494Y-123182697D01*
X107970641Y-123349119D01*
X107970643Y-123349124D01*
X108062684Y-123498345D01*
X108186654Y-123622315D01*
X108335875Y-123714356D01*
X108335880Y-123714358D01*
X108502302Y-123769505D01*
X108502309Y-123769506D01*
X108605019Y-123779999D01*
X108654999Y-123779998D01*
X108655000Y-123779998D01*
X108655000Y-122805000D01*
X107905001Y-122805000D01*
X103855500Y-122805000D01*
X103855500Y-122305000D01*
X107905000Y-122305000D01*
X108655000Y-122305000D01*
X108655000Y-121330000D01*
X108654999Y-121329999D01*
X108605029Y-121330000D01*
X108605011Y-121330001D01*
X108502302Y-121340494D01*
X108335880Y-121395641D01*
X108335875Y-121395643D01*
X108186654Y-121487684D01*
X108062684Y-121611654D01*
X107970643Y-121760875D01*
X107970641Y-121760880D01*
X107915494Y-121927302D01*
X107915493Y-121927309D01*
X107905000Y-122030013D01*
X107905000Y-122305000D01*
X103855500Y-122305000D01*
X103855500Y-115666330D01*
X104640710Y-115666330D01*
X104670925Y-115889387D01*
X104670926Y-115889390D01*
X104740483Y-116103465D01*
X104847146Y-116301678D01*
X104847148Y-116301681D01*
X104987489Y-116477663D01*
X105157000Y-116625762D01*
X105157001Y-116625763D01*
X105157004Y-116625765D01*
X105190600Y-116645838D01*
X105238052Y-116697119D01*
X105250247Y-116765916D01*
X105223312Y-116830385D01*
X105165798Y-116870058D01*
X105161595Y-116871360D01*
X105034604Y-116908254D01*
X105034603Y-116908255D01*
X104893137Y-116991917D01*
X104893129Y-116991923D01*
X104776923Y-117108129D01*
X104776917Y-117108137D01*
X104693255Y-117249603D01*
X104693254Y-117249606D01*
X104647402Y-117407426D01*
X104647401Y-117407432D01*
X104644500Y-117444298D01*
X104644500Y-118775701D01*
X104647401Y-118812567D01*
X104647402Y-118812573D01*
X104693254Y-118970393D01*
X104693255Y-118970396D01*
X104776917Y-119111862D01*
X104776923Y-119111870D01*
X104893129Y-119228076D01*
X104893133Y-119228079D01*
X104893135Y-119228081D01*
X105034602Y-119311744D01*
X105064740Y-119320500D01*
X105192426Y-119357597D01*
X105192429Y-119357597D01*
X105192431Y-119357598D01*
X105229306Y-119360500D01*
X105229314Y-119360500D01*
X106860686Y-119360500D01*
X106860694Y-119360500D01*
X106897569Y-119357598D01*
X106897571Y-119357597D01*
X106897573Y-119357597D01*
X106957504Y-119340185D01*
X107055398Y-119311744D01*
X107196865Y-119228081D01*
X107313081Y-119111865D01*
X107396744Y-118970398D01*
X107442598Y-118812569D01*
X107445500Y-118775694D01*
X107445500Y-118042500D01*
X112743001Y-118042500D01*
X112743001Y-118124082D01*
X112749408Y-118194602D01*
X112749409Y-118194607D01*
X112799981Y-118356896D01*
X112887927Y-118502377D01*
X113008122Y-118622572D01*
X113153604Y-118710519D01*
X113153603Y-118710519D01*
X113315894Y-118761090D01*
X113315893Y-118761090D01*
X113386408Y-118767498D01*
X113386426Y-118767499D01*
X113392999Y-118767498D01*
X113393000Y-118767498D01*
X113393000Y-118042500D01*
X112743001Y-118042500D01*
X107445500Y-118042500D01*
X107445500Y-117574741D01*
X107454967Y-117542500D01*
X112743000Y-117542500D01*
X113393000Y-117542500D01*
X113393000Y-116817500D01*
X113392999Y-116817499D01*
X113386436Y-116817500D01*
X113386417Y-116817501D01*
X113315897Y-116823908D01*
X113315892Y-116823909D01*
X113153603Y-116874481D01*
X113008122Y-116962427D01*
X112887927Y-117082622D01*
X112799980Y-117228104D01*
X112749409Y-117390393D01*
X112743000Y-117460927D01*
X112743000Y-117542500D01*
X107454967Y-117542500D01*
X107465185Y-117507702D01*
X107481815Y-117487064D01*
X108324527Y-116644351D01*
X108336706Y-116633670D01*
X108360451Y-116615451D01*
X108377405Y-116593356D01*
X108383610Y-116585269D01*
X108383612Y-116585268D01*
X108452699Y-116495233D01*
X108503245Y-116373202D01*
X108510687Y-116355236D01*
X108525500Y-116242720D01*
X108525500Y-116242714D01*
X108530465Y-116205000D01*
X108526560Y-116175344D01*
X108525500Y-116159160D01*
X108525500Y-110895564D01*
X108545185Y-110828525D01*
X108597989Y-110782770D01*
X108667147Y-110772826D01*
X108730703Y-110801851D01*
X108747876Y-110820078D01*
X108788856Y-110873485D01*
X108788867Y-110873499D01*
X108809545Y-110900447D01*
X108809547Y-110900448D01*
X108809549Y-110900451D01*
X108822850Y-110910657D01*
X108833286Y-110918665D01*
X108845479Y-110929359D01*
X110050642Y-112134522D01*
X110061337Y-112146717D01*
X110076773Y-112166834D01*
X110079549Y-112170451D01*
X110091689Y-112179767D01*
X110106508Y-112191138D01*
X110106522Y-112191149D01*
X110109732Y-112193612D01*
X110154455Y-112227929D01*
X110199767Y-112262698D01*
X110339764Y-112320687D01*
X110452280Y-112335500D01*
X110452283Y-112335500D01*
X110456293Y-112336028D01*
X110456319Y-112336031D01*
X110489999Y-112340465D01*
X110490000Y-112340465D01*
X110490001Y-112340465D01*
X110519655Y-112336561D01*
X110535840Y-112335500D01*
X111896582Y-112335500D01*
X111963621Y-112355185D01*
X111984263Y-112371819D01*
X117471925Y-117859481D01*
X117505410Y-117920804D01*
X117500426Y-117990496D01*
X117471925Y-118034843D01*
X116140125Y-119366642D01*
X116078802Y-119400127D01*
X116009110Y-119395143D01*
X115954069Y-119354448D01*
X115921282Y-119311718D01*
X115921280Y-119311716D01*
X115921279Y-119311715D01*
X115917012Y-119308441D01*
X115875810Y-119252013D01*
X115868500Y-119210067D01*
X115868500Y-118597432D01*
X115888185Y-118530393D01*
X115917015Y-118499055D01*
X115921282Y-118495782D01*
X116017536Y-118370341D01*
X116078044Y-118224262D01*
X116093500Y-118106861D01*
X116093499Y-117478140D01*
X116093499Y-117478139D01*
X116093499Y-117478136D01*
X116078046Y-117360746D01*
X116078044Y-117360741D01*
X116078044Y-117360738D01*
X116017536Y-117214659D01*
X115921282Y-117089218D01*
X115795841Y-116992964D01*
X115793318Y-116991919D01*
X115649762Y-116932456D01*
X115649760Y-116932455D01*
X115532361Y-116917000D01*
X115053636Y-116917000D01*
X114936246Y-116932453D01*
X114936237Y-116932456D01*
X114790160Y-116992963D01*
X114790159Y-116992964D01*
X114664718Y-117089218D01*
X114664716Y-117089219D01*
X114664715Y-117089221D01*
X114628348Y-117136614D01*
X114571920Y-117177816D01*
X114502174Y-117181969D01*
X114441254Y-117147756D01*
X114423857Y-117125276D01*
X114398072Y-117082622D01*
X114277877Y-116962427D01*
X114132395Y-116874480D01*
X114132396Y-116874480D01*
X113970105Y-116823909D01*
X113970106Y-116823909D01*
X113899572Y-116817500D01*
X113893000Y-116817500D01*
X113893000Y-118767499D01*
X113899581Y-118767499D01*
X113970102Y-118761091D01*
X113970107Y-118761090D01*
X114132396Y-118710518D01*
X114277877Y-118622572D01*
X114398070Y-118502379D01*
X114423856Y-118459724D01*
X114475383Y-118412536D01*
X114544243Y-118400697D01*
X114608572Y-118427965D01*
X114628350Y-118448387D01*
X114664715Y-118495779D01*
X114664716Y-118495780D01*
X114664718Y-118495782D01*
X114668982Y-118499054D01*
X114710187Y-118555478D01*
X114717500Y-118597432D01*
X114717500Y-119210067D01*
X114697815Y-119277106D01*
X114668988Y-119308441D01*
X114664721Y-119311715D01*
X114664719Y-119311716D01*
X114664718Y-119311718D01*
X114605146Y-119389354D01*
X114566376Y-119439880D01*
X114509947Y-119481082D01*
X114440201Y-119485237D01*
X114379281Y-119451024D01*
X114369624Y-119439880D01*
X114330854Y-119389354D01*
X114271282Y-119311718D01*
X114145841Y-119215464D01*
X114044154Y-119173344D01*
X113999762Y-119154956D01*
X113999760Y-119154955D01*
X113882361Y-119139500D01*
X113403636Y-119139500D01*
X113286246Y-119154953D01*
X113286237Y-119154956D01*
X113140160Y-119215463D01*
X113014718Y-119311718D01*
X112918463Y-119437160D01*
X112857956Y-119583237D01*
X112857955Y-119583239D01*
X112842500Y-119700638D01*
X112842500Y-120329363D01*
X112857953Y-120446753D01*
X112857956Y-120446762D01*
X112918464Y-120592842D01*
X113014715Y-120718279D01*
X113014716Y-120718280D01*
X113014718Y-120718282D01*
X113018982Y-120721554D01*
X113060187Y-120777978D01*
X113067500Y-120819932D01*
X113067500Y-121730500D01*
X113047815Y-121797539D01*
X112995011Y-121843294D01*
X112943500Y-121854500D01*
X111748111Y-121854500D01*
X111681072Y-121834815D01*
X111641379Y-121793621D01*
X111610102Y-121740735D01*
X111573081Y-121678135D01*
X111573079Y-121678133D01*
X111573076Y-121678129D01*
X111456870Y-121561923D01*
X111456862Y-121561917D01*
X111315396Y-121478255D01*
X111315393Y-121478254D01*
X111157573Y-121432402D01*
X111157567Y-121432401D01*
X111120701Y-121429500D01*
X111120694Y-121429500D01*
X110489306Y-121429500D01*
X110489298Y-121429500D01*
X110452432Y-121432401D01*
X110452426Y-121432402D01*
X110294606Y-121478254D01*
X110294603Y-121478255D01*
X110153137Y-121561917D01*
X110153129Y-121561923D01*
X110036923Y-121678129D01*
X110036916Y-121678138D01*
X110019734Y-121707193D01*
X109968665Y-121754876D01*
X109899923Y-121767380D01*
X109835334Y-121740735D01*
X109807463Y-121709169D01*
X109747315Y-121611654D01*
X109623345Y-121487684D01*
X109474124Y-121395643D01*
X109474119Y-121395641D01*
X109307697Y-121340494D01*
X109307690Y-121340493D01*
X109204986Y-121330000D01*
X109155000Y-121330000D01*
X109155000Y-123779999D01*
X109204972Y-123779999D01*
X109204986Y-123779998D01*
X109307697Y-123769505D01*
X109474119Y-123714358D01*
X109474124Y-123714356D01*
X109623345Y-123622315D01*
X109747317Y-123498343D01*
X109807463Y-123400831D01*
X109859411Y-123354106D01*
X109928373Y-123342883D01*
X109992455Y-123370726D01*
X110019732Y-123402803D01*
X110036919Y-123431865D01*
X110036921Y-123431867D01*
X110036923Y-123431870D01*
X110153129Y-123548076D01*
X110153133Y-123548079D01*
X110153135Y-123548081D01*
X110294602Y-123631744D01*
X110336224Y-123643836D01*
X110452426Y-123677597D01*
X110452429Y-123677597D01*
X110452431Y-123677598D01*
X110489306Y-123680500D01*
X110489314Y-123680500D01*
X111120686Y-123680500D01*
X111120694Y-123680500D01*
X111157569Y-123677598D01*
X111157571Y-123677597D01*
X111157573Y-123677597D01*
X111199191Y-123665505D01*
X111315398Y-123631744D01*
X111456865Y-123548081D01*
X111573081Y-123431865D01*
X111641379Y-123316379D01*
X111692448Y-123268696D01*
X111748111Y-123255500D01*
X112968999Y-123255500D01*
X113036038Y-123275185D01*
X113044485Y-123281124D01*
X113140157Y-123354535D01*
X113140158Y-123354535D01*
X113140159Y-123354536D01*
X113286238Y-123415044D01*
X113403639Y-123430500D01*
X113882360Y-123430499D01*
X113882363Y-123430499D01*
X113999753Y-123415046D01*
X113999757Y-123415044D01*
X113999762Y-123415044D01*
X114145841Y-123354536D01*
X114271282Y-123258282D01*
X114367536Y-123132841D01*
X114367537Y-123132838D01*
X114369623Y-123130120D01*
X114426051Y-123088917D01*
X114495797Y-123084762D01*
X114556717Y-123118974D01*
X114566375Y-123130119D01*
X114595360Y-123167893D01*
X114664718Y-123258282D01*
X114668982Y-123261554D01*
X114710187Y-123317978D01*
X114717500Y-123359932D01*
X114717500Y-123972567D01*
X114697815Y-124039606D01*
X114668988Y-124070941D01*
X114664719Y-124074216D01*
X114664716Y-124074219D01*
X114628348Y-124121614D01*
X114571920Y-124162816D01*
X114502174Y-124166969D01*
X114441254Y-124132756D01*
X114423857Y-124110276D01*
X114398072Y-124067622D01*
X114277877Y-123947427D01*
X114132395Y-123859480D01*
X114132396Y-123859480D01*
X113970105Y-123808909D01*
X113970106Y-123808909D01*
X113899572Y-123802500D01*
X113893000Y-123802500D01*
X113893000Y-125752499D01*
X113899581Y-125752499D01*
X113970102Y-125746091D01*
X113970107Y-125746090D01*
X114132396Y-125695518D01*
X114277877Y-125607572D01*
X114398070Y-125487379D01*
X114423856Y-125444724D01*
X114475383Y-125397536D01*
X114544243Y-125385697D01*
X114608572Y-125412965D01*
X114628349Y-125433386D01*
X114664715Y-125480779D01*
X114664716Y-125480780D01*
X114664718Y-125480782D01*
X114790159Y-125577036D01*
X114936238Y-125637544D01*
X115053639Y-125653000D01*
X115532360Y-125652999D01*
X115532363Y-125652999D01*
X115649753Y-125637546D01*
X115649757Y-125637544D01*
X115649762Y-125637544D01*
X115795841Y-125577036D01*
X115921282Y-125480782D01*
X116017536Y-125355341D01*
X116078044Y-125209262D01*
X116093500Y-125091861D01*
X116093499Y-124463140D01*
X116093499Y-124463139D01*
X116093499Y-124463136D01*
X116078046Y-124345746D01*
X116078044Y-124345741D01*
X116078044Y-124345738D01*
X116017536Y-124199659D01*
X115921282Y-124074218D01*
X115920774Y-124073828D01*
X115917012Y-124070941D01*
X115875810Y-124014513D01*
X115868500Y-123972567D01*
X115868500Y-123359932D01*
X115888185Y-123292893D01*
X115917015Y-123261555D01*
X115921282Y-123258282D01*
X116017536Y-123132841D01*
X116078044Y-122986762D01*
X116093500Y-122869361D01*
X116093499Y-122619740D01*
X116113183Y-122552702D01*
X116129813Y-122532065D01*
X117446879Y-121215000D01*
X119434500Y-121215000D01*
X119434500Y-121262835D01*
X119438683Y-121301748D01*
X119438683Y-121328252D01*
X119434500Y-121367164D01*
X119434500Y-121415000D01*
X120447000Y-121415000D01*
X120447000Y-121215000D01*
X120897000Y-121215000D01*
X120897000Y-121415000D01*
X121909500Y-121415000D01*
X121909500Y-121367179D01*
X121909499Y-121367168D01*
X121905315Y-121328258D01*
X121905315Y-121301742D01*
X121909499Y-121262831D01*
X121909500Y-121262821D01*
X121909500Y-121215000D01*
X120897000Y-121215000D01*
X120447000Y-121215000D01*
X119434500Y-121215000D01*
X117446879Y-121215000D01*
X118096880Y-120565000D01*
X119434500Y-120565000D01*
X119434500Y-120612827D01*
X119434501Y-120612846D01*
X119438683Y-120651744D01*
X119438684Y-120678254D01*
X119434500Y-120717171D01*
X119434500Y-120765000D01*
X120447000Y-120765000D01*
X120447000Y-120565000D01*
X120897000Y-120565000D01*
X120897000Y-120765000D01*
X121909500Y-120765000D01*
X121909500Y-120717179D01*
X121909499Y-120717168D01*
X121905315Y-120678258D01*
X121905315Y-120651742D01*
X121909499Y-120612831D01*
X121909500Y-120612821D01*
X121909500Y-120565000D01*
X120897000Y-120565000D01*
X120447000Y-120565000D01*
X119434500Y-120565000D01*
X118096880Y-120565000D01*
X118360061Y-120301819D01*
X118421384Y-120268334D01*
X118447742Y-120265500D01*
X119710448Y-120265500D01*
X119766742Y-120279015D01*
X119809198Y-120300647D01*
X119902975Y-120315499D01*
X119902981Y-120315500D01*
X121441018Y-120315499D01*
X121534804Y-120300646D01*
X121604763Y-120265000D01*
X122440000Y-120265000D01*
X122440000Y-121932844D01*
X122446401Y-121992372D01*
X122446403Y-121992379D01*
X122496645Y-122127086D01*
X122496649Y-122127093D01*
X122582809Y-122242187D01*
X122582812Y-122242190D01*
X122697906Y-122328350D01*
X122697913Y-122328354D01*
X122832620Y-122378596D01*
X122832627Y-122378598D01*
X122892155Y-122384999D01*
X122892172Y-122385000D01*
X124210000Y-122385000D01*
X124210000Y-120265000D01*
X124710000Y-120265000D01*
X124710000Y-122385000D01*
X126027828Y-122385000D01*
X126027844Y-122384999D01*
X126087372Y-122378598D01*
X126087379Y-122378596D01*
X126222086Y-122328354D01*
X126222093Y-122328350D01*
X126337187Y-122242190D01*
X126337190Y-122242187D01*
X126423350Y-122127093D01*
X126423354Y-122127086D01*
X126473596Y-121992379D01*
X126473598Y-121992372D01*
X126479999Y-121932844D01*
X126480000Y-121932827D01*
X126480000Y-120265000D01*
X124710000Y-120265000D01*
X124210000Y-120265000D01*
X122440000Y-120265000D01*
X121604763Y-120265000D01*
X121647842Y-120243050D01*
X121737550Y-120153342D01*
X121737551Y-120153339D01*
X121739572Y-120151319D01*
X121800895Y-120117834D01*
X121827254Y-120115000D01*
X121909500Y-120115000D01*
X121909500Y-120067172D01*
X121909499Y-120067155D01*
X121903098Y-120007627D01*
X121903097Y-120007623D01*
X121852852Y-119872911D01*
X121834732Y-119848706D01*
X121810315Y-119783242D01*
X121809999Y-119774413D01*
X121809999Y-119765000D01*
X122440000Y-119765000D01*
X124210000Y-119765000D01*
X124210000Y-117645000D01*
X124710000Y-117645000D01*
X124710000Y-119765000D01*
X126480000Y-119765000D01*
X126480000Y-118097172D01*
X126479999Y-118097155D01*
X126473598Y-118037627D01*
X126473596Y-118037620D01*
X126423354Y-117902913D01*
X126423350Y-117902906D01*
X126337190Y-117787812D01*
X126337187Y-117787809D01*
X126222093Y-117701649D01*
X126222086Y-117701645D01*
X126087379Y-117651403D01*
X126087372Y-117651401D01*
X126027844Y-117645000D01*
X124710000Y-117645000D01*
X124210000Y-117645000D01*
X122892155Y-117645000D01*
X122832627Y-117651401D01*
X122832620Y-117651403D01*
X122697913Y-117701645D01*
X122697906Y-117701649D01*
X122582812Y-117787809D01*
X122582809Y-117787812D01*
X122496649Y-117902906D01*
X122496645Y-117902913D01*
X122446403Y-118037620D01*
X122446401Y-118037627D01*
X122440000Y-118097155D01*
X122440000Y-119765000D01*
X121809999Y-119765000D01*
X121809999Y-119433482D01*
X121802225Y-119384396D01*
X121802225Y-119345605D01*
X121810000Y-119296519D01*
X121809999Y-118783482D01*
X121808764Y-118775686D01*
X121805484Y-118754973D01*
X121802225Y-118734396D01*
X121802225Y-118695605D01*
X121810000Y-118646519D01*
X121809999Y-118133482D01*
X121808510Y-118124082D01*
X121804248Y-118097172D01*
X121802225Y-118084396D01*
X121802225Y-118045605D01*
X121810000Y-117996519D01*
X121809999Y-117483482D01*
X121809152Y-117478136D01*
X121803793Y-117444298D01*
X121802225Y-117434396D01*
X121802225Y-117395605D01*
X121810000Y-117346519D01*
X121809999Y-116833482D01*
X121807912Y-116820307D01*
X121804187Y-116796786D01*
X121802225Y-116784396D01*
X121802225Y-116745605D01*
X121810000Y-116696519D01*
X121809999Y-116183482D01*
X121808710Y-116175345D01*
X121806147Y-116159160D01*
X121802225Y-116134396D01*
X121802225Y-116095605D01*
X121810000Y-116046519D01*
X121809999Y-115705602D01*
X121829683Y-115638565D01*
X121834734Y-115631291D01*
X121852851Y-115607090D01*
X121852852Y-115607088D01*
X121903097Y-115472376D01*
X121903098Y-115472372D01*
X121909499Y-115412844D01*
X121909500Y-115412827D01*
X121909500Y-115365000D01*
X121827254Y-115365000D01*
X121760215Y-115345315D01*
X121739572Y-115328681D01*
X121737551Y-115326659D01*
X121737550Y-115326658D01*
X121647842Y-115236950D01*
X121562420Y-115193425D01*
X121534801Y-115179352D01*
X121441024Y-115164500D01*
X119902982Y-115164500D01*
X119822019Y-115177323D01*
X119809196Y-115179354D01*
X119696158Y-115236950D01*
X119696157Y-115236951D01*
X119696156Y-115236951D01*
X119650292Y-115282816D01*
X119606450Y-115326658D01*
X119606449Y-115326659D01*
X119604428Y-115328681D01*
X119543105Y-115362166D01*
X119516746Y-115365000D01*
X119434500Y-115365000D01*
X119434500Y-115412844D01*
X119440901Y-115472372D01*
X119440902Y-115472376D01*
X119491148Y-115607091D01*
X119509267Y-115631294D01*
X119533684Y-115696758D01*
X119534000Y-115705605D01*
X119534000Y-115740500D01*
X119514315Y-115807539D01*
X119461511Y-115853294D01*
X119410000Y-115864500D01*
X118952242Y-115864500D01*
X118885203Y-115844815D01*
X118864561Y-115828181D01*
X117951380Y-114915000D01*
X119434500Y-114915000D01*
X120447000Y-114915000D01*
X120447000Y-114415000D01*
X120897000Y-114415000D01*
X120897000Y-114915000D01*
X121909500Y-114915000D01*
X121909500Y-114867172D01*
X121909499Y-114867155D01*
X121903098Y-114807627D01*
X121903096Y-114807620D01*
X121852854Y-114672913D01*
X121852850Y-114672906D01*
X121766690Y-114557812D01*
X121766687Y-114557809D01*
X121651593Y-114471649D01*
X121651586Y-114471645D01*
X121516879Y-114421403D01*
X121516872Y-114421401D01*
X121457344Y-114415000D01*
X120897000Y-114415000D01*
X120447000Y-114415000D01*
X119886655Y-114415000D01*
X119827127Y-114421401D01*
X119827120Y-114421403D01*
X119692413Y-114471645D01*
X119692406Y-114471649D01*
X119577312Y-114557809D01*
X119577309Y-114557812D01*
X119491149Y-114672906D01*
X119491145Y-114672913D01*
X119440903Y-114807620D01*
X119440901Y-114807627D01*
X119434500Y-114867155D01*
X119434500Y-114915000D01*
X117951380Y-114915000D01*
X116816819Y-113780439D01*
X116783334Y-113719116D01*
X116780500Y-113692758D01*
X116780500Y-112645000D01*
X125135001Y-112645000D01*
X125135001Y-112693322D01*
X125145144Y-112792607D01*
X125198452Y-112953481D01*
X125198457Y-112953492D01*
X125287424Y-113097728D01*
X125287427Y-113097732D01*
X125407267Y-113217572D01*
X125407271Y-113217575D01*
X125551507Y-113306542D01*
X125551518Y-113306547D01*
X125712393Y-113359855D01*
X125811683Y-113369999D01*
X125835000Y-113369998D01*
X125835000Y-112645000D01*
X125135001Y-112645000D01*
X116780500Y-112645000D01*
X116780500Y-112514217D01*
X116800185Y-112447178D01*
X116812350Y-112431245D01*
X116937533Y-112292216D01*
X117022528Y-112145000D01*
X125135000Y-112145000D01*
X125835000Y-112145000D01*
X125835000Y-111419999D01*
X125811693Y-111420000D01*
X125811674Y-111420001D01*
X125712392Y-111430144D01*
X125551518Y-111483452D01*
X125551507Y-111483457D01*
X125407271Y-111572424D01*
X125407267Y-111572427D01*
X125287427Y-111692267D01*
X125287424Y-111692271D01*
X125198457Y-111836507D01*
X125198452Y-111836518D01*
X125145144Y-111997393D01*
X125135000Y-112096677D01*
X125135000Y-112145000D01*
X117022528Y-112145000D01*
X117032179Y-112128284D01*
X117090674Y-111948256D01*
X117110460Y-111760000D01*
X117090674Y-111571744D01*
X117032179Y-111391716D01*
X116937533Y-111227784D01*
X116937344Y-111227574D01*
X116937273Y-111227427D01*
X116933714Y-111222528D01*
X116934610Y-111221876D01*
X116907119Y-111164580D01*
X116905500Y-111144608D01*
X116905500Y-110915391D01*
X116925185Y-110848352D01*
X116937352Y-110832417D01*
X116937533Y-110832216D01*
X117032179Y-110668284D01*
X117090674Y-110488256D01*
X117110460Y-110300000D01*
X117107932Y-110275947D01*
X117120502Y-110207218D01*
X117143569Y-110175309D01*
X117213878Y-110105000D01*
X125135001Y-110105000D01*
X125135001Y-110153322D01*
X125145144Y-110252607D01*
X125198452Y-110413481D01*
X125198457Y-110413492D01*
X125287424Y-110557728D01*
X125287427Y-110557732D01*
X125407267Y-110677572D01*
X125407271Y-110677575D01*
X125551507Y-110766542D01*
X125551518Y-110766547D01*
X125712393Y-110819855D01*
X125811683Y-110829999D01*
X125835000Y-110829998D01*
X125835000Y-110105000D01*
X125135001Y-110105000D01*
X117213878Y-110105000D01*
X117822061Y-109496818D01*
X117883384Y-109463333D01*
X117909742Y-109460499D01*
X118159363Y-109460499D01*
X118276753Y-109445046D01*
X118276757Y-109445044D01*
X118276762Y-109445044D01*
X118422841Y-109384536D01*
X118548282Y-109288282D01*
X118644536Y-109162841D01*
X118644535Y-109162841D01*
X118646624Y-109160120D01*
X118703052Y-109118917D01*
X118772798Y-109114762D01*
X118833718Y-109148974D01*
X118843376Y-109160120D01*
X118939340Y-109285184D01*
X118941718Y-109288282D01*
X119067159Y-109384536D01*
X119213238Y-109445044D01*
X119330639Y-109460500D01*
X119809360Y-109460499D01*
X119809363Y-109460499D01*
X119926753Y-109445046D01*
X119926757Y-109445044D01*
X119926762Y-109445044D01*
X120072841Y-109384536D01*
X120198282Y-109288282D01*
X120259106Y-109209013D01*
X120315534Y-109167811D01*
X120357482Y-109160500D01*
X125071805Y-109160500D01*
X125138844Y-109180185D01*
X125184599Y-109232989D01*
X125194543Y-109302147D01*
X125189511Y-109323504D01*
X125145144Y-109457393D01*
X125135000Y-109556677D01*
X125135000Y-109605000D01*
X126211000Y-109605000D01*
X126278039Y-109624685D01*
X126323794Y-109677489D01*
X126335000Y-109729000D01*
X126335000Y-110829999D01*
X126358308Y-110829999D01*
X126358322Y-110829998D01*
X126457898Y-110819826D01*
X126526591Y-110832596D01*
X126577475Y-110880476D01*
X126594500Y-110943184D01*
X126594500Y-111306815D01*
X126574815Y-111373854D01*
X126522011Y-111419609D01*
X126457898Y-111430173D01*
X126358324Y-111420000D01*
X126335000Y-111420000D01*
X126335000Y-113369999D01*
X126358308Y-113369999D01*
X126358322Y-113369998D01*
X126457898Y-113359826D01*
X126526591Y-113372596D01*
X126577475Y-113420476D01*
X126594500Y-113483184D01*
X126594500Y-114474805D01*
X126599953Y-114541083D01*
X126605246Y-114573030D01*
X126605247Y-114573033D01*
X126621467Y-114637538D01*
X126621468Y-114637540D01*
X126621469Y-114637543D01*
X126680677Y-114749749D01*
X126717345Y-114798730D01*
X126808325Y-114887145D01*
X126922176Y-114943121D01*
X126979388Y-114960810D01*
X126980452Y-114961152D01*
X126980628Y-114961194D01*
X126980631Y-114961195D01*
X126980634Y-114961196D01*
X126980638Y-114961196D01*
X126980640Y-114961197D01*
X126993411Y-114963032D01*
X127003644Y-114964504D01*
X127067201Y-114993527D01*
X127104976Y-115052304D01*
X127110000Y-115087242D01*
X127110000Y-115396519D01*
X127117774Y-115445606D01*
X127117773Y-115484397D01*
X127110000Y-115533475D01*
X127110000Y-116046519D01*
X127117774Y-116095606D01*
X127117773Y-116134397D01*
X127110000Y-116183475D01*
X127110000Y-116696519D01*
X127117774Y-116745606D01*
X127117773Y-116784397D01*
X127110000Y-116833475D01*
X127110000Y-117174394D01*
X127090315Y-117241433D01*
X127085269Y-117248702D01*
X127067146Y-117272912D01*
X127067145Y-117272913D01*
X127016903Y-117407620D01*
X127016901Y-117407627D01*
X127010500Y-117467155D01*
X127010500Y-117515000D01*
X127092746Y-117515000D01*
X127159785Y-117534685D01*
X127180428Y-117551319D01*
X127182448Y-117553340D01*
X127182450Y-117553342D01*
X127271722Y-117642614D01*
X127279059Y-117649951D01*
X127277016Y-117651993D01*
X127310189Y-117695016D01*
X127316165Y-117764630D01*
X127283557Y-117826424D01*
X127277020Y-117832087D01*
X127251803Y-117857305D01*
X127182450Y-117926658D01*
X127182449Y-117926659D01*
X127180428Y-117928681D01*
X127119105Y-117962166D01*
X127092746Y-117965000D01*
X127010500Y-117965000D01*
X127010500Y-118012844D01*
X127016901Y-118072372D01*
X127016902Y-118072376D01*
X127067148Y-118207091D01*
X127085267Y-118231294D01*
X127109684Y-118296758D01*
X127110000Y-118305605D01*
X127110000Y-118646519D01*
X127117774Y-118695606D01*
X127117773Y-118734397D01*
X127110000Y-118783475D01*
X127110000Y-119124394D01*
X127090315Y-119191433D01*
X127085269Y-119198702D01*
X127067146Y-119222912D01*
X127067145Y-119222913D01*
X127016903Y-119357620D01*
X127016901Y-119357627D01*
X127010500Y-119417155D01*
X127010500Y-119465000D01*
X127092746Y-119465000D01*
X127159785Y-119484685D01*
X127180428Y-119501319D01*
X127182448Y-119503340D01*
X127182450Y-119503342D01*
X127257531Y-119578423D01*
X127279059Y-119599951D01*
X127277016Y-119601993D01*
X127310189Y-119645016D01*
X127316165Y-119714630D01*
X127283557Y-119776424D01*
X127277020Y-119782087D01*
X127251441Y-119807667D01*
X127182450Y-119876658D01*
X127182449Y-119876659D01*
X127180428Y-119878681D01*
X127119105Y-119912166D01*
X127092746Y-119915000D01*
X127010500Y-119915000D01*
X127010500Y-119962844D01*
X127016901Y-120022372D01*
X127016902Y-120022376D01*
X127067148Y-120157091D01*
X127085267Y-120181294D01*
X127109684Y-120246758D01*
X127110000Y-120255605D01*
X127110000Y-120596519D01*
X127117774Y-120645606D01*
X127117773Y-120684397D01*
X127110000Y-120733475D01*
X127110000Y-121074394D01*
X127090315Y-121141433D01*
X127085269Y-121148702D01*
X127067146Y-121172912D01*
X127067145Y-121172913D01*
X127016903Y-121307620D01*
X127016901Y-121307627D01*
X127010500Y-121367155D01*
X127010500Y-121415000D01*
X127092746Y-121415000D01*
X127159785Y-121434685D01*
X127180428Y-121451319D01*
X127182448Y-121453340D01*
X127182450Y-121453342D01*
X127231380Y-121502272D01*
X127279059Y-121549951D01*
X127277016Y-121551993D01*
X127310189Y-121595016D01*
X127316165Y-121664630D01*
X127283557Y-121726424D01*
X127277020Y-121732087D01*
X127248233Y-121760875D01*
X127182450Y-121826658D01*
X127182449Y-121826659D01*
X127180428Y-121828681D01*
X127119105Y-121862166D01*
X127092746Y-121865000D01*
X127010500Y-121865000D01*
X127010500Y-121912844D01*
X127016901Y-121972372D01*
X127016902Y-121972376D01*
X127067148Y-122107091D01*
X127085267Y-122131294D01*
X127109684Y-122196758D01*
X127110000Y-122205605D01*
X127110000Y-122546519D01*
X127117774Y-122595606D01*
X127117773Y-122634397D01*
X127110000Y-122683475D01*
X127110000Y-123196519D01*
X127117774Y-123245606D01*
X127117773Y-123284397D01*
X127110000Y-123333475D01*
X127110000Y-123846519D01*
X127117774Y-123895606D01*
X127117773Y-123934397D01*
X127110000Y-123983475D01*
X127110000Y-124496519D01*
X127117774Y-124545606D01*
X127117773Y-124584397D01*
X127110000Y-124633475D01*
X127110000Y-124970314D01*
X127090315Y-125037353D01*
X127037511Y-125083108D01*
X127018469Y-125089380D01*
X127018616Y-125089908D01*
X126914640Y-125118831D01*
X126806940Y-125185893D01*
X126806940Y-125185894D01*
X126754145Y-125231640D01*
X126684956Y-125309221D01*
X126630611Y-125423854D01*
X126610926Y-125490894D01*
X126610924Y-125490902D01*
X126594500Y-125605141D01*
X126594500Y-126546815D01*
X126574815Y-126613854D01*
X126522011Y-126659609D01*
X126457898Y-126670173D01*
X126358324Y-126660000D01*
X126335000Y-126660000D01*
X126335000Y-128609999D01*
X126358308Y-128609999D01*
X126358322Y-128609998D01*
X126457898Y-128599826D01*
X126526591Y-128612596D01*
X126577475Y-128660476D01*
X126594500Y-128723184D01*
X126594500Y-129086815D01*
X126574815Y-129153854D01*
X126522011Y-129199609D01*
X126457898Y-129210173D01*
X126358324Y-129200000D01*
X126335000Y-129200000D01*
X126335000Y-131149999D01*
X126358308Y-131149999D01*
X126358322Y-131149998D01*
X126457607Y-131139855D01*
X126618481Y-131086547D01*
X126618488Y-131086544D01*
X126734817Y-131014790D01*
X126802209Y-130996349D01*
X126868873Y-131017271D01*
X126913643Y-131070912D01*
X126922305Y-131140243D01*
X126920064Y-131150991D01*
X126913135Y-131178137D01*
X126900548Y-131281325D01*
X126921288Y-131406471D01*
X126921291Y-131406483D01*
X126921292Y-131406487D01*
X126931497Y-131437146D01*
X126943359Y-131472784D01*
X126943360Y-131472785D01*
X126988549Y-131566377D01*
X126988550Y-131566378D01*
X127073666Y-131660457D01*
X127073668Y-131660458D01*
X127073673Y-131660464D01*
X127128061Y-131704292D01*
X127128075Y-131704302D01*
X127227322Y-131763188D01*
X127227321Y-131763188D01*
X127227328Y-131763191D01*
X127227330Y-131763192D01*
X127296686Y-131791920D01*
X127346920Y-131808971D01*
X127370003Y-131815155D01*
X127378174Y-131817345D01*
X127378178Y-131817345D01*
X127378186Y-131817348D01*
X127430198Y-131827694D01*
X127569011Y-131845970D01*
X127595415Y-131848570D01*
X127595429Y-131848570D01*
X127595430Y-131848571D01*
X127611567Y-131849629D01*
X127611569Y-131849629D01*
X127611599Y-131849631D01*
X127638126Y-131850500D01*
X127638140Y-131850500D01*
X131441859Y-131850500D01*
X131441874Y-131850500D01*
X131468403Y-131849631D01*
X131484586Y-131848570D01*
X131510988Y-131845970D01*
X131649801Y-131827694D01*
X131701825Y-131817345D01*
X131733091Y-131808967D01*
X131783313Y-131791919D01*
X131905092Y-131741477D01*
X131952665Y-131718016D01*
X131980700Y-131701830D01*
X132024804Y-131672361D01*
X132040309Y-131660464D01*
X132077091Y-131632239D01*
X132129379Y-131592117D01*
X132169257Y-131557145D01*
X132192145Y-131534257D01*
X132227117Y-131494379D01*
X132298146Y-131401813D01*
X132307356Y-131389811D01*
X132308343Y-131388334D01*
X132336830Y-131345700D01*
X132353016Y-131317665D01*
X132376477Y-131270092D01*
X132426919Y-131148313D01*
X132443967Y-131098091D01*
X132452345Y-131066825D01*
X132462693Y-131014802D01*
X132480969Y-130875991D01*
X132481093Y-130874741D01*
X132483569Y-130849607D01*
X132483571Y-130849583D01*
X132484632Y-130833397D01*
X132485500Y-130806873D01*
X132485500Y-126753742D01*
X132505185Y-126686703D01*
X132557989Y-126640948D01*
X132627147Y-126631004D01*
X132690703Y-126660029D01*
X132697181Y-126666061D01*
X133073181Y-127042061D01*
X133106666Y-127103384D01*
X133109500Y-127129742D01*
X133109500Y-127428150D01*
X133109501Y-127428175D01*
X133112291Y-127463627D01*
X133156380Y-127615385D01*
X133156382Y-127615390D01*
X133236827Y-127751416D01*
X133236834Y-127751425D01*
X133348574Y-127863165D01*
X133348578Y-127863168D01*
X133348580Y-127863170D01*
X133484610Y-127943618D01*
X133636373Y-127987709D01*
X133671837Y-127990500D01*
X134298162Y-127990499D01*
X134333627Y-127987709D01*
X134485390Y-127943618D01*
X134621420Y-127863170D01*
X134733170Y-127751420D01*
X134813618Y-127615390D01*
X134857709Y-127463627D01*
X134860500Y-127428163D01*
X134860499Y-126851838D01*
X134860498Y-126851827D01*
X134860403Y-126849405D01*
X134861294Y-126849370D01*
X134874902Y-126784423D01*
X134923927Y-126734640D01*
X134992083Y-126719265D01*
X135057733Y-126743178D01*
X135071868Y-126755332D01*
X135908181Y-127591645D01*
X135941666Y-127652968D01*
X135944500Y-127679326D01*
X135944500Y-129731517D01*
X135951766Y-129777393D01*
X135959354Y-129825304D01*
X136016950Y-129938342D01*
X136016952Y-129938344D01*
X136016954Y-129938347D01*
X136106652Y-130028045D01*
X136106654Y-130028046D01*
X136106658Y-130028050D01*
X136201601Y-130076426D01*
X136219698Y-130085647D01*
X136313475Y-130100499D01*
X136313481Y-130100500D01*
X139276518Y-130100499D01*
X139370304Y-130085646D01*
X139483342Y-130028050D01*
X139573050Y-129938342D01*
X139630646Y-129825304D01*
X139630646Y-129825302D01*
X139630647Y-129825301D01*
X139645499Y-129731524D01*
X139645500Y-129731519D01*
X139645500Y-129731517D01*
X145844500Y-129731517D01*
X145851766Y-129777393D01*
X145859354Y-129825304D01*
X145916950Y-129938342D01*
X145916952Y-129938344D01*
X145916954Y-129938347D01*
X146006652Y-130028045D01*
X146006654Y-130028046D01*
X146006658Y-130028050D01*
X146119696Y-130085646D01*
X146119697Y-130085646D01*
X146119699Y-130085647D01*
X146189897Y-130096765D01*
X146253032Y-130126694D01*
X146289964Y-130186005D01*
X146294500Y-130219238D01*
X146294500Y-130501434D01*
X146294249Y-130509324D01*
X146289753Y-130579834D01*
X146289753Y-130579836D01*
X146300665Y-130682270D01*
X146300916Y-130684889D01*
X146309652Y-130787534D01*
X146309653Y-130787538D01*
X146311099Y-130793092D01*
X146314399Y-130811185D01*
X146315007Y-130816889D01*
X146315007Y-130816890D01*
X146343074Y-130916010D01*
X146343764Y-130918548D01*
X146369723Y-131018244D01*
X146369724Y-131018247D01*
X146369725Y-131018249D01*
X146372087Y-131023474D01*
X146378397Y-131040750D01*
X146379959Y-131046265D01*
X146379962Y-131046274D01*
X146424393Y-131139256D01*
X146425502Y-131141642D01*
X146455094Y-131207107D01*
X146467923Y-131235486D01*
X146471131Y-131240232D01*
X146480277Y-131256205D01*
X146482747Y-131261376D01*
X146542244Y-131345498D01*
X146543728Y-131347644D01*
X146569314Y-131385500D01*
X146601421Y-131433003D01*
X146601424Y-131433007D01*
X146605391Y-131437146D01*
X146617097Y-131451333D01*
X146620408Y-131456014D01*
X146620409Y-131456015D01*
X146620410Y-131456016D01*
X146693271Y-131528877D01*
X146695067Y-131530712D01*
X146766378Y-131605117D01*
X146770990Y-131608528D01*
X146784938Y-131620544D01*
X148687858Y-133523464D01*
X148693260Y-133529221D01*
X148739936Y-133582255D01*
X148820090Y-133646974D01*
X148822099Y-133648633D01*
X148900872Y-133715050D01*
X148900875Y-133715052D01*
X148900879Y-133715055D01*
X148905830Y-133717960D01*
X148920969Y-133728429D01*
X148925420Y-133732023D01*
X149015382Y-133782279D01*
X149017607Y-133783554D01*
X149106479Y-133835707D01*
X149106487Y-133835711D01*
X149106491Y-133835713D01*
X149106494Y-133835714D01*
X149106496Y-133835715D01*
X149111837Y-133837730D01*
X149128548Y-133845497D01*
X149133546Y-133848290D01*
X149198087Y-133871093D01*
X149230695Y-133882615D01*
X149233167Y-133883518D01*
X149329533Y-133919885D01*
X149329535Y-133919885D01*
X149329537Y-133919886D01*
X149335161Y-133920973D01*
X149352915Y-133925798D01*
X149358329Y-133927711D01*
X149358333Y-133927711D01*
X149358334Y-133927712D01*
X149459888Y-133945125D01*
X149462462Y-133945594D01*
X149563600Y-133965155D01*
X149569319Y-133965276D01*
X149587657Y-133967032D01*
X149593300Y-133968000D01*
X149696298Y-133968000D01*
X149698930Y-133968028D01*
X149801945Y-133970215D01*
X149801946Y-133970215D01*
X149801946Y-133970214D01*
X149801947Y-133970215D01*
X149804336Y-133969857D01*
X149807620Y-133969366D01*
X149825973Y-133968000D01*
X150175501Y-133968000D01*
X150242540Y-133987685D01*
X150288295Y-134040489D01*
X150299501Y-134092000D01*
X150299501Y-134355707D01*
X150302402Y-134392570D01*
X150348254Y-134550394D01*
X150348255Y-134550397D01*
X150431916Y-134691861D01*
X150431923Y-134691870D01*
X150548129Y-134808076D01*
X150548133Y-134808079D01*
X150548135Y-134808081D01*
X150689601Y-134891744D01*
X150731223Y-134903836D01*
X150847425Y-134937597D01*
X150847428Y-134937597D01*
X150847430Y-134937598D01*
X150884305Y-134940500D01*
X153915694Y-134940499D01*
X153952570Y-134937598D01*
X154110399Y-134891744D01*
X154251865Y-134808081D01*
X154368081Y-134691865D01*
X154451744Y-134550399D01*
X154497598Y-134392570D01*
X154500500Y-134355695D01*
X154500500Y-134092000D01*
X154520185Y-134024961D01*
X154572989Y-133979206D01*
X154624500Y-133968000D01*
X157636244Y-133968000D01*
X157703283Y-133987685D01*
X157742976Y-134028879D01*
X157766916Y-134069360D01*
X157766923Y-134069369D01*
X157883130Y-134185576D01*
X157883134Y-134185579D01*
X157883136Y-134185581D01*
X158024603Y-134269244D01*
X158024604Y-134269244D01*
X158024607Y-134269246D01*
X158182426Y-134315097D01*
X158182429Y-134315097D01*
X158182431Y-134315098D01*
X158219306Y-134318000D01*
X158219314Y-134318000D01*
X160550686Y-134318000D01*
X160550694Y-134318000D01*
X160587569Y-134315098D01*
X160587571Y-134315097D01*
X160587573Y-134315097D01*
X160745392Y-134269246D01*
X160745393Y-134269245D01*
X160745397Y-134269244D01*
X160886864Y-134185581D01*
X161003081Y-134069364D01*
X161086744Y-133927897D01*
X161086745Y-133927893D01*
X161086746Y-133927892D01*
X161132597Y-133770073D01*
X161132598Y-133770067D01*
X161135499Y-133733201D01*
X161135500Y-133733194D01*
X161135500Y-131401806D01*
X161132598Y-131364931D01*
X161132597Y-131364926D01*
X161086746Y-131207107D01*
X161086744Y-131207104D01*
X161086744Y-131207103D01*
X161003081Y-131065636D01*
X161003079Y-131065634D01*
X161003076Y-131065630D01*
X160886869Y-130949423D01*
X160886861Y-130949417D01*
X160804709Y-130900833D01*
X160745397Y-130865756D01*
X160745396Y-130865755D01*
X160745395Y-130865755D01*
X160745392Y-130865753D01*
X160587573Y-130819902D01*
X160587567Y-130819901D01*
X160550701Y-130817000D01*
X160550694Y-130817000D01*
X158219306Y-130817000D01*
X158219298Y-130817000D01*
X158182432Y-130819901D01*
X158182426Y-130819902D01*
X158024607Y-130865753D01*
X158024604Y-130865755D01*
X157883138Y-130949417D01*
X157883130Y-130949423D01*
X157766923Y-131065630D01*
X157766916Y-131065639D01*
X157742976Y-131106121D01*
X157691907Y-131153805D01*
X157636244Y-131167000D01*
X154603286Y-131167000D01*
X154536247Y-131147315D01*
X154496555Y-131106122D01*
X154418170Y-130973580D01*
X154412632Y-130968042D01*
X154379144Y-130906721D01*
X154384125Y-130837029D01*
X154412628Y-130792675D01*
X154492576Y-130712727D01*
X154581542Y-130568492D01*
X154581547Y-130568481D01*
X154634855Y-130407606D01*
X154644999Y-130308322D01*
X154645000Y-130308309D01*
X154645000Y-130285000D01*
X152695001Y-130285000D01*
X152695001Y-130308322D01*
X152705144Y-130407607D01*
X152758452Y-130568481D01*
X152758457Y-130568492D01*
X152847424Y-130712728D01*
X152847427Y-130712732D01*
X152927371Y-130792676D01*
X152960856Y-130853999D01*
X152955872Y-130923691D01*
X152927375Y-130968034D01*
X152921835Y-130973574D01*
X152921826Y-130973585D01*
X152887353Y-131031877D01*
X152843444Y-131106122D01*
X152792377Y-131153804D01*
X152736714Y-131167000D01*
X152109067Y-131167000D01*
X152042028Y-131147315D01*
X151996273Y-131094511D01*
X151989991Y-131077595D01*
X151958619Y-130969614D01*
X151958618Y-130969610D01*
X151890246Y-130853999D01*
X151878172Y-130833583D01*
X151878165Y-130833574D01*
X151802272Y-130757681D01*
X151768787Y-130696358D01*
X151773771Y-130626666D01*
X151802272Y-130582319D01*
X151878165Y-130506425D01*
X151878170Y-130506420D01*
X151958618Y-130370390D01*
X152002709Y-130218627D01*
X152005500Y-130183163D01*
X152005499Y-129785000D01*
X152695000Y-129785000D01*
X153420000Y-129785000D01*
X153420000Y-129085000D01*
X153920000Y-129085000D01*
X153920000Y-129785000D01*
X154644999Y-129785000D01*
X154644999Y-129761692D01*
X154644998Y-129761677D01*
X154634855Y-129662392D01*
X154581547Y-129501518D01*
X154581542Y-129501507D01*
X154492575Y-129357271D01*
X154492572Y-129357267D01*
X154372732Y-129237427D01*
X154372728Y-129237424D01*
X154228492Y-129148457D01*
X154228481Y-129148452D01*
X154067606Y-129095144D01*
X153968322Y-129085000D01*
X153920000Y-129085000D01*
X153420000Y-129085000D01*
X153419999Y-129084999D01*
X153371693Y-129085000D01*
X153371675Y-129085001D01*
X153272392Y-129095144D01*
X153111518Y-129148452D01*
X153111507Y-129148457D01*
X152967271Y-129237424D01*
X152967267Y-129237427D01*
X152847427Y-129357267D01*
X152847424Y-129357271D01*
X152758457Y-129501507D01*
X152758452Y-129501518D01*
X152705144Y-129662393D01*
X152695000Y-129761677D01*
X152695000Y-129785000D01*
X152005499Y-129785000D01*
X152005499Y-129606838D01*
X152002709Y-129571373D01*
X151958618Y-129419610D01*
X151878170Y-129283580D01*
X151878168Y-129283578D01*
X151878165Y-129283574D01*
X151866819Y-129272228D01*
X151833334Y-129210905D01*
X151830500Y-129184547D01*
X151830500Y-125818999D01*
X151850185Y-125751960D01*
X151856110Y-125743531D01*
X151929536Y-125647841D01*
X151990044Y-125501762D01*
X152005500Y-125384361D01*
X152005499Y-124905640D01*
X152005499Y-124905638D01*
X152005499Y-124905636D01*
X151990046Y-124788246D01*
X151990044Y-124788239D01*
X151990044Y-124788238D01*
X151929536Y-124642159D01*
X151833282Y-124516718D01*
X151833280Y-124516716D01*
X151833279Y-124516715D01*
X151785886Y-124480349D01*
X151744683Y-124423921D01*
X151740529Y-124354175D01*
X151774742Y-124293255D01*
X151797224Y-124275856D01*
X151839879Y-124250070D01*
X151960072Y-124129877D01*
X152048019Y-123984395D01*
X152098590Y-123822106D01*
X152105000Y-123751572D01*
X152105000Y-123745000D01*
X150155001Y-123745000D01*
X150155001Y-123751582D01*
X150161408Y-123822102D01*
X150161409Y-123822107D01*
X150211981Y-123984396D01*
X150299927Y-124129877D01*
X150420122Y-124250072D01*
X150462776Y-124275857D01*
X150509963Y-124327384D01*
X150521802Y-124396244D01*
X150494534Y-124460573D01*
X150474114Y-124480348D01*
X150426721Y-124516715D01*
X150426719Y-124516716D01*
X150426718Y-124516718D01*
X150374786Y-124584397D01*
X150330463Y-124642160D01*
X150269956Y-124788237D01*
X150269955Y-124788239D01*
X150254500Y-124905638D01*
X150254500Y-125384363D01*
X150269953Y-125501753D01*
X150269956Y-125501762D01*
X150301135Y-125577036D01*
X150330464Y-125647841D01*
X150403877Y-125743515D01*
X150429070Y-125808681D01*
X150429500Y-125818999D01*
X150429500Y-129184547D01*
X150409815Y-129251586D01*
X150393181Y-129272228D01*
X150381834Y-129283574D01*
X150381827Y-129283583D01*
X150301382Y-129419609D01*
X150301380Y-129419614D01*
X150257292Y-129571366D01*
X150257290Y-129571379D01*
X150254500Y-129606829D01*
X150254500Y-130183150D01*
X150254501Y-130183175D01*
X150257291Y-130218627D01*
X150301380Y-130370385D01*
X150301382Y-130370390D01*
X150381827Y-130506416D01*
X150381834Y-130506425D01*
X150457728Y-130582319D01*
X150491213Y-130643642D01*
X150486229Y-130713334D01*
X150457728Y-130757681D01*
X150381834Y-130833574D01*
X150381827Y-130833583D01*
X150306141Y-130961562D01*
X150255072Y-131009246D01*
X150186330Y-131021749D01*
X150121741Y-130995103D01*
X150111728Y-130986122D01*
X149351866Y-130226260D01*
X149318381Y-130164937D01*
X149323365Y-130095245D01*
X149365237Y-130039312D01*
X149383248Y-130028097D01*
X149383342Y-130028050D01*
X149473050Y-129938342D01*
X149530646Y-129825304D01*
X149530646Y-129825302D01*
X149530647Y-129825301D01*
X149545499Y-129731524D01*
X149545500Y-129731519D01*
X149545499Y-124268482D01*
X149530646Y-124174696D01*
X149473050Y-124061658D01*
X149473046Y-124061654D01*
X149473045Y-124061652D01*
X149383347Y-123971954D01*
X149383344Y-123971952D01*
X149383342Y-123971950D01*
X149297592Y-123928258D01*
X149270301Y-123914352D01*
X149176524Y-123899500D01*
X146213482Y-123899500D01*
X146132519Y-123912323D01*
X146119696Y-123914354D01*
X146006658Y-123971950D01*
X146006657Y-123971951D01*
X146006652Y-123971954D01*
X145916954Y-124061652D01*
X145916951Y-124061657D01*
X145916950Y-124061658D01*
X145910550Y-124074219D01*
X145859352Y-124174698D01*
X145844500Y-124268475D01*
X145844500Y-129731517D01*
X139645500Y-129731517D01*
X139645499Y-124268482D01*
X139630646Y-124174696D01*
X139573050Y-124061658D01*
X139573046Y-124061654D01*
X139573045Y-124061652D01*
X139483347Y-123971954D01*
X139483344Y-123971952D01*
X139483342Y-123971950D01*
X139397592Y-123928258D01*
X139370301Y-123914352D01*
X139276524Y-123899500D01*
X139276519Y-123899500D01*
X137224326Y-123899500D01*
X137157287Y-123879815D01*
X137136645Y-123863181D01*
X136518464Y-123245000D01*
X150155000Y-123245000D01*
X150880000Y-123245000D01*
X150880000Y-122595000D01*
X151380000Y-122595000D01*
X151380000Y-123245000D01*
X152104999Y-123245000D01*
X152104999Y-123238417D01*
X152098591Y-123167897D01*
X152098590Y-123167892D01*
X152048018Y-123005603D01*
X151960072Y-122860122D01*
X151839877Y-122739927D01*
X151694395Y-122651980D01*
X151694396Y-122651980D01*
X151532105Y-122601409D01*
X151532106Y-122601409D01*
X151461572Y-122595000D01*
X151380000Y-122595000D01*
X150880000Y-122595000D01*
X150879999Y-122594999D01*
X150798417Y-122595000D01*
X150727897Y-122601408D01*
X150727892Y-122601409D01*
X150565603Y-122651981D01*
X150420122Y-122739927D01*
X150299927Y-122860122D01*
X150211980Y-123005604D01*
X150161409Y-123167893D01*
X150155000Y-123238427D01*
X150155000Y-123245000D01*
X136518464Y-123245000D01*
X134943064Y-121669600D01*
X134943051Y-121669587D01*
X134943032Y-121669570D01*
X134943014Y-121669553D01*
X134910758Y-121640580D01*
X134910751Y-121640574D01*
X134890122Y-121623951D01*
X134890121Y-121623950D01*
X134890112Y-121623943D01*
X134864561Y-121604958D01*
X134864559Y-121604957D01*
X134749927Y-121550612D01*
X134713946Y-121540047D01*
X134655168Y-121502272D01*
X134626144Y-121438716D01*
X134636088Y-121369557D01*
X134661198Y-121333391D01*
X134733170Y-121261420D01*
X134813618Y-121125390D01*
X134857709Y-120973627D01*
X134860500Y-120938163D01*
X134860499Y-120361838D01*
X134857709Y-120326373D01*
X134813618Y-120174610D01*
X134750069Y-120067155D01*
X134733172Y-120038583D01*
X134733165Y-120038574D01*
X134621425Y-119926834D01*
X134621416Y-119926827D01*
X134530248Y-119872911D01*
X134485390Y-119846382D01*
X134382794Y-119816575D01*
X134323912Y-119778970D01*
X134294705Y-119715498D01*
X134304451Y-119646311D01*
X134350055Y-119593377D01*
X134382791Y-119578425D01*
X134485390Y-119548618D01*
X134621420Y-119468170D01*
X134733170Y-119356420D01*
X134813618Y-119220390D01*
X134857709Y-119068627D01*
X134860500Y-119033163D01*
X134860499Y-118505000D01*
X150200001Y-118505000D01*
X150200001Y-118754986D01*
X150210494Y-118857696D01*
X150210494Y-118857698D01*
X150265640Y-119024119D01*
X150265645Y-119024130D01*
X150357680Y-119173340D01*
X150357683Y-119173344D01*
X150481655Y-119297316D01*
X150481659Y-119297319D01*
X150630869Y-119389354D01*
X150630880Y-119389359D01*
X150797302Y-119444505D01*
X150900020Y-119454999D01*
X152149999Y-119454999D01*
X152150000Y-119454998D01*
X152150000Y-118505000D01*
X152650000Y-118505000D01*
X152650000Y-119454999D01*
X153899972Y-119454999D01*
X153899986Y-119454998D01*
X154002696Y-119444505D01*
X154002698Y-119444505D01*
X154169119Y-119389359D01*
X154169130Y-119389354D01*
X154318340Y-119297319D01*
X154318344Y-119297316D01*
X154442316Y-119173344D01*
X154442319Y-119173340D01*
X154534354Y-119024130D01*
X154534359Y-119024119D01*
X154589505Y-118857697D01*
X154599999Y-118754986D01*
X154600000Y-118754973D01*
X154600000Y-118505000D01*
X152650000Y-118505000D01*
X152150000Y-118505000D01*
X150200001Y-118505000D01*
X134860499Y-118505000D01*
X134860499Y-118456838D01*
X134857709Y-118421373D01*
X134813618Y-118269610D01*
X134733170Y-118133580D01*
X134733168Y-118133578D01*
X134733165Y-118133574D01*
X134661366Y-118061775D01*
X134630364Y-118005000D01*
X150200000Y-118005000D01*
X152150000Y-118005000D01*
X152150000Y-117055000D01*
X152650000Y-117055000D01*
X152650000Y-118005000D01*
X154599999Y-118005000D01*
X154599999Y-117755028D01*
X154599998Y-117755013D01*
X154589505Y-117652303D01*
X154589505Y-117652301D01*
X154534359Y-117485880D01*
X154534354Y-117485869D01*
X154442319Y-117336659D01*
X154442316Y-117336655D01*
X154318344Y-117212683D01*
X154318340Y-117212680D01*
X154169130Y-117120645D01*
X154169119Y-117120640D01*
X154002697Y-117065494D01*
X153899986Y-117055000D01*
X152650000Y-117055000D01*
X152150000Y-117055000D01*
X150900028Y-117055000D01*
X150900012Y-117055001D01*
X150797303Y-117065494D01*
X150797301Y-117065494D01*
X150630880Y-117120640D01*
X150630869Y-117120645D01*
X150481659Y-117212680D01*
X150481655Y-117212683D01*
X150357683Y-117336655D01*
X150357680Y-117336659D01*
X150265645Y-117485869D01*
X150265640Y-117485880D01*
X150210494Y-117652302D01*
X150200000Y-117755013D01*
X150200000Y-118005000D01*
X134630364Y-118005000D01*
X134627881Y-118000452D01*
X134632865Y-117930760D01*
X134674737Y-117874827D01*
X134707371Y-117857308D01*
X134789332Y-117828065D01*
X134850655Y-117794580D01*
X134943051Y-117725413D01*
X136501645Y-116166817D01*
X136562968Y-116133333D01*
X136589326Y-116130499D01*
X139276517Y-116130499D01*
X139276518Y-116130499D01*
X139370304Y-116115646D01*
X139483342Y-116058050D01*
X139573050Y-115968342D01*
X139630646Y-115855304D01*
X139630646Y-115855302D01*
X139630647Y-115855301D01*
X139645499Y-115761524D01*
X139645500Y-115761519D01*
X139645500Y-115761517D01*
X145844500Y-115761517D01*
X145851789Y-115807539D01*
X145859354Y-115855304D01*
X145916950Y-115968342D01*
X145916952Y-115968344D01*
X145916954Y-115968347D01*
X146006652Y-116058045D01*
X146006654Y-116058046D01*
X146006658Y-116058050D01*
X146095788Y-116103464D01*
X146119698Y-116115647D01*
X146213475Y-116130499D01*
X146213481Y-116130500D01*
X149176518Y-116130499D01*
X149270304Y-116115646D01*
X149383342Y-116058050D01*
X149473050Y-115968342D01*
X149530646Y-115855304D01*
X149530646Y-115855302D01*
X149530647Y-115855301D01*
X149545500Y-115761524D01*
X149545500Y-114554500D01*
X149565185Y-114487461D01*
X149617989Y-114441706D01*
X149669500Y-114430500D01*
X150175501Y-114430500D01*
X150242540Y-114450185D01*
X150288295Y-114502989D01*
X150299501Y-114554500D01*
X150299501Y-114670707D01*
X150302402Y-114707570D01*
X150348254Y-114865394D01*
X150348255Y-114865397D01*
X150348256Y-114865399D01*
X150349305Y-114867172D01*
X150431916Y-115006861D01*
X150431923Y-115006870D01*
X150548129Y-115123076D01*
X150548133Y-115123079D01*
X150548135Y-115123081D01*
X150689601Y-115206744D01*
X150731223Y-115218836D01*
X150847425Y-115252597D01*
X150847428Y-115252597D01*
X150847430Y-115252598D01*
X150884305Y-115255500D01*
X153915694Y-115255499D01*
X153952570Y-115252598D01*
X154110399Y-115206744D01*
X154251865Y-115123081D01*
X154368081Y-115006865D01*
X154385439Y-114977514D01*
X154436503Y-114929834D01*
X154505245Y-114917328D01*
X154569835Y-114943973D01*
X154579850Y-114952956D01*
X157948181Y-118321287D01*
X157981666Y-118382610D01*
X157984500Y-118408968D01*
X157984500Y-127512697D01*
X157964815Y-127579736D01*
X157957449Y-127590007D01*
X157934615Y-127618640D01*
X157803432Y-127845856D01*
X157707582Y-128090078D01*
X157707576Y-128090097D01*
X157649197Y-128345874D01*
X157649196Y-128345879D01*
X157629592Y-128607495D01*
X157629592Y-128607504D01*
X157649196Y-128869120D01*
X157649197Y-128869125D01*
X157707576Y-129124902D01*
X157707578Y-129124911D01*
X157707580Y-129124916D01*
X157803432Y-129369143D01*
X157934614Y-129596357D01*
X157987276Y-129662393D01*
X158098198Y-129801485D01*
X158241557Y-129934501D01*
X158290521Y-129979933D01*
X158507296Y-130127728D01*
X158507301Y-130127730D01*
X158507302Y-130127731D01*
X158507303Y-130127732D01*
X158632843Y-130188188D01*
X158743673Y-130241561D01*
X158743674Y-130241561D01*
X158743677Y-130241563D01*
X158994385Y-130318896D01*
X159253818Y-130358000D01*
X159516182Y-130358000D01*
X159775615Y-130318896D01*
X160026323Y-130241563D01*
X160262704Y-130127728D01*
X160479479Y-129979933D01*
X160671805Y-129801481D01*
X160835386Y-129596357D01*
X160966568Y-129369143D01*
X161062420Y-129124916D01*
X161120802Y-128869130D01*
X161122362Y-128848318D01*
X161140408Y-128607504D01*
X161140408Y-128607495D01*
X161120803Y-128345879D01*
X161120802Y-128345874D01*
X161120802Y-128345870D01*
X161062420Y-128090084D01*
X160966568Y-127845857D01*
X160835386Y-127618643D01*
X160832788Y-127615385D01*
X160812551Y-127590007D01*
X160786144Y-127525320D01*
X160785500Y-127512697D01*
X160785500Y-117826064D01*
X160785751Y-117818173D01*
X160787255Y-117794583D01*
X160790247Y-117747667D01*
X160779331Y-117645211D01*
X160779083Y-117642614D01*
X160773306Y-117574741D01*
X160770346Y-117539959D01*
X160768973Y-117534685D01*
X160768904Y-117534419D01*
X160765598Y-117516299D01*
X160764992Y-117510611D01*
X160764992Y-117510608D01*
X160736896Y-117411391D01*
X160736245Y-117408992D01*
X160710275Y-117309251D01*
X160707913Y-117304025D01*
X160701601Y-117286744D01*
X160700039Y-117281231D01*
X160700038Y-117281227D01*
X160655588Y-117188205D01*
X160654488Y-117185837D01*
X160612078Y-117092016D01*
X160608875Y-117087277D01*
X160599723Y-117071297D01*
X160597251Y-117066122D01*
X160537697Y-116981919D01*
X160536284Y-116979875D01*
X160478579Y-116894497D01*
X160474612Y-116890358D01*
X160462898Y-116876161D01*
X160459590Y-116871484D01*
X160386726Y-116798620D01*
X160384931Y-116796786D01*
X160313620Y-116722381D01*
X160313619Y-116722380D01*
X160309008Y-116718970D01*
X160295062Y-116706956D01*
X155715591Y-112127485D01*
X157535000Y-112127485D01*
X157545493Y-112230189D01*
X157545494Y-112230196D01*
X157600641Y-112396618D01*
X157600643Y-112396623D01*
X157692684Y-112545844D01*
X157816655Y-112669815D01*
X157965876Y-112761856D01*
X157965881Y-112761858D01*
X158132303Y-112817005D01*
X158132310Y-112817006D01*
X158235014Y-112827499D01*
X158235027Y-112827500D01*
X159135000Y-112827500D01*
X159135000Y-111792819D01*
X159292557Y-111827500D01*
X159431084Y-111827500D01*
X159568802Y-111812522D01*
X159635000Y-111790217D01*
X159635000Y-112827500D01*
X160534973Y-112827500D01*
X160534985Y-112827499D01*
X160637689Y-112817006D01*
X160637696Y-112817005D01*
X160804118Y-112761858D01*
X160804123Y-112761856D01*
X160953344Y-112669815D01*
X161077315Y-112545844D01*
X161169356Y-112396623D01*
X161169358Y-112396618D01*
X161224505Y-112230196D01*
X161224506Y-112230189D01*
X161234999Y-112127485D01*
X161235000Y-112127472D01*
X161235000Y-111227500D01*
X160200376Y-111227500D01*
X160208847Y-111206240D01*
X160238758Y-111023789D01*
X160228749Y-110839174D01*
X160197742Y-110727500D01*
X161235000Y-110727500D01*
X161235000Y-109827527D01*
X161234999Y-109827514D01*
X161224506Y-109724810D01*
X161224505Y-109724803D01*
X161169358Y-109558381D01*
X161169356Y-109558376D01*
X161077315Y-109409155D01*
X160953344Y-109285184D01*
X160804123Y-109193143D01*
X160804118Y-109193141D01*
X160637696Y-109137994D01*
X160637689Y-109137993D01*
X160534985Y-109127500D01*
X159635000Y-109127500D01*
X159635000Y-110162180D01*
X159477443Y-110127500D01*
X159338916Y-110127500D01*
X159201198Y-110142478D01*
X159135000Y-110164782D01*
X159135000Y-109127500D01*
X158235014Y-109127500D01*
X158132310Y-109137993D01*
X158132303Y-109137994D01*
X157965881Y-109193141D01*
X157965876Y-109193143D01*
X157816655Y-109285184D01*
X157692684Y-109409155D01*
X157600643Y-109558376D01*
X157600641Y-109558381D01*
X157545494Y-109724803D01*
X157545493Y-109724810D01*
X157535000Y-109827514D01*
X157535000Y-110727500D01*
X158569624Y-110727500D01*
X158561153Y-110748760D01*
X158531242Y-110931211D01*
X158541251Y-111115826D01*
X158572258Y-111227500D01*
X157535000Y-111227500D01*
X157535000Y-112127485D01*
X155715591Y-112127485D01*
X155662140Y-112074034D01*
X155656738Y-112068277D01*
X155633867Y-112042291D01*
X155610064Y-112015245D01*
X155529928Y-111950539D01*
X155527899Y-111948865D01*
X155449121Y-111882446D01*
X155444171Y-111879541D01*
X155429041Y-111869078D01*
X155424585Y-111865480D01*
X155424580Y-111865477D01*
X155334630Y-111815228D01*
X155332399Y-111813950D01*
X155243509Y-111761787D01*
X155243504Y-111761785D01*
X155243502Y-111761784D01*
X155238146Y-111759763D01*
X155221448Y-111752000D01*
X155216455Y-111749210D01*
X155119287Y-111714878D01*
X155116817Y-111713975D01*
X155020469Y-111677616D01*
X155020466Y-111677615D01*
X155020463Y-111677614D01*
X155014837Y-111676525D01*
X154997090Y-111671703D01*
X154991671Y-111669789D01*
X154991666Y-111669788D01*
X154890138Y-111652379D01*
X154887550Y-111651907D01*
X154786400Y-111632345D01*
X154780663Y-111632223D01*
X154762348Y-111630468D01*
X154756707Y-111629500D01*
X154756700Y-111629500D01*
X154653702Y-111629500D01*
X154651095Y-111629472D01*
X154648571Y-111629418D01*
X154581970Y-111608301D01*
X154537357Y-111554529D01*
X154532157Y-111540055D01*
X154498618Y-111424610D01*
X154428954Y-111306815D01*
X154418172Y-111288583D01*
X154418171Y-111288582D01*
X154418170Y-111288580D01*
X154412632Y-111283042D01*
X154379144Y-111221721D01*
X154384125Y-111152029D01*
X154412628Y-111107675D01*
X154492576Y-111027727D01*
X154581542Y-110883492D01*
X154581547Y-110883481D01*
X154634855Y-110722606D01*
X154644999Y-110623322D01*
X154645000Y-110623309D01*
X154645000Y-110600000D01*
X152695001Y-110600000D01*
X152695001Y-110623322D01*
X152705144Y-110722607D01*
X152758452Y-110883481D01*
X152758457Y-110883492D01*
X152847424Y-111027728D01*
X152847427Y-111027732D01*
X152927371Y-111107676D01*
X152960856Y-111168999D01*
X152955872Y-111238691D01*
X152927375Y-111283034D01*
X152921835Y-111288574D01*
X152921826Y-111288585D01*
X152841382Y-111424609D01*
X152841380Y-111424615D01*
X152807830Y-111540095D01*
X152770224Y-111598981D01*
X152706751Y-111628187D01*
X152688754Y-111629500D01*
X152111246Y-111629500D01*
X152044207Y-111609815D01*
X151998452Y-111557011D01*
X151992170Y-111540095D01*
X151960234Y-111430173D01*
X151958618Y-111424610D01*
X151888954Y-111306815D01*
X151878172Y-111288583D01*
X151878165Y-111288574D01*
X151802272Y-111212681D01*
X151768787Y-111151358D01*
X151773771Y-111081666D01*
X151802272Y-111037319D01*
X151878165Y-110961425D01*
X151878170Y-110961420D01*
X151958618Y-110825390D01*
X152002709Y-110673627D01*
X152005500Y-110638163D01*
X152005499Y-110100000D01*
X152695000Y-110100000D01*
X153420000Y-110100000D01*
X153420000Y-109400000D01*
X153920000Y-109400000D01*
X153920000Y-110100000D01*
X154644999Y-110100000D01*
X154644999Y-110076692D01*
X154644998Y-110076677D01*
X154634855Y-109977392D01*
X154581547Y-109816518D01*
X154581542Y-109816507D01*
X154492575Y-109672271D01*
X154492572Y-109672267D01*
X154372732Y-109552427D01*
X154372728Y-109552424D01*
X154228492Y-109463457D01*
X154228481Y-109463452D01*
X154067606Y-109410144D01*
X153968322Y-109400000D01*
X153920000Y-109400000D01*
X153420000Y-109400000D01*
X153419999Y-109399999D01*
X153371693Y-109400000D01*
X153371675Y-109400001D01*
X153272392Y-109410144D01*
X153111518Y-109463452D01*
X153111507Y-109463457D01*
X152967271Y-109552424D01*
X152967267Y-109552427D01*
X152847427Y-109672267D01*
X152847424Y-109672271D01*
X152758457Y-109816507D01*
X152758452Y-109816518D01*
X152705144Y-109977393D01*
X152695000Y-110076677D01*
X152695000Y-110100000D01*
X152005499Y-110100000D01*
X152005499Y-110061838D01*
X152002709Y-110026373D01*
X151958618Y-109874610D01*
X151878170Y-109738580D01*
X151878168Y-109738578D01*
X151878165Y-109738574D01*
X151866819Y-109727228D01*
X151833334Y-109665905D01*
X151830500Y-109639547D01*
X151830500Y-107017504D01*
X157629592Y-107017504D01*
X157649196Y-107279120D01*
X157649197Y-107279125D01*
X157707576Y-107534902D01*
X157707578Y-107534911D01*
X157707580Y-107534916D01*
X157803432Y-107779143D01*
X157934614Y-108006357D01*
X158050274Y-108151390D01*
X158098198Y-108211485D01*
X158221793Y-108326163D01*
X158290521Y-108389933D01*
X158507296Y-108537728D01*
X158507301Y-108537730D01*
X158507302Y-108537731D01*
X158507303Y-108537732D01*
X158577671Y-108571619D01*
X158743673Y-108651561D01*
X158743674Y-108651561D01*
X158743677Y-108651563D01*
X158994385Y-108728896D01*
X159253818Y-108768000D01*
X159516182Y-108768000D01*
X159775615Y-108728896D01*
X160026323Y-108651563D01*
X160262704Y-108537728D01*
X160479479Y-108389933D01*
X160644501Y-108236815D01*
X160671801Y-108211485D01*
X160671801Y-108211483D01*
X160671805Y-108211481D01*
X160835386Y-108006357D01*
X160966568Y-107779143D01*
X161062420Y-107534916D01*
X161120802Y-107279130D01*
X161140408Y-107017500D01*
X161132980Y-106918380D01*
X161120803Y-106755879D01*
X161120802Y-106755874D01*
X161120802Y-106755870D01*
X161062420Y-106500084D01*
X160966568Y-106255857D01*
X160835386Y-106028643D01*
X160671805Y-105823519D01*
X160671804Y-105823518D01*
X160671801Y-105823514D01*
X160479479Y-105645067D01*
X160262704Y-105497272D01*
X160262700Y-105497270D01*
X160262697Y-105497268D01*
X160262696Y-105497267D01*
X160026325Y-105383438D01*
X160026327Y-105383438D01*
X159775623Y-105306106D01*
X159775619Y-105306105D01*
X159775615Y-105306104D01*
X159650823Y-105287294D01*
X159516187Y-105267000D01*
X159516182Y-105267000D01*
X159253818Y-105267000D01*
X159253812Y-105267000D01*
X159092247Y-105291353D01*
X158994385Y-105306104D01*
X158994382Y-105306105D01*
X158994376Y-105306106D01*
X158743673Y-105383438D01*
X158507303Y-105497267D01*
X158507302Y-105497268D01*
X158290520Y-105645067D01*
X158098198Y-105823514D01*
X157934614Y-106028643D01*
X157803432Y-106255856D01*
X157707582Y-106500078D01*
X157707576Y-106500097D01*
X157649197Y-106755874D01*
X157649196Y-106755879D01*
X157629592Y-107017495D01*
X157629592Y-107017504D01*
X151830500Y-107017504D01*
X151830500Y-106273999D01*
X151850185Y-106206960D01*
X151856110Y-106198531D01*
X151929536Y-106102841D01*
X151990044Y-105956762D01*
X152005500Y-105839361D01*
X152005499Y-105360640D01*
X152005499Y-105360638D01*
X152005499Y-105360636D01*
X151990046Y-105243246D01*
X151990044Y-105243239D01*
X151990044Y-105243238D01*
X151929536Y-105097159D01*
X151833282Y-104971718D01*
X151833280Y-104971716D01*
X151833279Y-104971715D01*
X151785886Y-104935349D01*
X151744683Y-104878921D01*
X151740529Y-104809175D01*
X151774742Y-104748255D01*
X151797224Y-104730856D01*
X151839879Y-104705070D01*
X151960072Y-104584877D01*
X152048019Y-104439395D01*
X152098590Y-104277106D01*
X152105000Y-104206572D01*
X152105000Y-104200000D01*
X150155001Y-104200000D01*
X150155001Y-104206582D01*
X150161408Y-104277102D01*
X150161409Y-104277107D01*
X150211981Y-104439396D01*
X150299927Y-104584877D01*
X150420122Y-104705072D01*
X150462776Y-104730857D01*
X150509963Y-104782384D01*
X150521802Y-104851244D01*
X150494534Y-104915573D01*
X150474114Y-104935348D01*
X150426721Y-104971715D01*
X150426719Y-104971716D01*
X150426718Y-104971718D01*
X150407675Y-104996536D01*
X150330463Y-105097160D01*
X150269956Y-105243237D01*
X150269955Y-105243239D01*
X150254500Y-105360638D01*
X150254500Y-105839363D01*
X150269953Y-105956753D01*
X150269956Y-105956762D01*
X150330464Y-106102841D01*
X150403877Y-106198515D01*
X150429070Y-106263681D01*
X150429500Y-106273999D01*
X150429500Y-109639547D01*
X150409815Y-109706586D01*
X150393181Y-109727228D01*
X150381834Y-109738574D01*
X150381827Y-109738583D01*
X150301382Y-109874609D01*
X150301380Y-109874614D01*
X150257292Y-110026366D01*
X150257290Y-110026379D01*
X150254500Y-110061829D01*
X150254500Y-110638150D01*
X150254501Y-110638175D01*
X150257291Y-110673627D01*
X150301380Y-110825385D01*
X150301382Y-110825390D01*
X150381827Y-110961416D01*
X150381834Y-110961425D01*
X150457728Y-111037319D01*
X150491213Y-111098642D01*
X150486229Y-111168334D01*
X150457728Y-111212681D01*
X150381834Y-111288574D01*
X150381827Y-111288583D01*
X150301382Y-111424609D01*
X150301380Y-111424615D01*
X150267830Y-111540095D01*
X150230224Y-111598981D01*
X150166751Y-111628187D01*
X150148754Y-111629500D01*
X149669499Y-111629500D01*
X149602460Y-111609815D01*
X149556705Y-111557011D01*
X149545499Y-111505500D01*
X149545499Y-110298482D01*
X149544239Y-110290528D01*
X149530646Y-110204696D01*
X149473050Y-110091658D01*
X149473046Y-110091654D01*
X149473045Y-110091652D01*
X149383347Y-110001954D01*
X149383344Y-110001952D01*
X149383342Y-110001950D01*
X149306517Y-109962805D01*
X149270301Y-109944352D01*
X149176524Y-109929500D01*
X146213482Y-109929500D01*
X146132519Y-109942323D01*
X146119696Y-109944354D01*
X146006658Y-110001950D01*
X146006657Y-110001951D01*
X146006652Y-110001954D01*
X145916954Y-110091652D01*
X145916951Y-110091657D01*
X145859352Y-110204698D01*
X145844500Y-110298475D01*
X145844500Y-115761517D01*
X139645500Y-115761517D01*
X139645499Y-110298482D01*
X139630646Y-110204696D01*
X139573050Y-110091658D01*
X139573046Y-110091654D01*
X139573045Y-110091652D01*
X139483347Y-110001954D01*
X139483344Y-110001952D01*
X139483342Y-110001950D01*
X139406517Y-109962805D01*
X139370301Y-109944352D01*
X139276524Y-109929500D01*
X136313482Y-109929500D01*
X136232519Y-109942323D01*
X136219696Y-109944354D01*
X136106658Y-110001950D01*
X136106657Y-110001951D01*
X136106652Y-110001954D01*
X136016954Y-110091652D01*
X136016951Y-110091657D01*
X135959352Y-110204698D01*
X135944500Y-110298475D01*
X135944500Y-112350673D01*
X135924815Y-112417712D01*
X135908181Y-112438354D01*
X135071870Y-113274665D01*
X135010547Y-113308150D01*
X134940855Y-113303166D01*
X134884922Y-113261294D01*
X134860505Y-113195830D01*
X134860561Y-113180607D01*
X134860404Y-113180601D01*
X134860497Y-113178195D01*
X134860500Y-113178163D01*
X134860499Y-112601838D01*
X134857709Y-112566373D01*
X134813618Y-112414610D01*
X134733170Y-112278580D01*
X134733168Y-112278578D01*
X134733165Y-112278574D01*
X134621425Y-112166834D01*
X134621416Y-112166827D01*
X134485390Y-112086382D01*
X134485385Y-112086380D01*
X134333633Y-112042292D01*
X134333620Y-112042290D01*
X134298163Y-112039500D01*
X133671849Y-112039500D01*
X133671824Y-112039501D01*
X133636372Y-112042291D01*
X133484614Y-112086380D01*
X133484609Y-112086382D01*
X133348583Y-112166827D01*
X133348574Y-112166834D01*
X133236834Y-112278574D01*
X133236827Y-112278583D01*
X133156382Y-112414609D01*
X133156380Y-112414614D01*
X133112292Y-112566366D01*
X133112290Y-112566379D01*
X133109500Y-112601829D01*
X133109500Y-112900257D01*
X133089815Y-112967296D01*
X133073181Y-112987938D01*
X132697181Y-113363938D01*
X132635858Y-113397423D01*
X132566166Y-113392439D01*
X132510233Y-113350567D01*
X132485816Y-113285103D01*
X132485500Y-113276257D01*
X132485500Y-109221499D01*
X132485500Y-109221488D01*
X132484632Y-109194966D01*
X132483785Y-109182044D01*
X132481184Y-109155636D01*
X132462265Y-109011936D01*
X132451916Y-108959912D01*
X132445227Y-108934949D01*
X132428179Y-108884726D01*
X132428175Y-108884717D01*
X132428175Y-108884715D01*
X132395420Y-108805638D01*
X132375218Y-108756866D01*
X132361424Y-108728894D01*
X132351771Y-108709319D01*
X132351752Y-108709284D01*
X132338841Y-108686921D01*
X132338837Y-108686914D01*
X132309367Y-108642808D01*
X132254742Y-108571619D01*
X132225121Y-108533016D01*
X132190144Y-108493132D01*
X132171866Y-108474854D01*
X132164089Y-108468034D01*
X132131989Y-108439883D01*
X132066892Y-108389932D01*
X132022196Y-108355635D01*
X132000141Y-108340899D01*
X131978092Y-108326166D01*
X131955711Y-108313244D01*
X131955689Y-108313233D01*
X131908138Y-108289783D01*
X131780281Y-108236823D01*
X131780261Y-108236815D01*
X131730051Y-108219771D01*
X131721472Y-108217472D01*
X131705081Y-108213081D01*
X131705075Y-108213079D01*
X131705072Y-108213079D01*
X131691450Y-108210369D01*
X131653068Y-108202735D01*
X131642667Y-108201365D01*
X131509354Y-108183813D01*
X131482946Y-108181213D01*
X131469995Y-108180365D01*
X131446876Y-108179609D01*
X131443512Y-108179500D01*
X131443509Y-108179500D01*
X130020996Y-108179500D01*
X129953957Y-108159815D01*
X129945551Y-108153777D01*
X129945489Y-108153859D01*
X129852232Y-108082301D01*
X129770224Y-108048332D01*
X129712236Y-108024313D01*
X129687254Y-108021024D01*
X129595835Y-108008988D01*
X129595682Y-108008969D01*
X129581939Y-108007160D01*
X129562000Y-108004535D01*
X129561998Y-108004535D01*
X129561997Y-108004535D01*
X129532345Y-108008439D01*
X129516160Y-108009500D01*
X120357482Y-108009500D01*
X120290443Y-107989815D01*
X120259106Y-107960986D01*
X120198283Y-107881719D01*
X120198282Y-107881718D01*
X120072841Y-107785464D01*
X119926762Y-107724956D01*
X119926760Y-107724955D01*
X119809361Y-107709500D01*
X119330636Y-107709500D01*
X119213246Y-107724953D01*
X119213237Y-107724956D01*
X119067160Y-107785463D01*
X118941718Y-107881718D01*
X118843376Y-108009880D01*
X118786947Y-108051082D01*
X118717201Y-108055237D01*
X118656281Y-108021024D01*
X118646624Y-108009880D01*
X118636957Y-107997282D01*
X118548282Y-107881718D01*
X118422841Y-107785464D01*
X118276762Y-107724956D01*
X118276760Y-107724955D01*
X118159361Y-107709500D01*
X117680636Y-107709500D01*
X117563246Y-107724953D01*
X117563237Y-107724956D01*
X117417160Y-107785463D01*
X117291718Y-107881718D01*
X117195463Y-108007160D01*
X117134956Y-108153237D01*
X117134955Y-108153239D01*
X117119501Y-108270629D01*
X117119500Y-108270645D01*
X117119500Y-108520257D01*
X117099815Y-108587296D01*
X117083181Y-108607938D01*
X116327939Y-109363181D01*
X116266616Y-109396666D01*
X116240258Y-109399500D01*
X116110354Y-109399500D01*
X116077897Y-109406398D01*
X115925197Y-109438855D01*
X115925192Y-109438857D01*
X115752270Y-109515848D01*
X115752265Y-109515851D01*
X115599129Y-109627111D01*
X115472466Y-109767785D01*
X115377821Y-109931715D01*
X115377818Y-109931722D01*
X115325852Y-110091658D01*
X115319326Y-110111744D01*
X115299540Y-110300000D01*
X115319326Y-110488256D01*
X115319327Y-110488259D01*
X115377818Y-110668277D01*
X115377821Y-110668284D01*
X115472466Y-110832215D01*
X115472648Y-110832417D01*
X115472716Y-110832559D01*
X115476285Y-110837471D01*
X115475386Y-110838123D01*
X115502879Y-110895408D01*
X115504500Y-110915391D01*
X115504500Y-111144608D01*
X115484815Y-111211647D01*
X115472656Y-111227574D01*
X115472468Y-111227782D01*
X115472464Y-111227787D01*
X115377821Y-111391715D01*
X115377818Y-111391722D01*
X115324113Y-111557011D01*
X115319326Y-111571744D01*
X115299540Y-111760000D01*
X115319326Y-111948256D01*
X115319327Y-111948259D01*
X115377818Y-112128277D01*
X115377821Y-112128284D01*
X115472467Y-112292216D01*
X115597650Y-112431245D01*
X115627880Y-112494236D01*
X115629500Y-112514217D01*
X115629500Y-113326258D01*
X115609815Y-113393297D01*
X115557011Y-113439052D01*
X115487853Y-113448996D01*
X115424297Y-113419971D01*
X115417819Y-113413939D01*
X112248483Y-110244603D01*
X112214998Y-110183280D01*
X112216897Y-110122988D01*
X112230115Y-110076536D01*
X112250643Y-109855000D01*
X112242561Y-109767785D01*
X112230115Y-109633464D01*
X112230114Y-109633462D01*
X112228307Y-109627112D01*
X112169229Y-109419472D01*
X112168142Y-109417289D01*
X112070061Y-109220316D01*
X112070056Y-109220308D01*
X111935979Y-109042761D01*
X111771562Y-108892876D01*
X111771560Y-108892874D01*
X111582404Y-108775754D01*
X111582398Y-108775752D01*
X111562388Y-108768000D01*
X111374940Y-108695382D01*
X111156243Y-108654500D01*
X110933757Y-108654500D01*
X110715060Y-108695382D01*
X110628556Y-108728894D01*
X110507601Y-108775752D01*
X110507595Y-108775754D01*
X110318439Y-108892874D01*
X110318437Y-108892876D01*
X110154020Y-109042761D01*
X110018454Y-109222281D01*
X109962345Y-109263917D01*
X109892633Y-109268608D01*
X109831451Y-109234866D01*
X109798224Y-109173403D01*
X109795500Y-109147554D01*
X109795500Y-106889741D01*
X109815185Y-106822702D01*
X109831815Y-106802064D01*
X110655533Y-105978345D01*
X110716854Y-105944862D01*
X110765992Y-105944139D01*
X110933757Y-105975500D01*
X110933760Y-105975500D01*
X111156241Y-105975500D01*
X111156243Y-105975500D01*
X111374940Y-105934618D01*
X111582401Y-105854247D01*
X111771562Y-105737124D01*
X111935981Y-105587236D01*
X112070058Y-105409689D01*
X112169229Y-105210528D01*
X112230115Y-104996536D01*
X112250643Y-104775000D01*
X112230115Y-104553464D01*
X112169229Y-104339472D01*
X112138175Y-104277107D01*
X112070061Y-104140316D01*
X112070056Y-104140308D01*
X111935979Y-103962761D01*
X111771562Y-103812876D01*
X111771560Y-103812874D01*
X111589262Y-103700000D01*
X150155000Y-103700000D01*
X150880000Y-103700000D01*
X150880000Y-103050000D01*
X151380000Y-103050000D01*
X151380000Y-103700000D01*
X152104999Y-103700000D01*
X152104999Y-103693417D01*
X152098591Y-103622897D01*
X152098590Y-103622892D01*
X152048018Y-103460603D01*
X151960072Y-103315122D01*
X151839877Y-103194927D01*
X151694395Y-103106980D01*
X151694396Y-103106980D01*
X151532105Y-103056409D01*
X151532106Y-103056409D01*
X151461572Y-103050000D01*
X151380000Y-103050000D01*
X150880000Y-103050000D01*
X150879999Y-103049999D01*
X150798417Y-103050000D01*
X150727897Y-103056408D01*
X150727892Y-103056409D01*
X150565603Y-103106981D01*
X150420122Y-103194927D01*
X150299927Y-103315122D01*
X150211980Y-103460604D01*
X150161409Y-103622893D01*
X150155000Y-103693427D01*
X150155000Y-103700000D01*
X111589262Y-103700000D01*
X111582404Y-103695754D01*
X111582398Y-103695752D01*
X111374940Y-103615382D01*
X111156243Y-103574500D01*
X110933757Y-103574500D01*
X110715060Y-103615382D01*
X110695662Y-103622897D01*
X110507601Y-103695752D01*
X110507595Y-103695754D01*
X110318439Y-103812874D01*
X110318437Y-103812876D01*
X110154020Y-103962761D01*
X110019943Y-104140308D01*
X110019938Y-104140316D01*
X109920775Y-104339461D01*
X109920769Y-104339476D01*
X109859885Y-104553462D01*
X109859884Y-104553464D01*
X109839357Y-104774999D01*
X109839357Y-104775000D01*
X109859884Y-104996532D01*
X109859885Y-104996534D01*
X109859885Y-104996536D01*
X109873101Y-105042989D01*
X109872514Y-105112855D01*
X109841516Y-105164602D01*
X108845477Y-106160641D01*
X108833288Y-106171332D01*
X108809550Y-106189548D01*
X108809549Y-106189549D01*
X108790155Y-106214822D01*
X108785133Y-106221367D01*
X108785132Y-106221366D01*
X108785118Y-106221386D01*
X108725002Y-106299732D01*
X108725001Y-106299733D01*
X108717303Y-106309764D01*
X108682992Y-106392597D01*
X108639150Y-106447000D01*
X108572855Y-106469064D01*
X108505156Y-106451784D01*
X108457546Y-106400646D01*
X108453871Y-106392597D01*
X108452699Y-106389767D01*
X108383612Y-106299732D01*
X108383611Y-106299731D01*
X108381141Y-106296512D01*
X108381141Y-106296513D01*
X108360451Y-106269549D01*
X108360449Y-106269547D01*
X108360448Y-106269546D01*
X108336717Y-106251337D01*
X108324522Y-106240642D01*
X107248483Y-105164603D01*
X107214998Y-105103280D01*
X107216898Y-105042987D01*
X107230115Y-104996536D01*
X107250643Y-104775000D01*
X107230115Y-104553464D01*
X107169229Y-104339472D01*
X107138175Y-104277107D01*
X107070061Y-104140316D01*
X107070056Y-104140308D01*
X106935979Y-103962761D01*
X106771562Y-103812876D01*
X106771560Y-103812874D01*
X106582404Y-103695754D01*
X106582398Y-103695752D01*
X106374940Y-103615382D01*
X106156243Y-103574500D01*
X105933757Y-103574500D01*
X105715060Y-103615382D01*
X105695662Y-103622897D01*
X105507601Y-103695752D01*
X105507595Y-103695754D01*
X105318439Y-103812874D01*
X105318437Y-103812876D01*
X105154020Y-103962761D01*
X105019943Y-104140308D01*
X105019938Y-104140316D01*
X104920775Y-104339461D01*
X104920769Y-104339476D01*
X104859885Y-104553462D01*
X104859884Y-104553464D01*
X104839357Y-104774999D01*
X104839357Y-104775000D01*
X104859884Y-104996535D01*
X104859885Y-104996537D01*
X104920769Y-105210523D01*
X104920775Y-105210538D01*
X105019938Y-105409683D01*
X105019943Y-105409691D01*
X105154020Y-105587238D01*
X105318437Y-105737123D01*
X105318439Y-105737125D01*
X105507595Y-105854245D01*
X105507596Y-105854245D01*
X105507599Y-105854247D01*
X105715060Y-105934618D01*
X105933757Y-105975500D01*
X105933759Y-105975500D01*
X106156240Y-105975500D01*
X106156243Y-105975500D01*
X106324004Y-105944139D01*
X106393515Y-105951170D01*
X106434467Y-105978347D01*
X107338181Y-106882061D01*
X107371666Y-106943384D01*
X107374500Y-106969742D01*
X107374500Y-109304495D01*
X107354815Y-109371534D01*
X107302011Y-109417289D01*
X107232853Y-109427233D01*
X107169297Y-109398208D01*
X107139500Y-109359767D01*
X107070061Y-109220316D01*
X107070056Y-109220308D01*
X106935979Y-109042761D01*
X106771562Y-108892876D01*
X106771560Y-108892874D01*
X106582404Y-108775754D01*
X106582398Y-108775752D01*
X106562388Y-108768000D01*
X106374940Y-108695382D01*
X106156243Y-108654500D01*
X105933757Y-108654500D01*
X105715060Y-108695382D01*
X105628556Y-108728894D01*
X105507601Y-108775752D01*
X105507595Y-108775754D01*
X105318439Y-108892874D01*
X105318437Y-108892876D01*
X105154020Y-109042761D01*
X105019943Y-109220308D01*
X105019938Y-109220316D01*
X104920775Y-109419461D01*
X104920769Y-109419476D01*
X104859885Y-109633462D01*
X104859884Y-109633464D01*
X104839357Y-109854999D01*
X104839357Y-109855000D01*
X104859884Y-110076535D01*
X104859885Y-110076537D01*
X104920769Y-110290523D01*
X104920775Y-110290538D01*
X105019938Y-110489683D01*
X105019943Y-110489691D01*
X105154020Y-110667238D01*
X105318434Y-110817121D01*
X105318436Y-110817122D01*
X105318438Y-110817124D01*
X105410780Y-110874299D01*
X105457413Y-110926324D01*
X105469500Y-110979724D01*
X105469500Y-114349046D01*
X105449815Y-114416085D01*
X105399301Y-114460766D01*
X105251033Y-114532167D01*
X105251025Y-114532171D01*
X105068927Y-114664473D01*
X105068925Y-114664474D01*
X104913366Y-114827176D01*
X104789363Y-115015033D01*
X104700899Y-115222004D01*
X104700895Y-115222017D01*
X104650810Y-115441457D01*
X104650808Y-115441468D01*
X104641957Y-115638565D01*
X104640710Y-115666330D01*
X103855500Y-115666330D01*
X103855500Y-100286028D01*
X103875185Y-100218989D01*
X103927989Y-100173234D01*
X103997147Y-100163290D01*
X104060703Y-100192315D01*
X104067181Y-100198347D01*
X104300991Y-100432157D01*
X104300995Y-100432160D01*
X104590205Y-100666358D01*
X104842192Y-100830000D01*
X104902313Y-100869043D01*
X105233900Y-101037995D01*
X105581329Y-101171361D01*
X105940796Y-101267680D01*
X106308362Y-101325896D01*
X106659444Y-101344295D01*
X106679999Y-101345373D01*
X106680000Y-101345373D01*
X106680001Y-101345373D01*
X106699478Y-101344352D01*
X107051638Y-101325896D01*
X107419204Y-101267680D01*
X107778671Y-101171361D01*
X108126100Y-101037995D01*
X108457687Y-100869043D01*
X108769796Y-100666357D01*
X109059009Y-100432157D01*
X109322157Y-100169009D01*
X109459016Y-100000002D01*
X121154652Y-100000002D01*
X121174028Y-100357368D01*
X121174029Y-100357385D01*
X121231926Y-100710539D01*
X121231932Y-100710565D01*
X121327672Y-101055392D01*
X121327674Y-101055399D01*
X121460142Y-101387870D01*
X121460151Y-101387888D01*
X121627784Y-101704077D01*
X121627787Y-101704082D01*
X121627789Y-101704085D01*
X121713161Y-101830000D01*
X121828634Y-102000309D01*
X121828641Y-102000319D01*
X122060331Y-102273085D01*
X122060332Y-102273086D01*
X122320163Y-102519211D01*
X122605081Y-102735800D01*
X122911747Y-102920315D01*
X122911749Y-102920316D01*
X122911751Y-102920317D01*
X122911755Y-102920319D01*
X123192056Y-103049999D01*
X123236565Y-103070591D01*
X123575726Y-103184868D01*
X123925254Y-103261805D01*
X124281052Y-103300500D01*
X124281058Y-103300500D01*
X124638942Y-103300500D01*
X124638948Y-103300500D01*
X124994746Y-103261805D01*
X125344274Y-103184868D01*
X125683435Y-103070591D01*
X126008253Y-102920315D01*
X126314919Y-102735800D01*
X126599837Y-102519211D01*
X126859668Y-102273086D01*
X127091365Y-102000311D01*
X127292211Y-101704085D01*
X127459853Y-101387880D01*
X127470357Y-101361517D01*
X138299500Y-101361517D01*
X138303677Y-101387888D01*
X138314354Y-101455304D01*
X138371950Y-101568342D01*
X138371952Y-101568344D01*
X138371954Y-101568347D01*
X138461652Y-101658045D01*
X138461654Y-101658046D01*
X138461658Y-101658050D01*
X138574694Y-101715645D01*
X138574698Y-101715647D01*
X138668475Y-101730499D01*
X138668481Y-101730500D01*
X140731518Y-101730499D01*
X140825304Y-101715646D01*
X140938342Y-101658050D01*
X141028050Y-101568342D01*
X141085646Y-101455304D01*
X141085646Y-101455302D01*
X141085647Y-101455301D01*
X141100499Y-101361524D01*
X141100500Y-101361519D01*
X141100500Y-100330005D01*
X143194859Y-100330005D01*
X143215385Y-100577729D01*
X143215387Y-100577738D01*
X143276412Y-100818717D01*
X143376266Y-101046364D01*
X143476564Y-101199882D01*
X144216923Y-100459523D01*
X144240507Y-100539844D01*
X144318239Y-100660798D01*
X144426900Y-100754952D01*
X144557685Y-100814680D01*
X144567466Y-100816086D01*
X143829942Y-101553609D01*
X143876768Y-101590055D01*
X143876770Y-101590056D01*
X144095385Y-101708364D01*
X144095396Y-101708369D01*
X144330506Y-101789083D01*
X144575707Y-101830000D01*
X144824293Y-101830000D01*
X145069493Y-101789083D01*
X145304603Y-101708369D01*
X145304614Y-101708364D01*
X145523228Y-101590057D01*
X145523231Y-101590055D01*
X145570056Y-101553609D01*
X144832533Y-100816086D01*
X144842315Y-100814680D01*
X144973100Y-100754952D01*
X145081761Y-100660798D01*
X145159493Y-100539844D01*
X145183076Y-100459524D01*
X145923434Y-101199882D01*
X146023731Y-101046369D01*
X146123587Y-100818717D01*
X146184612Y-100577738D01*
X146184614Y-100577729D01*
X146205141Y-100330005D01*
X146205141Y-100329994D01*
X146184614Y-100082270D01*
X146184612Y-100082261D01*
X146123587Y-99841282D01*
X146023731Y-99613630D01*
X145923434Y-99460116D01*
X145183076Y-100200475D01*
X145159493Y-100120156D01*
X145081761Y-99999202D01*
X144973100Y-99905048D01*
X144842315Y-99845320D01*
X144832534Y-99843913D01*
X145570057Y-99106390D01*
X145570056Y-99106389D01*
X145523229Y-99069943D01*
X145304614Y-98951635D01*
X145304603Y-98951630D01*
X145069493Y-98870916D01*
X144824293Y-98830000D01*
X144575707Y-98830000D01*
X144330506Y-98870916D01*
X144095396Y-98951630D01*
X144095390Y-98951632D01*
X143876761Y-99069949D01*
X143829942Y-99106388D01*
X143829942Y-99106390D01*
X144567466Y-99843913D01*
X144557685Y-99845320D01*
X144426900Y-99905048D01*
X144318239Y-99999202D01*
X144240507Y-100120156D01*
X144216923Y-100200475D01*
X143476564Y-99460116D01*
X143376267Y-99613632D01*
X143276412Y-99841282D01*
X143215387Y-100082261D01*
X143215385Y-100082270D01*
X143194859Y-100329994D01*
X143194859Y-100330005D01*
X141100500Y-100330005D01*
X141100499Y-99298482D01*
X141085646Y-99204696D01*
X141028050Y-99091658D01*
X141028046Y-99091654D01*
X141028045Y-99091652D01*
X140938347Y-99001954D01*
X140938344Y-99001952D01*
X140938342Y-99001950D01*
X140825801Y-98944607D01*
X140825301Y-98944352D01*
X140731524Y-98929500D01*
X138668482Y-98929500D01*
X138587519Y-98942323D01*
X138574696Y-98944354D01*
X138461658Y-99001950D01*
X138461657Y-99001951D01*
X138461652Y-99001954D01*
X138371954Y-99091652D01*
X138371951Y-99091657D01*
X138314352Y-99204698D01*
X138299500Y-99298475D01*
X138299500Y-101361517D01*
X127470357Y-101361517D01*
X127592324Y-101055403D01*
X127688071Y-100710552D01*
X127733711Y-100432160D01*
X127745970Y-100357385D01*
X127745970Y-100357382D01*
X127745972Y-100357371D01*
X127765348Y-100000000D01*
X127745972Y-99642629D01*
X127741218Y-99613632D01*
X127688073Y-99289460D01*
X127688072Y-99289459D01*
X127688071Y-99289448D01*
X127633155Y-99091657D01*
X127592327Y-98944607D01*
X127592325Y-98944600D01*
X127459857Y-98612129D01*
X127459848Y-98612111D01*
X127415893Y-98529204D01*
X127292211Y-98295915D01*
X127091365Y-97999689D01*
X127091361Y-97999684D01*
X127091358Y-97999680D01*
X126859668Y-97726914D01*
X126599837Y-97480789D01*
X126599830Y-97480783D01*
X126599827Y-97480781D01*
X126517713Y-97418360D01*
X126314919Y-97264200D01*
X126008253Y-97079685D01*
X126008252Y-97079684D01*
X126008248Y-97079682D01*
X126008244Y-97079680D01*
X125683447Y-96929414D01*
X125683441Y-96929411D01*
X125683435Y-96929409D01*
X125513854Y-96872270D01*
X125344273Y-96815131D01*
X124994744Y-96738194D01*
X124638949Y-96699500D01*
X124638948Y-96699500D01*
X124281052Y-96699500D01*
X124281050Y-96699500D01*
X123925255Y-96738194D01*
X123575726Y-96815131D01*
X123319970Y-96901306D01*
X123236565Y-96929409D01*
X123236563Y-96929410D01*
X123236552Y-96929414D01*
X122911755Y-97079680D01*
X122911751Y-97079682D01*
X122683367Y-97217096D01*
X122605081Y-97264200D01*
X122516768Y-97331333D01*
X122320172Y-97480781D01*
X122320163Y-97480789D01*
X122060331Y-97726914D01*
X121828641Y-97999680D01*
X121828634Y-97999690D01*
X121627790Y-98295913D01*
X121627784Y-98295922D01*
X121460151Y-98612111D01*
X121460142Y-98612129D01*
X121327674Y-98944600D01*
X121327672Y-98944607D01*
X121231932Y-99289434D01*
X121231926Y-99289460D01*
X121174029Y-99642614D01*
X121174028Y-99642631D01*
X121154652Y-99999997D01*
X121154652Y-100000002D01*
X109459016Y-100000002D01*
X109556357Y-99879796D01*
X109759043Y-99567687D01*
X109927995Y-99236100D01*
X110061361Y-98888671D01*
X110157680Y-98529204D01*
X110215896Y-98161638D01*
X110235373Y-97790000D01*
X110215896Y-97418362D01*
X110157680Y-97050796D01*
X110061361Y-96691329D01*
X109927995Y-96343900D01*
X109759043Y-96012314D01*
X109556357Y-95700204D01*
X109322157Y-95410991D01*
X109088347Y-95177181D01*
X109054862Y-95115858D01*
X109059846Y-95046166D01*
X109101718Y-94990233D01*
X109167182Y-94965816D01*
X109176028Y-94965500D01*
X159428972Y-94965500D01*
X159496011Y-94985185D01*
G37*
%TD.AperFunction*%
%TD*%
M02*
