M48
; DRILL file {KiCad 7.0.11+dfsg-1build4} date Пт 18 июл 2025 03:09:07
; FORMAT={-:-/ absolute / inch / decimal}
; #@! TF.CreationDate,2025-07-18T03:09:07+04:00
; #@! TF.GenerationSoftware,Kicad,Pcbnew,7.0.11+dfsg-1build4
; #@! TF.FileFunction,Plated,1,2,PTH
FMAT,2
INCH
; #@! TA.AperFunction,Plated,PTH,ViaDrill
T1C0.0157
; #@! TA.AperFunction,Plated,PTH,ComponentDrill
T2C0.0315
; #@! TA.AperFunction,Plated,PTH,ComponentDrill
T3C0.0335
; #@! TA.AperFunction,Plated,PTH,ComponentDrill
T4C0.0394
; #@! TA.AperFunction,Plated,PTH,ComponentDrill
T5C0.0689
; #@! TA.AperFunction,Plated,PTH,ComponentDrill
T6C0.1260
%
G90
G05
T1
X3.9Y-4.55
X3.95Y-4.55
X3.95Y-4.6
X3.975Y-4.85
X4.0Y-4.55
X4.0Y-4.6
X4.025Y-4.85
X4.025Y-4.9
X4.05Y-4.6
X4.075Y-4.85
X4.075Y-4.9
X4.125Y-4.9
X4.175Y-3.75
X4.175Y-5.7
X4.25Y-4.3915
X4.25Y-4.425
X4.25Y-5.35
X4.325Y-3.75
X4.325Y-3.9
X4.325Y-4.05
X4.325Y-5.05
X4.325Y-5.2
X4.325Y-5.7
X4.35Y-5.075
X4.35Y-5.225
X4.4Y-5.35
X4.45Y-4.325
X4.45Y-4.375
X4.45Y-4.425
X4.45Y-4.475
X4.45Y-4.975
X4.45Y-5.025
X4.45Y-5.075
X4.45Y-5.125
X4.475Y-3.75
X4.475Y-3.9
X4.475Y-5.55
X4.475Y-5.7
X4.5Y-4.325
X4.5Y-4.375
X4.5Y-4.425
X4.5Y-4.475
X4.5Y-4.525
X4.5Y-4.575
X4.5Y-4.625
X4.5Y-4.825
X4.5Y-4.875
X4.5Y-4.925
X4.5Y-4.975
X4.5Y-5.025
X4.5Y-5.075
X4.55Y-4.525
X4.55Y-4.575
X4.55Y-4.625
X4.55Y-4.825
X4.55Y-4.875
X4.55Y-4.925
X4.6Y-4.525
X4.6Y-4.575
X4.6Y-4.625
X4.6Y-4.825
X4.6Y-4.875
X4.6Y-4.925
X4.625Y-3.75
X4.625Y-3.9
X4.625Y-5.55
X4.625Y-5.7
X4.65Y-4.525
X4.65Y-4.575
X4.65Y-4.625
X4.65Y-4.825
X4.65Y-4.875
X4.65Y-4.925
X4.775Y-3.75
X4.775Y-3.9
X4.775Y-4.05
X4.775Y-4.3
X4.775Y-4.35
X4.775Y-4.4
X4.775Y-4.45
X4.775Y-5.0
X4.775Y-5.05
X4.775Y-5.1
X4.775Y-5.15
X4.775Y-5.4
X4.775Y-5.55
X4.775Y-5.7
X4.825Y-4.3
X4.825Y-4.35
X4.825Y-4.4
X4.825Y-4.45
X4.825Y-5.0
X4.825Y-5.05
X4.825Y-5.1
X4.825Y-5.15
X4.925Y-3.9
X4.925Y-5.55
X5.075Y-4.0
X5.075Y-4.05
X5.075Y-5.4
X5.075Y-5.45
X5.125Y-4.0
X5.125Y-4.05
X5.125Y-5.4
X5.125Y-5.45
X5.475Y-4.625
X5.475Y-4.825
X5.725Y-3.75
X5.725Y-3.8
X5.725Y-3.85
X5.725Y-3.9
X5.725Y-3.95
X5.725Y-4.0
X5.725Y-4.05
X5.725Y-4.1
X5.725Y-4.275
X5.725Y-4.325
X5.725Y-4.375
X5.725Y-4.425
X5.725Y-4.475
X5.725Y-4.525
X5.725Y-4.575
X5.725Y-4.625
X5.725Y-4.825
X5.725Y-4.875
X5.725Y-4.925
X5.725Y-4.975
X5.725Y-5.025
X5.725Y-5.075
X5.725Y-5.125
X5.725Y-5.175
X5.725Y-5.3
X5.725Y-5.35
X5.725Y-5.4
X5.725Y-5.45
X5.725Y-5.5
X5.725Y-5.55
X5.725Y-5.6
X5.725Y-5.65
X5.725Y-5.7
X5.775Y-3.75
X5.775Y-4.1
X5.775Y-4.275
X5.775Y-4.625
X5.775Y-4.825
X5.775Y-5.175
X5.775Y-5.3
X5.775Y-5.7
X5.825Y-3.75
X5.825Y-4.1
X5.825Y-4.275
X5.825Y-4.625
X5.825Y-4.825
X5.825Y-5.175
X5.825Y-5.3
X5.825Y-5.7
X5.875Y-3.75
X5.875Y-4.1
X5.875Y-4.275
X5.875Y-4.625
X5.875Y-4.825
X5.875Y-5.175
X5.875Y-5.3
X5.875Y-5.7
T2
X4.0491Y-4.9766
X4.0491Y-5.1734
X4.0491Y-5.2734
X4.0491Y-5.4703
X4.05Y-3.975
X4.05Y-4.1719
X4.05Y-4.275
X4.05Y-4.4719
X6.0Y-3.775
X6.0Y-4.85
X6.0Y-5.375
X6.0016Y-4.3
X6.1969Y-3.775
X6.1969Y-4.85
X6.1969Y-5.375
X6.1984Y-4.3
T3
X3.725Y-4.075
X3.725Y-4.2404
X3.725Y-4.4057
X3.725Y-4.5711
X3.725Y-4.8789
X3.725Y-5.0443
X3.725Y-5.2096
X3.725Y-5.375
T4
X5.0872Y-4.15
X5.0872Y-5.3
X5.2841Y-4.15
X5.2841Y-5.3
T5
X5.0124Y-3.75
X5.0124Y-5.7
X5.225Y-3.75
X5.225Y-5.7
X6.4Y-4.2374
X6.4Y-4.45
X6.4Y-5.0
X6.4Y-5.2126
T6
X3.775Y-3.775
X3.775Y-5.675
X4.575Y-5.315
X4.5759Y-4.135
X6.375Y-3.775
X6.375Y-5.675
M30
