M48
; DRILL file {KiCad 7.0.11+dfsg-1build4} date Вс 03 авг 2025 13:49:15
; FORMAT={-:-/ absolute / inch / decimal}
; #@! TF.CreationDate,2025-08-03T13:49:15+04:00
; #@! TF.GenerationSoftware,Kicad,Pcbnew,7.0.11+dfsg-1build4
; #@! TF.FileFunction,Plated,1,2,PTH
FMAT,2
INCH
; #@! TA.AperFunction,Plated,PTH,ViaDrill
T1C0.0157
; #@! TA.AperFunction,Plated,PTH,ComponentDrill
T2C0.0315
; #@! TA.AperFunction,Plated,PTH,ComponentDrill
T3C0.0374
; #@! TA.AperFunction,Plated,PTH,ComponentDrill
T4C0.0394
; #@! TA.AperFunction,Plated,PTH,ComponentDrill
T5C0.0669
; #@! TA.AperFunction,Plated,PTH,ComponentDrill
T6C0.1260
%
G90
G05
T1
X4.3Y-4.925
X4.35Y-4.7
X4.35Y-4.75
X4.35Y-4.925
X4.4Y-4.7
X4.4Y-4.75
X4.4Y-4.925
X4.5Y-3.825
X4.5Y-4.025
X4.5Y-5.425
X4.5Y-5.625
X4.575Y-4.3425
X4.575Y-4.4
X4.7Y-3.825
X4.7Y-4.025
X4.7Y-5.425
X4.7Y-5.625
X4.7741Y-4.325
X4.7741Y-4.375
X4.7741Y-4.425
X4.7741Y-4.475
X4.7741Y-4.975
X4.7741Y-5.025
X4.7741Y-5.075
X4.7741Y-5.125
X4.8241Y-4.325
X4.8241Y-4.375
X4.8241Y-4.425
X4.8241Y-4.475
X4.8241Y-4.975
X4.8241Y-5.025
X4.8241Y-5.075
X4.825Y-5.125
X4.85Y-4.225
X4.85Y-4.525
X4.85Y-4.575
X4.85Y-4.625
X4.85Y-4.825
X4.85Y-4.875
X4.85Y-4.925
X4.9Y-4.525
X4.9Y-4.575
X4.9Y-4.625
X4.9Y-4.825
X4.9Y-4.875
X4.9Y-4.925
X4.95Y-4.525
X4.95Y-4.575
X4.95Y-4.625
X4.95Y-4.825
X4.95Y-4.875
X4.95Y-4.925
X5.05Y-4.225
X5.1Y-3.825
X5.1Y-4.025
X5.1Y-5.425
X5.1Y-5.625
X5.125Y-4.35
X5.125Y-4.4
X5.125Y-4.45
X5.125Y-5.05
X5.125Y-5.15
X5.1259Y-4.3
X5.1259Y-5.0
X5.1259Y-5.1
X5.175Y-4.3
X5.175Y-4.35
X5.175Y-4.4
X5.175Y-5.05
X5.175Y-5.1
X5.175Y-5.15
X5.1759Y-4.45
X5.1759Y-5.0
X5.3Y-3.825
X5.3Y-5.625
X5.4199Y-4.65
X5.4199Y-4.8
X5.525Y-4.25
X5.525Y-4.65
X5.525Y-4.8
X5.525Y-5.2
X5.625Y-4.25
X5.625Y-4.35
X5.625Y-4.55
X5.625Y-4.65
X5.625Y-4.8
X5.625Y-4.9
X5.625Y-5.1
X5.625Y-5.2
X5.725Y-4.15
X5.725Y-4.25
X5.725Y-4.65
X5.725Y-4.8
X5.725Y-5.2
X5.725Y-5.3
X5.825Y-4.05
X5.825Y-4.15
X5.825Y-4.25
X5.825Y-4.65
X5.825Y-4.8
X5.825Y-5.3
X5.825Y-5.4
X5.85Y-5.525
X5.95Y-3.95
X5.95Y-5.525
X6.05Y-3.95
X6.05Y-4.05
X6.05Y-4.15
X6.05Y-4.775
X6.05Y-4.875
X6.05Y-5.525
X6.15Y-4.675
X6.15Y-4.775
X6.15Y-4.875
X6.425Y-4.05
T2
X4.175Y-4.125
X4.175Y-4.325
X4.3719Y-4.125
X4.3719Y-4.325
T3
X4.175Y-5.0016
X4.175Y-5.1
X4.175Y-5.1984
X4.175Y-5.2969
T4
X4.175Y-4.5516
X4.175Y-4.65
X5.5Y-3.95
X5.5Y-5.5
X5.6969Y-3.95
X5.6969Y-5.5
T5
X6.275Y-4.2133
X6.275Y-4.3692
X6.275Y-5.0633
X6.275Y-5.2192
T6
X4.2Y-3.85
X4.2Y-5.6
X4.9Y-3.937
X4.9Y-5.5118
X6.375Y-3.85
X6.375Y-5.6
M30
