M48
; DRILL file {KiCad 7.0.11+dfsg-1build4} date Пт 18 июл 2025 01:50:00
; FORMAT={-:-/ absolute / inch / decimal}
; #@! TF.CreationDate,2025-07-18T01:50:00+04:00
; #@! TF.GenerationSoftware,Kicad,Pcbnew,7.0.11+dfsg-1build4
; #@! TF.FileFunction,Plated,1,2,PTH
FMAT,2
INCH
; #@! TA.AperFunction,Plated,PTH,ViaDrill
T1C0.0157
; #@! TA.AperFunction,Plated,PTH,ComponentDrill
T2C0.0315
; #@! TA.AperFunction,Plated,PTH,ComponentDrill
T3C0.0335
; #@! TA.AperFunction,Plated,PTH,ComponentDrill
T4C0.0394
; #@! TA.AperFunction,Plated,PTH,ComponentDrill
T5C0.0689
; #@! TA.AperFunction,Plated,PTH,ComponentDrill
T6C0.1260
%
G90
G05
T1
X4.125Y-4.575
X4.125Y-4.65
X4.125Y-4.725
X4.125Y-4.5
X4.2Y-4.5
X4.2Y-4.575
X4.3Y-4.875
X4.3Y-4.95
X4.3Y-5.025
X4.35Y-5.35
X4.35Y-5.475
X4.375Y-4.875
X4.375Y-4.95
X4.375Y-5.025
X4.4991Y-3.825
X4.5Y-5.35
X4.5Y-5.475
X4.5Y-5.625
X4.5741Y-4.3915
X4.5741Y-4.425
X4.6491Y-3.825
X4.6491Y-3.975
X4.6491Y-4.125
X4.65Y-5.35
X4.65Y-5.475
X4.65Y-5.625
X4.7741Y-4.325
X4.7741Y-4.375
X4.7741Y-4.425
X4.7741Y-4.475
X4.7741Y-4.975
X4.7741Y-5.025
X4.7741Y-5.075
X4.7741Y-5.125
X4.7991Y-3.825
X4.8Y-5.625
X4.8241Y-4.325
X4.8241Y-4.375
X4.8241Y-4.425
X4.8241Y-4.475
X4.8241Y-4.525
X4.8241Y-4.575
X4.8241Y-4.625
X4.8241Y-4.825
X4.8241Y-4.875
X4.8241Y-4.925
X4.8241Y-4.975
X4.8241Y-5.025
X4.8241Y-5.075
X4.8741Y-4.525
X4.8741Y-4.575
X4.8741Y-4.625
X4.8741Y-4.825
X4.8741Y-4.875
X4.8741Y-4.925
X4.9241Y-4.525
X4.9241Y-4.575
X4.9241Y-4.625
X4.9241Y-4.825
X4.9241Y-4.875
X4.9241Y-4.925
X4.9491Y-3.825
X4.95Y-5.625
X4.9741Y-4.525
X4.9741Y-4.575
X4.9741Y-4.625
X4.9741Y-4.825
X4.9741Y-4.875
X4.9741Y-4.925
X5.0991Y-3.825
X5.0991Y-3.975
X5.0991Y-4.3
X5.0991Y-4.35
X5.0991Y-4.4
X5.0991Y-4.45
X5.0991Y-5.0
X5.0991Y-5.05
X5.0991Y-5.1
X5.0991Y-5.15
X5.1Y-4.125
X5.1Y-5.325
X5.1Y-5.475
X5.1Y-5.625
X5.1491Y-4.3
X5.1491Y-4.35
X5.1491Y-4.4
X5.1491Y-4.45
X5.1491Y-5.0
X5.1491Y-5.05
X5.1491Y-5.1
X5.1491Y-5.15
X5.2491Y-3.975
X5.25Y-3.825
X5.25Y-5.475
X5.25Y-5.625
X5.475Y-4.65
X5.475Y-4.8
X5.5Y-4.075
X5.5Y-5.375
X5.525Y-3.875
X5.525Y-5.575
X5.55Y-4.075
X5.55Y-5.375
X5.575Y-3.875
X5.575Y-5.575
X5.725Y-4.25
X5.725Y-4.65
X5.725Y-4.8
X5.725Y-5.2
X5.775Y-4.25
X5.775Y-4.65
X5.775Y-4.8
X5.775Y-5.2
X5.8Y-4.15
X5.8Y-5.3
X5.825Y-4.25
X5.825Y-4.65
X5.825Y-4.8
X5.825Y-5.2
X5.85Y-4.1
X5.85Y-4.15
X5.85Y-5.3
X5.85Y-5.35
X5.875Y-4.25
X5.875Y-4.65
X5.875Y-4.8
X5.875Y-5.2
X5.9Y-3.95
X5.9Y-4.0
X5.9Y-4.05
X5.9Y-4.1
X5.9Y-4.15
X5.9Y-5.3
X5.9Y-5.35
X5.9Y-5.4
X5.9Y-5.45
X5.9Y-5.5
X5.95Y-3.95
X5.95Y-4.0
X5.95Y-4.05
X5.95Y-4.1
X5.95Y-4.15
X5.95Y-5.3
X5.95Y-5.35
X5.95Y-5.4
X5.95Y-5.45
X5.95Y-5.5
T2
X4.3741Y-3.975
X4.3741Y-4.1719
X4.3741Y-4.275
X4.3741Y-4.4719
X6.05Y-4.45
X6.05Y-4.6469
X6.05Y-4.8031
X6.05Y-5.0
T3
X4.05Y-4.1096
X4.05Y-4.275
X4.05Y-4.8193
X4.05Y-4.9846
X4.05Y-5.15
X4.05Y-5.3154
T4
X5.525Y-3.975
X5.525Y-5.475
X5.7219Y-3.975
X5.7219Y-5.475
T5
X6.325Y-4.1187
X6.325Y-4.3313
X6.325Y-4.6187
X6.325Y-4.8313
X6.325Y-5.1124
X6.325Y-5.325
T6
X4.0991Y-3.85
X4.0991Y-5.6
X4.8991Y-5.315
X4.9Y-4.135
X6.3Y-3.85
X6.3Y-5.6
M30
