%TF.GenerationSoftware,KiCad,Pcbnew,7.0.11+dfsg-1build4*%
%TF.CreationDate,2025-07-19T01:01:55+04:00*%
%TF.ProjectId,tpa3116_amplifier_board,74706133-3131-4365-9f61-6d706c696669,rev?*%
%TF.SameCoordinates,Original*%
%TF.FileFunction,Copper,L2,Bot*%
%TF.FilePolarity,Positive*%
%FSLAX46Y46*%
G04 Gerber Fmt 4.6, Leading zero omitted, Abs format (unit mm)*
G04 Created by KiCad (PCBNEW 7.0.11+dfsg-1build4) date 2025-07-19 01:01:55*
%MOMM*%
%LPD*%
G01*
G04 APERTURE LIST*
G04 Aperture macros list*
%AMRoundRect*
0 Rectangle with rounded corners*
0 $1 Rounding radius*
0 $2 $3 $4 $5 $6 $7 $8 $9 X,Y pos of 4 corners*
0 Add a 4 corners polygon primitive as box body*
4,1,4,$2,$3,$4,$5,$6,$7,$8,$9,$2,$3,0*
0 Add four circle primitives for the rounded corners*
1,1,$1+$1,$2,$3*
1,1,$1+$1,$4,$5*
1,1,$1+$1,$6,$7*
1,1,$1+$1,$8,$9*
0 Add four rect primitives between the rounded corners*
20,1,$1+$1,$2,$3,$4,$5,0*
20,1,$1+$1,$4,$5,$6,$7,0*
20,1,$1+$1,$6,$7,$8,$9,0*
20,1,$1+$1,$8,$9,$2,$3,0*%
G04 Aperture macros list end*
%TA.AperFunction,ComponentPad*%
%ADD10RoundRect,0.250000X0.675000X-0.675000X0.675000X0.675000X-0.675000X0.675000X-0.675000X-0.675000X0*%
%TD*%
%TA.AperFunction,ComponentPad*%
%ADD11C,1.850000*%
%TD*%
%TA.AperFunction,ComponentPad*%
%ADD12C,5.600000*%
%TD*%
%TA.AperFunction,ComponentPad*%
%ADD13C,1.600000*%
%TD*%
%TA.AperFunction,ComponentPad*%
%ADD14RoundRect,0.272727X-1.227273X1.227273X-1.227273X-1.227273X1.227273X-1.227273X1.227273X1.227273X0*%
%TD*%
%TA.AperFunction,ComponentPad*%
%ADD15C,3.000000*%
%TD*%
%TA.AperFunction,ComponentPad*%
%ADD16RoundRect,0.272727X1.227273X-1.227273X1.227273X1.227273X-1.227273X1.227273X-1.227273X-1.227273X0*%
%TD*%
%TA.AperFunction,ComponentPad*%
%ADD17R,2.000000X2.000000*%
%TD*%
%TA.AperFunction,ComponentPad*%
%ADD18C,2.000000*%
%TD*%
%TA.AperFunction,ViaPad*%
%ADD19C,0.800000*%
%TD*%
%TA.AperFunction,Conductor*%
%ADD20C,0.350000*%
%TD*%
G04 APERTURE END LIST*
D10*
%TO.P,J1,1,Pin_1*%
%TO.N,GND*%
X102870000Y-135010000D03*
D11*
%TO.P,J1,2,Pin_2*%
%TO.N,/sync*%
X102870000Y-130810000D03*
%TO.P,J1,3,Pin_3*%
%TO.N,/mute*%
X102870000Y-126610000D03*
%TO.P,J1,4,Pin_4*%
%TO.N,/SD_LR*%
X102870000Y-122410000D03*
%TD*%
D12*
%TO.P,H3,1*%
%TO.N,N/C*%
X160020000Y-142240000D03*
%TD*%
%TO.P,H6,1*%
%TO.N,N/C*%
X124438000Y-135001000D03*
%TD*%
D13*
%TO.P,C1,1*%
%TO.N,/R+*%
X111103000Y-100965000D03*
%TO.P,C1,2*%
%TO.N,Net-(IC1-RINP)*%
X111103000Y-105965000D03*
%TD*%
D14*
%TO.P,J4,1,Pin_1*%
%TO.N,GND*%
X160655000Y-129855000D03*
D15*
%TO.P,J4,2,Pin_2*%
%TO.N,VCC*%
X160655000Y-135255000D03*
%TD*%
D12*
%TO.P,H2,1*%
%TO.N,N/C*%
X104118000Y-142240000D03*
%TD*%
D14*
%TO.P,J3,1,Pin_1*%
%TO.N,Net-(J3-Pin_1)*%
X160655000Y-117315000D03*
D15*
%TO.P,J3,2,Pin_2*%
%TO.N,Net-(J3-Pin_2)*%
X160655000Y-122715000D03*
%TD*%
D10*
%TO.P,J2,1,Pin_1*%
%TO.N,/R-*%
X102870000Y-108585000D03*
D11*
%TO.P,J2,2,Pin_2*%
%TO.N,/R+*%
X102870000Y-104385000D03*
%TD*%
D12*
%TO.P,H1,1*%
%TO.N,N/C*%
X104118000Y-97790000D03*
%TD*%
D16*
%TO.P,J5,1,Pin_1*%
%TO.N,GND*%
X160655000Y-110015000D03*
D15*
%TO.P,J5,2,Pin_2*%
%TO.N,VCC*%
X160655000Y-104615000D03*
%TD*%
D12*
%TO.P,H5,1*%
%TO.N,N/C*%
X124460000Y-105029000D03*
%TD*%
D17*
%TO.P,C15,1*%
%TO.N,VCC*%
X140970000Y-100330000D03*
D18*
%TO.P,C15,2*%
%TO.N,GND*%
X145970000Y-100330000D03*
%TD*%
D12*
%TO.P,H4,1*%
%TO.N,N/C*%
X160020000Y-97790000D03*
%TD*%
D13*
%TO.P,C3,1*%
%TO.N,/R-*%
X111103000Y-108585000D03*
%TO.P,C3,2*%
%TO.N,Net-(IC1-RINN)*%
X111103000Y-113585000D03*
%TD*%
D17*
%TO.P,C16,1*%
%TO.N,VCC*%
X140970000Y-139700000D03*
D18*
%TO.P,C16,2*%
%TO.N,GND*%
X145970000Y-139700000D03*
%TD*%
D19*
%TO.N,GND*%
X122533000Y-113665000D03*
X149225000Y-118110000D03*
X125073000Y-125095000D03*
X146685000Y-121920000D03*
X148590000Y-104140000D03*
X145415000Y-121920000D03*
X106680000Y-116205000D03*
X118088000Y-100965000D03*
X149225000Y-107950000D03*
X145415000Y-111760000D03*
X104775000Y-118110000D03*
X139065000Y-118110000D03*
X104775000Y-116205001D03*
X123803000Y-114935000D03*
X147320000Y-105410000D03*
X104775000Y-120015000D03*
X121263000Y-113665000D03*
X121898000Y-97155000D03*
X145415000Y-130810000D03*
X133350000Y-139065000D03*
X139065000Y-121920000D03*
X122533000Y-109855000D03*
X148590000Y-135890000D03*
X122533000Y-114935000D03*
X111125000Y-125730000D03*
X146685000Y-132080000D03*
X145415000Y-109220000D03*
X149860000Y-102870000D03*
X125073000Y-122555000D03*
X122533000Y-112395000D03*
X145415000Y-125730000D03*
X121263000Y-130175000D03*
X145415000Y-118110000D03*
X145415000Y-128270000D03*
X123803000Y-123825000D03*
X151130000Y-102870000D03*
X122533000Y-117475000D03*
X145415000Y-123190000D03*
X125730000Y-142875000D03*
X125073000Y-116205000D03*
X147955000Y-107950000D03*
X151130000Y-104140000D03*
X145415000Y-107950000D03*
X109220000Y-123825000D03*
X133350000Y-142875000D03*
X129540000Y-142875000D03*
X121263000Y-126365000D03*
X122533000Y-128905000D03*
X145415000Y-116840000D03*
X121263000Y-111125000D03*
X123803000Y-125095000D03*
X118110000Y-135890000D03*
X125708000Y-97155000D03*
X149860000Y-104140000D03*
X111125000Y-127635000D03*
X125073000Y-117475000D03*
X149225000Y-121920000D03*
X122533000Y-116205000D03*
X106680000Y-114300001D03*
X121920000Y-142875000D03*
X121263000Y-127635000D03*
X122533000Y-111125000D03*
X151130000Y-138430000D03*
X114300000Y-142875000D03*
X126343000Y-122555000D03*
X121263000Y-128905000D03*
X147320000Y-134620000D03*
X145415000Y-132080000D03*
X109220000Y-125730000D03*
X145415000Y-124460000D03*
X146685000Y-118110000D03*
X148590000Y-134620000D03*
X149225000Y-132080000D03*
X126343000Y-116205000D03*
X145415000Y-114300000D03*
X114278000Y-97155000D03*
X122533000Y-122555000D03*
X126343000Y-114935000D03*
X145415000Y-129540000D03*
X133350000Y-97155000D03*
X118088000Y-104775000D03*
X118088000Y-97155000D03*
X114300000Y-135890000D03*
X122533000Y-123825000D03*
X148590000Y-105410000D03*
X145415000Y-115570000D03*
X121263000Y-112395000D03*
X118110000Y-139065000D03*
X149860000Y-137160000D03*
X129540000Y-139065000D03*
X104775001Y-114300001D03*
X133328000Y-100965000D03*
X129540000Y-135255000D03*
X123803000Y-117475000D03*
X149860000Y-135890000D03*
X114300000Y-139065000D03*
X126343000Y-123825000D03*
X123803000Y-122555000D03*
X118110000Y-142875000D03*
X129540000Y-104775000D03*
X125073000Y-123825000D03*
X151130000Y-135890000D03*
X145415000Y-110490000D03*
X151130000Y-137160000D03*
X149860000Y-105410000D03*
X129518000Y-97155000D03*
X146685000Y-107950000D03*
X125073000Y-114935000D03*
X147955000Y-132080000D03*
X147955000Y-121920000D03*
X151130000Y-101600000D03*
X123803000Y-116205000D03*
X129518000Y-100965000D03*
X149860000Y-134620000D03*
X122533000Y-125095000D03*
X147955000Y-118110000D03*
X126343000Y-125095000D03*
X111125000Y-123825000D03*
X122533000Y-126365000D03*
X122533000Y-127635000D03*
X121263000Y-109855000D03*
X126343000Y-117475000D03*
X109220000Y-127635000D03*
%TO.N,VCC*%
X131445000Y-130810000D03*
X130175000Y-130810000D03*
X140335000Y-137160000D03*
X130197000Y-127000000D03*
X141605000Y-97790000D03*
X140335000Y-102870000D03*
X130175000Y-113030000D03*
X140335000Y-142240000D03*
X141605000Y-102870000D03*
X130197000Y-109220000D03*
X131467000Y-127000000D03*
X130175000Y-128270000D03*
X141605000Y-137160000D03*
X131445000Y-110490000D03*
X141605000Y-142240000D03*
X131467000Y-111760000D03*
X131467000Y-113030000D03*
X142875000Y-142240000D03*
X140335000Y-97790000D03*
X130175000Y-111760000D03*
X131445000Y-109220000D03*
X131445000Y-128270000D03*
X131445000Y-129540000D03*
X130197000Y-129540000D03*
X130175000Y-110490000D03*
X142875000Y-97790000D03*
%TO.N,/SD_LR*%
X116183000Y-111544997D03*
X116183000Y-112395000D03*
%TD*%
D20*
%TO.N,/SD_LR*%
X116183000Y-112395000D02*
X116183000Y-111544997D01*
X107692000Y-122410000D02*
X102870000Y-122410000D01*
X116183000Y-113919000D02*
X107692000Y-122410000D01*
X116183000Y-112395000D02*
X116183000Y-113919000D01*
%TO.N,/mute*%
X103015000Y-126755000D02*
X102870000Y-126610000D01*
%TD*%
%TA.AperFunction,Conductor*%
%TO.N,VCC*%
G36*
X131839530Y-126366061D02*
G01*
X131897244Y-126373659D01*
X131970579Y-126383314D01*
X132001842Y-126391691D01*
X132116391Y-126439138D01*
X132144422Y-126455322D01*
X132249289Y-126535789D01*
X132261484Y-126546484D01*
X143328515Y-137613515D01*
X143339210Y-137625710D01*
X143419677Y-137730577D01*
X143435862Y-137758610D01*
X143483307Y-137873153D01*
X143491685Y-137904420D01*
X143508939Y-138035469D01*
X143510000Y-138051655D01*
X143510000Y-142266872D01*
X143508939Y-142283058D01*
X143491685Y-142414107D01*
X143483307Y-142445374D01*
X143435862Y-142559917D01*
X143419677Y-142587950D01*
X143344202Y-142686312D01*
X143321312Y-142709202D01*
X143222950Y-142784677D01*
X143194917Y-142800862D01*
X143080374Y-142848307D01*
X143049107Y-142856685D01*
X142918059Y-142873939D01*
X142901873Y-142875000D01*
X140591655Y-142875000D01*
X140575469Y-142873939D01*
X140444420Y-142856685D01*
X140413153Y-142848307D01*
X140298610Y-142800862D01*
X140270577Y-142784677D01*
X140165710Y-142704210D01*
X140153515Y-142693515D01*
X138207844Y-140747844D01*
X139470000Y-140747844D01*
X139476401Y-140807372D01*
X139476403Y-140807379D01*
X139526645Y-140942086D01*
X139526649Y-140942093D01*
X139612809Y-141057187D01*
X139612812Y-141057190D01*
X139727906Y-141143350D01*
X139727913Y-141143354D01*
X139862620Y-141193596D01*
X139862627Y-141193598D01*
X139922155Y-141199999D01*
X139922172Y-141200000D01*
X140620000Y-141200000D01*
X140620000Y-140058318D01*
X140696900Y-140124952D01*
X140827685Y-140184680D01*
X140934237Y-140200000D01*
X141005763Y-140200000D01*
X141112315Y-140184680D01*
X141243100Y-140124952D01*
X141320000Y-140058318D01*
X141320000Y-141200000D01*
X142017828Y-141200000D01*
X142017844Y-141199999D01*
X142077372Y-141193598D01*
X142077379Y-141193596D01*
X142212086Y-141143354D01*
X142212093Y-141143350D01*
X142327187Y-141057190D01*
X142327190Y-141057187D01*
X142413350Y-140942093D01*
X142413354Y-140942086D01*
X142463596Y-140807379D01*
X142463598Y-140807372D01*
X142469999Y-140747844D01*
X142470000Y-140747827D01*
X142470000Y-140050000D01*
X141329600Y-140050000D01*
X141351761Y-140030798D01*
X141429493Y-139909844D01*
X141470000Y-139771889D01*
X141470000Y-139628111D01*
X141429493Y-139490156D01*
X141351761Y-139369202D01*
X141329600Y-139350000D01*
X142470000Y-139350000D01*
X142470000Y-138652172D01*
X142469999Y-138652155D01*
X142463598Y-138592627D01*
X142463596Y-138592620D01*
X142413354Y-138457913D01*
X142413350Y-138457906D01*
X142327190Y-138342812D01*
X142327187Y-138342809D01*
X142212093Y-138256649D01*
X142212086Y-138256645D01*
X142077379Y-138206403D01*
X142077372Y-138206401D01*
X142017844Y-138200000D01*
X141320000Y-138200000D01*
X141320000Y-139341681D01*
X141243100Y-139275048D01*
X141112315Y-139215320D01*
X141005763Y-139200000D01*
X140934237Y-139200000D01*
X140827685Y-139215320D01*
X140696900Y-139275048D01*
X140620000Y-139341681D01*
X140620000Y-138200000D01*
X139922155Y-138200000D01*
X139862627Y-138206401D01*
X139862620Y-138206403D01*
X139727913Y-138256645D01*
X139727906Y-138256649D01*
X139612812Y-138342809D01*
X139612809Y-138342812D01*
X139526649Y-138457906D01*
X139526645Y-138457913D01*
X139476403Y-138592620D01*
X139476401Y-138592627D01*
X139470000Y-138652155D01*
X139470000Y-139350000D01*
X140610400Y-139350000D01*
X140588239Y-139369202D01*
X140510507Y-139490156D01*
X140470000Y-139628111D01*
X140470000Y-139771889D01*
X140510507Y-139909844D01*
X140588239Y-140030798D01*
X140610400Y-140050000D01*
X139470000Y-140050000D01*
X139470000Y-140747844D01*
X138207844Y-140747844D01*
X129721484Y-132261484D01*
X129710789Y-132249289D01*
X129630322Y-132144422D01*
X129614137Y-132116389D01*
X129566691Y-132001842D01*
X129558314Y-131970578D01*
X129541061Y-131839529D01*
X129540000Y-131823344D01*
X129540000Y-126973127D01*
X129541061Y-126956942D01*
X129558314Y-126825893D01*
X129566690Y-126794631D01*
X129614140Y-126680076D01*
X129630320Y-126652052D01*
X129705802Y-126553681D01*
X129728681Y-126530802D01*
X129827052Y-126455320D01*
X129855076Y-126439140D01*
X129969631Y-126391690D01*
X130000890Y-126383314D01*
X130093513Y-126371120D01*
X130131942Y-126366061D01*
X130148127Y-126365000D01*
X131823345Y-126365000D01*
X131839530Y-126366061D01*
G37*
%TD.AperFunction*%
%TD*%
%TA.AperFunction,Conductor*%
%TO.N,VCC*%
G36*
X142756892Y-97156037D02*
G01*
X142888302Y-97173384D01*
X142919642Y-97181806D01*
X143013748Y-97220904D01*
X143034451Y-97229506D01*
X143062538Y-97245776D01*
X143161031Y-97321634D01*
X143183934Y-97344636D01*
X143259369Y-97443459D01*
X143275517Y-97471616D01*
X143322719Y-97586626D01*
X143331006Y-97618006D01*
X143347785Y-97749481D01*
X143348781Y-97765714D01*
X143330531Y-101979877D01*
X143329412Y-101995968D01*
X143311784Y-102126236D01*
X143303362Y-102157310D01*
X143255927Y-102271128D01*
X143239791Y-102298983D01*
X143159692Y-102403215D01*
X143149051Y-102415339D01*
X139522101Y-106042288D01*
X139522102Y-106042289D01*
X139519427Y-106044964D01*
X132262326Y-113478245D01*
X132250074Y-113489232D01*
X132144439Y-113571978D01*
X132116113Y-113588635D01*
X132000133Y-113637493D01*
X131968425Y-113646126D01*
X131835422Y-113663907D01*
X131818991Y-113665000D01*
X129967554Y-113665000D01*
X129951368Y-113663939D01*
X129820319Y-113646685D01*
X129789052Y-113638307D01*
X129674509Y-113590862D01*
X129646476Y-113574677D01*
X129548114Y-113499202D01*
X129525226Y-113476314D01*
X129449749Y-113377950D01*
X129433564Y-113349917D01*
X129386118Y-113235370D01*
X129377741Y-113204106D01*
X129360488Y-113073057D01*
X129359427Y-113056872D01*
X129359427Y-108209663D01*
X129360510Y-108193309D01*
X129361211Y-108188035D01*
X129378127Y-108060904D01*
X129386677Y-108029344D01*
X129435104Y-107913791D01*
X129451612Y-107885561D01*
X129533661Y-107780148D01*
X129544542Y-107767929D01*
X135118060Y-102286110D01*
X136041519Y-101377844D01*
X139470000Y-101377844D01*
X139476401Y-101437372D01*
X139476403Y-101437379D01*
X139526645Y-101572086D01*
X139526649Y-101572093D01*
X139612809Y-101687187D01*
X139612812Y-101687190D01*
X139727906Y-101773350D01*
X139727913Y-101773354D01*
X139862620Y-101823596D01*
X139862627Y-101823598D01*
X139922155Y-101829999D01*
X139922172Y-101830000D01*
X140620000Y-101830000D01*
X140620000Y-100688318D01*
X140696900Y-100754952D01*
X140827685Y-100814680D01*
X140934237Y-100830000D01*
X141005763Y-100830000D01*
X141112315Y-100814680D01*
X141243100Y-100754952D01*
X141320000Y-100688318D01*
X141320000Y-101830000D01*
X142017828Y-101830000D01*
X142017844Y-101829999D01*
X142077372Y-101823598D01*
X142077379Y-101823596D01*
X142212086Y-101773354D01*
X142212093Y-101773350D01*
X142327187Y-101687190D01*
X142327190Y-101687187D01*
X142413350Y-101572093D01*
X142413354Y-101572086D01*
X142463596Y-101437379D01*
X142463598Y-101437372D01*
X142469999Y-101377844D01*
X142470000Y-101377827D01*
X142470000Y-100680000D01*
X141329600Y-100680000D01*
X141351761Y-100660798D01*
X141429493Y-100539844D01*
X141470000Y-100401889D01*
X141470000Y-100258111D01*
X141429493Y-100120156D01*
X141351761Y-99999202D01*
X141329600Y-99980000D01*
X142470000Y-99980000D01*
X142470000Y-99282172D01*
X142469999Y-99282155D01*
X142463598Y-99222627D01*
X142463596Y-99222620D01*
X142413354Y-99087913D01*
X142413350Y-99087906D01*
X142327190Y-98972812D01*
X142327187Y-98972809D01*
X142212093Y-98886649D01*
X142212086Y-98886645D01*
X142077379Y-98836403D01*
X142077372Y-98836401D01*
X142017844Y-98830000D01*
X141320000Y-98830000D01*
X141320000Y-99971681D01*
X141243100Y-99905048D01*
X141112315Y-99845320D01*
X141005763Y-99830000D01*
X140934237Y-99830000D01*
X140827685Y-99845320D01*
X140696900Y-99905048D01*
X140620000Y-99971681D01*
X140620000Y-98830000D01*
X139922155Y-98830000D01*
X139862627Y-98836401D01*
X139862620Y-98836403D01*
X139727913Y-98886645D01*
X139727906Y-98886649D01*
X139612812Y-98972809D01*
X139612809Y-98972812D01*
X139526649Y-99087906D01*
X139526645Y-99087913D01*
X139476403Y-99222620D01*
X139476401Y-99222627D01*
X139470000Y-99282155D01*
X139470000Y-99980000D01*
X140610400Y-99980000D01*
X140588239Y-99999202D01*
X140510507Y-100120156D01*
X140470000Y-100258111D01*
X140470000Y-100401889D01*
X140510507Y-100539844D01*
X140588239Y-100660798D01*
X140610400Y-100680000D01*
X139470000Y-100680000D01*
X139470000Y-101377844D01*
X136041519Y-101377844D01*
X140154159Y-97332864D01*
X140166295Y-97322382D01*
X140270619Y-97243472D01*
X140298435Y-97227616D01*
X140411989Y-97181131D01*
X140442938Y-97172930D01*
X140572650Y-97156034D01*
X140588640Y-97154996D01*
X142740664Y-97154971D01*
X142756892Y-97156037D01*
G37*
%TD.AperFunction*%
%TD*%
%TA.AperFunction,Conductor*%
%TO.N,GND*%
G36*
X157980784Y-94985185D02*
G01*
X158026539Y-95037989D01*
X158036483Y-95107147D01*
X158007458Y-95170703D01*
X157988786Y-95188216D01*
X157880172Y-95270781D01*
X157880163Y-95270789D01*
X157620331Y-95516914D01*
X157388641Y-95789680D01*
X157388634Y-95789690D01*
X157187790Y-96085913D01*
X157187784Y-96085922D01*
X157020151Y-96402111D01*
X157020142Y-96402129D01*
X156887674Y-96734600D01*
X156887672Y-96734607D01*
X156791932Y-97079434D01*
X156791926Y-97079460D01*
X156734029Y-97432614D01*
X156734028Y-97432631D01*
X156714652Y-97789997D01*
X156714652Y-97790002D01*
X156734028Y-98147368D01*
X156734029Y-98147385D01*
X156791926Y-98500539D01*
X156791932Y-98500565D01*
X156887672Y-98845392D01*
X156887674Y-98845399D01*
X157020142Y-99177870D01*
X157020151Y-99177888D01*
X157187784Y-99494077D01*
X157187787Y-99494082D01*
X157187789Y-99494085D01*
X157382885Y-99781831D01*
X157388634Y-99790309D01*
X157388641Y-99790319D01*
X157569189Y-100002876D01*
X157620332Y-100063086D01*
X157880163Y-100309211D01*
X158165081Y-100525800D01*
X158471747Y-100710315D01*
X158471749Y-100710316D01*
X158471751Y-100710317D01*
X158471755Y-100710319D01*
X158697329Y-100814680D01*
X158796565Y-100860591D01*
X159135726Y-100974868D01*
X159485254Y-101051805D01*
X159841052Y-101090500D01*
X159841058Y-101090500D01*
X160198942Y-101090500D01*
X160198948Y-101090500D01*
X160554746Y-101051805D01*
X160904274Y-100974868D01*
X161243435Y-100860591D01*
X161568253Y-100710315D01*
X161874919Y-100525800D01*
X162159837Y-100309211D01*
X162419668Y-100063086D01*
X162625992Y-99820181D01*
X162684395Y-99781831D01*
X162754261Y-99781143D01*
X162813409Y-99818336D01*
X162843058Y-99881603D01*
X162844500Y-99900458D01*
X162844500Y-108468182D01*
X162824815Y-108535221D01*
X162772011Y-108580976D01*
X162702853Y-108590920D01*
X162639297Y-108561895D01*
X162603459Y-108509137D01*
X162582882Y-108450334D01*
X162490237Y-108302890D01*
X162367109Y-108179762D01*
X162219667Y-108087118D01*
X162055306Y-108029606D01*
X162055301Y-108029605D01*
X161925671Y-108015000D01*
X161005000Y-108015000D01*
X161005000Y-109212820D01*
X160936036Y-109180914D01*
X160750162Y-109140000D01*
X160607555Y-109140000D01*
X160465792Y-109155418D01*
X160305000Y-109209594D01*
X160305000Y-108015000D01*
X159384335Y-108015000D01*
X159384327Y-108015001D01*
X159254696Y-108029605D01*
X159254683Y-108029608D01*
X159090334Y-108087117D01*
X158942890Y-108179762D01*
X158819762Y-108302890D01*
X158727118Y-108450332D01*
X158669606Y-108614693D01*
X158669605Y-108614698D01*
X158655000Y-108744328D01*
X158655000Y-109665000D01*
X159852556Y-109665000D01*
X159806922Y-109779532D01*
X159776131Y-109967349D01*
X159786435Y-110157394D01*
X159837352Y-110340781D01*
X159850192Y-110365000D01*
X158655001Y-110365000D01*
X158655001Y-111285672D01*
X158669605Y-111415303D01*
X158669608Y-111415316D01*
X158727117Y-111579665D01*
X158819762Y-111727109D01*
X158942890Y-111850237D01*
X159090332Y-111942881D01*
X159254693Y-112000393D01*
X159254698Y-112000394D01*
X159384330Y-112014999D01*
X160304999Y-112014999D01*
X160305000Y-112014998D01*
X160305000Y-110817179D01*
X160373964Y-110849086D01*
X160559838Y-110890000D01*
X160702445Y-110890000D01*
X160844208Y-110874582D01*
X161005000Y-110820405D01*
X161005000Y-112014999D01*
X161925665Y-112014999D01*
X161925672Y-112014998D01*
X162055303Y-112000394D01*
X162055316Y-112000391D01*
X162219665Y-111942882D01*
X162367109Y-111850237D01*
X162490237Y-111727109D01*
X162582881Y-111579667D01*
X162603458Y-111520862D01*
X162644180Y-111464086D01*
X162709132Y-111438338D01*
X162777694Y-111451794D01*
X162828097Y-111500181D01*
X162844500Y-111561816D01*
X162844500Y-128308182D01*
X162824815Y-128375221D01*
X162772011Y-128420976D01*
X162702853Y-128430920D01*
X162639297Y-128401895D01*
X162603459Y-128349137D01*
X162582882Y-128290334D01*
X162490237Y-128142890D01*
X162367109Y-128019762D01*
X162219667Y-127927118D01*
X162055306Y-127869606D01*
X162055301Y-127869605D01*
X161925671Y-127855000D01*
X161005000Y-127855000D01*
X161005000Y-129052820D01*
X160936036Y-129020914D01*
X160750162Y-128980000D01*
X160607555Y-128980000D01*
X160465792Y-128995418D01*
X160305000Y-129049594D01*
X160305000Y-127855000D01*
X159384335Y-127855000D01*
X159384327Y-127855001D01*
X159254696Y-127869605D01*
X159254683Y-127869608D01*
X159090334Y-127927117D01*
X158942890Y-128019762D01*
X158819762Y-128142890D01*
X158727118Y-128290332D01*
X158669606Y-128454693D01*
X158669605Y-128454698D01*
X158655000Y-128584328D01*
X158655000Y-129505000D01*
X159852556Y-129505000D01*
X159806922Y-129619532D01*
X159776131Y-129807349D01*
X159786435Y-129997394D01*
X159837352Y-130180781D01*
X159850192Y-130205000D01*
X158655001Y-130205000D01*
X158655001Y-131125672D01*
X158669605Y-131255303D01*
X158669608Y-131255316D01*
X158727117Y-131419665D01*
X158819762Y-131567109D01*
X158942890Y-131690237D01*
X159090332Y-131782881D01*
X159254693Y-131840393D01*
X159254698Y-131840394D01*
X159384330Y-131854999D01*
X160304999Y-131854999D01*
X160305000Y-131854998D01*
X160305000Y-130657179D01*
X160373964Y-130689086D01*
X160559838Y-130730000D01*
X160702445Y-130730000D01*
X160844208Y-130714582D01*
X161005000Y-130660405D01*
X161005000Y-131854999D01*
X161925665Y-131854999D01*
X161925672Y-131854998D01*
X162055303Y-131840394D01*
X162055316Y-131840391D01*
X162219665Y-131782882D01*
X162367109Y-131690237D01*
X162490237Y-131567109D01*
X162582881Y-131419667D01*
X162603458Y-131360862D01*
X162644180Y-131304086D01*
X162709132Y-131278338D01*
X162777694Y-131291794D01*
X162828097Y-131340181D01*
X162844500Y-131401816D01*
X162844500Y-140129541D01*
X162824815Y-140196580D01*
X162772011Y-140242335D01*
X162702853Y-140252279D01*
X162639297Y-140223254D01*
X162625992Y-140209817D01*
X162419668Y-139966914D01*
X162359420Y-139909844D01*
X162159837Y-139720789D01*
X162159830Y-139720783D01*
X162159827Y-139720781D01*
X162037921Y-139628111D01*
X161874919Y-139504200D01*
X161568253Y-139319685D01*
X161568252Y-139319684D01*
X161568248Y-139319682D01*
X161568244Y-139319680D01*
X161243447Y-139169414D01*
X161243441Y-139169411D01*
X161243435Y-139169409D01*
X161073854Y-139112270D01*
X160904273Y-139055131D01*
X160554744Y-138978194D01*
X160198949Y-138939500D01*
X160198948Y-138939500D01*
X159841052Y-138939500D01*
X159841050Y-138939500D01*
X159485255Y-138978194D01*
X159135726Y-139055131D01*
X158879970Y-139141306D01*
X158796565Y-139169409D01*
X158796563Y-139169410D01*
X158796552Y-139169414D01*
X158471755Y-139319680D01*
X158471751Y-139319682D01*
X158389449Y-139369202D01*
X158165081Y-139504200D01*
X158076768Y-139571333D01*
X157880172Y-139720781D01*
X157880163Y-139720789D01*
X157620331Y-139966914D01*
X157388641Y-140239680D01*
X157388634Y-140239690D01*
X157187790Y-140535913D01*
X157187784Y-140535922D01*
X157020151Y-140852111D01*
X157020142Y-140852129D01*
X156887674Y-141184600D01*
X156887672Y-141184607D01*
X156791932Y-141529434D01*
X156791926Y-141529460D01*
X156734029Y-141882614D01*
X156734028Y-141882631D01*
X156714652Y-142239997D01*
X156714652Y-142240002D01*
X156719856Y-142335990D01*
X156726961Y-142467036D01*
X156734028Y-142597368D01*
X156734029Y-142597385D01*
X156791926Y-142950539D01*
X156791932Y-142950565D01*
X156887672Y-143295392D01*
X156887674Y-143295399D01*
X157020142Y-143627870D01*
X157020151Y-143627888D01*
X157187784Y-143944077D01*
X157187787Y-143944082D01*
X157187789Y-143944085D01*
X157382885Y-144231831D01*
X157388634Y-144240309D01*
X157388641Y-144240319D01*
X157504195Y-144376359D01*
X157620332Y-144513086D01*
X157880163Y-144759211D01*
X157880170Y-144759216D01*
X157880172Y-144759218D01*
X157988786Y-144841784D01*
X158030244Y-144898025D01*
X158034713Y-144967752D01*
X158000776Y-145028826D01*
X157939208Y-145061858D01*
X157913745Y-145064500D01*
X106224255Y-145064500D01*
X106157216Y-145044815D01*
X106111461Y-144992011D01*
X106101517Y-144922853D01*
X106130542Y-144859297D01*
X106149214Y-144841784D01*
X106257837Y-144759211D01*
X106517668Y-144513086D01*
X106749365Y-144240311D01*
X106950211Y-143944085D01*
X107117853Y-143627880D01*
X107250324Y-143295403D01*
X107346071Y-142950552D01*
X107403451Y-142600551D01*
X107403970Y-142597385D01*
X107403970Y-142597382D01*
X107403972Y-142597371D01*
X107423348Y-142240000D01*
X107403972Y-141882629D01*
X107346071Y-141529448D01*
X107250324Y-141184597D01*
X107117853Y-140852120D01*
X106950211Y-140535915D01*
X106749365Y-140239689D01*
X106749361Y-140239684D01*
X106749358Y-140239680D01*
X106517668Y-139966914D01*
X106457420Y-139909844D01*
X106257837Y-139720789D01*
X106257830Y-139720783D01*
X106257827Y-139720781D01*
X106135921Y-139628111D01*
X105972919Y-139504200D01*
X105666253Y-139319685D01*
X105666252Y-139319684D01*
X105666248Y-139319682D01*
X105666244Y-139319680D01*
X105341447Y-139169414D01*
X105341441Y-139169411D01*
X105341435Y-139169409D01*
X105171854Y-139112270D01*
X105002273Y-139055131D01*
X104652744Y-138978194D01*
X104296949Y-138939500D01*
X104296948Y-138939500D01*
X103939052Y-138939500D01*
X103939050Y-138939500D01*
X103583255Y-138978194D01*
X103233726Y-139055131D01*
X102977970Y-139141306D01*
X102894565Y-139169409D01*
X102894563Y-139169410D01*
X102894552Y-139169414D01*
X102569755Y-139319680D01*
X102569751Y-139319682D01*
X102487449Y-139369202D01*
X102263081Y-139504200D01*
X102174768Y-139571333D01*
X101978172Y-139720781D01*
X101978163Y-139720789D01*
X101718331Y-139966914D01*
X101534008Y-140183916D01*
X101475604Y-140222267D01*
X101405738Y-140222955D01*
X101346591Y-140185761D01*
X101316942Y-140122494D01*
X101315500Y-140103640D01*
X101315500Y-136124984D01*
X101335185Y-136057945D01*
X101387989Y-136012190D01*
X101457147Y-136002246D01*
X101520703Y-136031271D01*
X101545039Y-136059887D01*
X101602684Y-136153345D01*
X101726654Y-136277315D01*
X101875875Y-136369356D01*
X101875880Y-136369358D01*
X102042302Y-136424505D01*
X102042309Y-136424506D01*
X102145019Y-136434999D01*
X102519999Y-136434999D01*
X102520000Y-136434998D01*
X102520000Y-135259229D01*
X102521882Y-135262923D01*
X102617077Y-135358118D01*
X102737031Y-135419238D01*
X102836549Y-135435000D01*
X102903451Y-135435000D01*
X103002969Y-135419238D01*
X103119229Y-135360000D01*
X103220000Y-135360000D01*
X103220000Y-136434999D01*
X103594972Y-136434999D01*
X103594986Y-136434998D01*
X103697697Y-136424505D01*
X103864119Y-136369358D01*
X103864124Y-136369356D01*
X104013345Y-136277315D01*
X104137315Y-136153345D01*
X104229356Y-136004124D01*
X104229358Y-136004119D01*
X104284505Y-135837697D01*
X104284506Y-135837690D01*
X104294999Y-135734986D01*
X104295000Y-135734973D01*
X104295000Y-135360000D01*
X103220000Y-135360000D01*
X103119229Y-135360000D01*
X103122923Y-135358118D01*
X103218118Y-135262923D01*
X103279238Y-135142969D01*
X103300298Y-135010000D01*
X103298873Y-135001000D01*
X121132652Y-135001000D01*
X121146423Y-135255001D01*
X121152028Y-135358368D01*
X121152029Y-135358385D01*
X121209926Y-135711539D01*
X121209932Y-135711565D01*
X121305672Y-136056392D01*
X121305674Y-136056399D01*
X121438142Y-136388870D01*
X121438151Y-136388888D01*
X121605784Y-136705077D01*
X121605787Y-136705082D01*
X121605789Y-136705085D01*
X121709393Y-136857890D01*
X121806634Y-137001309D01*
X121806641Y-137001319D01*
X121941728Y-137160355D01*
X122038332Y-137274086D01*
X122298163Y-137520211D01*
X122583081Y-137736800D01*
X122889747Y-137921315D01*
X122889749Y-137921316D01*
X122889751Y-137921317D01*
X122889755Y-137921319D01*
X123022077Y-137982537D01*
X123214565Y-138071591D01*
X123553726Y-138185868D01*
X123903254Y-138262805D01*
X124259052Y-138301500D01*
X124259058Y-138301500D01*
X124616942Y-138301500D01*
X124616948Y-138301500D01*
X124972746Y-138262805D01*
X125322274Y-138185868D01*
X125661435Y-138071591D01*
X125986253Y-137921315D01*
X126292919Y-137736800D01*
X126577837Y-137520211D01*
X126837668Y-137274086D01*
X127069365Y-137001311D01*
X127270211Y-136705085D01*
X127437853Y-136388880D01*
X127570324Y-136056403D01*
X127666071Y-135711552D01*
X127696463Y-135526167D01*
X127723970Y-135358385D01*
X127723970Y-135358382D01*
X127723972Y-135358371D01*
X127743348Y-135001000D01*
X127723972Y-134643629D01*
X127716944Y-134600762D01*
X127666073Y-134290460D01*
X127666072Y-134290459D01*
X127666071Y-134290448D01*
X127570324Y-133945597D01*
X127489476Y-133742684D01*
X127437857Y-133613129D01*
X127437848Y-133613111D01*
X127422944Y-133585000D01*
X127339084Y-133426823D01*
X127270215Y-133296922D01*
X127270213Y-133296919D01*
X127270211Y-133296915D01*
X127069365Y-133000689D01*
X127069361Y-133000684D01*
X127069358Y-133000680D01*
X126837668Y-132727914D01*
X126577837Y-132481789D01*
X126577830Y-132481783D01*
X126577827Y-132481781D01*
X126510245Y-132430407D01*
X126292919Y-132265200D01*
X125986253Y-132080685D01*
X125986252Y-132080684D01*
X125986248Y-132080682D01*
X125986244Y-132080680D01*
X125661447Y-131930414D01*
X125661441Y-131930411D01*
X125661435Y-131930409D01*
X125422402Y-131849869D01*
X125343641Y-131823331D01*
X129134500Y-131823331D01*
X129135368Y-131849870D01*
X129136429Y-131866054D01*
X129139031Y-131892471D01*
X129156283Y-132023506D01*
X129156284Y-132023512D01*
X129166632Y-132075533D01*
X129175003Y-132106777D01*
X129175011Y-132106800D01*
X129192052Y-132157007D01*
X129192056Y-132157018D01*
X129239495Y-132271547D01*
X129239497Y-132271553D01*
X129262969Y-132319150D01*
X129275871Y-132341496D01*
X129279149Y-132347173D01*
X129308617Y-132391274D01*
X129308621Y-132391279D01*
X129308629Y-132391290D01*
X129389075Y-132496130D01*
X129405917Y-132516654D01*
X129405921Y-132516658D01*
X129416616Y-132528853D01*
X129434752Y-132548216D01*
X135831036Y-138944500D01*
X136600121Y-139713585D01*
X137342036Y-140455500D01*
X139866783Y-142980247D01*
X139886146Y-142998383D01*
X139893767Y-143005067D01*
X139898344Y-143009081D01*
X139913178Y-143021254D01*
X139918858Y-143025915D01*
X140023725Y-143106382D01*
X140067826Y-143135850D01*
X140095859Y-143152035D01*
X140143433Y-143175495D01*
X140257976Y-143222940D01*
X140308201Y-143239990D01*
X140329901Y-143245804D01*
X140339467Y-143248368D01*
X140356808Y-143251817D01*
X140391488Y-143258715D01*
X140511150Y-143274469D01*
X140522552Y-143275971D01*
X140548920Y-143278569D01*
X140548934Y-143278569D01*
X140548945Y-143278571D01*
X140565131Y-143279632D01*
X140591655Y-143280500D01*
X140591668Y-143280500D01*
X142901860Y-143280500D01*
X142901873Y-143280500D01*
X142928397Y-143279632D01*
X142944583Y-143278571D01*
X142944595Y-143278569D01*
X142944607Y-143278569D01*
X142970975Y-143275971D01*
X142970987Y-143275969D01*
X142970991Y-143275969D01*
X143102039Y-143258715D01*
X143154059Y-143248368D01*
X143185326Y-143239990D01*
X143235551Y-143222940D01*
X143350094Y-143175495D01*
X143397668Y-143152035D01*
X143425701Y-143135850D01*
X143469801Y-143106383D01*
X143568163Y-143030908D01*
X143568170Y-143030902D01*
X143608031Y-142995946D01*
X143608035Y-142995941D01*
X143608044Y-142995934D01*
X143630934Y-142973044D01*
X143630941Y-142973035D01*
X143630946Y-142973031D01*
X143665902Y-142933170D01*
X143665906Y-142933165D01*
X143665908Y-142933163D01*
X143741383Y-142834801D01*
X143770850Y-142790701D01*
X143787035Y-142762668D01*
X143810495Y-142715094D01*
X143857940Y-142600551D01*
X143874990Y-142550326D01*
X143883368Y-142519059D01*
X143893715Y-142467039D01*
X143910969Y-142335990D01*
X143913571Y-142309582D01*
X143914632Y-142293396D01*
X143915500Y-142266872D01*
X143915500Y-139700005D01*
X144464859Y-139700005D01*
X144485385Y-139947729D01*
X144485387Y-139947738D01*
X144546412Y-140188717D01*
X144646265Y-140416362D01*
X144646267Y-140416366D01*
X144690679Y-140484344D01*
X145470000Y-139705024D01*
X145470000Y-139771889D01*
X145510507Y-139909844D01*
X145588239Y-140030798D01*
X145696900Y-140124952D01*
X145827685Y-140184680D01*
X145934237Y-140200000D01*
X145964975Y-140200000D01*
X145184500Y-140980473D01*
X145365391Y-141078367D01*
X145365399Y-141078370D01*
X145600506Y-141159083D01*
X145845707Y-141200000D01*
X146094293Y-141200000D01*
X146339493Y-141159083D01*
X146574600Y-141078370D01*
X146574608Y-141078367D01*
X146755498Y-140980473D01*
X145975025Y-140200000D01*
X146005763Y-140200000D01*
X146112315Y-140184680D01*
X146243100Y-140124952D01*
X146351761Y-140030798D01*
X146429493Y-139909844D01*
X146470000Y-139771889D01*
X146470000Y-139705026D01*
X147249319Y-140484345D01*
X147293731Y-140416369D01*
X147393587Y-140188717D01*
X147454612Y-139947738D01*
X147454614Y-139947729D01*
X147475141Y-139700005D01*
X147475141Y-139699994D01*
X147454614Y-139452270D01*
X147454612Y-139452261D01*
X147393587Y-139211282D01*
X147293732Y-138983632D01*
X147249319Y-138915653D01*
X146470000Y-139694973D01*
X146470000Y-139628111D01*
X146429493Y-139490156D01*
X146351761Y-139369202D01*
X146243100Y-139275048D01*
X146112315Y-139215320D01*
X146005763Y-139200000D01*
X145975026Y-139200000D01*
X146755498Y-138419525D01*
X146574609Y-138321632D01*
X146574603Y-138321630D01*
X146339493Y-138240916D01*
X146094293Y-138200000D01*
X145845707Y-138200000D01*
X145600506Y-138240916D01*
X145365396Y-138321630D01*
X145365385Y-138321635D01*
X145184500Y-138419524D01*
X145184500Y-138419525D01*
X145964975Y-139200000D01*
X145934237Y-139200000D01*
X145827685Y-139215320D01*
X145696900Y-139275048D01*
X145588239Y-139369202D01*
X145510507Y-139490156D01*
X145470000Y-139628111D01*
X145470000Y-139694975D01*
X144690679Y-138915654D01*
X144646267Y-138983634D01*
X144546411Y-139211282D01*
X144485387Y-139452261D01*
X144485385Y-139452270D01*
X144464859Y-139699994D01*
X144464859Y-139700005D01*
X143915500Y-139700005D01*
X143915500Y-138051655D01*
X143914632Y-138025131D01*
X143913571Y-138008945D01*
X143913569Y-138008920D01*
X143910971Y-137982552D01*
X143893715Y-137851490D01*
X143883368Y-137799467D01*
X143880804Y-137789901D01*
X143874990Y-137768201D01*
X143857940Y-137717976D01*
X143810495Y-137603433D01*
X143787035Y-137555859D01*
X143770850Y-137527826D01*
X143741382Y-137483725D01*
X143660915Y-137378858D01*
X143656254Y-137373178D01*
X143644081Y-137358344D01*
X143640067Y-137353767D01*
X143633383Y-137346146D01*
X143615247Y-137326783D01*
X141543465Y-135255001D01*
X158749645Y-135255001D01*
X158769039Y-135526160D01*
X158769040Y-135526167D01*
X158826823Y-135791793D01*
X158826825Y-135791801D01*
X158903330Y-135996920D01*
X158921830Y-136046519D01*
X159052109Y-136285107D01*
X159052110Y-136285108D01*
X159052113Y-136285113D01*
X159215029Y-136502742D01*
X159215033Y-136502746D01*
X159215038Y-136502752D01*
X159407247Y-136694961D01*
X159407253Y-136694966D01*
X159407258Y-136694971D01*
X159624887Y-136857887D01*
X159624891Y-136857889D01*
X159624892Y-136857890D01*
X159863481Y-136988169D01*
X159863480Y-136988169D01*
X159863484Y-136988170D01*
X159863487Y-136988172D01*
X160118199Y-137083175D01*
X160383840Y-137140961D01*
X160635605Y-137158967D01*
X160654999Y-137160355D01*
X160655000Y-137160355D01*
X160655001Y-137160355D01*
X160673100Y-137159060D01*
X160926160Y-137140961D01*
X161191801Y-137083175D01*
X161446513Y-136988172D01*
X161446517Y-136988169D01*
X161446519Y-136988169D01*
X161565813Y-136923029D01*
X161685113Y-136857887D01*
X161902742Y-136694971D01*
X162094971Y-136502742D01*
X162257887Y-136285113D01*
X162345324Y-136124984D01*
X162388169Y-136046519D01*
X162388169Y-136046517D01*
X162388172Y-136046513D01*
X162483175Y-135791801D01*
X162540961Y-135526160D01*
X162560355Y-135255000D01*
X162540961Y-134983840D01*
X162483175Y-134718199D01*
X162388172Y-134463487D01*
X162388170Y-134463484D01*
X162388169Y-134463480D01*
X162257890Y-134224892D01*
X162257889Y-134224891D01*
X162257887Y-134224887D01*
X162094971Y-134007258D01*
X162094966Y-134007253D01*
X162094961Y-134007247D01*
X161902752Y-133815038D01*
X161902746Y-133815033D01*
X161902742Y-133815029D01*
X161685113Y-133652113D01*
X161685108Y-133652110D01*
X161685107Y-133652109D01*
X161446518Y-133521830D01*
X161446519Y-133521830D01*
X161396920Y-133503330D01*
X161191801Y-133426825D01*
X161191794Y-133426823D01*
X161191793Y-133426823D01*
X160926167Y-133369040D01*
X160926160Y-133369039D01*
X160655001Y-133349645D01*
X160654999Y-133349645D01*
X160383839Y-133369039D01*
X160383832Y-133369040D01*
X160118206Y-133426823D01*
X160118202Y-133426824D01*
X160118199Y-133426825D01*
X159990843Y-133474326D01*
X159863480Y-133521830D01*
X159624892Y-133652109D01*
X159624891Y-133652110D01*
X159407259Y-133815028D01*
X159407247Y-133815038D01*
X159215038Y-134007247D01*
X159215028Y-134007259D01*
X159052110Y-134224891D01*
X159052109Y-134224892D01*
X158921830Y-134463480D01*
X158876506Y-134585000D01*
X158826825Y-134718199D01*
X158826824Y-134718202D01*
X158826823Y-134718206D01*
X158769040Y-134983832D01*
X158769039Y-134983839D01*
X158749645Y-135254998D01*
X158749645Y-135255001D01*
X141543465Y-135255001D01*
X132548216Y-126259752D01*
X132528853Y-126241616D01*
X132522755Y-126236268D01*
X132516654Y-126230917D01*
X132496130Y-126214075D01*
X132391290Y-126133629D01*
X132391283Y-126133624D01*
X132391274Y-126133617D01*
X132369525Y-126119084D01*
X132347183Y-126104155D01*
X132347167Y-126104145D01*
X132319155Y-126087972D01*
X132319134Y-126087961D01*
X132271555Y-126064498D01*
X132271549Y-126064496D01*
X132157037Y-126017064D01*
X132157015Y-126017056D01*
X132106796Y-126000008D01*
X132106776Y-126000002D01*
X132075554Y-125991637D01*
X132075549Y-125991635D01*
X132075531Y-125991631D01*
X132058827Y-125988308D01*
X132023510Y-125981283D01*
X131892472Y-125964031D01*
X131866055Y-125961429D01*
X131849871Y-125960368D01*
X131847975Y-125960306D01*
X131823345Y-125959500D01*
X130148127Y-125959500D01*
X130126575Y-125960205D01*
X130121599Y-125960368D01*
X130105418Y-125961428D01*
X130078995Y-125964032D01*
X129947967Y-125981282D01*
X129947957Y-125981284D01*
X129895934Y-125991632D01*
X129895923Y-125991635D01*
X129864674Y-126000009D01*
X129814456Y-126017056D01*
X129814445Y-126017060D01*
X129699895Y-126064508D01*
X129652344Y-126087958D01*
X129652301Y-126087980D01*
X129624302Y-126104146D01*
X129580202Y-126133613D01*
X129481827Y-126209097D01*
X129481822Y-126209101D01*
X129441961Y-126244057D01*
X129419057Y-126266961D01*
X129384101Y-126306822D01*
X129384097Y-126306827D01*
X129308613Y-126405202D01*
X129279146Y-126449302D01*
X129262980Y-126477301D01*
X129262958Y-126477344D01*
X129239508Y-126524895D01*
X129192060Y-126639445D01*
X129192059Y-126639447D01*
X129175007Y-126689679D01*
X129166627Y-126720957D01*
X129156282Y-126772969D01*
X129139031Y-126903999D01*
X129136429Y-126930416D01*
X129135368Y-126946600D01*
X129134500Y-126973139D01*
X129134500Y-131823331D01*
X125343641Y-131823331D01*
X125322273Y-131816131D01*
X124972744Y-131739194D01*
X124616949Y-131700500D01*
X124616948Y-131700500D01*
X124259052Y-131700500D01*
X124259050Y-131700500D01*
X123903255Y-131739194D01*
X123553726Y-131816131D01*
X123297970Y-131902306D01*
X123214565Y-131930409D01*
X123214563Y-131930410D01*
X123214552Y-131930414D01*
X122889755Y-132080680D01*
X122889751Y-132080682D01*
X122661367Y-132218096D01*
X122583081Y-132265200D01*
X122512124Y-132319140D01*
X122298172Y-132481781D01*
X122298163Y-132481789D01*
X122038331Y-132727914D01*
X121806641Y-133000680D01*
X121806634Y-133000690D01*
X121605790Y-133296913D01*
X121605784Y-133296922D01*
X121438151Y-133613111D01*
X121438142Y-133613129D01*
X121305674Y-133945600D01*
X121305672Y-133945607D01*
X121209932Y-134290434D01*
X121209926Y-134290460D01*
X121152029Y-134643614D01*
X121152028Y-134643627D01*
X121152028Y-134643629D01*
X121132652Y-135001000D01*
X103298873Y-135001000D01*
X103279238Y-134877031D01*
X103218118Y-134757077D01*
X103122923Y-134661882D01*
X103002969Y-134600762D01*
X102903451Y-134585000D01*
X102836549Y-134585000D01*
X102737031Y-134600762D01*
X102617077Y-134661882D01*
X102521882Y-134757077D01*
X102520000Y-134760770D01*
X102520000Y-133585000D01*
X103220000Y-133585000D01*
X103220000Y-134660000D01*
X104294999Y-134660000D01*
X104294999Y-134285028D01*
X104294998Y-134285013D01*
X104284505Y-134182302D01*
X104229358Y-134015880D01*
X104229356Y-134015875D01*
X104137315Y-133866654D01*
X104013345Y-133742684D01*
X103864124Y-133650643D01*
X103864119Y-133650641D01*
X103697697Y-133595494D01*
X103697690Y-133595493D01*
X103594986Y-133585000D01*
X103220000Y-133585000D01*
X102520000Y-133585000D01*
X102145028Y-133585000D01*
X102145012Y-133585001D01*
X102042302Y-133595494D01*
X101875880Y-133650641D01*
X101875875Y-133650643D01*
X101726654Y-133742684D01*
X101602683Y-133866655D01*
X101602680Y-133866659D01*
X101545038Y-133960112D01*
X101493090Y-134006837D01*
X101424128Y-134018058D01*
X101360046Y-133990215D01*
X101321190Y-133932146D01*
X101315500Y-133895015D01*
X101315500Y-131071739D01*
X101335185Y-131004700D01*
X101387989Y-130958945D01*
X101457147Y-130949001D01*
X101520703Y-130978026D01*
X101558477Y-131036804D01*
X101559275Y-131039645D01*
X101559650Y-131041044D01*
X101559651Y-131041050D01*
X101567874Y-131071739D01*
X101619678Y-131265074D01*
X101619679Y-131265076D01*
X101619680Y-131265079D01*
X101717699Y-131475282D01*
X101850730Y-131665269D01*
X102014731Y-131829270D01*
X102204718Y-131962301D01*
X102414921Y-132060320D01*
X102638950Y-132120349D01*
X102803985Y-132134787D01*
X102869998Y-132140563D01*
X102870000Y-132140563D01*
X102870002Y-132140563D01*
X102927762Y-132135509D01*
X103101050Y-132120349D01*
X103325079Y-132060320D01*
X103535282Y-131962301D01*
X103725269Y-131829270D01*
X103889270Y-131665269D01*
X104022301Y-131475282D01*
X104120320Y-131265079D01*
X104180349Y-131041050D01*
X104200563Y-130810000D01*
X104180349Y-130578950D01*
X104120320Y-130354921D01*
X104022301Y-130144719D01*
X104022299Y-130144716D01*
X104022298Y-130144714D01*
X103889273Y-129954735D01*
X103889268Y-129954729D01*
X103725269Y-129790730D01*
X103725263Y-129790726D01*
X103535282Y-129657699D01*
X103325079Y-129559680D01*
X103325076Y-129559679D01*
X103325074Y-129559678D01*
X103101051Y-129499651D01*
X103101044Y-129499650D01*
X102870002Y-129479437D01*
X102869998Y-129479437D01*
X102638955Y-129499650D01*
X102638948Y-129499651D01*
X102414917Y-129559681D01*
X102204718Y-129657699D01*
X102204714Y-129657701D01*
X102014735Y-129790726D01*
X102014729Y-129790731D01*
X101850731Y-129954729D01*
X101850726Y-129954735D01*
X101717701Y-130144714D01*
X101717699Y-130144718D01*
X101619681Y-130354917D01*
X101619680Y-130354921D01*
X101567875Y-130548260D01*
X101559275Y-130580354D01*
X101522909Y-130640014D01*
X101460062Y-130670543D01*
X101390687Y-130662248D01*
X101336809Y-130617762D01*
X101315535Y-130551210D01*
X101315500Y-130548260D01*
X101315500Y-126871739D01*
X101335185Y-126804700D01*
X101387989Y-126758945D01*
X101457147Y-126749001D01*
X101520703Y-126778026D01*
X101558477Y-126836804D01*
X101559275Y-126839645D01*
X101559650Y-126841044D01*
X101559651Y-126841050D01*
X101567874Y-126871739D01*
X101619678Y-127065074D01*
X101619679Y-127065076D01*
X101619680Y-127065079D01*
X101717699Y-127275282D01*
X101850730Y-127465269D01*
X102014731Y-127629270D01*
X102204718Y-127762301D01*
X102414921Y-127860320D01*
X102638950Y-127920349D01*
X102803985Y-127934787D01*
X102869998Y-127940563D01*
X102870000Y-127940563D01*
X102870002Y-127940563D01*
X102927762Y-127935509D01*
X103101050Y-127920349D01*
X103325079Y-127860320D01*
X103535282Y-127762301D01*
X103725269Y-127629270D01*
X103889270Y-127465269D01*
X104022301Y-127275282D01*
X104120320Y-127065079D01*
X104180349Y-126841050D01*
X104200563Y-126610000D01*
X104180349Y-126378950D01*
X104120320Y-126154921D01*
X104022301Y-125944719D01*
X104022299Y-125944716D01*
X104022298Y-125944714D01*
X103889273Y-125754735D01*
X103889268Y-125754729D01*
X103725269Y-125590730D01*
X103725263Y-125590726D01*
X103535282Y-125457699D01*
X103325079Y-125359680D01*
X103325076Y-125359679D01*
X103325074Y-125359678D01*
X103101051Y-125299651D01*
X103101044Y-125299650D01*
X102870002Y-125279437D01*
X102869998Y-125279437D01*
X102638955Y-125299650D01*
X102638948Y-125299651D01*
X102414917Y-125359681D01*
X102204718Y-125457699D01*
X102204714Y-125457701D01*
X102014735Y-125590726D01*
X102014729Y-125590731D01*
X101850731Y-125754729D01*
X101850726Y-125754735D01*
X101717701Y-125944714D01*
X101717699Y-125944718D01*
X101619681Y-126154917D01*
X101619680Y-126154921D01*
X101567875Y-126348260D01*
X101559275Y-126380354D01*
X101522909Y-126440014D01*
X101460062Y-126470543D01*
X101390687Y-126462248D01*
X101336809Y-126417762D01*
X101315535Y-126351210D01*
X101315500Y-126348260D01*
X101315500Y-122671739D01*
X101335185Y-122604700D01*
X101387989Y-122558945D01*
X101457147Y-122549001D01*
X101520703Y-122578026D01*
X101558477Y-122636804D01*
X101559275Y-122639645D01*
X101619678Y-122865074D01*
X101619679Y-122865076D01*
X101619680Y-122865079D01*
X101717699Y-123075282D01*
X101850730Y-123265269D01*
X102014731Y-123429270D01*
X102204718Y-123562301D01*
X102414921Y-123660320D01*
X102638950Y-123720349D01*
X102803985Y-123734787D01*
X102869998Y-123740563D01*
X102870000Y-123740563D01*
X102870002Y-123740563D01*
X102927762Y-123735509D01*
X103101050Y-123720349D01*
X103325079Y-123660320D01*
X103535282Y-123562301D01*
X103725269Y-123429270D01*
X103889270Y-123265269D01*
X104022301Y-123075282D01*
X104030783Y-123057093D01*
X104076956Y-123004655D01*
X104143164Y-122985500D01*
X107646160Y-122985500D01*
X107662345Y-122986561D01*
X107691999Y-122990465D01*
X107692000Y-122990465D01*
X107729714Y-122985500D01*
X107729720Y-122985500D01*
X107842236Y-122970687D01*
X107982233Y-122912698D01*
X108080358Y-122837405D01*
X108080370Y-122837394D01*
X108102448Y-122820453D01*
X108102447Y-122820453D01*
X108102451Y-122820451D01*
X108120670Y-122796706D01*
X108131351Y-122784527D01*
X108200877Y-122715001D01*
X158749645Y-122715001D01*
X158769039Y-122986160D01*
X158769040Y-122986167D01*
X158788426Y-123075282D01*
X158826825Y-123251801D01*
X158893018Y-123429270D01*
X158921830Y-123506519D01*
X159052109Y-123745107D01*
X159052110Y-123745108D01*
X159052113Y-123745113D01*
X159215029Y-123962742D01*
X159215033Y-123962746D01*
X159215038Y-123962752D01*
X159407247Y-124154961D01*
X159407253Y-124154966D01*
X159407258Y-124154971D01*
X159624887Y-124317887D01*
X159624891Y-124317889D01*
X159624892Y-124317890D01*
X159863481Y-124448169D01*
X159863480Y-124448169D01*
X159863484Y-124448170D01*
X159863487Y-124448172D01*
X160118199Y-124543175D01*
X160383840Y-124600961D01*
X160635605Y-124618967D01*
X160654999Y-124620355D01*
X160655000Y-124620355D01*
X160655001Y-124620355D01*
X160673100Y-124619060D01*
X160926160Y-124600961D01*
X161191801Y-124543175D01*
X161446513Y-124448172D01*
X161446517Y-124448169D01*
X161446519Y-124448169D01*
X161565813Y-124383029D01*
X161685113Y-124317887D01*
X161902742Y-124154971D01*
X162094971Y-123962742D01*
X162257887Y-123745113D01*
X162388172Y-123506513D01*
X162483175Y-123251801D01*
X162540961Y-122986160D01*
X162560355Y-122715000D01*
X162540961Y-122443840D01*
X162483175Y-122178199D01*
X162388172Y-121923487D01*
X162388170Y-121923484D01*
X162388169Y-121923480D01*
X162257890Y-121684892D01*
X162257889Y-121684891D01*
X162257887Y-121684887D01*
X162094971Y-121467258D01*
X162094966Y-121467253D01*
X162094961Y-121467247D01*
X161902752Y-121275038D01*
X161902746Y-121275033D01*
X161902742Y-121275029D01*
X161685113Y-121112113D01*
X161685108Y-121112110D01*
X161685107Y-121112109D01*
X161446518Y-120981830D01*
X161446519Y-120981830D01*
X161396920Y-120963330D01*
X161191801Y-120886825D01*
X161191794Y-120886823D01*
X161191793Y-120886823D01*
X160926167Y-120829040D01*
X160926160Y-120829039D01*
X160655001Y-120809645D01*
X160654999Y-120809645D01*
X160383839Y-120829039D01*
X160383832Y-120829040D01*
X160118206Y-120886823D01*
X160118202Y-120886824D01*
X160118199Y-120886825D01*
X159990843Y-120934326D01*
X159863480Y-120981830D01*
X159624892Y-121112109D01*
X159624891Y-121112110D01*
X159407259Y-121275028D01*
X159407247Y-121275038D01*
X159215038Y-121467247D01*
X159215028Y-121467259D01*
X159052110Y-121684891D01*
X159052109Y-121684892D01*
X158921830Y-121923480D01*
X158874326Y-122050843D01*
X158826825Y-122178199D01*
X158826824Y-122178202D01*
X158826823Y-122178206D01*
X158769040Y-122443832D01*
X158769039Y-122443839D01*
X158749645Y-122714998D01*
X158749645Y-122715001D01*
X108200877Y-122715001D01*
X112319193Y-118596685D01*
X158754500Y-118596685D01*
X158760663Y-118664513D01*
X158809303Y-118820605D01*
X158893876Y-118960508D01*
X158893880Y-118960513D01*
X159009486Y-119076119D01*
X159009491Y-119076123D01*
X159126982Y-119147147D01*
X159149397Y-119160698D01*
X159305483Y-119209336D01*
X159373312Y-119215500D01*
X159373315Y-119215500D01*
X161936685Y-119215500D01*
X161936688Y-119215500D01*
X162004517Y-119209336D01*
X162160603Y-119160698D01*
X162255684Y-119103219D01*
X162300508Y-119076123D01*
X162300509Y-119076121D01*
X162300514Y-119076119D01*
X162416119Y-118960514D01*
X162500698Y-118820603D01*
X162549336Y-118664517D01*
X162555500Y-118596688D01*
X162555500Y-116033312D01*
X162549336Y-115965483D01*
X162500698Y-115809397D01*
X162487147Y-115786982D01*
X162416123Y-115669491D01*
X162416119Y-115669486D01*
X162300513Y-115553880D01*
X162300508Y-115553876D01*
X162160605Y-115469303D01*
X162160604Y-115469302D01*
X162160603Y-115469302D01*
X162004517Y-115420664D01*
X162004515Y-115420663D01*
X162004513Y-115420663D01*
X161957025Y-115416348D01*
X161936688Y-115414500D01*
X159373312Y-115414500D01*
X159354823Y-115416180D01*
X159305486Y-115420663D01*
X159149394Y-115469303D01*
X159009491Y-115553876D01*
X159009486Y-115553880D01*
X158893880Y-115669486D01*
X158893876Y-115669491D01*
X158809303Y-115809394D01*
X158760663Y-115965486D01*
X158754500Y-116033314D01*
X158754500Y-118596685D01*
X112319193Y-118596685D01*
X116557527Y-114358351D01*
X116569706Y-114347670D01*
X116593451Y-114329451D01*
X116610394Y-114307370D01*
X116610405Y-114307358D01*
X116685698Y-114209233D01*
X116743687Y-114069236D01*
X116749017Y-114028751D01*
X116758500Y-113956720D01*
X116758500Y-113956714D01*
X116763465Y-113919000D01*
X116759560Y-113889344D01*
X116758500Y-113873160D01*
X116758500Y-113056859D01*
X128953927Y-113056859D01*
X128954795Y-113083398D01*
X128955856Y-113099582D01*
X128958458Y-113125999D01*
X128975710Y-113257034D01*
X128975711Y-113257040D01*
X128986059Y-113309061D01*
X128994430Y-113340305D01*
X128994438Y-113340328D01*
X129011479Y-113390535D01*
X129011483Y-113390546D01*
X129058922Y-113505075D01*
X129058924Y-113505081D01*
X129082396Y-113552678D01*
X129095298Y-113575024D01*
X129098576Y-113580701D01*
X129128044Y-113624802D01*
X129128048Y-113624807D01*
X129128056Y-113624818D01*
X129203515Y-113723159D01*
X129238493Y-113763045D01*
X129261394Y-113785946D01*
X129301255Y-113820902D01*
X129301260Y-113820906D01*
X129301263Y-113820908D01*
X129399625Y-113896383D01*
X129443725Y-113925850D01*
X129471758Y-113942035D01*
X129519332Y-113965495D01*
X129633875Y-114012940D01*
X129684100Y-114029990D01*
X129705800Y-114035804D01*
X129715366Y-114038368D01*
X129732707Y-114041817D01*
X129767387Y-114048715D01*
X129887049Y-114064469D01*
X129898451Y-114065971D01*
X129924819Y-114068569D01*
X129924833Y-114068569D01*
X129924844Y-114068571D01*
X129941030Y-114069632D01*
X129967554Y-114070500D01*
X129967567Y-114070500D01*
X131818979Y-114070500D01*
X131818991Y-114070500D01*
X131845906Y-114069606D01*
X131862337Y-114068513D01*
X131889155Y-114065831D01*
X132022158Y-114048050D01*
X132074951Y-114037384D01*
X132102105Y-114029991D01*
X132106649Y-114028754D01*
X132106652Y-114028752D01*
X132106659Y-114028751D01*
X132157557Y-114011188D01*
X132273537Y-113962330D01*
X132321661Y-113938178D01*
X132349987Y-113921521D01*
X132394493Y-113891201D01*
X132500128Y-113808455D01*
X132520797Y-113791125D01*
X132533049Y-113780138D01*
X132552476Y-113761518D01*
X139807437Y-106330427D01*
X139808316Y-106329537D01*
X141522852Y-104615001D01*
X158749645Y-104615001D01*
X158769039Y-104886160D01*
X158769040Y-104886167D01*
X158800112Y-105029002D01*
X158826825Y-105151801D01*
X158893405Y-105330308D01*
X158921830Y-105406519D01*
X159052109Y-105645107D01*
X159052110Y-105645108D01*
X159052113Y-105645113D01*
X159215029Y-105862742D01*
X159215033Y-105862746D01*
X159215038Y-105862752D01*
X159407247Y-106054961D01*
X159407253Y-106054966D01*
X159407258Y-106054971D01*
X159624887Y-106217887D01*
X159624891Y-106217889D01*
X159624892Y-106217890D01*
X159863481Y-106348169D01*
X159863480Y-106348169D01*
X159863484Y-106348170D01*
X159863487Y-106348172D01*
X160118199Y-106443175D01*
X160383840Y-106500961D01*
X160635605Y-106518967D01*
X160654999Y-106520355D01*
X160655000Y-106520355D01*
X160655001Y-106520355D01*
X160673100Y-106519060D01*
X160926160Y-106500961D01*
X161191801Y-106443175D01*
X161446513Y-106348172D01*
X161446517Y-106348169D01*
X161446519Y-106348169D01*
X161565813Y-106283029D01*
X161685113Y-106217887D01*
X161902742Y-106054971D01*
X162094971Y-105862742D01*
X162257887Y-105645113D01*
X162388172Y-105406513D01*
X162483175Y-105151801D01*
X162540961Y-104886160D01*
X162560355Y-104615000D01*
X162560126Y-104611804D01*
X162554558Y-104533945D01*
X162540961Y-104343840D01*
X162483175Y-104078199D01*
X162388172Y-103823487D01*
X162388170Y-103823484D01*
X162388169Y-103823480D01*
X162257890Y-103584892D01*
X162257889Y-103584891D01*
X162257887Y-103584887D01*
X162094971Y-103367258D01*
X162094966Y-103367253D01*
X162094961Y-103367247D01*
X161902752Y-103175038D01*
X161902746Y-103175033D01*
X161902742Y-103175029D01*
X161685113Y-103012113D01*
X161685108Y-103012110D01*
X161685107Y-103012109D01*
X161446518Y-102881830D01*
X161446519Y-102881830D01*
X161396920Y-102863330D01*
X161191801Y-102786825D01*
X161191794Y-102786823D01*
X161191793Y-102786823D01*
X160926167Y-102729040D01*
X160926160Y-102729039D01*
X160655001Y-102709645D01*
X160654999Y-102709645D01*
X160383839Y-102729039D01*
X160383832Y-102729040D01*
X160118206Y-102786823D01*
X160118202Y-102786824D01*
X160118199Y-102786825D01*
X159990843Y-102834326D01*
X159863480Y-102881830D01*
X159624892Y-103012109D01*
X159624891Y-103012110D01*
X159407259Y-103175028D01*
X159407247Y-103175038D01*
X159215038Y-103367247D01*
X159215028Y-103367259D01*
X159052110Y-103584891D01*
X159052109Y-103584892D01*
X158921830Y-103823480D01*
X158882130Y-103929921D01*
X158826825Y-104078199D01*
X158826824Y-104078202D01*
X158826823Y-104078206D01*
X158769040Y-104343832D01*
X158769039Y-104343839D01*
X158749645Y-104614998D01*
X158749645Y-104615001D01*
X141522852Y-104615001D01*
X143435783Y-102702071D01*
X143453816Y-102682825D01*
X143464457Y-102670701D01*
X143481219Y-102650299D01*
X143561318Y-102546067D01*
X143590670Y-102502242D01*
X143606806Y-102474387D01*
X143630222Y-102427120D01*
X143677657Y-102313302D01*
X143694742Y-102263386D01*
X143703164Y-102232312D01*
X143713622Y-102180613D01*
X143731250Y-102050345D01*
X143733935Y-102024099D01*
X143735054Y-102008008D01*
X143736027Y-101981633D01*
X143743180Y-100330005D01*
X144464859Y-100330005D01*
X144485385Y-100577729D01*
X144485387Y-100577738D01*
X144546412Y-100818717D01*
X144646265Y-101046362D01*
X144646267Y-101046366D01*
X144690679Y-101114344D01*
X145470000Y-100335024D01*
X145470000Y-100401889D01*
X145510507Y-100539844D01*
X145588239Y-100660798D01*
X145696900Y-100754952D01*
X145827685Y-100814680D01*
X145934237Y-100830000D01*
X145964975Y-100830000D01*
X145184500Y-101610473D01*
X145365391Y-101708367D01*
X145365399Y-101708370D01*
X145600506Y-101789083D01*
X145845707Y-101830000D01*
X146094293Y-101830000D01*
X146339493Y-101789083D01*
X146574600Y-101708370D01*
X146574608Y-101708367D01*
X146755498Y-101610473D01*
X145975025Y-100830000D01*
X146005763Y-100830000D01*
X146112315Y-100814680D01*
X146243100Y-100754952D01*
X146351761Y-100660798D01*
X146429493Y-100539844D01*
X146470000Y-100401889D01*
X146470000Y-100335026D01*
X147249319Y-101114345D01*
X147293731Y-101046369D01*
X147393587Y-100818717D01*
X147454612Y-100577738D01*
X147454614Y-100577729D01*
X147475141Y-100330005D01*
X147475141Y-100329994D01*
X147454614Y-100082270D01*
X147454612Y-100082261D01*
X147393587Y-99841282D01*
X147293732Y-99613632D01*
X147249319Y-99545653D01*
X146470000Y-100324973D01*
X146470000Y-100258111D01*
X146429493Y-100120156D01*
X146351761Y-99999202D01*
X146243100Y-99905048D01*
X146112315Y-99845320D01*
X146005763Y-99830000D01*
X145975026Y-99830000D01*
X146755498Y-99049525D01*
X146574609Y-98951632D01*
X146574603Y-98951630D01*
X146339493Y-98870916D01*
X146094293Y-98830000D01*
X145845707Y-98830000D01*
X145600506Y-98870916D01*
X145365396Y-98951630D01*
X145365385Y-98951635D01*
X145184500Y-99049524D01*
X145184500Y-99049525D01*
X145964975Y-99830000D01*
X145934237Y-99830000D01*
X145827685Y-99845320D01*
X145696900Y-99905048D01*
X145588239Y-99999202D01*
X145510507Y-100120156D01*
X145470000Y-100258111D01*
X145470000Y-100324975D01*
X144690679Y-99545654D01*
X144646267Y-99613634D01*
X144546411Y-99841282D01*
X144485387Y-100082261D01*
X144485385Y-100082270D01*
X144464859Y-100329994D01*
X144464859Y-100330005D01*
X143743180Y-100330005D01*
X143754277Y-97767470D01*
X143753520Y-97740881D01*
X143752524Y-97724648D01*
X143750023Y-97698147D01*
X143733244Y-97566672D01*
X143723065Y-97514469D01*
X143714778Y-97483089D01*
X143714772Y-97483071D01*
X143697860Y-97432681D01*
X143697856Y-97432672D01*
X143697854Y-97432665D01*
X143650652Y-97317655D01*
X143627276Y-97269883D01*
X143611128Y-97241726D01*
X143581694Y-97197417D01*
X143506259Y-97098594D01*
X143506254Y-97098588D01*
X143506252Y-97098585D01*
X143471289Y-97058528D01*
X143448383Y-97035522D01*
X143408477Y-97000386D01*
X143408475Y-97000384D01*
X143408462Y-97000373D01*
X143309969Y-96924515D01*
X143265793Y-96894895D01*
X143265792Y-96894894D01*
X143237711Y-96878627D01*
X143190036Y-96855042D01*
X143075235Y-96807345D01*
X143075215Y-96807337D01*
X143024879Y-96790200D01*
X142993553Y-96781782D01*
X142993551Y-96781781D01*
X142993538Y-96781778D01*
X142993529Y-96781776D01*
X142993520Y-96781774D01*
X142941369Y-96771371D01*
X142941360Y-96771370D01*
X142809985Y-96754027D01*
X142783453Y-96751407D01*
X142767240Y-96750342D01*
X142740671Y-96749471D01*
X142740659Y-96749471D01*
X142740371Y-96749471D01*
X140588638Y-96749495D01*
X140562379Y-96750347D01*
X140546377Y-96751386D01*
X140532655Y-96752724D01*
X140520273Y-96753931D01*
X140520259Y-96753932D01*
X140520257Y-96753933D01*
X140390574Y-96770824D01*
X140390540Y-96770830D01*
X140339092Y-96780953D01*
X140339076Y-96780957D01*
X140339072Y-96780958D01*
X140320705Y-96785824D01*
X140308126Y-96789158D01*
X140308122Y-96789159D01*
X140258377Y-96805853D01*
X140144820Y-96852339D01*
X140144797Y-96852349D01*
X140097632Y-96875326D01*
X140097611Y-96875338D01*
X140069827Y-96891175D01*
X140069791Y-96891197D01*
X140026000Y-96920065D01*
X140025985Y-96920075D01*
X139921682Y-96998970D01*
X139901235Y-97015504D01*
X139889120Y-97025969D01*
X139889103Y-97025984D01*
X139879991Y-97034383D01*
X139869799Y-97043778D01*
X137296748Y-99574500D01*
X136514798Y-100343585D01*
X135760474Y-101085497D01*
X135760475Y-101085498D01*
X135757175Y-101088744D01*
X135757171Y-101088747D01*
X129260208Y-107478818D01*
X129241707Y-107498260D01*
X129230827Y-107510477D01*
X129213668Y-107531079D01*
X129131618Y-107636495D01*
X129131614Y-107636501D01*
X129101565Y-107680871D01*
X129085066Y-107709086D01*
X129085055Y-107709106D01*
X129061124Y-107757046D01*
X129012693Y-107872606D01*
X128995287Y-107923306D01*
X128986736Y-107954868D01*
X128986734Y-107954875D01*
X128976171Y-108007411D01*
X128976168Y-108007425D01*
X128958551Y-108139838D01*
X128955894Y-108166519D01*
X128954813Y-108182861D01*
X128953927Y-108209657D01*
X128953927Y-113056859D01*
X116758500Y-113056859D01*
X116758500Y-113002940D01*
X116778185Y-112935901D01*
X116794819Y-112915259D01*
X116812816Y-112897262D01*
X116908789Y-112744522D01*
X116968368Y-112574255D01*
X116976086Y-112505754D01*
X116988565Y-112395003D01*
X116988565Y-112394996D01*
X116968369Y-112215750D01*
X116968366Y-112215737D01*
X116908790Y-112045481D01*
X116908789Y-112045478D01*
X116902813Y-112035967D01*
X116883815Y-111968730D01*
X116902817Y-111904023D01*
X116908789Y-111894519D01*
X116968368Y-111724252D01*
X116988565Y-111544997D01*
X116983515Y-111500181D01*
X116968369Y-111365747D01*
X116968368Y-111365742D01*
X116908788Y-111195473D01*
X116812815Y-111042734D01*
X116685262Y-110915181D01*
X116532523Y-110819208D01*
X116362254Y-110759628D01*
X116362249Y-110759627D01*
X116183004Y-110739432D01*
X116182996Y-110739432D01*
X116003750Y-110759627D01*
X116003745Y-110759628D01*
X115833476Y-110819208D01*
X115680737Y-110915181D01*
X115553184Y-111042734D01*
X115457211Y-111195473D01*
X115397631Y-111365742D01*
X115397630Y-111365747D01*
X115377435Y-111544993D01*
X115377435Y-111545000D01*
X115397630Y-111724246D01*
X115397633Y-111724259D01*
X115457209Y-111894515D01*
X115457210Y-111894517D01*
X115457211Y-111894519D01*
X115463183Y-111904023D01*
X115463185Y-111904026D01*
X115482185Y-111971263D01*
X115463187Y-112035967D01*
X115457209Y-112045481D01*
X115397633Y-112215737D01*
X115397630Y-112215750D01*
X115377435Y-112394996D01*
X115377435Y-112395003D01*
X115397630Y-112574249D01*
X115397631Y-112574254D01*
X115457211Y-112744523D01*
X115553184Y-112897262D01*
X115571181Y-112915259D01*
X115604666Y-112976582D01*
X115607500Y-113002940D01*
X115607500Y-113629258D01*
X115587815Y-113696297D01*
X115571181Y-113716939D01*
X107489939Y-121798181D01*
X107428616Y-121831666D01*
X107402258Y-121834500D01*
X104143164Y-121834500D01*
X104076125Y-121814815D01*
X104030783Y-121762907D01*
X104022302Y-121744721D01*
X104022300Y-121744717D01*
X103889273Y-121554735D01*
X103889268Y-121554729D01*
X103725269Y-121390730D01*
X103725263Y-121390726D01*
X103535282Y-121257699D01*
X103325079Y-121159680D01*
X103325076Y-121159679D01*
X103325074Y-121159678D01*
X103101051Y-121099651D01*
X103101044Y-121099650D01*
X102870002Y-121079437D01*
X102869998Y-121079437D01*
X102638955Y-121099650D01*
X102638948Y-121099651D01*
X102414917Y-121159681D01*
X102204718Y-121257699D01*
X102204714Y-121257701D01*
X102014735Y-121390726D01*
X102014729Y-121390731D01*
X101850731Y-121554729D01*
X101850726Y-121554735D01*
X101717701Y-121744714D01*
X101717699Y-121744718D01*
X101619681Y-121954917D01*
X101619680Y-121954921D01*
X101559851Y-122178206D01*
X101559275Y-122180354D01*
X101522909Y-122240014D01*
X101460062Y-122270543D01*
X101390687Y-122262248D01*
X101336809Y-122217762D01*
X101315535Y-122151210D01*
X101315500Y-122148260D01*
X101315500Y-113585000D01*
X109897357Y-113585000D01*
X109917884Y-113806535D01*
X109917885Y-113806537D01*
X109978769Y-114020523D01*
X109978775Y-114020538D01*
X110077938Y-114219683D01*
X110077943Y-114219691D01*
X110212020Y-114397238D01*
X110376437Y-114547123D01*
X110376439Y-114547125D01*
X110565595Y-114664245D01*
X110565596Y-114664245D01*
X110565599Y-114664247D01*
X110773060Y-114744618D01*
X110991757Y-114785500D01*
X110991759Y-114785500D01*
X111214241Y-114785500D01*
X111214243Y-114785500D01*
X111432940Y-114744618D01*
X111640401Y-114664247D01*
X111829562Y-114547124D01*
X111993981Y-114397236D01*
X112128058Y-114219689D01*
X112227229Y-114020528D01*
X112288115Y-113806536D01*
X112308643Y-113585000D01*
X112288115Y-113363464D01*
X112227229Y-113149472D01*
X112215541Y-113125999D01*
X112128061Y-112950316D01*
X112128056Y-112950308D01*
X111993979Y-112772761D01*
X111829562Y-112622876D01*
X111829560Y-112622874D01*
X111640404Y-112505754D01*
X111640398Y-112505752D01*
X111432940Y-112425382D01*
X111214243Y-112384500D01*
X110991757Y-112384500D01*
X110773060Y-112425382D01*
X110641864Y-112476207D01*
X110565601Y-112505752D01*
X110565595Y-112505754D01*
X110376439Y-112622874D01*
X110376437Y-112622876D01*
X110212020Y-112772761D01*
X110077943Y-112950308D01*
X110077938Y-112950316D01*
X109978775Y-113149461D01*
X109978769Y-113149476D01*
X109917885Y-113363462D01*
X109917884Y-113363464D01*
X109897357Y-113584999D01*
X109897357Y-113585000D01*
X101315500Y-113585000D01*
X101315500Y-109435626D01*
X101335185Y-109368587D01*
X101387989Y-109322832D01*
X101457147Y-109312888D01*
X101520703Y-109341913D01*
X101558477Y-109400691D01*
X101558576Y-109401031D01*
X101593254Y-109520393D01*
X101593255Y-109520396D01*
X101676917Y-109661862D01*
X101676923Y-109661870D01*
X101793129Y-109778076D01*
X101793133Y-109778079D01*
X101793135Y-109778081D01*
X101934602Y-109861744D01*
X101971989Y-109872606D01*
X102092426Y-109907597D01*
X102092429Y-109907597D01*
X102092431Y-109907598D01*
X102129306Y-109910500D01*
X102129314Y-109910500D01*
X103610686Y-109910500D01*
X103610694Y-109910500D01*
X103647569Y-109907598D01*
X103647571Y-109907597D01*
X103647573Y-109907597D01*
X103689191Y-109895505D01*
X103805398Y-109861744D01*
X103946865Y-109778081D01*
X104063081Y-109661865D01*
X104146744Y-109520398D01*
X104192598Y-109362569D01*
X104195500Y-109325694D01*
X104195500Y-108585000D01*
X109897357Y-108585000D01*
X109917884Y-108806535D01*
X109917885Y-108806537D01*
X109978769Y-109020523D01*
X109978775Y-109020538D01*
X110077938Y-109219683D01*
X110077943Y-109219691D01*
X110212020Y-109397238D01*
X110376437Y-109547123D01*
X110376439Y-109547125D01*
X110565595Y-109664245D01*
X110565596Y-109664245D01*
X110565599Y-109664247D01*
X110773060Y-109744618D01*
X110991757Y-109785500D01*
X110991759Y-109785500D01*
X111214241Y-109785500D01*
X111214243Y-109785500D01*
X111432940Y-109744618D01*
X111640401Y-109664247D01*
X111829562Y-109547124D01*
X111993981Y-109397236D01*
X112128058Y-109219689D01*
X112227229Y-109020528D01*
X112288115Y-108806536D01*
X112308643Y-108585000D01*
X112288115Y-108363464D01*
X112227229Y-108149472D01*
X112222432Y-108139838D01*
X112128061Y-107950316D01*
X112128056Y-107950308D01*
X111993979Y-107772761D01*
X111829562Y-107622876D01*
X111829560Y-107622874D01*
X111640404Y-107505754D01*
X111640398Y-107505752D01*
X111621059Y-107498260D01*
X111432940Y-107425382D01*
X111280513Y-107396888D01*
X111218234Y-107365221D01*
X111182961Y-107304908D01*
X111185895Y-107235100D01*
X111226104Y-107177960D01*
X111280513Y-107153111D01*
X111432940Y-107124618D01*
X111640401Y-107044247D01*
X111829562Y-106927124D01*
X111993981Y-106777236D01*
X112128058Y-106599689D01*
X112227229Y-106400528D01*
X112288115Y-106186536D01*
X112308643Y-105965000D01*
X112299168Y-105862752D01*
X112288115Y-105743464D01*
X112288114Y-105743462D01*
X112287005Y-105739565D01*
X112227229Y-105529472D01*
X112227224Y-105529461D01*
X112128061Y-105330316D01*
X112128056Y-105330308D01*
X111993979Y-105152761D01*
X111858221Y-105029002D01*
X121154652Y-105029002D01*
X121174028Y-105386368D01*
X121174029Y-105386385D01*
X121231926Y-105739539D01*
X121231932Y-105739565D01*
X121327672Y-106084392D01*
X121327674Y-106084399D01*
X121460142Y-106416870D01*
X121460151Y-106416888D01*
X121627784Y-106733077D01*
X121627787Y-106733082D01*
X121627789Y-106733085D01*
X121759351Y-106927125D01*
X121828634Y-107029309D01*
X121828641Y-107029319D01*
X122011921Y-107245092D01*
X122060332Y-107302086D01*
X122320163Y-107548211D01*
X122605081Y-107764800D01*
X122911747Y-107949315D01*
X122911749Y-107949316D01*
X122911751Y-107949317D01*
X122911755Y-107949319D01*
X123085292Y-108029605D01*
X123236565Y-108099591D01*
X123575726Y-108213868D01*
X123925254Y-108290805D01*
X124281052Y-108329500D01*
X124281058Y-108329500D01*
X124638942Y-108329500D01*
X124638948Y-108329500D01*
X124994746Y-108290805D01*
X125344274Y-108213868D01*
X125683435Y-108099591D01*
X126008253Y-107949315D01*
X126314919Y-107764800D01*
X126599837Y-107548211D01*
X126859668Y-107302086D01*
X127091365Y-107029311D01*
X127292211Y-106733085D01*
X127459853Y-106416880D01*
X127592324Y-106084403D01*
X127688071Y-105739552D01*
X127721228Y-105537301D01*
X127745970Y-105386385D01*
X127745970Y-105386382D01*
X127745972Y-105386371D01*
X127765348Y-105029000D01*
X127763931Y-105002874D01*
X127755105Y-104840079D01*
X127745972Y-104671629D01*
X127741891Y-104646739D01*
X127688073Y-104318460D01*
X127688072Y-104318459D01*
X127688071Y-104318448D01*
X127633878Y-104123260D01*
X127592327Y-103973607D01*
X127592325Y-103973600D01*
X127459857Y-103641129D01*
X127459848Y-103641111D01*
X127292215Y-103324922D01*
X127292213Y-103324919D01*
X127292211Y-103324915D01*
X127091365Y-103028689D01*
X127091361Y-103028684D01*
X127091358Y-103028680D01*
X126859668Y-102755914D01*
X126810822Y-102709645D01*
X126599837Y-102509789D01*
X126599830Y-102509783D01*
X126599827Y-102509781D01*
X126491090Y-102427122D01*
X126314919Y-102293200D01*
X126008253Y-102108685D01*
X126008252Y-102108684D01*
X126008248Y-102108682D01*
X126008244Y-102108680D01*
X125683447Y-101958414D01*
X125683441Y-101958411D01*
X125683435Y-101958409D01*
X125513854Y-101901270D01*
X125344273Y-101844131D01*
X124994744Y-101767194D01*
X124638949Y-101728500D01*
X124638948Y-101728500D01*
X124281052Y-101728500D01*
X124281050Y-101728500D01*
X123925255Y-101767194D01*
X123575726Y-101844131D01*
X123329418Y-101927123D01*
X123236565Y-101958409D01*
X123236563Y-101958410D01*
X123236552Y-101958414D01*
X122911755Y-102108680D01*
X122911751Y-102108682D01*
X122683367Y-102246096D01*
X122605081Y-102293200D01*
X122516768Y-102360333D01*
X122320172Y-102509781D01*
X122320163Y-102509789D01*
X122060331Y-102755914D01*
X121828641Y-103028680D01*
X121828634Y-103028690D01*
X121627790Y-103324913D01*
X121627784Y-103324922D01*
X121460151Y-103641111D01*
X121460142Y-103641129D01*
X121327674Y-103973600D01*
X121327672Y-103973607D01*
X121231932Y-104318434D01*
X121231926Y-104318460D01*
X121174029Y-104671614D01*
X121174028Y-104671631D01*
X121154652Y-105028997D01*
X121154652Y-105029002D01*
X111858221Y-105029002D01*
X111829562Y-105002876D01*
X111829560Y-105002874D01*
X111640404Y-104885754D01*
X111640398Y-104885752D01*
X111432940Y-104805382D01*
X111214243Y-104764500D01*
X110991757Y-104764500D01*
X110773060Y-104805382D01*
X110641864Y-104856207D01*
X110565601Y-104885752D01*
X110565595Y-104885754D01*
X110376439Y-105002874D01*
X110376437Y-105002876D01*
X110212020Y-105152761D01*
X110077943Y-105330308D01*
X110077938Y-105330316D01*
X109978775Y-105529461D01*
X109978769Y-105529476D01*
X109917885Y-105743462D01*
X109917884Y-105743464D01*
X109897357Y-105964999D01*
X109897357Y-105965000D01*
X109917884Y-106186535D01*
X109917885Y-106186537D01*
X109978769Y-106400523D01*
X109978775Y-106400538D01*
X110077938Y-106599683D01*
X110077943Y-106599691D01*
X110212020Y-106777238D01*
X110376437Y-106927123D01*
X110376439Y-106927125D01*
X110565595Y-107044245D01*
X110565596Y-107044245D01*
X110565599Y-107044247D01*
X110773060Y-107124618D01*
X110925484Y-107153111D01*
X110987765Y-107184780D01*
X111023038Y-107245092D01*
X111020104Y-107314900D01*
X110979895Y-107372040D01*
X110925485Y-107396888D01*
X110773060Y-107425382D01*
X110641864Y-107476207D01*
X110565601Y-107505752D01*
X110565595Y-107505754D01*
X110376439Y-107622874D01*
X110376437Y-107622876D01*
X110212020Y-107772761D01*
X110077943Y-107950308D01*
X110077938Y-107950316D01*
X109978775Y-108149461D01*
X109978769Y-108149476D01*
X109917885Y-108363462D01*
X109917884Y-108363464D01*
X109897357Y-108584999D01*
X109897357Y-108585000D01*
X104195500Y-108585000D01*
X104195500Y-107844306D01*
X104192598Y-107807431D01*
X104182526Y-107772764D01*
X104146745Y-107649606D01*
X104146744Y-107649603D01*
X104146744Y-107649602D01*
X104063081Y-107508135D01*
X104063079Y-107508133D01*
X104063076Y-107508129D01*
X103946870Y-107391923D01*
X103946862Y-107391917D01*
X103805396Y-107308255D01*
X103805393Y-107308254D01*
X103647573Y-107262402D01*
X103647567Y-107262401D01*
X103610701Y-107259500D01*
X103610694Y-107259500D01*
X102129306Y-107259500D01*
X102129298Y-107259500D01*
X102092432Y-107262401D01*
X102092426Y-107262402D01*
X101934606Y-107308254D01*
X101934603Y-107308255D01*
X101793137Y-107391917D01*
X101793129Y-107391923D01*
X101676923Y-107508129D01*
X101676917Y-107508137D01*
X101593255Y-107649603D01*
X101593253Y-107649606D01*
X101558576Y-107768968D01*
X101520970Y-107827854D01*
X101457497Y-107857060D01*
X101388311Y-107847314D01*
X101335376Y-107801710D01*
X101315501Y-107734727D01*
X101315500Y-107734373D01*
X101315500Y-104646739D01*
X101335185Y-104579700D01*
X101387989Y-104533945D01*
X101457147Y-104524001D01*
X101520703Y-104553026D01*
X101558477Y-104611804D01*
X101559275Y-104614645D01*
X101559650Y-104616044D01*
X101559651Y-104616050D01*
X101574544Y-104671631D01*
X101619678Y-104840074D01*
X101619679Y-104840076D01*
X101619680Y-104840079D01*
X101717699Y-105050282D01*
X101850730Y-105240269D01*
X102014731Y-105404270D01*
X102204718Y-105537301D01*
X102414921Y-105635320D01*
X102638950Y-105695349D01*
X102803985Y-105709787D01*
X102869998Y-105715563D01*
X102870000Y-105715563D01*
X102870002Y-105715563D01*
X102927762Y-105710509D01*
X103101050Y-105695349D01*
X103325079Y-105635320D01*
X103535282Y-105537301D01*
X103725269Y-105404270D01*
X103889270Y-105240269D01*
X104022301Y-105050282D01*
X104120320Y-104840079D01*
X104180349Y-104616050D01*
X104200563Y-104385000D01*
X104180349Y-104153950D01*
X104120320Y-103929921D01*
X104022301Y-103719719D01*
X104022299Y-103719716D01*
X104022298Y-103719714D01*
X103889273Y-103529735D01*
X103889268Y-103529729D01*
X103725269Y-103365730D01*
X103666979Y-103324915D01*
X103535282Y-103232699D01*
X103325079Y-103134680D01*
X103325076Y-103134679D01*
X103325074Y-103134678D01*
X103101051Y-103074651D01*
X103101044Y-103074650D01*
X102870002Y-103054437D01*
X102869998Y-103054437D01*
X102638955Y-103074650D01*
X102638948Y-103074651D01*
X102414917Y-103134681D01*
X102204718Y-103232699D01*
X102204714Y-103232701D01*
X102014735Y-103365726D01*
X102014729Y-103365731D01*
X101850731Y-103529729D01*
X101850726Y-103529735D01*
X101717701Y-103719714D01*
X101717699Y-103719718D01*
X101619681Y-103929917D01*
X101619680Y-103929921D01*
X101567875Y-104123260D01*
X101559275Y-104155354D01*
X101522909Y-104215014D01*
X101460062Y-104245543D01*
X101390687Y-104237248D01*
X101336809Y-104192762D01*
X101315535Y-104126210D01*
X101315500Y-104123260D01*
X101315500Y-99926359D01*
X101335185Y-99859320D01*
X101387989Y-99813565D01*
X101457147Y-99803621D01*
X101520703Y-99832646D01*
X101534008Y-99846083D01*
X101667187Y-100002874D01*
X101718332Y-100063086D01*
X101978163Y-100309211D01*
X102263081Y-100525800D01*
X102569747Y-100710315D01*
X102569749Y-100710316D01*
X102569751Y-100710317D01*
X102569755Y-100710319D01*
X102795329Y-100814680D01*
X102894565Y-100860591D01*
X103233726Y-100974868D01*
X103583254Y-101051805D01*
X103939052Y-101090500D01*
X103939058Y-101090500D01*
X104296942Y-101090500D01*
X104296948Y-101090500D01*
X104652746Y-101051805D01*
X105002274Y-100974868D01*
X105031561Y-100965000D01*
X109897357Y-100965000D01*
X109917884Y-101186535D01*
X109917885Y-101186537D01*
X109978769Y-101400523D01*
X109978775Y-101400538D01*
X110077938Y-101599683D01*
X110077943Y-101599691D01*
X110212020Y-101777238D01*
X110376437Y-101927123D01*
X110376439Y-101927125D01*
X110565595Y-102044245D01*
X110565596Y-102044245D01*
X110565599Y-102044247D01*
X110773060Y-102124618D01*
X110991757Y-102165500D01*
X110991759Y-102165500D01*
X111214241Y-102165500D01*
X111214243Y-102165500D01*
X111432940Y-102124618D01*
X111640401Y-102044247D01*
X111829562Y-101927124D01*
X111969282Y-101799751D01*
X111993979Y-101777238D01*
X112001564Y-101767195D01*
X112128058Y-101599689D01*
X112227229Y-101400528D01*
X112288115Y-101186536D01*
X112308643Y-100965000D01*
X112288115Y-100743464D01*
X112227229Y-100529472D01*
X112134668Y-100343585D01*
X112128061Y-100330316D01*
X112128056Y-100330308D01*
X111993979Y-100152761D01*
X111829562Y-100002876D01*
X111829560Y-100002874D01*
X111640404Y-99885754D01*
X111640398Y-99885752D01*
X111432940Y-99805382D01*
X111214243Y-99764500D01*
X110991757Y-99764500D01*
X110773060Y-99805382D01*
X110667999Y-99846083D01*
X110565601Y-99885752D01*
X110565595Y-99885754D01*
X110376439Y-100002874D01*
X110376437Y-100002876D01*
X110212020Y-100152761D01*
X110077943Y-100330308D01*
X110077938Y-100330316D01*
X109978775Y-100529461D01*
X109978769Y-100529476D01*
X109917885Y-100743462D01*
X109917884Y-100743464D01*
X109897357Y-100964999D01*
X109897357Y-100965000D01*
X105031561Y-100965000D01*
X105341435Y-100860591D01*
X105666253Y-100710315D01*
X105972919Y-100525800D01*
X106257837Y-100309211D01*
X106517668Y-100063086D01*
X106749365Y-99790311D01*
X106950211Y-99494085D01*
X107117853Y-99177880D01*
X107250324Y-98845403D01*
X107346071Y-98500552D01*
X107403972Y-98147371D01*
X107423348Y-97790000D01*
X107422126Y-97767470D01*
X107418368Y-97698147D01*
X107403972Y-97432629D01*
X107377291Y-97269884D01*
X107346073Y-97079460D01*
X107346072Y-97079459D01*
X107346071Y-97079448D01*
X107303054Y-96924515D01*
X107250327Y-96734607D01*
X107250325Y-96734600D01*
X107117857Y-96402129D01*
X107117848Y-96402111D01*
X106950215Y-96085922D01*
X106950213Y-96085919D01*
X106950211Y-96085915D01*
X106749365Y-95789689D01*
X106749361Y-95789684D01*
X106749358Y-95789680D01*
X106517668Y-95516914D01*
X106257837Y-95270789D01*
X106257830Y-95270783D01*
X106257827Y-95270781D01*
X106149214Y-95188216D01*
X106107756Y-95131975D01*
X106103287Y-95062248D01*
X106137224Y-95001174D01*
X106198792Y-94968142D01*
X106224255Y-94965500D01*
X157913745Y-94965500D01*
X157980784Y-94985185D01*
G37*
%TD.AperFunction*%
%TD*%
M02*
