M48
; DRILL file {KiCad 7.0.11+dfsg-1build4} date Вс 13 июл 2025 15:39:43
; FORMAT={-:-/ absolute / inch / decimal}
; #@! TF.CreationDate,2025-07-13T15:39:43+04:00
; #@! TF.GenerationSoftware,Kicad,Pcbnew,7.0.11+dfsg-1build4
; #@! TF.FileFunction,Plated,1,2,PTH
FMAT,2
INCH
; #@! TA.AperFunction,Plated,PTH,ViaDrill
T1C0.0157
; #@! TA.AperFunction,Plated,PTH,ComponentDrill
T2C0.0315
; #@! TA.AperFunction,Plated,PTH,ComponentDrill
T3C0.0335
; #@! TA.AperFunction,Plated,PTH,ComponentDrill
T4C0.0689
; #@! TA.AperFunction,Plated,PTH,ComponentDrill
T5C0.1260
%
G90
G05
T1
X3.9Y-4.6
X3.9Y-4.65
X3.925Y-4.85
X3.95Y-4.6
X3.975Y-4.85
X4.0Y-4.6
X4.025Y-4.85
X4.05Y-4.6
X4.075Y-4.85
X4.125Y-4.85
X4.15Y-3.9
X4.175Y-5.65
X4.225Y-5.05
X4.225Y-5.2
X4.225Y-5.25
X4.25Y-5.325
X4.275Y-4.4
X4.275Y-4.45
X4.275Y-5.05
X4.3Y-3.75
X4.3Y-3.9
X4.3Y-4.05
X4.3Y-4.2
X4.325Y-5.65
X4.4Y-5.325
X4.45Y-3.75
X4.45Y-3.9
X4.45Y-4.325
X4.45Y-4.375
X4.45Y-4.425
X4.45Y-4.475
X4.45Y-4.975
X4.45Y-5.025
X4.45Y-5.075
X4.45Y-5.125
X4.475Y-5.5
X4.475Y-5.65
X4.5Y-4.375
X4.5Y-4.425
X4.5Y-4.475
X4.5Y-4.525
X4.5Y-4.575
X4.5Y-4.625
X4.5Y-4.825
X4.5Y-4.875
X4.5Y-4.925
X4.5Y-4.975
X4.5Y-5.025
X4.5Y-5.075
X4.55Y-4.475
X4.55Y-4.525
X4.55Y-4.575
X4.55Y-4.625
X4.55Y-4.825
X4.55Y-4.875
X4.55Y-4.925
X4.55Y-4.975
X4.6Y-3.75
X4.6Y-3.9
X4.6Y-4.525
X4.6Y-4.575
X4.6Y-4.625
X4.6Y-4.825
X4.6Y-4.875
X4.6Y-4.925
X4.625Y-5.5
X4.625Y-5.65
X4.65Y-4.525
X4.65Y-4.575
X4.65Y-4.625
X4.65Y-4.825
X4.65Y-4.875
X4.65Y-4.925
X4.75Y-3.75
X4.75Y-3.9
X4.75Y-4.05
X4.775Y-4.3
X4.775Y-4.35
X4.775Y-4.4
X4.775Y-4.45
X4.775Y-5.0
X4.775Y-5.05
X4.775Y-5.1
X4.775Y-5.15
X4.775Y-5.35
X4.775Y-5.5
X4.775Y-5.65
X4.8Y-4.325
X4.8Y-4.425
X4.8Y-5.025
X4.8Y-5.125
X4.825Y-4.3
X4.825Y-4.35
X4.825Y-4.35
X4.825Y-4.4
X4.825Y-4.45
X4.825Y-5.0
X4.825Y-5.05
X4.825Y-5.1
X4.825Y-5.15
X4.9Y-3.9
X4.925Y-4.125
X4.925Y-4.175
X4.925Y-5.275
X4.925Y-5.325
X4.95Y-4.15
X4.95Y-5.3
X4.975Y-4.125
X4.975Y-4.175
X4.975Y-5.275
X4.975Y-5.325
X5.4Y-4.625
X5.4Y-4.825
X5.65Y-3.75
X5.65Y-3.8
X5.65Y-3.85
X5.65Y-3.9
X5.65Y-3.95
X5.65Y-4.0
X5.65Y-4.05
X5.65Y-4.1
X5.65Y-4.275
X5.65Y-4.325
X5.65Y-4.375
X5.65Y-4.425
X5.65Y-4.475
X5.65Y-4.525
X5.65Y-4.575
X5.65Y-4.625
X5.65Y-4.825
X5.65Y-4.875
X5.65Y-4.925
X5.65Y-4.975
X5.65Y-5.025
X5.65Y-5.075
X5.65Y-5.125
X5.65Y-5.175
X5.65Y-5.3
X5.65Y-5.35
X5.65Y-5.4
X5.65Y-5.45
X5.65Y-5.5
X5.65Y-5.55
X5.65Y-5.6
X5.65Y-5.65
X5.65Y-5.7
X5.7Y-3.75
X5.7Y-4.1
X5.7Y-4.275
X5.7Y-4.625
X5.7Y-4.825
X5.7Y-5.175
X5.7Y-5.3
X5.7Y-5.7
X5.7Y-5.75
X5.75Y-3.75
X5.75Y-4.1
X5.75Y-4.275
X5.75Y-4.625
X5.75Y-4.825
X5.75Y-5.175
X5.75Y-5.3
X5.75Y-5.7
X5.8Y-3.75
X5.8Y-4.1
X5.8Y-4.275
X5.8Y-4.625
X5.8Y-4.825
X5.8Y-5.175
X5.8Y-5.3
X5.8Y-5.7
X5.8Y-5.75
T2
X4.0491Y-4.9313
X4.0491Y-5.1281
X4.0491Y-5.2281
X4.0491Y-5.425
X4.05Y-4.0266
X4.05Y-4.2234
X4.05Y-4.3266
X4.05Y-4.5234
X5.0872Y-4.15
X5.0872Y-5.3
X5.225Y-4.15
X5.225Y-5.3
X5.925Y-3.775
X5.925Y-4.8508
X5.925Y-5.375
X5.9266Y-4.3
X6.1219Y-3.775
X6.1219Y-4.8508
X6.1219Y-5.375
X6.1234Y-4.3
T3
X3.725Y-4.0266
X3.725Y-4.1919
X3.725Y-4.3573
X3.725Y-4.5226
X3.725Y-4.9289
X3.725Y-5.0943
X3.725Y-5.2596
X3.725Y-5.425
T4
X5.0124Y-3.75
X5.225Y-3.75
X6.325Y-4.2374
X6.325Y-4.45
X6.325Y-5.0008
X6.325Y-5.2134
T5
X3.775Y-3.775
X3.775Y-5.675
X4.575Y-5.315
X4.5759Y-4.135
X6.3Y-3.775
X6.3Y-5.675
M30
