%TF.GenerationSoftware,KiCad,Pcbnew,7.0.11+dfsg-1build4*%
%TF.CreationDate,2025-07-13T15:39:33+04:00*%
%TF.ProjectId,tpa3116_amplifier_board,74706133-3131-4365-9f61-6d706c696669,rev?*%
%TF.SameCoordinates,Original*%
%TF.FileFunction,Copper,L2,Bot*%
%TF.FilePolarity,Positive*%
%FSLAX46Y46*%
G04 Gerber Fmt 4.6, Leading zero omitted, Abs format (unit mm)*
G04 Created by KiCad (PCBNEW 7.0.11+dfsg-1build4) date 2025-07-13 15:39:33*
%MOMM*%
%LPD*%
G01*
G04 APERTURE LIST*
G04 Aperture macros list*
%AMRoundRect*
0 Rectangle with rounded corners*
0 $1 Rounding radius*
0 $2 $3 $4 $5 $6 $7 $8 $9 X,Y pos of 4 corners*
0 Add a 4 corners polygon primitive as box body*
4,1,4,$2,$3,$4,$5,$6,$7,$8,$9,$2,$3,0*
0 Add four circle primitives for the rounded corners*
1,1,$1+$1,$2,$3*
1,1,$1+$1,$4,$5*
1,1,$1+$1,$6,$7*
1,1,$1+$1,$8,$9*
0 Add four rect primitives between the rounded corners*
20,1,$1+$1,$2,$3,$4,$5,0*
20,1,$1+$1,$4,$5,$6,$7,0*
20,1,$1+$1,$6,$7,$8,$9,0*
20,1,$1+$1,$8,$9,$2,$3,0*%
G04 Aperture macros list end*
%TA.AperFunction,ComponentPad*%
%ADD10C,1.600000*%
%TD*%
%TA.AperFunction,ComponentPad*%
%ADD11R,1.600000X1.600000*%
%TD*%
%TA.AperFunction,ComponentPad*%
%ADD12C,1.850000*%
%TD*%
%TA.AperFunction,ComponentPad*%
%ADD13RoundRect,0.250000X0.675000X-0.675000X0.675000X0.675000X-0.675000X0.675000X-0.675000X-0.675000X0*%
%TD*%
%TA.AperFunction,ComponentPad*%
%ADD14C,5.600000*%
%TD*%
%TA.AperFunction,ComponentPad*%
%ADD15C,2.750000*%
%TD*%
%TA.AperFunction,ComponentPad*%
%ADD16RoundRect,0.250000X-1.125000X1.125000X-1.125000X-1.125000X1.125000X-1.125000X1.125000X1.125000X0*%
%TD*%
%TA.AperFunction,ComponentPad*%
%ADD17RoundRect,0.250000X-1.125000X-1.125000X1.125000X-1.125000X1.125000X1.125000X-1.125000X1.125000X0*%
%TD*%
%TA.AperFunction,ViaPad*%
%ADD18C,0.800000*%
%TD*%
%TA.AperFunction,Conductor*%
%ADD19C,0.350000*%
%TD*%
G04 APERTURE END LIST*
D10*
%TO.P,C3,1*%
%TO.N,/R-*%
X102870000Y-109895000D03*
%TO.P,C3,2*%
%TO.N,Net-(IC1-RINN)*%
X102870000Y-114895000D03*
%TD*%
%TO.P,C4,2*%
%TO.N,Net-(IC1-LINN)*%
X102848000Y-137795000D03*
%TO.P,C4,1*%
%TO.N,/L-*%
X102848000Y-132795000D03*
%TD*%
%TO.P,C20,2*%
%TO.N,GND*%
X155495000Y-136525000D03*
%TO.P,C20,1*%
%TO.N,Net-(J5-Pin_2)*%
X150495000Y-136525000D03*
%TD*%
%TO.P,C19,1*%
%TO.N,GND*%
X155495000Y-123210000D03*
%TO.P,C19,2*%
%TO.N,Net-(J5-Pin_1)*%
X150495000Y-123210000D03*
%TD*%
%TO.P,C18,2*%
%TO.N,GND*%
X155535000Y-109220000D03*
%TO.P,C18,1*%
%TO.N,Net-(J4-Pin_2)*%
X150535000Y-109220000D03*
%TD*%
%TO.P,C17,1*%
%TO.N,GND*%
X155495000Y-95885000D03*
%TO.P,C17,2*%
%TO.N,Net-(J4-Pin_1)*%
X150495000Y-95885000D03*
%TD*%
%TO.P,C2,1*%
%TO.N,/L+*%
X102848000Y-125255000D03*
%TO.P,C2,2*%
%TO.N,Net-(IC1-LINP)*%
X102848000Y-130255000D03*
%TD*%
%TO.P,C1,1*%
%TO.N,/R+*%
X102870000Y-102275000D03*
%TO.P,C1,2*%
%TO.N,Net-(IC1-RINP)*%
X102870000Y-107275000D03*
%TD*%
%TO.P,C16,2*%
%TO.N,GND*%
X132715000Y-134620000D03*
D11*
%TO.P,C16,1*%
%TO.N,VCC*%
X129215000Y-134620000D03*
%TD*%
%TO.P,C15,1*%
%TO.N,VCC*%
X129215000Y-105410000D03*
D10*
%TO.P,C15,2*%
%TO.N,GND*%
X132715000Y-105410000D03*
%TD*%
D12*
%TO.P,J1,4,Pin_4*%
%TO.N,/SD_LR*%
X94615000Y-125195000D03*
%TO.P,J1,3,Pin_3*%
%TO.N,/sync*%
X94615000Y-129395000D03*
%TO.P,J1,2,Pin_2*%
%TO.N,/mute*%
X94615000Y-133595000D03*
D13*
%TO.P,J1,1,Pin_1*%
%TO.N,GND*%
X94615000Y-137795000D03*
%TD*%
D14*
%TO.P,H3,1*%
%TO.N,N/C*%
X160020000Y-144145000D03*
%TD*%
%TO.P,H6,1*%
%TO.N,N/C*%
X116205000Y-135001000D03*
%TD*%
D15*
%TO.P,J4,2,Pin_2*%
%TO.N,Net-(J4-Pin_2)*%
X160655000Y-113030000D03*
D16*
%TO.P,J4,1,Pin_1*%
%TO.N,Net-(J4-Pin_1)*%
X160655000Y-107630000D03*
%TD*%
D14*
%TO.P,H2,1*%
%TO.N,N/C*%
X95885000Y-144145000D03*
%TD*%
D15*
%TO.P,J3,2,Pin_2*%
%TO.N,VCC*%
X132715000Y-95250000D03*
D17*
%TO.P,J3,1,Pin_1*%
%TO.N,GND*%
X127315000Y-95250000D03*
%TD*%
D13*
%TO.P,J2,1,Pin_1*%
%TO.N,/L-*%
X94615000Y-114875000D03*
D12*
%TO.P,J2,2,Pin_2*%
%TO.N,/L+*%
X94615000Y-110675000D03*
%TO.P,J2,3,Pin_3*%
%TO.N,/R-*%
X94615000Y-106475000D03*
%TO.P,J2,4,Pin_4*%
%TO.N,/R+*%
X94615000Y-102275000D03*
%TD*%
D14*
%TO.P,H1,1*%
%TO.N,N/C*%
X95885000Y-95885000D03*
%TD*%
D16*
%TO.P,J5,1,Pin_1*%
%TO.N,Net-(J5-Pin_1)*%
X160655000Y-127020000D03*
D15*
%TO.P,J5,2,Pin_2*%
%TO.N,Net-(J5-Pin_2)*%
X160655000Y-132420000D03*
%TD*%
D14*
%TO.P,H5,1*%
%TO.N,N/C*%
X116227000Y-105029000D03*
%TD*%
%TO.P,H4,1*%
%TO.N,N/C*%
X160020000Y-95885000D03*
%TD*%
D18*
%TO.N,GND*%
X105410000Y-99060000D03*
%TO.N,VCC*%
X121920000Y-130175000D03*
X121920000Y-127635000D03*
X121920000Y-112395000D03*
X121920000Y-109855000D03*
X122555000Y-109220000D03*
X122555000Y-111760000D03*
X122555000Y-110490000D03*
X122555000Y-113030000D03*
X121285000Y-110490000D03*
%TO.N,GND*%
X106045000Y-143510000D03*
X109855000Y-143510000D03*
X113665000Y-139700000D03*
X113665000Y-143510000D03*
X117475000Y-139700000D03*
X117475000Y-143510000D03*
X121285000Y-143510000D03*
X109220000Y-102870000D03*
X109220000Y-106680000D03*
X113030000Y-95250000D03*
X109220000Y-95250000D03*
X113030000Y-99060000D03*
X109220000Y-99060000D03*
X99060000Y-118110000D03*
X120650000Y-102870000D03*
%TO.N,VCC*%
X125730000Y-105410000D03*
%TO.N,GND*%
X116840000Y-99060000D03*
X116840000Y-95250000D03*
X144780000Y-146050000D03*
X147320000Y-146050000D03*
X143510000Y-135890000D03*
X143510000Y-134620000D03*
X124460000Y-99060000D03*
%TO.N,VCC*%
X126365000Y-135255000D03*
X126365000Y-133985000D03*
X125095000Y-133985000D03*
X125730000Y-134620000D03*
X125095000Y-135255000D03*
X126365000Y-104775000D03*
X125095000Y-104775000D03*
X125095000Y-106045000D03*
X126365000Y-106045000D03*
%TO.N,GND*%
X107950000Y-135255000D03*
X111760000Y-135255000D03*
X121285000Y-135890000D03*
X121285000Y-139700000D03*
X120650000Y-95250000D03*
X120650000Y-99060000D03*
X144780000Y-134620000D03*
X146050000Y-134620000D03*
X147320000Y-134620000D03*
X113030000Y-113665000D03*
X114300000Y-113665000D03*
X115570000Y-113665000D03*
X115570000Y-126365000D03*
X114300000Y-126365000D03*
X113030000Y-126365000D03*
X137160000Y-122555000D03*
X137160000Y-117475000D03*
X147320000Y-144780000D03*
X146050000Y-144780000D03*
X144780000Y-144780000D03*
X143510000Y-144780000D03*
X143510000Y-143510000D03*
X143510000Y-142240000D03*
X143510000Y-140970000D03*
X143510000Y-139700000D03*
X143510000Y-138430000D03*
X143510000Y-137160000D03*
X147320000Y-131445000D03*
X146050000Y-131445000D03*
X144780000Y-131445000D03*
X143510000Y-131445000D03*
X143510000Y-130175000D03*
X143510000Y-128905000D03*
X143510000Y-127635000D03*
X143510000Y-126365000D03*
X143510000Y-125095000D03*
X143510000Y-123825000D03*
X143510000Y-122555000D03*
X144780000Y-122555000D03*
X146050000Y-122555000D03*
X147320000Y-122555000D03*
X147320000Y-117475000D03*
X146050000Y-117475000D03*
X144780000Y-117475000D03*
X143510000Y-117475000D03*
X143510000Y-116205000D03*
X143510000Y-114935000D03*
X143510000Y-113665000D03*
X143510000Y-112395000D03*
X143510000Y-111125000D03*
X143510000Y-109855000D03*
X143510000Y-108585000D03*
X144780000Y-108585000D03*
X146050000Y-108585000D03*
X147320000Y-108585000D03*
X147320000Y-104140000D03*
X146050000Y-104140000D03*
X144780000Y-104140000D03*
X143510000Y-104140000D03*
X143510000Y-102870000D03*
X143510000Y-101600000D03*
X143510000Y-100330000D03*
X143510000Y-99060000D03*
X143510000Y-97790000D03*
X143510000Y-96520000D03*
X143510000Y-95250000D03*
X144780000Y-95250000D03*
X146050000Y-95250000D03*
X147320000Y-95250000D03*
%TO.N,VCC*%
X122555000Y-130810000D03*
X121285000Y-130810000D03*
X122555000Y-129540000D03*
X121285000Y-129540000D03*
X122555000Y-128270000D03*
X121285000Y-128270000D03*
X122555000Y-127000000D03*
X121285000Y-127000000D03*
X121285000Y-109220000D03*
X122555000Y-110490000D03*
X121285000Y-111760000D03*
X121285000Y-113030000D03*
%TO.N,GND*%
X113030000Y-130175000D03*
X113030000Y-128905000D03*
X113030000Y-127635000D03*
X114300000Y-128905000D03*
X114300000Y-127635000D03*
X113030000Y-109855000D03*
X113030000Y-111125000D03*
X113030000Y-112395000D03*
X114300000Y-112395000D03*
X114300000Y-111125000D03*
X118110000Y-122555000D03*
X116840000Y-122555000D03*
X115570000Y-122555000D03*
X114300000Y-122555000D03*
X114300000Y-123825000D03*
X115570000Y-123825000D03*
X116840000Y-123825000D03*
X118110000Y-123825000D03*
X118110000Y-125095000D03*
X116840000Y-125095000D03*
X115570000Y-125095000D03*
X114300000Y-125095000D03*
X118110000Y-117475000D03*
X116840000Y-117475000D03*
X115570000Y-117475000D03*
X114300000Y-117475000D03*
X118110000Y-116205000D03*
X116840000Y-116205000D03*
X115570000Y-116205000D03*
X114300000Y-116205000D03*
X118110000Y-114935000D03*
X116840000Y-114935000D03*
X115570000Y-114935000D03*
X114300000Y-114935000D03*
%TO.N,/sync*%
X107315000Y-128270000D03*
X108585000Y-128270000D03*
%TO.N,/mute*%
X107315000Y-132080000D03*
X107315000Y-133350000D03*
%TO.N,/SD_LR*%
X108585000Y-113030000D03*
X108585000Y-111760000D03*
%TO.N,GND*%
X99060000Y-116840000D03*
X100330000Y-116840000D03*
X101600000Y-116840000D03*
X102870000Y-116840000D03*
X99695000Y-123190000D03*
X100965000Y-123190000D03*
X102235000Y-123190000D03*
X103505000Y-123190000D03*
X104775000Y-123190000D03*
%TD*%
D19*
%TO.N,/SD_LR*%
X108585000Y-113030000D02*
X96420000Y-125195000D01*
X96420000Y-125195000D02*
X94615000Y-125195000D01*
X108585000Y-113030000D02*
X108585000Y-111760000D01*
%TO.N,/mute*%
X107315000Y-132080000D02*
X107315000Y-130810000D01*
X107315000Y-133350000D02*
X107315000Y-132080000D01*
X107315000Y-130810000D02*
X105315000Y-128810000D01*
X105315000Y-128810000D02*
X97885000Y-128810000D01*
X97885000Y-128810000D02*
X94615000Y-132080000D01*
X94615000Y-132080000D02*
X94615000Y-133595000D01*
%TO.N,/sync*%
X107315000Y-128270000D02*
X95740000Y-128270000D01*
X108585000Y-128270000D02*
X107315000Y-128270000D01*
X95740000Y-128270000D02*
X94615000Y-129395000D01*
%TD*%
%TA.AperFunction,Conductor*%
%TO.N,VCC*%
G36*
X125489530Y-126366061D02*
G01*
X125547244Y-126373659D01*
X125620579Y-126383314D01*
X125651842Y-126391691D01*
X125766391Y-126439138D01*
X125794422Y-126455322D01*
X125899289Y-126535789D01*
X125911484Y-126546484D01*
X130628515Y-131263515D01*
X130639210Y-131275710D01*
X130719677Y-131380577D01*
X130735862Y-131408610D01*
X130783307Y-131523153D01*
X130791685Y-131554420D01*
X130808939Y-131685469D01*
X130810000Y-131701655D01*
X130810000Y-136551872D01*
X130808939Y-136568058D01*
X130791685Y-136699107D01*
X130783307Y-136730374D01*
X130735862Y-136844917D01*
X130719677Y-136872950D01*
X130644202Y-136971312D01*
X130621312Y-136994202D01*
X130522950Y-137069677D01*
X130494917Y-137085862D01*
X130380374Y-137133307D01*
X130349107Y-137141685D01*
X130218059Y-137158939D01*
X130201873Y-137160000D01*
X126621655Y-137160000D01*
X126605469Y-137158939D01*
X126474420Y-137141685D01*
X126443153Y-137133307D01*
X126328610Y-137085862D01*
X126300577Y-137069677D01*
X126195710Y-136989210D01*
X126183515Y-136978515D01*
X124175000Y-134970000D01*
X127915000Y-134970000D01*
X127915000Y-135467844D01*
X127921401Y-135527372D01*
X127921403Y-135527379D01*
X127971645Y-135662086D01*
X127971649Y-135662093D01*
X128057809Y-135777187D01*
X128057812Y-135777190D01*
X128172906Y-135863350D01*
X128172913Y-135863354D01*
X128307620Y-135913596D01*
X128307627Y-135913598D01*
X128367155Y-135919999D01*
X128367172Y-135920000D01*
X128865000Y-135920000D01*
X128865000Y-134970000D01*
X127915000Y-134970000D01*
X124175000Y-134970000D01*
X123825000Y-134620000D01*
X128810014Y-134620000D01*
X128829835Y-134745148D01*
X128887359Y-134858045D01*
X128976955Y-134947641D01*
X129089852Y-135005165D01*
X129183519Y-135020000D01*
X129246481Y-135020000D01*
X129340148Y-135005165D01*
X129409163Y-134970000D01*
X129565000Y-134970000D01*
X129565000Y-135920000D01*
X130062828Y-135920000D01*
X130062844Y-135919999D01*
X130122372Y-135913598D01*
X130122379Y-135913596D01*
X130257086Y-135863354D01*
X130257093Y-135863350D01*
X130372187Y-135777190D01*
X130372190Y-135777187D01*
X130458350Y-135662093D01*
X130458354Y-135662086D01*
X130508596Y-135527379D01*
X130508598Y-135527372D01*
X130514999Y-135467844D01*
X130515000Y-135467827D01*
X130515000Y-134970000D01*
X129565000Y-134970000D01*
X129409163Y-134970000D01*
X129453045Y-134947641D01*
X129542641Y-134858045D01*
X129600165Y-134745148D01*
X129619986Y-134620000D01*
X129600165Y-134494852D01*
X129542641Y-134381955D01*
X129453045Y-134292359D01*
X129340148Y-134234835D01*
X129246481Y-134220000D01*
X129183519Y-134220000D01*
X129089852Y-134234835D01*
X128976955Y-134292359D01*
X128887359Y-134381955D01*
X128829835Y-134494852D01*
X128810014Y-134620000D01*
X123825000Y-134620000D01*
X123475000Y-134270000D01*
X127915000Y-134270000D01*
X128865000Y-134270000D01*
X128865000Y-133320000D01*
X129565000Y-133320000D01*
X129565000Y-134270000D01*
X130515000Y-134270000D01*
X130515000Y-133772172D01*
X130514999Y-133772155D01*
X130508598Y-133712627D01*
X130508596Y-133712620D01*
X130458354Y-133577913D01*
X130458350Y-133577906D01*
X130372190Y-133462812D01*
X130372187Y-133462809D01*
X130257093Y-133376649D01*
X130257086Y-133376645D01*
X130122379Y-133326403D01*
X130122372Y-133326401D01*
X130062844Y-133320000D01*
X129565000Y-133320000D01*
X128865000Y-133320000D01*
X128367155Y-133320000D01*
X128307627Y-133326401D01*
X128307620Y-133326403D01*
X128172913Y-133376645D01*
X128172906Y-133376649D01*
X128057812Y-133462809D01*
X128057809Y-133462812D01*
X127971649Y-133577906D01*
X127971645Y-133577913D01*
X127921403Y-133712620D01*
X127921401Y-133712627D01*
X127915000Y-133772155D01*
X127915000Y-134270000D01*
X123475000Y-134270000D01*
X120831484Y-131626484D01*
X120820789Y-131614289D01*
X120740322Y-131509422D01*
X120724137Y-131481389D01*
X120676691Y-131366842D01*
X120668314Y-131335578D01*
X120651061Y-131204529D01*
X120650000Y-131188344D01*
X120650000Y-126973127D01*
X120651061Y-126956942D01*
X120668314Y-126825893D01*
X120676690Y-126794631D01*
X120724140Y-126680076D01*
X120740320Y-126652052D01*
X120815802Y-126553681D01*
X120838681Y-126530802D01*
X120937052Y-126455320D01*
X120965076Y-126439140D01*
X121079631Y-126391690D01*
X121110890Y-126383314D01*
X121203513Y-126371120D01*
X121241942Y-126366061D01*
X121258127Y-126365000D01*
X125473345Y-126365000D01*
X125489530Y-126366061D01*
G37*
%TD.AperFunction*%
%TD*%
%TA.AperFunction,Conductor*%
%TO.N,VCC*%
G36*
X130218058Y-102871061D02*
G01*
X130275772Y-102878659D01*
X130349107Y-102888314D01*
X130380370Y-102896691D01*
X130494919Y-102944138D01*
X130522950Y-102960322D01*
X130621314Y-103035799D01*
X130644202Y-103058687D01*
X130719677Y-103157049D01*
X130735862Y-103185082D01*
X130783307Y-103299625D01*
X130791685Y-103330892D01*
X130808939Y-103461941D01*
X130810000Y-103478127D01*
X130810000Y-108328344D01*
X130808939Y-108344530D01*
X130791685Y-108475579D01*
X130783307Y-108506846D01*
X130735862Y-108621389D01*
X130719677Y-108649422D01*
X130639210Y-108754289D01*
X130628515Y-108766484D01*
X125911484Y-113483515D01*
X125899289Y-113494210D01*
X125794422Y-113574677D01*
X125766389Y-113590862D01*
X125651846Y-113638307D01*
X125620579Y-113646685D01*
X125489531Y-113663939D01*
X125473345Y-113665000D01*
X121258127Y-113665000D01*
X121241941Y-113663939D01*
X121110892Y-113646685D01*
X121079625Y-113638307D01*
X120965082Y-113590862D01*
X120937049Y-113574677D01*
X120838687Y-113499202D01*
X120815799Y-113476314D01*
X120740322Y-113377950D01*
X120724137Y-113349917D01*
X120676691Y-113235370D01*
X120668314Y-113204106D01*
X120651061Y-113073057D01*
X120650000Y-113056872D01*
X120650000Y-108841655D01*
X120651061Y-108825470D01*
X120658827Y-108766484D01*
X120668314Y-108694418D01*
X120676690Y-108663159D01*
X120724140Y-108548604D01*
X120740320Y-108520580D01*
X120820795Y-108415702D01*
X120831476Y-108403523D01*
X123474999Y-105760000D01*
X127915000Y-105760000D01*
X127915000Y-106257844D01*
X127921401Y-106317372D01*
X127921403Y-106317379D01*
X127971645Y-106452086D01*
X127971649Y-106452093D01*
X128057809Y-106567187D01*
X128057812Y-106567190D01*
X128172906Y-106653350D01*
X128172913Y-106653354D01*
X128307620Y-106703596D01*
X128307627Y-106703598D01*
X128367155Y-106709999D01*
X128367172Y-106710000D01*
X128865000Y-106710000D01*
X128865000Y-105760000D01*
X127915000Y-105760000D01*
X123474999Y-105760000D01*
X123824999Y-105410000D01*
X128810014Y-105410000D01*
X128829835Y-105535148D01*
X128887359Y-105648045D01*
X128976955Y-105737641D01*
X129089852Y-105795165D01*
X129183519Y-105810000D01*
X129246481Y-105810000D01*
X129340148Y-105795165D01*
X129409163Y-105760000D01*
X129565000Y-105760000D01*
X129565000Y-106710000D01*
X130062828Y-106710000D01*
X130062844Y-106709999D01*
X130122372Y-106703598D01*
X130122379Y-106703596D01*
X130257086Y-106653354D01*
X130257093Y-106653350D01*
X130372187Y-106567190D01*
X130372190Y-106567187D01*
X130458350Y-106452093D01*
X130458354Y-106452086D01*
X130508596Y-106317379D01*
X130508598Y-106317372D01*
X130514999Y-106257844D01*
X130515000Y-106257827D01*
X130515000Y-105760000D01*
X129565000Y-105760000D01*
X129409163Y-105760000D01*
X129453045Y-105737641D01*
X129542641Y-105648045D01*
X129600165Y-105535148D01*
X129619986Y-105410000D01*
X129600165Y-105284852D01*
X129542641Y-105171955D01*
X129453045Y-105082359D01*
X129340148Y-105024835D01*
X129246481Y-105010000D01*
X129183519Y-105010000D01*
X129089852Y-105024835D01*
X128976955Y-105082359D01*
X128887359Y-105171955D01*
X128829835Y-105284852D01*
X128810014Y-105410000D01*
X123824999Y-105410000D01*
X124174999Y-105060000D01*
X127915000Y-105060000D01*
X128865000Y-105060000D01*
X128865000Y-104110000D01*
X129565000Y-104110000D01*
X129565000Y-105060000D01*
X130515000Y-105060000D01*
X130515000Y-104562172D01*
X130514999Y-104562155D01*
X130508598Y-104502627D01*
X130508596Y-104502620D01*
X130458354Y-104367913D01*
X130458350Y-104367906D01*
X130372190Y-104252812D01*
X130372187Y-104252809D01*
X130257093Y-104166649D01*
X130257086Y-104166645D01*
X130122379Y-104116403D01*
X130122372Y-104116401D01*
X130062844Y-104110000D01*
X129565000Y-104110000D01*
X128865000Y-104110000D01*
X128367155Y-104110000D01*
X128307627Y-104116401D01*
X128307620Y-104116403D01*
X128172913Y-104166645D01*
X128172906Y-104166649D01*
X128057812Y-104252809D01*
X128057809Y-104252812D01*
X127971649Y-104367906D01*
X127971645Y-104367913D01*
X127921403Y-104502620D01*
X127921401Y-104502627D01*
X127915000Y-104562155D01*
X127915000Y-105060000D01*
X124174999Y-105060000D01*
X126183523Y-103051476D01*
X126195702Y-103040795D01*
X126300580Y-102960320D01*
X126328604Y-102944140D01*
X126443159Y-102896690D01*
X126474418Y-102888314D01*
X126567041Y-102876120D01*
X126605470Y-102871061D01*
X126621655Y-102870000D01*
X130201873Y-102870000D01*
X130218058Y-102871061D01*
G37*
%TD.AperFunction*%
%TD*%
%TA.AperFunction,Conductor*%
%TO.N,GND*%
G36*
X157980784Y-93080185D02*
G01*
X158026539Y-93132989D01*
X158036483Y-93202147D01*
X158007458Y-93265703D01*
X157988786Y-93283216D01*
X157880172Y-93365781D01*
X157880163Y-93365789D01*
X157620331Y-93611914D01*
X157388641Y-93884680D01*
X157388634Y-93884690D01*
X157187790Y-94180913D01*
X157187784Y-94180922D01*
X157020151Y-94497111D01*
X157020142Y-94497129D01*
X156887674Y-94829600D01*
X156887673Y-94829602D01*
X156803334Y-95133366D01*
X156766432Y-95192695D01*
X156703312Y-95222656D01*
X156634014Y-95213735D01*
X156582279Y-95171315D01*
X156574025Y-95159527D01*
X155892953Y-95840598D01*
X155880165Y-95759852D01*
X155822641Y-95646955D01*
X155733045Y-95557359D01*
X155620148Y-95499835D01*
X155539401Y-95487046D01*
X156220472Y-94805974D01*
X156147478Y-94754863D01*
X155941331Y-94658735D01*
X155941317Y-94658730D01*
X155721610Y-94599860D01*
X155721599Y-94599858D01*
X155495002Y-94580034D01*
X155494998Y-94580034D01*
X155268400Y-94599858D01*
X155268389Y-94599860D01*
X155048682Y-94658730D01*
X155048673Y-94658734D01*
X154842516Y-94754866D01*
X154842512Y-94754868D01*
X154769526Y-94805973D01*
X154769526Y-94805974D01*
X155450599Y-95487046D01*
X155369852Y-95499835D01*
X155256955Y-95557359D01*
X155167359Y-95646955D01*
X155109835Y-95759852D01*
X155097046Y-95840598D01*
X154415974Y-95159526D01*
X154415973Y-95159526D01*
X154364868Y-95232512D01*
X154364866Y-95232516D01*
X154268734Y-95438673D01*
X154268730Y-95438682D01*
X154209860Y-95658389D01*
X154209858Y-95658400D01*
X154190034Y-95884997D01*
X154190034Y-95885002D01*
X154209858Y-96111599D01*
X154209860Y-96111610D01*
X154268730Y-96331317D01*
X154268735Y-96331331D01*
X154364863Y-96537478D01*
X154415974Y-96610472D01*
X155097046Y-95929400D01*
X155109835Y-96010148D01*
X155167359Y-96123045D01*
X155256955Y-96212641D01*
X155369852Y-96270165D01*
X155450599Y-96282953D01*
X154769526Y-96964025D01*
X154842513Y-97015132D01*
X154842521Y-97015136D01*
X155048668Y-97111264D01*
X155048682Y-97111269D01*
X155268389Y-97170139D01*
X155268400Y-97170141D01*
X155494998Y-97189966D01*
X155495002Y-97189966D01*
X155721599Y-97170141D01*
X155721610Y-97170139D01*
X155941317Y-97111269D01*
X155941331Y-97111264D01*
X156147478Y-97015136D01*
X156220471Y-96964024D01*
X155539400Y-96282953D01*
X155620148Y-96270165D01*
X155733045Y-96212641D01*
X155822641Y-96123045D01*
X155880165Y-96010148D01*
X155892953Y-95929400D01*
X156574024Y-96610471D01*
X156582279Y-96598682D01*
X156636856Y-96555057D01*
X156706355Y-96547865D01*
X156768709Y-96579387D01*
X156803334Y-96636633D01*
X156887672Y-96940392D01*
X156887674Y-96940399D01*
X157020142Y-97272870D01*
X157020151Y-97272888D01*
X157187784Y-97589077D01*
X157187787Y-97589082D01*
X157187789Y-97589085D01*
X157386840Y-97882664D01*
X157388634Y-97885309D01*
X157388641Y-97885319D01*
X157620331Y-98158085D01*
X157620332Y-98158086D01*
X157880163Y-98404211D01*
X158165081Y-98620800D01*
X158471747Y-98805315D01*
X158471749Y-98805316D01*
X158471751Y-98805317D01*
X158471755Y-98805319D01*
X158796552Y-98955585D01*
X158796565Y-98955591D01*
X159135726Y-99069868D01*
X159485254Y-99146805D01*
X159841052Y-99185500D01*
X159841058Y-99185500D01*
X160198942Y-99185500D01*
X160198948Y-99185500D01*
X160554746Y-99146805D01*
X160904274Y-99069868D01*
X161243435Y-98955591D01*
X161568253Y-98805315D01*
X161874919Y-98620800D01*
X162159837Y-98404211D01*
X162419668Y-98158086D01*
X162625992Y-97915181D01*
X162684395Y-97876831D01*
X162754261Y-97876143D01*
X162813409Y-97913336D01*
X162843058Y-97976603D01*
X162844500Y-97995458D01*
X162844500Y-142034541D01*
X162824815Y-142101580D01*
X162772011Y-142147335D01*
X162702853Y-142157279D01*
X162639297Y-142128254D01*
X162625992Y-142114817D01*
X162419668Y-141871914D01*
X162159837Y-141625789D01*
X162159830Y-141625783D01*
X162159827Y-141625781D01*
X162092245Y-141574407D01*
X161874919Y-141409200D01*
X161568253Y-141224685D01*
X161568252Y-141224684D01*
X161568248Y-141224682D01*
X161568244Y-141224680D01*
X161243447Y-141074414D01*
X161243441Y-141074411D01*
X161243435Y-141074409D01*
X161073854Y-141017270D01*
X160904273Y-140960131D01*
X160554744Y-140883194D01*
X160198949Y-140844500D01*
X160198948Y-140844500D01*
X159841052Y-140844500D01*
X159841050Y-140844500D01*
X159485255Y-140883194D01*
X159135726Y-140960131D01*
X158879970Y-141046306D01*
X158796565Y-141074409D01*
X158796563Y-141074410D01*
X158796552Y-141074414D01*
X158471755Y-141224680D01*
X158471751Y-141224682D01*
X158243367Y-141362096D01*
X158165081Y-141409200D01*
X158076768Y-141476333D01*
X157880172Y-141625781D01*
X157880163Y-141625789D01*
X157620331Y-141871914D01*
X157388641Y-142144680D01*
X157388634Y-142144690D01*
X157187790Y-142440913D01*
X157187784Y-142440922D01*
X157020151Y-142757111D01*
X157020142Y-142757129D01*
X156887674Y-143089600D01*
X156887672Y-143089607D01*
X156791932Y-143434434D01*
X156791926Y-143434460D01*
X156734029Y-143787614D01*
X156734028Y-143787631D01*
X156714652Y-144144997D01*
X156714652Y-144145002D01*
X156734028Y-144502368D01*
X156734029Y-144502385D01*
X156791926Y-144855539D01*
X156791932Y-144855565D01*
X156887672Y-145200392D01*
X156887674Y-145200399D01*
X157020142Y-145532870D01*
X157020151Y-145532888D01*
X157187784Y-145849077D01*
X157187787Y-145849082D01*
X157187789Y-145849085D01*
X157386840Y-146142664D01*
X157388634Y-146145309D01*
X157388641Y-146145319D01*
X157620331Y-146418085D01*
X157620332Y-146418086D01*
X157880163Y-146664211D01*
X157880170Y-146664216D01*
X157880172Y-146664218D01*
X157988786Y-146746784D01*
X158030244Y-146803025D01*
X158034713Y-146872752D01*
X158000776Y-146933826D01*
X157939208Y-146966858D01*
X157913745Y-146969500D01*
X97991255Y-146969500D01*
X97924216Y-146949815D01*
X97878461Y-146897011D01*
X97868517Y-146827853D01*
X97897542Y-146764297D01*
X97916214Y-146746784D01*
X98024837Y-146664211D01*
X98284668Y-146418086D01*
X98516365Y-146145311D01*
X98717211Y-145849085D01*
X98884853Y-145532880D01*
X99017324Y-145200403D01*
X99113071Y-144855552D01*
X99170972Y-144502371D01*
X99190348Y-144145000D01*
X99170972Y-143787629D01*
X99113071Y-143434448D01*
X99017324Y-143089597D01*
X98884853Y-142757120D01*
X98717211Y-142440915D01*
X98516365Y-142144689D01*
X98516361Y-142144684D01*
X98516358Y-142144680D01*
X98284668Y-141871914D01*
X98024837Y-141625789D01*
X98024830Y-141625783D01*
X98024827Y-141625781D01*
X97957245Y-141574407D01*
X97739919Y-141409200D01*
X97433253Y-141224685D01*
X97433252Y-141224684D01*
X97433248Y-141224682D01*
X97433244Y-141224680D01*
X97108447Y-141074414D01*
X97108441Y-141074411D01*
X97108435Y-141074409D01*
X96938854Y-141017270D01*
X96769273Y-140960131D01*
X96419744Y-140883194D01*
X96063949Y-140844500D01*
X96063948Y-140844500D01*
X95706052Y-140844500D01*
X95706050Y-140844500D01*
X95350255Y-140883194D01*
X95000726Y-140960131D01*
X94744970Y-141046306D01*
X94661565Y-141074409D01*
X94661563Y-141074410D01*
X94661552Y-141074414D01*
X94336755Y-141224680D01*
X94336751Y-141224682D01*
X94108367Y-141362096D01*
X94030081Y-141409200D01*
X93941768Y-141476333D01*
X93745172Y-141625781D01*
X93745163Y-141625789D01*
X93485331Y-141871914D01*
X93279008Y-142114817D01*
X93220605Y-142153168D01*
X93150738Y-142153856D01*
X93091591Y-142116663D01*
X93061942Y-142053396D01*
X93060500Y-142034541D01*
X93060500Y-138909984D01*
X93080185Y-138842945D01*
X93132989Y-138797190D01*
X93202147Y-138787246D01*
X93265703Y-138816271D01*
X93290039Y-138844887D01*
X93347684Y-138938345D01*
X93471654Y-139062315D01*
X93620875Y-139154356D01*
X93620880Y-139154358D01*
X93787302Y-139209505D01*
X93787309Y-139209506D01*
X93890019Y-139219999D01*
X94364999Y-139219999D01*
X94365000Y-139219998D01*
X94365000Y-138144607D01*
X94482031Y-138204238D01*
X94581549Y-138220000D01*
X94648451Y-138220000D01*
X94747969Y-138204238D01*
X94865000Y-138144607D01*
X94865000Y-139219999D01*
X95339972Y-139219999D01*
X95339986Y-139219998D01*
X95442697Y-139209505D01*
X95609119Y-139154358D01*
X95609124Y-139154356D01*
X95758345Y-139062315D01*
X95882315Y-138938345D01*
X95974356Y-138789124D01*
X95974358Y-138789119D01*
X96029505Y-138622697D01*
X96029506Y-138622690D01*
X96039999Y-138519986D01*
X96040000Y-138519973D01*
X96040000Y-138045000D01*
X94964607Y-138045000D01*
X95024238Y-137927969D01*
X95045298Y-137795000D01*
X101742785Y-137795000D01*
X101761602Y-137998082D01*
X101817417Y-138194247D01*
X101817422Y-138194260D01*
X101908327Y-138376821D01*
X102031237Y-138539581D01*
X102181958Y-138676980D01*
X102181960Y-138676982D01*
X102281141Y-138738392D01*
X102355363Y-138784348D01*
X102545544Y-138858024D01*
X102746024Y-138895500D01*
X102746026Y-138895500D01*
X102949974Y-138895500D01*
X102949976Y-138895500D01*
X103150456Y-138858024D01*
X103340637Y-138784348D01*
X103514041Y-138676981D01*
X103664764Y-138539579D01*
X103787673Y-138376821D01*
X103878582Y-138194250D01*
X103934397Y-137998083D01*
X103953215Y-137795000D01*
X103934397Y-137591917D01*
X103878582Y-137395750D01*
X103864819Y-137368111D01*
X103818000Y-137274085D01*
X103787673Y-137213179D01*
X103664764Y-137050421D01*
X103664762Y-137050418D01*
X103514041Y-136913019D01*
X103514039Y-136913017D01*
X103340642Y-136805655D01*
X103340635Y-136805651D01*
X103230655Y-136763045D01*
X103150456Y-136731976D01*
X102949976Y-136694500D01*
X102746024Y-136694500D01*
X102545544Y-136731976D01*
X102545541Y-136731976D01*
X102545541Y-136731977D01*
X102355364Y-136805651D01*
X102355357Y-136805655D01*
X102181960Y-136913017D01*
X102181958Y-136913019D01*
X102031237Y-137050418D01*
X101908327Y-137213178D01*
X101817422Y-137395739D01*
X101817417Y-137395752D01*
X101761602Y-137591917D01*
X101742785Y-137794999D01*
X101742785Y-137795000D01*
X95045298Y-137795000D01*
X95024238Y-137662031D01*
X94964607Y-137545000D01*
X96039999Y-137545000D01*
X96039999Y-137070028D01*
X96039998Y-137070013D01*
X96029505Y-136967302D01*
X95974358Y-136800880D01*
X95974356Y-136800875D01*
X95882315Y-136651654D01*
X95758345Y-136527684D01*
X95609124Y-136435643D01*
X95609119Y-136435641D01*
X95442697Y-136380494D01*
X95442690Y-136380493D01*
X95339986Y-136370000D01*
X94865000Y-136370000D01*
X94865000Y-137445392D01*
X94747969Y-137385762D01*
X94648451Y-137370000D01*
X94581549Y-137370000D01*
X94482031Y-137385762D01*
X94365000Y-137445392D01*
X94365000Y-136370000D01*
X93890028Y-136370000D01*
X93890012Y-136370001D01*
X93787302Y-136380494D01*
X93620880Y-136435641D01*
X93620875Y-136435643D01*
X93471654Y-136527684D01*
X93347683Y-136651655D01*
X93347680Y-136651659D01*
X93290038Y-136745112D01*
X93238090Y-136791837D01*
X93169128Y-136803058D01*
X93105046Y-136775215D01*
X93066190Y-136717146D01*
X93060500Y-136680015D01*
X93060500Y-135001000D01*
X112899652Y-135001000D01*
X112912602Y-135239858D01*
X112919028Y-135358368D01*
X112919029Y-135358385D01*
X112976926Y-135711539D01*
X112976932Y-135711565D01*
X113072672Y-136056392D01*
X113072674Y-136056399D01*
X113205142Y-136388870D01*
X113205151Y-136388888D01*
X113372784Y-136705077D01*
X113372787Y-136705082D01*
X113372789Y-136705085D01*
X113550576Y-136967302D01*
X113573634Y-137001309D01*
X113573641Y-137001319D01*
X113758452Y-137218895D01*
X113805332Y-137274086D01*
X114065163Y-137520211D01*
X114350081Y-137736800D01*
X114656747Y-137921315D01*
X114656749Y-137921316D01*
X114656751Y-137921317D01*
X114656755Y-137921319D01*
X114671129Y-137927969D01*
X114981565Y-138071591D01*
X115320726Y-138185868D01*
X115670254Y-138262805D01*
X116026052Y-138301500D01*
X116026058Y-138301500D01*
X116383942Y-138301500D01*
X116383948Y-138301500D01*
X116739746Y-138262805D01*
X117089274Y-138185868D01*
X117428435Y-138071591D01*
X117753253Y-137921315D01*
X118059919Y-137736800D01*
X118344837Y-137520211D01*
X118604668Y-137274086D01*
X118836365Y-137001311D01*
X119037211Y-136705085D01*
X119204853Y-136388880D01*
X119337324Y-136056403D01*
X119433071Y-135711552D01*
X119461908Y-135535652D01*
X119490970Y-135358385D01*
X119490970Y-135358382D01*
X119490972Y-135358371D01*
X119510348Y-135001000D01*
X119490972Y-134643629D01*
X119487098Y-134620000D01*
X119433073Y-134290460D01*
X119433072Y-134290459D01*
X119433071Y-134290448D01*
X119378944Y-134095499D01*
X119337327Y-133945607D01*
X119337325Y-133945600D01*
X119317363Y-133895500D01*
X119282745Y-133808613D01*
X119204857Y-133613129D01*
X119204848Y-133613111D01*
X119037215Y-133296922D01*
X119037213Y-133296919D01*
X119037211Y-133296915D01*
X118836365Y-133000689D01*
X118836361Y-133000684D01*
X118836358Y-133000680D01*
X118604668Y-132727914D01*
X118543971Y-132670419D01*
X118344837Y-132481789D01*
X118344830Y-132481783D01*
X118344827Y-132481781D01*
X118231657Y-132395752D01*
X118059919Y-132265200D01*
X117753253Y-132080685D01*
X117753252Y-132080684D01*
X117753248Y-132080682D01*
X117753244Y-132080680D01*
X117428447Y-131930414D01*
X117428441Y-131930411D01*
X117428435Y-131930409D01*
X117189114Y-131849772D01*
X117089273Y-131816131D01*
X116739744Y-131739194D01*
X116383949Y-131700500D01*
X116383948Y-131700500D01*
X116026052Y-131700500D01*
X116026050Y-131700500D01*
X115670255Y-131739194D01*
X115320726Y-131816131D01*
X115066049Y-131901943D01*
X114981565Y-131930409D01*
X114981563Y-131930410D01*
X114981552Y-131930414D01*
X114656755Y-132080680D01*
X114656751Y-132080682D01*
X114436542Y-132213178D01*
X114350081Y-132265200D01*
X114334614Y-132276958D01*
X114065172Y-132481781D01*
X114065163Y-132481789D01*
X113805331Y-132727914D01*
X113573641Y-133000680D01*
X113573634Y-133000690D01*
X113372790Y-133296913D01*
X113372784Y-133296922D01*
X113205151Y-133613111D01*
X113205142Y-133613129D01*
X113072674Y-133945600D01*
X113072672Y-133945607D01*
X112976932Y-134290434D01*
X112976926Y-134290460D01*
X112919029Y-134643614D01*
X112919028Y-134643627D01*
X112919028Y-134643629D01*
X112899652Y-135001000D01*
X93060500Y-135001000D01*
X93060500Y-133595001D01*
X93384819Y-133595001D01*
X93403507Y-133808613D01*
X93403509Y-133808624D01*
X93459005Y-134015739D01*
X93459007Y-134015743D01*
X93459008Y-134015747D01*
X93496197Y-134095499D01*
X93549631Y-134210090D01*
X93549632Y-134210091D01*
X93672627Y-134385745D01*
X93824255Y-134537373D01*
X93999909Y-134660368D01*
X94194253Y-134750992D01*
X94401381Y-134806492D01*
X94553966Y-134819841D01*
X94614998Y-134825181D01*
X94615000Y-134825181D01*
X94615002Y-134825181D01*
X94668404Y-134820508D01*
X94828619Y-134806492D01*
X95035747Y-134750992D01*
X95230091Y-134660368D01*
X95405745Y-134537373D01*
X95557373Y-134385745D01*
X95680368Y-134210091D01*
X95770992Y-134015747D01*
X95826492Y-133808619D01*
X95845181Y-133595000D01*
X95842366Y-133562829D01*
X95835983Y-133489863D01*
X95826492Y-133381381D01*
X95770992Y-133174253D01*
X95680368Y-132979910D01*
X95635090Y-132915247D01*
X95557376Y-132804259D01*
X95557371Y-132804253D01*
X95548118Y-132795000D01*
X101742785Y-132795000D01*
X101761602Y-132998082D01*
X101817417Y-133194247D01*
X101817422Y-133194260D01*
X101908327Y-133376821D01*
X102031237Y-133539581D01*
X102181958Y-133676980D01*
X102181960Y-133676982D01*
X102183493Y-133677931D01*
X102355363Y-133784348D01*
X102545544Y-133858024D01*
X102746024Y-133895500D01*
X102746026Y-133895500D01*
X102949974Y-133895500D01*
X102949976Y-133895500D01*
X103150456Y-133858024D01*
X103340637Y-133784348D01*
X103514041Y-133676981D01*
X103664764Y-133539579D01*
X103787673Y-133376821D01*
X103878582Y-133194250D01*
X103934397Y-132998083D01*
X103953215Y-132795000D01*
X103940022Y-132652627D01*
X103934397Y-132591917D01*
X103907653Y-132497923D01*
X103878582Y-132395750D01*
X103787673Y-132213179D01*
X103712981Y-132114271D01*
X103664762Y-132050418D01*
X103514041Y-131913019D01*
X103514039Y-131913017D01*
X103340642Y-131805655D01*
X103340635Y-131805651D01*
X103202320Y-131752068D01*
X103150456Y-131731976D01*
X102949976Y-131694500D01*
X102746024Y-131694500D01*
X102545544Y-131731976D01*
X102545541Y-131731976D01*
X102545541Y-131731977D01*
X102355364Y-131805651D01*
X102355357Y-131805655D01*
X102181960Y-131913017D01*
X102181958Y-131913019D01*
X102031237Y-132050418D01*
X101908327Y-132213178D01*
X101817422Y-132395739D01*
X101817417Y-132395752D01*
X101761602Y-132591917D01*
X101742785Y-132794999D01*
X101742785Y-132795000D01*
X95548118Y-132795000D01*
X95405745Y-132652627D01*
X95230090Y-132529631D01*
X95162094Y-132497924D01*
X95109655Y-132451751D01*
X95090500Y-132385542D01*
X95090500Y-132328320D01*
X95110185Y-132261281D01*
X95126819Y-132240639D01*
X98045639Y-129321819D01*
X98106962Y-129288334D01*
X98133320Y-129285500D01*
X101957882Y-129285500D01*
X102024921Y-129305185D01*
X102070676Y-129357989D01*
X102080620Y-129427147D01*
X102051595Y-129490703D01*
X102041427Y-129501129D01*
X102035783Y-129506275D01*
X102031234Y-129510422D01*
X101908327Y-129673178D01*
X101817422Y-129855739D01*
X101817417Y-129855752D01*
X101761602Y-130051917D01*
X101742785Y-130254999D01*
X101742785Y-130255000D01*
X101761602Y-130458082D01*
X101817417Y-130654247D01*
X101817422Y-130654260D01*
X101908327Y-130836821D01*
X102031237Y-130999581D01*
X102181958Y-131136980D01*
X102181960Y-131136982D01*
X102264892Y-131188331D01*
X102355363Y-131244348D01*
X102545544Y-131318024D01*
X102746024Y-131355500D01*
X102746026Y-131355500D01*
X102949974Y-131355500D01*
X102949976Y-131355500D01*
X103150456Y-131318024D01*
X103340637Y-131244348D01*
X103514041Y-131136981D01*
X103664764Y-130999579D01*
X103787673Y-130836821D01*
X103878582Y-130654250D01*
X103934397Y-130458083D01*
X103953215Y-130255000D01*
X103934397Y-130051917D01*
X103878582Y-129855750D01*
X103858663Y-129815748D01*
X103834272Y-129766764D01*
X103787673Y-129673179D01*
X103664764Y-129510421D01*
X103654579Y-129501136D01*
X103618299Y-129441428D01*
X103620058Y-129371580D01*
X103659301Y-129313772D01*
X103723567Y-129286357D01*
X103738118Y-129285500D01*
X105066679Y-129285500D01*
X105133718Y-129305185D01*
X105154360Y-129321819D01*
X106803181Y-130970640D01*
X106836666Y-131031963D01*
X106839500Y-131058321D01*
X106839500Y-131509590D01*
X106819815Y-131576629D01*
X106797727Y-131602405D01*
X106786818Y-131612069D01*
X106690182Y-131752068D01*
X106629860Y-131911125D01*
X106629859Y-131911130D01*
X106609355Y-132080000D01*
X106629859Y-132248869D01*
X106629860Y-132248874D01*
X106690182Y-132407931D01*
X106774187Y-132529632D01*
X106786817Y-132547929D01*
X106797724Y-132557592D01*
X106834853Y-132616779D01*
X106839500Y-132650409D01*
X106839500Y-132779590D01*
X106819815Y-132846629D01*
X106797727Y-132872405D01*
X106786818Y-132882069D01*
X106690182Y-133022068D01*
X106629860Y-133181125D01*
X106629859Y-133181130D01*
X106609355Y-133350000D01*
X106629859Y-133518869D01*
X106629860Y-133518874D01*
X106690182Y-133677931D01*
X106752475Y-133768177D01*
X106786817Y-133817929D01*
X106874377Y-133895500D01*
X106914150Y-133930736D01*
X107064773Y-134009789D01*
X107064775Y-134009790D01*
X107229944Y-134050500D01*
X107400056Y-134050500D01*
X107565225Y-134009790D01*
X107651517Y-133964500D01*
X107715849Y-133930736D01*
X107715850Y-133930734D01*
X107715852Y-133930734D01*
X107843183Y-133817929D01*
X107939818Y-133677930D01*
X108000140Y-133518872D01*
X108020645Y-133350000D01*
X108000140Y-133181128D01*
X107939818Y-133022070D01*
X107925060Y-133000690D01*
X107866083Y-132915247D01*
X107843183Y-132882071D01*
X107843181Y-132882069D01*
X107832273Y-132872405D01*
X107795146Y-132813216D01*
X107790500Y-132779590D01*
X107790500Y-132650409D01*
X107810185Y-132583370D01*
X107832274Y-132557593D01*
X107843183Y-132547929D01*
X107939818Y-132407930D01*
X108000140Y-132248872D01*
X108020645Y-132080000D01*
X108000140Y-131911128D01*
X107993557Y-131893771D01*
X107968583Y-131827917D01*
X107939818Y-131752070D01*
X107930930Y-131739194D01*
X107900080Y-131694500D01*
X107843183Y-131612071D01*
X107843181Y-131612069D01*
X107832273Y-131602405D01*
X107795146Y-131543216D01*
X107790500Y-131509590D01*
X107790500Y-131188331D01*
X120344500Y-131188331D01*
X120345154Y-131208331D01*
X120346216Y-131224533D01*
X120348173Y-131244396D01*
X120365429Y-131375459D01*
X120373224Y-131414653D01*
X120381598Y-131445907D01*
X120394447Y-131483756D01*
X120394452Y-131483770D01*
X120441889Y-131598294D01*
X120459553Y-131634113D01*
X120459558Y-131634122D01*
X120459567Y-131634140D01*
X120475752Y-131662173D01*
X120497952Y-131695398D01*
X120578419Y-131800265D01*
X120591104Y-131815722D01*
X120601799Y-131827917D01*
X120601817Y-131827936D01*
X120615463Y-131842506D01*
X122737458Y-133964500D01*
X124048458Y-135275500D01*
X125967492Y-137194535D01*
X125978652Y-137204987D01*
X125982082Y-137208200D01*
X125994277Y-137218895D01*
X126009734Y-137231580D01*
X126114601Y-137312047D01*
X126147826Y-137334247D01*
X126159194Y-137340810D01*
X126175843Y-137350424D01*
X126175857Y-137350431D01*
X126175859Y-137350432D01*
X126211701Y-137368107D01*
X126211706Y-137368109D01*
X126211710Y-137368111D01*
X126326246Y-137415553D01*
X126326252Y-137415555D01*
X126364070Y-137428393D01*
X126364100Y-137428402D01*
X126382257Y-137433266D01*
X126395350Y-137436775D01*
X126434542Y-137444571D01*
X126565591Y-137461825D01*
X126585486Y-137463785D01*
X126601672Y-137464846D01*
X126621655Y-137465500D01*
X126621667Y-137465500D01*
X130201861Y-137465500D01*
X130201873Y-137465500D01*
X130221856Y-137464846D01*
X130238042Y-137463785D01*
X130257937Y-137461825D01*
X130388985Y-137444571D01*
X130428177Y-137436775D01*
X130452205Y-137430336D01*
X130459426Y-137428402D01*
X130459431Y-137428400D01*
X130459444Y-137428397D01*
X130497283Y-137415552D01*
X130611826Y-137368107D01*
X130647668Y-137350432D01*
X130675701Y-137334247D01*
X130708925Y-137312047D01*
X130807287Y-137236572D01*
X130837333Y-137210223D01*
X130860223Y-137187333D01*
X130886572Y-137157287D01*
X130962047Y-137058925D01*
X130984247Y-137025701D01*
X131000432Y-136997668D01*
X131018107Y-136961826D01*
X131065552Y-136847283D01*
X131078397Y-136809444D01*
X131086775Y-136778177D01*
X131094571Y-136738985D01*
X131111825Y-136607936D01*
X131113785Y-136588041D01*
X131114846Y-136571855D01*
X131115500Y-136551872D01*
X131115500Y-136525000D01*
X149389785Y-136525000D01*
X149408602Y-136728082D01*
X149464417Y-136924247D01*
X149464422Y-136924260D01*
X149555327Y-137106821D01*
X149678237Y-137269581D01*
X149828958Y-137406980D01*
X149828960Y-137406982D01*
X149863547Y-137428397D01*
X150002363Y-137514348D01*
X150192544Y-137588024D01*
X150393024Y-137625500D01*
X150393026Y-137625500D01*
X150596974Y-137625500D01*
X150596976Y-137625500D01*
X150797456Y-137588024D01*
X150987637Y-137514348D01*
X151161041Y-137406981D01*
X151311764Y-137269579D01*
X151434673Y-137106821D01*
X151525582Y-136924250D01*
X151581397Y-136728083D01*
X151600215Y-136525002D01*
X154190034Y-136525002D01*
X154209858Y-136751599D01*
X154209860Y-136751610D01*
X154268730Y-136971317D01*
X154268735Y-136971331D01*
X154364863Y-137177478D01*
X154415974Y-137250472D01*
X155097046Y-136569400D01*
X155109835Y-136650148D01*
X155167359Y-136763045D01*
X155256955Y-136852641D01*
X155369852Y-136910165D01*
X155450599Y-136922953D01*
X154769526Y-137604025D01*
X154842513Y-137655132D01*
X154842521Y-137655136D01*
X155048668Y-137751264D01*
X155048682Y-137751269D01*
X155268389Y-137810139D01*
X155268400Y-137810141D01*
X155494998Y-137829966D01*
X155495002Y-137829966D01*
X155721599Y-137810141D01*
X155721610Y-137810139D01*
X155941317Y-137751269D01*
X155941331Y-137751264D01*
X156147478Y-137655136D01*
X156220471Y-137604024D01*
X155539400Y-136922953D01*
X155620148Y-136910165D01*
X155733045Y-136852641D01*
X155822641Y-136763045D01*
X155880165Y-136650148D01*
X155892953Y-136569400D01*
X156574024Y-137250471D01*
X156625136Y-137177478D01*
X156721264Y-136971331D01*
X156721269Y-136971317D01*
X156780139Y-136751610D01*
X156780141Y-136751599D01*
X156799966Y-136525002D01*
X156799966Y-136524997D01*
X156780141Y-136298400D01*
X156780139Y-136298389D01*
X156721269Y-136078682D01*
X156721264Y-136078668D01*
X156625136Y-135872521D01*
X156625132Y-135872513D01*
X156574025Y-135799526D01*
X155892953Y-136480598D01*
X155880165Y-136399852D01*
X155822641Y-136286955D01*
X155733045Y-136197359D01*
X155620148Y-136139835D01*
X155539401Y-136127046D01*
X156220472Y-135445974D01*
X156147478Y-135394863D01*
X155941331Y-135298735D01*
X155941317Y-135298730D01*
X155721610Y-135239860D01*
X155721599Y-135239858D01*
X155495002Y-135220034D01*
X155494998Y-135220034D01*
X155268400Y-135239858D01*
X155268389Y-135239860D01*
X155048682Y-135298730D01*
X155048673Y-135298734D01*
X154842516Y-135394866D01*
X154842512Y-135394868D01*
X154769526Y-135445973D01*
X154769526Y-135445974D01*
X155450599Y-136127046D01*
X155369852Y-136139835D01*
X155256955Y-136197359D01*
X155167359Y-136286955D01*
X155109835Y-136399852D01*
X155097046Y-136480598D01*
X154415974Y-135799526D01*
X154415973Y-135799526D01*
X154364868Y-135872512D01*
X154364866Y-135872516D01*
X154268734Y-136078673D01*
X154268730Y-136078682D01*
X154209860Y-136298389D01*
X154209858Y-136298400D01*
X154190034Y-136524997D01*
X154190034Y-136525002D01*
X151600215Y-136525002D01*
X151600215Y-136525000D01*
X151581397Y-136321917D01*
X151525582Y-136125750D01*
X151434673Y-135943179D01*
X151361486Y-135846264D01*
X151311762Y-135780418D01*
X151161041Y-135643019D01*
X151161039Y-135643017D01*
X150987642Y-135535655D01*
X150987635Y-135535651D01*
X150892546Y-135498814D01*
X150797456Y-135461976D01*
X150596976Y-135424500D01*
X150393024Y-135424500D01*
X150192544Y-135461976D01*
X150192541Y-135461976D01*
X150192541Y-135461977D01*
X150002364Y-135535651D01*
X150002357Y-135535655D01*
X149828960Y-135643017D01*
X149828958Y-135643019D01*
X149678237Y-135780418D01*
X149555327Y-135943178D01*
X149464422Y-136125739D01*
X149464417Y-136125752D01*
X149408602Y-136321917D01*
X149389785Y-136524999D01*
X149389785Y-136525000D01*
X131115500Y-136525000D01*
X131115500Y-134620002D01*
X131410034Y-134620002D01*
X131429858Y-134846599D01*
X131429860Y-134846610D01*
X131488730Y-135066317D01*
X131488735Y-135066331D01*
X131584863Y-135272478D01*
X131635974Y-135345472D01*
X132317046Y-134664400D01*
X132329835Y-134745148D01*
X132387359Y-134858045D01*
X132476955Y-134947641D01*
X132589852Y-135005165D01*
X132670599Y-135017953D01*
X131989526Y-135699025D01*
X132062513Y-135750132D01*
X132062521Y-135750136D01*
X132268668Y-135846264D01*
X132268682Y-135846269D01*
X132488389Y-135905139D01*
X132488400Y-135905141D01*
X132714998Y-135924966D01*
X132715002Y-135924966D01*
X132941599Y-135905141D01*
X132941610Y-135905139D01*
X133161317Y-135846269D01*
X133161331Y-135846264D01*
X133367478Y-135750136D01*
X133440471Y-135699024D01*
X132759400Y-135017953D01*
X132840148Y-135005165D01*
X132953045Y-134947641D01*
X133042641Y-134858045D01*
X133100165Y-134745148D01*
X133112953Y-134664400D01*
X133794024Y-135345471D01*
X133845136Y-135272478D01*
X133941264Y-135066331D01*
X133941269Y-135066317D01*
X134000139Y-134846610D01*
X134000141Y-134846599D01*
X134019966Y-134620002D01*
X134019966Y-134619997D01*
X134000141Y-134393400D01*
X134000139Y-134393389D01*
X133941269Y-134173682D01*
X133941264Y-134173668D01*
X133845136Y-133967521D01*
X133845132Y-133967513D01*
X133794025Y-133894526D01*
X133112953Y-134575598D01*
X133100165Y-134494852D01*
X133042641Y-134381955D01*
X132953045Y-134292359D01*
X132840148Y-134234835D01*
X132759401Y-134222046D01*
X133440472Y-133540974D01*
X133367478Y-133489863D01*
X133161331Y-133393735D01*
X133161317Y-133393730D01*
X132941610Y-133334860D01*
X132941599Y-133334858D01*
X132715002Y-133315034D01*
X132714998Y-133315034D01*
X132488400Y-133334858D01*
X132488389Y-133334860D01*
X132268682Y-133393730D01*
X132268673Y-133393734D01*
X132062516Y-133489866D01*
X132062512Y-133489868D01*
X131989526Y-133540973D01*
X131989526Y-133540974D01*
X132670599Y-134222046D01*
X132589852Y-134234835D01*
X132476955Y-134292359D01*
X132387359Y-134381955D01*
X132329835Y-134494852D01*
X132317046Y-134575598D01*
X131635974Y-133894526D01*
X131635973Y-133894526D01*
X131584868Y-133967512D01*
X131584866Y-133967516D01*
X131488734Y-134173673D01*
X131488730Y-134173682D01*
X131429860Y-134393389D01*
X131429858Y-134393400D01*
X131410034Y-134619997D01*
X131410034Y-134620002D01*
X131115500Y-134620002D01*
X131115500Y-132420004D01*
X158974802Y-132420004D01*
X158993567Y-132670419D01*
X159049445Y-132915235D01*
X159049448Y-132915247D01*
X159081959Y-132998083D01*
X159141194Y-133149011D01*
X159141193Y-133149011D01*
X159220796Y-133286885D01*
X159266755Y-133366489D01*
X159365143Y-133489863D01*
X159423331Y-133562829D01*
X159597107Y-133724069D01*
X159607414Y-133733632D01*
X159814901Y-133875094D01*
X159814906Y-133875096D01*
X159814907Y-133875097D01*
X159814908Y-133875098D01*
X159930439Y-133930734D01*
X160041151Y-133984050D01*
X160041152Y-133984050D01*
X160041155Y-133984052D01*
X160281121Y-134058072D01*
X160529439Y-134095500D01*
X160529440Y-134095500D01*
X160780560Y-134095500D01*
X160780561Y-134095500D01*
X161028879Y-134058072D01*
X161268845Y-133984052D01*
X161495099Y-133875094D01*
X161702586Y-133733632D01*
X161886672Y-133562825D01*
X162043245Y-133366489D01*
X162168806Y-133149011D01*
X162260552Y-132915247D01*
X162316432Y-132670421D01*
X162325611Y-132547928D01*
X162335198Y-132420004D01*
X162335198Y-132419995D01*
X162316432Y-132169580D01*
X162310698Y-132144458D01*
X162260552Y-131924753D01*
X162168806Y-131690989D01*
X162168805Y-131690988D01*
X162168806Y-131690988D01*
X162115290Y-131598297D01*
X162043245Y-131473511D01*
X161886672Y-131277175D01*
X161886671Y-131277174D01*
X161886668Y-131277170D01*
X161702586Y-131106368D01*
X161637601Y-131062062D01*
X161495099Y-130964906D01*
X161495095Y-130964904D01*
X161495092Y-130964902D01*
X161495091Y-130964901D01*
X161268847Y-130855949D01*
X161268849Y-130855949D01*
X161028887Y-130781930D01*
X161028883Y-130781929D01*
X161028879Y-130781928D01*
X160906757Y-130763521D01*
X160780566Y-130744500D01*
X160780561Y-130744500D01*
X160529439Y-130744500D01*
X160529433Y-130744500D01*
X160374792Y-130767809D01*
X160281121Y-130781928D01*
X160281118Y-130781929D01*
X160281112Y-130781930D01*
X160041151Y-130855949D01*
X159814908Y-130964901D01*
X159814907Y-130964902D01*
X159607413Y-131106368D01*
X159423331Y-131277170D01*
X159266755Y-131473511D01*
X159141194Y-131690988D01*
X159049450Y-131924747D01*
X159049445Y-131924764D01*
X158993567Y-132169580D01*
X158974802Y-132419995D01*
X158974802Y-132420004D01*
X131115500Y-132420004D01*
X131115500Y-131701655D01*
X131114846Y-131681672D01*
X131113785Y-131665486D01*
X131111825Y-131645591D01*
X131094571Y-131514542D01*
X131086775Y-131475350D01*
X131078397Y-131444083D01*
X131065552Y-131406244D01*
X131052801Y-131375459D01*
X131018111Y-131291710D01*
X131010943Y-131277175D01*
X131000432Y-131255859D01*
X131000431Y-131255857D01*
X131000424Y-131255843D01*
X130990810Y-131239194D01*
X130984247Y-131227826D01*
X130962047Y-131194601D01*
X130881580Y-131089734D01*
X130868895Y-131074277D01*
X130858200Y-131062082D01*
X130854677Y-131058321D01*
X130844535Y-131047492D01*
X127985145Y-128188102D01*
X158979500Y-128188102D01*
X158984981Y-128233746D01*
X158990122Y-128276561D01*
X159045639Y-128417343D01*
X159137077Y-128537922D01*
X159257656Y-128629360D01*
X159257657Y-128629360D01*
X159257658Y-128629361D01*
X159398436Y-128684877D01*
X159486898Y-128695500D01*
X159486903Y-128695500D01*
X161823097Y-128695500D01*
X161823102Y-128695500D01*
X161911564Y-128684877D01*
X162052342Y-128629361D01*
X162172922Y-128537922D01*
X162264361Y-128417342D01*
X162319877Y-128276564D01*
X162330500Y-128188102D01*
X162330500Y-125851898D01*
X162319877Y-125763436D01*
X162264361Y-125622658D01*
X162264360Y-125622657D01*
X162264360Y-125622656D01*
X162172922Y-125502077D01*
X162052343Y-125410639D01*
X161911561Y-125355122D01*
X161865926Y-125349642D01*
X161823102Y-125344500D01*
X159486898Y-125344500D01*
X159447853Y-125349188D01*
X159398438Y-125355122D01*
X159257656Y-125410639D01*
X159137077Y-125502077D01*
X159045639Y-125622656D01*
X158990122Y-125763438D01*
X158984520Y-125810091D01*
X158979500Y-125851898D01*
X158979500Y-128188102D01*
X127985145Y-128188102D01*
X126127506Y-126330463D01*
X126112936Y-126316817D01*
X126112917Y-126316799D01*
X126100722Y-126306104D01*
X126085265Y-126293419D01*
X126085248Y-126293405D01*
X125980414Y-126212964D01*
X125980390Y-126212946D01*
X125947171Y-126190750D01*
X125919154Y-126174574D01*
X125919133Y-126174563D01*
X125883287Y-126156886D01*
X125883281Y-126156884D01*
X125768769Y-126109452D01*
X125768755Y-126109447D01*
X125768754Y-126109446D01*
X125768750Y-126109445D01*
X125750388Y-126103212D01*
X125730910Y-126096600D01*
X125730906Y-126096599D01*
X125699651Y-126088224D01*
X125699643Y-126088222D01*
X125660452Y-126080427D01*
X125529397Y-126063173D01*
X125509534Y-126061216D01*
X125493332Y-126060154D01*
X125489582Y-126060031D01*
X125473345Y-126059500D01*
X121258127Y-126059500D01*
X121240807Y-126060066D01*
X121238141Y-126060154D01*
X121221951Y-126061215D01*
X121202056Y-126063175D01*
X121071019Y-126080426D01*
X121071009Y-126080428D01*
X121031816Y-126088224D01*
X121031797Y-126088229D01*
X121000564Y-126096598D01*
X120962726Y-126109443D01*
X120848169Y-126156893D01*
X120812314Y-126174576D01*
X120812310Y-126174578D01*
X120784310Y-126190744D01*
X120751081Y-126212946D01*
X120652710Y-126288428D01*
X120622660Y-126314780D01*
X120599780Y-126337660D01*
X120573428Y-126367710D01*
X120497946Y-126466081D01*
X120475744Y-126499310D01*
X120459578Y-126527310D01*
X120459576Y-126527314D01*
X120441895Y-126563164D01*
X120394445Y-126677718D01*
X120381599Y-126715562D01*
X120373223Y-126746821D01*
X120365429Y-126786008D01*
X120348173Y-126917074D01*
X120346216Y-126936937D01*
X120345154Y-126953139D01*
X120344500Y-126973139D01*
X120344500Y-131188331D01*
X107790500Y-131188331D01*
X107790500Y-130874458D01*
X107793334Y-130848099D01*
X107794167Y-130844270D01*
X107794166Y-130844269D01*
X107790815Y-130797424D01*
X107790500Y-130788577D01*
X107790500Y-130775990D01*
X107790500Y-130775989D01*
X107788706Y-130763514D01*
X107787762Y-130754735D01*
X107784411Y-130707885D01*
X107783044Y-130704221D01*
X107776487Y-130678530D01*
X107775931Y-130674658D01*
X107772652Y-130667479D01*
X107756422Y-130631941D01*
X107753042Y-130623783D01*
X107736629Y-130579774D01*
X107734278Y-130576634D01*
X107720756Y-130553844D01*
X107719130Y-130550282D01*
X107688379Y-130514793D01*
X107682825Y-130507900D01*
X107675286Y-130497829D01*
X107675284Y-130497826D01*
X107675279Y-130497820D01*
X107666372Y-130488913D01*
X107660354Y-130482450D01*
X107629589Y-130446945D01*
X107626291Y-130444825D01*
X107605651Y-130428192D01*
X106134640Y-128957181D01*
X106101155Y-128895858D01*
X106106139Y-128826166D01*
X106148011Y-128770233D01*
X106213475Y-128745816D01*
X106222321Y-128745500D01*
X106748337Y-128745500D01*
X106815376Y-128765185D01*
X106830561Y-128776683D01*
X106914147Y-128850733D01*
X106914149Y-128850735D01*
X107053812Y-128924036D01*
X107064775Y-128929790D01*
X107229944Y-128970500D01*
X107400056Y-128970500D01*
X107565225Y-128929790D01*
X107715852Y-128850734D01*
X107799436Y-128776684D01*
X107862668Y-128746963D01*
X107881663Y-128745500D01*
X108018337Y-128745500D01*
X108085376Y-128765185D01*
X108100561Y-128776683D01*
X108184147Y-128850733D01*
X108184149Y-128850735D01*
X108323812Y-128924036D01*
X108334775Y-128929790D01*
X108499944Y-128970500D01*
X108670056Y-128970500D01*
X108835225Y-128929790D01*
X108916474Y-128887147D01*
X108985849Y-128850736D01*
X108985850Y-128850734D01*
X108985852Y-128850734D01*
X109113183Y-128737929D01*
X109209818Y-128597930D01*
X109270140Y-128438872D01*
X109290645Y-128270000D01*
X109270140Y-128101128D01*
X109209818Y-127942070D01*
X109193645Y-127918640D01*
X109157221Y-127865871D01*
X109113183Y-127802071D01*
X108985852Y-127689266D01*
X108985849Y-127689263D01*
X108835226Y-127610210D01*
X108670056Y-127569500D01*
X108499944Y-127569500D01*
X108334773Y-127610210D01*
X108184149Y-127689264D01*
X108184147Y-127689266D01*
X108100564Y-127763315D01*
X108037332Y-127793037D01*
X108018337Y-127794500D01*
X107881663Y-127794500D01*
X107814624Y-127774815D01*
X107799436Y-127763315D01*
X107715852Y-127689266D01*
X107715850Y-127689264D01*
X107565226Y-127610210D01*
X107400056Y-127569500D01*
X107229944Y-127569500D01*
X107064773Y-127610210D01*
X106914149Y-127689264D01*
X106914147Y-127689266D01*
X106830564Y-127763315D01*
X106767332Y-127793037D01*
X106748337Y-127794500D01*
X95804453Y-127794500D01*
X95778101Y-127791667D01*
X95774270Y-127790834D01*
X95774267Y-127790834D01*
X95727434Y-127794184D01*
X95718587Y-127794500D01*
X95705989Y-127794500D01*
X95693508Y-127796293D01*
X95684726Y-127797238D01*
X95637885Y-127800589D01*
X95637882Y-127800590D01*
X95634214Y-127801958D01*
X95608538Y-127808511D01*
X95604660Y-127809068D01*
X95604657Y-127809069D01*
X95577368Y-127821531D01*
X95561935Y-127828578D01*
X95553771Y-127831960D01*
X95509775Y-127848371D01*
X95509768Y-127848375D01*
X95506626Y-127850727D01*
X95483858Y-127864236D01*
X95480286Y-127865867D01*
X95480280Y-127865871D01*
X95444794Y-127896618D01*
X95437913Y-127902163D01*
X95427826Y-127909714D01*
X95418900Y-127918640D01*
X95412436Y-127924656D01*
X95392341Y-127942070D01*
X95376945Y-127955411D01*
X95376942Y-127955413D01*
X95374823Y-127958712D01*
X95358194Y-127979345D01*
X95135887Y-128201652D01*
X95074564Y-128235137D01*
X95016113Y-128233746D01*
X94828624Y-128183509D01*
X94828620Y-128183508D01*
X94828619Y-128183508D01*
X94828618Y-128183507D01*
X94828613Y-128183507D01*
X94615002Y-128164819D01*
X94614998Y-128164819D01*
X94401386Y-128183507D01*
X94401375Y-128183509D01*
X94194260Y-128239005D01*
X94194251Y-128239009D01*
X93999910Y-128329631D01*
X93999908Y-128329632D01*
X93824259Y-128452623D01*
X93824253Y-128452628D01*
X93672628Y-128604253D01*
X93672623Y-128604259D01*
X93549632Y-128779908D01*
X93549631Y-128779910D01*
X93459009Y-128974251D01*
X93459005Y-128974260D01*
X93403509Y-129181375D01*
X93403507Y-129181386D01*
X93384819Y-129394998D01*
X93384819Y-129395001D01*
X93403507Y-129608613D01*
X93403509Y-129608624D01*
X93459005Y-129815739D01*
X93459007Y-129815743D01*
X93459008Y-129815747D01*
X93477657Y-129855739D01*
X93549631Y-130010090D01*
X93549632Y-130010091D01*
X93672627Y-130185745D01*
X93824255Y-130337373D01*
X93999909Y-130460368D01*
X94194253Y-130550992D01*
X94401381Y-130606492D01*
X94553966Y-130619841D01*
X94614998Y-130625181D01*
X94615000Y-130625181D01*
X94615002Y-130625181D01*
X94668404Y-130620508D01*
X94828619Y-130606492D01*
X95035747Y-130550992D01*
X95214977Y-130467415D01*
X95284053Y-130456924D01*
X95347837Y-130485444D01*
X95386076Y-130543920D01*
X95386631Y-130613788D01*
X95355061Y-130667479D01*
X94324345Y-131698194D01*
X94303712Y-131714823D01*
X94300413Y-131716942D01*
X94300406Y-131716949D01*
X94269663Y-131752428D01*
X94263641Y-131758898D01*
X94254718Y-131767821D01*
X94247156Y-131777922D01*
X94241613Y-131784800D01*
X94210872Y-131820278D01*
X94210868Y-131820284D01*
X94209237Y-131823856D01*
X94195725Y-131846629D01*
X94193372Y-131849772D01*
X94193370Y-131849776D01*
X94176960Y-131893771D01*
X94173575Y-131901943D01*
X94154069Y-131944658D01*
X94154068Y-131944661D01*
X94153511Y-131948537D01*
X94146959Y-131974211D01*
X94145589Y-131977883D01*
X94142237Y-132024725D01*
X94141293Y-132033508D01*
X94139500Y-132045984D01*
X94139500Y-132058577D01*
X94139184Y-132067425D01*
X94135833Y-132114268D01*
X94135833Y-132114270D01*
X94136666Y-132118099D01*
X94139500Y-132144458D01*
X94139500Y-132385542D01*
X94119815Y-132452581D01*
X94067906Y-132497923D01*
X93999915Y-132529628D01*
X93999908Y-132529632D01*
X93824259Y-132652623D01*
X93824253Y-132652628D01*
X93672628Y-132804253D01*
X93672623Y-132804259D01*
X93549632Y-132979908D01*
X93549631Y-132979910D01*
X93459009Y-133174251D01*
X93459005Y-133174260D01*
X93403509Y-133381375D01*
X93403507Y-133381386D01*
X93384819Y-133594998D01*
X93384819Y-133595001D01*
X93060500Y-133595001D01*
X93060500Y-125195001D01*
X93384819Y-125195001D01*
X93403507Y-125408613D01*
X93403509Y-125408624D01*
X93459005Y-125615739D01*
X93459007Y-125615743D01*
X93459008Y-125615747D01*
X93483262Y-125667760D01*
X93549631Y-125810090D01*
X93578906Y-125851898D01*
X93672627Y-125985745D01*
X93824255Y-126137373D01*
X93999909Y-126260368D01*
X94194253Y-126350992D01*
X94401381Y-126406492D01*
X94553966Y-126419841D01*
X94614998Y-126425181D01*
X94615000Y-126425181D01*
X94615002Y-126425181D01*
X94668404Y-126420508D01*
X94828619Y-126406492D01*
X95035747Y-126350992D01*
X95230091Y-126260368D01*
X95405745Y-126137373D01*
X95557373Y-125985745D01*
X95680368Y-125810091D01*
X95712076Y-125742092D01*
X95758245Y-125689657D01*
X95824456Y-125670500D01*
X96355542Y-125670500D01*
X96381898Y-125673333D01*
X96385729Y-125674167D01*
X96432575Y-125670815D01*
X96441423Y-125670500D01*
X96454011Y-125670500D01*
X96466485Y-125668706D01*
X96475266Y-125667761D01*
X96522115Y-125664411D01*
X96525781Y-125663043D01*
X96551469Y-125656487D01*
X96555342Y-125655931D01*
X96598072Y-125636415D01*
X96606207Y-125633045D01*
X96650226Y-125616629D01*
X96653358Y-125614283D01*
X96676158Y-125600756D01*
X96677731Y-125600037D01*
X96679718Y-125599130D01*
X96715206Y-125568378D01*
X96722084Y-125562835D01*
X96732180Y-125555279D01*
X96741098Y-125546360D01*
X96747565Y-125540340D01*
X96783055Y-125509589D01*
X96785171Y-125506295D01*
X96801803Y-125485654D01*
X97032457Y-125255000D01*
X101742785Y-125255000D01*
X101761602Y-125458082D01*
X101817417Y-125654247D01*
X101817422Y-125654260D01*
X101908327Y-125836821D01*
X102031237Y-125999581D01*
X102181958Y-126136980D01*
X102181960Y-126136982D01*
X102214116Y-126156892D01*
X102355363Y-126244348D01*
X102545544Y-126318024D01*
X102746024Y-126355500D01*
X102746026Y-126355500D01*
X102949974Y-126355500D01*
X102949976Y-126355500D01*
X103150456Y-126318024D01*
X103340637Y-126244348D01*
X103514041Y-126136981D01*
X103664764Y-125999579D01*
X103787673Y-125836821D01*
X103878582Y-125654250D01*
X103934397Y-125458083D01*
X103953215Y-125255000D01*
X103934397Y-125051917D01*
X103878582Y-124855750D01*
X103787673Y-124673179D01*
X103664764Y-124510421D01*
X103664762Y-124510418D01*
X103514041Y-124373019D01*
X103514039Y-124373017D01*
X103340642Y-124265655D01*
X103340635Y-124265651D01*
X103169475Y-124199344D01*
X103150456Y-124191976D01*
X102949976Y-124154500D01*
X102746024Y-124154500D01*
X102545544Y-124191976D01*
X102545541Y-124191976D01*
X102545541Y-124191977D01*
X102355364Y-124265651D01*
X102355357Y-124265655D01*
X102181960Y-124373017D01*
X102181958Y-124373019D01*
X102031237Y-124510418D01*
X101908327Y-124673178D01*
X101817422Y-124855739D01*
X101817417Y-124855752D01*
X101761602Y-125051917D01*
X101742785Y-125254999D01*
X101742785Y-125255000D01*
X97032457Y-125255000D01*
X99077457Y-123210000D01*
X149389785Y-123210000D01*
X149408602Y-123413082D01*
X149464417Y-123609247D01*
X149464422Y-123609260D01*
X149555327Y-123791821D01*
X149678237Y-123954581D01*
X149828958Y-124091980D01*
X149828960Y-124091982D01*
X149928141Y-124153392D01*
X150002363Y-124199348D01*
X150192544Y-124273024D01*
X150393024Y-124310500D01*
X150393026Y-124310500D01*
X150596974Y-124310500D01*
X150596976Y-124310500D01*
X150797456Y-124273024D01*
X150987637Y-124199348D01*
X151161041Y-124091981D01*
X151311764Y-123954579D01*
X151434673Y-123791821D01*
X151525582Y-123609250D01*
X151581397Y-123413083D01*
X151600215Y-123210002D01*
X154190034Y-123210002D01*
X154209858Y-123436599D01*
X154209860Y-123436610D01*
X154268730Y-123656317D01*
X154268735Y-123656331D01*
X154364863Y-123862478D01*
X154415974Y-123935472D01*
X155097046Y-123254400D01*
X155109835Y-123335148D01*
X155167359Y-123448045D01*
X155256955Y-123537641D01*
X155369852Y-123595165D01*
X155450599Y-123607953D01*
X154769526Y-124289025D01*
X154842513Y-124340132D01*
X154842521Y-124340136D01*
X155048668Y-124436264D01*
X155048682Y-124436269D01*
X155268389Y-124495139D01*
X155268400Y-124495141D01*
X155494998Y-124514966D01*
X155495002Y-124514966D01*
X155721599Y-124495141D01*
X155721610Y-124495139D01*
X155941317Y-124436269D01*
X155941331Y-124436264D01*
X156147478Y-124340136D01*
X156220471Y-124289024D01*
X155539400Y-123607953D01*
X155620148Y-123595165D01*
X155733045Y-123537641D01*
X155822641Y-123448045D01*
X155880165Y-123335148D01*
X155892953Y-123254400D01*
X156574024Y-123935471D01*
X156625136Y-123862478D01*
X156721264Y-123656331D01*
X156721269Y-123656317D01*
X156780139Y-123436610D01*
X156780141Y-123436599D01*
X156799966Y-123210002D01*
X156799966Y-123209997D01*
X156780141Y-122983400D01*
X156780139Y-122983389D01*
X156721269Y-122763682D01*
X156721264Y-122763668D01*
X156625136Y-122557521D01*
X156625132Y-122557513D01*
X156574025Y-122484526D01*
X155892953Y-123165598D01*
X155880165Y-123084852D01*
X155822641Y-122971955D01*
X155733045Y-122882359D01*
X155620148Y-122824835D01*
X155539401Y-122812046D01*
X156220472Y-122130974D01*
X156147478Y-122079863D01*
X155941331Y-121983735D01*
X155941317Y-121983730D01*
X155721610Y-121924860D01*
X155721599Y-121924858D01*
X155495002Y-121905034D01*
X155494998Y-121905034D01*
X155268400Y-121924858D01*
X155268389Y-121924860D01*
X155048682Y-121983730D01*
X155048673Y-121983734D01*
X154842516Y-122079866D01*
X154842512Y-122079868D01*
X154769526Y-122130973D01*
X154769526Y-122130974D01*
X155450599Y-122812046D01*
X155369852Y-122824835D01*
X155256955Y-122882359D01*
X155167359Y-122971955D01*
X155109835Y-123084852D01*
X155097046Y-123165598D01*
X154415974Y-122484526D01*
X154415973Y-122484526D01*
X154364868Y-122557512D01*
X154364866Y-122557516D01*
X154268734Y-122763673D01*
X154268730Y-122763682D01*
X154209860Y-122983389D01*
X154209858Y-122983400D01*
X154190034Y-123209997D01*
X154190034Y-123210002D01*
X151600215Y-123210002D01*
X151600215Y-123210000D01*
X151581397Y-123006917D01*
X151525582Y-122810750D01*
X151434673Y-122628179D01*
X151375704Y-122550091D01*
X151311762Y-122465418D01*
X151161041Y-122328019D01*
X151161039Y-122328017D01*
X150987642Y-122220655D01*
X150987635Y-122220651D01*
X150892546Y-122183814D01*
X150797456Y-122146976D01*
X150596976Y-122109500D01*
X150393024Y-122109500D01*
X150192544Y-122146976D01*
X150192541Y-122146976D01*
X150192541Y-122146977D01*
X150002364Y-122220651D01*
X150002357Y-122220655D01*
X149828960Y-122328017D01*
X149828958Y-122328019D01*
X149678237Y-122465418D01*
X149555327Y-122628178D01*
X149464422Y-122810739D01*
X149464417Y-122810752D01*
X149408602Y-123006917D01*
X149389785Y-123209999D01*
X149389785Y-123210000D01*
X99077457Y-123210000D01*
X108520640Y-113766819D01*
X108581963Y-113733334D01*
X108608321Y-113730500D01*
X108670056Y-113730500D01*
X108835225Y-113689790D01*
X108914692Y-113648081D01*
X108985849Y-113610736D01*
X108985850Y-113610734D01*
X108985852Y-113610734D01*
X109113183Y-113497929D01*
X109209818Y-113357930D01*
X109270140Y-113198872D01*
X109287384Y-113056859D01*
X120344500Y-113056859D01*
X120345154Y-113076859D01*
X120346216Y-113093061D01*
X120348173Y-113112924D01*
X120365429Y-113243987D01*
X120373224Y-113283181D01*
X120381598Y-113314435D01*
X120394447Y-113352284D01*
X120394452Y-113352298D01*
X120441889Y-113466822D01*
X120459553Y-113502641D01*
X120459558Y-113502650D01*
X120459567Y-113502668D01*
X120475752Y-113530701D01*
X120475761Y-113530714D01*
X120497952Y-113563926D01*
X120573429Y-113662290D01*
X120573432Y-113662295D01*
X120597545Y-113689789D01*
X120599778Y-113692335D01*
X120622666Y-113715223D01*
X120652712Y-113741572D01*
X120751074Y-113817047D01*
X120773418Y-113831977D01*
X120784298Y-113839247D01*
X120812320Y-113855426D01*
X120812324Y-113855428D01*
X120812331Y-113855432D01*
X120848173Y-113873107D01*
X120848178Y-113873109D01*
X120848182Y-113873111D01*
X120962718Y-113920553D01*
X120962724Y-113920555D01*
X121000542Y-113933393D01*
X121000572Y-113933402D01*
X121018729Y-113938266D01*
X121031822Y-113941775D01*
X121071014Y-113949571D01*
X121202063Y-113966825D01*
X121221958Y-113968785D01*
X121238144Y-113969846D01*
X121258127Y-113970500D01*
X121258139Y-113970500D01*
X125473333Y-113970500D01*
X125473345Y-113970500D01*
X125493328Y-113969846D01*
X125509514Y-113968785D01*
X125529409Y-113966825D01*
X125660457Y-113949571D01*
X125699649Y-113941775D01*
X125723677Y-113935336D01*
X125730898Y-113933402D01*
X125730903Y-113933400D01*
X125730916Y-113933397D01*
X125768755Y-113920552D01*
X125883298Y-113873107D01*
X125919140Y-113855432D01*
X125919147Y-113855427D01*
X125919155Y-113855424D01*
X125928037Y-113850295D01*
X125947173Y-113839247D01*
X125980398Y-113817047D01*
X126085265Y-113736580D01*
X126100722Y-113723895D01*
X126112917Y-113713200D01*
X126127505Y-113699536D01*
X126797037Y-113030004D01*
X158974802Y-113030004D01*
X158993567Y-113280419D01*
X159043212Y-113497927D01*
X159049448Y-113525247D01*
X159049450Y-113525252D01*
X159141194Y-113759011D01*
X159141193Y-113759011D01*
X159207067Y-113873107D01*
X159266755Y-113976489D01*
X159340082Y-114068438D01*
X159423331Y-114172829D01*
X159597107Y-114334069D01*
X159607414Y-114343632D01*
X159814901Y-114485094D01*
X159814906Y-114485096D01*
X159814907Y-114485097D01*
X159814908Y-114485098D01*
X159935070Y-114542964D01*
X160041151Y-114594050D01*
X160041152Y-114594050D01*
X160041155Y-114594052D01*
X160281121Y-114668072D01*
X160529439Y-114705500D01*
X160529440Y-114705500D01*
X160780560Y-114705500D01*
X160780561Y-114705500D01*
X161028879Y-114668072D01*
X161268845Y-114594052D01*
X161447629Y-114507953D01*
X161495091Y-114485098D01*
X161495091Y-114485097D01*
X161495099Y-114485094D01*
X161702586Y-114343632D01*
X161886672Y-114172825D01*
X162043245Y-113976489D01*
X162168806Y-113759011D01*
X162260552Y-113525247D01*
X162316432Y-113280421D01*
X162330100Y-113098028D01*
X162335198Y-113030004D01*
X162335198Y-113029995D01*
X162316432Y-112779580D01*
X162298741Y-112702070D01*
X162260552Y-112534753D01*
X162168806Y-112300989D01*
X162168805Y-112300988D01*
X162168806Y-112300988D01*
X162122847Y-112221385D01*
X162043245Y-112083511D01*
X161886672Y-111887175D01*
X161886671Y-111887174D01*
X161886668Y-111887170D01*
X161702586Y-111716368D01*
X161495099Y-111574906D01*
X161495095Y-111574904D01*
X161495092Y-111574902D01*
X161495091Y-111574901D01*
X161268847Y-111465949D01*
X161268849Y-111465949D01*
X161028887Y-111391930D01*
X161028883Y-111391929D01*
X161028879Y-111391928D01*
X160909432Y-111373924D01*
X160780566Y-111354500D01*
X160780561Y-111354500D01*
X160529439Y-111354500D01*
X160529433Y-111354500D01*
X160374792Y-111377809D01*
X160281121Y-111391928D01*
X160281118Y-111391929D01*
X160281112Y-111391930D01*
X160041151Y-111465949D01*
X159814908Y-111574901D01*
X159814907Y-111574902D01*
X159607413Y-111716368D01*
X159423331Y-111887170D01*
X159266755Y-112083511D01*
X159141194Y-112300988D01*
X159049450Y-112534747D01*
X159049445Y-112534764D01*
X158993567Y-112779580D01*
X158974802Y-113029995D01*
X158974802Y-113030004D01*
X126797037Y-113030004D01*
X130607041Y-109220000D01*
X149429785Y-109220000D01*
X149448602Y-109423082D01*
X149504417Y-109619247D01*
X149504422Y-109619260D01*
X149595327Y-109801821D01*
X149718237Y-109964581D01*
X149868958Y-110101980D01*
X149868960Y-110101982D01*
X149968141Y-110163392D01*
X150042363Y-110209348D01*
X150232544Y-110283024D01*
X150433024Y-110320500D01*
X150433026Y-110320500D01*
X150636974Y-110320500D01*
X150636976Y-110320500D01*
X150837456Y-110283024D01*
X151027637Y-110209348D01*
X151201041Y-110101981D01*
X151351764Y-109964579D01*
X151474673Y-109801821D01*
X151565582Y-109619250D01*
X151621397Y-109423083D01*
X151640215Y-109220002D01*
X154230034Y-109220002D01*
X154249858Y-109446599D01*
X154249860Y-109446610D01*
X154308730Y-109666317D01*
X154308735Y-109666331D01*
X154404863Y-109872478D01*
X154455974Y-109945472D01*
X155137046Y-109264400D01*
X155149835Y-109345148D01*
X155207359Y-109458045D01*
X155296955Y-109547641D01*
X155409852Y-109605165D01*
X155490599Y-109617953D01*
X154809526Y-110299025D01*
X154882513Y-110350132D01*
X154882521Y-110350136D01*
X155088668Y-110446264D01*
X155088682Y-110446269D01*
X155308389Y-110505139D01*
X155308400Y-110505141D01*
X155534998Y-110524966D01*
X155535002Y-110524966D01*
X155761599Y-110505141D01*
X155761610Y-110505139D01*
X155981317Y-110446269D01*
X155981331Y-110446264D01*
X156187478Y-110350136D01*
X156260471Y-110299024D01*
X155579400Y-109617953D01*
X155660148Y-109605165D01*
X155773045Y-109547641D01*
X155862641Y-109458045D01*
X155920165Y-109345148D01*
X155932953Y-109264400D01*
X156614024Y-109945471D01*
X156665136Y-109872478D01*
X156761264Y-109666331D01*
X156761269Y-109666317D01*
X156820139Y-109446610D01*
X156820141Y-109446599D01*
X156839966Y-109220002D01*
X156839966Y-109219997D01*
X156820141Y-108993400D01*
X156820139Y-108993389D01*
X156767812Y-108798102D01*
X158979500Y-108798102D01*
X158983568Y-108831976D01*
X158990122Y-108886561D01*
X159045639Y-109027343D01*
X159137077Y-109147922D01*
X159257656Y-109239360D01*
X159257657Y-109239360D01*
X159257658Y-109239361D01*
X159398436Y-109294877D01*
X159486898Y-109305500D01*
X159486903Y-109305500D01*
X161823097Y-109305500D01*
X161823102Y-109305500D01*
X161911564Y-109294877D01*
X162052342Y-109239361D01*
X162172922Y-109147922D01*
X162264361Y-109027342D01*
X162319877Y-108886564D01*
X162330500Y-108798102D01*
X162330500Y-106461898D01*
X162319877Y-106373436D01*
X162264361Y-106232658D01*
X162264360Y-106232657D01*
X162264360Y-106232656D01*
X162172922Y-106112077D01*
X162052343Y-106020639D01*
X161911561Y-105965122D01*
X161865926Y-105959642D01*
X161823102Y-105954500D01*
X159486898Y-105954500D01*
X159447853Y-105959188D01*
X159398438Y-105965122D01*
X159257656Y-106020639D01*
X159137077Y-106112077D01*
X159045639Y-106232656D01*
X158990122Y-106373438D01*
X158987771Y-106393019D01*
X158979500Y-106461898D01*
X158979500Y-108798102D01*
X156767812Y-108798102D01*
X156761269Y-108773682D01*
X156761264Y-108773668D01*
X156665136Y-108567521D01*
X156665132Y-108567513D01*
X156614025Y-108494526D01*
X155932953Y-109175598D01*
X155920165Y-109094852D01*
X155862641Y-108981955D01*
X155773045Y-108892359D01*
X155660148Y-108834835D01*
X155579401Y-108822046D01*
X156260472Y-108140974D01*
X156187478Y-108089863D01*
X155981331Y-107993735D01*
X155981317Y-107993730D01*
X155761610Y-107934860D01*
X155761599Y-107934858D01*
X155535002Y-107915034D01*
X155534998Y-107915034D01*
X155308400Y-107934858D01*
X155308389Y-107934860D01*
X155088682Y-107993730D01*
X155088673Y-107993734D01*
X154882516Y-108089866D01*
X154882512Y-108089868D01*
X154809526Y-108140973D01*
X154809526Y-108140974D01*
X155490599Y-108822046D01*
X155409852Y-108834835D01*
X155296955Y-108892359D01*
X155207359Y-108981955D01*
X155149835Y-109094852D01*
X155137046Y-109175598D01*
X154455974Y-108494526D01*
X154455973Y-108494526D01*
X154404868Y-108567512D01*
X154404866Y-108567516D01*
X154308734Y-108773673D01*
X154308730Y-108773682D01*
X154249860Y-108993389D01*
X154249858Y-108993400D01*
X154230034Y-109219997D01*
X154230034Y-109220002D01*
X151640215Y-109220002D01*
X151640215Y-109220000D01*
X151621397Y-109016917D01*
X151565582Y-108820750D01*
X151557981Y-108805486D01*
X151482818Y-108654537D01*
X151474673Y-108638179D01*
X151381998Y-108515457D01*
X151351762Y-108475418D01*
X151201041Y-108338019D01*
X151201039Y-108338017D01*
X151027642Y-108230655D01*
X151027635Y-108230651D01*
X150837471Y-108156982D01*
X150837456Y-108156976D01*
X150636976Y-108119500D01*
X150433024Y-108119500D01*
X150232544Y-108156976D01*
X150232541Y-108156976D01*
X150232541Y-108156977D01*
X150042364Y-108230651D01*
X150042357Y-108230655D01*
X149868960Y-108338017D01*
X149868958Y-108338019D01*
X149718237Y-108475418D01*
X149595327Y-108638178D01*
X149504422Y-108820739D01*
X149504417Y-108820752D01*
X149448602Y-109016917D01*
X149429785Y-109219999D01*
X149429785Y-109220000D01*
X130607041Y-109220000D01*
X130844536Y-108982505D01*
X130858200Y-108967917D01*
X130868895Y-108955722D01*
X130881580Y-108940265D01*
X130962047Y-108835398D01*
X130984247Y-108802173D01*
X130995295Y-108783037D01*
X131000424Y-108774155D01*
X131000427Y-108774147D01*
X131000432Y-108774140D01*
X131018107Y-108738298D01*
X131065552Y-108623755D01*
X131078397Y-108585916D01*
X131086775Y-108554649D01*
X131094571Y-108515457D01*
X131111825Y-108384408D01*
X131113785Y-108364513D01*
X131114846Y-108348327D01*
X131115500Y-108328344D01*
X131115500Y-105410002D01*
X131410034Y-105410002D01*
X131429858Y-105636599D01*
X131429860Y-105636610D01*
X131488730Y-105856317D01*
X131488735Y-105856331D01*
X131584863Y-106062478D01*
X131635974Y-106135472D01*
X132317046Y-105454400D01*
X132329835Y-105535148D01*
X132387359Y-105648045D01*
X132476955Y-105737641D01*
X132589852Y-105795165D01*
X132670599Y-105807953D01*
X131989526Y-106489025D01*
X132062513Y-106540132D01*
X132062521Y-106540136D01*
X132268668Y-106636264D01*
X132268682Y-106636269D01*
X132488389Y-106695139D01*
X132488400Y-106695141D01*
X132714998Y-106714966D01*
X132715002Y-106714966D01*
X132941599Y-106695141D01*
X132941610Y-106695139D01*
X133161317Y-106636269D01*
X133161331Y-106636264D01*
X133367478Y-106540136D01*
X133440471Y-106489024D01*
X132759400Y-105807953D01*
X132840148Y-105795165D01*
X132953045Y-105737641D01*
X133042641Y-105648045D01*
X133100165Y-105535148D01*
X133112953Y-105454400D01*
X133794024Y-106135471D01*
X133845136Y-106062478D01*
X133941264Y-105856331D01*
X133941269Y-105856317D01*
X134000139Y-105636610D01*
X134000141Y-105636599D01*
X134019966Y-105410002D01*
X134019966Y-105409997D01*
X134000141Y-105183400D01*
X134000139Y-105183389D01*
X133941269Y-104963682D01*
X133941264Y-104963668D01*
X133845136Y-104757521D01*
X133845132Y-104757513D01*
X133794025Y-104684526D01*
X133112953Y-105365598D01*
X133100165Y-105284852D01*
X133042641Y-105171955D01*
X132953045Y-105082359D01*
X132840148Y-105024835D01*
X132759401Y-105012046D01*
X133440472Y-104330974D01*
X133367478Y-104279863D01*
X133161331Y-104183735D01*
X133161317Y-104183730D01*
X132941610Y-104124860D01*
X132941599Y-104124858D01*
X132715002Y-104105034D01*
X132714998Y-104105034D01*
X132488400Y-104124858D01*
X132488389Y-104124860D01*
X132268682Y-104183730D01*
X132268673Y-104183734D01*
X132062516Y-104279866D01*
X132062512Y-104279868D01*
X131989526Y-104330973D01*
X131989526Y-104330974D01*
X132670599Y-105012046D01*
X132589852Y-105024835D01*
X132476955Y-105082359D01*
X132387359Y-105171955D01*
X132329835Y-105284852D01*
X132317046Y-105365598D01*
X131635974Y-104684526D01*
X131635973Y-104684526D01*
X131584868Y-104757512D01*
X131584866Y-104757516D01*
X131488734Y-104963673D01*
X131488730Y-104963682D01*
X131429860Y-105183389D01*
X131429858Y-105183400D01*
X131410034Y-105409997D01*
X131410034Y-105410002D01*
X131115500Y-105410002D01*
X131115500Y-103478127D01*
X131114846Y-103458144D01*
X131113785Y-103441958D01*
X131111825Y-103422063D01*
X131094571Y-103291014D01*
X131086775Y-103251822D01*
X131078397Y-103220555D01*
X131077316Y-103217372D01*
X131065555Y-103182724D01*
X131065553Y-103182718D01*
X131018111Y-103068182D01*
X131018107Y-103068173D01*
X131000432Y-103032331D01*
X130998329Y-103028689D01*
X130984247Y-103004298D01*
X130962052Y-102971082D01*
X130962047Y-102971074D01*
X130886572Y-102872712D01*
X130860223Y-102842666D01*
X130837335Y-102819778D01*
X130837334Y-102819777D01*
X130837331Y-102819774D01*
X130807295Y-102793432D01*
X130807290Y-102793429D01*
X130708940Y-102717962D01*
X130708930Y-102717955D01*
X130708926Y-102717952D01*
X130675702Y-102695752D01*
X130672731Y-102694036D01*
X130647682Y-102679574D01*
X130647661Y-102679563D01*
X130611815Y-102661886D01*
X130611809Y-102661884D01*
X130497297Y-102614452D01*
X130497283Y-102614447D01*
X130497282Y-102614446D01*
X130497278Y-102614445D01*
X130478916Y-102608212D01*
X130459438Y-102601600D01*
X130459434Y-102601599D01*
X130428179Y-102593224D01*
X130428171Y-102593222D01*
X130388980Y-102585427D01*
X130257925Y-102568173D01*
X130238062Y-102566216D01*
X130221860Y-102565154D01*
X130218110Y-102565031D01*
X130201873Y-102564500D01*
X126621655Y-102564500D01*
X126604335Y-102565066D01*
X126601669Y-102565154D01*
X126585479Y-102566215D01*
X126565584Y-102568175D01*
X126434547Y-102585426D01*
X126434537Y-102585428D01*
X126395344Y-102593224D01*
X126395325Y-102593229D01*
X126364092Y-102601598D01*
X126326254Y-102614443D01*
X126211697Y-102661893D01*
X126175842Y-102679576D01*
X126175838Y-102679578D01*
X126147838Y-102695744D01*
X126114596Y-102717955D01*
X126009733Y-102798419D01*
X125994269Y-102811111D01*
X125982091Y-102821791D01*
X125967490Y-102835466D01*
X120615466Y-108187490D01*
X120601791Y-108202091D01*
X120591111Y-108214269D01*
X120578419Y-108229733D01*
X120497955Y-108334596D01*
X120475744Y-108367838D01*
X120459578Y-108395838D01*
X120459576Y-108395842D01*
X120441893Y-108431697D01*
X120394443Y-108546254D01*
X120381598Y-108584092D01*
X120373229Y-108615325D01*
X120373224Y-108615344D01*
X120365428Y-108654537D01*
X120365426Y-108654547D01*
X120348175Y-108785584D01*
X120346215Y-108805479D01*
X120345154Y-108821669D01*
X120344500Y-108841667D01*
X120344500Y-113056859D01*
X109287384Y-113056859D01*
X109290645Y-113030000D01*
X109270140Y-112861128D01*
X109209818Y-112702070D01*
X109113183Y-112562071D01*
X109113181Y-112562069D01*
X109102273Y-112552405D01*
X109065146Y-112493216D01*
X109060500Y-112459590D01*
X109060500Y-112330409D01*
X109080185Y-112263370D01*
X109102274Y-112237593D01*
X109113183Y-112227929D01*
X109209818Y-112087930D01*
X109270140Y-111928872D01*
X109290645Y-111760000D01*
X109270140Y-111591128D01*
X109209818Y-111432070D01*
X109182110Y-111391929D01*
X109156275Y-111354500D01*
X109113183Y-111292071D01*
X108985852Y-111179266D01*
X108985849Y-111179263D01*
X108835226Y-111100210D01*
X108670056Y-111059500D01*
X108499944Y-111059500D01*
X108334773Y-111100210D01*
X108184150Y-111179263D01*
X108056816Y-111292072D01*
X107960182Y-111432068D01*
X107899860Y-111591125D01*
X107899859Y-111591130D01*
X107879355Y-111760000D01*
X107899859Y-111928869D01*
X107899860Y-111928874D01*
X107960182Y-112087931D01*
X108056816Y-112227928D01*
X108056817Y-112227929D01*
X108067724Y-112237592D01*
X108104853Y-112296779D01*
X108109500Y-112330409D01*
X108109500Y-112459590D01*
X108089815Y-112526629D01*
X108067727Y-112552405D01*
X108056818Y-112562069D01*
X107960182Y-112702068D01*
X107899860Y-112861125D01*
X107899859Y-112861131D01*
X107879926Y-113025294D01*
X107852304Y-113089472D01*
X107844511Y-113098028D01*
X96259360Y-124683181D01*
X96198037Y-124716666D01*
X96171679Y-124719500D01*
X95824457Y-124719500D01*
X95757418Y-124699815D01*
X95712075Y-124647906D01*
X95680368Y-124579910D01*
X95680365Y-124579907D01*
X95680365Y-124579905D01*
X95557376Y-124404259D01*
X95557371Y-124404253D01*
X95405745Y-124252627D01*
X95230090Y-124129631D01*
X95132919Y-124084320D01*
X95035747Y-124039008D01*
X95035743Y-124039007D01*
X95035739Y-124039005D01*
X94828624Y-123983509D01*
X94828620Y-123983508D01*
X94828619Y-123983508D01*
X94828618Y-123983507D01*
X94828613Y-123983507D01*
X94615002Y-123964819D01*
X94614998Y-123964819D01*
X94401386Y-123983507D01*
X94401375Y-123983509D01*
X94194260Y-124039005D01*
X94194251Y-124039009D01*
X93999910Y-124129631D01*
X93999908Y-124129632D01*
X93824259Y-124252623D01*
X93824253Y-124252628D01*
X93672628Y-124404253D01*
X93672623Y-124404259D01*
X93549632Y-124579908D01*
X93549631Y-124579910D01*
X93459009Y-124774251D01*
X93459005Y-124774260D01*
X93403509Y-124981375D01*
X93403507Y-124981386D01*
X93384819Y-125194998D01*
X93384819Y-125195001D01*
X93060500Y-125195001D01*
X93060500Y-115593102D01*
X93389500Y-115593102D01*
X93395081Y-115639579D01*
X93400122Y-115681561D01*
X93455639Y-115822343D01*
X93547077Y-115942922D01*
X93667656Y-116034360D01*
X93667657Y-116034360D01*
X93667658Y-116034361D01*
X93808436Y-116089877D01*
X93896898Y-116100500D01*
X93896903Y-116100500D01*
X95333097Y-116100500D01*
X95333102Y-116100500D01*
X95421564Y-116089877D01*
X95562342Y-116034361D01*
X95682922Y-115942922D01*
X95774361Y-115822342D01*
X95829877Y-115681564D01*
X95840500Y-115593102D01*
X95840500Y-114895000D01*
X101764785Y-114895000D01*
X101783602Y-115098082D01*
X101839417Y-115294247D01*
X101839422Y-115294260D01*
X101930327Y-115476821D01*
X102053237Y-115639581D01*
X102203958Y-115776980D01*
X102203960Y-115776982D01*
X102277220Y-115822342D01*
X102377363Y-115884348D01*
X102567544Y-115958024D01*
X102768024Y-115995500D01*
X102768026Y-115995500D01*
X102971974Y-115995500D01*
X102971976Y-115995500D01*
X103172456Y-115958024D01*
X103362637Y-115884348D01*
X103536041Y-115776981D01*
X103686764Y-115639579D01*
X103809673Y-115476821D01*
X103900582Y-115294250D01*
X103956397Y-115098083D01*
X103975215Y-114895000D01*
X103956397Y-114691917D01*
X103900582Y-114495750D01*
X103895277Y-114485097D01*
X103856272Y-114406764D01*
X103809673Y-114313179D01*
X103686764Y-114150421D01*
X103686762Y-114150418D01*
X103536041Y-114013019D01*
X103536039Y-114013017D01*
X103362642Y-113905655D01*
X103362635Y-113905651D01*
X103232988Y-113855426D01*
X103172456Y-113831976D01*
X102971976Y-113794500D01*
X102768024Y-113794500D01*
X102567544Y-113831976D01*
X102567541Y-113831976D01*
X102567541Y-113831977D01*
X102377364Y-113905651D01*
X102377357Y-113905655D01*
X102203960Y-114013017D01*
X102203958Y-114013019D01*
X102053237Y-114150418D01*
X101930327Y-114313178D01*
X101839422Y-114495739D01*
X101839417Y-114495752D01*
X101783602Y-114691917D01*
X101764785Y-114894999D01*
X101764785Y-114895000D01*
X95840500Y-114895000D01*
X95840500Y-114156898D01*
X95829877Y-114068436D01*
X95774361Y-113927658D01*
X95774360Y-113927657D01*
X95774360Y-113927656D01*
X95682922Y-113807077D01*
X95562343Y-113715639D01*
X95466192Y-113677722D01*
X95421564Y-113660123D01*
X95421563Y-113660122D01*
X95421561Y-113660122D01*
X95375926Y-113654642D01*
X95333102Y-113649500D01*
X93896898Y-113649500D01*
X93857853Y-113654188D01*
X93808438Y-113660122D01*
X93667656Y-113715639D01*
X93547077Y-113807077D01*
X93455639Y-113927656D01*
X93400122Y-114068438D01*
X93394188Y-114117853D01*
X93389500Y-114156898D01*
X93389500Y-115593102D01*
X93060500Y-115593102D01*
X93060500Y-110675001D01*
X93384819Y-110675001D01*
X93403507Y-110888613D01*
X93403509Y-110888624D01*
X93459005Y-111095739D01*
X93459007Y-111095743D01*
X93459008Y-111095747D01*
X93497952Y-111179263D01*
X93549631Y-111290090D01*
X93549632Y-111290091D01*
X93672627Y-111465745D01*
X93824255Y-111617373D01*
X93999909Y-111740368D01*
X94194253Y-111830992D01*
X94401381Y-111886492D01*
X94553966Y-111899841D01*
X94614998Y-111905181D01*
X94615000Y-111905181D01*
X94615002Y-111905181D01*
X94668404Y-111900508D01*
X94828619Y-111886492D01*
X95035747Y-111830992D01*
X95230091Y-111740368D01*
X95405745Y-111617373D01*
X95557373Y-111465745D01*
X95680368Y-111290091D01*
X95770992Y-111095747D01*
X95826492Y-110888619D01*
X95845181Y-110675000D01*
X95826492Y-110461381D01*
X95770992Y-110254253D01*
X95680368Y-110059910D01*
X95613616Y-109964579D01*
X95564897Y-109895000D01*
X101764785Y-109895000D01*
X101783602Y-110098082D01*
X101839417Y-110294247D01*
X101839422Y-110294260D01*
X101930327Y-110476821D01*
X102053237Y-110639581D01*
X102203958Y-110776980D01*
X102203960Y-110776982D01*
X102303141Y-110838392D01*
X102377363Y-110884348D01*
X102567544Y-110958024D01*
X102768024Y-110995500D01*
X102768026Y-110995500D01*
X102971974Y-110995500D01*
X102971976Y-110995500D01*
X103172456Y-110958024D01*
X103362637Y-110884348D01*
X103536041Y-110776981D01*
X103686764Y-110639579D01*
X103809673Y-110476821D01*
X103900582Y-110294250D01*
X103956397Y-110098083D01*
X103975215Y-109895000D01*
X103956397Y-109691917D01*
X103900582Y-109495750D01*
X103884527Y-109463508D01*
X103856272Y-109406764D01*
X103809673Y-109313179D01*
X103686764Y-109150421D01*
X103686762Y-109150418D01*
X103536041Y-109013019D01*
X103536039Y-109013017D01*
X103362642Y-108905655D01*
X103362635Y-108905651D01*
X103267546Y-108868814D01*
X103172456Y-108831976D01*
X102971976Y-108794500D01*
X102768024Y-108794500D01*
X102567544Y-108831976D01*
X102567541Y-108831976D01*
X102567541Y-108831977D01*
X102377364Y-108905651D01*
X102377357Y-108905655D01*
X102203960Y-109013017D01*
X102203958Y-109013019D01*
X102053237Y-109150418D01*
X101930327Y-109313178D01*
X101839422Y-109495739D01*
X101839417Y-109495752D01*
X101783602Y-109691917D01*
X101764785Y-109894999D01*
X101764785Y-109895000D01*
X95564897Y-109895000D01*
X95557376Y-109884259D01*
X95557371Y-109884253D01*
X95405745Y-109732627D01*
X95230090Y-109609631D01*
X95132919Y-109564320D01*
X95035747Y-109519008D01*
X95035743Y-109519007D01*
X95035739Y-109519005D01*
X94828624Y-109463509D01*
X94828620Y-109463508D01*
X94828619Y-109463508D01*
X94828618Y-109463507D01*
X94828613Y-109463507D01*
X94615002Y-109444819D01*
X94614998Y-109444819D01*
X94401386Y-109463507D01*
X94401375Y-109463509D01*
X94194260Y-109519005D01*
X94194251Y-109519009D01*
X93999910Y-109609631D01*
X93999908Y-109609632D01*
X93824259Y-109732623D01*
X93824253Y-109732628D01*
X93672628Y-109884253D01*
X93672623Y-109884259D01*
X93549632Y-110059908D01*
X93549631Y-110059910D01*
X93459009Y-110254251D01*
X93459005Y-110254260D01*
X93403509Y-110461375D01*
X93403507Y-110461386D01*
X93384819Y-110674998D01*
X93384819Y-110675001D01*
X93060500Y-110675001D01*
X93060500Y-106475001D01*
X93384819Y-106475001D01*
X93403507Y-106688613D01*
X93403509Y-106688624D01*
X93459005Y-106895739D01*
X93459007Y-106895743D01*
X93459008Y-106895747D01*
X93504320Y-106992919D01*
X93549631Y-107090090D01*
X93549632Y-107090091D01*
X93672627Y-107265745D01*
X93824255Y-107417373D01*
X93999909Y-107540368D01*
X94194253Y-107630992D01*
X94401381Y-107686492D01*
X94553966Y-107699841D01*
X94614998Y-107705181D01*
X94615000Y-107705181D01*
X94615002Y-107705181D01*
X94668404Y-107700508D01*
X94828619Y-107686492D01*
X95035747Y-107630992D01*
X95230091Y-107540368D01*
X95405745Y-107417373D01*
X95548118Y-107275000D01*
X101764785Y-107275000D01*
X101783602Y-107478082D01*
X101839417Y-107674247D01*
X101839422Y-107674260D01*
X101930327Y-107856821D01*
X102053237Y-108019581D01*
X102203958Y-108156980D01*
X102203960Y-108156982D01*
X102253233Y-108187490D01*
X102377363Y-108264348D01*
X102567544Y-108338024D01*
X102768024Y-108375500D01*
X102768026Y-108375500D01*
X102971974Y-108375500D01*
X102971976Y-108375500D01*
X103172456Y-108338024D01*
X103362637Y-108264348D01*
X103536041Y-108156981D01*
X103686764Y-108019579D01*
X103809673Y-107856821D01*
X103900582Y-107674250D01*
X103956397Y-107478083D01*
X103975215Y-107275000D01*
X103974357Y-107265745D01*
X103956397Y-107071917D01*
X103944274Y-107029309D01*
X103900582Y-106875750D01*
X103809673Y-106693179D01*
X103750704Y-106615091D01*
X103686762Y-106530418D01*
X103536041Y-106393019D01*
X103536039Y-106393017D01*
X103362642Y-106285655D01*
X103362635Y-106285651D01*
X103225843Y-106232658D01*
X103172456Y-106211976D01*
X102971976Y-106174500D01*
X102768024Y-106174500D01*
X102567544Y-106211976D01*
X102567541Y-106211976D01*
X102567541Y-106211977D01*
X102377364Y-106285651D01*
X102377357Y-106285655D01*
X102203960Y-106393017D01*
X102203958Y-106393019D01*
X102053237Y-106530418D01*
X101930327Y-106693178D01*
X101839422Y-106875739D01*
X101839417Y-106875752D01*
X101783602Y-107071917D01*
X101764785Y-107274999D01*
X101764785Y-107275000D01*
X95548118Y-107275000D01*
X95557373Y-107265745D01*
X95680368Y-107090091D01*
X95770992Y-106895747D01*
X95826492Y-106688619D01*
X95845181Y-106475000D01*
X95826492Y-106261381D01*
X95770992Y-106054253D01*
X95680368Y-105859910D01*
X95677852Y-105856317D01*
X95557376Y-105684259D01*
X95557371Y-105684253D01*
X95405745Y-105532627D01*
X95230090Y-105409631D01*
X95132919Y-105364320D01*
X95035747Y-105319008D01*
X95035743Y-105319007D01*
X95035739Y-105319005D01*
X94828624Y-105263509D01*
X94828620Y-105263508D01*
X94828619Y-105263508D01*
X94828618Y-105263507D01*
X94828613Y-105263507D01*
X94615002Y-105244819D01*
X94614998Y-105244819D01*
X94401386Y-105263507D01*
X94401375Y-105263509D01*
X94194260Y-105319005D01*
X94194251Y-105319009D01*
X93999910Y-105409631D01*
X93999908Y-105409632D01*
X93824259Y-105532623D01*
X93824253Y-105532628D01*
X93672628Y-105684253D01*
X93672623Y-105684259D01*
X93549632Y-105859908D01*
X93549631Y-105859910D01*
X93459009Y-106054251D01*
X93459005Y-106054260D01*
X93403509Y-106261375D01*
X93403507Y-106261386D01*
X93384819Y-106474998D01*
X93384819Y-106475001D01*
X93060500Y-106475001D01*
X93060500Y-105029002D01*
X112921652Y-105029002D01*
X112941028Y-105386368D01*
X112941029Y-105386385D01*
X112998926Y-105739539D01*
X112998932Y-105739565D01*
X113094672Y-106084392D01*
X113094674Y-106084399D01*
X113227142Y-106416870D01*
X113227151Y-106416888D01*
X113394784Y-106733077D01*
X113394787Y-106733082D01*
X113394789Y-106733085D01*
X113505076Y-106895747D01*
X113595634Y-107029309D01*
X113595641Y-107029319D01*
X113804324Y-107274999D01*
X113827332Y-107302086D01*
X114087163Y-107548211D01*
X114372081Y-107764800D01*
X114678747Y-107949315D01*
X114678749Y-107949316D01*
X114678751Y-107949317D01*
X114678755Y-107949319D01*
X114830621Y-108019579D01*
X115003565Y-108099591D01*
X115342726Y-108213868D01*
X115692254Y-108290805D01*
X116048052Y-108329500D01*
X116048058Y-108329500D01*
X116405942Y-108329500D01*
X116405948Y-108329500D01*
X116761746Y-108290805D01*
X117111274Y-108213868D01*
X117450435Y-108099591D01*
X117775253Y-107949315D01*
X118081919Y-107764800D01*
X118366837Y-107548211D01*
X118626668Y-107302086D01*
X118858365Y-107029311D01*
X119059211Y-106733085D01*
X119226853Y-106416880D01*
X119359324Y-106084403D01*
X119455071Y-105739552D01*
X119488581Y-105535148D01*
X119512970Y-105386385D01*
X119512970Y-105386382D01*
X119512972Y-105386371D01*
X119532348Y-105029000D01*
X119512972Y-104671629D01*
X119455071Y-104318448D01*
X119359324Y-103973597D01*
X119226853Y-103641120D01*
X119059211Y-103324915D01*
X118858365Y-103028689D01*
X118858361Y-103028684D01*
X118858358Y-103028680D01*
X118626668Y-102755914D01*
X118366837Y-102509789D01*
X118366830Y-102509783D01*
X118366827Y-102509781D01*
X118299245Y-102458407D01*
X118081919Y-102293200D01*
X117775253Y-102108685D01*
X117775252Y-102108684D01*
X117775248Y-102108682D01*
X117775244Y-102108680D01*
X117450447Y-101958414D01*
X117450441Y-101958411D01*
X117450435Y-101958409D01*
X117205113Y-101875750D01*
X117111273Y-101844131D01*
X116761744Y-101767194D01*
X116405949Y-101728500D01*
X116405948Y-101728500D01*
X116048052Y-101728500D01*
X116048050Y-101728500D01*
X115692255Y-101767194D01*
X115342726Y-101844131D01*
X115086970Y-101930306D01*
X115003565Y-101958409D01*
X115003563Y-101958410D01*
X115003552Y-101958414D01*
X114678755Y-102108680D01*
X114678751Y-102108682D01*
X114450367Y-102246096D01*
X114372081Y-102293200D01*
X114283768Y-102360333D01*
X114087172Y-102509781D01*
X114087163Y-102509789D01*
X113827331Y-102755914D01*
X113595641Y-103028680D01*
X113595634Y-103028690D01*
X113394790Y-103324913D01*
X113394784Y-103324922D01*
X113227151Y-103641111D01*
X113227142Y-103641129D01*
X113094674Y-103973600D01*
X113094672Y-103973607D01*
X112998932Y-104318434D01*
X112998926Y-104318460D01*
X112941029Y-104671614D01*
X112941028Y-104671631D01*
X112921652Y-105028997D01*
X112921652Y-105029002D01*
X93060500Y-105029002D01*
X93060500Y-102275001D01*
X93384819Y-102275001D01*
X93403507Y-102488613D01*
X93403509Y-102488624D01*
X93459005Y-102695739D01*
X93459007Y-102695743D01*
X93459008Y-102695747D01*
X93504320Y-102792919D01*
X93549631Y-102890090D01*
X93549632Y-102890091D01*
X93672627Y-103065745D01*
X93824255Y-103217373D01*
X93999909Y-103340368D01*
X94194253Y-103430992D01*
X94194259Y-103430993D01*
X94194260Y-103430994D01*
X94235190Y-103441961D01*
X94401381Y-103486492D01*
X94553966Y-103499841D01*
X94614998Y-103505181D01*
X94615000Y-103505181D01*
X94615002Y-103505181D01*
X94668404Y-103500508D01*
X94828619Y-103486492D01*
X95035747Y-103430992D01*
X95230091Y-103340368D01*
X95405745Y-103217373D01*
X95557373Y-103065745D01*
X95680368Y-102890091D01*
X95770992Y-102695747D01*
X95826492Y-102488619D01*
X95845181Y-102275000D01*
X101764785Y-102275000D01*
X101783602Y-102478082D01*
X101839417Y-102674247D01*
X101839422Y-102674260D01*
X101930327Y-102856821D01*
X102053237Y-103019581D01*
X102203958Y-103156980D01*
X102203960Y-103156982D01*
X102245535Y-103182724D01*
X102377363Y-103264348D01*
X102567544Y-103338024D01*
X102768024Y-103375500D01*
X102768026Y-103375500D01*
X102971974Y-103375500D01*
X102971976Y-103375500D01*
X103172456Y-103338024D01*
X103362637Y-103264348D01*
X103536041Y-103156981D01*
X103686764Y-103019579D01*
X103809673Y-102856821D01*
X103900582Y-102674250D01*
X103956397Y-102478083D01*
X103975215Y-102275000D01*
X103956397Y-102071917D01*
X103900582Y-101875750D01*
X103889881Y-101854260D01*
X103846528Y-101767194D01*
X103809673Y-101693179D01*
X103686764Y-101530421D01*
X103686762Y-101530418D01*
X103536041Y-101393019D01*
X103536039Y-101393017D01*
X103362642Y-101285655D01*
X103362635Y-101285651D01*
X103267546Y-101248814D01*
X103172456Y-101211976D01*
X102971976Y-101174500D01*
X102768024Y-101174500D01*
X102567544Y-101211976D01*
X102567541Y-101211976D01*
X102567541Y-101211977D01*
X102377364Y-101285651D01*
X102377357Y-101285655D01*
X102203960Y-101393017D01*
X102203958Y-101393019D01*
X102053237Y-101530418D01*
X101930327Y-101693178D01*
X101839422Y-101875739D01*
X101839417Y-101875752D01*
X101783602Y-102071917D01*
X101764785Y-102274999D01*
X101764785Y-102275000D01*
X95845181Y-102275000D01*
X95826492Y-102061381D01*
X95770992Y-101854253D01*
X95680368Y-101659910D01*
X95557373Y-101484255D01*
X95405745Y-101332627D01*
X95405739Y-101332623D01*
X95230090Y-101209631D01*
X95132919Y-101164320D01*
X95035747Y-101119008D01*
X95035743Y-101119007D01*
X95035739Y-101119005D01*
X94828624Y-101063509D01*
X94828620Y-101063508D01*
X94828619Y-101063508D01*
X94828618Y-101063507D01*
X94828613Y-101063507D01*
X94615002Y-101044819D01*
X94614998Y-101044819D01*
X94401386Y-101063507D01*
X94401375Y-101063509D01*
X94194260Y-101119005D01*
X94194251Y-101119009D01*
X93999910Y-101209631D01*
X93999908Y-101209632D01*
X93824259Y-101332623D01*
X93824253Y-101332628D01*
X93672628Y-101484253D01*
X93672623Y-101484259D01*
X93549632Y-101659908D01*
X93549631Y-101659910D01*
X93459009Y-101854251D01*
X93459005Y-101854260D01*
X93403509Y-102061375D01*
X93403507Y-102061386D01*
X93384819Y-102274998D01*
X93384819Y-102275001D01*
X93060500Y-102275001D01*
X93060500Y-97995458D01*
X93080185Y-97928419D01*
X93132989Y-97882664D01*
X93202147Y-97872720D01*
X93265703Y-97901745D01*
X93279005Y-97915179D01*
X93485332Y-98158086D01*
X93745163Y-98404211D01*
X94030081Y-98620800D01*
X94336747Y-98805315D01*
X94336749Y-98805316D01*
X94336751Y-98805317D01*
X94336755Y-98805319D01*
X94661552Y-98955585D01*
X94661565Y-98955591D01*
X95000726Y-99069868D01*
X95350254Y-99146805D01*
X95706052Y-99185500D01*
X95706058Y-99185500D01*
X96063942Y-99185500D01*
X96063948Y-99185500D01*
X96419746Y-99146805D01*
X96769274Y-99069868D01*
X97108435Y-98955591D01*
X97433253Y-98805315D01*
X97739919Y-98620800D01*
X98024837Y-98404211D01*
X98284668Y-98158086D01*
X98516365Y-97885311D01*
X98717211Y-97589085D01*
X98884853Y-97272880D01*
X99017324Y-96940403D01*
X99113071Y-96595552D01*
X99156390Y-96331317D01*
X99170970Y-96242385D01*
X99170970Y-96242382D01*
X99170972Y-96242371D01*
X99190348Y-95885000D01*
X99170972Y-95527629D01*
X99166511Y-95500421D01*
X99113073Y-95174460D01*
X99113072Y-95174459D01*
X99113071Y-95174448D01*
X99064636Y-95000000D01*
X125440000Y-95000000D01*
X126472712Y-95000000D01*
X126466922Y-95014532D01*
X126436131Y-95202349D01*
X126446435Y-95392394D01*
X126476312Y-95500000D01*
X125440001Y-95500000D01*
X125440001Y-96424986D01*
X125450494Y-96527697D01*
X125505641Y-96694119D01*
X125505643Y-96694124D01*
X125597684Y-96843345D01*
X125721654Y-96967315D01*
X125870875Y-97059356D01*
X125870880Y-97059358D01*
X126037302Y-97114505D01*
X126037309Y-97114506D01*
X126140019Y-97124999D01*
X127064999Y-97124999D01*
X127065000Y-97124998D01*
X127065000Y-96090917D01*
X127219838Y-96125000D01*
X127362445Y-96125000D01*
X127504208Y-96109582D01*
X127565000Y-96089099D01*
X127565000Y-97124999D01*
X128489972Y-97124999D01*
X128489986Y-97124998D01*
X128592697Y-97114505D01*
X128759119Y-97059358D01*
X128759124Y-97059356D01*
X128908345Y-96967315D01*
X129032315Y-96843345D01*
X129124356Y-96694124D01*
X129124358Y-96694119D01*
X129179505Y-96527697D01*
X129179506Y-96527690D01*
X129189999Y-96424986D01*
X129190000Y-96424973D01*
X129190000Y-95500000D01*
X128157288Y-95500000D01*
X128163078Y-95485468D01*
X128193869Y-95297651D01*
X128191286Y-95250004D01*
X131034802Y-95250004D01*
X131053567Y-95500419D01*
X131090510Y-95662274D01*
X131109448Y-95745247D01*
X131109450Y-95745252D01*
X131201194Y-95979011D01*
X131201193Y-95979011D01*
X131261859Y-96084086D01*
X131326755Y-96196489D01*
X131434277Y-96331317D01*
X131483331Y-96392829D01*
X131628678Y-96527690D01*
X131667414Y-96563632D01*
X131874901Y-96705094D01*
X131874906Y-96705096D01*
X131874907Y-96705097D01*
X131874908Y-96705098D01*
X131995070Y-96762964D01*
X132101151Y-96814050D01*
X132101152Y-96814050D01*
X132101155Y-96814052D01*
X132341121Y-96888072D01*
X132589439Y-96925500D01*
X132589440Y-96925500D01*
X132840560Y-96925500D01*
X132840561Y-96925500D01*
X133088879Y-96888072D01*
X133328845Y-96814052D01*
X133555099Y-96705094D01*
X133762586Y-96563632D01*
X133946672Y-96392825D01*
X134103245Y-96196489D01*
X134228806Y-95979011D01*
X134265703Y-95885000D01*
X149389785Y-95885000D01*
X149408602Y-96088082D01*
X149464417Y-96284247D01*
X149464422Y-96284260D01*
X149555327Y-96466821D01*
X149678237Y-96629581D01*
X149828958Y-96766980D01*
X149828960Y-96766982D01*
X149904978Y-96814050D01*
X150002363Y-96874348D01*
X150192544Y-96948024D01*
X150393024Y-96985500D01*
X150393026Y-96985500D01*
X150596974Y-96985500D01*
X150596976Y-96985500D01*
X150797456Y-96948024D01*
X150987637Y-96874348D01*
X151161041Y-96766981D01*
X151311764Y-96629579D01*
X151434673Y-96466821D01*
X151525582Y-96284250D01*
X151581397Y-96088083D01*
X151600215Y-95885000D01*
X151581397Y-95681917D01*
X151525582Y-95485750D01*
X151434673Y-95303179D01*
X151358530Y-95202349D01*
X151311762Y-95140418D01*
X151161041Y-95003019D01*
X151161039Y-95003017D01*
X150987642Y-94895655D01*
X150987635Y-94895651D01*
X150892546Y-94858814D01*
X150797456Y-94821976D01*
X150596976Y-94784500D01*
X150393024Y-94784500D01*
X150192544Y-94821976D01*
X150192541Y-94821976D01*
X150192541Y-94821977D01*
X150002364Y-94895651D01*
X150002357Y-94895655D01*
X149828960Y-95003017D01*
X149828958Y-95003019D01*
X149678237Y-95140418D01*
X149555327Y-95303178D01*
X149464422Y-95485739D01*
X149464417Y-95485752D01*
X149408602Y-95681917D01*
X149389785Y-95884999D01*
X149389785Y-95885000D01*
X134265703Y-95885000D01*
X134320552Y-95745247D01*
X134376432Y-95500421D01*
X134395198Y-95250000D01*
X134393887Y-95232512D01*
X134379559Y-95041315D01*
X134376432Y-94999579D01*
X134320552Y-94754753D01*
X134228806Y-94520989D01*
X134228805Y-94520988D01*
X134228806Y-94520988D01*
X134168141Y-94415914D01*
X134103245Y-94303511D01*
X133946672Y-94107175D01*
X133946671Y-94107174D01*
X133946668Y-94107170D01*
X133762586Y-93936368D01*
X133699223Y-93893168D01*
X133555099Y-93794906D01*
X133555095Y-93794904D01*
X133555092Y-93794902D01*
X133555091Y-93794901D01*
X133328847Y-93685949D01*
X133328849Y-93685949D01*
X133088887Y-93611930D01*
X133088883Y-93611929D01*
X133088879Y-93611928D01*
X132969432Y-93593924D01*
X132840566Y-93574500D01*
X132840561Y-93574500D01*
X132589439Y-93574500D01*
X132589433Y-93574500D01*
X132434792Y-93597809D01*
X132341121Y-93611928D01*
X132341118Y-93611929D01*
X132341112Y-93611930D01*
X132101151Y-93685949D01*
X131874908Y-93794901D01*
X131874907Y-93794902D01*
X131667413Y-93936368D01*
X131483331Y-94107170D01*
X131326755Y-94303511D01*
X131201194Y-94520988D01*
X131109450Y-94754747D01*
X131109445Y-94754764D01*
X131053567Y-94999580D01*
X131034802Y-95249995D01*
X131034802Y-95250004D01*
X128191286Y-95250004D01*
X128183565Y-95107606D01*
X128153688Y-95000000D01*
X129189999Y-95000000D01*
X129189999Y-94075028D01*
X129189998Y-94075013D01*
X129179505Y-93972302D01*
X129124358Y-93805880D01*
X129124356Y-93805875D01*
X129032315Y-93656654D01*
X128908345Y-93532684D01*
X128759124Y-93440643D01*
X128759119Y-93440641D01*
X128592697Y-93385494D01*
X128592690Y-93385493D01*
X128489986Y-93375000D01*
X127565000Y-93375000D01*
X127565000Y-94409082D01*
X127410162Y-94375000D01*
X127267555Y-94375000D01*
X127125792Y-94390418D01*
X127065000Y-94410900D01*
X127065000Y-93375000D01*
X126140028Y-93375000D01*
X126140012Y-93375001D01*
X126037302Y-93385494D01*
X125870880Y-93440641D01*
X125870875Y-93440643D01*
X125721654Y-93532684D01*
X125597684Y-93656654D01*
X125505643Y-93805875D01*
X125505641Y-93805880D01*
X125450494Y-93972302D01*
X125450493Y-93972309D01*
X125440000Y-94075013D01*
X125440000Y-95000000D01*
X99064636Y-95000000D01*
X99017325Y-94829602D01*
X99017325Y-94829600D01*
X99014287Y-94821976D01*
X98930230Y-94611008D01*
X98884857Y-94497129D01*
X98884848Y-94497111D01*
X98884168Y-94495829D01*
X98717211Y-94180915D01*
X98516365Y-93884689D01*
X98516361Y-93884684D01*
X98516358Y-93884680D01*
X98284668Y-93611914D01*
X98024837Y-93365789D01*
X98024830Y-93365783D01*
X98024827Y-93365781D01*
X97916214Y-93283216D01*
X97874756Y-93226975D01*
X97870287Y-93157248D01*
X97904224Y-93096174D01*
X97965792Y-93063142D01*
X97991255Y-93060500D01*
X157913745Y-93060500D01*
X157980784Y-93080185D01*
G37*
%TD.AperFunction*%
%TD*%
M02*
