%TF.GenerationSoftware,KiCad,Pcbnew,7.0.11+dfsg-1build4*%
%TF.CreationDate,2025-07-18T01:50:02+04:00*%
%TF.ProjectId,tpa3116_amplifier_board,74706133-3131-4365-9f61-6d706c696669,rev?*%
%TF.SameCoordinates,Original*%
%TF.FileFunction,Paste,Top*%
%TF.FilePolarity,Positive*%
%FSLAX46Y46*%
G04 Gerber Fmt 4.6, Leading zero omitted, Abs format (unit mm)*
G04 Created by KiCad (PCBNEW 7.0.11+dfsg-1build4) date 2025-07-18 01:50:02*
%MOMM*%
%LPD*%
G01*
G04 APERTURE LIST*
G04 Aperture macros list*
%AMRoundRect*
0 Rectangle with rounded corners*
0 $1 Rounding radius*
0 $2 $3 $4 $5 $6 $7 $8 $9 X,Y pos of 4 corners*
0 Add a 4 corners polygon primitive as box body*
4,1,4,$2,$3,$4,$5,$6,$7,$8,$9,$2,$3,0*
0 Add four circle primitives for the rounded corners*
1,1,$1+$1,$2,$3*
1,1,$1+$1,$4,$5*
1,1,$1+$1,$6,$7*
1,1,$1+$1,$8,$9*
0 Add four rect primitives between the rounded corners*
20,1,$1+$1,$2,$3,$4,$5,0*
20,1,$1+$1,$4,$5,$6,$7,0*
20,1,$1+$1,$6,$7,$8,$9,0*
20,1,$1+$1,$8,$9,$2,$3,0*%
G04 Aperture macros list end*
%ADD10RoundRect,0.200000X-0.200000X-0.275000X0.200000X-0.275000X0.200000X0.275000X-0.200000X0.275000X0*%
%ADD11RoundRect,0.200000X0.200000X0.275000X-0.200000X0.275000X-0.200000X-0.275000X0.200000X-0.275000X0*%
%ADD12RoundRect,0.250000X-0.250000X-0.475000X0.250000X-0.475000X0.250000X0.475000X-0.250000X0.475000X0*%
%ADD13RoundRect,0.225000X-0.250000X0.225000X-0.250000X-0.225000X0.250000X-0.225000X0.250000X0.225000X0*%
%ADD14RoundRect,0.225000X0.225000X0.250000X-0.225000X0.250000X-0.225000X-0.250000X0.225000X-0.250000X0*%
%ADD15RoundRect,0.225000X0.250000X-0.225000X0.250000X0.225000X-0.250000X0.225000X-0.250000X-0.225000X0*%
%ADD16R,2.900000X5.400000*%
%ADD17RoundRect,0.225000X-0.225000X-0.250000X0.225000X-0.250000X0.225000X0.250000X-0.225000X0.250000X0*%
%ADD18RoundRect,0.200000X0.275000X-0.200000X0.275000X0.200000X-0.275000X0.200000X-0.275000X-0.200000X0*%
%ADD19R,1.475000X0.450000*%
%ADD20R,3.040000X3.740000*%
%ADD21RoundRect,0.200000X-0.275000X0.200000X-0.275000X-0.200000X0.275000X-0.200000X0.275000X0.200000X0*%
G04 APERTURE END LIST*
D10*
%TO.C,R4*%
X113643000Y-118110000D03*
X115293000Y-118110000D03*
%TD*%
D11*
%TO.C,R6*%
X115315000Y-128270000D03*
X113665000Y-128270000D03*
%TD*%
D12*
%TO.C,C6*%
X108589999Y-120014999D03*
X110489999Y-120014999D03*
%TD*%
D11*
%TO.C,R7*%
X117833000Y-108585000D03*
X116183000Y-108585000D03*
%TD*%
D13*
%TO.C,C12*%
X133963000Y-117335000D03*
X133963000Y-118885000D03*
%TD*%
D14*
%TO.C,C7*%
X127613000Y-112395000D03*
X126063000Y-112395000D03*
%TD*%
D11*
%TO.C,R5*%
X115315000Y-130810000D03*
X113665000Y-130810000D03*
%TD*%
D15*
%TO.C,C13*%
X133963000Y-122060000D03*
X133963000Y-120510000D03*
%TD*%
D14*
%TO.C,C9*%
X127613000Y-127635000D03*
X126063000Y-127635000D03*
%TD*%
D16*
%TO.C,L2*%
X139195000Y-127000000D03*
X149095000Y-127000000D03*
%TD*%
D15*
%TO.C,C11*%
X133985000Y-113665000D03*
X133985000Y-112115000D03*
%TD*%
D13*
%TO.C,C20*%
X152400000Y-129400000D03*
X152400000Y-130950000D03*
%TD*%
D17*
%TO.C,C8*%
X126063000Y-109855000D03*
X127613000Y-109855000D03*
%TD*%
D18*
%TO.C,R8*%
X154940000Y-110680000D03*
X154940000Y-109030000D03*
%TD*%
D19*
%TO.C,IC1*%
X120672000Y-115140000D03*
X120672000Y-115790000D03*
X120672000Y-116440000D03*
X120672000Y-117090000D03*
X120672000Y-117740000D03*
X120672000Y-118390000D03*
X120672000Y-119040000D03*
X120672000Y-119690000D03*
X120672000Y-120340000D03*
X120672000Y-120990000D03*
X120672000Y-121640000D03*
X120672000Y-122290000D03*
X120672000Y-122940000D03*
X120672000Y-123590000D03*
X120672000Y-124240000D03*
X120672000Y-124890000D03*
X128248000Y-124890000D03*
X128248000Y-124240000D03*
X128248000Y-123590000D03*
X128248000Y-122940000D03*
X128248000Y-122290000D03*
X128248000Y-121640000D03*
X128248000Y-120990000D03*
X128248000Y-120340000D03*
X128248000Y-119690000D03*
X128248000Y-119040000D03*
X128248000Y-118390000D03*
X128248000Y-117740000D03*
X128248000Y-117090000D03*
X128248000Y-116440000D03*
X128248000Y-115790000D03*
X128248000Y-115140000D03*
D20*
X124460000Y-120015000D03*
%TD*%
D10*
%TO.C,R3*%
X113643000Y-120650000D03*
X115293000Y-120650000D03*
%TD*%
D21*
%TO.C,R9*%
X154940000Y-129350000D03*
X154940000Y-131000000D03*
%TD*%
D17*
%TO.C,C5*%
X108940000Y-118110000D03*
X110490000Y-118110000D03*
%TD*%
D16*
%TO.C,L1*%
X139195000Y-113030000D03*
X149095000Y-113030000D03*
%TD*%
D11*
%TO.C,R2*%
X115293000Y-116205000D03*
X113643000Y-116205000D03*
%TD*%
D14*
%TO.C,C10*%
X127613000Y-130175000D03*
X126063000Y-130175000D03*
%TD*%
D17*
%TO.C,C21*%
X153390000Y-104140000D03*
X154940000Y-104140000D03*
%TD*%
D13*
%TO.C,C14*%
X133963000Y-125730000D03*
X133963000Y-127280000D03*
%TD*%
D11*
%TO.C,R1*%
X115293000Y-122555000D03*
X113643000Y-122555000D03*
%TD*%
D13*
%TO.C,C19*%
X152400000Y-109080000D03*
X152400000Y-110630000D03*
%TD*%
D17*
%TO.C,C22*%
X153390000Y-135610000D03*
X154940000Y-135610000D03*
%TD*%
M02*
