%TF.GenerationSoftware,KiCad,Pcbnew,7.0.11+dfsg-1build4*%
%TF.CreationDate,2025-07-26T23:15:48+04:00*%
%TF.ProjectId,tpa3116_amplifier_board,74706133-3131-4365-9f61-6d706c696669,rev?*%
%TF.SameCoordinates,Original*%
%TF.FileFunction,Copper,L2,Bot*%
%TF.FilePolarity,Positive*%
%FSLAX46Y46*%
G04 Gerber Fmt 4.6, Leading zero omitted, Abs format (unit mm)*
G04 Created by KiCad (PCBNEW 7.0.11+dfsg-1build4) date 2025-07-26 23:15:48*
%MOMM*%
%LPD*%
G01*
G04 APERTURE LIST*
G04 Aperture macros list*
%AMRoundRect*
0 Rectangle with rounded corners*
0 $1 Rounding radius*
0 $2 $3 $4 $5 $6 $7 $8 $9 X,Y pos of 4 corners*
0 Add a 4 corners polygon primitive as box body*
4,1,4,$2,$3,$4,$5,$6,$7,$8,$9,$2,$3,0*
0 Add four circle primitives for the rounded corners*
1,1,$1+$1,$2,$3*
1,1,$1+$1,$4,$5*
1,1,$1+$1,$6,$7*
1,1,$1+$1,$8,$9*
0 Add four rect primitives between the rounded corners*
20,1,$1+$1,$2,$3,$4,$5,0*
20,1,$1+$1,$4,$5,$6,$7,0*
20,1,$1+$1,$6,$7,$8,$9,0*
20,1,$1+$1,$8,$9,$2,$3,0*%
G04 Aperture macros list end*
%TA.AperFunction,ComponentPad*%
%ADD10RoundRect,0.250000X0.675000X-0.675000X0.675000X0.675000X-0.675000X0.675000X-0.675000X-0.675000X0*%
%TD*%
%TA.AperFunction,ComponentPad*%
%ADD11C,1.850000*%
%TD*%
%TA.AperFunction,ComponentPad*%
%ADD12C,5.600000*%
%TD*%
%TA.AperFunction,ComponentPad*%
%ADD13C,1.600000*%
%TD*%
%TA.AperFunction,ComponentPad*%
%ADD14R,2.000000X2.000000*%
%TD*%
%TA.AperFunction,ComponentPad*%
%ADD15C,2.000000*%
%TD*%
%TA.AperFunction,ComponentPad*%
%ADD16RoundRect,0.269607X-1.105393X1.105393X-1.105393X-1.105393X1.105393X-1.105393X1.105393X1.105393X0*%
%TD*%
%TA.AperFunction,ComponentPad*%
%ADD17C,2.750000*%
%TD*%
%TA.AperFunction,ComponentPad*%
%ADD18RoundRect,0.269607X1.105393X-1.105393X1.105393X1.105393X-1.105393X1.105393X-1.105393X-1.105393X0*%
%TD*%
%TA.AperFunction,ViaPad*%
%ADD19C,0.800000*%
%TD*%
%TA.AperFunction,ViaPad*%
%ADD20C,1.000000*%
%TD*%
%TA.AperFunction,Conductor*%
%ADD21C,1.000000*%
%TD*%
%TA.AperFunction,Conductor*%
%ADD22C,0.600000*%
%TD*%
%TA.AperFunction,Conductor*%
%ADD23C,0.350000*%
%TD*%
G04 APERTURE END LIST*
D10*
%TO.P,J1,1,Pin_1*%
%TO.N,/R-*%
X102870000Y-110245000D03*
D11*
%TO.P,J1,2,Pin_2*%
%TO.N,/R+*%
X102870000Y-106045000D03*
%TD*%
D12*
%TO.P,H3,1*%
%TO.N,N/C*%
X158115000Y-142240000D03*
%TD*%
D13*
%TO.P,C2,1*%
%TO.N,/R-*%
X110744000Y-109300000D03*
%TO.P,C2,2*%
%TO.N,Net-(IC1-RINN)*%
X110744000Y-114300000D03*
%TD*%
D12*
%TO.P,H6,1*%
%TO.N,N/C*%
X124460000Y-140000000D03*
%TD*%
D14*
%TO.P,C12,1*%
%TO.N,VCC*%
X139065000Y-100330000D03*
D15*
%TO.P,C12,2*%
%TO.N,GND*%
X144065000Y-100330000D03*
%TD*%
D14*
%TO.P,C13,1*%
%TO.N,VCC*%
X139065000Y-139700000D03*
D15*
%TO.P,C13,2*%
%TO.N,GND*%
X144065000Y-139700000D03*
%TD*%
D13*
%TO.P,C1,1*%
%TO.N,/R+*%
X110744000Y-101680000D03*
%TO.P,C1,2*%
%TO.N,Net-(IC1-RINP)*%
X110744000Y-106680000D03*
%TD*%
D12*
%TO.P,H2,1*%
%TO.N,N/C*%
X104118000Y-142240000D03*
%TD*%
D16*
%TO.P,J4,1,Pin_1*%
%TO.N,Net-(J4-Pin_1)*%
X158750000Y-122200000D03*
D17*
%TO.P,J4,2,Pin_2*%
%TO.N,Net-(J4-Pin_2)*%
X158750000Y-127000000D03*
%TD*%
D18*
%TO.P,J3,1,Pin_1*%
%TO.N,GND*%
X158750000Y-109855000D03*
D17*
%TO.P,J3,2,Pin_2*%
%TO.N,VCC*%
X158750000Y-105055000D03*
%TD*%
D10*
%TO.P,J2,1,Pin_1*%
%TO.N,GND*%
X102870000Y-133985000D03*
D11*
%TO.P,J2,2,Pin_2*%
%TO.N,/sync*%
X102870000Y-129785000D03*
%TO.P,J2,3,Pin_3*%
%TO.N,/mute*%
X102870000Y-125585000D03*
%TO.P,J2,4,Pin_4*%
%TO.N,/SD_LR*%
X102870000Y-121385000D03*
%TD*%
D12*
%TO.P,H1,1*%
%TO.N,N/C*%
X104118000Y-97790000D03*
%TD*%
%TO.P,H5,1*%
%TO.N,N/C*%
X124460000Y-100000000D03*
%TD*%
%TO.P,H4,1*%
%TO.N,N/C*%
X158115000Y-97790000D03*
%TD*%
D19*
%TO.N,GND*%
X122533000Y-113665000D03*
X147320000Y-118110000D03*
X125730000Y-125095000D03*
X144780000Y-121920000D03*
X142240000Y-110490000D03*
X147320000Y-107950000D03*
X137030000Y-118110000D03*
X123190000Y-114935000D03*
X152400000Y-102870000D03*
X111760000Y-123825000D03*
X121263000Y-113665000D03*
X137030000Y-121920000D03*
X122533000Y-109855000D03*
X144780000Y-132080000D03*
X142240000Y-129540000D03*
X125730000Y-122555000D03*
X118110000Y-137795000D03*
X122533000Y-112395000D03*
X123190000Y-107315000D03*
X121263000Y-130175000D03*
X124460000Y-123825000D03*
X109220000Y-116840000D03*
X124460000Y-116205000D03*
X106680000Y-123825000D03*
X128270000Y-142875000D03*
X133350000Y-142875000D03*
X147320000Y-102870000D03*
X121263000Y-126365000D03*
X142240000Y-121920000D03*
X122533000Y-128905000D03*
X144780000Y-134620000D03*
X118110000Y-97155000D03*
X113030000Y-137795000D03*
X121263000Y-111125000D03*
X124460000Y-125095000D03*
X142240000Y-107950000D03*
X111760000Y-127635000D03*
X128270000Y-107315000D03*
X124460000Y-117475000D03*
X147320000Y-121920000D03*
X144780000Y-115570000D03*
X149860000Y-102870000D03*
X147320000Y-137160000D03*
X152400000Y-137160000D03*
X142240000Y-118110000D03*
X121263000Y-127635000D03*
X128270000Y-102235000D03*
X142240000Y-124460000D03*
X122533000Y-111125000D03*
X121263000Y-128905000D03*
X106680000Y-119380000D03*
X142240000Y-132080000D03*
X147320000Y-134620000D03*
X149860000Y-137160000D03*
X149860000Y-100330000D03*
X144780000Y-118110000D03*
X147320000Y-132080000D03*
X125730000Y-116205000D03*
X144780000Y-129540000D03*
X128270000Y-97155000D03*
X123190000Y-122555000D03*
X125730000Y-114935000D03*
X133350000Y-97155000D03*
X107950000Y-137795000D03*
X142240000Y-115570000D03*
X147320000Y-105410000D03*
X144780000Y-110490000D03*
X123190000Y-123825000D03*
X121263000Y-112395000D03*
X107950000Y-132715000D03*
X118110000Y-102235000D03*
X144780000Y-124460000D03*
X123190000Y-117475000D03*
X113030000Y-142875000D03*
X113030000Y-97155000D03*
X124460000Y-122555000D03*
X125730000Y-123825000D03*
X149860000Y-139700000D03*
X106680000Y-127635000D03*
X118110000Y-142875000D03*
X144780000Y-107950000D03*
X124460000Y-114935000D03*
X109220000Y-127635000D03*
X123190000Y-116205000D03*
X153035000Y-95885000D03*
X123190000Y-125095000D03*
X122533000Y-126365000D03*
X144780000Y-105410000D03*
X109220000Y-123825000D03*
X122533000Y-127635000D03*
X121263000Y-109855000D03*
X128270000Y-137795000D03*
X125730000Y-117475000D03*
X122555000Y-130175000D03*
%TO.N,VCC*%
X131445000Y-109220000D03*
X130175000Y-130810000D03*
X130197000Y-127000000D03*
X130175000Y-113030000D03*
X140970000Y-137795000D03*
X140970000Y-141605000D03*
X130197000Y-109220000D03*
X140970000Y-139065000D03*
X131467000Y-127000000D03*
X130175000Y-128270000D03*
X140970000Y-140335000D03*
X140970000Y-98425000D03*
X131445000Y-130810000D03*
X140970000Y-102235000D03*
X131467000Y-113030000D03*
X131445000Y-110490000D03*
X140970000Y-99695000D03*
X131445000Y-111760000D03*
X130175000Y-111760000D03*
X140970000Y-100965000D03*
X130197000Y-129540000D03*
X131445000Y-129540000D03*
X131445000Y-128270000D03*
X130175000Y-110490000D03*
D20*
%TO.N,/SD_LR*%
X116205000Y-110490000D03*
X116205000Y-111760000D03*
%TD*%
D21*
%TO.N,GND*%
X158750000Y-110015000D02*
X156845000Y-110015000D01*
X158750000Y-110015000D02*
X158750000Y-111760000D01*
X158750000Y-110015000D02*
X158750000Y-107950000D01*
D22*
%TO.N,/SD_LR*%
X116205000Y-110490000D02*
X116205000Y-111760000D01*
D23*
X116205000Y-111760000D02*
X106580000Y-121385000D01*
X106580000Y-121385000D02*
X102870000Y-121385000D01*
%TD*%
%TA.AperFunction,Conductor*%
%TO.N,GND*%
G36*
X155686011Y-94985185D02*
G01*
X155731766Y-95037989D01*
X155741710Y-95107147D01*
X155712685Y-95170703D01*
X155706653Y-95177181D01*
X155472846Y-95410987D01*
X155472839Y-95410995D01*
X155238641Y-95700205D01*
X155035959Y-96012309D01*
X154867006Y-96343896D01*
X154733641Y-96691321D01*
X154637319Y-97050799D01*
X154637319Y-97050801D01*
X154579104Y-97418360D01*
X154559627Y-97789999D01*
X154559627Y-97790000D01*
X154579104Y-98161639D01*
X154637319Y-98529198D01*
X154637319Y-98529200D01*
X154733641Y-98888678D01*
X154867006Y-99236103D01*
X155035959Y-99567691D01*
X155238641Y-99879794D01*
X155290500Y-99943834D01*
X155472843Y-100169009D01*
X155735991Y-100432157D01*
X155735995Y-100432160D01*
X156025205Y-100666358D01*
X156337308Y-100869040D01*
X156337313Y-100869043D01*
X156668900Y-101037995D01*
X157016329Y-101171361D01*
X157375796Y-101267680D01*
X157743362Y-101325896D01*
X158094444Y-101344295D01*
X158114999Y-101345373D01*
X158115000Y-101345373D01*
X158115001Y-101345373D01*
X158134478Y-101344352D01*
X158486638Y-101325896D01*
X158854204Y-101267680D01*
X159213671Y-101171361D01*
X159561100Y-101037995D01*
X159892687Y-100869043D01*
X160204796Y-100666357D01*
X160494009Y-100432157D01*
X160727819Y-100198347D01*
X160789142Y-100164862D01*
X160858834Y-100169846D01*
X160914767Y-100211718D01*
X160939184Y-100277182D01*
X160939500Y-100286028D01*
X160939500Y-139743972D01*
X160919815Y-139811011D01*
X160867011Y-139856766D01*
X160797853Y-139866710D01*
X160734297Y-139837685D01*
X160727819Y-139831653D01*
X160494012Y-139597846D01*
X160494004Y-139597839D01*
X160204794Y-139363641D01*
X159892691Y-139160959D01*
X159561103Y-138992006D01*
X159213678Y-138858641D01*
X159213671Y-138858639D01*
X158854204Y-138762320D01*
X158854200Y-138762319D01*
X158854199Y-138762319D01*
X158486639Y-138704104D01*
X158115001Y-138684627D01*
X158114999Y-138684627D01*
X157743360Y-138704104D01*
X157375801Y-138762319D01*
X157375799Y-138762319D01*
X157016321Y-138858641D01*
X156668896Y-138992006D01*
X156337309Y-139160959D01*
X156025205Y-139363641D01*
X155735995Y-139597839D01*
X155735987Y-139597846D01*
X155472846Y-139860987D01*
X155472839Y-139860995D01*
X155238641Y-140150205D01*
X155035959Y-140462309D01*
X154867006Y-140793896D01*
X154733641Y-141141321D01*
X154637319Y-141500799D01*
X154637319Y-141500801D01*
X154579104Y-141868360D01*
X154559627Y-142239999D01*
X154559627Y-142240000D01*
X154579104Y-142611639D01*
X154584368Y-142644875D01*
X154637320Y-142979204D01*
X154661805Y-143070585D01*
X154733641Y-143338678D01*
X154867006Y-143686103D01*
X155035959Y-144017691D01*
X155238641Y-144329794D01*
X155472839Y-144619004D01*
X155472846Y-144619012D01*
X155706653Y-144852819D01*
X155740138Y-144914142D01*
X155735154Y-144983834D01*
X155693282Y-145039767D01*
X155627818Y-145064184D01*
X155618972Y-145064500D01*
X106614028Y-145064500D01*
X106546989Y-145044815D01*
X106501234Y-144992011D01*
X106491290Y-144922853D01*
X106520315Y-144859297D01*
X106526347Y-144852819D01*
X106643138Y-144736028D01*
X106760157Y-144619009D01*
X106994357Y-144329796D01*
X107197043Y-144017687D01*
X107365995Y-143686100D01*
X107499361Y-143338671D01*
X107595680Y-142979204D01*
X107653896Y-142611638D01*
X107673373Y-142240000D01*
X107653896Y-141868362D01*
X107595680Y-141500796D01*
X107499361Y-141141329D01*
X107365995Y-140793900D01*
X107197043Y-140462314D01*
X107128902Y-140357385D01*
X106994358Y-140150205D01*
X106872726Y-140000002D01*
X121154652Y-140000002D01*
X121174028Y-140357368D01*
X121174029Y-140357385D01*
X121231926Y-140710539D01*
X121231932Y-140710565D01*
X121327672Y-141055392D01*
X121327674Y-141055399D01*
X121460142Y-141387870D01*
X121460151Y-141387888D01*
X121627784Y-141704077D01*
X121627787Y-141704082D01*
X121627789Y-141704085D01*
X121790002Y-141943332D01*
X121828634Y-142000309D01*
X121828641Y-142000319D01*
X122047198Y-142257624D01*
X122060332Y-142273086D01*
X122320163Y-142519211D01*
X122605081Y-142735800D01*
X122911747Y-142920315D01*
X122911749Y-142920316D01*
X122911751Y-142920317D01*
X122911755Y-142920319D01*
X123039034Y-142979204D01*
X123236565Y-143070591D01*
X123575726Y-143184868D01*
X123925254Y-143261805D01*
X124281052Y-143300500D01*
X124281058Y-143300500D01*
X124638942Y-143300500D01*
X124638948Y-143300500D01*
X124994746Y-143261805D01*
X125344274Y-143184868D01*
X125683435Y-143070591D01*
X126008253Y-142920315D01*
X126314919Y-142735800D01*
X126599837Y-142519211D01*
X126859668Y-142273086D01*
X127091365Y-142000311D01*
X127292211Y-141704085D01*
X127459853Y-141387880D01*
X127592324Y-141055403D01*
X127688071Y-140710552D01*
X127711133Y-140569882D01*
X127745970Y-140357385D01*
X127745970Y-140357382D01*
X127745972Y-140357371D01*
X127765348Y-140000000D01*
X127745972Y-139642629D01*
X127738630Y-139597846D01*
X127688073Y-139289460D01*
X127688072Y-139289459D01*
X127688071Y-139289448D01*
X127603162Y-138983632D01*
X127592327Y-138944607D01*
X127592325Y-138944600D01*
X127459857Y-138612129D01*
X127459848Y-138612111D01*
X127292215Y-138295922D01*
X127292213Y-138295919D01*
X127292211Y-138295915D01*
X127091365Y-137999689D01*
X127091361Y-137999684D01*
X127091358Y-137999680D01*
X126859668Y-137726914D01*
X126859643Y-137726890D01*
X126599837Y-137480789D01*
X126599830Y-137480783D01*
X126599827Y-137480781D01*
X126498711Y-137403915D01*
X126314919Y-137264200D01*
X126008253Y-137079685D01*
X126008252Y-137079684D01*
X126008248Y-137079682D01*
X126008244Y-137079680D01*
X125683447Y-136929414D01*
X125683441Y-136929411D01*
X125683435Y-136929409D01*
X125513854Y-136872270D01*
X125344273Y-136815131D01*
X124994744Y-136738194D01*
X124638949Y-136699500D01*
X124638948Y-136699500D01*
X124281052Y-136699500D01*
X124281050Y-136699500D01*
X123925255Y-136738194D01*
X123575726Y-136815131D01*
X123319970Y-136901306D01*
X123236565Y-136929409D01*
X123236563Y-136929410D01*
X123236552Y-136929414D01*
X122911755Y-137079680D01*
X122911751Y-137079682D01*
X122683367Y-137217096D01*
X122605081Y-137264200D01*
X122516768Y-137331333D01*
X122320172Y-137480781D01*
X122320163Y-137480789D01*
X122060331Y-137726914D01*
X121828641Y-137999680D01*
X121828634Y-137999690D01*
X121627790Y-138295913D01*
X121627784Y-138295922D01*
X121460151Y-138612111D01*
X121460142Y-138612129D01*
X121327674Y-138944600D01*
X121327672Y-138944607D01*
X121231932Y-139289434D01*
X121231926Y-139289460D01*
X121174029Y-139642614D01*
X121174028Y-139642627D01*
X121174028Y-139642629D01*
X121170917Y-139700001D01*
X121154652Y-139999997D01*
X121154652Y-140000002D01*
X106872726Y-140000002D01*
X106760160Y-139860995D01*
X106760157Y-139860991D01*
X106497009Y-139597843D01*
X106364027Y-139490156D01*
X106207794Y-139363641D01*
X105895691Y-139160959D01*
X105564103Y-138992006D01*
X105216678Y-138858641D01*
X105216671Y-138858639D01*
X104857204Y-138762320D01*
X104857200Y-138762319D01*
X104857199Y-138762319D01*
X104489639Y-138704104D01*
X104118001Y-138684627D01*
X104117999Y-138684627D01*
X103746360Y-138704104D01*
X103378801Y-138762319D01*
X103378799Y-138762319D01*
X103019321Y-138858641D01*
X102671896Y-138992006D01*
X102340309Y-139160959D01*
X102028205Y-139363641D01*
X101738995Y-139597839D01*
X101738987Y-139597846D01*
X101527181Y-139809653D01*
X101465858Y-139843138D01*
X101396166Y-139838154D01*
X101340233Y-139796282D01*
X101315816Y-139730818D01*
X101315500Y-139721972D01*
X101315500Y-135099984D01*
X101335185Y-135032945D01*
X101387989Y-134987190D01*
X101457147Y-134977246D01*
X101520703Y-135006271D01*
X101545039Y-135034887D01*
X101602684Y-135128345D01*
X101726654Y-135252315D01*
X101875875Y-135344356D01*
X101875880Y-135344358D01*
X102042302Y-135399505D01*
X102042309Y-135399506D01*
X102145019Y-135409999D01*
X102619999Y-135409999D01*
X102620000Y-135409998D01*
X102620000Y-134334607D01*
X102737031Y-134394238D01*
X102836549Y-134410000D01*
X102903451Y-134410000D01*
X103002969Y-134394238D01*
X103120000Y-134334607D01*
X103120000Y-135409999D01*
X103594972Y-135409999D01*
X103594986Y-135409998D01*
X103697697Y-135399505D01*
X103864119Y-135344358D01*
X103864124Y-135344356D01*
X104013345Y-135252315D01*
X104137315Y-135128345D01*
X104229356Y-134979124D01*
X104229358Y-134979119D01*
X104284505Y-134812697D01*
X104284506Y-134812690D01*
X104294999Y-134709986D01*
X104295000Y-134709973D01*
X104295000Y-134235000D01*
X103219607Y-134235000D01*
X103279238Y-134117969D01*
X103300298Y-133985000D01*
X103279238Y-133852031D01*
X103219607Y-133735000D01*
X104294999Y-133735000D01*
X104294999Y-133260028D01*
X104294998Y-133260013D01*
X104284505Y-133157302D01*
X104229358Y-132990880D01*
X104229356Y-132990875D01*
X104137315Y-132841654D01*
X104013345Y-132717684D01*
X103864124Y-132625643D01*
X103864119Y-132625641D01*
X103697697Y-132570494D01*
X103697690Y-132570493D01*
X103594986Y-132560000D01*
X103120000Y-132560000D01*
X103120000Y-133635392D01*
X103002969Y-133575762D01*
X102903451Y-133560000D01*
X102836549Y-133560000D01*
X102737031Y-133575762D01*
X102620000Y-133635392D01*
X102620000Y-132560000D01*
X102145028Y-132560000D01*
X102145012Y-132560001D01*
X102042302Y-132570494D01*
X101875880Y-132625641D01*
X101875875Y-132625643D01*
X101726654Y-132717684D01*
X101602683Y-132841655D01*
X101602680Y-132841659D01*
X101545038Y-132935112D01*
X101493090Y-132981837D01*
X101424128Y-132993058D01*
X101360046Y-132965215D01*
X101321190Y-132907146D01*
X101315500Y-132870015D01*
X101315500Y-131849262D01*
X129134500Y-131849262D01*
X129135156Y-131872326D01*
X129135955Y-131886357D01*
X129137922Y-131909372D01*
X129151735Y-132030317D01*
X129151738Y-132030336D01*
X129159558Y-132075736D01*
X129159561Y-132075749D01*
X129165898Y-132103134D01*
X129178829Y-132147387D01*
X129217198Y-132255456D01*
X129217199Y-132255459D01*
X129235054Y-132297925D01*
X129235055Y-132297926D01*
X129235058Y-132297933D01*
X129247414Y-132323197D01*
X129269984Y-132363383D01*
X129335555Y-132466000D01*
X129348513Y-132485062D01*
X129348521Y-132485073D01*
X129356742Y-132496459D01*
X129370800Y-132514802D01*
X134676181Y-139044500D01*
X134676182Y-139044500D01*
X135219814Y-139713585D01*
X135741370Y-140355500D01*
X136267899Y-141003537D01*
X136267905Y-141003543D01*
X136267910Y-141003549D01*
X137286846Y-142257624D01*
X137301513Y-142274686D01*
X137310772Y-142284871D01*
X137326382Y-142301113D01*
X137411147Y-142384537D01*
X137411154Y-142384543D01*
X137411160Y-142384549D01*
X137444920Y-142414272D01*
X137444952Y-142414298D01*
X137466503Y-142431245D01*
X137466540Y-142431273D01*
X137503421Y-142457095D01*
X137598568Y-142516126D01*
X137598572Y-142516128D01*
X137598575Y-142516130D01*
X137638083Y-142537702D01*
X137662902Y-142549515D01*
X137704554Y-142566573D01*
X137810387Y-142603200D01*
X137853678Y-142615538D01*
X137880489Y-142621593D01*
X137924874Y-142629057D01*
X138043067Y-142642238D01*
X138043075Y-142642238D01*
X138043078Y-142642239D01*
X138045840Y-142642469D01*
X138065502Y-142644111D01*
X138079245Y-142644875D01*
X138094719Y-142645304D01*
X138101748Y-142645500D01*
X138101753Y-142645500D01*
X140966859Y-142645500D01*
X140966874Y-142645500D01*
X140993403Y-142644631D01*
X141009586Y-142643570D01*
X141035988Y-142640970D01*
X141174801Y-142622694D01*
X141226825Y-142612345D01*
X141258091Y-142603967D01*
X141308313Y-142586919D01*
X141430092Y-142536477D01*
X141477665Y-142513016D01*
X141505700Y-142496830D01*
X141549804Y-142467361D01*
X141654379Y-142387117D01*
X141694257Y-142352145D01*
X141717145Y-142329257D01*
X141752117Y-142289379D01*
X141832361Y-142184804D01*
X141861830Y-142140700D01*
X141878016Y-142112665D01*
X141901477Y-142065092D01*
X141951919Y-141943313D01*
X141968967Y-141893091D01*
X141977345Y-141861825D01*
X141987693Y-141809802D01*
X142005969Y-141670991D01*
X142008571Y-141644583D01*
X142009632Y-141628397D01*
X142010500Y-141601873D01*
X142010500Y-139700005D01*
X142559859Y-139700005D01*
X142580385Y-139947729D01*
X142580387Y-139947738D01*
X142641412Y-140188717D01*
X142741266Y-140416364D01*
X142841564Y-140569882D01*
X143581923Y-139829523D01*
X143605507Y-139909844D01*
X143683239Y-140030798D01*
X143791900Y-140124952D01*
X143922685Y-140184680D01*
X143932466Y-140186086D01*
X143194942Y-140923609D01*
X143241768Y-140960055D01*
X143241770Y-140960056D01*
X143460385Y-141078364D01*
X143460396Y-141078369D01*
X143695506Y-141159083D01*
X143940707Y-141200000D01*
X144189293Y-141200000D01*
X144434493Y-141159083D01*
X144669603Y-141078369D01*
X144669614Y-141078364D01*
X144888228Y-140960057D01*
X144888231Y-140960055D01*
X144935056Y-140923609D01*
X144197533Y-140186086D01*
X144207315Y-140184680D01*
X144338100Y-140124952D01*
X144446761Y-140030798D01*
X144524493Y-139909844D01*
X144548076Y-139829524D01*
X145288434Y-140569882D01*
X145388731Y-140416369D01*
X145488587Y-140188717D01*
X145549612Y-139947738D01*
X145549614Y-139947729D01*
X145570141Y-139700005D01*
X145570141Y-139699994D01*
X145549614Y-139452270D01*
X145549612Y-139452261D01*
X145488587Y-139211282D01*
X145388731Y-138983630D01*
X145288434Y-138830116D01*
X144548076Y-139570475D01*
X144524493Y-139490156D01*
X144446761Y-139369202D01*
X144338100Y-139275048D01*
X144207315Y-139215320D01*
X144197534Y-139213913D01*
X144935057Y-138476390D01*
X144935056Y-138476389D01*
X144888229Y-138439943D01*
X144669614Y-138321635D01*
X144669603Y-138321630D01*
X144434493Y-138240916D01*
X144189293Y-138200000D01*
X143940707Y-138200000D01*
X143695506Y-138240916D01*
X143460396Y-138321630D01*
X143460390Y-138321632D01*
X143241761Y-138439949D01*
X143194942Y-138476388D01*
X143194942Y-138476390D01*
X143932466Y-139213913D01*
X143922685Y-139215320D01*
X143791900Y-139275048D01*
X143683239Y-139369202D01*
X143605507Y-139490156D01*
X143581923Y-139570475D01*
X142841564Y-138830116D01*
X142741267Y-138983632D01*
X142641412Y-139211282D01*
X142580387Y-139452261D01*
X142580385Y-139452270D01*
X142559859Y-139699994D01*
X142559859Y-139700005D01*
X142010500Y-139700005D01*
X142010500Y-138030281D01*
X142009821Y-138006827D01*
X142008991Y-137992501D01*
X142006955Y-137969106D01*
X141992633Y-137845972D01*
X141984523Y-137799750D01*
X141977947Y-137771864D01*
X141964553Y-137726894D01*
X141924817Y-137617140D01*
X141906311Y-137574006D01*
X141893509Y-137548372D01*
X141893495Y-137548347D01*
X141870163Y-137507696D01*
X141870157Y-137507687D01*
X141870152Y-137507678D01*
X141802330Y-137403923D01*
X141788929Y-137384663D01*
X141780396Y-137373126D01*
X141765893Y-137354660D01*
X133137012Y-127000004D01*
X156969521Y-127000004D01*
X156989405Y-127265357D01*
X156989405Y-127265359D01*
X156989407Y-127265367D01*
X157048623Y-127524805D01*
X157145844Y-127772521D01*
X157278899Y-128002980D01*
X157412906Y-128171018D01*
X157444820Y-128211037D01*
X157559332Y-128317288D01*
X157639890Y-128392035D01*
X157859761Y-128541940D01*
X158099514Y-128657399D01*
X158099515Y-128657399D01*
X158099518Y-128657401D01*
X158353806Y-128735839D01*
X158353807Y-128735839D01*
X158353810Y-128735840D01*
X158616937Y-128775499D01*
X158616942Y-128775499D01*
X158616945Y-128775500D01*
X158616946Y-128775500D01*
X158883054Y-128775500D01*
X158883055Y-128775500D01*
X158883062Y-128775499D01*
X159146189Y-128735840D01*
X159146190Y-128735839D01*
X159146194Y-128735839D01*
X159400482Y-128657401D01*
X159640240Y-128541940D01*
X159860110Y-128392035D01*
X160055183Y-128211033D01*
X160221101Y-128002980D01*
X160354156Y-127772521D01*
X160451377Y-127524805D01*
X160510593Y-127265367D01*
X160530479Y-127000000D01*
X160528725Y-126976599D01*
X160510594Y-126734642D01*
X160510594Y-126734640D01*
X160510593Y-126734636D01*
X160510593Y-126734633D01*
X160451377Y-126475195D01*
X160354156Y-126227479D01*
X160221101Y-125997020D01*
X160055183Y-125788967D01*
X160055182Y-125788966D01*
X160055179Y-125788962D01*
X159860110Y-125607965D01*
X159826428Y-125585001D01*
X159640240Y-125458060D01*
X159640236Y-125458058D01*
X159640233Y-125458056D01*
X159640232Y-125458055D01*
X159400484Y-125342600D01*
X159400486Y-125342600D01*
X159146195Y-125264161D01*
X159146189Y-125264159D01*
X158883062Y-125224500D01*
X158883055Y-125224500D01*
X158616945Y-125224500D01*
X158616937Y-125224500D01*
X158353810Y-125264159D01*
X158353804Y-125264161D01*
X158099514Y-125342600D01*
X157859769Y-125458055D01*
X157859760Y-125458060D01*
X157639892Y-125607963D01*
X157444820Y-125788962D01*
X157278899Y-125997020D01*
X157145844Y-126227478D01*
X157048625Y-126475189D01*
X157048620Y-126475206D01*
X156989405Y-126734640D01*
X156989405Y-126734642D01*
X156969521Y-126999995D01*
X156969521Y-127000004D01*
X133137012Y-127000004D01*
X132586223Y-126339057D01*
X132566451Y-126317020D01*
X132566450Y-126317019D01*
X132566442Y-126317010D01*
X132553884Y-126304001D01*
X132532584Y-126283488D01*
X132416329Y-126179440D01*
X132416306Y-126179421D01*
X132369511Y-126143323D01*
X132369504Y-126143318D01*
X132369502Y-126143316D01*
X132369496Y-126143312D01*
X132339397Y-126123416D01*
X132339393Y-126123414D01*
X132339382Y-126123407D01*
X132287795Y-126094480D01*
X132287782Y-126094473D01*
X132154802Y-126032189D01*
X132154798Y-126032187D01*
X132154797Y-126032187D01*
X132099536Y-126011070D01*
X132078009Y-126004599D01*
X132064986Y-126000684D01*
X132007254Y-125987833D01*
X131997619Y-125986416D01*
X131852887Y-125965133D01*
X131838408Y-125963541D01*
X131823455Y-125961898D01*
X131805404Y-125960578D01*
X131775864Y-125959500D01*
X131775852Y-125959500D01*
X130178126Y-125959500D01*
X130155137Y-125960252D01*
X130151599Y-125960368D01*
X130135415Y-125961429D01*
X130108998Y-125964031D01*
X129970206Y-125982304D01*
X129918177Y-125992653D01*
X129918175Y-125992653D01*
X129886916Y-126001029D01*
X129886902Y-126001033D01*
X129836688Y-126018079D01*
X129836666Y-126018087D01*
X129714923Y-126068514D01*
X129714908Y-126068521D01*
X129667321Y-126091989D01*
X129639305Y-126108164D01*
X129595187Y-126137642D01*
X129490626Y-126217876D01*
X129450737Y-126252858D01*
X129427858Y-126275737D01*
X129392876Y-126315626D01*
X129312642Y-126420187D01*
X129283164Y-126464305D01*
X129266989Y-126492321D01*
X129243521Y-126539908D01*
X129243514Y-126539923D01*
X129193087Y-126661666D01*
X129193079Y-126661688D01*
X129176033Y-126711902D01*
X129176029Y-126711916D01*
X129167653Y-126743175D01*
X129167653Y-126743177D01*
X129157304Y-126795206D01*
X129139031Y-126933998D01*
X129139030Y-126934012D01*
X129136429Y-126960416D01*
X129135368Y-126976601D01*
X129134603Y-127000004D01*
X129134500Y-127003138D01*
X129134500Y-131849262D01*
X101315500Y-131849262D01*
X101315500Y-130046739D01*
X101335185Y-129979700D01*
X101387989Y-129933945D01*
X101457147Y-129924001D01*
X101520703Y-129953026D01*
X101558477Y-130011804D01*
X101559275Y-130014645D01*
X101559650Y-130016044D01*
X101559651Y-130016050D01*
X101567874Y-130046739D01*
X101619678Y-130240074D01*
X101619679Y-130240076D01*
X101619680Y-130240079D01*
X101717699Y-130450282D01*
X101850730Y-130640269D01*
X102014731Y-130804270D01*
X102204718Y-130937301D01*
X102414921Y-131035320D01*
X102638950Y-131095349D01*
X102803985Y-131109787D01*
X102869998Y-131115563D01*
X102870000Y-131115563D01*
X102870002Y-131115563D01*
X102927762Y-131110509D01*
X103101050Y-131095349D01*
X103325079Y-131035320D01*
X103535282Y-130937301D01*
X103725269Y-130804270D01*
X103889270Y-130640269D01*
X104022301Y-130450282D01*
X104120320Y-130240079D01*
X104180349Y-130016050D01*
X104200563Y-129785000D01*
X104180349Y-129553950D01*
X104120320Y-129329921D01*
X104022301Y-129119719D01*
X104022299Y-129119716D01*
X104022298Y-129119714D01*
X103889273Y-128929735D01*
X103889268Y-128929729D01*
X103725269Y-128765730D01*
X103682579Y-128735838D01*
X103535282Y-128632699D01*
X103325079Y-128534680D01*
X103325076Y-128534679D01*
X103325074Y-128534678D01*
X103101051Y-128474651D01*
X103101044Y-128474650D01*
X102870002Y-128454437D01*
X102869998Y-128454437D01*
X102638955Y-128474650D01*
X102638948Y-128474651D01*
X102414917Y-128534681D01*
X102204718Y-128632699D01*
X102204714Y-128632701D01*
X102014735Y-128765726D01*
X102014729Y-128765731D01*
X101850731Y-128929729D01*
X101850726Y-128929735D01*
X101717701Y-129119714D01*
X101717699Y-129119718D01*
X101619681Y-129329917D01*
X101619680Y-129329921D01*
X101567875Y-129523260D01*
X101559275Y-129555354D01*
X101522909Y-129615014D01*
X101460062Y-129645543D01*
X101390687Y-129637248D01*
X101336809Y-129592762D01*
X101315535Y-129526210D01*
X101315500Y-129523260D01*
X101315500Y-125846739D01*
X101335185Y-125779700D01*
X101387989Y-125733945D01*
X101457147Y-125724001D01*
X101520703Y-125753026D01*
X101558477Y-125811804D01*
X101559275Y-125814645D01*
X101559650Y-125816044D01*
X101559651Y-125816050D01*
X101567874Y-125846739D01*
X101619678Y-126040074D01*
X101619679Y-126040076D01*
X101619680Y-126040079D01*
X101717699Y-126250282D01*
X101850730Y-126440269D01*
X102014731Y-126604270D01*
X102204718Y-126737301D01*
X102414921Y-126835320D01*
X102638950Y-126895349D01*
X102803985Y-126909787D01*
X102869998Y-126915563D01*
X102870000Y-126915563D01*
X102870002Y-126915563D01*
X102927762Y-126910509D01*
X103101050Y-126895349D01*
X103325079Y-126835320D01*
X103535282Y-126737301D01*
X103725269Y-126604270D01*
X103889270Y-126440269D01*
X104022301Y-126250282D01*
X104120320Y-126040079D01*
X104180349Y-125816050D01*
X104200563Y-125585000D01*
X104180349Y-125353950D01*
X104120320Y-125129921D01*
X104022301Y-124919719D01*
X104022299Y-124919716D01*
X104022298Y-124919714D01*
X103889273Y-124729735D01*
X103889268Y-124729729D01*
X103725269Y-124565730D01*
X103725263Y-124565726D01*
X103535282Y-124432699D01*
X103325079Y-124334680D01*
X103325076Y-124334679D01*
X103325074Y-124334678D01*
X103101051Y-124274651D01*
X103101044Y-124274650D01*
X102870002Y-124254437D01*
X102869998Y-124254437D01*
X102638955Y-124274650D01*
X102638948Y-124274651D01*
X102414917Y-124334681D01*
X102204718Y-124432699D01*
X102204714Y-124432701D01*
X102014735Y-124565726D01*
X102014729Y-124565731D01*
X101850731Y-124729729D01*
X101850726Y-124729735D01*
X101717701Y-124919714D01*
X101717699Y-124919718D01*
X101619681Y-125129917D01*
X101619680Y-125129921D01*
X101567875Y-125323260D01*
X101559275Y-125355354D01*
X101522909Y-125415014D01*
X101460062Y-125445543D01*
X101390687Y-125437248D01*
X101336809Y-125392762D01*
X101315535Y-125326210D01*
X101315500Y-125323260D01*
X101315500Y-123359564D01*
X156974500Y-123359564D01*
X156980633Y-123427065D01*
X156980635Y-123427073D01*
X157029047Y-123582431D01*
X157029048Y-123582434D01*
X157113235Y-123721696D01*
X157113237Y-123721699D01*
X157228300Y-123836762D01*
X157228302Y-123836763D01*
X157228304Y-123836765D01*
X157367566Y-123920952D01*
X157522930Y-123969365D01*
X157590443Y-123975500D01*
X159909556Y-123975499D01*
X159909563Y-123975499D01*
X159977065Y-123969366D01*
X159977068Y-123969365D01*
X159977070Y-123969365D01*
X160132434Y-123920952D01*
X160271696Y-123836765D01*
X160386765Y-123721696D01*
X160470952Y-123582434D01*
X160519365Y-123427070D01*
X160525500Y-123359557D01*
X160525499Y-121040444D01*
X160525499Y-121040443D01*
X160525499Y-121040435D01*
X160519366Y-120972934D01*
X160519364Y-120972926D01*
X160505645Y-120928901D01*
X160470952Y-120817566D01*
X160386765Y-120678304D01*
X160386763Y-120678302D01*
X160386762Y-120678300D01*
X160271699Y-120563237D01*
X160132434Y-120479048D01*
X160132431Y-120479047D01*
X159977070Y-120430635D01*
X159977068Y-120430634D01*
X159977066Y-120430634D01*
X159929798Y-120426339D01*
X159909557Y-120424500D01*
X159909554Y-120424500D01*
X157590435Y-120424500D01*
X157522934Y-120430633D01*
X157522926Y-120430635D01*
X157367568Y-120479047D01*
X157228300Y-120563237D01*
X157113237Y-120678300D01*
X157029048Y-120817565D01*
X156980634Y-120972933D01*
X156974500Y-121040445D01*
X156974500Y-123359564D01*
X101315500Y-123359564D01*
X101315500Y-121646739D01*
X101335185Y-121579700D01*
X101387989Y-121533945D01*
X101457147Y-121524001D01*
X101520703Y-121553026D01*
X101558477Y-121611804D01*
X101559275Y-121614645D01*
X101619678Y-121840074D01*
X101619679Y-121840076D01*
X101619680Y-121840079D01*
X101717699Y-122050282D01*
X101850730Y-122240269D01*
X102014731Y-122404270D01*
X102204718Y-122537301D01*
X102414921Y-122635320D01*
X102638950Y-122695349D01*
X102803985Y-122709787D01*
X102869998Y-122715563D01*
X102870000Y-122715563D01*
X102870002Y-122715563D01*
X102927762Y-122710509D01*
X103101050Y-122695349D01*
X103325079Y-122635320D01*
X103535282Y-122537301D01*
X103725269Y-122404270D01*
X103889270Y-122240269D01*
X104022301Y-122050282D01*
X104030783Y-122032093D01*
X104076956Y-121979655D01*
X104143164Y-121960500D01*
X106534160Y-121960500D01*
X106550345Y-121961561D01*
X106579999Y-121965465D01*
X106580000Y-121965465D01*
X106617714Y-121960500D01*
X106617720Y-121960500D01*
X106730236Y-121945687D01*
X106870233Y-121887698D01*
X106897300Y-121866928D01*
X106918070Y-121850992D01*
X106918070Y-121850990D01*
X106960268Y-121818612D01*
X106960268Y-121818611D01*
X106968358Y-121812404D01*
X106968362Y-121812399D01*
X106990451Y-121795451D01*
X107008670Y-121771706D01*
X107019351Y-121759527D01*
X115752020Y-113026860D01*
X129134500Y-113026860D01*
X129135368Y-113053399D01*
X129136429Y-113069583D01*
X129139031Y-113096000D01*
X129157304Y-113234792D01*
X129167653Y-113286821D01*
X129167653Y-113286823D01*
X129176029Y-113318082D01*
X129176033Y-113318096D01*
X129193079Y-113368310D01*
X129193087Y-113368332D01*
X129243514Y-113490075D01*
X129243521Y-113490090D01*
X129266989Y-113537677D01*
X129283164Y-113565693D01*
X129312642Y-113609811D01*
X129392876Y-113714372D01*
X129392881Y-113714377D01*
X129392882Y-113714379D01*
X129427854Y-113754257D01*
X129450742Y-113777145D01*
X129490620Y-113812117D01*
X129490626Y-113812122D01*
X129595187Y-113892356D01*
X129639305Y-113921834D01*
X129667322Y-113938009D01*
X129667321Y-113938009D01*
X129667327Y-113938011D01*
X129667334Y-113938016D01*
X129714907Y-113961477D01*
X129714915Y-113961480D01*
X129714923Y-113961484D01*
X129836666Y-114011911D01*
X129836671Y-114011913D01*
X129836686Y-114011919D01*
X129857352Y-114018934D01*
X129886892Y-114028962D01*
X129886898Y-114028963D01*
X129886908Y-114028967D01*
X129912919Y-114035936D01*
X129918166Y-114037343D01*
X129918168Y-114037343D01*
X129918174Y-114037345D01*
X129970198Y-114047694D01*
X130109011Y-114065970D01*
X130135415Y-114068570D01*
X130135429Y-114068570D01*
X130135430Y-114068571D01*
X130151567Y-114069629D01*
X130151569Y-114069629D01*
X130151599Y-114069631D01*
X130178126Y-114070500D01*
X130178140Y-114070500D01*
X131775839Y-114070500D01*
X131775852Y-114070500D01*
X131805420Y-114069421D01*
X131805434Y-114069420D01*
X131823463Y-114068102D01*
X131852902Y-114064865D01*
X132007239Y-114042168D01*
X132007241Y-114042167D01*
X132007251Y-114042166D01*
X132064994Y-114029313D01*
X132066162Y-114028962D01*
X132099520Y-114018934D01*
X132099526Y-114018931D01*
X132099549Y-114018925D01*
X132154804Y-113997809D01*
X132255359Y-113950710D01*
X132287778Y-113935527D01*
X132287780Y-113935525D01*
X132287786Y-113935523D01*
X132339391Y-113906586D01*
X132369491Y-113886690D01*
X132416321Y-113850566D01*
X132506019Y-113770284D01*
X132532584Y-113746510D01*
X132553884Y-113725997D01*
X132553888Y-113725993D01*
X132566451Y-113712979D01*
X132586223Y-113690942D01*
X135991175Y-109605000D01*
X156875000Y-109605000D01*
X158016403Y-109605000D01*
X157989650Y-109681455D01*
X157970096Y-109855000D01*
X157989650Y-110028545D01*
X158016403Y-110105000D01*
X156875001Y-110105000D01*
X156875001Y-111003620D01*
X156889547Y-111132727D01*
X156946826Y-111296424D01*
X157039096Y-111443272D01*
X157161727Y-111565903D01*
X157308575Y-111658173D01*
X157472271Y-111715452D01*
X157472274Y-111715453D01*
X157601381Y-111729999D01*
X158499999Y-111729999D01*
X158500000Y-111729998D01*
X158500000Y-110588597D01*
X158576455Y-110615350D01*
X158706476Y-110630000D01*
X158793524Y-110630000D01*
X158923545Y-110615350D01*
X159000000Y-110588597D01*
X159000000Y-111729999D01*
X159898617Y-111729999D01*
X159898620Y-111729998D01*
X160027727Y-111715452D01*
X160191424Y-111658173D01*
X160338272Y-111565903D01*
X160460903Y-111443272D01*
X160553173Y-111296424D01*
X160610452Y-111132728D01*
X160610453Y-111132725D01*
X160624999Y-111003619D01*
X160625000Y-111003619D01*
X160625000Y-110105000D01*
X159483597Y-110105000D01*
X159510350Y-110028545D01*
X159529904Y-109855000D01*
X159510350Y-109681455D01*
X159483597Y-109605000D01*
X160624999Y-109605000D01*
X160624999Y-108706383D01*
X160624998Y-108706379D01*
X160610452Y-108577272D01*
X160553173Y-108413575D01*
X160460903Y-108266727D01*
X160338272Y-108144096D01*
X160191424Y-108051826D01*
X160027728Y-107994547D01*
X160027725Y-107994546D01*
X159898619Y-107980000D01*
X159000000Y-107980000D01*
X159000000Y-109121402D01*
X158923545Y-109094650D01*
X158793524Y-109080000D01*
X158706476Y-109080000D01*
X158576455Y-109094650D01*
X158500000Y-109121402D01*
X158500000Y-107980000D01*
X157601383Y-107980000D01*
X157601379Y-107980001D01*
X157472272Y-107994547D01*
X157308575Y-108051826D01*
X157161727Y-108144096D01*
X157039096Y-108266727D01*
X156946826Y-108413575D01*
X156889547Y-108577271D01*
X156889546Y-108577274D01*
X156875000Y-108706380D01*
X156875000Y-109605000D01*
X135991175Y-109605000D01*
X139782839Y-105055004D01*
X156969521Y-105055004D01*
X156989405Y-105320357D01*
X156989405Y-105320359D01*
X157025728Y-105479500D01*
X157048623Y-105579805D01*
X157145844Y-105827521D01*
X157278899Y-106057980D01*
X157379398Y-106184001D01*
X157444820Y-106266037D01*
X157488687Y-106306739D01*
X157639890Y-106447035D01*
X157859761Y-106596940D01*
X158099514Y-106712399D01*
X158099515Y-106712399D01*
X158099518Y-106712401D01*
X158353806Y-106790839D01*
X158353807Y-106790839D01*
X158353810Y-106790840D01*
X158616937Y-106830499D01*
X158616942Y-106830499D01*
X158616945Y-106830500D01*
X158616946Y-106830500D01*
X158883054Y-106830500D01*
X158883055Y-106830500D01*
X158883062Y-106830499D01*
X159146189Y-106790840D01*
X159146190Y-106790839D01*
X159146194Y-106790839D01*
X159400482Y-106712401D01*
X159640240Y-106596940D01*
X159860110Y-106447035D01*
X160044386Y-106276051D01*
X160055179Y-106266037D01*
X160055179Y-106266035D01*
X160055183Y-106266033D01*
X160221101Y-106057980D01*
X160354156Y-105827521D01*
X160451377Y-105579805D01*
X160510593Y-105320367D01*
X160510594Y-105320357D01*
X160530479Y-105055004D01*
X160530479Y-105054995D01*
X160510594Y-104789642D01*
X160510594Y-104789640D01*
X160510593Y-104789636D01*
X160510593Y-104789633D01*
X160451377Y-104530195D01*
X160354156Y-104282479D01*
X160221101Y-104052020D01*
X160055183Y-103843967D01*
X160055182Y-103843966D01*
X160055179Y-103843962D01*
X159860110Y-103662965D01*
X159860107Y-103662963D01*
X159640240Y-103513060D01*
X159640236Y-103513058D01*
X159640233Y-103513056D01*
X159640232Y-103513055D01*
X159400484Y-103397600D01*
X159400486Y-103397600D01*
X159146195Y-103319161D01*
X159146189Y-103319159D01*
X158883062Y-103279500D01*
X158883055Y-103279500D01*
X158616945Y-103279500D01*
X158616937Y-103279500D01*
X158353810Y-103319159D01*
X158353804Y-103319161D01*
X158099514Y-103397600D01*
X157859769Y-103513055D01*
X157859760Y-103513060D01*
X157639892Y-103662963D01*
X157444820Y-103843962D01*
X157278899Y-104052020D01*
X157145844Y-104282478D01*
X157048625Y-104530189D01*
X157048620Y-104530206D01*
X156989405Y-104789640D01*
X156989405Y-104789642D01*
X156969521Y-105054995D01*
X156969521Y-105055004D01*
X139782839Y-105055004D01*
X141765893Y-102675339D01*
X141780396Y-102656873D01*
X141788929Y-102645336D01*
X141802330Y-102626076D01*
X141870152Y-102522321D01*
X141893509Y-102481627D01*
X141906311Y-102455993D01*
X141924817Y-102412859D01*
X141964553Y-102303105D01*
X141977947Y-102258135D01*
X141984523Y-102230249D01*
X141992633Y-102184027D01*
X142006955Y-102060893D01*
X142008991Y-102037498D01*
X142009821Y-102023172D01*
X142010500Y-101999718D01*
X142010500Y-100330005D01*
X142559859Y-100330005D01*
X142580385Y-100577729D01*
X142580387Y-100577738D01*
X142641412Y-100818717D01*
X142741266Y-101046364D01*
X142841564Y-101199882D01*
X143581923Y-100459523D01*
X143605507Y-100539844D01*
X143683239Y-100660798D01*
X143791900Y-100754952D01*
X143922685Y-100814680D01*
X143932466Y-100816086D01*
X143194942Y-101553609D01*
X143241768Y-101590055D01*
X143241770Y-101590056D01*
X143460385Y-101708364D01*
X143460396Y-101708369D01*
X143695506Y-101789083D01*
X143940707Y-101830000D01*
X144189293Y-101830000D01*
X144434493Y-101789083D01*
X144669603Y-101708369D01*
X144669614Y-101708364D01*
X144888228Y-101590057D01*
X144888231Y-101590055D01*
X144935056Y-101553609D01*
X144197533Y-100816086D01*
X144207315Y-100814680D01*
X144338100Y-100754952D01*
X144446761Y-100660798D01*
X144524493Y-100539844D01*
X144548076Y-100459524D01*
X145288434Y-101199882D01*
X145388731Y-101046369D01*
X145488587Y-100818717D01*
X145549612Y-100577738D01*
X145549614Y-100577729D01*
X145570141Y-100330005D01*
X145570141Y-100329994D01*
X145549614Y-100082270D01*
X145549612Y-100082261D01*
X145488587Y-99841282D01*
X145388731Y-99613630D01*
X145288434Y-99460116D01*
X144548076Y-100200475D01*
X144524493Y-100120156D01*
X144446761Y-99999202D01*
X144338100Y-99905048D01*
X144207315Y-99845320D01*
X144197534Y-99843913D01*
X144935057Y-99106390D01*
X144935056Y-99106389D01*
X144888229Y-99069943D01*
X144669614Y-98951635D01*
X144669603Y-98951630D01*
X144434493Y-98870916D01*
X144189293Y-98830000D01*
X143940707Y-98830000D01*
X143695506Y-98870916D01*
X143460396Y-98951630D01*
X143460390Y-98951632D01*
X143241761Y-99069949D01*
X143194942Y-99106388D01*
X143194942Y-99106390D01*
X143932466Y-99843913D01*
X143922685Y-99845320D01*
X143791900Y-99905048D01*
X143683239Y-99999202D01*
X143605507Y-100120156D01*
X143581923Y-100200475D01*
X142841564Y-99460116D01*
X142741267Y-99613632D01*
X142641412Y-99841282D01*
X142580387Y-100082261D01*
X142580385Y-100082270D01*
X142559859Y-100329994D01*
X142559859Y-100330005D01*
X142010500Y-100330005D01*
X142010500Y-98428126D01*
X142009632Y-98401602D01*
X142008571Y-98385416D01*
X142006676Y-98366180D01*
X142005971Y-98359023D01*
X141987692Y-98220191D01*
X141985141Y-98207369D01*
X141977345Y-98168174D01*
X141968967Y-98136908D01*
X141951919Y-98086686D01*
X141951911Y-98086666D01*
X141901484Y-97964923D01*
X141901477Y-97964908D01*
X141901477Y-97964907D01*
X141878016Y-97917334D01*
X141878011Y-97917327D01*
X141878009Y-97917321D01*
X141861834Y-97889305D01*
X141832356Y-97845187D01*
X141752122Y-97740626D01*
X141741837Y-97728898D01*
X141717145Y-97700742D01*
X141694257Y-97677854D01*
X141654379Y-97642882D01*
X141654377Y-97642881D01*
X141654372Y-97642876D01*
X141549811Y-97562642D01*
X141505693Y-97533164D01*
X141477676Y-97516989D01*
X141477677Y-97516989D01*
X141471346Y-97513867D01*
X141430092Y-97493522D01*
X141430090Y-97493521D01*
X141430075Y-97493514D01*
X141308332Y-97443087D01*
X141308310Y-97443079D01*
X141258106Y-97426036D01*
X141226832Y-97417655D01*
X141174801Y-97407305D01*
X141035988Y-97389029D01*
X141035986Y-97389028D01*
X141035980Y-97389028D01*
X141009571Y-97386427D01*
X140999622Y-97385775D01*
X140993378Y-97385367D01*
X140966874Y-97384500D01*
X138101753Y-97384500D01*
X138101748Y-97384500D01*
X138079254Y-97385124D01*
X138065493Y-97385889D01*
X138043070Y-97387761D01*
X137924890Y-97400940D01*
X137924879Y-97400941D01*
X137924876Y-97400942D01*
X137924867Y-97400943D01*
X137924844Y-97400947D01*
X137880511Y-97408399D01*
X137880494Y-97408403D01*
X137853698Y-97414454D01*
X137853680Y-97414458D01*
X137810390Y-97426796D01*
X137704556Y-97463424D01*
X137662893Y-97480487D01*
X137662863Y-97480500D01*
X137638118Y-97492278D01*
X137638091Y-97492292D01*
X137598587Y-97513860D01*
X137598584Y-97513862D01*
X137503397Y-97572919D01*
X137466528Y-97598734D01*
X137444942Y-97615708D01*
X137444940Y-97615710D01*
X137411147Y-97645462D01*
X137411144Y-97645466D01*
X137326370Y-97728898D01*
X137310771Y-97745127D01*
X137301527Y-97755295D01*
X137286849Y-97772368D01*
X135741369Y-99674499D01*
X135741369Y-99674500D01*
X135197737Y-100343585D01*
X135197736Y-100343584D01*
X134770802Y-100869043D01*
X134676181Y-100985500D01*
X134565162Y-101122139D01*
X132500742Y-103662963D01*
X129370773Y-107515231D01*
X129356750Y-107533529D01*
X129348519Y-107544925D01*
X129335564Y-107563984D01*
X129269989Y-107666608D01*
X129269962Y-107666653D01*
X129247422Y-107706785D01*
X129247414Y-107706801D01*
X129235065Y-107732050D01*
X129235059Y-107732064D01*
X129217195Y-107774552D01*
X129178830Y-107882609D01*
X129178828Y-107882615D01*
X129165897Y-107926869D01*
X129159554Y-107954280D01*
X129151736Y-107999672D01*
X129151735Y-107999682D01*
X129137922Y-108120626D01*
X129137920Y-108120647D01*
X129137920Y-108120649D01*
X129136234Y-108140382D01*
X129135955Y-108143641D01*
X129135156Y-108157672D01*
X129134500Y-108180736D01*
X129134500Y-113026860D01*
X115752020Y-113026860D01*
X116082061Y-112696819D01*
X116143384Y-112663334D01*
X116169742Y-112660500D01*
X116299644Y-112660500D01*
X116299646Y-112660500D01*
X116484803Y-112621144D01*
X116657730Y-112544151D01*
X116810871Y-112432888D01*
X116937533Y-112292216D01*
X117032179Y-112128284D01*
X117090674Y-111948256D01*
X117110460Y-111760000D01*
X117090674Y-111571744D01*
X117032179Y-111391716D01*
X116937533Y-111227784D01*
X116937344Y-111227574D01*
X116937273Y-111227427D01*
X116933714Y-111222528D01*
X116934610Y-111221876D01*
X116907119Y-111164580D01*
X116905500Y-111144608D01*
X116905500Y-111105391D01*
X116925185Y-111038352D01*
X116937352Y-111022417D01*
X116937533Y-111022216D01*
X117032179Y-110858284D01*
X117090674Y-110678256D01*
X117110460Y-110490000D01*
X117090674Y-110301744D01*
X117032179Y-110121716D01*
X116937533Y-109957784D01*
X116810871Y-109817112D01*
X116810870Y-109817111D01*
X116657734Y-109705851D01*
X116657729Y-109705848D01*
X116484807Y-109628857D01*
X116484802Y-109628855D01*
X116339001Y-109597865D01*
X116299646Y-109589500D01*
X116110354Y-109589500D01*
X116077897Y-109596398D01*
X115925197Y-109628855D01*
X115925192Y-109628857D01*
X115752270Y-109705848D01*
X115752265Y-109705851D01*
X115599129Y-109817111D01*
X115472466Y-109957785D01*
X115377821Y-110121715D01*
X115377818Y-110121722D01*
X115332199Y-110262124D01*
X115319326Y-110301744D01*
X115299540Y-110490000D01*
X115319326Y-110678256D01*
X115319327Y-110678259D01*
X115377818Y-110858277D01*
X115377821Y-110858284D01*
X115472466Y-111022215D01*
X115472648Y-111022417D01*
X115472716Y-111022559D01*
X115476285Y-111027471D01*
X115475386Y-111028123D01*
X115502879Y-111085408D01*
X115504500Y-111105391D01*
X115504500Y-111144608D01*
X115484815Y-111211647D01*
X115472656Y-111227574D01*
X115472468Y-111227782D01*
X115472464Y-111227787D01*
X115377821Y-111391715D01*
X115377818Y-111391722D01*
X115319730Y-111570500D01*
X115319326Y-111571744D01*
X115302693Y-111729999D01*
X115299540Y-111760002D01*
X115302067Y-111784052D01*
X115289496Y-111852782D01*
X115266427Y-111884691D01*
X106377939Y-120773181D01*
X106316616Y-120806666D01*
X106290258Y-120809500D01*
X104143164Y-120809500D01*
X104076125Y-120789815D01*
X104030783Y-120737907D01*
X104022302Y-120719721D01*
X104022300Y-120719717D01*
X103889273Y-120529735D01*
X103889268Y-120529729D01*
X103725269Y-120365730D01*
X103725263Y-120365726D01*
X103535282Y-120232699D01*
X103325079Y-120134680D01*
X103325076Y-120134679D01*
X103325074Y-120134678D01*
X103101051Y-120074651D01*
X103101044Y-120074650D01*
X102870002Y-120054437D01*
X102869998Y-120054437D01*
X102638955Y-120074650D01*
X102638948Y-120074651D01*
X102414917Y-120134681D01*
X102204718Y-120232699D01*
X102204714Y-120232701D01*
X102014735Y-120365726D01*
X102014729Y-120365731D01*
X101850731Y-120529729D01*
X101850726Y-120529735D01*
X101717701Y-120719714D01*
X101717699Y-120719718D01*
X101619681Y-120929917D01*
X101619680Y-120929921D01*
X101567875Y-121123260D01*
X101559275Y-121155354D01*
X101522909Y-121215014D01*
X101460062Y-121245543D01*
X101390687Y-121237248D01*
X101336809Y-121192762D01*
X101315535Y-121126210D01*
X101315500Y-121123260D01*
X101315500Y-114300000D01*
X109538357Y-114300000D01*
X109558884Y-114521535D01*
X109558885Y-114521537D01*
X109619769Y-114735523D01*
X109619775Y-114735538D01*
X109718938Y-114934683D01*
X109718943Y-114934691D01*
X109853020Y-115112238D01*
X110017437Y-115262123D01*
X110017439Y-115262125D01*
X110206595Y-115379245D01*
X110206596Y-115379245D01*
X110206599Y-115379247D01*
X110414060Y-115459618D01*
X110632757Y-115500500D01*
X110632759Y-115500500D01*
X110855241Y-115500500D01*
X110855243Y-115500500D01*
X111073940Y-115459618D01*
X111281401Y-115379247D01*
X111470562Y-115262124D01*
X111634981Y-115112236D01*
X111769058Y-114934689D01*
X111868229Y-114735528D01*
X111929115Y-114521536D01*
X111949643Y-114300000D01*
X111929115Y-114078464D01*
X111868229Y-113864472D01*
X111842162Y-113812122D01*
X111769061Y-113665316D01*
X111769056Y-113665308D01*
X111634979Y-113487761D01*
X111470562Y-113337876D01*
X111470560Y-113337874D01*
X111281404Y-113220754D01*
X111281398Y-113220752D01*
X111073940Y-113140382D01*
X110855243Y-113099500D01*
X110632757Y-113099500D01*
X110414060Y-113140382D01*
X110282864Y-113191207D01*
X110206601Y-113220752D01*
X110206595Y-113220754D01*
X110017439Y-113337874D01*
X110017437Y-113337876D01*
X109853020Y-113487761D01*
X109718943Y-113665308D01*
X109718938Y-113665316D01*
X109619775Y-113864461D01*
X109619769Y-113864476D01*
X109558885Y-114078462D01*
X109558884Y-114078464D01*
X109538357Y-114299999D01*
X109538357Y-114300000D01*
X101315500Y-114300000D01*
X101315500Y-111095626D01*
X101335185Y-111028587D01*
X101387989Y-110982832D01*
X101457147Y-110972888D01*
X101520703Y-111001913D01*
X101558477Y-111060691D01*
X101558576Y-111061031D01*
X101593254Y-111180393D01*
X101593255Y-111180396D01*
X101676917Y-111321862D01*
X101676923Y-111321870D01*
X101793129Y-111438076D01*
X101793133Y-111438079D01*
X101793135Y-111438081D01*
X101934602Y-111521744D01*
X101976224Y-111533836D01*
X102092426Y-111567597D01*
X102092429Y-111567597D01*
X102092431Y-111567598D01*
X102129306Y-111570500D01*
X102129314Y-111570500D01*
X103610686Y-111570500D01*
X103610694Y-111570500D01*
X103647569Y-111567598D01*
X103647571Y-111567597D01*
X103647573Y-111567597D01*
X103689191Y-111555505D01*
X103805398Y-111521744D01*
X103946865Y-111438081D01*
X104063081Y-111321865D01*
X104146744Y-111180398D01*
X104190850Y-111028587D01*
X104192597Y-111022573D01*
X104192598Y-111022567D01*
X104194089Y-111003619D01*
X104195500Y-110985694D01*
X104195500Y-109504306D01*
X104192598Y-109467431D01*
X104181423Y-109428968D01*
X104146745Y-109309606D01*
X104146744Y-109309603D01*
X104146744Y-109309602D01*
X104141065Y-109300000D01*
X109538357Y-109300000D01*
X109558884Y-109521535D01*
X109558885Y-109521537D01*
X109619769Y-109735523D01*
X109619775Y-109735538D01*
X109718938Y-109934683D01*
X109718943Y-109934691D01*
X109853020Y-110112238D01*
X110017437Y-110262123D01*
X110017439Y-110262125D01*
X110206595Y-110379245D01*
X110206596Y-110379245D01*
X110206599Y-110379247D01*
X110414060Y-110459618D01*
X110632757Y-110500500D01*
X110632759Y-110500500D01*
X110855241Y-110500500D01*
X110855243Y-110500500D01*
X111073940Y-110459618D01*
X111281401Y-110379247D01*
X111470562Y-110262124D01*
X111634981Y-110112236D01*
X111769058Y-109934689D01*
X111868229Y-109735528D01*
X111929115Y-109521536D01*
X111949643Y-109300000D01*
X111929115Y-109078464D01*
X111868229Y-108864472D01*
X111789510Y-108706383D01*
X111769061Y-108665316D01*
X111769056Y-108665308D01*
X111634979Y-108487761D01*
X111470562Y-108337876D01*
X111470560Y-108337874D01*
X111281404Y-108220754D01*
X111281398Y-108220752D01*
X111073940Y-108140382D01*
X110921513Y-108111888D01*
X110859234Y-108080221D01*
X110823961Y-108019908D01*
X110826895Y-107950100D01*
X110867104Y-107892960D01*
X110921513Y-107868111D01*
X111073940Y-107839618D01*
X111281401Y-107759247D01*
X111470562Y-107642124D01*
X111634981Y-107492236D01*
X111769058Y-107314689D01*
X111868229Y-107115528D01*
X111929115Y-106901536D01*
X111949643Y-106680000D01*
X111941946Y-106596940D01*
X111929115Y-106458464D01*
X111929114Y-106458462D01*
X111925862Y-106447034D01*
X111868229Y-106244472D01*
X111852571Y-106213026D01*
X111769061Y-106045316D01*
X111769056Y-106045308D01*
X111634979Y-105867761D01*
X111470562Y-105717876D01*
X111470560Y-105717874D01*
X111281404Y-105600754D01*
X111281398Y-105600752D01*
X111253440Y-105589921D01*
X111073940Y-105520382D01*
X110855243Y-105479500D01*
X110632757Y-105479500D01*
X110414060Y-105520382D01*
X110282864Y-105571207D01*
X110206601Y-105600752D01*
X110206595Y-105600754D01*
X110017439Y-105717874D01*
X110017437Y-105717876D01*
X109853020Y-105867761D01*
X109718943Y-106045308D01*
X109718938Y-106045316D01*
X109619775Y-106244461D01*
X109619769Y-106244476D01*
X109558885Y-106458462D01*
X109558884Y-106458464D01*
X109538357Y-106679999D01*
X109538357Y-106680000D01*
X109558884Y-106901535D01*
X109558885Y-106901537D01*
X109619769Y-107115523D01*
X109619775Y-107115538D01*
X109718938Y-107314683D01*
X109718943Y-107314691D01*
X109853020Y-107492238D01*
X110017437Y-107642123D01*
X110017439Y-107642125D01*
X110206595Y-107759245D01*
X110206596Y-107759245D01*
X110206599Y-107759247D01*
X110414060Y-107839618D01*
X110566484Y-107868111D01*
X110628765Y-107899780D01*
X110664038Y-107960092D01*
X110661104Y-108029900D01*
X110620895Y-108087040D01*
X110566485Y-108111888D01*
X110414060Y-108140382D01*
X110309905Y-108180732D01*
X110206601Y-108220752D01*
X110206595Y-108220754D01*
X110017439Y-108337874D01*
X110017437Y-108337876D01*
X109853020Y-108487761D01*
X109718943Y-108665308D01*
X109718938Y-108665316D01*
X109619775Y-108864461D01*
X109619769Y-108864476D01*
X109558885Y-109078462D01*
X109558884Y-109078464D01*
X109538357Y-109299999D01*
X109538357Y-109300000D01*
X104141065Y-109300000D01*
X104063081Y-109168135D01*
X104063079Y-109168133D01*
X104063076Y-109168129D01*
X103946870Y-109051923D01*
X103946862Y-109051917D01*
X103805396Y-108968255D01*
X103805393Y-108968254D01*
X103647573Y-108922402D01*
X103647567Y-108922401D01*
X103610701Y-108919500D01*
X103610694Y-108919500D01*
X102129306Y-108919500D01*
X102129298Y-108919500D01*
X102092432Y-108922401D01*
X102092426Y-108922402D01*
X101934606Y-108968254D01*
X101934603Y-108968255D01*
X101793137Y-109051917D01*
X101793129Y-109051923D01*
X101676923Y-109168129D01*
X101676917Y-109168137D01*
X101593255Y-109309603D01*
X101593253Y-109309606D01*
X101558576Y-109428968D01*
X101520970Y-109487854D01*
X101457497Y-109517060D01*
X101388311Y-109507314D01*
X101335376Y-109461710D01*
X101315501Y-109394727D01*
X101315500Y-109394373D01*
X101315500Y-106306739D01*
X101335185Y-106239700D01*
X101387989Y-106193945D01*
X101457147Y-106184001D01*
X101520703Y-106213026D01*
X101558477Y-106271804D01*
X101559275Y-106274645D01*
X101559650Y-106276044D01*
X101559651Y-106276050D01*
X101567874Y-106306739D01*
X101619678Y-106500074D01*
X101619679Y-106500076D01*
X101619680Y-106500079D01*
X101717699Y-106710282D01*
X101850730Y-106900269D01*
X102014731Y-107064270D01*
X102204718Y-107197301D01*
X102414921Y-107295320D01*
X102638950Y-107355349D01*
X102803985Y-107369787D01*
X102869998Y-107375563D01*
X102870000Y-107375563D01*
X102870002Y-107375563D01*
X102927762Y-107370509D01*
X103101050Y-107355349D01*
X103325079Y-107295320D01*
X103535282Y-107197301D01*
X103725269Y-107064270D01*
X103889270Y-106900269D01*
X104022301Y-106710282D01*
X104120320Y-106500079D01*
X104180349Y-106276050D01*
X104199427Y-106057980D01*
X104200563Y-106045001D01*
X104200563Y-106044998D01*
X104188362Y-105905543D01*
X104180349Y-105813950D01*
X104120320Y-105589921D01*
X104022301Y-105379719D01*
X104022299Y-105379716D01*
X104022298Y-105379714D01*
X103889273Y-105189735D01*
X103889268Y-105189729D01*
X103725269Y-105025730D01*
X103725263Y-105025726D01*
X103535282Y-104892699D01*
X103325079Y-104794680D01*
X103325076Y-104794679D01*
X103325074Y-104794678D01*
X103101051Y-104734651D01*
X103101044Y-104734650D01*
X102870002Y-104714437D01*
X102869998Y-104714437D01*
X102638955Y-104734650D01*
X102638948Y-104734651D01*
X102414917Y-104794681D01*
X102204718Y-104892699D01*
X102204714Y-104892701D01*
X102014735Y-105025726D01*
X102014729Y-105025731D01*
X101850731Y-105189729D01*
X101850726Y-105189735D01*
X101717701Y-105379714D01*
X101717699Y-105379718D01*
X101619681Y-105589917D01*
X101616777Y-105600754D01*
X101567875Y-105783260D01*
X101559275Y-105815354D01*
X101522909Y-105875014D01*
X101460062Y-105905543D01*
X101390687Y-105897248D01*
X101336809Y-105852762D01*
X101315535Y-105786210D01*
X101315500Y-105783260D01*
X101315500Y-101680000D01*
X109538357Y-101680000D01*
X109558884Y-101901535D01*
X109558885Y-101901537D01*
X109619769Y-102115523D01*
X109619775Y-102115538D01*
X109718938Y-102314683D01*
X109718943Y-102314691D01*
X109853020Y-102492238D01*
X110017437Y-102642123D01*
X110017439Y-102642125D01*
X110206595Y-102759245D01*
X110206596Y-102759245D01*
X110206599Y-102759247D01*
X110414060Y-102839618D01*
X110632757Y-102880500D01*
X110632759Y-102880500D01*
X110855241Y-102880500D01*
X110855243Y-102880500D01*
X111073940Y-102839618D01*
X111281401Y-102759247D01*
X111470562Y-102642124D01*
X111634981Y-102492236D01*
X111769058Y-102314689D01*
X111868229Y-102115528D01*
X111929115Y-101901536D01*
X111949643Y-101680000D01*
X111929115Y-101458464D01*
X111868229Y-101244472D01*
X111831824Y-101171361D01*
X111769061Y-101045316D01*
X111769056Y-101045308D01*
X111634979Y-100867761D01*
X111470562Y-100717876D01*
X111470560Y-100717874D01*
X111281404Y-100600754D01*
X111281398Y-100600752D01*
X111073940Y-100520382D01*
X110855243Y-100479500D01*
X110632757Y-100479500D01*
X110414060Y-100520382D01*
X110282864Y-100571207D01*
X110206601Y-100600752D01*
X110206595Y-100600754D01*
X110017439Y-100717874D01*
X110017437Y-100717876D01*
X109853020Y-100867761D01*
X109718943Y-101045308D01*
X109718938Y-101045316D01*
X109619775Y-101244461D01*
X109619769Y-101244476D01*
X109558885Y-101458462D01*
X109558884Y-101458464D01*
X109538357Y-101679999D01*
X109538357Y-101680000D01*
X101315500Y-101680000D01*
X101315500Y-100308028D01*
X101335185Y-100240989D01*
X101387989Y-100195234D01*
X101457147Y-100185290D01*
X101520703Y-100214315D01*
X101527181Y-100220347D01*
X101738991Y-100432157D01*
X101738995Y-100432160D01*
X102028205Y-100666358D01*
X102340308Y-100869040D01*
X102340313Y-100869043D01*
X102671900Y-101037995D01*
X103019329Y-101171361D01*
X103378796Y-101267680D01*
X103746362Y-101325896D01*
X104097444Y-101344295D01*
X104117999Y-101345373D01*
X104118000Y-101345373D01*
X104118001Y-101345373D01*
X104137478Y-101344352D01*
X104489638Y-101325896D01*
X104857204Y-101267680D01*
X105216671Y-101171361D01*
X105564100Y-101037995D01*
X105895687Y-100869043D01*
X106207796Y-100666357D01*
X106497009Y-100432157D01*
X106760157Y-100169009D01*
X106897016Y-100000002D01*
X121154652Y-100000002D01*
X121161167Y-100120156D01*
X121173280Y-100343584D01*
X121174028Y-100357368D01*
X121174029Y-100357385D01*
X121231926Y-100710539D01*
X121231932Y-100710565D01*
X121327672Y-101055392D01*
X121327674Y-101055399D01*
X121460142Y-101387870D01*
X121460151Y-101387888D01*
X121627784Y-101704077D01*
X121627787Y-101704082D01*
X121627789Y-101704085D01*
X121761663Y-101901535D01*
X121828634Y-102000309D01*
X121828641Y-102000319D01*
X122060331Y-102273085D01*
X122060332Y-102273086D01*
X122320163Y-102519211D01*
X122605081Y-102735800D01*
X122911747Y-102920315D01*
X122911749Y-102920316D01*
X122911751Y-102920317D01*
X122911755Y-102920319D01*
X123236552Y-103070585D01*
X123236565Y-103070591D01*
X123575726Y-103184868D01*
X123925254Y-103261805D01*
X124281052Y-103300500D01*
X124281058Y-103300500D01*
X124638942Y-103300500D01*
X124638948Y-103300500D01*
X124994746Y-103261805D01*
X125344274Y-103184868D01*
X125683435Y-103070591D01*
X126008253Y-102920315D01*
X126314919Y-102735800D01*
X126599837Y-102519211D01*
X126859668Y-102273086D01*
X127091365Y-102000311D01*
X127292211Y-101704085D01*
X127459853Y-101387880D01*
X127592324Y-101055403D01*
X127688071Y-100710552D01*
X127733711Y-100432160D01*
X127745970Y-100357385D01*
X127745970Y-100357382D01*
X127745972Y-100357371D01*
X127765348Y-100000000D01*
X127745972Y-99642629D01*
X127741218Y-99613632D01*
X127688073Y-99289460D01*
X127688072Y-99289459D01*
X127688071Y-99289448D01*
X127592324Y-98944597D01*
X127459853Y-98612120D01*
X127385807Y-98472456D01*
X127292215Y-98295922D01*
X127292213Y-98295919D01*
X127292211Y-98295915D01*
X127091365Y-97999689D01*
X127091361Y-97999684D01*
X127091358Y-97999680D01*
X126859668Y-97726914D01*
X126599837Y-97480789D01*
X126599830Y-97480783D01*
X126599827Y-97480781D01*
X126504615Y-97408403D01*
X126314919Y-97264200D01*
X126008253Y-97079685D01*
X126008252Y-97079684D01*
X126008248Y-97079682D01*
X126008244Y-97079680D01*
X125683447Y-96929414D01*
X125683441Y-96929411D01*
X125683435Y-96929409D01*
X125513854Y-96872270D01*
X125344273Y-96815131D01*
X124994744Y-96738194D01*
X124638949Y-96699500D01*
X124638948Y-96699500D01*
X124281052Y-96699500D01*
X124281050Y-96699500D01*
X123925255Y-96738194D01*
X123575726Y-96815131D01*
X123319970Y-96901306D01*
X123236565Y-96929409D01*
X123236563Y-96929410D01*
X123236552Y-96929414D01*
X122911755Y-97079680D01*
X122911751Y-97079682D01*
X122688815Y-97213819D01*
X122605081Y-97264200D01*
X122516768Y-97331333D01*
X122320172Y-97480781D01*
X122320163Y-97480789D01*
X122060331Y-97726914D01*
X121828641Y-97999680D01*
X121828634Y-97999690D01*
X121627790Y-98295913D01*
X121627784Y-98295922D01*
X121460151Y-98612111D01*
X121460142Y-98612129D01*
X121327674Y-98944600D01*
X121327672Y-98944607D01*
X121231932Y-99289434D01*
X121231926Y-99289460D01*
X121174029Y-99642614D01*
X121174028Y-99642631D01*
X121154652Y-99999997D01*
X121154652Y-100000002D01*
X106897016Y-100000002D01*
X106994357Y-99879796D01*
X107197043Y-99567687D01*
X107365995Y-99236100D01*
X107499361Y-98888671D01*
X107595680Y-98529204D01*
X107653896Y-98161638D01*
X107673373Y-97790000D01*
X107653896Y-97418362D01*
X107595680Y-97050796D01*
X107499361Y-96691329D01*
X107365995Y-96343900D01*
X107197043Y-96012314D01*
X106994357Y-95700204D01*
X106760157Y-95410991D01*
X106526347Y-95177181D01*
X106492862Y-95115858D01*
X106497846Y-95046166D01*
X106539718Y-94990233D01*
X106605182Y-94965816D01*
X106614028Y-94965500D01*
X155618972Y-94965500D01*
X155686011Y-94985185D01*
G37*
%TD.AperFunction*%
%TD*%
%TA.AperFunction,Conductor*%
%TO.N,VCC*%
G36*
X140983057Y-97791060D02*
G01*
X141080914Y-97803944D01*
X141121870Y-97809336D01*
X141153136Y-97817714D01*
X141274915Y-97868156D01*
X141302950Y-97884342D01*
X141407525Y-97964586D01*
X141430413Y-97987474D01*
X141510657Y-98092049D01*
X141526843Y-98120084D01*
X141577285Y-98241863D01*
X141585663Y-98273129D01*
X141603939Y-98411940D01*
X141605000Y-98428126D01*
X141605000Y-101999718D01*
X141604170Y-102014044D01*
X141589848Y-102137178D01*
X141583272Y-102165064D01*
X141543536Y-102274818D01*
X141530734Y-102300452D01*
X141462912Y-102404207D01*
X141454379Y-102415744D01*
X132274709Y-113431347D01*
X132262146Y-113444361D01*
X132145890Y-113548411D01*
X132115790Y-113568307D01*
X131982808Y-113630593D01*
X131948253Y-113640981D01*
X131793893Y-113663681D01*
X131775852Y-113665000D01*
X130178126Y-113665000D01*
X130161942Y-113663939D01*
X130142681Y-113661403D01*
X130023129Y-113645663D01*
X129991863Y-113637285D01*
X129870084Y-113586843D01*
X129842049Y-113570657D01*
X129737474Y-113490413D01*
X129714586Y-113467525D01*
X129634342Y-113362950D01*
X129618156Y-113334915D01*
X129567714Y-113213136D01*
X129559336Y-113181869D01*
X129541061Y-113043058D01*
X129540000Y-113026873D01*
X129540000Y-108180732D01*
X129540801Y-108166662D01*
X129554617Y-108045691D01*
X129560960Y-108018280D01*
X129599327Y-107910218D01*
X129611680Y-107884961D01*
X129677258Y-107782332D01*
X129685489Y-107770935D01*
X134879876Y-101377844D01*
X137565000Y-101377844D01*
X137571401Y-101437372D01*
X137571403Y-101437379D01*
X137621645Y-101572086D01*
X137621649Y-101572093D01*
X137707809Y-101687187D01*
X137707812Y-101687190D01*
X137822906Y-101773350D01*
X137822913Y-101773354D01*
X137957620Y-101823596D01*
X137957627Y-101823598D01*
X138017155Y-101829999D01*
X138017172Y-101830000D01*
X138815000Y-101830000D01*
X138815000Y-100765501D01*
X138922685Y-100814680D01*
X139029237Y-100830000D01*
X139100763Y-100830000D01*
X139207315Y-100814680D01*
X139315000Y-100765501D01*
X139315000Y-101830000D01*
X140112828Y-101830000D01*
X140112844Y-101829999D01*
X140172372Y-101823598D01*
X140172379Y-101823596D01*
X140307086Y-101773354D01*
X140307093Y-101773350D01*
X140422187Y-101687190D01*
X140422190Y-101687187D01*
X140508350Y-101572093D01*
X140508354Y-101572086D01*
X140558596Y-101437379D01*
X140558598Y-101437372D01*
X140564999Y-101377844D01*
X140565000Y-101377827D01*
X140565000Y-100580000D01*
X139498686Y-100580000D01*
X139524493Y-100539844D01*
X139565000Y-100401889D01*
X139565000Y-100258111D01*
X139524493Y-100120156D01*
X139498686Y-100080000D01*
X140565000Y-100080000D01*
X140565000Y-99282172D01*
X140564999Y-99282155D01*
X140558598Y-99222627D01*
X140558596Y-99222620D01*
X140508354Y-99087913D01*
X140508350Y-99087906D01*
X140422190Y-98972812D01*
X140422187Y-98972809D01*
X140307093Y-98886649D01*
X140307086Y-98886645D01*
X140172379Y-98836403D01*
X140172372Y-98836401D01*
X140112844Y-98830000D01*
X139315000Y-98830000D01*
X139315000Y-99894498D01*
X139207315Y-99845320D01*
X139100763Y-99830000D01*
X139029237Y-99830000D01*
X138922685Y-99845320D01*
X138815000Y-99894498D01*
X138815000Y-98830000D01*
X138017155Y-98830000D01*
X137957627Y-98836401D01*
X137957620Y-98836403D01*
X137822913Y-98886645D01*
X137822906Y-98886649D01*
X137707812Y-98972809D01*
X137707809Y-98972812D01*
X137621649Y-99087906D01*
X137621645Y-99087913D01*
X137571403Y-99222620D01*
X137571401Y-99222627D01*
X137565000Y-99282155D01*
X137565000Y-100080000D01*
X138631314Y-100080000D01*
X138605507Y-100120156D01*
X138565000Y-100258111D01*
X138565000Y-100401889D01*
X138605507Y-100539844D01*
X138631314Y-100580000D01*
X137565000Y-100580000D01*
X137565000Y-101377844D01*
X134879876Y-101377844D01*
X137601566Y-98028072D01*
X137610813Y-98017901D01*
X137695589Y-97934466D01*
X137717184Y-97917485D01*
X137812358Y-97858436D01*
X137837169Y-97846627D01*
X137943010Y-97809997D01*
X137969815Y-97803944D01*
X138057058Y-97794215D01*
X138088011Y-97790764D01*
X138101753Y-97790000D01*
X140966874Y-97790000D01*
X140983057Y-97791060D01*
G37*
%TD.AperFunction*%
%TD*%
%TA.AperFunction,Conductor*%
%TO.N,VCC*%
G36*
X131793892Y-126366319D02*
G01*
X131888621Y-126380249D01*
X131948252Y-126389018D01*
X131982803Y-126399404D01*
X132115791Y-126461692D01*
X132145890Y-126481588D01*
X132262146Y-126585638D01*
X132274709Y-126598652D01*
X141454379Y-137614255D01*
X141462912Y-137625792D01*
X141530734Y-137729547D01*
X141543536Y-137755181D01*
X141583272Y-137864935D01*
X141589848Y-137892821D01*
X141604170Y-138015955D01*
X141605000Y-138030281D01*
X141605000Y-141601873D01*
X141603939Y-141618059D01*
X141585663Y-141756870D01*
X141577285Y-141788136D01*
X141526843Y-141909915D01*
X141510657Y-141937950D01*
X141430413Y-142042525D01*
X141407525Y-142065413D01*
X141302950Y-142145657D01*
X141274915Y-142161843D01*
X141153136Y-142212285D01*
X141121870Y-142220663D01*
X140999984Y-142236710D01*
X140983057Y-142238939D01*
X140966874Y-142240000D01*
X138101753Y-142240000D01*
X138088010Y-142239236D01*
X137969817Y-142226055D01*
X137943006Y-142220000D01*
X137837173Y-142183373D01*
X137812354Y-142171560D01*
X137717190Y-142112518D01*
X137695584Y-142095528D01*
X137610819Y-142012104D01*
X137601560Y-142001919D01*
X136582624Y-140747844D01*
X137565000Y-140747844D01*
X137571401Y-140807372D01*
X137571403Y-140807379D01*
X137621645Y-140942086D01*
X137621649Y-140942093D01*
X137707809Y-141057187D01*
X137707812Y-141057190D01*
X137822906Y-141143350D01*
X137822913Y-141143354D01*
X137957620Y-141193596D01*
X137957627Y-141193598D01*
X138017155Y-141199999D01*
X138017172Y-141200000D01*
X138815000Y-141200000D01*
X138815000Y-140135501D01*
X138922685Y-140184680D01*
X139029237Y-140200000D01*
X139100763Y-140200000D01*
X139207315Y-140184680D01*
X139315000Y-140135501D01*
X139315000Y-141200000D01*
X140112828Y-141200000D01*
X140112844Y-141199999D01*
X140172372Y-141193598D01*
X140172379Y-141193596D01*
X140307086Y-141143354D01*
X140307093Y-141143350D01*
X140422187Y-141057190D01*
X140422190Y-141057187D01*
X140508350Y-140942093D01*
X140508354Y-140942086D01*
X140558596Y-140807379D01*
X140558598Y-140807372D01*
X140564999Y-140747844D01*
X140565000Y-140747827D01*
X140565000Y-139950000D01*
X139498686Y-139950000D01*
X139524493Y-139909844D01*
X139565000Y-139771889D01*
X139565000Y-139628111D01*
X139524493Y-139490156D01*
X139498686Y-139450000D01*
X140565000Y-139450000D01*
X140565000Y-138652172D01*
X140564999Y-138652155D01*
X140558598Y-138592627D01*
X140558596Y-138592620D01*
X140508354Y-138457913D01*
X140508350Y-138457906D01*
X140422190Y-138342812D01*
X140422187Y-138342809D01*
X140307093Y-138256649D01*
X140307086Y-138256645D01*
X140172379Y-138206403D01*
X140172372Y-138206401D01*
X140112844Y-138200000D01*
X139315000Y-138200000D01*
X139315000Y-139264498D01*
X139207315Y-139215320D01*
X139100763Y-139200000D01*
X139029237Y-139200000D01*
X138922685Y-139215320D01*
X138815000Y-139264498D01*
X138815000Y-138200000D01*
X138017155Y-138200000D01*
X137957627Y-138206401D01*
X137957620Y-138206403D01*
X137822913Y-138256645D01*
X137822906Y-138256649D01*
X137707812Y-138342809D01*
X137707809Y-138342812D01*
X137621649Y-138457906D01*
X137621645Y-138457913D01*
X137571403Y-138592620D01*
X137571401Y-138592627D01*
X137565000Y-138652155D01*
X137565000Y-139450000D01*
X138631314Y-139450000D01*
X138605507Y-139490156D01*
X138565000Y-139628111D01*
X138565000Y-139771889D01*
X138605507Y-139909844D01*
X138631314Y-139950000D01*
X137565000Y-139950000D01*
X137565000Y-140747844D01*
X136582624Y-140747844D01*
X134628535Y-138342812D01*
X129685495Y-132259072D01*
X129677253Y-132247659D01*
X129611682Y-132145042D01*
X129599326Y-132119778D01*
X129560961Y-132011721D01*
X129554617Y-131984308D01*
X129540801Y-131863337D01*
X129540000Y-131849267D01*
X129540000Y-127003126D01*
X129541061Y-126986941D01*
X129559336Y-126848130D01*
X129567714Y-126816863D01*
X129618156Y-126695084D01*
X129634342Y-126667049D01*
X129714586Y-126562474D01*
X129737474Y-126539586D01*
X129842049Y-126459342D01*
X129870084Y-126443156D01*
X129991863Y-126392714D01*
X130023130Y-126384336D01*
X130161941Y-126366061D01*
X130178126Y-126365000D01*
X131775852Y-126365000D01*
X131793892Y-126366319D01*
G37*
%TD.AperFunction*%
%TD*%
M02*
