%TF.GenerationSoftware,KiCad,Pcbnew,7.0.11+dfsg-1build4*%
%TF.CreationDate,2025-07-18T01:50:02+04:00*%
%TF.ProjectId,tpa3116_amplifier_board,74706133-3131-4365-9f61-6d706c696669,rev?*%
%TF.SameCoordinates,Original*%
%TF.FileFunction,Legend,Top*%
%TF.FilePolarity,Positive*%
%FSLAX46Y46*%
G04 Gerber Fmt 4.6, Leading zero omitted, Abs format (unit mm)*
G04 Created by KiCad (PCBNEW 7.0.11+dfsg-1build4) date 2025-07-18 01:50:02*
%MOMM*%
%LPD*%
G01*
G04 APERTURE LIST*
%ADD10C,0.150000*%
%ADD11C,0.254000*%
%ADD12C,0.120000*%
%ADD13C,0.200000*%
G04 APERTURE END LIST*
D10*
X105188112Y-109056342D02*
X104788112Y-108484914D01*
X104502398Y-109056342D02*
X104502398Y-107856342D01*
X104502398Y-107856342D02*
X104959541Y-107856342D01*
X104959541Y-107856342D02*
X105073826Y-107913485D01*
X105073826Y-107913485D02*
X105130969Y-107970628D01*
X105130969Y-107970628D02*
X105188112Y-108084914D01*
X105188112Y-108084914D02*
X105188112Y-108256342D01*
X105188112Y-108256342D02*
X105130969Y-108370628D01*
X105130969Y-108370628D02*
X105073826Y-108427771D01*
X105073826Y-108427771D02*
X104959541Y-108484914D01*
X104959541Y-108484914D02*
X104502398Y-108484914D01*
X105702398Y-108599200D02*
X106616684Y-108599200D01*
X157229398Y-135278200D02*
X158143684Y-135278200D01*
X157686541Y-135735342D02*
X157686541Y-134821057D01*
X157229398Y-109972200D02*
X158143684Y-109972200D01*
X157229398Y-104638200D02*
X158143684Y-104638200D01*
X157686541Y-105095342D02*
X157686541Y-104181057D01*
X104467255Y-122724200D02*
X104581541Y-122781342D01*
X104581541Y-122781342D02*
X104810112Y-122781342D01*
X104810112Y-122781342D02*
X104924398Y-122724200D01*
X104924398Y-122724200D02*
X104981541Y-122609914D01*
X104981541Y-122609914D02*
X104981541Y-122552771D01*
X104981541Y-122552771D02*
X104924398Y-122438485D01*
X104924398Y-122438485D02*
X104810112Y-122381342D01*
X104810112Y-122381342D02*
X104638684Y-122381342D01*
X104638684Y-122381342D02*
X104524398Y-122324200D01*
X104524398Y-122324200D02*
X104467255Y-122209914D01*
X104467255Y-122209914D02*
X104467255Y-122152771D01*
X104467255Y-122152771D02*
X104524398Y-122038485D01*
X104524398Y-122038485D02*
X104638684Y-121981342D01*
X104638684Y-121981342D02*
X104810112Y-121981342D01*
X104810112Y-121981342D02*
X104924398Y-122038485D01*
X106010113Y-122781342D02*
X106010113Y-121581342D01*
X106010113Y-122724200D02*
X105895827Y-122781342D01*
X105895827Y-122781342D02*
X105667255Y-122781342D01*
X105667255Y-122781342D02*
X105552970Y-122724200D01*
X105552970Y-122724200D02*
X105495827Y-122667057D01*
X105495827Y-122667057D02*
X105438684Y-122552771D01*
X105438684Y-122552771D02*
X105438684Y-122209914D01*
X105438684Y-122209914D02*
X105495827Y-122095628D01*
X105495827Y-122095628D02*
X105552970Y-122038485D01*
X105552970Y-122038485D02*
X105667255Y-121981342D01*
X105667255Y-121981342D02*
X105895827Y-121981342D01*
X105895827Y-121981342D02*
X106010113Y-122038485D01*
X106295827Y-122895628D02*
X107210112Y-122895628D01*
X107667255Y-122781342D02*
X107552970Y-122724200D01*
X107552970Y-122724200D02*
X107495827Y-122609914D01*
X107495827Y-122609914D02*
X107495827Y-121581342D01*
X108124398Y-122781342D02*
X108124398Y-121981342D01*
X108124398Y-122209914D02*
X108181541Y-122095628D01*
X108181541Y-122095628D02*
X108238684Y-122038485D01*
X108238684Y-122038485D02*
X108352969Y-121981342D01*
X108352969Y-121981342D02*
X108467255Y-121981342D01*
X157229398Y-129817200D02*
X158143684Y-129817200D01*
X105188112Y-104865342D02*
X104788112Y-104293914D01*
X104502398Y-104865342D02*
X104502398Y-103665342D01*
X104502398Y-103665342D02*
X104959541Y-103665342D01*
X104959541Y-103665342D02*
X105073826Y-103722485D01*
X105073826Y-103722485D02*
X105130969Y-103779628D01*
X105130969Y-103779628D02*
X105188112Y-103893914D01*
X105188112Y-103893914D02*
X105188112Y-104065342D01*
X105188112Y-104065342D02*
X105130969Y-104179628D01*
X105130969Y-104179628D02*
X105073826Y-104236771D01*
X105073826Y-104236771D02*
X104959541Y-104293914D01*
X104959541Y-104293914D02*
X104502398Y-104293914D01*
X105702398Y-104408200D02*
X106616684Y-104408200D01*
X106159541Y-104865342D02*
X106159541Y-103951057D01*
X105152969Y-134465485D02*
X105038684Y-134408342D01*
X105038684Y-134408342D02*
X104867255Y-134408342D01*
X104867255Y-134408342D02*
X104695826Y-134465485D01*
X104695826Y-134465485D02*
X104581541Y-134579771D01*
X104581541Y-134579771D02*
X104524398Y-134694057D01*
X104524398Y-134694057D02*
X104467255Y-134922628D01*
X104467255Y-134922628D02*
X104467255Y-135094057D01*
X104467255Y-135094057D02*
X104524398Y-135322628D01*
X104524398Y-135322628D02*
X104581541Y-135436914D01*
X104581541Y-135436914D02*
X104695826Y-135551200D01*
X104695826Y-135551200D02*
X104867255Y-135608342D01*
X104867255Y-135608342D02*
X104981541Y-135608342D01*
X104981541Y-135608342D02*
X105152969Y-135551200D01*
X105152969Y-135551200D02*
X105210112Y-135494057D01*
X105210112Y-135494057D02*
X105210112Y-135094057D01*
X105210112Y-135094057D02*
X104981541Y-135094057D01*
X105724398Y-135608342D02*
X105724398Y-134408342D01*
X105724398Y-134408342D02*
X106410112Y-135608342D01*
X106410112Y-135608342D02*
X106410112Y-134408342D01*
X106981541Y-135608342D02*
X106981541Y-134408342D01*
X106981541Y-134408342D02*
X107267255Y-134408342D01*
X107267255Y-134408342D02*
X107438684Y-134465485D01*
X107438684Y-134465485D02*
X107552969Y-134579771D01*
X107552969Y-134579771D02*
X107610112Y-134694057D01*
X107610112Y-134694057D02*
X107667255Y-134922628D01*
X107667255Y-134922628D02*
X107667255Y-135094057D01*
X107667255Y-135094057D02*
X107610112Y-135322628D01*
X107610112Y-135322628D02*
X107552969Y-135436914D01*
X107552969Y-135436914D02*
X107438684Y-135551200D01*
X107438684Y-135551200D02*
X107267255Y-135608342D01*
X107267255Y-135608342D02*
X106981541Y-135608342D01*
X160455112Y-126210342D02*
X160055112Y-125638914D01*
X159769398Y-126210342D02*
X159769398Y-125010342D01*
X159769398Y-125010342D02*
X160226541Y-125010342D01*
X160226541Y-125010342D02*
X160340826Y-125067485D01*
X160340826Y-125067485D02*
X160397969Y-125124628D01*
X160397969Y-125124628D02*
X160455112Y-125238914D01*
X160455112Y-125238914D02*
X160455112Y-125410342D01*
X160455112Y-125410342D02*
X160397969Y-125524628D01*
X160397969Y-125524628D02*
X160340826Y-125581771D01*
X160340826Y-125581771D02*
X160226541Y-125638914D01*
X160226541Y-125638914D02*
X159769398Y-125638914D01*
X160969398Y-125753200D02*
X161883684Y-125753200D01*
X160455112Y-114780342D02*
X160055112Y-114208914D01*
X159769398Y-114780342D02*
X159769398Y-113580342D01*
X159769398Y-113580342D02*
X160226541Y-113580342D01*
X160226541Y-113580342D02*
X160340826Y-113637485D01*
X160340826Y-113637485D02*
X160397969Y-113694628D01*
X160397969Y-113694628D02*
X160455112Y-113808914D01*
X160455112Y-113808914D02*
X160455112Y-113980342D01*
X160455112Y-113980342D02*
X160397969Y-114094628D01*
X160397969Y-114094628D02*
X160340826Y-114151771D01*
X160340826Y-114151771D02*
X160226541Y-114208914D01*
X160226541Y-114208914D02*
X159769398Y-114208914D01*
X160969398Y-114323200D02*
X161883684Y-114323200D01*
X161426541Y-114780342D02*
X161426541Y-113866057D01*
X104489255Y-131106200D02*
X104603541Y-131163342D01*
X104603541Y-131163342D02*
X104832112Y-131163342D01*
X104832112Y-131163342D02*
X104946398Y-131106200D01*
X104946398Y-131106200D02*
X105003541Y-130991914D01*
X105003541Y-130991914D02*
X105003541Y-130934771D01*
X105003541Y-130934771D02*
X104946398Y-130820485D01*
X104946398Y-130820485D02*
X104832112Y-130763342D01*
X104832112Y-130763342D02*
X104660684Y-130763342D01*
X104660684Y-130763342D02*
X104546398Y-130706200D01*
X104546398Y-130706200D02*
X104489255Y-130591914D01*
X104489255Y-130591914D02*
X104489255Y-130534771D01*
X104489255Y-130534771D02*
X104546398Y-130420485D01*
X104546398Y-130420485D02*
X104660684Y-130363342D01*
X104660684Y-130363342D02*
X104832112Y-130363342D01*
X104832112Y-130363342D02*
X104946398Y-130420485D01*
X105403541Y-130363342D02*
X105689255Y-131163342D01*
X105974970Y-130363342D02*
X105689255Y-131163342D01*
X105689255Y-131163342D02*
X105574970Y-131449057D01*
X105574970Y-131449057D02*
X105517827Y-131506200D01*
X105517827Y-131506200D02*
X105403541Y-131563342D01*
X106432113Y-130363342D02*
X106432113Y-131163342D01*
X106432113Y-130477628D02*
X106489256Y-130420485D01*
X106489256Y-130420485D02*
X106603541Y-130363342D01*
X106603541Y-130363342D02*
X106774970Y-130363342D01*
X106774970Y-130363342D02*
X106889256Y-130420485D01*
X106889256Y-130420485D02*
X106946399Y-130534771D01*
X106946399Y-130534771D02*
X106946399Y-131163342D01*
X108032113Y-131106200D02*
X107917827Y-131163342D01*
X107917827Y-131163342D02*
X107689255Y-131163342D01*
X107689255Y-131163342D02*
X107574970Y-131106200D01*
X107574970Y-131106200D02*
X107517827Y-131049057D01*
X107517827Y-131049057D02*
X107460684Y-130934771D01*
X107460684Y-130934771D02*
X107460684Y-130591914D01*
X107460684Y-130591914D02*
X107517827Y-130477628D01*
X107517827Y-130477628D02*
X107574970Y-130420485D01*
X107574970Y-130420485D02*
X107689255Y-130363342D01*
X107689255Y-130363342D02*
X107917827Y-130363342D01*
X107917827Y-130363342D02*
X108032113Y-130420485D01*
X104546398Y-126972342D02*
X104546398Y-126172342D01*
X104546398Y-126286628D02*
X104603541Y-126229485D01*
X104603541Y-126229485D02*
X104717826Y-126172342D01*
X104717826Y-126172342D02*
X104889255Y-126172342D01*
X104889255Y-126172342D02*
X105003541Y-126229485D01*
X105003541Y-126229485D02*
X105060684Y-126343771D01*
X105060684Y-126343771D02*
X105060684Y-126972342D01*
X105060684Y-126343771D02*
X105117826Y-126229485D01*
X105117826Y-126229485D02*
X105232112Y-126172342D01*
X105232112Y-126172342D02*
X105403541Y-126172342D01*
X105403541Y-126172342D02*
X105517826Y-126229485D01*
X105517826Y-126229485D02*
X105574969Y-126343771D01*
X105574969Y-126343771D02*
X105574969Y-126972342D01*
X106660684Y-126172342D02*
X106660684Y-126972342D01*
X106146398Y-126172342D02*
X106146398Y-126800914D01*
X106146398Y-126800914D02*
X106203541Y-126915200D01*
X106203541Y-126915200D02*
X106317826Y-126972342D01*
X106317826Y-126972342D02*
X106489255Y-126972342D01*
X106489255Y-126972342D02*
X106603541Y-126915200D01*
X106603541Y-126915200D02*
X106660684Y-126858057D01*
X107060683Y-126172342D02*
X107517826Y-126172342D01*
X107232112Y-125772342D02*
X107232112Y-126800914D01*
X107232112Y-126800914D02*
X107289255Y-126915200D01*
X107289255Y-126915200D02*
X107403540Y-126972342D01*
X107403540Y-126972342D02*
X107517826Y-126972342D01*
X108374969Y-126915200D02*
X108260683Y-126972342D01*
X108260683Y-126972342D02*
X108032112Y-126972342D01*
X108032112Y-126972342D02*
X107917826Y-126915200D01*
X107917826Y-126915200D02*
X107860683Y-126800914D01*
X107860683Y-126800914D02*
X107860683Y-126343771D01*
X107860683Y-126343771D02*
X107917826Y-126229485D01*
X107917826Y-126229485D02*
X108032112Y-126172342D01*
X108032112Y-126172342D02*
X108260683Y-126172342D01*
X108260683Y-126172342D02*
X108374969Y-126229485D01*
X108374969Y-126229485D02*
X108432112Y-126343771D01*
X108432112Y-126343771D02*
X108432112Y-126458057D01*
X108432112Y-126458057D02*
X107860683Y-126572342D01*
X116651333Y-118564819D02*
X116318000Y-118088628D01*
X116079905Y-118564819D02*
X116079905Y-117564819D01*
X116079905Y-117564819D02*
X116460857Y-117564819D01*
X116460857Y-117564819D02*
X116556095Y-117612438D01*
X116556095Y-117612438D02*
X116603714Y-117660057D01*
X116603714Y-117660057D02*
X116651333Y-117755295D01*
X116651333Y-117755295D02*
X116651333Y-117898152D01*
X116651333Y-117898152D02*
X116603714Y-117993390D01*
X116603714Y-117993390D02*
X116556095Y-118041009D01*
X116556095Y-118041009D02*
X116460857Y-118088628D01*
X116460857Y-118088628D02*
X116079905Y-118088628D01*
X117508476Y-117898152D02*
X117508476Y-118564819D01*
X117270381Y-117517200D02*
X117032286Y-118231485D01*
X117032286Y-118231485D02*
X117651333Y-118231485D01*
X102536666Y-119224819D02*
X102536666Y-119939104D01*
X102536666Y-119939104D02*
X102489047Y-120081961D01*
X102489047Y-120081961D02*
X102393809Y-120177200D01*
X102393809Y-120177200D02*
X102250952Y-120224819D01*
X102250952Y-120224819D02*
X102155714Y-120224819D01*
X103536666Y-120224819D02*
X102965238Y-120224819D01*
X103250952Y-120224819D02*
X103250952Y-119224819D01*
X103250952Y-119224819D02*
X103155714Y-119367676D01*
X103155714Y-119367676D02*
X103060476Y-119462914D01*
X103060476Y-119462914D02*
X102965238Y-119510533D01*
X154813095Y-142694819D02*
X154813095Y-141694819D01*
X154813095Y-142171009D02*
X155384523Y-142171009D01*
X155384523Y-142694819D02*
X155384523Y-141694819D01*
X155765476Y-141694819D02*
X156384523Y-141694819D01*
X156384523Y-141694819D02*
X156051190Y-142075771D01*
X156051190Y-142075771D02*
X156194047Y-142075771D01*
X156194047Y-142075771D02*
X156289285Y-142123390D01*
X156289285Y-142123390D02*
X156336904Y-142171009D01*
X156336904Y-142171009D02*
X156384523Y-142266247D01*
X156384523Y-142266247D02*
X156384523Y-142504342D01*
X156384523Y-142504342D02*
X156336904Y-142599580D01*
X156336904Y-142599580D02*
X156289285Y-142647200D01*
X156289285Y-142647200D02*
X156194047Y-142694819D01*
X156194047Y-142694819D02*
X155908333Y-142694819D01*
X155908333Y-142694819D02*
X155813095Y-142647200D01*
X155813095Y-142647200D02*
X155765476Y-142599580D01*
X116673333Y-128724819D02*
X116340000Y-128248628D01*
X116101905Y-128724819D02*
X116101905Y-127724819D01*
X116101905Y-127724819D02*
X116482857Y-127724819D01*
X116482857Y-127724819D02*
X116578095Y-127772438D01*
X116578095Y-127772438D02*
X116625714Y-127820057D01*
X116625714Y-127820057D02*
X116673333Y-127915295D01*
X116673333Y-127915295D02*
X116673333Y-128058152D01*
X116673333Y-128058152D02*
X116625714Y-128153390D01*
X116625714Y-128153390D02*
X116578095Y-128201009D01*
X116578095Y-128201009D02*
X116482857Y-128248628D01*
X116482857Y-128248628D02*
X116101905Y-128248628D01*
X117530476Y-127724819D02*
X117340000Y-127724819D01*
X117340000Y-127724819D02*
X117244762Y-127772438D01*
X117244762Y-127772438D02*
X117197143Y-127820057D01*
X117197143Y-127820057D02*
X117101905Y-127962914D01*
X117101905Y-127962914D02*
X117054286Y-128153390D01*
X117054286Y-128153390D02*
X117054286Y-128534342D01*
X117054286Y-128534342D02*
X117101905Y-128629580D01*
X117101905Y-128629580D02*
X117149524Y-128677200D01*
X117149524Y-128677200D02*
X117244762Y-128724819D01*
X117244762Y-128724819D02*
X117435238Y-128724819D01*
X117435238Y-128724819D02*
X117530476Y-128677200D01*
X117530476Y-128677200D02*
X117578095Y-128629580D01*
X117578095Y-128629580D02*
X117625714Y-128534342D01*
X117625714Y-128534342D02*
X117625714Y-128296247D01*
X117625714Y-128296247D02*
X117578095Y-128201009D01*
X117578095Y-128201009D02*
X117530476Y-128153390D01*
X117530476Y-128153390D02*
X117435238Y-128105771D01*
X117435238Y-128105771D02*
X117244762Y-128105771D01*
X117244762Y-128105771D02*
X117149524Y-128153390D01*
X117149524Y-128153390D02*
X117101905Y-128201009D01*
X117101905Y-128201009D02*
X117054286Y-128296247D01*
X123676095Y-139519819D02*
X123676095Y-138519819D01*
X123676095Y-138996009D02*
X124247523Y-138996009D01*
X124247523Y-139519819D02*
X124247523Y-138519819D01*
X125152285Y-138519819D02*
X124961809Y-138519819D01*
X124961809Y-138519819D02*
X124866571Y-138567438D01*
X124866571Y-138567438D02*
X124818952Y-138615057D01*
X124818952Y-138615057D02*
X124723714Y-138757914D01*
X124723714Y-138757914D02*
X124676095Y-138948390D01*
X124676095Y-138948390D02*
X124676095Y-139329342D01*
X124676095Y-139329342D02*
X124723714Y-139424580D01*
X124723714Y-139424580D02*
X124771333Y-139472200D01*
X124771333Y-139472200D02*
X124866571Y-139519819D01*
X124866571Y-139519819D02*
X125057047Y-139519819D01*
X125057047Y-139519819D02*
X125152285Y-139472200D01*
X125152285Y-139472200D02*
X125199904Y-139424580D01*
X125199904Y-139424580D02*
X125247523Y-139329342D01*
X125247523Y-139329342D02*
X125247523Y-139091247D01*
X125247523Y-139091247D02*
X125199904Y-138996009D01*
X125199904Y-138996009D02*
X125152285Y-138948390D01*
X125152285Y-138948390D02*
X125057047Y-138900771D01*
X125057047Y-138900771D02*
X124866571Y-138900771D01*
X124866571Y-138900771D02*
X124771333Y-138948390D01*
X124771333Y-138948390D02*
X124723714Y-138996009D01*
X124723714Y-138996009D02*
X124676095Y-139091247D01*
X157204580Y-116212857D02*
X157252200Y-116260476D01*
X157252200Y-116260476D02*
X157299819Y-116403333D01*
X157299819Y-116403333D02*
X157299819Y-116498571D01*
X157299819Y-116498571D02*
X157252200Y-116641428D01*
X157252200Y-116641428D02*
X157156961Y-116736666D01*
X157156961Y-116736666D02*
X157061723Y-116784285D01*
X157061723Y-116784285D02*
X156871247Y-116831904D01*
X156871247Y-116831904D02*
X156728390Y-116831904D01*
X156728390Y-116831904D02*
X156537914Y-116784285D01*
X156537914Y-116784285D02*
X156442676Y-116736666D01*
X156442676Y-116736666D02*
X156347438Y-116641428D01*
X156347438Y-116641428D02*
X156299819Y-116498571D01*
X156299819Y-116498571D02*
X156299819Y-116403333D01*
X156299819Y-116403333D02*
X156347438Y-116260476D01*
X156347438Y-116260476D02*
X156395057Y-116212857D01*
X157299819Y-115260476D02*
X157299819Y-115831904D01*
X157299819Y-115546190D02*
X156299819Y-115546190D01*
X156299819Y-115546190D02*
X156442676Y-115641428D01*
X156442676Y-115641428D02*
X156537914Y-115736666D01*
X156537914Y-115736666D02*
X156585533Y-115831904D01*
X156299819Y-114927142D02*
X156299819Y-114260476D01*
X156299819Y-114260476D02*
X157299819Y-114689047D01*
X106535332Y-120374579D02*
X106487713Y-120422199D01*
X106487713Y-120422199D02*
X106344856Y-120469818D01*
X106344856Y-120469818D02*
X106249618Y-120469818D01*
X106249618Y-120469818D02*
X106106761Y-120422199D01*
X106106761Y-120422199D02*
X106011523Y-120326960D01*
X106011523Y-120326960D02*
X105963904Y-120231722D01*
X105963904Y-120231722D02*
X105916285Y-120041246D01*
X105916285Y-120041246D02*
X105916285Y-119898389D01*
X105916285Y-119898389D02*
X105963904Y-119707913D01*
X105963904Y-119707913D02*
X106011523Y-119612675D01*
X106011523Y-119612675D02*
X106106761Y-119517437D01*
X106106761Y-119517437D02*
X106249618Y-119469818D01*
X106249618Y-119469818D02*
X106344856Y-119469818D01*
X106344856Y-119469818D02*
X106487713Y-119517437D01*
X106487713Y-119517437D02*
X106535332Y-119565056D01*
X107392475Y-119469818D02*
X107201999Y-119469818D01*
X107201999Y-119469818D02*
X107106761Y-119517437D01*
X107106761Y-119517437D02*
X107059142Y-119565056D01*
X107059142Y-119565056D02*
X106963904Y-119707913D01*
X106963904Y-119707913D02*
X106916285Y-119898389D01*
X106916285Y-119898389D02*
X106916285Y-120279341D01*
X106916285Y-120279341D02*
X106963904Y-120374579D01*
X106963904Y-120374579D02*
X107011523Y-120422199D01*
X107011523Y-120422199D02*
X107106761Y-120469818D01*
X107106761Y-120469818D02*
X107297237Y-120469818D01*
X107297237Y-120469818D02*
X107392475Y-120422199D01*
X107392475Y-120422199D02*
X107440094Y-120374579D01*
X107440094Y-120374579D02*
X107487713Y-120279341D01*
X107487713Y-120279341D02*
X107487713Y-120041246D01*
X107487713Y-120041246D02*
X107440094Y-119946008D01*
X107440094Y-119946008D02*
X107392475Y-119898389D01*
X107392475Y-119898389D02*
X107297237Y-119850770D01*
X107297237Y-119850770D02*
X107106761Y-119850770D01*
X107106761Y-119850770D02*
X107011523Y-119898389D01*
X107011523Y-119898389D02*
X106963904Y-119946008D01*
X106963904Y-119946008D02*
X106916285Y-120041246D01*
X116841333Y-107769819D02*
X116508000Y-107293628D01*
X116269905Y-107769819D02*
X116269905Y-106769819D01*
X116269905Y-106769819D02*
X116650857Y-106769819D01*
X116650857Y-106769819D02*
X116746095Y-106817438D01*
X116746095Y-106817438D02*
X116793714Y-106865057D01*
X116793714Y-106865057D02*
X116841333Y-106960295D01*
X116841333Y-106960295D02*
X116841333Y-107103152D01*
X116841333Y-107103152D02*
X116793714Y-107198390D01*
X116793714Y-107198390D02*
X116746095Y-107246009D01*
X116746095Y-107246009D02*
X116650857Y-107293628D01*
X116650857Y-107293628D02*
X116269905Y-107293628D01*
X117174667Y-106769819D02*
X117841333Y-106769819D01*
X117841333Y-106769819D02*
X117412762Y-107769819D01*
X136249580Y-118752857D02*
X136297200Y-118800476D01*
X136297200Y-118800476D02*
X136344819Y-118943333D01*
X136344819Y-118943333D02*
X136344819Y-119038571D01*
X136344819Y-119038571D02*
X136297200Y-119181428D01*
X136297200Y-119181428D02*
X136201961Y-119276666D01*
X136201961Y-119276666D02*
X136106723Y-119324285D01*
X136106723Y-119324285D02*
X135916247Y-119371904D01*
X135916247Y-119371904D02*
X135773390Y-119371904D01*
X135773390Y-119371904D02*
X135582914Y-119324285D01*
X135582914Y-119324285D02*
X135487676Y-119276666D01*
X135487676Y-119276666D02*
X135392438Y-119181428D01*
X135392438Y-119181428D02*
X135344819Y-119038571D01*
X135344819Y-119038571D02*
X135344819Y-118943333D01*
X135344819Y-118943333D02*
X135392438Y-118800476D01*
X135392438Y-118800476D02*
X135440057Y-118752857D01*
X136344819Y-117800476D02*
X136344819Y-118371904D01*
X136344819Y-118086190D02*
X135344819Y-118086190D01*
X135344819Y-118086190D02*
X135487676Y-118181428D01*
X135487676Y-118181428D02*
X135582914Y-118276666D01*
X135582914Y-118276666D02*
X135630533Y-118371904D01*
X135440057Y-117419523D02*
X135392438Y-117371904D01*
X135392438Y-117371904D02*
X135344819Y-117276666D01*
X135344819Y-117276666D02*
X135344819Y-117038571D01*
X135344819Y-117038571D02*
X135392438Y-116943333D01*
X135392438Y-116943333D02*
X135440057Y-116895714D01*
X135440057Y-116895714D02*
X135535295Y-116848095D01*
X135535295Y-116848095D02*
X135630533Y-116848095D01*
X135630533Y-116848095D02*
X135773390Y-116895714D01*
X135773390Y-116895714D02*
X136344819Y-117467142D01*
X136344819Y-117467142D02*
X136344819Y-116848095D01*
X124271333Y-112754580D02*
X124223714Y-112802200D01*
X124223714Y-112802200D02*
X124080857Y-112849819D01*
X124080857Y-112849819D02*
X123985619Y-112849819D01*
X123985619Y-112849819D02*
X123842762Y-112802200D01*
X123842762Y-112802200D02*
X123747524Y-112706961D01*
X123747524Y-112706961D02*
X123699905Y-112611723D01*
X123699905Y-112611723D02*
X123652286Y-112421247D01*
X123652286Y-112421247D02*
X123652286Y-112278390D01*
X123652286Y-112278390D02*
X123699905Y-112087914D01*
X123699905Y-112087914D02*
X123747524Y-111992676D01*
X123747524Y-111992676D02*
X123842762Y-111897438D01*
X123842762Y-111897438D02*
X123985619Y-111849819D01*
X123985619Y-111849819D02*
X124080857Y-111849819D01*
X124080857Y-111849819D02*
X124223714Y-111897438D01*
X124223714Y-111897438D02*
X124271333Y-111945057D01*
X124604667Y-111849819D02*
X125271333Y-111849819D01*
X125271333Y-111849819D02*
X124842762Y-112849819D01*
X116673333Y-131264819D02*
X116340000Y-130788628D01*
X116101905Y-131264819D02*
X116101905Y-130264819D01*
X116101905Y-130264819D02*
X116482857Y-130264819D01*
X116482857Y-130264819D02*
X116578095Y-130312438D01*
X116578095Y-130312438D02*
X116625714Y-130360057D01*
X116625714Y-130360057D02*
X116673333Y-130455295D01*
X116673333Y-130455295D02*
X116673333Y-130598152D01*
X116673333Y-130598152D02*
X116625714Y-130693390D01*
X116625714Y-130693390D02*
X116578095Y-130741009D01*
X116578095Y-130741009D02*
X116482857Y-130788628D01*
X116482857Y-130788628D02*
X116101905Y-130788628D01*
X117578095Y-130264819D02*
X117101905Y-130264819D01*
X117101905Y-130264819D02*
X117054286Y-130741009D01*
X117054286Y-130741009D02*
X117101905Y-130693390D01*
X117101905Y-130693390D02*
X117197143Y-130645771D01*
X117197143Y-130645771D02*
X117435238Y-130645771D01*
X117435238Y-130645771D02*
X117530476Y-130693390D01*
X117530476Y-130693390D02*
X117578095Y-130741009D01*
X117578095Y-130741009D02*
X117625714Y-130836247D01*
X117625714Y-130836247D02*
X117625714Y-131074342D01*
X117625714Y-131074342D02*
X117578095Y-131169580D01*
X117578095Y-131169580D02*
X117530476Y-131217200D01*
X117530476Y-131217200D02*
X117435238Y-131264819D01*
X117435238Y-131264819D02*
X117197143Y-131264819D01*
X117197143Y-131264819D02*
X117101905Y-131217200D01*
X117101905Y-131217200D02*
X117054286Y-131169580D01*
X136249580Y-121927857D02*
X136297200Y-121975476D01*
X136297200Y-121975476D02*
X136344819Y-122118333D01*
X136344819Y-122118333D02*
X136344819Y-122213571D01*
X136344819Y-122213571D02*
X136297200Y-122356428D01*
X136297200Y-122356428D02*
X136201961Y-122451666D01*
X136201961Y-122451666D02*
X136106723Y-122499285D01*
X136106723Y-122499285D02*
X135916247Y-122546904D01*
X135916247Y-122546904D02*
X135773390Y-122546904D01*
X135773390Y-122546904D02*
X135582914Y-122499285D01*
X135582914Y-122499285D02*
X135487676Y-122451666D01*
X135487676Y-122451666D02*
X135392438Y-122356428D01*
X135392438Y-122356428D02*
X135344819Y-122213571D01*
X135344819Y-122213571D02*
X135344819Y-122118333D01*
X135344819Y-122118333D02*
X135392438Y-121975476D01*
X135392438Y-121975476D02*
X135440057Y-121927857D01*
X136344819Y-120975476D02*
X136344819Y-121546904D01*
X136344819Y-121261190D02*
X135344819Y-121261190D01*
X135344819Y-121261190D02*
X135487676Y-121356428D01*
X135487676Y-121356428D02*
X135582914Y-121451666D01*
X135582914Y-121451666D02*
X135630533Y-121546904D01*
X135344819Y-120642142D02*
X135344819Y-120023095D01*
X135344819Y-120023095D02*
X135725771Y-120356428D01*
X135725771Y-120356428D02*
X135725771Y-120213571D01*
X135725771Y-120213571D02*
X135773390Y-120118333D01*
X135773390Y-120118333D02*
X135821009Y-120070714D01*
X135821009Y-120070714D02*
X135916247Y-120023095D01*
X135916247Y-120023095D02*
X136154342Y-120023095D01*
X136154342Y-120023095D02*
X136249580Y-120070714D01*
X136249580Y-120070714D02*
X136297200Y-120118333D01*
X136297200Y-120118333D02*
X136344819Y-120213571D01*
X136344819Y-120213571D02*
X136344819Y-120499285D01*
X136344819Y-120499285D02*
X136297200Y-120594523D01*
X136297200Y-120594523D02*
X136249580Y-120642142D01*
X124271333Y-127994580D02*
X124223714Y-128042200D01*
X124223714Y-128042200D02*
X124080857Y-128089819D01*
X124080857Y-128089819D02*
X123985619Y-128089819D01*
X123985619Y-128089819D02*
X123842762Y-128042200D01*
X123842762Y-128042200D02*
X123747524Y-127946961D01*
X123747524Y-127946961D02*
X123699905Y-127851723D01*
X123699905Y-127851723D02*
X123652286Y-127661247D01*
X123652286Y-127661247D02*
X123652286Y-127518390D01*
X123652286Y-127518390D02*
X123699905Y-127327914D01*
X123699905Y-127327914D02*
X123747524Y-127232676D01*
X123747524Y-127232676D02*
X123842762Y-127137438D01*
X123842762Y-127137438D02*
X123985619Y-127089819D01*
X123985619Y-127089819D02*
X124080857Y-127089819D01*
X124080857Y-127089819D02*
X124223714Y-127137438D01*
X124223714Y-127137438D02*
X124271333Y-127185057D01*
X124747524Y-128089819D02*
X124938000Y-128089819D01*
X124938000Y-128089819D02*
X125033238Y-128042200D01*
X125033238Y-128042200D02*
X125080857Y-127994580D01*
X125080857Y-127994580D02*
X125176095Y-127851723D01*
X125176095Y-127851723D02*
X125223714Y-127661247D01*
X125223714Y-127661247D02*
X125223714Y-127280295D01*
X125223714Y-127280295D02*
X125176095Y-127185057D01*
X125176095Y-127185057D02*
X125128476Y-127137438D01*
X125128476Y-127137438D02*
X125033238Y-127089819D01*
X125033238Y-127089819D02*
X124842762Y-127089819D01*
X124842762Y-127089819D02*
X124747524Y-127137438D01*
X124747524Y-127137438D02*
X124699905Y-127185057D01*
X124699905Y-127185057D02*
X124652286Y-127280295D01*
X124652286Y-127280295D02*
X124652286Y-127518390D01*
X124652286Y-127518390D02*
X124699905Y-127613628D01*
X124699905Y-127613628D02*
X124747524Y-127661247D01*
X124747524Y-127661247D02*
X124842762Y-127708866D01*
X124842762Y-127708866D02*
X125033238Y-127708866D01*
X125033238Y-127708866D02*
X125128476Y-127661247D01*
X125128476Y-127661247D02*
X125176095Y-127613628D01*
X125176095Y-127613628D02*
X125223714Y-127518390D01*
X114637580Y-103631666D02*
X114685200Y-103679285D01*
X114685200Y-103679285D02*
X114732819Y-103822142D01*
X114732819Y-103822142D02*
X114732819Y-103917380D01*
X114732819Y-103917380D02*
X114685200Y-104060237D01*
X114685200Y-104060237D02*
X114589961Y-104155475D01*
X114589961Y-104155475D02*
X114494723Y-104203094D01*
X114494723Y-104203094D02*
X114304247Y-104250713D01*
X114304247Y-104250713D02*
X114161390Y-104250713D01*
X114161390Y-104250713D02*
X113970914Y-104203094D01*
X113970914Y-104203094D02*
X113875676Y-104155475D01*
X113875676Y-104155475D02*
X113780438Y-104060237D01*
X113780438Y-104060237D02*
X113732819Y-103917380D01*
X113732819Y-103917380D02*
X113732819Y-103822142D01*
X113732819Y-103822142D02*
X113780438Y-103679285D01*
X113780438Y-103679285D02*
X113828057Y-103631666D01*
X114732819Y-102679285D02*
X114732819Y-103250713D01*
X114732819Y-102964999D02*
X113732819Y-102964999D01*
X113732819Y-102964999D02*
X113875676Y-103060237D01*
X113875676Y-103060237D02*
X113970914Y-103155475D01*
X113970914Y-103155475D02*
X114018533Y-103250713D01*
X136358333Y-127454819D02*
X135882143Y-127454819D01*
X135882143Y-127454819D02*
X135882143Y-126454819D01*
X136644048Y-126550057D02*
X136691667Y-126502438D01*
X136691667Y-126502438D02*
X136786905Y-126454819D01*
X136786905Y-126454819D02*
X137025000Y-126454819D01*
X137025000Y-126454819D02*
X137120238Y-126502438D01*
X137120238Y-126502438D02*
X137167857Y-126550057D01*
X137167857Y-126550057D02*
X137215476Y-126645295D01*
X137215476Y-126645295D02*
X137215476Y-126740533D01*
X137215476Y-126740533D02*
X137167857Y-126883390D01*
X137167857Y-126883390D02*
X136596429Y-127454819D01*
X136596429Y-127454819D02*
X137215476Y-127454819D01*
X160321666Y-132103819D02*
X160321666Y-132818104D01*
X160321666Y-132818104D02*
X160274047Y-132960961D01*
X160274047Y-132960961D02*
X160178809Y-133056200D01*
X160178809Y-133056200D02*
X160035952Y-133103819D01*
X160035952Y-133103819D02*
X159940714Y-133103819D01*
X161226428Y-132437152D02*
X161226428Y-133103819D01*
X160988333Y-132056200D02*
X160750238Y-132770485D01*
X160750238Y-132770485D02*
X161369285Y-132770485D01*
X107801095Y-142694819D02*
X107801095Y-141694819D01*
X107801095Y-142171009D02*
X108372523Y-142171009D01*
X108372523Y-142694819D02*
X108372523Y-141694819D01*
X108801095Y-141790057D02*
X108848714Y-141742438D01*
X108848714Y-141742438D02*
X108943952Y-141694819D01*
X108943952Y-141694819D02*
X109182047Y-141694819D01*
X109182047Y-141694819D02*
X109277285Y-141742438D01*
X109277285Y-141742438D02*
X109324904Y-141790057D01*
X109324904Y-141790057D02*
X109372523Y-141885295D01*
X109372523Y-141885295D02*
X109372523Y-141980533D01*
X109372523Y-141980533D02*
X109324904Y-142123390D01*
X109324904Y-142123390D02*
X108753476Y-142694819D01*
X108753476Y-142694819D02*
X109372523Y-142694819D01*
X132461580Y-113532857D02*
X132509200Y-113580476D01*
X132509200Y-113580476D02*
X132556819Y-113723333D01*
X132556819Y-113723333D02*
X132556819Y-113818571D01*
X132556819Y-113818571D02*
X132509200Y-113961428D01*
X132509200Y-113961428D02*
X132413961Y-114056666D01*
X132413961Y-114056666D02*
X132318723Y-114104285D01*
X132318723Y-114104285D02*
X132128247Y-114151904D01*
X132128247Y-114151904D02*
X131985390Y-114151904D01*
X131985390Y-114151904D02*
X131794914Y-114104285D01*
X131794914Y-114104285D02*
X131699676Y-114056666D01*
X131699676Y-114056666D02*
X131604438Y-113961428D01*
X131604438Y-113961428D02*
X131556819Y-113818571D01*
X131556819Y-113818571D02*
X131556819Y-113723333D01*
X131556819Y-113723333D02*
X131604438Y-113580476D01*
X131604438Y-113580476D02*
X131652057Y-113532857D01*
X132556819Y-112580476D02*
X132556819Y-113151904D01*
X132556819Y-112866190D02*
X131556819Y-112866190D01*
X131556819Y-112866190D02*
X131699676Y-112961428D01*
X131699676Y-112961428D02*
X131794914Y-113056666D01*
X131794914Y-113056666D02*
X131842533Y-113151904D01*
X132556819Y-111628095D02*
X132556819Y-112199523D01*
X132556819Y-111913809D02*
X131556819Y-111913809D01*
X131556819Y-111913809D02*
X131699676Y-112009047D01*
X131699676Y-112009047D02*
X131794914Y-112104285D01*
X131794914Y-112104285D02*
X131842533Y-112199523D01*
X152759580Y-133992857D02*
X152807200Y-134040476D01*
X152807200Y-134040476D02*
X152854819Y-134183333D01*
X152854819Y-134183333D02*
X152854819Y-134278571D01*
X152854819Y-134278571D02*
X152807200Y-134421428D01*
X152807200Y-134421428D02*
X152711961Y-134516666D01*
X152711961Y-134516666D02*
X152616723Y-134564285D01*
X152616723Y-134564285D02*
X152426247Y-134611904D01*
X152426247Y-134611904D02*
X152283390Y-134611904D01*
X152283390Y-134611904D02*
X152092914Y-134564285D01*
X152092914Y-134564285D02*
X151997676Y-134516666D01*
X151997676Y-134516666D02*
X151902438Y-134421428D01*
X151902438Y-134421428D02*
X151854819Y-134278571D01*
X151854819Y-134278571D02*
X151854819Y-134183333D01*
X151854819Y-134183333D02*
X151902438Y-134040476D01*
X151902438Y-134040476D02*
X151950057Y-133992857D01*
X151950057Y-133611904D02*
X151902438Y-133564285D01*
X151902438Y-133564285D02*
X151854819Y-133469047D01*
X151854819Y-133469047D02*
X151854819Y-133230952D01*
X151854819Y-133230952D02*
X151902438Y-133135714D01*
X151902438Y-133135714D02*
X151950057Y-133088095D01*
X151950057Y-133088095D02*
X152045295Y-133040476D01*
X152045295Y-133040476D02*
X152140533Y-133040476D01*
X152140533Y-133040476D02*
X152283390Y-133088095D01*
X152283390Y-133088095D02*
X152854819Y-133659523D01*
X152854819Y-133659523D02*
X152854819Y-133040476D01*
X151854819Y-132421428D02*
X151854819Y-132326190D01*
X151854819Y-132326190D02*
X151902438Y-132230952D01*
X151902438Y-132230952D02*
X151950057Y-132183333D01*
X151950057Y-132183333D02*
X152045295Y-132135714D01*
X152045295Y-132135714D02*
X152235771Y-132088095D01*
X152235771Y-132088095D02*
X152473866Y-132088095D01*
X152473866Y-132088095D02*
X152664342Y-132135714D01*
X152664342Y-132135714D02*
X152759580Y-132183333D01*
X152759580Y-132183333D02*
X152807200Y-132230952D01*
X152807200Y-132230952D02*
X152854819Y-132326190D01*
X152854819Y-132326190D02*
X152854819Y-132421428D01*
X152854819Y-132421428D02*
X152807200Y-132516666D01*
X152807200Y-132516666D02*
X152759580Y-132564285D01*
X152759580Y-132564285D02*
X152664342Y-132611904D01*
X152664342Y-132611904D02*
X152473866Y-132659523D01*
X152473866Y-132659523D02*
X152235771Y-132659523D01*
X152235771Y-132659523D02*
X152045295Y-132611904D01*
X152045295Y-132611904D02*
X151950057Y-132564285D01*
X151950057Y-132564285D02*
X151902438Y-132516666D01*
X151902438Y-132516666D02*
X151854819Y-132421428D01*
X124271333Y-110214580D02*
X124223714Y-110262200D01*
X124223714Y-110262200D02*
X124080857Y-110309819D01*
X124080857Y-110309819D02*
X123985619Y-110309819D01*
X123985619Y-110309819D02*
X123842762Y-110262200D01*
X123842762Y-110262200D02*
X123747524Y-110166961D01*
X123747524Y-110166961D02*
X123699905Y-110071723D01*
X123699905Y-110071723D02*
X123652286Y-109881247D01*
X123652286Y-109881247D02*
X123652286Y-109738390D01*
X123652286Y-109738390D02*
X123699905Y-109547914D01*
X123699905Y-109547914D02*
X123747524Y-109452676D01*
X123747524Y-109452676D02*
X123842762Y-109357438D01*
X123842762Y-109357438D02*
X123985619Y-109309819D01*
X123985619Y-109309819D02*
X124080857Y-109309819D01*
X124080857Y-109309819D02*
X124223714Y-109357438D01*
X124223714Y-109357438D02*
X124271333Y-109405057D01*
X124842762Y-109738390D02*
X124747524Y-109690771D01*
X124747524Y-109690771D02*
X124699905Y-109643152D01*
X124699905Y-109643152D02*
X124652286Y-109547914D01*
X124652286Y-109547914D02*
X124652286Y-109500295D01*
X124652286Y-109500295D02*
X124699905Y-109405057D01*
X124699905Y-109405057D02*
X124747524Y-109357438D01*
X124747524Y-109357438D02*
X124842762Y-109309819D01*
X124842762Y-109309819D02*
X125033238Y-109309819D01*
X125033238Y-109309819D02*
X125128476Y-109357438D01*
X125128476Y-109357438D02*
X125176095Y-109405057D01*
X125176095Y-109405057D02*
X125223714Y-109500295D01*
X125223714Y-109500295D02*
X125223714Y-109547914D01*
X125223714Y-109547914D02*
X125176095Y-109643152D01*
X125176095Y-109643152D02*
X125128476Y-109690771D01*
X125128476Y-109690771D02*
X125033238Y-109738390D01*
X125033238Y-109738390D02*
X124842762Y-109738390D01*
X124842762Y-109738390D02*
X124747524Y-109786009D01*
X124747524Y-109786009D02*
X124699905Y-109833628D01*
X124699905Y-109833628D02*
X124652286Y-109928866D01*
X124652286Y-109928866D02*
X124652286Y-110119342D01*
X124652286Y-110119342D02*
X124699905Y-110214580D01*
X124699905Y-110214580D02*
X124747524Y-110262200D01*
X124747524Y-110262200D02*
X124842762Y-110309819D01*
X124842762Y-110309819D02*
X125033238Y-110309819D01*
X125033238Y-110309819D02*
X125128476Y-110262200D01*
X125128476Y-110262200D02*
X125176095Y-110214580D01*
X125176095Y-110214580D02*
X125223714Y-110119342D01*
X125223714Y-110119342D02*
X125223714Y-109928866D01*
X125223714Y-109928866D02*
X125176095Y-109833628D01*
X125176095Y-109833628D02*
X125128476Y-109786009D01*
X125128476Y-109786009D02*
X125033238Y-109738390D01*
X155394819Y-107036666D02*
X154918628Y-107369999D01*
X155394819Y-107608094D02*
X154394819Y-107608094D01*
X154394819Y-107608094D02*
X154394819Y-107227142D01*
X154394819Y-107227142D02*
X154442438Y-107131904D01*
X154442438Y-107131904D02*
X154490057Y-107084285D01*
X154490057Y-107084285D02*
X154585295Y-107036666D01*
X154585295Y-107036666D02*
X154728152Y-107036666D01*
X154728152Y-107036666D02*
X154823390Y-107084285D01*
X154823390Y-107084285D02*
X154871009Y-107131904D01*
X154871009Y-107131904D02*
X154918628Y-107227142D01*
X154918628Y-107227142D02*
X154918628Y-107608094D01*
X154823390Y-106465237D02*
X154775771Y-106560475D01*
X154775771Y-106560475D02*
X154728152Y-106608094D01*
X154728152Y-106608094D02*
X154632914Y-106655713D01*
X154632914Y-106655713D02*
X154585295Y-106655713D01*
X154585295Y-106655713D02*
X154490057Y-106608094D01*
X154490057Y-106608094D02*
X154442438Y-106560475D01*
X154442438Y-106560475D02*
X154394819Y-106465237D01*
X154394819Y-106465237D02*
X154394819Y-106274761D01*
X154394819Y-106274761D02*
X154442438Y-106179523D01*
X154442438Y-106179523D02*
X154490057Y-106131904D01*
X154490057Y-106131904D02*
X154585295Y-106084285D01*
X154585295Y-106084285D02*
X154632914Y-106084285D01*
X154632914Y-106084285D02*
X154728152Y-106131904D01*
X154728152Y-106131904D02*
X154775771Y-106179523D01*
X154775771Y-106179523D02*
X154823390Y-106274761D01*
X154823390Y-106274761D02*
X154823390Y-106465237D01*
X154823390Y-106465237D02*
X154871009Y-106560475D01*
X154871009Y-106560475D02*
X154918628Y-106608094D01*
X154918628Y-106608094D02*
X155013866Y-106655713D01*
X155013866Y-106655713D02*
X155204342Y-106655713D01*
X155204342Y-106655713D02*
X155299580Y-106608094D01*
X155299580Y-106608094D02*
X155347200Y-106560475D01*
X155347200Y-106560475D02*
X155394819Y-106465237D01*
X155394819Y-106465237D02*
X155394819Y-106274761D01*
X155394819Y-106274761D02*
X155347200Y-106179523D01*
X155347200Y-106179523D02*
X155299580Y-106131904D01*
X155299580Y-106131904D02*
X155204342Y-106084285D01*
X155204342Y-106084285D02*
X155013866Y-106084285D01*
X155013866Y-106084285D02*
X154918628Y-106131904D01*
X154918628Y-106131904D02*
X154871009Y-106179523D01*
X154871009Y-106179523D02*
X154823390Y-106274761D01*
X160321666Y-119629819D02*
X160321666Y-120344104D01*
X160321666Y-120344104D02*
X160274047Y-120486961D01*
X160274047Y-120486961D02*
X160178809Y-120582200D01*
X160178809Y-120582200D02*
X160035952Y-120629819D01*
X160035952Y-120629819D02*
X159940714Y-120629819D01*
X160702619Y-119629819D02*
X161321666Y-119629819D01*
X161321666Y-119629819D02*
X160988333Y-120010771D01*
X160988333Y-120010771D02*
X161131190Y-120010771D01*
X161131190Y-120010771D02*
X161226428Y-120058390D01*
X161226428Y-120058390D02*
X161274047Y-120106009D01*
X161274047Y-120106009D02*
X161321666Y-120201247D01*
X161321666Y-120201247D02*
X161321666Y-120439342D01*
X161321666Y-120439342D02*
X161274047Y-120534580D01*
X161274047Y-120534580D02*
X161226428Y-120582200D01*
X161226428Y-120582200D02*
X161131190Y-120629819D01*
X161131190Y-120629819D02*
X160845476Y-120629819D01*
X160845476Y-120629819D02*
X160750238Y-120582200D01*
X160750238Y-120582200D02*
X160702619Y-120534580D01*
X102536666Y-110579819D02*
X102536666Y-111294104D01*
X102536666Y-111294104D02*
X102489047Y-111436961D01*
X102489047Y-111436961D02*
X102393809Y-111532200D01*
X102393809Y-111532200D02*
X102250952Y-111579819D01*
X102250952Y-111579819D02*
X102155714Y-111579819D01*
X102965238Y-110675057D02*
X103012857Y-110627438D01*
X103012857Y-110627438D02*
X103108095Y-110579819D01*
X103108095Y-110579819D02*
X103346190Y-110579819D01*
X103346190Y-110579819D02*
X103441428Y-110627438D01*
X103441428Y-110627438D02*
X103489047Y-110675057D01*
X103489047Y-110675057D02*
X103536666Y-110770295D01*
X103536666Y-110770295D02*
X103536666Y-110865533D01*
X103536666Y-110865533D02*
X103489047Y-111008390D01*
X103489047Y-111008390D02*
X102917619Y-111579819D01*
X102917619Y-111579819D02*
X103536666Y-111579819D01*
D11*
X129548237Y-119954318D02*
X129548237Y-118684318D01*
X130878714Y-119833365D02*
X130818238Y-119893842D01*
X130818238Y-119893842D02*
X130636809Y-119954318D01*
X130636809Y-119954318D02*
X130515857Y-119954318D01*
X130515857Y-119954318D02*
X130334428Y-119893842D01*
X130334428Y-119893842D02*
X130213476Y-119772889D01*
X130213476Y-119772889D02*
X130152999Y-119651937D01*
X130152999Y-119651937D02*
X130092523Y-119410032D01*
X130092523Y-119410032D02*
X130092523Y-119228603D01*
X130092523Y-119228603D02*
X130152999Y-118986699D01*
X130152999Y-118986699D02*
X130213476Y-118865746D01*
X130213476Y-118865746D02*
X130334428Y-118744794D01*
X130334428Y-118744794D02*
X130515857Y-118684318D01*
X130515857Y-118684318D02*
X130636809Y-118684318D01*
X130636809Y-118684318D02*
X130818238Y-118744794D01*
X130818238Y-118744794D02*
X130878714Y-118805270D01*
X132088238Y-119954318D02*
X131362523Y-119954318D01*
X131725380Y-119954318D02*
X131725380Y-118684318D01*
X131725380Y-118684318D02*
X131604428Y-118865746D01*
X131604428Y-118865746D02*
X131483476Y-118986699D01*
X131483476Y-118986699D02*
X131362523Y-119047175D01*
D10*
X116651333Y-121104819D02*
X116318000Y-120628628D01*
X116079905Y-121104819D02*
X116079905Y-120104819D01*
X116079905Y-120104819D02*
X116460857Y-120104819D01*
X116460857Y-120104819D02*
X116556095Y-120152438D01*
X116556095Y-120152438D02*
X116603714Y-120200057D01*
X116603714Y-120200057D02*
X116651333Y-120295295D01*
X116651333Y-120295295D02*
X116651333Y-120438152D01*
X116651333Y-120438152D02*
X116603714Y-120533390D01*
X116603714Y-120533390D02*
X116556095Y-120581009D01*
X116556095Y-120581009D02*
X116460857Y-120628628D01*
X116460857Y-120628628D02*
X116079905Y-120628628D01*
X116984667Y-120104819D02*
X117603714Y-120104819D01*
X117603714Y-120104819D02*
X117270381Y-120485771D01*
X117270381Y-120485771D02*
X117413238Y-120485771D01*
X117413238Y-120485771D02*
X117508476Y-120533390D01*
X117508476Y-120533390D02*
X117556095Y-120581009D01*
X117556095Y-120581009D02*
X117603714Y-120676247D01*
X117603714Y-120676247D02*
X117603714Y-120914342D01*
X117603714Y-120914342D02*
X117556095Y-121009580D01*
X117556095Y-121009580D02*
X117508476Y-121057200D01*
X117508476Y-121057200D02*
X117413238Y-121104819D01*
X117413238Y-121104819D02*
X117127524Y-121104819D01*
X117127524Y-121104819D02*
X117032286Y-121057200D01*
X117032286Y-121057200D02*
X116984667Y-121009580D01*
X155394819Y-133516666D02*
X154918628Y-133849999D01*
X155394819Y-134088094D02*
X154394819Y-134088094D01*
X154394819Y-134088094D02*
X154394819Y-133707142D01*
X154394819Y-133707142D02*
X154442438Y-133611904D01*
X154442438Y-133611904D02*
X154490057Y-133564285D01*
X154490057Y-133564285D02*
X154585295Y-133516666D01*
X154585295Y-133516666D02*
X154728152Y-133516666D01*
X154728152Y-133516666D02*
X154823390Y-133564285D01*
X154823390Y-133564285D02*
X154871009Y-133611904D01*
X154871009Y-133611904D02*
X154918628Y-133707142D01*
X154918628Y-133707142D02*
X154918628Y-134088094D01*
X155394819Y-133040475D02*
X155394819Y-132849999D01*
X155394819Y-132849999D02*
X155347200Y-132754761D01*
X155347200Y-132754761D02*
X155299580Y-132707142D01*
X155299580Y-132707142D02*
X155156723Y-132611904D01*
X155156723Y-132611904D02*
X154966247Y-132564285D01*
X154966247Y-132564285D02*
X154585295Y-132564285D01*
X154585295Y-132564285D02*
X154490057Y-132611904D01*
X154490057Y-132611904D02*
X154442438Y-132659523D01*
X154442438Y-132659523D02*
X154394819Y-132754761D01*
X154394819Y-132754761D02*
X154394819Y-132945237D01*
X154394819Y-132945237D02*
X154442438Y-133040475D01*
X154442438Y-133040475D02*
X154490057Y-133088094D01*
X154490057Y-133088094D02*
X154585295Y-133135713D01*
X154585295Y-133135713D02*
X154823390Y-133135713D01*
X154823390Y-133135713D02*
X154918628Y-133088094D01*
X154918628Y-133088094D02*
X154966247Y-133040475D01*
X154966247Y-133040475D02*
X155013866Y-132945237D01*
X155013866Y-132945237D02*
X155013866Y-132754761D01*
X155013866Y-132754761D02*
X154966247Y-132659523D01*
X154966247Y-132659523D02*
X154918628Y-132611904D01*
X154918628Y-132611904D02*
X154823390Y-132564285D01*
X107801095Y-98244819D02*
X107801095Y-97244819D01*
X107801095Y-97721009D02*
X108372523Y-97721009D01*
X108372523Y-98244819D02*
X108372523Y-97244819D01*
X109372523Y-98244819D02*
X108801095Y-98244819D01*
X109086809Y-98244819D02*
X109086809Y-97244819D01*
X109086809Y-97244819D02*
X108991571Y-97387676D01*
X108991571Y-97387676D02*
X108896333Y-97482914D01*
X108896333Y-97482914D02*
X108801095Y-97530533D01*
X160321666Y-106863819D02*
X160321666Y-107578104D01*
X160321666Y-107578104D02*
X160274047Y-107720961D01*
X160274047Y-107720961D02*
X160178809Y-107816200D01*
X160178809Y-107816200D02*
X160035952Y-107863819D01*
X160035952Y-107863819D02*
X159940714Y-107863819D01*
X161274047Y-106863819D02*
X160797857Y-106863819D01*
X160797857Y-106863819D02*
X160750238Y-107340009D01*
X160750238Y-107340009D02*
X160797857Y-107292390D01*
X160797857Y-107292390D02*
X160893095Y-107244771D01*
X160893095Y-107244771D02*
X161131190Y-107244771D01*
X161131190Y-107244771D02*
X161226428Y-107292390D01*
X161226428Y-107292390D02*
X161274047Y-107340009D01*
X161274047Y-107340009D02*
X161321666Y-107435247D01*
X161321666Y-107435247D02*
X161321666Y-107673342D01*
X161321666Y-107673342D02*
X161274047Y-107768580D01*
X161274047Y-107768580D02*
X161226428Y-107816200D01*
X161226428Y-107816200D02*
X161131190Y-107863819D01*
X161131190Y-107863819D02*
X160893095Y-107863819D01*
X160893095Y-107863819D02*
X160797857Y-107816200D01*
X160797857Y-107816200D02*
X160750238Y-107768580D01*
X106513334Y-118469580D02*
X106465715Y-118517200D01*
X106465715Y-118517200D02*
X106322858Y-118564819D01*
X106322858Y-118564819D02*
X106227620Y-118564819D01*
X106227620Y-118564819D02*
X106084763Y-118517200D01*
X106084763Y-118517200D02*
X105989525Y-118421961D01*
X105989525Y-118421961D02*
X105941906Y-118326723D01*
X105941906Y-118326723D02*
X105894287Y-118136247D01*
X105894287Y-118136247D02*
X105894287Y-117993390D01*
X105894287Y-117993390D02*
X105941906Y-117802914D01*
X105941906Y-117802914D02*
X105989525Y-117707676D01*
X105989525Y-117707676D02*
X106084763Y-117612438D01*
X106084763Y-117612438D02*
X106227620Y-117564819D01*
X106227620Y-117564819D02*
X106322858Y-117564819D01*
X106322858Y-117564819D02*
X106465715Y-117612438D01*
X106465715Y-117612438D02*
X106513334Y-117660057D01*
X107418096Y-117564819D02*
X106941906Y-117564819D01*
X106941906Y-117564819D02*
X106894287Y-118041009D01*
X106894287Y-118041009D02*
X106941906Y-117993390D01*
X106941906Y-117993390D02*
X107037144Y-117945771D01*
X107037144Y-117945771D02*
X107275239Y-117945771D01*
X107275239Y-117945771D02*
X107370477Y-117993390D01*
X107370477Y-117993390D02*
X107418096Y-118041009D01*
X107418096Y-118041009D02*
X107465715Y-118136247D01*
X107465715Y-118136247D02*
X107465715Y-118374342D01*
X107465715Y-118374342D02*
X107418096Y-118469580D01*
X107418096Y-118469580D02*
X107370477Y-118517200D01*
X107370477Y-118517200D02*
X107275239Y-118564819D01*
X107275239Y-118564819D02*
X107037144Y-118564819D01*
X107037144Y-118564819D02*
X106941906Y-118517200D01*
X106941906Y-118517200D02*
X106894287Y-118469580D01*
X123676095Y-101419819D02*
X123676095Y-100419819D01*
X123676095Y-100896009D02*
X124247523Y-100896009D01*
X124247523Y-101419819D02*
X124247523Y-100419819D01*
X125199904Y-100419819D02*
X124723714Y-100419819D01*
X124723714Y-100419819D02*
X124676095Y-100896009D01*
X124676095Y-100896009D02*
X124723714Y-100848390D01*
X124723714Y-100848390D02*
X124818952Y-100800771D01*
X124818952Y-100800771D02*
X125057047Y-100800771D01*
X125057047Y-100800771D02*
X125152285Y-100848390D01*
X125152285Y-100848390D02*
X125199904Y-100896009D01*
X125199904Y-100896009D02*
X125247523Y-100991247D01*
X125247523Y-100991247D02*
X125247523Y-101229342D01*
X125247523Y-101229342D02*
X125199904Y-101324580D01*
X125199904Y-101324580D02*
X125152285Y-101372200D01*
X125152285Y-101372200D02*
X125057047Y-101419819D01*
X125057047Y-101419819D02*
X124818952Y-101419819D01*
X124818952Y-101419819D02*
X124723714Y-101372200D01*
X124723714Y-101372200D02*
X124676095Y-101324580D01*
X136228333Y-113484819D02*
X135752143Y-113484819D01*
X135752143Y-113484819D02*
X135752143Y-112484819D01*
X137085476Y-113484819D02*
X136514048Y-113484819D01*
X136799762Y-113484819D02*
X136799762Y-112484819D01*
X136799762Y-112484819D02*
X136704524Y-112627676D01*
X136704524Y-112627676D02*
X136609286Y-112722914D01*
X136609286Y-112722914D02*
X136514048Y-112770533D01*
X135318142Y-101324580D02*
X135270523Y-101372200D01*
X135270523Y-101372200D02*
X135127666Y-101419819D01*
X135127666Y-101419819D02*
X135032428Y-101419819D01*
X135032428Y-101419819D02*
X134889571Y-101372200D01*
X134889571Y-101372200D02*
X134794333Y-101276961D01*
X134794333Y-101276961D02*
X134746714Y-101181723D01*
X134746714Y-101181723D02*
X134699095Y-100991247D01*
X134699095Y-100991247D02*
X134699095Y-100848390D01*
X134699095Y-100848390D02*
X134746714Y-100657914D01*
X134746714Y-100657914D02*
X134794333Y-100562676D01*
X134794333Y-100562676D02*
X134889571Y-100467438D01*
X134889571Y-100467438D02*
X135032428Y-100419819D01*
X135032428Y-100419819D02*
X135127666Y-100419819D01*
X135127666Y-100419819D02*
X135270523Y-100467438D01*
X135270523Y-100467438D02*
X135318142Y-100515057D01*
X136270523Y-101419819D02*
X135699095Y-101419819D01*
X135984809Y-101419819D02*
X135984809Y-100419819D01*
X135984809Y-100419819D02*
X135889571Y-100562676D01*
X135889571Y-100562676D02*
X135794333Y-100657914D01*
X135794333Y-100657914D02*
X135699095Y-100705533D01*
X137175285Y-100419819D02*
X136699095Y-100419819D01*
X136699095Y-100419819D02*
X136651476Y-100896009D01*
X136651476Y-100896009D02*
X136699095Y-100848390D01*
X136699095Y-100848390D02*
X136794333Y-100800771D01*
X136794333Y-100800771D02*
X137032428Y-100800771D01*
X137032428Y-100800771D02*
X137127666Y-100848390D01*
X137127666Y-100848390D02*
X137175285Y-100896009D01*
X137175285Y-100896009D02*
X137222904Y-100991247D01*
X137222904Y-100991247D02*
X137222904Y-101229342D01*
X137222904Y-101229342D02*
X137175285Y-101324580D01*
X137175285Y-101324580D02*
X137127666Y-101372200D01*
X137127666Y-101372200D02*
X137032428Y-101419819D01*
X137032428Y-101419819D02*
X136794333Y-101419819D01*
X136794333Y-101419819D02*
X136699095Y-101372200D01*
X136699095Y-101372200D02*
X136651476Y-101324580D01*
X154813095Y-98244819D02*
X154813095Y-97244819D01*
X154813095Y-97721009D02*
X155384523Y-97721009D01*
X155384523Y-98244819D02*
X155384523Y-97244819D01*
X156289285Y-97578152D02*
X156289285Y-98244819D01*
X156051190Y-97197200D02*
X155813095Y-97911485D01*
X155813095Y-97911485D02*
X156432142Y-97911485D01*
X116651333Y-116659819D02*
X116318000Y-116183628D01*
X116079905Y-116659819D02*
X116079905Y-115659819D01*
X116079905Y-115659819D02*
X116460857Y-115659819D01*
X116460857Y-115659819D02*
X116556095Y-115707438D01*
X116556095Y-115707438D02*
X116603714Y-115755057D01*
X116603714Y-115755057D02*
X116651333Y-115850295D01*
X116651333Y-115850295D02*
X116651333Y-115993152D01*
X116651333Y-115993152D02*
X116603714Y-116088390D01*
X116603714Y-116088390D02*
X116556095Y-116136009D01*
X116556095Y-116136009D02*
X116460857Y-116183628D01*
X116460857Y-116183628D02*
X116079905Y-116183628D01*
X117032286Y-115755057D02*
X117079905Y-115707438D01*
X117079905Y-115707438D02*
X117175143Y-115659819D01*
X117175143Y-115659819D02*
X117413238Y-115659819D01*
X117413238Y-115659819D02*
X117508476Y-115707438D01*
X117508476Y-115707438D02*
X117556095Y-115755057D01*
X117556095Y-115755057D02*
X117603714Y-115850295D01*
X117603714Y-115850295D02*
X117603714Y-115945533D01*
X117603714Y-115945533D02*
X117556095Y-116088390D01*
X117556095Y-116088390D02*
X116984667Y-116659819D01*
X116984667Y-116659819D02*
X117603714Y-116659819D01*
X123160142Y-130534580D02*
X123112523Y-130582200D01*
X123112523Y-130582200D02*
X122969666Y-130629819D01*
X122969666Y-130629819D02*
X122874428Y-130629819D01*
X122874428Y-130629819D02*
X122731571Y-130582200D01*
X122731571Y-130582200D02*
X122636333Y-130486961D01*
X122636333Y-130486961D02*
X122588714Y-130391723D01*
X122588714Y-130391723D02*
X122541095Y-130201247D01*
X122541095Y-130201247D02*
X122541095Y-130058390D01*
X122541095Y-130058390D02*
X122588714Y-129867914D01*
X122588714Y-129867914D02*
X122636333Y-129772676D01*
X122636333Y-129772676D02*
X122731571Y-129677438D01*
X122731571Y-129677438D02*
X122874428Y-129629819D01*
X122874428Y-129629819D02*
X122969666Y-129629819D01*
X122969666Y-129629819D02*
X123112523Y-129677438D01*
X123112523Y-129677438D02*
X123160142Y-129725057D01*
X124112523Y-130629819D02*
X123541095Y-130629819D01*
X123826809Y-130629819D02*
X123826809Y-129629819D01*
X123826809Y-129629819D02*
X123731571Y-129772676D01*
X123731571Y-129772676D02*
X123636333Y-129867914D01*
X123636333Y-129867914D02*
X123541095Y-129915533D01*
X124731571Y-129629819D02*
X124826809Y-129629819D01*
X124826809Y-129629819D02*
X124922047Y-129677438D01*
X124922047Y-129677438D02*
X124969666Y-129725057D01*
X124969666Y-129725057D02*
X125017285Y-129820295D01*
X125017285Y-129820295D02*
X125064904Y-130010771D01*
X125064904Y-130010771D02*
X125064904Y-130248866D01*
X125064904Y-130248866D02*
X125017285Y-130439342D01*
X125017285Y-130439342D02*
X124969666Y-130534580D01*
X124969666Y-130534580D02*
X124922047Y-130582200D01*
X124922047Y-130582200D02*
X124826809Y-130629819D01*
X124826809Y-130629819D02*
X124731571Y-130629819D01*
X124731571Y-130629819D02*
X124636333Y-130582200D01*
X124636333Y-130582200D02*
X124588714Y-130534580D01*
X124588714Y-130534580D02*
X124541095Y-130439342D01*
X124541095Y-130439342D02*
X124493476Y-130248866D01*
X124493476Y-130248866D02*
X124493476Y-130010771D01*
X124493476Y-130010771D02*
X124541095Y-129820295D01*
X124541095Y-129820295D02*
X124588714Y-129725057D01*
X124588714Y-129725057D02*
X124636333Y-129677438D01*
X124636333Y-129677438D02*
X124731571Y-129629819D01*
X153662142Y-102594580D02*
X153614523Y-102642200D01*
X153614523Y-102642200D02*
X153471666Y-102689819D01*
X153471666Y-102689819D02*
X153376428Y-102689819D01*
X153376428Y-102689819D02*
X153233571Y-102642200D01*
X153233571Y-102642200D02*
X153138333Y-102546961D01*
X153138333Y-102546961D02*
X153090714Y-102451723D01*
X153090714Y-102451723D02*
X153043095Y-102261247D01*
X153043095Y-102261247D02*
X153043095Y-102118390D01*
X153043095Y-102118390D02*
X153090714Y-101927914D01*
X153090714Y-101927914D02*
X153138333Y-101832676D01*
X153138333Y-101832676D02*
X153233571Y-101737438D01*
X153233571Y-101737438D02*
X153376428Y-101689819D01*
X153376428Y-101689819D02*
X153471666Y-101689819D01*
X153471666Y-101689819D02*
X153614523Y-101737438D01*
X153614523Y-101737438D02*
X153662142Y-101785057D01*
X154043095Y-101785057D02*
X154090714Y-101737438D01*
X154090714Y-101737438D02*
X154185952Y-101689819D01*
X154185952Y-101689819D02*
X154424047Y-101689819D01*
X154424047Y-101689819D02*
X154519285Y-101737438D01*
X154519285Y-101737438D02*
X154566904Y-101785057D01*
X154566904Y-101785057D02*
X154614523Y-101880295D01*
X154614523Y-101880295D02*
X154614523Y-101975533D01*
X154614523Y-101975533D02*
X154566904Y-102118390D01*
X154566904Y-102118390D02*
X153995476Y-102689819D01*
X153995476Y-102689819D02*
X154614523Y-102689819D01*
X155566904Y-102689819D02*
X154995476Y-102689819D01*
X155281190Y-102689819D02*
X155281190Y-101689819D01*
X155281190Y-101689819D02*
X155185952Y-101832676D01*
X155185952Y-101832676D02*
X155090714Y-101927914D01*
X155090714Y-101927914D02*
X154995476Y-101975533D01*
X114637580Y-111251666D02*
X114685200Y-111299285D01*
X114685200Y-111299285D02*
X114732819Y-111442142D01*
X114732819Y-111442142D02*
X114732819Y-111537380D01*
X114732819Y-111537380D02*
X114685200Y-111680237D01*
X114685200Y-111680237D02*
X114589961Y-111775475D01*
X114589961Y-111775475D02*
X114494723Y-111823094D01*
X114494723Y-111823094D02*
X114304247Y-111870713D01*
X114304247Y-111870713D02*
X114161390Y-111870713D01*
X114161390Y-111870713D02*
X113970914Y-111823094D01*
X113970914Y-111823094D02*
X113875676Y-111775475D01*
X113875676Y-111775475D02*
X113780438Y-111680237D01*
X113780438Y-111680237D02*
X113732819Y-111537380D01*
X113732819Y-111537380D02*
X113732819Y-111442142D01*
X113732819Y-111442142D02*
X113780438Y-111299285D01*
X113780438Y-111299285D02*
X113828057Y-111251666D01*
X113732819Y-110918332D02*
X113732819Y-110299285D01*
X113732819Y-110299285D02*
X114113771Y-110632618D01*
X114113771Y-110632618D02*
X114113771Y-110489761D01*
X114113771Y-110489761D02*
X114161390Y-110394523D01*
X114161390Y-110394523D02*
X114209009Y-110346904D01*
X114209009Y-110346904D02*
X114304247Y-110299285D01*
X114304247Y-110299285D02*
X114542342Y-110299285D01*
X114542342Y-110299285D02*
X114637580Y-110346904D01*
X114637580Y-110346904D02*
X114685200Y-110394523D01*
X114685200Y-110394523D02*
X114732819Y-110489761D01*
X114732819Y-110489761D02*
X114732819Y-110775475D01*
X114732819Y-110775475D02*
X114685200Y-110870713D01*
X114685200Y-110870713D02*
X114637580Y-110918332D01*
X132439580Y-127147857D02*
X132487200Y-127195476D01*
X132487200Y-127195476D02*
X132534819Y-127338333D01*
X132534819Y-127338333D02*
X132534819Y-127433571D01*
X132534819Y-127433571D02*
X132487200Y-127576428D01*
X132487200Y-127576428D02*
X132391961Y-127671666D01*
X132391961Y-127671666D02*
X132296723Y-127719285D01*
X132296723Y-127719285D02*
X132106247Y-127766904D01*
X132106247Y-127766904D02*
X131963390Y-127766904D01*
X131963390Y-127766904D02*
X131772914Y-127719285D01*
X131772914Y-127719285D02*
X131677676Y-127671666D01*
X131677676Y-127671666D02*
X131582438Y-127576428D01*
X131582438Y-127576428D02*
X131534819Y-127433571D01*
X131534819Y-127433571D02*
X131534819Y-127338333D01*
X131534819Y-127338333D02*
X131582438Y-127195476D01*
X131582438Y-127195476D02*
X131630057Y-127147857D01*
X132534819Y-126195476D02*
X132534819Y-126766904D01*
X132534819Y-126481190D02*
X131534819Y-126481190D01*
X131534819Y-126481190D02*
X131677676Y-126576428D01*
X131677676Y-126576428D02*
X131772914Y-126671666D01*
X131772914Y-126671666D02*
X131820533Y-126766904D01*
X131868152Y-125338333D02*
X132534819Y-125338333D01*
X131487200Y-125576428D02*
X132201485Y-125814523D01*
X132201485Y-125814523D02*
X132201485Y-125195476D01*
X157204580Y-125102857D02*
X157252200Y-125150476D01*
X157252200Y-125150476D02*
X157299819Y-125293333D01*
X157299819Y-125293333D02*
X157299819Y-125388571D01*
X157299819Y-125388571D02*
X157252200Y-125531428D01*
X157252200Y-125531428D02*
X157156961Y-125626666D01*
X157156961Y-125626666D02*
X157061723Y-125674285D01*
X157061723Y-125674285D02*
X156871247Y-125721904D01*
X156871247Y-125721904D02*
X156728390Y-125721904D01*
X156728390Y-125721904D02*
X156537914Y-125674285D01*
X156537914Y-125674285D02*
X156442676Y-125626666D01*
X156442676Y-125626666D02*
X156347438Y-125531428D01*
X156347438Y-125531428D02*
X156299819Y-125388571D01*
X156299819Y-125388571D02*
X156299819Y-125293333D01*
X156299819Y-125293333D02*
X156347438Y-125150476D01*
X156347438Y-125150476D02*
X156395057Y-125102857D01*
X157299819Y-124150476D02*
X157299819Y-124721904D01*
X157299819Y-124436190D02*
X156299819Y-124436190D01*
X156299819Y-124436190D02*
X156442676Y-124531428D01*
X156442676Y-124531428D02*
X156537914Y-124626666D01*
X156537914Y-124626666D02*
X156585533Y-124721904D01*
X156728390Y-123579047D02*
X156680771Y-123674285D01*
X156680771Y-123674285D02*
X156633152Y-123721904D01*
X156633152Y-123721904D02*
X156537914Y-123769523D01*
X156537914Y-123769523D02*
X156490295Y-123769523D01*
X156490295Y-123769523D02*
X156395057Y-123721904D01*
X156395057Y-123721904D02*
X156347438Y-123674285D01*
X156347438Y-123674285D02*
X156299819Y-123579047D01*
X156299819Y-123579047D02*
X156299819Y-123388571D01*
X156299819Y-123388571D02*
X156347438Y-123293333D01*
X156347438Y-123293333D02*
X156395057Y-123245714D01*
X156395057Y-123245714D02*
X156490295Y-123198095D01*
X156490295Y-123198095D02*
X156537914Y-123198095D01*
X156537914Y-123198095D02*
X156633152Y-123245714D01*
X156633152Y-123245714D02*
X156680771Y-123293333D01*
X156680771Y-123293333D02*
X156728390Y-123388571D01*
X156728390Y-123388571D02*
X156728390Y-123579047D01*
X156728390Y-123579047D02*
X156776009Y-123674285D01*
X156776009Y-123674285D02*
X156823628Y-123721904D01*
X156823628Y-123721904D02*
X156918866Y-123769523D01*
X156918866Y-123769523D02*
X157109342Y-123769523D01*
X157109342Y-123769523D02*
X157204580Y-123721904D01*
X157204580Y-123721904D02*
X157252200Y-123674285D01*
X157252200Y-123674285D02*
X157299819Y-123579047D01*
X157299819Y-123579047D02*
X157299819Y-123388571D01*
X157299819Y-123388571D02*
X157252200Y-123293333D01*
X157252200Y-123293333D02*
X157204580Y-123245714D01*
X157204580Y-123245714D02*
X157109342Y-123198095D01*
X157109342Y-123198095D02*
X156918866Y-123198095D01*
X156918866Y-123198095D02*
X156823628Y-123245714D01*
X156823628Y-123245714D02*
X156776009Y-123293333D01*
X156776009Y-123293333D02*
X156728390Y-123388571D01*
X135318142Y-139424580D02*
X135270523Y-139472200D01*
X135270523Y-139472200D02*
X135127666Y-139519819D01*
X135127666Y-139519819D02*
X135032428Y-139519819D01*
X135032428Y-139519819D02*
X134889571Y-139472200D01*
X134889571Y-139472200D02*
X134794333Y-139376961D01*
X134794333Y-139376961D02*
X134746714Y-139281723D01*
X134746714Y-139281723D02*
X134699095Y-139091247D01*
X134699095Y-139091247D02*
X134699095Y-138948390D01*
X134699095Y-138948390D02*
X134746714Y-138757914D01*
X134746714Y-138757914D02*
X134794333Y-138662676D01*
X134794333Y-138662676D02*
X134889571Y-138567438D01*
X134889571Y-138567438D02*
X135032428Y-138519819D01*
X135032428Y-138519819D02*
X135127666Y-138519819D01*
X135127666Y-138519819D02*
X135270523Y-138567438D01*
X135270523Y-138567438D02*
X135318142Y-138615057D01*
X136270523Y-139519819D02*
X135699095Y-139519819D01*
X135984809Y-139519819D02*
X135984809Y-138519819D01*
X135984809Y-138519819D02*
X135889571Y-138662676D01*
X135889571Y-138662676D02*
X135794333Y-138757914D01*
X135794333Y-138757914D02*
X135699095Y-138805533D01*
X137127666Y-138519819D02*
X136937190Y-138519819D01*
X136937190Y-138519819D02*
X136841952Y-138567438D01*
X136841952Y-138567438D02*
X136794333Y-138615057D01*
X136794333Y-138615057D02*
X136699095Y-138757914D01*
X136699095Y-138757914D02*
X136651476Y-138948390D01*
X136651476Y-138948390D02*
X136651476Y-139329342D01*
X136651476Y-139329342D02*
X136699095Y-139424580D01*
X136699095Y-139424580D02*
X136746714Y-139472200D01*
X136746714Y-139472200D02*
X136841952Y-139519819D01*
X136841952Y-139519819D02*
X137032428Y-139519819D01*
X137032428Y-139519819D02*
X137127666Y-139472200D01*
X137127666Y-139472200D02*
X137175285Y-139424580D01*
X137175285Y-139424580D02*
X137222904Y-139329342D01*
X137222904Y-139329342D02*
X137222904Y-139091247D01*
X137222904Y-139091247D02*
X137175285Y-138996009D01*
X137175285Y-138996009D02*
X137127666Y-138948390D01*
X137127666Y-138948390D02*
X137032428Y-138900771D01*
X137032428Y-138900771D02*
X136841952Y-138900771D01*
X136841952Y-138900771D02*
X136746714Y-138948390D01*
X136746714Y-138948390D02*
X136699095Y-138996009D01*
X136699095Y-138996009D02*
X136651476Y-139091247D01*
X116651333Y-123009819D02*
X116318000Y-122533628D01*
X116079905Y-123009819D02*
X116079905Y-122009819D01*
X116079905Y-122009819D02*
X116460857Y-122009819D01*
X116460857Y-122009819D02*
X116556095Y-122057438D01*
X116556095Y-122057438D02*
X116603714Y-122105057D01*
X116603714Y-122105057D02*
X116651333Y-122200295D01*
X116651333Y-122200295D02*
X116651333Y-122343152D01*
X116651333Y-122343152D02*
X116603714Y-122438390D01*
X116603714Y-122438390D02*
X116556095Y-122486009D01*
X116556095Y-122486009D02*
X116460857Y-122533628D01*
X116460857Y-122533628D02*
X116079905Y-122533628D01*
X117603714Y-123009819D02*
X117032286Y-123009819D01*
X117318000Y-123009819D02*
X117318000Y-122009819D01*
X117318000Y-122009819D02*
X117222762Y-122152676D01*
X117222762Y-122152676D02*
X117127524Y-122247914D01*
X117127524Y-122247914D02*
X117032286Y-122295533D01*
X152759580Y-107182857D02*
X152807200Y-107230476D01*
X152807200Y-107230476D02*
X152854819Y-107373333D01*
X152854819Y-107373333D02*
X152854819Y-107468571D01*
X152854819Y-107468571D02*
X152807200Y-107611428D01*
X152807200Y-107611428D02*
X152711961Y-107706666D01*
X152711961Y-107706666D02*
X152616723Y-107754285D01*
X152616723Y-107754285D02*
X152426247Y-107801904D01*
X152426247Y-107801904D02*
X152283390Y-107801904D01*
X152283390Y-107801904D02*
X152092914Y-107754285D01*
X152092914Y-107754285D02*
X151997676Y-107706666D01*
X151997676Y-107706666D02*
X151902438Y-107611428D01*
X151902438Y-107611428D02*
X151854819Y-107468571D01*
X151854819Y-107468571D02*
X151854819Y-107373333D01*
X151854819Y-107373333D02*
X151902438Y-107230476D01*
X151902438Y-107230476D02*
X151950057Y-107182857D01*
X152854819Y-106230476D02*
X152854819Y-106801904D01*
X152854819Y-106516190D02*
X151854819Y-106516190D01*
X151854819Y-106516190D02*
X151997676Y-106611428D01*
X151997676Y-106611428D02*
X152092914Y-106706666D01*
X152092914Y-106706666D02*
X152140533Y-106801904D01*
X152854819Y-105754285D02*
X152854819Y-105563809D01*
X152854819Y-105563809D02*
X152807200Y-105468571D01*
X152807200Y-105468571D02*
X152759580Y-105420952D01*
X152759580Y-105420952D02*
X152616723Y-105325714D01*
X152616723Y-105325714D02*
X152426247Y-105278095D01*
X152426247Y-105278095D02*
X152045295Y-105278095D01*
X152045295Y-105278095D02*
X151950057Y-105325714D01*
X151950057Y-105325714D02*
X151902438Y-105373333D01*
X151902438Y-105373333D02*
X151854819Y-105468571D01*
X151854819Y-105468571D02*
X151854819Y-105659047D01*
X151854819Y-105659047D02*
X151902438Y-105754285D01*
X151902438Y-105754285D02*
X151950057Y-105801904D01*
X151950057Y-105801904D02*
X152045295Y-105849523D01*
X152045295Y-105849523D02*
X152283390Y-105849523D01*
X152283390Y-105849523D02*
X152378628Y-105801904D01*
X152378628Y-105801904D02*
X152426247Y-105754285D01*
X152426247Y-105754285D02*
X152473866Y-105659047D01*
X152473866Y-105659047D02*
X152473866Y-105468571D01*
X152473866Y-105468571D02*
X152426247Y-105373333D01*
X152426247Y-105373333D02*
X152378628Y-105325714D01*
X152378628Y-105325714D02*
X152283390Y-105278095D01*
X153662142Y-138154580D02*
X153614523Y-138202200D01*
X153614523Y-138202200D02*
X153471666Y-138249819D01*
X153471666Y-138249819D02*
X153376428Y-138249819D01*
X153376428Y-138249819D02*
X153233571Y-138202200D01*
X153233571Y-138202200D02*
X153138333Y-138106961D01*
X153138333Y-138106961D02*
X153090714Y-138011723D01*
X153090714Y-138011723D02*
X153043095Y-137821247D01*
X153043095Y-137821247D02*
X153043095Y-137678390D01*
X153043095Y-137678390D02*
X153090714Y-137487914D01*
X153090714Y-137487914D02*
X153138333Y-137392676D01*
X153138333Y-137392676D02*
X153233571Y-137297438D01*
X153233571Y-137297438D02*
X153376428Y-137249819D01*
X153376428Y-137249819D02*
X153471666Y-137249819D01*
X153471666Y-137249819D02*
X153614523Y-137297438D01*
X153614523Y-137297438D02*
X153662142Y-137345057D01*
X154043095Y-137345057D02*
X154090714Y-137297438D01*
X154090714Y-137297438D02*
X154185952Y-137249819D01*
X154185952Y-137249819D02*
X154424047Y-137249819D01*
X154424047Y-137249819D02*
X154519285Y-137297438D01*
X154519285Y-137297438D02*
X154566904Y-137345057D01*
X154566904Y-137345057D02*
X154614523Y-137440295D01*
X154614523Y-137440295D02*
X154614523Y-137535533D01*
X154614523Y-137535533D02*
X154566904Y-137678390D01*
X154566904Y-137678390D02*
X153995476Y-138249819D01*
X153995476Y-138249819D02*
X154614523Y-138249819D01*
X154995476Y-137345057D02*
X155043095Y-137297438D01*
X155043095Y-137297438D02*
X155138333Y-137249819D01*
X155138333Y-137249819D02*
X155376428Y-137249819D01*
X155376428Y-137249819D02*
X155471666Y-137297438D01*
X155471666Y-137297438D02*
X155519285Y-137345057D01*
X155519285Y-137345057D02*
X155566904Y-137440295D01*
X155566904Y-137440295D02*
X155566904Y-137535533D01*
X155566904Y-137535533D02*
X155519285Y-137678390D01*
X155519285Y-137678390D02*
X154947857Y-138249819D01*
X154947857Y-138249819D02*
X155566904Y-138249819D01*
D12*
%TO.C,R4*%
X114230742Y-117587500D02*
X114705258Y-117587500D01*
X114230742Y-118632500D02*
X114705258Y-118632500D01*
%TO.C,R6*%
X114727258Y-128792500D02*
X114252742Y-128792500D01*
X114727258Y-127747500D02*
X114252742Y-127747500D01*
%TO.C,C17*%
X151300000Y-119150000D02*
X156040000Y-119150000D01*
X151300000Y-119150000D02*
X151300000Y-111910000D01*
X156040000Y-119150000D02*
X156040000Y-111910000D01*
X151300000Y-111910000D02*
X156040000Y-111910000D01*
%TO.C,C6*%
X109278747Y-119279999D02*
X109801251Y-119279999D01*
X109278747Y-120749999D02*
X109801251Y-120749999D01*
%TO.C,R7*%
X117245258Y-109107500D02*
X116770742Y-109107500D01*
X117245258Y-108062500D02*
X116770742Y-108062500D01*
%TO.C,C12*%
X134473000Y-117969420D02*
X134473000Y-118250580D01*
X133453000Y-117969420D02*
X133453000Y-118250580D01*
%TO.C,C7*%
X126978580Y-112905000D02*
X126697420Y-112905000D01*
X126978580Y-111885000D02*
X126697420Y-111885000D01*
%TO.C,R5*%
X114727258Y-131332500D02*
X114252742Y-131332500D01*
X114727258Y-130287500D02*
X114252742Y-130287500D01*
%TO.C,C13*%
X133453000Y-121425580D02*
X133453000Y-121144420D01*
X134473000Y-121425580D02*
X134473000Y-121144420D01*
%TO.C,C9*%
X126978580Y-128145000D02*
X126697420Y-128145000D01*
X126978580Y-127125000D02*
X126697420Y-127125000D01*
%TO.C,C1*%
X113473000Y-99845000D02*
X108733000Y-99845000D01*
X113473000Y-99845000D02*
X113473000Y-107085000D01*
X108733000Y-99845000D02*
X108733000Y-107085000D01*
X113473000Y-107085000D02*
X108733000Y-107085000D01*
%TO.C,L2*%
X137845000Y-120700000D02*
X150445000Y-120700000D01*
X137845000Y-123700000D02*
X137845000Y-120700000D01*
X137845000Y-133300000D02*
X137845000Y-130300000D01*
X150445000Y-120700000D02*
X150445000Y-123700000D01*
X150445000Y-130300000D02*
X150445000Y-133300000D01*
X150445000Y-133300000D02*
X137845000Y-133300000D01*
%TO.C,C11*%
X133475000Y-113030580D02*
X133475000Y-112749420D01*
X134495000Y-113030580D02*
X134495000Y-112749420D01*
%TO.C,C20*%
X152910000Y-130034420D02*
X152910000Y-130315580D01*
X151890000Y-130034420D02*
X151890000Y-130315580D01*
%TO.C,C8*%
X126697420Y-109345000D02*
X126978580Y-109345000D01*
X126697420Y-110365000D02*
X126978580Y-110365000D01*
%TO.C,R8*%
X154417500Y-110092258D02*
X154417500Y-109617742D01*
X155462500Y-110092258D02*
X155462500Y-109617742D01*
D13*
%TO.C,IC1*%
X119935000Y-114565000D02*
X121410000Y-114565000D01*
D12*
%TO.C,R3*%
X114230742Y-120127500D02*
X114705258Y-120127500D01*
X114230742Y-121172500D02*
X114705258Y-121172500D01*
%TO.C,R9*%
X155462500Y-129937742D02*
X155462500Y-130412258D01*
X154417500Y-129937742D02*
X154417500Y-130412258D01*
%TO.C,C5*%
X109574420Y-117600000D02*
X109855580Y-117600000D01*
X109574420Y-118620000D02*
X109855580Y-118620000D01*
%TO.C,L1*%
X137845000Y-106730000D02*
X150445000Y-106730000D01*
X137845000Y-109730000D02*
X137845000Y-106730000D01*
X137845000Y-119330000D02*
X137845000Y-116330000D01*
X150445000Y-106730000D02*
X150445000Y-109730000D01*
X150445000Y-116330000D02*
X150445000Y-119330000D01*
X150445000Y-119330000D02*
X137845000Y-119330000D01*
%TO.C,C15*%
X137355354Y-98090000D02*
X138355354Y-98090000D01*
X137855354Y-97590000D02*
X137855354Y-98590000D01*
X142835000Y-95885000D02*
X142835000Y-106045000D01*
X142875000Y-95885000D02*
X142875000Y-106045000D01*
X142915000Y-95885000D02*
X142915000Y-106045000D01*
X142955000Y-95886000D02*
X142955000Y-106044000D01*
X142995000Y-95887000D02*
X142995000Y-106043000D01*
X143035000Y-95888000D02*
X143035000Y-106042000D01*
X143075000Y-95890000D02*
X143075000Y-106040000D01*
X143115000Y-95892000D02*
X143115000Y-106038000D01*
X143155000Y-95895000D02*
X143155000Y-106035000D01*
X143195000Y-95897000D02*
X143195000Y-106033000D01*
X143235000Y-95900000D02*
X143235000Y-106030000D01*
X143275000Y-95903000D02*
X143275000Y-106027000D01*
X143315000Y-95907000D02*
X143315000Y-106023000D01*
X143355000Y-95911000D02*
X143355000Y-106019000D01*
X143395000Y-95915000D02*
X143395000Y-106015000D01*
X143435000Y-95920000D02*
X143435000Y-106010000D01*
X143475000Y-95925000D02*
X143475000Y-106005000D01*
X143515000Y-95930000D02*
X143515000Y-106000000D01*
X143556000Y-95935000D02*
X143556000Y-105995000D01*
X143596000Y-95941000D02*
X143596000Y-105989000D01*
X143636000Y-95947000D02*
X143636000Y-105983000D01*
X143676000Y-95954000D02*
X143676000Y-105976000D01*
X143716000Y-95961000D02*
X143716000Y-105969000D01*
X143756000Y-95968000D02*
X143756000Y-105962000D01*
X143796000Y-95975000D02*
X143796000Y-105955000D01*
X143836000Y-95983000D02*
X143836000Y-105947000D01*
X143876000Y-95991000D02*
X143876000Y-105939000D01*
X143916000Y-96000000D02*
X143916000Y-105930000D01*
X143956000Y-96009000D02*
X143956000Y-105921000D01*
X143996000Y-96018000D02*
X143996000Y-105912000D01*
X144036000Y-96027000D02*
X144036000Y-105903000D01*
X144076000Y-96037000D02*
X144076000Y-105893000D01*
X144116000Y-96047000D02*
X144116000Y-99724000D01*
X144116000Y-102206000D02*
X144116000Y-105883000D01*
X144156000Y-96058000D02*
X144156000Y-99724000D01*
X144156000Y-102206000D02*
X144156000Y-105872000D01*
X144196000Y-96068000D02*
X144196000Y-99724000D01*
X144196000Y-102206000D02*
X144196000Y-105862000D01*
X144236000Y-96080000D02*
X144236000Y-99724000D01*
X144236000Y-102206000D02*
X144236000Y-105850000D01*
X144276000Y-96091000D02*
X144276000Y-99724000D01*
X144276000Y-102206000D02*
X144276000Y-105839000D01*
X144316000Y-96103000D02*
X144316000Y-99724000D01*
X144316000Y-102206000D02*
X144316000Y-105827000D01*
X144356000Y-96115000D02*
X144356000Y-99724000D01*
X144356000Y-102206000D02*
X144356000Y-105815000D01*
X144396000Y-96128000D02*
X144396000Y-99724000D01*
X144396000Y-102206000D02*
X144396000Y-105802000D01*
X144436000Y-96141000D02*
X144436000Y-99724000D01*
X144436000Y-102206000D02*
X144436000Y-105789000D01*
X144476000Y-96154000D02*
X144476000Y-99724000D01*
X144476000Y-102206000D02*
X144476000Y-105776000D01*
X144516000Y-96168000D02*
X144516000Y-99724000D01*
X144516000Y-102206000D02*
X144516000Y-105762000D01*
X144556000Y-96182000D02*
X144556000Y-99724000D01*
X144556000Y-102206000D02*
X144556000Y-105748000D01*
X144596000Y-96197000D02*
X144596000Y-99724000D01*
X144596000Y-102206000D02*
X144596000Y-105733000D01*
X144636000Y-96211000D02*
X144636000Y-99724000D01*
X144636000Y-102206000D02*
X144636000Y-105719000D01*
X144676000Y-96227000D02*
X144676000Y-99724000D01*
X144676000Y-102206000D02*
X144676000Y-105703000D01*
X144716000Y-96242000D02*
X144716000Y-99724000D01*
X144716000Y-102206000D02*
X144716000Y-105688000D01*
X144756000Y-96258000D02*
X144756000Y-99724000D01*
X144756000Y-102206000D02*
X144756000Y-105672000D01*
X144796000Y-96275000D02*
X144796000Y-99724000D01*
X144796000Y-102206000D02*
X144796000Y-105655000D01*
X144836000Y-96291000D02*
X144836000Y-99724000D01*
X144836000Y-102206000D02*
X144836000Y-105639000D01*
X144876000Y-96308000D02*
X144876000Y-99724000D01*
X144876000Y-102206000D02*
X144876000Y-105622000D01*
X144916000Y-96326000D02*
X144916000Y-99724000D01*
X144916000Y-102206000D02*
X144916000Y-105604000D01*
X144956000Y-96344000D02*
X144956000Y-99724000D01*
X144956000Y-102206000D02*
X144956000Y-105586000D01*
X144996000Y-96362000D02*
X144996000Y-99724000D01*
X144996000Y-102206000D02*
X144996000Y-105568000D01*
X145036000Y-96381000D02*
X145036000Y-99724000D01*
X145036000Y-102206000D02*
X145036000Y-105549000D01*
X145076000Y-96401000D02*
X145076000Y-99724000D01*
X145076000Y-102206000D02*
X145076000Y-105529000D01*
X145116000Y-96420000D02*
X145116000Y-99724000D01*
X145116000Y-102206000D02*
X145116000Y-105510000D01*
X145156000Y-96440000D02*
X145156000Y-99724000D01*
X145156000Y-102206000D02*
X145156000Y-105490000D01*
X145196000Y-96461000D02*
X145196000Y-99724000D01*
X145196000Y-102206000D02*
X145196000Y-105469000D01*
X145236000Y-96482000D02*
X145236000Y-99724000D01*
X145236000Y-102206000D02*
X145236000Y-105448000D01*
X145276000Y-96503000D02*
X145276000Y-99724000D01*
X145276000Y-102206000D02*
X145276000Y-105427000D01*
X145316000Y-96525000D02*
X145316000Y-99724000D01*
X145316000Y-102206000D02*
X145316000Y-105405000D01*
X145356000Y-96548000D02*
X145356000Y-99724000D01*
X145356000Y-102206000D02*
X145356000Y-105382000D01*
X145396000Y-96570000D02*
X145396000Y-99724000D01*
X145396000Y-102206000D02*
X145396000Y-105360000D01*
X145436000Y-96594000D02*
X145436000Y-99724000D01*
X145436000Y-102206000D02*
X145436000Y-105336000D01*
X145476000Y-96618000D02*
X145476000Y-99724000D01*
X145476000Y-102206000D02*
X145476000Y-105312000D01*
X145516000Y-96642000D02*
X145516000Y-99724000D01*
X145516000Y-102206000D02*
X145516000Y-105288000D01*
X145556000Y-96667000D02*
X145556000Y-99724000D01*
X145556000Y-102206000D02*
X145556000Y-105263000D01*
X145596000Y-96692000D02*
X145596000Y-99724000D01*
X145596000Y-102206000D02*
X145596000Y-105238000D01*
X145636000Y-96718000D02*
X145636000Y-99724000D01*
X145636000Y-102206000D02*
X145636000Y-105212000D01*
X145676000Y-96744000D02*
X145676000Y-99724000D01*
X145676000Y-102206000D02*
X145676000Y-105186000D01*
X145716000Y-96771000D02*
X145716000Y-99724000D01*
X145716000Y-102206000D02*
X145716000Y-105159000D01*
X145756000Y-96799000D02*
X145756000Y-99724000D01*
X145756000Y-102206000D02*
X145756000Y-105131000D01*
X145796000Y-96827000D02*
X145796000Y-99724000D01*
X145796000Y-102206000D02*
X145796000Y-105103000D01*
X145836000Y-96855000D02*
X145836000Y-99724000D01*
X145836000Y-102206000D02*
X145836000Y-105075000D01*
X145876000Y-96885000D02*
X145876000Y-99724000D01*
X145876000Y-102206000D02*
X145876000Y-105045000D01*
X145916000Y-96915000D02*
X145916000Y-99724000D01*
X145916000Y-102206000D02*
X145916000Y-105015000D01*
X145956000Y-96945000D02*
X145956000Y-99724000D01*
X145956000Y-102206000D02*
X145956000Y-104985000D01*
X145996000Y-96976000D02*
X145996000Y-99724000D01*
X145996000Y-102206000D02*
X145996000Y-104954000D01*
X146036000Y-97008000D02*
X146036000Y-99724000D01*
X146036000Y-102206000D02*
X146036000Y-104922000D01*
X146076000Y-97040000D02*
X146076000Y-99724000D01*
X146076000Y-102206000D02*
X146076000Y-104890000D01*
X146116000Y-97073000D02*
X146116000Y-99724000D01*
X146116000Y-102206000D02*
X146116000Y-104857000D01*
X146156000Y-97107000D02*
X146156000Y-99724000D01*
X146156000Y-102206000D02*
X146156000Y-104823000D01*
X146196000Y-97141000D02*
X146196000Y-99724000D01*
X146196000Y-102206000D02*
X146196000Y-104789000D01*
X146236000Y-97176000D02*
X146236000Y-99724000D01*
X146236000Y-102206000D02*
X146236000Y-104754000D01*
X146276000Y-97212000D02*
X146276000Y-99724000D01*
X146276000Y-102206000D02*
X146276000Y-104718000D01*
X146316000Y-97249000D02*
X146316000Y-99724000D01*
X146316000Y-102206000D02*
X146316000Y-104681000D01*
X146356000Y-97286000D02*
X146356000Y-99724000D01*
X146356000Y-102206000D02*
X146356000Y-104644000D01*
X146396000Y-97325000D02*
X146396000Y-99724000D01*
X146396000Y-102206000D02*
X146396000Y-104605000D01*
X146436000Y-97364000D02*
X146436000Y-99724000D01*
X146436000Y-102206000D02*
X146436000Y-104566000D01*
X146476000Y-97404000D02*
X146476000Y-99724000D01*
X146476000Y-102206000D02*
X146476000Y-104526000D01*
X146516000Y-97445000D02*
X146516000Y-99724000D01*
X146516000Y-102206000D02*
X146516000Y-104485000D01*
X146556000Y-97487000D02*
X146556000Y-99724000D01*
X146556000Y-102206000D02*
X146556000Y-104443000D01*
X146596000Y-97529000D02*
X146596000Y-104401000D01*
X146636000Y-97573000D02*
X146636000Y-104357000D01*
X146676000Y-97618000D02*
X146676000Y-104312000D01*
X146716000Y-97664000D02*
X146716000Y-104266000D01*
X146756000Y-97711000D02*
X146756000Y-104219000D01*
X146796000Y-97759000D02*
X146796000Y-104171000D01*
X146836000Y-97809000D02*
X146836000Y-104121000D01*
X146876000Y-97859000D02*
X146876000Y-104071000D01*
X146916000Y-97911000D02*
X146916000Y-104019000D01*
X146956000Y-97965000D02*
X146956000Y-103965000D01*
X146996000Y-98020000D02*
X146996000Y-103910000D01*
X147036000Y-98076000D02*
X147036000Y-103854000D01*
X147076000Y-98135000D02*
X147076000Y-103795000D01*
X147116000Y-98195000D02*
X147116000Y-103735000D01*
X147156000Y-98256000D02*
X147156000Y-103674000D01*
X147196000Y-98320000D02*
X147196000Y-103610000D01*
X147236000Y-98386000D02*
X147236000Y-103544000D01*
X147276000Y-98455000D02*
X147276000Y-103475000D01*
X147316000Y-98526000D02*
X147316000Y-103404000D01*
X147356000Y-98600000D02*
X147356000Y-103330000D01*
X147396000Y-98676000D02*
X147396000Y-103254000D01*
X147436000Y-98756000D02*
X147436000Y-103174000D01*
X147476000Y-98840000D02*
X147476000Y-103090000D01*
X147516000Y-98928000D02*
X147516000Y-103002000D01*
X147556000Y-99021000D02*
X147556000Y-102909000D01*
X147596000Y-99119000D02*
X147596000Y-102811000D01*
X147636000Y-99223000D02*
X147636000Y-102707000D01*
X147676000Y-99335000D02*
X147676000Y-102595000D01*
X147716000Y-99455000D02*
X147716000Y-102475000D01*
X147756000Y-99587000D02*
X147756000Y-102343000D01*
X147796000Y-99735000D02*
X147796000Y-102195000D01*
X147836000Y-99903000D02*
X147836000Y-102027000D01*
X147876000Y-100103000D02*
X147876000Y-101827000D01*
X147916000Y-100366000D02*
X147916000Y-101564000D01*
X147955000Y-100965000D02*
G75*
G03*
X137715000Y-100965000I-5120000J0D01*
G01*
X137715000Y-100965000D02*
G75*
G03*
X147955000Y-100965000I5120000J0D01*
G01*
%TO.C,R2*%
X114705258Y-116727500D02*
X114230742Y-116727500D01*
X114705258Y-115682500D02*
X114230742Y-115682500D01*
%TO.C,C10*%
X126978580Y-130685000D02*
X126697420Y-130685000D01*
X126978580Y-129665000D02*
X126697420Y-129665000D01*
%TO.C,C21*%
X154024420Y-103630000D02*
X154305580Y-103630000D01*
X154024420Y-104650000D02*
X154305580Y-104650000D01*
%TO.C,C3*%
X113473000Y-107465000D02*
X108733000Y-107465000D01*
X113473000Y-107465000D02*
X113473000Y-114705000D01*
X108733000Y-107465000D02*
X108733000Y-114705000D01*
X113473000Y-114705000D02*
X108733000Y-114705000D01*
%TO.C,C14*%
X134473000Y-126364420D02*
X134473000Y-126645580D01*
X133453000Y-126364420D02*
X133453000Y-126645580D01*
%TO.C,C18*%
X151300000Y-128120000D02*
X156040000Y-128120000D01*
X151300000Y-128120000D02*
X151300000Y-120880000D01*
X156040000Y-128120000D02*
X156040000Y-120880000D01*
X151300000Y-120880000D02*
X156040000Y-120880000D01*
%TO.C,C16*%
X137355354Y-136190000D02*
X138355354Y-136190000D01*
X137855354Y-135690000D02*
X137855354Y-136690000D01*
X142835000Y-133985000D02*
X142835000Y-144145000D01*
X142875000Y-133985000D02*
X142875000Y-144145000D01*
X142915000Y-133985000D02*
X142915000Y-144145000D01*
X142955000Y-133986000D02*
X142955000Y-144144000D01*
X142995000Y-133987000D02*
X142995000Y-144143000D01*
X143035000Y-133988000D02*
X143035000Y-144142000D01*
X143075000Y-133990000D02*
X143075000Y-144140000D01*
X143115000Y-133992000D02*
X143115000Y-144138000D01*
X143155000Y-133995000D02*
X143155000Y-144135000D01*
X143195000Y-133997000D02*
X143195000Y-144133000D01*
X143235000Y-134000000D02*
X143235000Y-144130000D01*
X143275000Y-134003000D02*
X143275000Y-144127000D01*
X143315000Y-134007000D02*
X143315000Y-144123000D01*
X143355000Y-134011000D02*
X143355000Y-144119000D01*
X143395000Y-134015000D02*
X143395000Y-144115000D01*
X143435000Y-134020000D02*
X143435000Y-144110000D01*
X143475000Y-134025000D02*
X143475000Y-144105000D01*
X143515000Y-134030000D02*
X143515000Y-144100000D01*
X143556000Y-134035000D02*
X143556000Y-144095000D01*
X143596000Y-134041000D02*
X143596000Y-144089000D01*
X143636000Y-134047000D02*
X143636000Y-144083000D01*
X143676000Y-134054000D02*
X143676000Y-144076000D01*
X143716000Y-134061000D02*
X143716000Y-144069000D01*
X143756000Y-134068000D02*
X143756000Y-144062000D01*
X143796000Y-134075000D02*
X143796000Y-144055000D01*
X143836000Y-134083000D02*
X143836000Y-144047000D01*
X143876000Y-134091000D02*
X143876000Y-144039000D01*
X143916000Y-134100000D02*
X143916000Y-144030000D01*
X143956000Y-134109000D02*
X143956000Y-144021000D01*
X143996000Y-134118000D02*
X143996000Y-144012000D01*
X144036000Y-134127000D02*
X144036000Y-144003000D01*
X144076000Y-134137000D02*
X144076000Y-143993000D01*
X144116000Y-134147000D02*
X144116000Y-137824000D01*
X144116000Y-140306000D02*
X144116000Y-143983000D01*
X144156000Y-134158000D02*
X144156000Y-137824000D01*
X144156000Y-140306000D02*
X144156000Y-143972000D01*
X144196000Y-134168000D02*
X144196000Y-137824000D01*
X144196000Y-140306000D02*
X144196000Y-143962000D01*
X144236000Y-134180000D02*
X144236000Y-137824000D01*
X144236000Y-140306000D02*
X144236000Y-143950000D01*
X144276000Y-134191000D02*
X144276000Y-137824000D01*
X144276000Y-140306000D02*
X144276000Y-143939000D01*
X144316000Y-134203000D02*
X144316000Y-137824000D01*
X144316000Y-140306000D02*
X144316000Y-143927000D01*
X144356000Y-134215000D02*
X144356000Y-137824000D01*
X144356000Y-140306000D02*
X144356000Y-143915000D01*
X144396000Y-134228000D02*
X144396000Y-137824000D01*
X144396000Y-140306000D02*
X144396000Y-143902000D01*
X144436000Y-134241000D02*
X144436000Y-137824000D01*
X144436000Y-140306000D02*
X144436000Y-143889000D01*
X144476000Y-134254000D02*
X144476000Y-137824000D01*
X144476000Y-140306000D02*
X144476000Y-143876000D01*
X144516000Y-134268000D02*
X144516000Y-137824000D01*
X144516000Y-140306000D02*
X144516000Y-143862000D01*
X144556000Y-134282000D02*
X144556000Y-137824000D01*
X144556000Y-140306000D02*
X144556000Y-143848000D01*
X144596000Y-134297000D02*
X144596000Y-137824000D01*
X144596000Y-140306000D02*
X144596000Y-143833000D01*
X144636000Y-134311000D02*
X144636000Y-137824000D01*
X144636000Y-140306000D02*
X144636000Y-143819000D01*
X144676000Y-134327000D02*
X144676000Y-137824000D01*
X144676000Y-140306000D02*
X144676000Y-143803000D01*
X144716000Y-134342000D02*
X144716000Y-137824000D01*
X144716000Y-140306000D02*
X144716000Y-143788000D01*
X144756000Y-134358000D02*
X144756000Y-137824000D01*
X144756000Y-140306000D02*
X144756000Y-143772000D01*
X144796000Y-134375000D02*
X144796000Y-137824000D01*
X144796000Y-140306000D02*
X144796000Y-143755000D01*
X144836000Y-134391000D02*
X144836000Y-137824000D01*
X144836000Y-140306000D02*
X144836000Y-143739000D01*
X144876000Y-134408000D02*
X144876000Y-137824000D01*
X144876000Y-140306000D02*
X144876000Y-143722000D01*
X144916000Y-134426000D02*
X144916000Y-137824000D01*
X144916000Y-140306000D02*
X144916000Y-143704000D01*
X144956000Y-134444000D02*
X144956000Y-137824000D01*
X144956000Y-140306000D02*
X144956000Y-143686000D01*
X144996000Y-134462000D02*
X144996000Y-137824000D01*
X144996000Y-140306000D02*
X144996000Y-143668000D01*
X145036000Y-134481000D02*
X145036000Y-137824000D01*
X145036000Y-140306000D02*
X145036000Y-143649000D01*
X145076000Y-134501000D02*
X145076000Y-137824000D01*
X145076000Y-140306000D02*
X145076000Y-143629000D01*
X145116000Y-134520000D02*
X145116000Y-137824000D01*
X145116000Y-140306000D02*
X145116000Y-143610000D01*
X145156000Y-134540000D02*
X145156000Y-137824000D01*
X145156000Y-140306000D02*
X145156000Y-143590000D01*
X145196000Y-134561000D02*
X145196000Y-137824000D01*
X145196000Y-140306000D02*
X145196000Y-143569000D01*
X145236000Y-134582000D02*
X145236000Y-137824000D01*
X145236000Y-140306000D02*
X145236000Y-143548000D01*
X145276000Y-134603000D02*
X145276000Y-137824000D01*
X145276000Y-140306000D02*
X145276000Y-143527000D01*
X145316000Y-134625000D02*
X145316000Y-137824000D01*
X145316000Y-140306000D02*
X145316000Y-143505000D01*
X145356000Y-134648000D02*
X145356000Y-137824000D01*
X145356000Y-140306000D02*
X145356000Y-143482000D01*
X145396000Y-134670000D02*
X145396000Y-137824000D01*
X145396000Y-140306000D02*
X145396000Y-143460000D01*
X145436000Y-134694000D02*
X145436000Y-137824000D01*
X145436000Y-140306000D02*
X145436000Y-143436000D01*
X145476000Y-134718000D02*
X145476000Y-137824000D01*
X145476000Y-140306000D02*
X145476000Y-143412000D01*
X145516000Y-134742000D02*
X145516000Y-137824000D01*
X145516000Y-140306000D02*
X145516000Y-143388000D01*
X145556000Y-134767000D02*
X145556000Y-137824000D01*
X145556000Y-140306000D02*
X145556000Y-143363000D01*
X145596000Y-134792000D02*
X145596000Y-137824000D01*
X145596000Y-140306000D02*
X145596000Y-143338000D01*
X145636000Y-134818000D02*
X145636000Y-137824000D01*
X145636000Y-140306000D02*
X145636000Y-143312000D01*
X145676000Y-134844000D02*
X145676000Y-137824000D01*
X145676000Y-140306000D02*
X145676000Y-143286000D01*
X145716000Y-134871000D02*
X145716000Y-137824000D01*
X145716000Y-140306000D02*
X145716000Y-143259000D01*
X145756000Y-134899000D02*
X145756000Y-137824000D01*
X145756000Y-140306000D02*
X145756000Y-143231000D01*
X145796000Y-134927000D02*
X145796000Y-137824000D01*
X145796000Y-140306000D02*
X145796000Y-143203000D01*
X145836000Y-134955000D02*
X145836000Y-137824000D01*
X145836000Y-140306000D02*
X145836000Y-143175000D01*
X145876000Y-134985000D02*
X145876000Y-137824000D01*
X145876000Y-140306000D02*
X145876000Y-143145000D01*
X145916000Y-135015000D02*
X145916000Y-137824000D01*
X145916000Y-140306000D02*
X145916000Y-143115000D01*
X145956000Y-135045000D02*
X145956000Y-137824000D01*
X145956000Y-140306000D02*
X145956000Y-143085000D01*
X145996000Y-135076000D02*
X145996000Y-137824000D01*
X145996000Y-140306000D02*
X145996000Y-143054000D01*
X146036000Y-135108000D02*
X146036000Y-137824000D01*
X146036000Y-140306000D02*
X146036000Y-143022000D01*
X146076000Y-135140000D02*
X146076000Y-137824000D01*
X146076000Y-140306000D02*
X146076000Y-142990000D01*
X146116000Y-135173000D02*
X146116000Y-137824000D01*
X146116000Y-140306000D02*
X146116000Y-142957000D01*
X146156000Y-135207000D02*
X146156000Y-137824000D01*
X146156000Y-140306000D02*
X146156000Y-142923000D01*
X146196000Y-135241000D02*
X146196000Y-137824000D01*
X146196000Y-140306000D02*
X146196000Y-142889000D01*
X146236000Y-135276000D02*
X146236000Y-137824000D01*
X146236000Y-140306000D02*
X146236000Y-142854000D01*
X146276000Y-135312000D02*
X146276000Y-137824000D01*
X146276000Y-140306000D02*
X146276000Y-142818000D01*
X146316000Y-135349000D02*
X146316000Y-137824000D01*
X146316000Y-140306000D02*
X146316000Y-142781000D01*
X146356000Y-135386000D02*
X146356000Y-137824000D01*
X146356000Y-140306000D02*
X146356000Y-142744000D01*
X146396000Y-135425000D02*
X146396000Y-137824000D01*
X146396000Y-140306000D02*
X146396000Y-142705000D01*
X146436000Y-135464000D02*
X146436000Y-137824000D01*
X146436000Y-140306000D02*
X146436000Y-142666000D01*
X146476000Y-135504000D02*
X146476000Y-137824000D01*
X146476000Y-140306000D02*
X146476000Y-142626000D01*
X146516000Y-135545000D02*
X146516000Y-137824000D01*
X146516000Y-140306000D02*
X146516000Y-142585000D01*
X146556000Y-135587000D02*
X146556000Y-137824000D01*
X146556000Y-140306000D02*
X146556000Y-142543000D01*
X146596000Y-135629000D02*
X146596000Y-142501000D01*
X146636000Y-135673000D02*
X146636000Y-142457000D01*
X146676000Y-135718000D02*
X146676000Y-142412000D01*
X146716000Y-135764000D02*
X146716000Y-142366000D01*
X146756000Y-135811000D02*
X146756000Y-142319000D01*
X146796000Y-135859000D02*
X146796000Y-142271000D01*
X146836000Y-135909000D02*
X146836000Y-142221000D01*
X146876000Y-135959000D02*
X146876000Y-142171000D01*
X146916000Y-136011000D02*
X146916000Y-142119000D01*
X146956000Y-136065000D02*
X146956000Y-142065000D01*
X146996000Y-136120000D02*
X146996000Y-142010000D01*
X147036000Y-136176000D02*
X147036000Y-141954000D01*
X147076000Y-136235000D02*
X147076000Y-141895000D01*
X147116000Y-136295000D02*
X147116000Y-141835000D01*
X147156000Y-136356000D02*
X147156000Y-141774000D01*
X147196000Y-136420000D02*
X147196000Y-141710000D01*
X147236000Y-136486000D02*
X147236000Y-141644000D01*
X147276000Y-136555000D02*
X147276000Y-141575000D01*
X147316000Y-136626000D02*
X147316000Y-141504000D01*
X147356000Y-136700000D02*
X147356000Y-141430000D01*
X147396000Y-136776000D02*
X147396000Y-141354000D01*
X147436000Y-136856000D02*
X147436000Y-141274000D01*
X147476000Y-136940000D02*
X147476000Y-141190000D01*
X147516000Y-137028000D02*
X147516000Y-141102000D01*
X147556000Y-137121000D02*
X147556000Y-141009000D01*
X147596000Y-137219000D02*
X147596000Y-140911000D01*
X147636000Y-137323000D02*
X147636000Y-140807000D01*
X147676000Y-137435000D02*
X147676000Y-140695000D01*
X147716000Y-137555000D02*
X147716000Y-140575000D01*
X147756000Y-137687000D02*
X147756000Y-140443000D01*
X147796000Y-137835000D02*
X147796000Y-140295000D01*
X147836000Y-138003000D02*
X147836000Y-140127000D01*
X147876000Y-138203000D02*
X147876000Y-139927000D01*
X147916000Y-138466000D02*
X147916000Y-139664000D01*
X147955000Y-139065000D02*
G75*
G03*
X137715000Y-139065000I-5120000J0D01*
G01*
X137715000Y-139065000D02*
G75*
G03*
X147955000Y-139065000I5120000J0D01*
G01*
%TO.C,R1*%
X114705258Y-123077500D02*
X114230742Y-123077500D01*
X114705258Y-122032500D02*
X114230742Y-122032500D01*
%TO.C,C19*%
X152910000Y-109714420D02*
X152910000Y-109995580D01*
X151890000Y-109714420D02*
X151890000Y-109995580D01*
%TO.C,C22*%
X154024420Y-135100000D02*
X154305580Y-135100000D01*
X154024420Y-136120000D02*
X154305580Y-136120000D01*
%TD*%
M02*
