%TF.GenerationSoftware,KiCad,Pcbnew,7.0.11+dfsg-1build4*%
%TF.CreationDate,2025-07-18T02:24:09+04:00*%
%TF.ProjectId,tpa3116_amplifier_board,74706133-3131-4365-9f61-6d706c696669,rev?*%
%TF.SameCoordinates,Original*%
%TF.FileFunction,Copper,L2,Bot*%
%TF.FilePolarity,Positive*%
%FSLAX46Y46*%
G04 Gerber Fmt 4.6, Leading zero omitted, Abs format (unit mm)*
G04 Created by KiCad (PCBNEW 7.0.11+dfsg-1build4) date 2025-07-18 02:24:09*
%MOMM*%
%LPD*%
G01*
G04 APERTURE LIST*
G04 Aperture macros list*
%AMRoundRect*
0 Rectangle with rounded corners*
0 $1 Rounding radius*
0 $2 $3 $4 $5 $6 $7 $8 $9 X,Y pos of 4 corners*
0 Add a 4 corners polygon primitive as box body*
4,1,4,$2,$3,$4,$5,$6,$7,$8,$9,$2,$3,0*
0 Add four circle primitives for the rounded corners*
1,1,$1+$1,$2,$3*
1,1,$1+$1,$4,$5*
1,1,$1+$1,$6,$7*
1,1,$1+$1,$8,$9*
0 Add four rect primitives between the rounded corners*
20,1,$1+$1,$2,$3,$4,$5,0*
20,1,$1+$1,$4,$5,$6,$7,0*
20,1,$1+$1,$6,$7,$8,$9,0*
20,1,$1+$1,$8,$9,$2,$3,0*%
G04 Aperture macros list end*
%TA.AperFunction,ComponentPad*%
%ADD10RoundRect,0.250000X0.675000X-0.675000X0.675000X0.675000X-0.675000X0.675000X-0.675000X-0.675000X0*%
%TD*%
%TA.AperFunction,ComponentPad*%
%ADD11C,1.850000*%
%TD*%
%TA.AperFunction,ComponentPad*%
%ADD12C,5.600000*%
%TD*%
%TA.AperFunction,ComponentPad*%
%ADD13C,1.600000*%
%TD*%
%TA.AperFunction,ComponentPad*%
%ADD14RoundRect,0.272727X-1.227273X1.227273X-1.227273X-1.227273X1.227273X-1.227273X1.227273X1.227273X0*%
%TD*%
%TA.AperFunction,ComponentPad*%
%ADD15C,3.000000*%
%TD*%
%TA.AperFunction,ComponentPad*%
%ADD16RoundRect,0.272727X1.227273X-1.227273X1.227273X1.227273X-1.227273X1.227273X-1.227273X-1.227273X0*%
%TD*%
%TA.AperFunction,ComponentPad*%
%ADD17R,2.000000X2.000000*%
%TD*%
%TA.AperFunction,ComponentPad*%
%ADD18C,2.000000*%
%TD*%
%TA.AperFunction,ViaPad*%
%ADD19C,0.800000*%
%TD*%
%TA.AperFunction,Conductor*%
%ADD20C,0.350000*%
%TD*%
G04 APERTURE END LIST*
D10*
%TO.P,J1,1,Pin_1*%
%TO.N,GND*%
X102870000Y-135010000D03*
D11*
%TO.P,J1,2,Pin_2*%
%TO.N,/sync*%
X102870000Y-130810000D03*
%TO.P,J1,3,Pin_3*%
%TO.N,/mute*%
X102870000Y-126610000D03*
%TO.P,J1,4,Pin_4*%
%TO.N,/SD_LR*%
X102870000Y-122410000D03*
%TD*%
D12*
%TO.P,H3,1*%
%TO.N,N/C*%
X160020000Y-142240000D03*
%TD*%
%TO.P,H6,1*%
%TO.N,N/C*%
X124438000Y-135001000D03*
%TD*%
D13*
%TO.P,C17,1*%
%TO.N,GND*%
X153670000Y-118030000D03*
%TO.P,C17,2*%
%TO.N,Net-(J3-Pin_1)*%
X153670000Y-113030000D03*
%TD*%
%TO.P,C1,1*%
%TO.N,/R+*%
X111103000Y-100965000D03*
%TO.P,C1,2*%
%TO.N,Net-(IC1-RINP)*%
X111103000Y-105965000D03*
%TD*%
D14*
%TO.P,J4,1,Pin_1*%
%TO.N,GND*%
X160655000Y-129855000D03*
D15*
%TO.P,J4,2,Pin_2*%
%TO.N,VCC*%
X160655000Y-135255000D03*
%TD*%
D12*
%TO.P,H2,1*%
%TO.N,N/C*%
X104118000Y-142240000D03*
%TD*%
D14*
%TO.P,J3,1,Pin_1*%
%TO.N,Net-(J3-Pin_1)*%
X160655000Y-117315000D03*
D15*
%TO.P,J3,2,Pin_2*%
%TO.N,Net-(J3-Pin_2)*%
X160655000Y-122715000D03*
%TD*%
D10*
%TO.P,J2,1,Pin_1*%
%TO.N,/R-*%
X102870000Y-108585000D03*
D11*
%TO.P,J2,2,Pin_2*%
%TO.N,/R+*%
X102870000Y-104385000D03*
%TD*%
D12*
%TO.P,H1,1*%
%TO.N,N/C*%
X104118000Y-97790000D03*
%TD*%
D16*
%TO.P,J5,1,Pin_1*%
%TO.N,GND*%
X160655000Y-110015000D03*
D15*
%TO.P,J5,2,Pin_2*%
%TO.N,VCC*%
X160655000Y-104615000D03*
%TD*%
D12*
%TO.P,H5,1*%
%TO.N,N/C*%
X124460000Y-105029000D03*
%TD*%
D17*
%TO.P,C15,1*%
%TO.N,VCC*%
X140335000Y-100965000D03*
D18*
%TO.P,C15,2*%
%TO.N,GND*%
X145335000Y-100965000D03*
%TD*%
D12*
%TO.P,H4,1*%
%TO.N,N/C*%
X160020000Y-97790000D03*
%TD*%
D13*
%TO.P,C3,1*%
%TO.N,/R-*%
X111103000Y-108585000D03*
%TO.P,C3,2*%
%TO.N,Net-(IC1-RINN)*%
X111103000Y-113585000D03*
%TD*%
%TO.P,C18,1*%
%TO.N,Net-(J3-Pin_2)*%
X153670000Y-127000000D03*
%TO.P,C18,2*%
%TO.N,GND*%
X153670000Y-122000000D03*
%TD*%
D17*
%TO.P,C16,1*%
%TO.N,VCC*%
X140335000Y-139065000D03*
D18*
%TO.P,C16,2*%
%TO.N,GND*%
X145335000Y-139065000D03*
%TD*%
D19*
%TO.N,GND*%
X151130000Y-134620000D03*
X122533000Y-113665000D03*
X149225000Y-118110000D03*
X125073000Y-125095000D03*
X146685000Y-121920000D03*
X145415000Y-121920000D03*
X106680000Y-116205000D03*
X118088000Y-100965000D03*
X149225000Y-107950000D03*
X104775000Y-118110000D03*
X139065000Y-118110000D03*
X147320000Y-134620000D03*
X104775000Y-116205001D03*
X123803000Y-114935000D03*
X149860000Y-139700000D03*
X149860000Y-100330000D03*
X104775000Y-120015000D03*
X121263000Y-113665000D03*
X151130000Y-139700000D03*
X121898000Y-97155000D03*
X133350000Y-139065000D03*
X139065000Y-121920000D03*
X122533000Y-109855000D03*
X122533000Y-114935000D03*
X149860000Y-102870000D03*
X151130000Y-101600000D03*
X111125000Y-125730000D03*
X146685000Y-132080000D03*
X149860000Y-101600000D03*
X125073000Y-122555000D03*
X122533000Y-112395000D03*
X121263000Y-130175000D03*
X145415000Y-118110000D03*
X123803000Y-123825000D03*
X151130000Y-102870000D03*
X122533000Y-117475000D03*
X125730000Y-142875000D03*
X125073000Y-116205000D03*
X147955000Y-107950000D03*
X151130000Y-104140000D03*
X145415000Y-107950000D03*
X109220000Y-123825000D03*
X110490000Y-135890000D03*
X133350000Y-142875000D03*
X129540000Y-142875000D03*
X121263000Y-126365000D03*
X122533000Y-128905000D03*
X121263000Y-111125000D03*
X151130000Y-100330000D03*
X123803000Y-125095000D03*
X118110000Y-135890000D03*
X125708000Y-97155000D03*
X149860000Y-104140000D03*
X111125000Y-127635000D03*
X125073000Y-117475000D03*
X149225000Y-121920000D03*
X148590000Y-104140000D03*
X122533000Y-116205000D03*
X106680000Y-114300001D03*
X121920000Y-142875000D03*
X121263000Y-127635000D03*
X122533000Y-111125000D03*
X114300000Y-142875000D03*
X126343000Y-122555000D03*
X121263000Y-128905000D03*
X149860000Y-138430000D03*
X145415000Y-132080000D03*
X109220000Y-125730000D03*
X146685000Y-118110000D03*
X148590000Y-134620000D03*
X149225000Y-132080000D03*
X126343000Y-116205000D03*
X114278000Y-97155000D03*
X147320000Y-105410000D03*
X122533000Y-122555000D03*
X126343000Y-114935000D03*
X133350000Y-97155000D03*
X118088000Y-104775000D03*
X118088000Y-97155000D03*
X114300000Y-135890000D03*
X122533000Y-123825000D03*
X148590000Y-105410000D03*
X121263000Y-112395000D03*
X118110000Y-139065000D03*
X129540000Y-139065000D03*
X110490000Y-139065000D03*
X104775001Y-114300001D03*
X133328000Y-100965000D03*
X151130000Y-138430000D03*
X129540000Y-135255000D03*
X123803000Y-117475000D03*
X149860000Y-135890000D03*
X114300000Y-139065000D03*
X126343000Y-123825000D03*
X123803000Y-122555000D03*
X118110000Y-142875000D03*
X151130000Y-105410000D03*
X129540000Y-104775000D03*
X125073000Y-123825000D03*
X151130000Y-135890000D03*
X148590000Y-135890000D03*
X151130000Y-137160000D03*
X149860000Y-105410000D03*
X129518000Y-97155000D03*
X146685000Y-107950000D03*
X125073000Y-114935000D03*
X147955000Y-132080000D03*
X147955000Y-121920000D03*
X123803000Y-116205000D03*
X129518000Y-100965000D03*
X149860000Y-134620000D03*
X122533000Y-125095000D03*
X147955000Y-118110000D03*
X149860000Y-137160000D03*
X126343000Y-125095000D03*
X111125000Y-123825000D03*
X122533000Y-126365000D03*
X122533000Y-127635000D03*
X121263000Y-109855000D03*
X126343000Y-117475000D03*
X109220000Y-127635000D03*
%TO.N,VCC*%
X130788000Y-130810000D03*
X129518000Y-130810000D03*
X129518000Y-127000000D03*
X129518000Y-111760000D03*
X139700000Y-103505000D03*
X141605000Y-98425000D03*
X140970000Y-103505000D03*
X130788000Y-113030000D03*
X130788000Y-127000000D03*
X140970000Y-136525000D03*
X129518000Y-128270000D03*
X141605000Y-141605000D03*
X130788000Y-110490000D03*
X139700000Y-136525000D03*
X130788000Y-111760000D03*
X129518000Y-113030000D03*
X140335000Y-98425000D03*
X129518000Y-110490000D03*
X130788000Y-109220000D03*
X130788000Y-128270000D03*
X130788000Y-129540000D03*
X129518000Y-129540000D03*
X140335000Y-141605000D03*
X129518000Y-109220000D03*
%TO.N,/SD_LR*%
X116183000Y-111544997D03*
X116183000Y-112395000D03*
%TD*%
D20*
%TO.N,/SD_LR*%
X116183000Y-112395000D02*
X116183000Y-111544997D01*
X107692000Y-122410000D02*
X102870000Y-122410000D01*
X116183000Y-113919000D02*
X107692000Y-122410000D01*
X116183000Y-112395000D02*
X116183000Y-113919000D01*
%TO.N,/mute*%
X103015000Y-126755000D02*
X102870000Y-126610000D01*
%TD*%
%TA.AperFunction,Conductor*%
%TO.N,VCC*%
G36*
X131839530Y-126366061D02*
G01*
X131897244Y-126373659D01*
X131970579Y-126383314D01*
X132001842Y-126391691D01*
X132116391Y-126439138D01*
X132144422Y-126455322D01*
X132249289Y-126535789D01*
X132261484Y-126546484D01*
X142693515Y-136978515D01*
X142704210Y-136990710D01*
X142784677Y-137095577D01*
X142800862Y-137123610D01*
X142848307Y-137238153D01*
X142856685Y-137269420D01*
X142873939Y-137400469D01*
X142875000Y-137416655D01*
X142875000Y-141631872D01*
X142873939Y-141648058D01*
X142856685Y-141779107D01*
X142848307Y-141810374D01*
X142800862Y-141924917D01*
X142784677Y-141952950D01*
X142709202Y-142051312D01*
X142686312Y-142074202D01*
X142587950Y-142149677D01*
X142559917Y-142165862D01*
X142445374Y-142213307D01*
X142414107Y-142221685D01*
X142283059Y-142238939D01*
X142266873Y-142240000D01*
X139956288Y-142240000D01*
X139940123Y-142238942D01*
X139809237Y-142221732D01*
X139778009Y-142213376D01*
X139764240Y-142207681D01*
X139663586Y-142166049D01*
X139635581Y-142149906D01*
X139635282Y-142149677D01*
X139530774Y-142069625D01*
X139518599Y-142058968D01*
X137568509Y-140112844D01*
X138835000Y-140112844D01*
X138841401Y-140172372D01*
X138841403Y-140172379D01*
X138891645Y-140307086D01*
X138891649Y-140307093D01*
X138977809Y-140422187D01*
X138977812Y-140422190D01*
X139092906Y-140508350D01*
X139092913Y-140508354D01*
X139227620Y-140558596D01*
X139227627Y-140558598D01*
X139287155Y-140564999D01*
X139287172Y-140565000D01*
X139985000Y-140565000D01*
X139985000Y-139423318D01*
X140061900Y-139489952D01*
X140192685Y-139549680D01*
X140299237Y-139565000D01*
X140370763Y-139565000D01*
X140477315Y-139549680D01*
X140608100Y-139489952D01*
X140685000Y-139423318D01*
X140685000Y-140565000D01*
X141382828Y-140565000D01*
X141382844Y-140564999D01*
X141442372Y-140558598D01*
X141442379Y-140558596D01*
X141577086Y-140508354D01*
X141577093Y-140508350D01*
X141692187Y-140422190D01*
X141692190Y-140422187D01*
X141778350Y-140307093D01*
X141778354Y-140307086D01*
X141828596Y-140172379D01*
X141828598Y-140172372D01*
X141834999Y-140112844D01*
X141835000Y-140112827D01*
X141835000Y-139415000D01*
X140694600Y-139415000D01*
X140716761Y-139395798D01*
X140794493Y-139274844D01*
X140835000Y-139136889D01*
X140835000Y-138993111D01*
X140794493Y-138855156D01*
X140716761Y-138734202D01*
X140694600Y-138715000D01*
X141835000Y-138715000D01*
X141835000Y-138017172D01*
X141834999Y-138017155D01*
X141828598Y-137957627D01*
X141828596Y-137957620D01*
X141778354Y-137822913D01*
X141778350Y-137822906D01*
X141692190Y-137707812D01*
X141692187Y-137707809D01*
X141577093Y-137621649D01*
X141577086Y-137621645D01*
X141442379Y-137571403D01*
X141442372Y-137571401D01*
X141382844Y-137565000D01*
X140685000Y-137565000D01*
X140685000Y-138706681D01*
X140608100Y-138640048D01*
X140477315Y-138580320D01*
X140370763Y-138565000D01*
X140299237Y-138565000D01*
X140192685Y-138580320D01*
X140061900Y-138640048D01*
X139985000Y-138706681D01*
X139985000Y-137565000D01*
X139287155Y-137565000D01*
X139227627Y-137571401D01*
X139227620Y-137571403D01*
X139092913Y-137621645D01*
X139092906Y-137621649D01*
X138977812Y-137707809D01*
X138977809Y-137707812D01*
X138891649Y-137822906D01*
X138891645Y-137822913D01*
X138841403Y-137957620D01*
X138841401Y-137957627D01*
X138835000Y-138017155D01*
X138835000Y-138715000D01*
X139975400Y-138715000D01*
X139953239Y-138734202D01*
X139875507Y-138855156D01*
X139835000Y-138993111D01*
X139835000Y-139136889D01*
X139875507Y-139274844D01*
X139953239Y-139395798D01*
X139975400Y-139415000D01*
X138835000Y-139415000D01*
X138835000Y-140112844D01*
X137568509Y-140112844D01*
X129064917Y-131626547D01*
X129054220Y-131614372D01*
X128973547Y-131509423D01*
X128957324Y-131481367D01*
X128909759Y-131366699D01*
X128901360Y-131335394D01*
X128884064Y-131204185D01*
X128883000Y-131187979D01*
X128883000Y-126973127D01*
X128884061Y-126956942D01*
X128901314Y-126825893D01*
X128909690Y-126794631D01*
X128957140Y-126680076D01*
X128973320Y-126652052D01*
X129048802Y-126553681D01*
X129071681Y-126530802D01*
X129170052Y-126455320D01*
X129198076Y-126439140D01*
X129312631Y-126391690D01*
X129343890Y-126383314D01*
X129436513Y-126371120D01*
X129474942Y-126366061D01*
X129491127Y-126365000D01*
X131823345Y-126365000D01*
X131839530Y-126366061D01*
G37*
%TD.AperFunction*%
%TD*%
%TA.AperFunction,Conductor*%
%TO.N,VCC*%
G36*
X142283058Y-97791061D02*
G01*
X142340772Y-97798659D01*
X142414107Y-97808314D01*
X142445370Y-97816691D01*
X142559919Y-97864138D01*
X142587950Y-97880322D01*
X142686314Y-97955799D01*
X142709202Y-97978687D01*
X142784677Y-98077049D01*
X142800862Y-98105082D01*
X142848307Y-98219625D01*
X142856685Y-98250892D01*
X142873939Y-98381941D01*
X142875000Y-98398127D01*
X142875000Y-101978344D01*
X142873939Y-101994530D01*
X142856685Y-102125579D01*
X142848307Y-102156846D01*
X142800862Y-102271389D01*
X142784677Y-102299422D01*
X142704210Y-102404289D01*
X142693515Y-102416484D01*
X131626484Y-113483515D01*
X131614289Y-113494210D01*
X131509422Y-113574677D01*
X131481389Y-113590862D01*
X131366846Y-113638307D01*
X131335579Y-113646685D01*
X131204531Y-113663939D01*
X131188345Y-113665000D01*
X129491127Y-113665000D01*
X129474941Y-113663939D01*
X129343892Y-113646685D01*
X129312625Y-113638307D01*
X129198082Y-113590862D01*
X129170049Y-113574677D01*
X129071687Y-113499202D01*
X129048799Y-113476314D01*
X128973322Y-113377950D01*
X128957137Y-113349917D01*
X128909691Y-113235370D01*
X128901314Y-113204106D01*
X128884061Y-113073057D01*
X128883000Y-113056872D01*
X128883000Y-108842020D01*
X128884064Y-108825814D01*
X128901361Y-108694601D01*
X128909757Y-108663305D01*
X128957326Y-108548626D01*
X128973545Y-108520578D01*
X129054222Y-108415623D01*
X129064917Y-108403451D01*
X135468548Y-102012844D01*
X138835000Y-102012844D01*
X138841401Y-102072372D01*
X138841403Y-102072379D01*
X138891645Y-102207086D01*
X138891649Y-102207093D01*
X138977809Y-102322187D01*
X138977812Y-102322190D01*
X139092906Y-102408350D01*
X139092913Y-102408354D01*
X139227620Y-102458596D01*
X139227627Y-102458598D01*
X139287155Y-102464999D01*
X139287172Y-102465000D01*
X139985000Y-102465000D01*
X139985000Y-101323318D01*
X140061900Y-101389952D01*
X140192685Y-101449680D01*
X140299237Y-101465000D01*
X140370763Y-101465000D01*
X140477315Y-101449680D01*
X140608100Y-101389952D01*
X140685000Y-101323318D01*
X140685000Y-102465000D01*
X141382828Y-102465000D01*
X141382844Y-102464999D01*
X141442372Y-102458598D01*
X141442379Y-102458596D01*
X141577086Y-102408354D01*
X141577093Y-102408350D01*
X141692187Y-102322190D01*
X141692190Y-102322187D01*
X141778350Y-102207093D01*
X141778354Y-102207086D01*
X141828596Y-102072379D01*
X141828598Y-102072372D01*
X141834999Y-102012844D01*
X141835000Y-102012827D01*
X141835000Y-101315000D01*
X140694600Y-101315000D01*
X140716761Y-101295798D01*
X140794493Y-101174844D01*
X140835000Y-101036889D01*
X140835000Y-100893111D01*
X140794493Y-100755156D01*
X140716761Y-100634202D01*
X140694600Y-100615000D01*
X141835000Y-100615000D01*
X141835000Y-99917172D01*
X141834999Y-99917155D01*
X141828598Y-99857627D01*
X141828596Y-99857620D01*
X141778354Y-99722913D01*
X141778350Y-99722906D01*
X141692190Y-99607812D01*
X141692187Y-99607809D01*
X141577093Y-99521649D01*
X141577086Y-99521645D01*
X141442379Y-99471403D01*
X141442372Y-99471401D01*
X141382844Y-99465000D01*
X140685000Y-99465000D01*
X140685000Y-100606681D01*
X140608100Y-100540048D01*
X140477315Y-100480320D01*
X140370763Y-100465000D01*
X140299237Y-100465000D01*
X140192685Y-100480320D01*
X140061900Y-100540048D01*
X139985000Y-100606681D01*
X139985000Y-99465000D01*
X139287155Y-99465000D01*
X139227627Y-99471401D01*
X139227620Y-99471403D01*
X139092913Y-99521645D01*
X139092906Y-99521649D01*
X138977812Y-99607809D01*
X138977809Y-99607812D01*
X138891649Y-99722906D01*
X138891645Y-99722913D01*
X138841403Y-99857620D01*
X138841401Y-99857627D01*
X138835000Y-99917155D01*
X138835000Y-100615000D01*
X139975400Y-100615000D01*
X139953239Y-100634202D01*
X139875507Y-100755156D01*
X139835000Y-100893111D01*
X139835000Y-101036889D01*
X139875507Y-101174844D01*
X139953239Y-101295798D01*
X139975400Y-101315000D01*
X138835000Y-101315000D01*
X138835000Y-102012844D01*
X135468548Y-102012844D01*
X139518599Y-97971030D01*
X139530774Y-97960373D01*
X139635587Y-97880089D01*
X139663580Y-97863952D01*
X139778015Y-97816621D01*
X139809236Y-97808267D01*
X139940123Y-97791057D01*
X139956288Y-97790000D01*
X142266873Y-97790000D01*
X142283058Y-97791061D01*
G37*
%TD.AperFunction*%
%TD*%
%TA.AperFunction,Conductor*%
%TO.N,GND*%
G36*
X157980784Y-94985185D02*
G01*
X158026539Y-95037989D01*
X158036483Y-95107147D01*
X158007458Y-95170703D01*
X157988786Y-95188216D01*
X157880172Y-95270781D01*
X157880163Y-95270789D01*
X157620331Y-95516914D01*
X157388641Y-95789680D01*
X157388634Y-95789690D01*
X157187790Y-96085913D01*
X157187784Y-96085922D01*
X157020151Y-96402111D01*
X157020142Y-96402129D01*
X156887674Y-96734600D01*
X156887672Y-96734607D01*
X156791932Y-97079434D01*
X156791926Y-97079460D01*
X156734029Y-97432614D01*
X156734028Y-97432627D01*
X156734028Y-97432629D01*
X156730959Y-97489238D01*
X156717806Y-97731836D01*
X156714652Y-97790000D01*
X156733950Y-98145940D01*
X156734028Y-98147368D01*
X156734029Y-98147385D01*
X156791926Y-98500539D01*
X156791932Y-98500565D01*
X156887672Y-98845392D01*
X156887674Y-98845399D01*
X157020142Y-99177870D01*
X157020151Y-99177888D01*
X157187784Y-99494077D01*
X157187787Y-99494082D01*
X157187789Y-99494085D01*
X157382885Y-99781831D01*
X157388634Y-99790309D01*
X157388641Y-99790319D01*
X157569189Y-100002876D01*
X157620332Y-100063086D01*
X157880163Y-100309211D01*
X158165081Y-100525800D01*
X158471747Y-100710315D01*
X158471749Y-100710316D01*
X158471751Y-100710317D01*
X158471755Y-100710319D01*
X158796552Y-100860585D01*
X158796565Y-100860591D01*
X159135726Y-100974868D01*
X159485254Y-101051805D01*
X159841052Y-101090500D01*
X159841058Y-101090500D01*
X160198942Y-101090500D01*
X160198948Y-101090500D01*
X160554746Y-101051805D01*
X160904274Y-100974868D01*
X161243435Y-100860591D01*
X161568253Y-100710315D01*
X161874919Y-100525800D01*
X162159837Y-100309211D01*
X162419668Y-100063086D01*
X162625992Y-99820181D01*
X162684395Y-99781831D01*
X162754261Y-99781143D01*
X162813409Y-99818336D01*
X162843058Y-99881603D01*
X162844500Y-99900458D01*
X162844500Y-108468182D01*
X162824815Y-108535221D01*
X162772011Y-108580976D01*
X162702853Y-108590920D01*
X162639297Y-108561895D01*
X162603459Y-108509137D01*
X162582882Y-108450334D01*
X162490237Y-108302890D01*
X162367109Y-108179762D01*
X162219667Y-108087118D01*
X162055306Y-108029606D01*
X162055301Y-108029605D01*
X161925671Y-108015000D01*
X161005000Y-108015000D01*
X161005000Y-109212820D01*
X160936036Y-109180914D01*
X160750162Y-109140000D01*
X160607555Y-109140000D01*
X160465792Y-109155418D01*
X160305000Y-109209594D01*
X160305000Y-108015000D01*
X159384335Y-108015000D01*
X159384327Y-108015001D01*
X159254696Y-108029605D01*
X159254683Y-108029608D01*
X159090334Y-108087117D01*
X158942890Y-108179762D01*
X158819762Y-108302890D01*
X158727118Y-108450332D01*
X158669606Y-108614693D01*
X158669605Y-108614698D01*
X158655000Y-108744328D01*
X158655000Y-109665000D01*
X159852556Y-109665000D01*
X159806922Y-109779532D01*
X159776131Y-109967349D01*
X159786435Y-110157394D01*
X159837352Y-110340781D01*
X159850192Y-110365000D01*
X158655001Y-110365000D01*
X158655001Y-111285672D01*
X158669605Y-111415303D01*
X158669608Y-111415316D01*
X158727117Y-111579665D01*
X158819762Y-111727109D01*
X158942890Y-111850237D01*
X159090332Y-111942881D01*
X159254693Y-112000393D01*
X159254698Y-112000394D01*
X159384330Y-112014999D01*
X160304999Y-112014999D01*
X160305000Y-112014998D01*
X160305000Y-110817179D01*
X160373964Y-110849086D01*
X160559838Y-110890000D01*
X160702445Y-110890000D01*
X160844208Y-110874582D01*
X161005000Y-110820405D01*
X161005000Y-112014999D01*
X161925665Y-112014999D01*
X161925672Y-112014998D01*
X162055303Y-112000394D01*
X162055316Y-112000391D01*
X162219665Y-111942882D01*
X162367109Y-111850237D01*
X162490237Y-111727109D01*
X162582881Y-111579667D01*
X162603458Y-111520862D01*
X162644180Y-111464086D01*
X162709132Y-111438338D01*
X162777694Y-111451794D01*
X162828097Y-111500181D01*
X162844500Y-111561816D01*
X162844500Y-128308182D01*
X162824815Y-128375221D01*
X162772011Y-128420976D01*
X162702853Y-128430920D01*
X162639297Y-128401895D01*
X162603459Y-128349137D01*
X162582882Y-128290334D01*
X162490237Y-128142890D01*
X162367109Y-128019762D01*
X162219667Y-127927118D01*
X162055306Y-127869606D01*
X162055301Y-127869605D01*
X161925671Y-127855000D01*
X161005000Y-127855000D01*
X161005000Y-129052820D01*
X160936036Y-129020914D01*
X160750162Y-128980000D01*
X160607555Y-128980000D01*
X160465792Y-128995418D01*
X160305000Y-129049594D01*
X160305000Y-127855000D01*
X159384335Y-127855000D01*
X159384327Y-127855001D01*
X159254696Y-127869605D01*
X159254683Y-127869608D01*
X159090334Y-127927117D01*
X158942890Y-128019762D01*
X158819762Y-128142890D01*
X158727118Y-128290332D01*
X158669606Y-128454693D01*
X158669605Y-128454698D01*
X158655000Y-128584328D01*
X158655000Y-129505000D01*
X159852556Y-129505000D01*
X159806922Y-129619532D01*
X159776131Y-129807349D01*
X159786435Y-129997394D01*
X159837352Y-130180781D01*
X159850192Y-130205000D01*
X158655001Y-130205000D01*
X158655001Y-131125672D01*
X158669605Y-131255303D01*
X158669608Y-131255316D01*
X158727117Y-131419665D01*
X158819762Y-131567109D01*
X158942890Y-131690237D01*
X159090332Y-131782881D01*
X159254693Y-131840393D01*
X159254698Y-131840394D01*
X159384330Y-131854999D01*
X160304999Y-131854999D01*
X160305000Y-131854998D01*
X160305000Y-130657179D01*
X160373964Y-130689086D01*
X160559838Y-130730000D01*
X160702445Y-130730000D01*
X160844208Y-130714582D01*
X161005000Y-130660405D01*
X161005000Y-131854999D01*
X161925665Y-131854999D01*
X161925672Y-131854998D01*
X162055303Y-131840394D01*
X162055316Y-131840391D01*
X162219665Y-131782882D01*
X162367109Y-131690237D01*
X162490237Y-131567109D01*
X162582881Y-131419667D01*
X162603458Y-131360862D01*
X162644180Y-131304086D01*
X162709132Y-131278338D01*
X162777694Y-131291794D01*
X162828097Y-131340181D01*
X162844500Y-131401816D01*
X162844500Y-140129541D01*
X162824815Y-140196580D01*
X162772011Y-140242335D01*
X162702853Y-140252279D01*
X162639297Y-140223254D01*
X162625992Y-140209817D01*
X162419668Y-139966914D01*
X162159837Y-139720789D01*
X162159830Y-139720783D01*
X162159827Y-139720781D01*
X162092245Y-139669407D01*
X161874919Y-139504200D01*
X161568253Y-139319685D01*
X161568252Y-139319684D01*
X161568248Y-139319682D01*
X161568244Y-139319680D01*
X161243447Y-139169414D01*
X161243441Y-139169411D01*
X161243435Y-139169409D01*
X161073854Y-139112270D01*
X160904273Y-139055131D01*
X160554744Y-138978194D01*
X160198949Y-138939500D01*
X160198948Y-138939500D01*
X159841052Y-138939500D01*
X159841050Y-138939500D01*
X159485255Y-138978194D01*
X159135726Y-139055131D01*
X158879970Y-139141306D01*
X158796565Y-139169409D01*
X158796563Y-139169410D01*
X158796552Y-139169414D01*
X158471755Y-139319680D01*
X158471751Y-139319682D01*
X158345246Y-139395798D01*
X158165081Y-139504200D01*
X158091710Y-139559975D01*
X157880172Y-139720781D01*
X157880163Y-139720789D01*
X157620331Y-139966914D01*
X157388641Y-140239680D01*
X157388634Y-140239690D01*
X157187790Y-140535913D01*
X157187784Y-140535922D01*
X157020151Y-140852111D01*
X157020142Y-140852129D01*
X156887674Y-141184600D01*
X156887672Y-141184607D01*
X156791932Y-141529434D01*
X156791926Y-141529460D01*
X156734029Y-141882614D01*
X156734028Y-141882627D01*
X156734028Y-141882629D01*
X156732256Y-141915319D01*
X156716832Y-142199801D01*
X156714652Y-142240000D01*
X156729690Y-142517369D01*
X156734028Y-142597368D01*
X156734029Y-142597385D01*
X156791926Y-142950539D01*
X156791932Y-142950565D01*
X156887672Y-143295392D01*
X156887674Y-143295399D01*
X157020142Y-143627870D01*
X157020151Y-143627888D01*
X157187784Y-143944077D01*
X157187787Y-143944082D01*
X157187789Y-143944085D01*
X157382885Y-144231831D01*
X157388634Y-144240309D01*
X157388641Y-144240319D01*
X157504195Y-144376359D01*
X157620332Y-144513086D01*
X157880163Y-144759211D01*
X157880170Y-144759216D01*
X157880172Y-144759218D01*
X157988786Y-144841784D01*
X158030244Y-144898025D01*
X158034713Y-144967752D01*
X158000776Y-145028826D01*
X157939208Y-145061858D01*
X157913745Y-145064500D01*
X106224255Y-145064500D01*
X106157216Y-145044815D01*
X106111461Y-144992011D01*
X106101517Y-144922853D01*
X106130542Y-144859297D01*
X106149214Y-144841784D01*
X106257837Y-144759211D01*
X106517668Y-144513086D01*
X106749365Y-144240311D01*
X106950211Y-143944085D01*
X107117853Y-143627880D01*
X107250324Y-143295403D01*
X107346071Y-142950552D01*
X107396824Y-142640971D01*
X107403970Y-142597385D01*
X107403970Y-142597382D01*
X107403972Y-142597371D01*
X107423348Y-142240000D01*
X107421168Y-142199801D01*
X107417258Y-142127672D01*
X107403972Y-141882629D01*
X107395678Y-141832039D01*
X107346073Y-141529460D01*
X107346072Y-141529459D01*
X107346071Y-141529448D01*
X107250324Y-141184597D01*
X107117853Y-140852120D01*
X106950211Y-140535915D01*
X106749365Y-140239689D01*
X106749361Y-140239684D01*
X106749358Y-140239680D01*
X106517668Y-139966914D01*
X106257837Y-139720789D01*
X106257830Y-139720783D01*
X106257827Y-139720781D01*
X106190245Y-139669407D01*
X105972919Y-139504200D01*
X105666253Y-139319685D01*
X105666252Y-139319684D01*
X105666248Y-139319682D01*
X105666244Y-139319680D01*
X105341447Y-139169414D01*
X105341441Y-139169411D01*
X105341435Y-139169409D01*
X105171854Y-139112270D01*
X105002273Y-139055131D01*
X104652744Y-138978194D01*
X104296949Y-138939500D01*
X104296948Y-138939500D01*
X103939052Y-138939500D01*
X103939050Y-138939500D01*
X103583255Y-138978194D01*
X103233726Y-139055131D01*
X102977970Y-139141306D01*
X102894565Y-139169409D01*
X102894563Y-139169410D01*
X102894552Y-139169414D01*
X102569755Y-139319680D01*
X102569751Y-139319682D01*
X102443246Y-139395798D01*
X102263081Y-139504200D01*
X102189710Y-139559975D01*
X101978172Y-139720781D01*
X101978163Y-139720789D01*
X101718331Y-139966914D01*
X101534008Y-140183916D01*
X101475604Y-140222267D01*
X101405738Y-140222955D01*
X101346591Y-140185761D01*
X101316942Y-140122494D01*
X101315500Y-140103640D01*
X101315500Y-136124984D01*
X101335185Y-136057945D01*
X101387989Y-136012190D01*
X101457147Y-136002246D01*
X101520703Y-136031271D01*
X101545039Y-136059887D01*
X101602684Y-136153345D01*
X101726654Y-136277315D01*
X101875875Y-136369356D01*
X101875880Y-136369358D01*
X102042302Y-136424505D01*
X102042309Y-136424506D01*
X102145019Y-136434999D01*
X102519999Y-136434999D01*
X102520000Y-136434998D01*
X102520000Y-135259229D01*
X102521882Y-135262923D01*
X102617077Y-135358118D01*
X102737031Y-135419238D01*
X102836549Y-135435000D01*
X102903451Y-135435000D01*
X103002969Y-135419238D01*
X103119229Y-135360000D01*
X103220000Y-135360000D01*
X103220000Y-136434999D01*
X103594972Y-136434999D01*
X103594986Y-136434998D01*
X103697697Y-136424505D01*
X103864119Y-136369358D01*
X103864124Y-136369356D01*
X104013345Y-136277315D01*
X104137315Y-136153345D01*
X104229356Y-136004124D01*
X104229358Y-136004119D01*
X104284505Y-135837697D01*
X104284506Y-135837690D01*
X104294999Y-135734986D01*
X104295000Y-135734973D01*
X104295000Y-135360000D01*
X103220000Y-135360000D01*
X103119229Y-135360000D01*
X103122923Y-135358118D01*
X103218118Y-135262923D01*
X103279238Y-135142969D01*
X103300298Y-135010000D01*
X103298873Y-135001000D01*
X121132652Y-135001000D01*
X121146423Y-135255001D01*
X121152028Y-135358368D01*
X121152029Y-135358385D01*
X121209926Y-135711539D01*
X121209932Y-135711565D01*
X121305672Y-136056392D01*
X121305674Y-136056399D01*
X121438142Y-136388870D01*
X121438151Y-136388888D01*
X121605784Y-136705077D01*
X121605787Y-136705082D01*
X121605789Y-136705085D01*
X121784343Y-136968433D01*
X121806634Y-137001309D01*
X121806641Y-137001319D01*
X122038331Y-137274085D01*
X122038332Y-137274086D01*
X122298163Y-137520211D01*
X122583081Y-137736800D01*
X122889747Y-137921315D01*
X122889749Y-137921316D01*
X122889751Y-137921317D01*
X122889755Y-137921319D01*
X123214552Y-138071585D01*
X123214565Y-138071591D01*
X123553726Y-138185868D01*
X123903254Y-138262805D01*
X124259052Y-138301500D01*
X124259058Y-138301500D01*
X124616942Y-138301500D01*
X124616948Y-138301500D01*
X124972746Y-138262805D01*
X125322274Y-138185868D01*
X125661435Y-138071591D01*
X125986253Y-137921315D01*
X126292919Y-137736800D01*
X126577837Y-137520211D01*
X126837668Y-137274086D01*
X127069365Y-137001311D01*
X127270211Y-136705085D01*
X127437853Y-136388880D01*
X127570324Y-136056403D01*
X127666071Y-135711552D01*
X127696463Y-135526167D01*
X127723970Y-135358385D01*
X127723970Y-135358382D01*
X127723972Y-135358371D01*
X127743348Y-135001000D01*
X127723972Y-134643629D01*
X127716944Y-134600762D01*
X127666073Y-134290460D01*
X127666072Y-134290459D01*
X127666071Y-134290448D01*
X127570324Y-133945597D01*
X127489476Y-133742684D01*
X127437857Y-133613129D01*
X127437848Y-133613111D01*
X127422944Y-133585000D01*
X127339084Y-133426823D01*
X127270215Y-133296922D01*
X127270213Y-133296919D01*
X127270211Y-133296915D01*
X127069365Y-133000689D01*
X127069361Y-133000684D01*
X127069358Y-133000680D01*
X126837668Y-132727914D01*
X126577837Y-132481789D01*
X126577830Y-132481783D01*
X126577827Y-132481781D01*
X126510245Y-132430407D01*
X126292919Y-132265200D01*
X125986253Y-132080685D01*
X125986252Y-132080684D01*
X125986248Y-132080682D01*
X125986244Y-132080680D01*
X125661447Y-131930414D01*
X125661441Y-131930411D01*
X125661435Y-131930409D01*
X125456921Y-131861500D01*
X125322273Y-131816131D01*
X124972744Y-131739194D01*
X124616949Y-131700500D01*
X124616948Y-131700500D01*
X124259052Y-131700500D01*
X124259050Y-131700500D01*
X123903255Y-131739194D01*
X123553726Y-131816131D01*
X123322091Y-131894179D01*
X123214565Y-131930409D01*
X123214563Y-131930410D01*
X123214552Y-131930414D01*
X122889755Y-132080680D01*
X122889751Y-132080682D01*
X122790229Y-132140563D01*
X122583081Y-132265200D01*
X122494768Y-132332333D01*
X122298172Y-132481781D01*
X122298163Y-132481789D01*
X122038331Y-132727914D01*
X121806641Y-133000680D01*
X121806634Y-133000690D01*
X121605790Y-133296913D01*
X121605784Y-133296922D01*
X121438151Y-133613111D01*
X121438142Y-133613129D01*
X121305674Y-133945600D01*
X121305672Y-133945607D01*
X121209932Y-134290434D01*
X121209926Y-134290460D01*
X121152029Y-134643614D01*
X121152028Y-134643627D01*
X121152028Y-134643629D01*
X121132652Y-135001000D01*
X103298873Y-135001000D01*
X103279238Y-134877031D01*
X103218118Y-134757077D01*
X103122923Y-134661882D01*
X103002969Y-134600762D01*
X102903451Y-134585000D01*
X102836549Y-134585000D01*
X102737031Y-134600762D01*
X102617077Y-134661882D01*
X102521882Y-134757077D01*
X102520000Y-134760770D01*
X102520000Y-133585000D01*
X103220000Y-133585000D01*
X103220000Y-134660000D01*
X104294999Y-134660000D01*
X104294999Y-134285028D01*
X104294998Y-134285013D01*
X104284505Y-134182302D01*
X104229358Y-134015880D01*
X104229356Y-134015875D01*
X104137315Y-133866654D01*
X104013345Y-133742684D01*
X103864124Y-133650643D01*
X103864119Y-133650641D01*
X103697697Y-133595494D01*
X103697690Y-133595493D01*
X103594986Y-133585000D01*
X103220000Y-133585000D01*
X102520000Y-133585000D01*
X102145028Y-133585000D01*
X102145012Y-133585001D01*
X102042302Y-133595494D01*
X101875880Y-133650641D01*
X101875875Y-133650643D01*
X101726654Y-133742684D01*
X101602683Y-133866655D01*
X101602680Y-133866659D01*
X101545038Y-133960112D01*
X101493090Y-134006837D01*
X101424128Y-134018058D01*
X101360046Y-133990215D01*
X101321190Y-133932146D01*
X101315500Y-133895015D01*
X101315500Y-131071739D01*
X101335185Y-131004700D01*
X101387989Y-130958945D01*
X101457147Y-130949001D01*
X101520703Y-130978026D01*
X101558477Y-131036804D01*
X101559275Y-131039645D01*
X101559650Y-131041044D01*
X101559651Y-131041050D01*
X101567874Y-131071739D01*
X101619678Y-131265074D01*
X101619679Y-131265076D01*
X101619680Y-131265079D01*
X101717699Y-131475282D01*
X101850730Y-131665269D01*
X102014731Y-131829270D01*
X102204718Y-131962301D01*
X102414921Y-132060320D01*
X102638950Y-132120349D01*
X102803985Y-132134787D01*
X102869998Y-132140563D01*
X102870000Y-132140563D01*
X102870002Y-132140563D01*
X102927762Y-132135509D01*
X103101050Y-132120349D01*
X103325079Y-132060320D01*
X103535282Y-131962301D01*
X103725269Y-131829270D01*
X103889270Y-131665269D01*
X104022301Y-131475282D01*
X104120320Y-131265079D01*
X104140976Y-131187992D01*
X128477500Y-131187992D01*
X128478369Y-131214523D01*
X128479435Y-131230758D01*
X128482043Y-131257194D01*
X128499333Y-131388355D01*
X128499339Y-131388393D01*
X128509708Y-131440460D01*
X128509717Y-131440497D01*
X128518105Y-131471763D01*
X128518108Y-131471771D01*
X128535207Y-131522076D01*
X128582770Y-131636739D01*
X128582771Y-131636741D01*
X128606285Y-131684350D01*
X128606291Y-131684362D01*
X128622503Y-131712399D01*
X128622509Y-131712409D01*
X128652049Y-131756545D01*
X128652057Y-131756555D01*
X128732718Y-131861489D01*
X128749602Y-131882025D01*
X128760280Y-131894179D01*
X128778484Y-131913578D01*
X131154752Y-134285013D01*
X135187441Y-138309500D01*
X135958093Y-139078585D01*
X136701520Y-139820500D01*
X137282069Y-140399868D01*
X139232159Y-142345992D01*
X139251520Y-142364090D01*
X139263695Y-142374747D01*
X139284192Y-142391538D01*
X139388999Y-142471819D01*
X139433073Y-142501219D01*
X139433076Y-142501221D01*
X139433081Y-142501224D01*
X139461069Y-142517357D01*
X139461078Y-142517362D01*
X139461088Y-142517367D01*
X139461092Y-142517369D01*
X139508581Y-142540752D01*
X139508588Y-142540755D01*
X139508600Y-142540761D01*
X139508617Y-142540768D01*
X139623020Y-142588087D01*
X139673191Y-142605095D01*
X139704400Y-142613446D01*
X139704421Y-142613451D01*
X139756373Y-142623771D01*
X139887259Y-142640981D01*
X139887266Y-142640981D01*
X139887276Y-142640983D01*
X139898989Y-142642134D01*
X139913640Y-142643576D01*
X139929805Y-142644634D01*
X139956288Y-142645500D01*
X139956293Y-142645500D01*
X142266860Y-142645500D01*
X142266873Y-142645500D01*
X142293397Y-142644632D01*
X142309583Y-142643571D01*
X142309595Y-142643569D01*
X142309607Y-142643569D01*
X142335975Y-142640971D01*
X142335987Y-142640969D01*
X142335991Y-142640969D01*
X142467039Y-142623715D01*
X142519059Y-142613368D01*
X142550326Y-142604990D01*
X142600551Y-142587940D01*
X142715094Y-142540495D01*
X142762668Y-142517035D01*
X142790701Y-142500850D01*
X142834801Y-142471383D01*
X142933163Y-142395908D01*
X142938158Y-142391528D01*
X142973031Y-142360946D01*
X142973035Y-142360941D01*
X142973044Y-142360934D01*
X142995934Y-142338044D01*
X142995941Y-142338035D01*
X142995946Y-142338031D01*
X143030902Y-142298170D01*
X143030906Y-142298165D01*
X143030908Y-142298163D01*
X143106383Y-142199801D01*
X143135850Y-142155701D01*
X143152035Y-142127668D01*
X143175495Y-142080094D01*
X143222940Y-141965551D01*
X143239990Y-141915326D01*
X143248368Y-141884059D01*
X143258715Y-141832039D01*
X143275969Y-141700990D01*
X143278571Y-141674582D01*
X143279632Y-141658396D01*
X143280500Y-141631872D01*
X143280500Y-139065005D01*
X143829859Y-139065005D01*
X143850385Y-139312729D01*
X143850387Y-139312738D01*
X143911412Y-139553717D01*
X144011265Y-139781362D01*
X144011267Y-139781366D01*
X144055679Y-139849344D01*
X144835000Y-139070024D01*
X144835000Y-139136889D01*
X144875507Y-139274844D01*
X144953239Y-139395798D01*
X145061900Y-139489952D01*
X145192685Y-139549680D01*
X145299237Y-139565000D01*
X145329975Y-139565000D01*
X144549500Y-140345473D01*
X144730391Y-140443367D01*
X144730399Y-140443370D01*
X144965506Y-140524083D01*
X145210707Y-140565000D01*
X145459293Y-140565000D01*
X145704493Y-140524083D01*
X145939600Y-140443370D01*
X145939608Y-140443367D01*
X146120498Y-140345473D01*
X145340025Y-139565000D01*
X145370763Y-139565000D01*
X145477315Y-139549680D01*
X145608100Y-139489952D01*
X145716761Y-139395798D01*
X145794493Y-139274844D01*
X145835000Y-139136889D01*
X145835000Y-139070026D01*
X146614319Y-139849345D01*
X146658731Y-139781369D01*
X146758587Y-139553717D01*
X146819612Y-139312738D01*
X146819614Y-139312729D01*
X146840141Y-139065005D01*
X146840141Y-139064994D01*
X146819614Y-138817270D01*
X146819612Y-138817261D01*
X146758587Y-138576282D01*
X146658732Y-138348632D01*
X146614319Y-138280653D01*
X145835000Y-139059973D01*
X145835000Y-138993111D01*
X145794493Y-138855156D01*
X145716761Y-138734202D01*
X145608100Y-138640048D01*
X145477315Y-138580320D01*
X145370763Y-138565000D01*
X145340026Y-138565000D01*
X146120498Y-137784525D01*
X145939609Y-137686632D01*
X145939603Y-137686630D01*
X145704493Y-137605916D01*
X145459293Y-137565000D01*
X145210707Y-137565000D01*
X144965506Y-137605916D01*
X144730396Y-137686630D01*
X144730385Y-137686635D01*
X144549500Y-137784524D01*
X144549500Y-137784525D01*
X145329975Y-138565000D01*
X145299237Y-138565000D01*
X145192685Y-138580320D01*
X145061900Y-138640048D01*
X144953239Y-138734202D01*
X144875507Y-138855156D01*
X144835000Y-138993111D01*
X144835000Y-139059975D01*
X144055679Y-138280654D01*
X144011267Y-138348634D01*
X143911411Y-138576282D01*
X143850387Y-138817261D01*
X143850385Y-138817270D01*
X143829859Y-139064994D01*
X143829859Y-139065005D01*
X143280500Y-139065005D01*
X143280500Y-137416655D01*
X143279632Y-137390131D01*
X143278571Y-137373945D01*
X143278569Y-137373920D01*
X143275971Y-137347552D01*
X143258715Y-137216490D01*
X143248368Y-137164467D01*
X143242069Y-137140960D01*
X143239990Y-137133201D01*
X143222940Y-137082976D01*
X143175495Y-136968433D01*
X143152035Y-136920859D01*
X143135850Y-136892826D01*
X143106382Y-136848725D01*
X143025915Y-136743858D01*
X143021254Y-136738178D01*
X143009081Y-136723344D01*
X143005067Y-136718767D01*
X142998383Y-136711146D01*
X142980247Y-136691783D01*
X141543465Y-135255001D01*
X158749645Y-135255001D01*
X158769039Y-135526160D01*
X158769040Y-135526167D01*
X158826823Y-135791793D01*
X158826825Y-135791801D01*
X158903330Y-135996920D01*
X158921830Y-136046519D01*
X159052109Y-136285107D01*
X159052110Y-136285108D01*
X159052113Y-136285113D01*
X159215029Y-136502742D01*
X159215033Y-136502746D01*
X159215038Y-136502752D01*
X159407247Y-136694961D01*
X159407253Y-136694966D01*
X159407258Y-136694971D01*
X159624887Y-136857887D01*
X159624891Y-136857889D01*
X159624892Y-136857890D01*
X159863481Y-136988169D01*
X159863480Y-136988169D01*
X159863484Y-136988170D01*
X159863487Y-136988172D01*
X160118199Y-137083175D01*
X160383840Y-137140961D01*
X160635605Y-137158967D01*
X160654999Y-137160355D01*
X160655000Y-137160355D01*
X160655001Y-137160355D01*
X160673100Y-137159060D01*
X160926160Y-137140961D01*
X161191801Y-137083175D01*
X161446513Y-136988172D01*
X161446517Y-136988169D01*
X161446519Y-136988169D01*
X161621127Y-136892826D01*
X161685113Y-136857887D01*
X161902742Y-136694971D01*
X162094971Y-136502742D01*
X162257887Y-136285113D01*
X162345324Y-136124984D01*
X162388169Y-136046519D01*
X162388169Y-136046517D01*
X162388172Y-136046513D01*
X162483175Y-135791801D01*
X162540961Y-135526160D01*
X162560355Y-135255000D01*
X162540961Y-134983840D01*
X162483175Y-134718199D01*
X162388172Y-134463487D01*
X162388170Y-134463484D01*
X162388169Y-134463480D01*
X162257890Y-134224892D01*
X162257889Y-134224891D01*
X162257887Y-134224887D01*
X162094971Y-134007258D01*
X162094966Y-134007253D01*
X162094961Y-134007247D01*
X161902752Y-133815038D01*
X161902746Y-133815033D01*
X161902742Y-133815029D01*
X161685113Y-133652113D01*
X161685108Y-133652110D01*
X161685107Y-133652109D01*
X161446518Y-133521830D01*
X161446519Y-133521830D01*
X161396920Y-133503330D01*
X161191801Y-133426825D01*
X161191794Y-133426823D01*
X161191793Y-133426823D01*
X160926167Y-133369040D01*
X160926160Y-133369039D01*
X160655001Y-133349645D01*
X160654999Y-133349645D01*
X160383839Y-133369039D01*
X160383832Y-133369040D01*
X160118206Y-133426823D01*
X160118202Y-133426824D01*
X160118199Y-133426825D01*
X159990843Y-133474326D01*
X159863480Y-133521830D01*
X159624892Y-133652109D01*
X159624891Y-133652110D01*
X159407259Y-133815028D01*
X159407247Y-133815038D01*
X159215038Y-134007247D01*
X159215028Y-134007259D01*
X159052110Y-134224891D01*
X159052109Y-134224892D01*
X158921830Y-134463480D01*
X158876506Y-134585000D01*
X158826825Y-134718199D01*
X158826824Y-134718202D01*
X158826823Y-134718206D01*
X158769040Y-134983832D01*
X158769039Y-134983839D01*
X158749645Y-135254998D01*
X158749645Y-135255001D01*
X141543465Y-135255001D01*
X133288464Y-127000000D01*
X152464357Y-127000000D01*
X152484884Y-127221535D01*
X152484885Y-127221537D01*
X152545769Y-127435523D01*
X152545775Y-127435538D01*
X152644938Y-127634683D01*
X152644943Y-127634691D01*
X152779020Y-127812238D01*
X152943437Y-127962123D01*
X152943439Y-127962125D01*
X153132595Y-128079245D01*
X153132596Y-128079245D01*
X153132599Y-128079247D01*
X153340060Y-128159618D01*
X153558757Y-128200500D01*
X153558759Y-128200500D01*
X153781241Y-128200500D01*
X153781243Y-128200500D01*
X153999940Y-128159618D01*
X154207401Y-128079247D01*
X154396562Y-127962124D01*
X154560981Y-127812236D01*
X154695058Y-127634689D01*
X154794229Y-127435528D01*
X154855115Y-127221536D01*
X154875643Y-127000000D01*
X154855115Y-126778464D01*
X154794229Y-126564472D01*
X154774522Y-126524895D01*
X154695061Y-126365316D01*
X154695056Y-126365308D01*
X154560979Y-126187761D01*
X154396562Y-126037876D01*
X154396560Y-126037874D01*
X154207404Y-125920754D01*
X154207398Y-125920752D01*
X153999940Y-125840382D01*
X153781243Y-125799500D01*
X153558757Y-125799500D01*
X153340060Y-125840382D01*
X153208864Y-125891207D01*
X153132601Y-125920752D01*
X153132595Y-125920754D01*
X152943439Y-126037874D01*
X152943437Y-126037876D01*
X152779020Y-126187761D01*
X152644943Y-126365308D01*
X152644938Y-126365316D01*
X152545775Y-126564461D01*
X152545769Y-126564476D01*
X152484885Y-126778462D01*
X152484884Y-126778464D01*
X152464357Y-126999999D01*
X152464357Y-127000000D01*
X133288464Y-127000000D01*
X132548216Y-126259752D01*
X132528853Y-126241616D01*
X132522755Y-126236268D01*
X132516654Y-126230917D01*
X132496130Y-126214075D01*
X132391290Y-126133629D01*
X132391283Y-126133624D01*
X132391274Y-126133617D01*
X132369525Y-126119084D01*
X132347183Y-126104155D01*
X132347167Y-126104145D01*
X132319155Y-126087972D01*
X132319134Y-126087961D01*
X132271555Y-126064498D01*
X132271549Y-126064496D01*
X132157037Y-126017064D01*
X132157015Y-126017056D01*
X132106796Y-126000008D01*
X132106776Y-126000002D01*
X132075554Y-125991637D01*
X132075549Y-125991635D01*
X132075531Y-125991631D01*
X132058827Y-125988308D01*
X132023510Y-125981283D01*
X131892472Y-125964031D01*
X131866055Y-125961429D01*
X131849871Y-125960368D01*
X131847975Y-125960306D01*
X131823345Y-125959500D01*
X129491127Y-125959500D01*
X129469575Y-125960205D01*
X129464599Y-125960368D01*
X129448418Y-125961428D01*
X129421995Y-125964032D01*
X129290967Y-125981282D01*
X129290957Y-125981284D01*
X129238934Y-125991632D01*
X129238923Y-125991635D01*
X129207674Y-126000009D01*
X129157456Y-126017056D01*
X129157445Y-126017060D01*
X129042895Y-126064508D01*
X128995344Y-126087958D01*
X128995301Y-126087980D01*
X128967302Y-126104146D01*
X128923202Y-126133613D01*
X128824827Y-126209097D01*
X128824822Y-126209101D01*
X128784961Y-126244057D01*
X128762057Y-126266961D01*
X128727101Y-126306822D01*
X128727097Y-126306827D01*
X128651613Y-126405202D01*
X128622146Y-126449302D01*
X128605980Y-126477301D01*
X128605958Y-126477344D01*
X128582508Y-126524895D01*
X128535060Y-126639445D01*
X128535059Y-126639447D01*
X128518007Y-126689679D01*
X128509627Y-126720957D01*
X128499282Y-126772969D01*
X128482031Y-126903999D01*
X128479429Y-126930416D01*
X128478368Y-126946600D01*
X128477500Y-126973139D01*
X128477500Y-131187992D01*
X104140976Y-131187992D01*
X104180349Y-131041050D01*
X104200563Y-130810000D01*
X104180349Y-130578950D01*
X104120320Y-130354921D01*
X104022301Y-130144719D01*
X104022299Y-130144716D01*
X104022298Y-130144714D01*
X103889273Y-129954735D01*
X103889268Y-129954729D01*
X103725269Y-129790730D01*
X103725263Y-129790726D01*
X103535282Y-129657699D01*
X103325079Y-129559680D01*
X103325076Y-129559679D01*
X103325074Y-129559678D01*
X103101051Y-129499651D01*
X103101044Y-129499650D01*
X102870002Y-129479437D01*
X102869998Y-129479437D01*
X102638955Y-129499650D01*
X102638948Y-129499651D01*
X102414917Y-129559681D01*
X102204718Y-129657699D01*
X102204714Y-129657701D01*
X102014735Y-129790726D01*
X102014729Y-129790731D01*
X101850731Y-129954729D01*
X101850726Y-129954735D01*
X101717701Y-130144714D01*
X101717699Y-130144718D01*
X101619681Y-130354917D01*
X101619680Y-130354921D01*
X101567875Y-130548260D01*
X101559275Y-130580354D01*
X101522909Y-130640014D01*
X101460062Y-130670543D01*
X101390687Y-130662248D01*
X101336809Y-130617762D01*
X101315535Y-130551210D01*
X101315500Y-130548260D01*
X101315500Y-126871739D01*
X101335185Y-126804700D01*
X101387989Y-126758945D01*
X101457147Y-126749001D01*
X101520703Y-126778026D01*
X101558477Y-126836804D01*
X101559275Y-126839645D01*
X101559650Y-126841044D01*
X101559651Y-126841050D01*
X101567874Y-126871739D01*
X101619678Y-127065074D01*
X101619679Y-127065076D01*
X101619680Y-127065079D01*
X101717699Y-127275282D01*
X101850730Y-127465269D01*
X102014731Y-127629270D01*
X102204718Y-127762301D01*
X102414921Y-127860320D01*
X102638950Y-127920349D01*
X102803985Y-127934787D01*
X102869998Y-127940563D01*
X102870000Y-127940563D01*
X102870002Y-127940563D01*
X102927762Y-127935509D01*
X103101050Y-127920349D01*
X103325079Y-127860320D01*
X103535282Y-127762301D01*
X103725269Y-127629270D01*
X103889270Y-127465269D01*
X104022301Y-127275282D01*
X104120320Y-127065079D01*
X104180349Y-126841050D01*
X104200563Y-126610000D01*
X104180349Y-126378950D01*
X104120320Y-126154921D01*
X104022301Y-125944719D01*
X104022299Y-125944716D01*
X104022298Y-125944714D01*
X103889273Y-125754735D01*
X103889268Y-125754729D01*
X103725269Y-125590730D01*
X103725263Y-125590726D01*
X103535282Y-125457699D01*
X103325079Y-125359680D01*
X103325076Y-125359679D01*
X103325074Y-125359678D01*
X103101051Y-125299651D01*
X103101044Y-125299650D01*
X102870002Y-125279437D01*
X102869998Y-125279437D01*
X102638955Y-125299650D01*
X102638948Y-125299651D01*
X102414917Y-125359681D01*
X102204718Y-125457699D01*
X102204714Y-125457701D01*
X102014735Y-125590726D01*
X102014729Y-125590731D01*
X101850731Y-125754729D01*
X101850726Y-125754735D01*
X101717701Y-125944714D01*
X101717699Y-125944718D01*
X101619681Y-126154917D01*
X101619680Y-126154921D01*
X101563307Y-126365308D01*
X101559275Y-126380354D01*
X101522909Y-126440014D01*
X101460062Y-126470543D01*
X101390687Y-126462248D01*
X101336809Y-126417762D01*
X101315535Y-126351210D01*
X101315500Y-126348260D01*
X101315500Y-122671739D01*
X101335185Y-122604700D01*
X101387989Y-122558945D01*
X101457147Y-122549001D01*
X101520703Y-122578026D01*
X101558477Y-122636804D01*
X101559275Y-122639645D01*
X101619678Y-122865074D01*
X101619679Y-122865076D01*
X101619680Y-122865079D01*
X101717699Y-123075282D01*
X101850730Y-123265269D01*
X102014731Y-123429270D01*
X102204718Y-123562301D01*
X102414921Y-123660320D01*
X102638950Y-123720349D01*
X102803985Y-123734787D01*
X102869998Y-123740563D01*
X102870000Y-123740563D01*
X102870002Y-123740563D01*
X102927762Y-123735509D01*
X103101050Y-123720349D01*
X103325079Y-123660320D01*
X103535282Y-123562301D01*
X103725269Y-123429270D01*
X103889270Y-123265269D01*
X103980036Y-123135642D01*
X153029331Y-123135642D01*
X153223673Y-123226265D01*
X153223682Y-123226269D01*
X153443389Y-123285139D01*
X153443400Y-123285141D01*
X153669998Y-123304966D01*
X153670002Y-123304966D01*
X153896599Y-123285141D01*
X153896610Y-123285139D01*
X154116317Y-123226269D01*
X154116326Y-123226265D01*
X154310668Y-123135642D01*
X153890027Y-122715001D01*
X158749645Y-122715001D01*
X158769039Y-122986160D01*
X158769040Y-122986167D01*
X158788426Y-123075282D01*
X158826825Y-123251801D01*
X158893018Y-123429270D01*
X158921830Y-123506519D01*
X159052109Y-123745107D01*
X159052110Y-123745108D01*
X159052113Y-123745113D01*
X159215029Y-123962742D01*
X159215033Y-123962746D01*
X159215038Y-123962752D01*
X159407247Y-124154961D01*
X159407253Y-124154966D01*
X159407258Y-124154971D01*
X159624887Y-124317887D01*
X159624891Y-124317889D01*
X159624892Y-124317890D01*
X159863481Y-124448169D01*
X159863480Y-124448169D01*
X159863484Y-124448170D01*
X159863487Y-124448172D01*
X160118199Y-124543175D01*
X160383840Y-124600961D01*
X160635605Y-124618967D01*
X160654999Y-124620355D01*
X160655000Y-124620355D01*
X160655001Y-124620355D01*
X160673100Y-124619060D01*
X160926160Y-124600961D01*
X161191801Y-124543175D01*
X161446513Y-124448172D01*
X161446517Y-124448169D01*
X161446519Y-124448169D01*
X161565813Y-124383029D01*
X161685113Y-124317887D01*
X161902742Y-124154971D01*
X162094971Y-123962742D01*
X162257887Y-123745113D01*
X162388172Y-123506513D01*
X162483175Y-123251801D01*
X162540961Y-122986160D01*
X162560355Y-122715000D01*
X162540961Y-122443840D01*
X162483175Y-122178199D01*
X162388172Y-121923487D01*
X162388170Y-121923484D01*
X162388169Y-121923480D01*
X162257890Y-121684892D01*
X162257889Y-121684891D01*
X162257887Y-121684887D01*
X162094971Y-121467258D01*
X162094966Y-121467253D01*
X162094961Y-121467247D01*
X161902752Y-121275038D01*
X161902746Y-121275033D01*
X161902742Y-121275029D01*
X161685113Y-121112113D01*
X161685108Y-121112110D01*
X161685107Y-121112109D01*
X161446518Y-120981830D01*
X161446519Y-120981830D01*
X161396920Y-120963330D01*
X161191801Y-120886825D01*
X161191794Y-120886823D01*
X161191793Y-120886823D01*
X160926167Y-120829040D01*
X160926160Y-120829039D01*
X160655001Y-120809645D01*
X160654999Y-120809645D01*
X160383839Y-120829039D01*
X160383832Y-120829040D01*
X160118206Y-120886823D01*
X160118202Y-120886824D01*
X160118199Y-120886825D01*
X159990843Y-120934326D01*
X159863480Y-120981830D01*
X159624892Y-121112109D01*
X159624891Y-121112110D01*
X159407259Y-121275028D01*
X159407247Y-121275038D01*
X159215038Y-121467247D01*
X159215028Y-121467259D01*
X159052110Y-121684891D01*
X159052109Y-121684892D01*
X158921830Y-121923480D01*
X158893291Y-121999997D01*
X158826825Y-122178199D01*
X158826824Y-122178202D01*
X158826823Y-122178206D01*
X158769040Y-122443832D01*
X158769039Y-122443839D01*
X158749645Y-122714998D01*
X158749645Y-122715001D01*
X153890027Y-122715001D01*
X153670001Y-122494975D01*
X153670000Y-122494975D01*
X153029331Y-123135642D01*
X103980036Y-123135642D01*
X104022301Y-123075282D01*
X104030783Y-123057093D01*
X104076956Y-123004655D01*
X104143164Y-122985500D01*
X107646160Y-122985500D01*
X107662345Y-122986561D01*
X107691999Y-122990465D01*
X107692000Y-122990465D01*
X107729714Y-122985500D01*
X107729720Y-122985500D01*
X107842236Y-122970687D01*
X107982233Y-122912698D01*
X108080358Y-122837405D01*
X108080370Y-122837394D01*
X108102448Y-122820453D01*
X108102447Y-122820453D01*
X108102451Y-122820451D01*
X108120670Y-122796706D01*
X108131351Y-122784527D01*
X108915876Y-122000002D01*
X152365034Y-122000002D01*
X152384858Y-122226599D01*
X152384860Y-122226610D01*
X152443730Y-122446317D01*
X152443735Y-122446331D01*
X152534355Y-122640668D01*
X152534356Y-122640668D01*
X153175025Y-122000000D01*
X153265014Y-122000000D01*
X153284835Y-122125148D01*
X153342359Y-122238045D01*
X153431955Y-122327641D01*
X153544852Y-122385165D01*
X153638519Y-122400000D01*
X153701481Y-122400000D01*
X153795148Y-122385165D01*
X153908045Y-122327641D01*
X153997641Y-122238045D01*
X154055165Y-122125148D01*
X154074986Y-122000000D01*
X154164975Y-122000000D01*
X154805642Y-122640667D01*
X154896265Y-122446326D01*
X154896269Y-122446317D01*
X154955139Y-122226610D01*
X154955141Y-122226599D01*
X154974966Y-122000002D01*
X154974966Y-121999997D01*
X154955141Y-121773400D01*
X154955139Y-121773389D01*
X154896269Y-121553682D01*
X154896265Y-121553673D01*
X154805642Y-121359331D01*
X154164975Y-121999999D01*
X154164975Y-122000000D01*
X154074986Y-122000000D01*
X154055165Y-121874852D01*
X153997641Y-121761955D01*
X153908045Y-121672359D01*
X153795148Y-121614835D01*
X153701481Y-121600000D01*
X153638519Y-121600000D01*
X153544852Y-121614835D01*
X153431955Y-121672359D01*
X153342359Y-121761955D01*
X153284835Y-121874852D01*
X153265014Y-122000000D01*
X153175025Y-122000000D01*
X152534355Y-121359330D01*
X152443735Y-121553668D01*
X152443730Y-121553682D01*
X152384860Y-121773389D01*
X152384858Y-121773400D01*
X152365034Y-121999997D01*
X152365034Y-122000002D01*
X108915876Y-122000002D01*
X110051523Y-120864355D01*
X153029330Y-120864355D01*
X153670000Y-121505025D01*
X153670001Y-121505025D01*
X154310668Y-120864356D01*
X154310668Y-120864355D01*
X154116331Y-120773735D01*
X154116317Y-120773730D01*
X153896610Y-120714860D01*
X153896599Y-120714858D01*
X153670002Y-120695034D01*
X153669998Y-120695034D01*
X153443400Y-120714858D01*
X153443389Y-120714860D01*
X153223682Y-120773730D01*
X153223668Y-120773735D01*
X153029330Y-120864355D01*
X110051523Y-120864355D01*
X111750236Y-119165642D01*
X153029331Y-119165642D01*
X153223673Y-119256265D01*
X153223682Y-119256269D01*
X153443389Y-119315139D01*
X153443400Y-119315141D01*
X153669998Y-119334966D01*
X153670002Y-119334966D01*
X153896599Y-119315141D01*
X153896610Y-119315139D01*
X154116317Y-119256269D01*
X154116326Y-119256265D01*
X154310668Y-119165642D01*
X153670001Y-118524975D01*
X153670000Y-118524975D01*
X153029331Y-119165642D01*
X111750236Y-119165642D01*
X112885876Y-118030002D01*
X152365034Y-118030002D01*
X152384858Y-118256599D01*
X152384860Y-118256610D01*
X152443730Y-118476317D01*
X152443735Y-118476331D01*
X152534355Y-118670668D01*
X152534356Y-118670668D01*
X153175025Y-118030000D01*
X153265014Y-118030000D01*
X153284835Y-118155148D01*
X153342359Y-118268045D01*
X153431955Y-118357641D01*
X153544852Y-118415165D01*
X153638519Y-118430000D01*
X153701481Y-118430000D01*
X153795148Y-118415165D01*
X153908045Y-118357641D01*
X153997641Y-118268045D01*
X154055165Y-118155148D01*
X154074986Y-118030000D01*
X154164975Y-118030000D01*
X154805642Y-118670667D01*
X154840140Y-118596685D01*
X158754500Y-118596685D01*
X158760663Y-118664513D01*
X158760663Y-118664515D01*
X158760664Y-118664517D01*
X158762580Y-118670667D01*
X158809303Y-118820605D01*
X158893876Y-118960508D01*
X158893880Y-118960513D01*
X159009486Y-119076119D01*
X159009491Y-119076123D01*
X159126982Y-119147147D01*
X159149397Y-119160698D01*
X159305483Y-119209336D01*
X159373312Y-119215500D01*
X159373315Y-119215500D01*
X161936685Y-119215500D01*
X161936688Y-119215500D01*
X162004517Y-119209336D01*
X162160603Y-119160698D01*
X162255684Y-119103219D01*
X162300508Y-119076123D01*
X162300509Y-119076121D01*
X162300514Y-119076119D01*
X162416119Y-118960514D01*
X162500698Y-118820603D01*
X162549336Y-118664517D01*
X162555500Y-118596688D01*
X162555500Y-116033312D01*
X162549336Y-115965483D01*
X162500698Y-115809397D01*
X162487147Y-115786982D01*
X162416123Y-115669491D01*
X162416119Y-115669486D01*
X162300513Y-115553880D01*
X162300508Y-115553876D01*
X162160605Y-115469303D01*
X162160604Y-115469302D01*
X162160603Y-115469302D01*
X162004517Y-115420664D01*
X162004515Y-115420663D01*
X162004513Y-115420663D01*
X161957025Y-115416348D01*
X161936688Y-115414500D01*
X159373312Y-115414500D01*
X159354823Y-115416180D01*
X159305486Y-115420663D01*
X159149394Y-115469303D01*
X159009491Y-115553876D01*
X159009486Y-115553880D01*
X158893880Y-115669486D01*
X158893876Y-115669491D01*
X158809303Y-115809394D01*
X158760663Y-115965486D01*
X158754500Y-116033314D01*
X158754500Y-118596685D01*
X154840140Y-118596685D01*
X154896265Y-118476326D01*
X154896269Y-118476317D01*
X154955139Y-118256610D01*
X154955141Y-118256599D01*
X154974966Y-118030002D01*
X154974966Y-118029997D01*
X154955141Y-117803400D01*
X154955139Y-117803389D01*
X154896269Y-117583682D01*
X154896265Y-117583673D01*
X154805642Y-117389331D01*
X154164975Y-118029999D01*
X154164975Y-118030000D01*
X154074986Y-118030000D01*
X154055165Y-117904852D01*
X153997641Y-117791955D01*
X153908045Y-117702359D01*
X153795148Y-117644835D01*
X153701481Y-117630000D01*
X153638519Y-117630000D01*
X153544852Y-117644835D01*
X153431955Y-117702359D01*
X153342359Y-117791955D01*
X153284835Y-117904852D01*
X153265014Y-118030000D01*
X153175025Y-118030000D01*
X152534355Y-117389330D01*
X152443735Y-117583668D01*
X152443730Y-117583682D01*
X152384860Y-117803389D01*
X152384858Y-117803400D01*
X152365034Y-118029997D01*
X152365034Y-118030002D01*
X112885876Y-118030002D01*
X114021523Y-116894355D01*
X153029330Y-116894355D01*
X153670000Y-117535025D01*
X153670001Y-117535025D01*
X154310668Y-116894356D01*
X154310668Y-116894355D01*
X154116331Y-116803735D01*
X154116317Y-116803730D01*
X153896610Y-116744860D01*
X153896599Y-116744858D01*
X153670002Y-116725034D01*
X153669998Y-116725034D01*
X153443400Y-116744858D01*
X153443389Y-116744860D01*
X153223682Y-116803730D01*
X153223668Y-116803735D01*
X153029330Y-116894355D01*
X114021523Y-116894355D01*
X116557527Y-114358351D01*
X116569706Y-114347670D01*
X116593451Y-114329451D01*
X116610394Y-114307370D01*
X116610405Y-114307358D01*
X116685698Y-114209233D01*
X116693823Y-114189617D01*
X116743687Y-114069236D01*
X116748854Y-114029990D01*
X116758500Y-113956720D01*
X116758500Y-113956714D01*
X116763465Y-113919000D01*
X116759560Y-113889344D01*
X116758500Y-113873160D01*
X116758500Y-113056859D01*
X128477500Y-113056859D01*
X128478368Y-113083398D01*
X128479429Y-113099582D01*
X128482031Y-113125999D01*
X128499283Y-113257034D01*
X128499284Y-113257040D01*
X128509632Y-113309061D01*
X128518003Y-113340305D01*
X128518011Y-113340328D01*
X128535052Y-113390535D01*
X128535056Y-113390546D01*
X128582495Y-113505075D01*
X128582497Y-113505081D01*
X128605969Y-113552678D01*
X128618871Y-113575024D01*
X128622149Y-113580701D01*
X128651617Y-113624802D01*
X128651621Y-113624807D01*
X128651629Y-113624818D01*
X128727088Y-113723159D01*
X128762066Y-113763045D01*
X128784967Y-113785946D01*
X128824828Y-113820902D01*
X128824833Y-113820906D01*
X128824836Y-113820908D01*
X128923198Y-113896383D01*
X128967298Y-113925850D01*
X128995331Y-113942035D01*
X129042905Y-113965495D01*
X129157448Y-114012940D01*
X129207673Y-114029990D01*
X129229373Y-114035804D01*
X129238939Y-114038368D01*
X129256280Y-114041817D01*
X129290960Y-114048715D01*
X129410622Y-114064469D01*
X129422024Y-114065971D01*
X129448392Y-114068569D01*
X129448406Y-114068569D01*
X129448417Y-114068571D01*
X129464603Y-114069632D01*
X129491127Y-114070500D01*
X129491140Y-114070500D01*
X131188332Y-114070500D01*
X131188345Y-114070500D01*
X131214869Y-114069632D01*
X131231055Y-114068571D01*
X131231067Y-114068569D01*
X131231079Y-114068569D01*
X131257447Y-114065971D01*
X131257459Y-114065969D01*
X131257463Y-114065969D01*
X131388511Y-114048715D01*
X131440531Y-114038368D01*
X131471798Y-114029990D01*
X131522023Y-114012940D01*
X131636566Y-113965495D01*
X131684140Y-113942035D01*
X131712173Y-113925850D01*
X131756274Y-113896382D01*
X131861141Y-113815915D01*
X131881658Y-113799078D01*
X131893853Y-113788383D01*
X131913216Y-113770247D01*
X132653463Y-113030000D01*
X152464357Y-113030000D01*
X152484884Y-113251535D01*
X152484885Y-113251537D01*
X152545769Y-113465523D01*
X152545775Y-113465538D01*
X152644938Y-113664683D01*
X152644943Y-113664691D01*
X152779020Y-113842238D01*
X152943437Y-113992123D01*
X152943439Y-113992125D01*
X153132595Y-114109245D01*
X153132596Y-114109245D01*
X153132599Y-114109247D01*
X153340060Y-114189618D01*
X153558757Y-114230500D01*
X153558759Y-114230500D01*
X153781241Y-114230500D01*
X153781243Y-114230500D01*
X153999940Y-114189618D01*
X154207401Y-114109247D01*
X154396562Y-113992124D01*
X154560981Y-113842236D01*
X154695058Y-113664689D01*
X154794229Y-113465528D01*
X154855115Y-113251536D01*
X154875643Y-113030000D01*
X154855115Y-112808464D01*
X154794229Y-112594472D01*
X154794224Y-112594461D01*
X154695061Y-112395316D01*
X154695056Y-112395308D01*
X154560979Y-112217761D01*
X154396562Y-112067876D01*
X154396560Y-112067874D01*
X154207404Y-111950754D01*
X154207398Y-111950752D01*
X153999940Y-111870382D01*
X153781243Y-111829500D01*
X153558757Y-111829500D01*
X153340060Y-111870382D01*
X153253223Y-111904023D01*
X153132601Y-111950752D01*
X153132595Y-111950754D01*
X152943439Y-112067874D01*
X152943437Y-112067876D01*
X152779020Y-112217761D01*
X152644943Y-112395308D01*
X152644938Y-112395316D01*
X152545775Y-112594461D01*
X152545769Y-112594476D01*
X152484885Y-112808462D01*
X152484884Y-112808464D01*
X152464357Y-113029999D01*
X152464357Y-113030000D01*
X132653463Y-113030000D01*
X141068462Y-104615001D01*
X158749645Y-104615001D01*
X158769039Y-104886160D01*
X158769040Y-104886167D01*
X158800112Y-105029002D01*
X158826825Y-105151801D01*
X158893405Y-105330308D01*
X158921830Y-105406519D01*
X159052109Y-105645107D01*
X159052110Y-105645108D01*
X159052113Y-105645113D01*
X159215029Y-105862742D01*
X159215033Y-105862746D01*
X159215038Y-105862752D01*
X159407247Y-106054961D01*
X159407253Y-106054966D01*
X159407258Y-106054971D01*
X159624887Y-106217887D01*
X159624891Y-106217889D01*
X159624892Y-106217890D01*
X159863481Y-106348169D01*
X159863480Y-106348169D01*
X159863484Y-106348170D01*
X159863487Y-106348172D01*
X160118199Y-106443175D01*
X160383840Y-106500961D01*
X160635605Y-106518967D01*
X160654999Y-106520355D01*
X160655000Y-106520355D01*
X160655001Y-106520355D01*
X160673100Y-106519060D01*
X160926160Y-106500961D01*
X161191801Y-106443175D01*
X161446513Y-106348172D01*
X161446517Y-106348169D01*
X161446519Y-106348169D01*
X161565813Y-106283029D01*
X161685113Y-106217887D01*
X161902742Y-106054971D01*
X162094971Y-105862742D01*
X162257887Y-105645113D01*
X162388172Y-105406513D01*
X162483175Y-105151801D01*
X162540961Y-104886160D01*
X162560355Y-104615000D01*
X162560126Y-104611804D01*
X162554558Y-104533945D01*
X162540961Y-104343840D01*
X162483175Y-104078199D01*
X162388172Y-103823487D01*
X162388170Y-103823484D01*
X162388169Y-103823480D01*
X162257890Y-103584892D01*
X162257889Y-103584891D01*
X162257887Y-103584887D01*
X162094971Y-103367258D01*
X162094966Y-103367253D01*
X162094961Y-103367247D01*
X161902752Y-103175038D01*
X161902746Y-103175033D01*
X161902742Y-103175029D01*
X161685113Y-103012113D01*
X161685108Y-103012110D01*
X161685107Y-103012109D01*
X161446518Y-102881830D01*
X161446519Y-102881830D01*
X161396920Y-102863330D01*
X161191801Y-102786825D01*
X161191794Y-102786823D01*
X161191793Y-102786823D01*
X160926167Y-102729040D01*
X160926160Y-102729039D01*
X160655001Y-102709645D01*
X160654999Y-102709645D01*
X160383839Y-102729039D01*
X160383832Y-102729040D01*
X160118206Y-102786823D01*
X160118202Y-102786824D01*
X160118199Y-102786825D01*
X159990843Y-102834326D01*
X159863480Y-102881830D01*
X159624892Y-103012109D01*
X159624891Y-103012110D01*
X159407259Y-103175028D01*
X159407247Y-103175038D01*
X159215038Y-103367247D01*
X159215028Y-103367259D01*
X159052110Y-103584891D01*
X159052109Y-103584892D01*
X158921830Y-103823480D01*
X158882130Y-103929921D01*
X158826825Y-104078199D01*
X158826824Y-104078202D01*
X158826823Y-104078206D01*
X158769040Y-104343832D01*
X158769039Y-104343839D01*
X158749645Y-104614998D01*
X158749645Y-104615001D01*
X141068462Y-104615001D01*
X142980247Y-102703216D01*
X142998383Y-102683853D01*
X143009078Y-102671658D01*
X143025915Y-102651141D01*
X143106382Y-102546274D01*
X143135850Y-102502173D01*
X143152035Y-102474140D01*
X143175495Y-102426566D01*
X143222940Y-102312023D01*
X143239990Y-102261798D01*
X143248368Y-102230531D01*
X143258715Y-102178511D01*
X143275969Y-102047462D01*
X143278571Y-102021054D01*
X143279632Y-102004868D01*
X143280500Y-101978344D01*
X143280500Y-100965005D01*
X143829859Y-100965005D01*
X143850385Y-101212729D01*
X143850387Y-101212738D01*
X143911412Y-101453717D01*
X144011265Y-101681362D01*
X144011267Y-101681366D01*
X144055679Y-101749344D01*
X144835000Y-100970024D01*
X144835000Y-101036889D01*
X144875507Y-101174844D01*
X144953239Y-101295798D01*
X145061900Y-101389952D01*
X145192685Y-101449680D01*
X145299237Y-101465000D01*
X145329975Y-101465000D01*
X144549500Y-102245473D01*
X144730391Y-102343367D01*
X144730399Y-102343370D01*
X144965506Y-102424083D01*
X145210707Y-102465000D01*
X145459293Y-102465000D01*
X145704493Y-102424083D01*
X145939600Y-102343370D01*
X145939608Y-102343367D01*
X146120498Y-102245473D01*
X145340025Y-101465000D01*
X145370763Y-101465000D01*
X145477315Y-101449680D01*
X145608100Y-101389952D01*
X145716761Y-101295798D01*
X145794493Y-101174844D01*
X145835000Y-101036889D01*
X145835000Y-100970026D01*
X146614319Y-101749345D01*
X146658731Y-101681369D01*
X146758587Y-101453717D01*
X146819612Y-101212738D01*
X146819614Y-101212729D01*
X146840141Y-100965005D01*
X146840141Y-100964994D01*
X146819614Y-100717270D01*
X146819612Y-100717261D01*
X146758587Y-100476282D01*
X146658732Y-100248632D01*
X146614319Y-100180653D01*
X145835000Y-100959973D01*
X145835000Y-100893111D01*
X145794493Y-100755156D01*
X145716761Y-100634202D01*
X145608100Y-100540048D01*
X145477315Y-100480320D01*
X145370763Y-100465000D01*
X145340026Y-100465000D01*
X146120498Y-99684525D01*
X145939609Y-99586632D01*
X145939603Y-99586630D01*
X145704493Y-99505916D01*
X145459293Y-99465000D01*
X145210707Y-99465000D01*
X144965506Y-99505916D01*
X144730396Y-99586630D01*
X144730385Y-99586635D01*
X144549500Y-99684524D01*
X144549500Y-99684525D01*
X145329975Y-100465000D01*
X145299237Y-100465000D01*
X145192685Y-100480320D01*
X145061900Y-100540048D01*
X144953239Y-100634202D01*
X144875507Y-100755156D01*
X144835000Y-100893111D01*
X144835000Y-100959975D01*
X144055679Y-100180654D01*
X144011267Y-100248634D01*
X143911411Y-100476282D01*
X143850387Y-100717261D01*
X143850385Y-100717270D01*
X143829859Y-100964994D01*
X143829859Y-100965005D01*
X143280500Y-100965005D01*
X143280500Y-98398127D01*
X143279632Y-98371603D01*
X143278571Y-98355417D01*
X143278569Y-98355392D01*
X143275971Y-98329024D01*
X143258715Y-98197962D01*
X143248368Y-98145939D01*
X143245804Y-98136373D01*
X143239990Y-98114673D01*
X143222940Y-98064448D01*
X143175495Y-97949905D01*
X143152035Y-97902331D01*
X143135850Y-97874298D01*
X143106383Y-97830198D01*
X143030908Y-97731836D01*
X143030906Y-97731833D01*
X143030902Y-97731828D01*
X142995946Y-97691967D01*
X142973045Y-97669066D01*
X142933159Y-97634088D01*
X142834818Y-97558629D01*
X142834811Y-97558624D01*
X142834802Y-97558617D01*
X142813053Y-97544084D01*
X142790711Y-97529155D01*
X142790695Y-97529145D01*
X142762683Y-97512972D01*
X142762662Y-97512961D01*
X142715083Y-97489498D01*
X142715077Y-97489496D01*
X142600565Y-97442064D01*
X142600543Y-97442056D01*
X142550324Y-97425008D01*
X142550304Y-97425002D01*
X142519082Y-97416637D01*
X142519077Y-97416635D01*
X142519059Y-97416631D01*
X142502355Y-97413308D01*
X142467038Y-97406283D01*
X142336000Y-97389031D01*
X142309583Y-97386429D01*
X142293399Y-97385368D01*
X142291503Y-97385306D01*
X142266873Y-97384500D01*
X139956288Y-97384500D01*
X139954868Y-97384546D01*
X139929843Y-97385363D01*
X139913664Y-97386421D01*
X139905325Y-97387241D01*
X139887260Y-97389018D01*
X139887253Y-97389018D01*
X139887252Y-97389019D01*
X139756382Y-97406226D01*
X139704422Y-97416547D01*
X139682773Y-97422340D01*
X139673200Y-97424902D01*
X139673195Y-97424903D01*
X139673190Y-97424905D01*
X139673168Y-97424911D01*
X139623055Y-97441897D01*
X139623054Y-97441897D01*
X139508588Y-97489241D01*
X139461077Y-97512636D01*
X139461060Y-97512645D01*
X139433083Y-97528773D01*
X139433044Y-97528797D01*
X139389010Y-97558173D01*
X139389002Y-97558178D01*
X139284204Y-97638450D01*
X139263708Y-97655239D01*
X139251512Y-97665915D01*
X139232151Y-97684013D01*
X137098260Y-99813565D01*
X136701518Y-100209500D01*
X135930866Y-100978585D01*
X135187439Y-101720500D01*
X135182109Y-101725818D01*
X135182109Y-101725819D01*
X128778483Y-108116419D01*
X128760300Y-108135796D01*
X128749602Y-108147971D01*
X128732720Y-108168505D01*
X128652070Y-108273424D01*
X128652054Y-108273446D01*
X128622503Y-108317598D01*
X128606299Y-108345622D01*
X128606290Y-108345639D01*
X128582773Y-108393253D01*
X128582768Y-108393265D01*
X128535204Y-108507931D01*
X128535203Y-108507935D01*
X128518107Y-108558228D01*
X128509709Y-108589533D01*
X128499340Y-108641600D01*
X128499334Y-108641639D01*
X128482042Y-108772806D01*
X128479435Y-108799237D01*
X128478369Y-108815475D01*
X128477500Y-108842006D01*
X128477500Y-113056859D01*
X116758500Y-113056859D01*
X116758500Y-113002940D01*
X116778185Y-112935901D01*
X116794819Y-112915259D01*
X116812816Y-112897262D01*
X116908789Y-112744522D01*
X116968368Y-112574255D01*
X116976086Y-112505754D01*
X116988565Y-112395003D01*
X116988565Y-112394996D01*
X116968369Y-112215750D01*
X116968366Y-112215737D01*
X116908790Y-112045481D01*
X116908789Y-112045478D01*
X116902813Y-112035967D01*
X116883815Y-111968730D01*
X116902817Y-111904023D01*
X116908789Y-111894519D01*
X116968368Y-111724252D01*
X116988565Y-111544997D01*
X116983515Y-111500181D01*
X116968369Y-111365747D01*
X116968368Y-111365742D01*
X116908788Y-111195473D01*
X116812815Y-111042734D01*
X116685262Y-110915181D01*
X116532523Y-110819208D01*
X116362254Y-110759628D01*
X116362249Y-110759627D01*
X116183004Y-110739432D01*
X116182996Y-110739432D01*
X116003750Y-110759627D01*
X116003745Y-110759628D01*
X115833476Y-110819208D01*
X115680737Y-110915181D01*
X115553184Y-111042734D01*
X115457211Y-111195473D01*
X115397631Y-111365742D01*
X115397630Y-111365747D01*
X115377435Y-111544993D01*
X115377435Y-111545000D01*
X115397630Y-111724246D01*
X115397633Y-111724259D01*
X115457209Y-111894515D01*
X115457210Y-111894517D01*
X115457211Y-111894519D01*
X115463183Y-111904023D01*
X115463185Y-111904026D01*
X115482185Y-111971263D01*
X115463187Y-112035967D01*
X115457209Y-112045481D01*
X115397633Y-112215737D01*
X115397630Y-112215750D01*
X115377435Y-112394996D01*
X115377435Y-112395003D01*
X115397630Y-112574249D01*
X115397631Y-112574254D01*
X115457211Y-112744523D01*
X115553184Y-112897262D01*
X115571181Y-112915259D01*
X115604666Y-112976582D01*
X115607500Y-113002940D01*
X115607500Y-113629258D01*
X115587815Y-113696297D01*
X115571181Y-113716939D01*
X107489939Y-121798181D01*
X107428616Y-121831666D01*
X107402258Y-121834500D01*
X104143164Y-121834500D01*
X104076125Y-121814815D01*
X104030783Y-121762907D01*
X104022302Y-121744721D01*
X104022300Y-121744717D01*
X103889273Y-121554735D01*
X103889268Y-121554729D01*
X103725269Y-121390730D01*
X103680425Y-121359330D01*
X103535282Y-121257699D01*
X103325079Y-121159680D01*
X103325076Y-121159679D01*
X103325074Y-121159678D01*
X103101051Y-121099651D01*
X103101044Y-121099650D01*
X102870002Y-121079437D01*
X102869998Y-121079437D01*
X102638955Y-121099650D01*
X102638948Y-121099651D01*
X102414917Y-121159681D01*
X102204718Y-121257699D01*
X102204714Y-121257701D01*
X102014735Y-121390726D01*
X102014729Y-121390731D01*
X101850731Y-121554729D01*
X101850726Y-121554735D01*
X101717701Y-121744714D01*
X101717699Y-121744718D01*
X101619681Y-121954917D01*
X101619680Y-121954921D01*
X101559851Y-122178206D01*
X101559275Y-122180354D01*
X101522909Y-122240014D01*
X101460062Y-122270543D01*
X101390687Y-122262248D01*
X101336809Y-122217762D01*
X101315535Y-122151210D01*
X101315500Y-122148260D01*
X101315500Y-113585000D01*
X109897357Y-113585000D01*
X109917884Y-113806535D01*
X109917885Y-113806537D01*
X109978769Y-114020523D01*
X109978775Y-114020538D01*
X110077938Y-114219683D01*
X110077943Y-114219691D01*
X110212020Y-114397238D01*
X110376437Y-114547123D01*
X110376439Y-114547125D01*
X110565595Y-114664245D01*
X110565596Y-114664245D01*
X110565599Y-114664247D01*
X110773060Y-114744618D01*
X110991757Y-114785500D01*
X110991759Y-114785500D01*
X111214241Y-114785500D01*
X111214243Y-114785500D01*
X111432940Y-114744618D01*
X111640401Y-114664247D01*
X111829562Y-114547124D01*
X111993981Y-114397236D01*
X112128058Y-114219689D01*
X112227229Y-114020528D01*
X112288115Y-113806536D01*
X112308643Y-113585000D01*
X112297572Y-113465528D01*
X112288115Y-113363464D01*
X112288114Y-113363462D01*
X112281529Y-113340319D01*
X112227229Y-113149472D01*
X112215541Y-113125999D01*
X112128061Y-112950316D01*
X112128056Y-112950308D01*
X111993979Y-112772761D01*
X111829562Y-112622876D01*
X111829560Y-112622874D01*
X111640404Y-112505754D01*
X111640398Y-112505752D01*
X111432940Y-112425382D01*
X111214243Y-112384500D01*
X110991757Y-112384500D01*
X110773060Y-112425382D01*
X110641864Y-112476207D01*
X110565601Y-112505752D01*
X110565595Y-112505754D01*
X110376439Y-112622874D01*
X110376437Y-112622876D01*
X110212020Y-112772761D01*
X110077943Y-112950308D01*
X110077938Y-112950316D01*
X109978775Y-113149461D01*
X109978769Y-113149476D01*
X109917885Y-113363462D01*
X109917884Y-113363464D01*
X109897357Y-113584999D01*
X109897357Y-113585000D01*
X101315500Y-113585000D01*
X101315500Y-109435626D01*
X101335185Y-109368587D01*
X101387989Y-109322832D01*
X101457147Y-109312888D01*
X101520703Y-109341913D01*
X101558477Y-109400691D01*
X101558576Y-109401031D01*
X101593254Y-109520393D01*
X101593255Y-109520396D01*
X101676917Y-109661862D01*
X101676923Y-109661870D01*
X101793129Y-109778076D01*
X101793133Y-109778079D01*
X101793135Y-109778081D01*
X101934602Y-109861744D01*
X101971989Y-109872606D01*
X102092426Y-109907597D01*
X102092429Y-109907597D01*
X102092431Y-109907598D01*
X102129306Y-109910500D01*
X102129314Y-109910500D01*
X103610686Y-109910500D01*
X103610694Y-109910500D01*
X103647569Y-109907598D01*
X103647571Y-109907597D01*
X103647573Y-109907597D01*
X103689191Y-109895505D01*
X103805398Y-109861744D01*
X103946865Y-109778081D01*
X104063081Y-109661865D01*
X104146744Y-109520398D01*
X104192598Y-109362569D01*
X104195500Y-109325694D01*
X104195500Y-108585000D01*
X109897357Y-108585000D01*
X109917884Y-108806535D01*
X109917885Y-108806537D01*
X109978769Y-109020523D01*
X109978775Y-109020538D01*
X110077938Y-109219683D01*
X110077943Y-109219691D01*
X110212020Y-109397238D01*
X110376437Y-109547123D01*
X110376439Y-109547125D01*
X110565595Y-109664245D01*
X110565596Y-109664245D01*
X110565599Y-109664247D01*
X110773060Y-109744618D01*
X110991757Y-109785500D01*
X110991759Y-109785500D01*
X111214241Y-109785500D01*
X111214243Y-109785500D01*
X111432940Y-109744618D01*
X111640401Y-109664247D01*
X111829562Y-109547124D01*
X111993981Y-109397236D01*
X112128058Y-109219689D01*
X112227229Y-109020528D01*
X112288115Y-108806536D01*
X112308643Y-108585000D01*
X112288115Y-108363464D01*
X112227229Y-108149472D01*
X112220420Y-108135797D01*
X112128061Y-107950316D01*
X112128056Y-107950308D01*
X111993979Y-107772761D01*
X111829562Y-107622876D01*
X111829560Y-107622874D01*
X111640404Y-107505754D01*
X111640398Y-107505752D01*
X111432940Y-107425382D01*
X111280513Y-107396888D01*
X111218234Y-107365221D01*
X111182961Y-107304908D01*
X111185895Y-107235100D01*
X111226104Y-107177960D01*
X111280513Y-107153111D01*
X111432940Y-107124618D01*
X111640401Y-107044247D01*
X111829562Y-106927124D01*
X111993981Y-106777236D01*
X112128058Y-106599689D01*
X112227229Y-106400528D01*
X112288115Y-106186536D01*
X112308643Y-105965000D01*
X112299168Y-105862752D01*
X112288115Y-105743464D01*
X112288114Y-105743462D01*
X112287005Y-105739565D01*
X112227229Y-105529472D01*
X112227224Y-105529461D01*
X112128061Y-105330316D01*
X112128056Y-105330308D01*
X111993979Y-105152761D01*
X111858221Y-105029002D01*
X121154652Y-105029002D01*
X121174028Y-105386368D01*
X121174029Y-105386385D01*
X121231926Y-105739539D01*
X121231932Y-105739565D01*
X121327672Y-106084392D01*
X121327674Y-106084399D01*
X121460142Y-106416870D01*
X121460151Y-106416888D01*
X121627784Y-106733077D01*
X121627787Y-106733082D01*
X121627789Y-106733085D01*
X121759351Y-106927125D01*
X121828634Y-107029309D01*
X121828641Y-107029319D01*
X122011921Y-107245092D01*
X122060332Y-107302086D01*
X122320163Y-107548211D01*
X122605081Y-107764800D01*
X122911747Y-107949315D01*
X122911749Y-107949316D01*
X122911751Y-107949317D01*
X122911755Y-107949319D01*
X123085292Y-108029605D01*
X123236565Y-108099591D01*
X123575726Y-108213868D01*
X123925254Y-108290805D01*
X124281052Y-108329500D01*
X124281058Y-108329500D01*
X124638942Y-108329500D01*
X124638948Y-108329500D01*
X124994746Y-108290805D01*
X125344274Y-108213868D01*
X125683435Y-108099591D01*
X126008253Y-107949315D01*
X126314919Y-107764800D01*
X126599837Y-107548211D01*
X126859668Y-107302086D01*
X127091365Y-107029311D01*
X127292211Y-106733085D01*
X127459853Y-106416880D01*
X127592324Y-106084403D01*
X127688071Y-105739552D01*
X127721228Y-105537301D01*
X127745970Y-105386385D01*
X127745970Y-105386382D01*
X127745972Y-105386371D01*
X127765348Y-105029000D01*
X127763931Y-105002874D01*
X127755105Y-104840079D01*
X127745972Y-104671629D01*
X127741891Y-104646739D01*
X127688073Y-104318460D01*
X127688072Y-104318459D01*
X127688071Y-104318448D01*
X127633878Y-104123260D01*
X127592327Y-103973607D01*
X127592325Y-103973600D01*
X127459857Y-103641129D01*
X127459848Y-103641111D01*
X127292215Y-103324922D01*
X127292213Y-103324919D01*
X127292211Y-103324915D01*
X127091365Y-103028689D01*
X127091361Y-103028684D01*
X127091358Y-103028680D01*
X126859668Y-102755914D01*
X126770720Y-102671658D01*
X126599837Y-102509789D01*
X126599830Y-102509783D01*
X126599827Y-102509781D01*
X126490335Y-102426548D01*
X126314919Y-102293200D01*
X126008253Y-102108685D01*
X126008252Y-102108684D01*
X126008248Y-102108682D01*
X126008244Y-102108680D01*
X125683447Y-101958414D01*
X125683441Y-101958411D01*
X125683435Y-101958409D01*
X125513854Y-101901270D01*
X125344273Y-101844131D01*
X124994744Y-101767194D01*
X124638949Y-101728500D01*
X124638948Y-101728500D01*
X124281052Y-101728500D01*
X124281050Y-101728500D01*
X123925255Y-101767194D01*
X123575726Y-101844131D01*
X123329418Y-101927123D01*
X123236565Y-101958409D01*
X123236563Y-101958410D01*
X123236552Y-101958414D01*
X122911755Y-102108680D01*
X122911751Y-102108682D01*
X122684404Y-102245473D01*
X122605081Y-102293200D01*
X122516768Y-102360333D01*
X122320172Y-102509781D01*
X122320163Y-102509789D01*
X122060331Y-102755914D01*
X121828641Y-103028680D01*
X121828634Y-103028690D01*
X121627790Y-103324913D01*
X121627784Y-103324922D01*
X121460151Y-103641111D01*
X121460142Y-103641129D01*
X121327674Y-103973600D01*
X121327672Y-103973607D01*
X121231932Y-104318434D01*
X121231926Y-104318460D01*
X121174029Y-104671614D01*
X121174028Y-104671631D01*
X121154652Y-105028997D01*
X121154652Y-105029002D01*
X111858221Y-105029002D01*
X111829562Y-105002876D01*
X111829560Y-105002874D01*
X111640404Y-104885754D01*
X111640398Y-104885752D01*
X111432940Y-104805382D01*
X111214243Y-104764500D01*
X110991757Y-104764500D01*
X110773060Y-104805382D01*
X110641864Y-104856207D01*
X110565601Y-104885752D01*
X110565595Y-104885754D01*
X110376439Y-105002874D01*
X110376437Y-105002876D01*
X110212020Y-105152761D01*
X110077943Y-105330308D01*
X110077938Y-105330316D01*
X109978775Y-105529461D01*
X109978769Y-105529476D01*
X109917885Y-105743462D01*
X109917884Y-105743464D01*
X109897357Y-105964999D01*
X109897357Y-105965000D01*
X109917884Y-106186535D01*
X109917885Y-106186537D01*
X109978769Y-106400523D01*
X109978775Y-106400538D01*
X110077938Y-106599683D01*
X110077943Y-106599691D01*
X110212020Y-106777238D01*
X110376437Y-106927123D01*
X110376439Y-106927125D01*
X110565595Y-107044245D01*
X110565596Y-107044245D01*
X110565599Y-107044247D01*
X110773060Y-107124618D01*
X110925484Y-107153111D01*
X110987765Y-107184780D01*
X111023038Y-107245092D01*
X111020104Y-107314900D01*
X110979895Y-107372040D01*
X110925485Y-107396888D01*
X110773060Y-107425382D01*
X110641864Y-107476207D01*
X110565601Y-107505752D01*
X110565595Y-107505754D01*
X110376439Y-107622874D01*
X110376437Y-107622876D01*
X110212020Y-107772761D01*
X110077943Y-107950308D01*
X110077938Y-107950316D01*
X109978775Y-108149461D01*
X109978769Y-108149476D01*
X109917885Y-108363462D01*
X109917884Y-108363464D01*
X109897357Y-108584999D01*
X109897357Y-108585000D01*
X104195500Y-108585000D01*
X104195500Y-107844306D01*
X104192598Y-107807431D01*
X104182526Y-107772764D01*
X104146745Y-107649606D01*
X104146744Y-107649603D01*
X104146744Y-107649602D01*
X104063081Y-107508135D01*
X104063079Y-107508133D01*
X104063076Y-107508129D01*
X103946870Y-107391923D01*
X103946862Y-107391917D01*
X103805396Y-107308255D01*
X103805393Y-107308254D01*
X103647573Y-107262402D01*
X103647567Y-107262401D01*
X103610701Y-107259500D01*
X103610694Y-107259500D01*
X102129306Y-107259500D01*
X102129298Y-107259500D01*
X102092432Y-107262401D01*
X102092426Y-107262402D01*
X101934606Y-107308254D01*
X101934603Y-107308255D01*
X101793137Y-107391917D01*
X101793129Y-107391923D01*
X101676923Y-107508129D01*
X101676917Y-107508137D01*
X101593255Y-107649603D01*
X101593253Y-107649606D01*
X101558576Y-107768968D01*
X101520970Y-107827854D01*
X101457497Y-107857060D01*
X101388311Y-107847314D01*
X101335376Y-107801710D01*
X101315501Y-107734727D01*
X101315500Y-107734373D01*
X101315500Y-104646739D01*
X101335185Y-104579700D01*
X101387989Y-104533945D01*
X101457147Y-104524001D01*
X101520703Y-104553026D01*
X101558477Y-104611804D01*
X101559275Y-104614645D01*
X101559650Y-104616044D01*
X101559651Y-104616050D01*
X101574544Y-104671631D01*
X101619678Y-104840074D01*
X101619679Y-104840076D01*
X101619680Y-104840079D01*
X101717699Y-105050282D01*
X101850730Y-105240269D01*
X102014731Y-105404270D01*
X102204718Y-105537301D01*
X102414921Y-105635320D01*
X102638950Y-105695349D01*
X102803985Y-105709787D01*
X102869998Y-105715563D01*
X102870000Y-105715563D01*
X102870002Y-105715563D01*
X102927762Y-105710509D01*
X103101050Y-105695349D01*
X103325079Y-105635320D01*
X103535282Y-105537301D01*
X103725269Y-105404270D01*
X103889270Y-105240269D01*
X104022301Y-105050282D01*
X104120320Y-104840079D01*
X104180349Y-104616050D01*
X104200563Y-104385000D01*
X104180349Y-104153950D01*
X104120320Y-103929921D01*
X104022301Y-103719719D01*
X104022299Y-103719716D01*
X104022298Y-103719714D01*
X103889273Y-103529735D01*
X103889268Y-103529729D01*
X103725269Y-103365730D01*
X103666979Y-103324915D01*
X103535282Y-103232699D01*
X103325079Y-103134680D01*
X103325076Y-103134679D01*
X103325074Y-103134678D01*
X103101051Y-103074651D01*
X103101044Y-103074650D01*
X102870002Y-103054437D01*
X102869998Y-103054437D01*
X102638955Y-103074650D01*
X102638948Y-103074651D01*
X102414917Y-103134681D01*
X102204718Y-103232699D01*
X102204714Y-103232701D01*
X102014735Y-103365726D01*
X102014729Y-103365731D01*
X101850731Y-103529729D01*
X101850726Y-103529735D01*
X101717701Y-103719714D01*
X101717699Y-103719718D01*
X101619681Y-103929917D01*
X101619680Y-103929921D01*
X101567875Y-104123260D01*
X101559275Y-104155354D01*
X101522909Y-104215014D01*
X101460062Y-104245543D01*
X101390687Y-104237248D01*
X101336809Y-104192762D01*
X101315535Y-104126210D01*
X101315500Y-104123260D01*
X101315500Y-99926359D01*
X101335185Y-99859320D01*
X101387989Y-99813565D01*
X101457147Y-99803621D01*
X101520703Y-99832646D01*
X101534008Y-99846083D01*
X101667187Y-100002874D01*
X101718332Y-100063086D01*
X101978163Y-100309211D01*
X102263081Y-100525800D01*
X102569747Y-100710315D01*
X102569749Y-100710316D01*
X102569751Y-100710317D01*
X102569755Y-100710319D01*
X102894552Y-100860585D01*
X102894565Y-100860591D01*
X103233726Y-100974868D01*
X103583254Y-101051805D01*
X103939052Y-101090500D01*
X103939058Y-101090500D01*
X104296942Y-101090500D01*
X104296948Y-101090500D01*
X104652746Y-101051805D01*
X105002274Y-100974868D01*
X105031561Y-100965000D01*
X109897357Y-100965000D01*
X109917884Y-101186535D01*
X109917885Y-101186537D01*
X109978769Y-101400523D01*
X109978775Y-101400538D01*
X110077938Y-101599683D01*
X110077943Y-101599691D01*
X110212020Y-101777238D01*
X110376437Y-101927123D01*
X110376439Y-101927125D01*
X110565595Y-102044245D01*
X110565596Y-102044245D01*
X110565599Y-102044247D01*
X110773060Y-102124618D01*
X110991757Y-102165500D01*
X110991759Y-102165500D01*
X111214241Y-102165500D01*
X111214243Y-102165500D01*
X111432940Y-102124618D01*
X111640401Y-102044247D01*
X111829562Y-101927124D01*
X111993981Y-101777236D01*
X112128058Y-101599689D01*
X112227229Y-101400528D01*
X112288115Y-101186536D01*
X112308643Y-100965000D01*
X112308642Y-100964994D01*
X112288115Y-100743464D01*
X112288114Y-100743462D01*
X112280659Y-100717261D01*
X112227229Y-100529472D01*
X112225401Y-100525800D01*
X112128061Y-100330316D01*
X112128056Y-100330308D01*
X111993979Y-100152761D01*
X111829562Y-100002876D01*
X111829560Y-100002874D01*
X111640404Y-99885754D01*
X111640398Y-99885752D01*
X111432940Y-99805382D01*
X111214243Y-99764500D01*
X110991757Y-99764500D01*
X110773060Y-99805382D01*
X110702684Y-99832646D01*
X110565601Y-99885752D01*
X110565595Y-99885754D01*
X110376439Y-100002874D01*
X110376437Y-100002876D01*
X110212020Y-100152761D01*
X110077943Y-100330308D01*
X110077938Y-100330316D01*
X109978775Y-100529461D01*
X109978769Y-100529476D01*
X109917885Y-100743462D01*
X109917884Y-100743464D01*
X109897357Y-100964999D01*
X109897357Y-100965000D01*
X105031561Y-100965000D01*
X105341435Y-100860591D01*
X105666253Y-100710315D01*
X105972919Y-100525800D01*
X106257837Y-100309211D01*
X106517668Y-100063086D01*
X106749365Y-99790311D01*
X106950211Y-99494085D01*
X107117853Y-99177880D01*
X107250324Y-98845403D01*
X107346071Y-98500552D01*
X107395678Y-98197962D01*
X107403970Y-98147385D01*
X107403970Y-98147382D01*
X107403972Y-98147371D01*
X107423348Y-97790000D01*
X107403972Y-97432629D01*
X107402705Y-97424902D01*
X107346073Y-97079460D01*
X107346072Y-97079459D01*
X107346071Y-97079448D01*
X107250324Y-96734597D01*
X107117853Y-96402120D01*
X106950211Y-96085915D01*
X106749365Y-95789689D01*
X106749361Y-95789684D01*
X106749358Y-95789680D01*
X106517668Y-95516914D01*
X106257837Y-95270789D01*
X106257830Y-95270783D01*
X106257827Y-95270781D01*
X106149214Y-95188216D01*
X106107756Y-95131975D01*
X106103287Y-95062248D01*
X106137224Y-95001174D01*
X106198792Y-94968142D01*
X106224255Y-94965500D01*
X157913745Y-94965500D01*
X157980784Y-94985185D01*
G37*
%TD.AperFunction*%
%TD*%
M02*
