%TF.GenerationSoftware,KiCad,Pcbnew,7.0.11+dfsg-1build4*%
%TF.CreationDate,2025-07-18T01:50:02+04:00*%
%TF.ProjectId,tpa3116_amplifier_board,74706133-3131-4365-9f61-6d706c696669,rev?*%
%TF.SameCoordinates,Original*%
%TF.FileFunction,Copper,L1,Top*%
%TF.FilePolarity,Positive*%
%FSLAX46Y46*%
G04 Gerber Fmt 4.6, Leading zero omitted, Abs format (unit mm)*
G04 Created by KiCad (PCBNEW 7.0.11+dfsg-1build4) date 2025-07-18 01:50:02*
%MOMM*%
%LPD*%
G01*
G04 APERTURE LIST*
G04 Aperture macros list*
%AMRoundRect*
0 Rectangle with rounded corners*
0 $1 Rounding radius*
0 $2 $3 $4 $5 $6 $7 $8 $9 X,Y pos of 4 corners*
0 Add a 4 corners polygon primitive as box body*
4,1,4,$2,$3,$4,$5,$6,$7,$8,$9,$2,$3,0*
0 Add four circle primitives for the rounded corners*
1,1,$1+$1,$2,$3*
1,1,$1+$1,$4,$5*
1,1,$1+$1,$6,$7*
1,1,$1+$1,$8,$9*
0 Add four rect primitives between the rounded corners*
20,1,$1+$1,$2,$3,$4,$5,0*
20,1,$1+$1,$4,$5,$6,$7,0*
20,1,$1+$1,$6,$7,$8,$9,0*
20,1,$1+$1,$8,$9,$2,$3,0*%
G04 Aperture macros list end*
%TA.AperFunction,SMDPad,CuDef*%
%ADD10RoundRect,0.200000X-0.200000X-0.275000X0.200000X-0.275000X0.200000X0.275000X-0.200000X0.275000X0*%
%TD*%
%TA.AperFunction,ComponentPad*%
%ADD11RoundRect,0.250000X0.675000X-0.675000X0.675000X0.675000X-0.675000X0.675000X-0.675000X-0.675000X0*%
%TD*%
%TA.AperFunction,ComponentPad*%
%ADD12C,1.850000*%
%TD*%
%TA.AperFunction,ComponentPad*%
%ADD13C,5.600000*%
%TD*%
%TA.AperFunction,SMDPad,CuDef*%
%ADD14RoundRect,0.200000X0.200000X0.275000X-0.200000X0.275000X-0.200000X-0.275000X0.200000X-0.275000X0*%
%TD*%
%TA.AperFunction,ComponentPad*%
%ADD15C,1.600000*%
%TD*%
%TA.AperFunction,SMDPad,CuDef*%
%ADD16RoundRect,0.250000X-0.250000X-0.475000X0.250000X-0.475000X0.250000X0.475000X-0.250000X0.475000X0*%
%TD*%
%TA.AperFunction,SMDPad,CuDef*%
%ADD17RoundRect,0.225000X-0.250000X0.225000X-0.250000X-0.225000X0.250000X-0.225000X0.250000X0.225000X0*%
%TD*%
%TA.AperFunction,SMDPad,CuDef*%
%ADD18RoundRect,0.225000X0.225000X0.250000X-0.225000X0.250000X-0.225000X-0.250000X0.225000X-0.250000X0*%
%TD*%
%TA.AperFunction,SMDPad,CuDef*%
%ADD19RoundRect,0.225000X0.250000X-0.225000X0.250000X0.225000X-0.250000X0.225000X-0.250000X-0.225000X0*%
%TD*%
%TA.AperFunction,SMDPad,CuDef*%
%ADD20R,2.900000X5.400000*%
%TD*%
%TA.AperFunction,ComponentPad*%
%ADD21RoundRect,0.272727X-1.227273X1.227273X-1.227273X-1.227273X1.227273X-1.227273X1.227273X1.227273X0*%
%TD*%
%TA.AperFunction,ComponentPad*%
%ADD22C,3.000000*%
%TD*%
%TA.AperFunction,SMDPad,CuDef*%
%ADD23RoundRect,0.225000X-0.225000X-0.250000X0.225000X-0.250000X0.225000X0.250000X-0.225000X0.250000X0*%
%TD*%
%TA.AperFunction,SMDPad,CuDef*%
%ADD24RoundRect,0.200000X0.275000X-0.200000X0.275000X0.200000X-0.275000X0.200000X-0.275000X-0.200000X0*%
%TD*%
%TA.AperFunction,SMDPad,CuDef*%
%ADD25R,1.475000X0.450000*%
%TD*%
%TA.AperFunction,SMDPad,CuDef*%
%ADD26R,3.040000X3.740000*%
%TD*%
%TA.AperFunction,SMDPad,CuDef*%
%ADD27RoundRect,0.200000X-0.275000X0.200000X-0.275000X-0.200000X0.275000X-0.200000X0.275000X0.200000X0*%
%TD*%
%TA.AperFunction,ComponentPad*%
%ADD28RoundRect,0.272727X1.227273X-1.227273X1.227273X1.227273X-1.227273X1.227273X-1.227273X-1.227273X0*%
%TD*%
%TA.AperFunction,ComponentPad*%
%ADD29R,2.000000X2.000000*%
%TD*%
%TA.AperFunction,ComponentPad*%
%ADD30C,2.000000*%
%TD*%
%TA.AperFunction,ViaPad*%
%ADD31C,0.800000*%
%TD*%
%TA.AperFunction,Conductor*%
%ADD32C,0.350000*%
%TD*%
%TA.AperFunction,Conductor*%
%ADD33C,2.000000*%
%TD*%
%TA.AperFunction,Conductor*%
%ADD34C,1.000000*%
%TD*%
%TA.AperFunction,Conductor*%
%ADD35C,0.600000*%
%TD*%
G04 APERTURE END LIST*
D10*
%TO.P,R4,1*%
%TO.N,Net-(IC1-GVDD)*%
X113643000Y-118110000D03*
%TO.P,R4,2*%
%TO.N,Net-(IC1-PLIMIT)*%
X115293000Y-118110000D03*
%TD*%
D11*
%TO.P,J1,1,Pin_1*%
%TO.N,GND*%
X102870000Y-135010000D03*
D12*
%TO.P,J1,2,Pin_2*%
%TO.N,/sync*%
X102870000Y-130810000D03*
%TO.P,J1,3,Pin_3*%
%TO.N,/mute*%
X102870000Y-126610000D03*
%TO.P,J1,4,Pin_4*%
%TO.N,/SD_LR*%
X102870000Y-122410000D03*
%TD*%
D13*
%TO.P,H3,1*%
%TO.N,N/C*%
X160020000Y-142240000D03*
%TD*%
D14*
%TO.P,R6,1*%
%TO.N,/mute*%
X115315000Y-128270000D03*
%TO.P,R6,2*%
%TO.N,GND*%
X113665000Y-128270000D03*
%TD*%
D13*
%TO.P,H6,1*%
%TO.N,N/C*%
X124438000Y-135001000D03*
%TD*%
D15*
%TO.P,C17,1*%
%TO.N,GND*%
X153670000Y-118030000D03*
%TO.P,C17,2*%
%TO.N,Net-(J3-Pin_1)*%
X153670000Y-113030000D03*
%TD*%
D16*
%TO.P,C6,1*%
%TO.N,GND*%
X108589999Y-120014999D03*
%TO.P,C6,2*%
%TO.N,Net-(IC1-GVDD)*%
X110489999Y-120014999D03*
%TD*%
D14*
%TO.P,R7,1*%
%TO.N,VCC*%
X117833000Y-108585000D03*
%TO.P,R7,2*%
%TO.N,/SD_LR*%
X116183000Y-108585000D03*
%TD*%
D17*
%TO.P,C12,1*%
%TO.N,Net-(IC1-OUTNR)*%
X133963000Y-117335000D03*
%TO.P,C12,2*%
%TO.N,Net-(IC1-BSNR)*%
X133963000Y-118885000D03*
%TD*%
D18*
%TO.P,C7,1*%
%TO.N,VCC*%
X127613000Y-112395000D03*
%TO.P,C7,2*%
%TO.N,GND*%
X126063000Y-112395000D03*
%TD*%
D14*
%TO.P,R5,1*%
%TO.N,Net-(IC1-SYNC)*%
X115315000Y-130810000D03*
%TO.P,R5,2*%
%TO.N,/sync*%
X113665000Y-130810000D03*
%TD*%
D19*
%TO.P,C13,1*%
%TO.N,Net-(IC1-OUTNL)*%
X133963000Y-122060000D03*
%TO.P,C13,2*%
%TO.N,Net-(IC1-BSPL)*%
X133963000Y-120510000D03*
%TD*%
D18*
%TO.P,C9,1*%
%TO.N,VCC*%
X127613000Y-127635000D03*
%TO.P,C9,2*%
%TO.N,GND*%
X126063000Y-127635000D03*
%TD*%
D15*
%TO.P,C1,1*%
%TO.N,/R+*%
X111103000Y-100965000D03*
%TO.P,C1,2*%
%TO.N,Net-(IC1-RINP)*%
X111103000Y-105965000D03*
%TD*%
D20*
%TO.P,L2,1,1*%
%TO.N,Net-(IC1-OUTNL)*%
X139195000Y-127000000D03*
%TO.P,L2,2,2*%
%TO.N,Net-(J3-Pin_2)*%
X149095000Y-127000000D03*
%TD*%
D21*
%TO.P,J4,1,Pin_1*%
%TO.N,GND*%
X160655000Y-129855000D03*
D22*
%TO.P,J4,2,Pin_2*%
%TO.N,VCC*%
X160655000Y-135255000D03*
%TD*%
D13*
%TO.P,H2,1*%
%TO.N,N/C*%
X104118000Y-142240000D03*
%TD*%
D19*
%TO.P,C11,1*%
%TO.N,Net-(IC1-OUTNR)*%
X133985000Y-113665000D03*
%TO.P,C11,2*%
%TO.N,Net-(IC1-BSPR)*%
X133985000Y-112115000D03*
%TD*%
D17*
%TO.P,C20,1*%
%TO.N,Net-(J3-Pin_2)*%
X152400000Y-129400000D03*
%TO.P,C20,2*%
%TO.N,GND*%
X152400000Y-130950000D03*
%TD*%
D23*
%TO.P,C8,1*%
%TO.N,GND*%
X126063000Y-109855000D03*
%TO.P,C8,2*%
%TO.N,VCC*%
X127613000Y-109855000D03*
%TD*%
D24*
%TO.P,R8,1*%
%TO.N,Net-(J3-Pin_1)*%
X154940000Y-110680000D03*
%TO.P,R8,2*%
%TO.N,Net-(C21-Pad2)*%
X154940000Y-109030000D03*
%TD*%
D21*
%TO.P,J3,1,Pin_1*%
%TO.N,Net-(J3-Pin_1)*%
X160655000Y-117315000D03*
D22*
%TO.P,J3,2,Pin_2*%
%TO.N,Net-(J3-Pin_2)*%
X160655000Y-122715000D03*
%TD*%
D11*
%TO.P,J2,1,Pin_1*%
%TO.N,/R-*%
X102870000Y-108585000D03*
D12*
%TO.P,J2,2,Pin_2*%
%TO.N,/R+*%
X102870000Y-104385000D03*
%TD*%
D25*
%TO.P,IC1,1,MODSEL*%
%TO.N,/SD_LR*%
X120672000Y-115140000D03*
%TO.P,IC1,2,SD*%
X120672000Y-115790000D03*
%TO.P,IC1,3,FAULT*%
%TO.N,GND*%
X120672000Y-116440000D03*
%TO.P,IC1,4,RINP*%
%TO.N,Net-(IC1-RINP)*%
X120672000Y-117090000D03*
%TO.P,IC1,5,RINN*%
%TO.N,Net-(IC1-RINN)*%
X120672000Y-117740000D03*
%TO.P,IC1,6,PLIMIT*%
%TO.N,Net-(IC1-PLIMIT)*%
X120672000Y-118390000D03*
%TO.P,IC1,7,GVDD*%
%TO.N,Net-(IC1-GVDD)*%
X120672000Y-119040000D03*
%TO.P,IC1,8,GAIN/SLV*%
%TO.N,Net-(IC1-GAIN{slash}SLV)*%
X120672000Y-119690000D03*
%TO.P,IC1,9,GND_1*%
%TO.N,GND*%
X120672000Y-120340000D03*
%TO.P,IC1,10,LINP*%
X120672000Y-120990000D03*
%TO.P,IC1,11,LINN*%
X120672000Y-121640000D03*
%TO.P,IC1,12,MUTE*%
%TO.N,/mute*%
X120672000Y-122290000D03*
%TO.P,IC1,13,AM2*%
%TO.N,GND*%
X120672000Y-122940000D03*
%TO.P,IC1,14,AM1*%
X120672000Y-123590000D03*
%TO.P,IC1,15,AM0*%
X120672000Y-124240000D03*
%TO.P,IC1,16,SYNC*%
%TO.N,Net-(IC1-SYNC)*%
X120672000Y-124890000D03*
%TO.P,IC1,17,AVCC*%
%TO.N,VCC*%
X128248000Y-124890000D03*
%TO.P,IC1,18,PVCC_1*%
X128248000Y-124240000D03*
%TO.P,IC1,19,PVCC_2*%
X128248000Y-123590000D03*
%TO.P,IC1,20,BSNL*%
%TO.N,Net-(IC1-BSNL)*%
X128248000Y-122940000D03*
%TO.P,IC1,21,OUTNL*%
%TO.N,Net-(IC1-OUTNL)*%
X128248000Y-122290000D03*
%TO.P,IC1,22,GND_2*%
%TO.N,GND*%
X128248000Y-121640000D03*
%TO.P,IC1,23,OUTPL*%
%TO.N,Net-(IC1-OUTNL)*%
X128248000Y-120990000D03*
%TO.P,IC1,24,BSPL*%
%TO.N,Net-(IC1-BSPL)*%
X128248000Y-120340000D03*
%TO.P,IC1,25,GND_3*%
%TO.N,GND*%
X128248000Y-119690000D03*
%TO.P,IC1,26,BSNR*%
%TO.N,Net-(IC1-BSNR)*%
X128248000Y-119040000D03*
%TO.P,IC1,27,OUTNR*%
%TO.N,Net-(IC1-OUTNR)*%
X128248000Y-118390000D03*
%TO.P,IC1,28,GND_4*%
%TO.N,GND*%
X128248000Y-117740000D03*
%TO.P,IC1,29,OUTPR*%
%TO.N,Net-(IC1-OUTNR)*%
X128248000Y-117090000D03*
%TO.P,IC1,30,BSPR*%
%TO.N,Net-(IC1-BSPR)*%
X128248000Y-116440000D03*
%TO.P,IC1,31,PVCC_3*%
%TO.N,VCC*%
X128248000Y-115790000D03*
%TO.P,IC1,32,PVCC_4*%
X128248000Y-115140000D03*
D26*
%TO.P,IC1,33,GND_5*%
%TO.N,GND*%
X124460000Y-120015000D03*
%TD*%
D10*
%TO.P,R3,1*%
%TO.N,Net-(IC1-GVDD)*%
X113643000Y-120650000D03*
%TO.P,R3,2*%
%TO.N,Net-(IC1-GAIN{slash}SLV)*%
X115293000Y-120650000D03*
%TD*%
D27*
%TO.P,R9,1*%
%TO.N,Net-(J3-Pin_2)*%
X154940000Y-129350000D03*
%TO.P,R9,2*%
%TO.N,Net-(C22-Pad2)*%
X154940000Y-131000000D03*
%TD*%
D13*
%TO.P,H1,1*%
%TO.N,N/C*%
X104118000Y-97790000D03*
%TD*%
D28*
%TO.P,J5,1,Pin_1*%
%TO.N,GND*%
X160655000Y-110015000D03*
D22*
%TO.P,J5,2,Pin_2*%
%TO.N,VCC*%
X160655000Y-104615000D03*
%TD*%
D23*
%TO.P,C5,1*%
%TO.N,GND*%
X108940000Y-118110000D03*
%TO.P,C5,2*%
%TO.N,Net-(IC1-GVDD)*%
X110490000Y-118110000D03*
%TD*%
D13*
%TO.P,H5,1*%
%TO.N,N/C*%
X124460000Y-105029000D03*
%TD*%
D20*
%TO.P,L1,1,1*%
%TO.N,Net-(IC1-OUTNR)*%
X139195000Y-113030000D03*
%TO.P,L1,2,2*%
%TO.N,Net-(J3-Pin_1)*%
X149095000Y-113030000D03*
%TD*%
D29*
%TO.P,C15,1*%
%TO.N,VCC*%
X140335000Y-100965000D03*
D30*
%TO.P,C15,2*%
%TO.N,GND*%
X145335000Y-100965000D03*
%TD*%
D13*
%TO.P,H4,1*%
%TO.N,N/C*%
X160020000Y-97790000D03*
%TD*%
D14*
%TO.P,R2,1*%
%TO.N,Net-(IC1-PLIMIT)*%
X115293000Y-116205000D03*
%TO.P,R2,2*%
%TO.N,GND*%
X113643000Y-116205000D03*
%TD*%
D18*
%TO.P,C10,1*%
%TO.N,VCC*%
X127613000Y-130175000D03*
%TO.P,C10,2*%
%TO.N,GND*%
X126063000Y-130175000D03*
%TD*%
D23*
%TO.P,C21,1*%
%TO.N,GND*%
X153390000Y-104140000D03*
%TO.P,C21,2*%
%TO.N,Net-(C21-Pad2)*%
X154940000Y-104140000D03*
%TD*%
D15*
%TO.P,C3,1*%
%TO.N,/R-*%
X111103000Y-108585000D03*
%TO.P,C3,2*%
%TO.N,Net-(IC1-RINN)*%
X111103000Y-113585000D03*
%TD*%
D17*
%TO.P,C14,1*%
%TO.N,Net-(IC1-OUTNL)*%
X133963000Y-125730000D03*
%TO.P,C14,2*%
%TO.N,Net-(IC1-BSNL)*%
X133963000Y-127280000D03*
%TD*%
D15*
%TO.P,C18,1*%
%TO.N,Net-(J3-Pin_2)*%
X153670000Y-127000000D03*
%TO.P,C18,2*%
%TO.N,GND*%
X153670000Y-122000000D03*
%TD*%
D29*
%TO.P,C16,1*%
%TO.N,VCC*%
X140335000Y-139065000D03*
D30*
%TO.P,C16,2*%
%TO.N,GND*%
X145335000Y-139065000D03*
%TD*%
D14*
%TO.P,R1,1*%
%TO.N,Net-(IC1-GAIN{slash}SLV)*%
X115293000Y-122555000D03*
%TO.P,R1,2*%
%TO.N,GND*%
X113643000Y-122555000D03*
%TD*%
D17*
%TO.P,C19,1*%
%TO.N,GND*%
X152400000Y-109080000D03*
%TO.P,C19,2*%
%TO.N,Net-(J3-Pin_1)*%
X152400000Y-110630000D03*
%TD*%
D23*
%TO.P,C22,1*%
%TO.N,GND*%
X153390000Y-135610000D03*
%TO.P,C22,2*%
%TO.N,Net-(C22-Pad2)*%
X154940000Y-135610000D03*
%TD*%
D31*
%TO.N,GND*%
X151130000Y-134620000D03*
X122533000Y-113665000D03*
X149225000Y-118110000D03*
X125073000Y-125095000D03*
X146685000Y-121920000D03*
X145415000Y-121920000D03*
X106680000Y-116205000D03*
X118088000Y-100965000D03*
X149225000Y-107950000D03*
X104775000Y-118110000D03*
X139065000Y-118110000D03*
X147320000Y-134620000D03*
X104775000Y-116205001D03*
X123803000Y-114935000D03*
X149860000Y-139700000D03*
X149860000Y-100330000D03*
X104775000Y-120015000D03*
X121263000Y-113665000D03*
X151130000Y-139700000D03*
X121898000Y-97155000D03*
X133350000Y-139065000D03*
X139065000Y-121920000D03*
X122533000Y-109855000D03*
X122533000Y-114935000D03*
X149860000Y-102870000D03*
X151130000Y-101600000D03*
X111125000Y-125730000D03*
X146685000Y-132080000D03*
X149860000Y-101600000D03*
X125073000Y-122555000D03*
X122533000Y-112395000D03*
X121263000Y-130175000D03*
X145415000Y-118110000D03*
X123803000Y-123825000D03*
X151130000Y-102870000D03*
X122533000Y-117475000D03*
X125730000Y-142875000D03*
X125073000Y-116205000D03*
X147955000Y-107950000D03*
X151130000Y-104140000D03*
X145415000Y-107950000D03*
X109220000Y-123825000D03*
X110490000Y-135890000D03*
X133350000Y-142875000D03*
X129540000Y-142875000D03*
X121263000Y-126365000D03*
X122533000Y-128905000D03*
X121263000Y-111125000D03*
X151130000Y-100330000D03*
X123803000Y-125095000D03*
X118110000Y-135890000D03*
X125708000Y-97155000D03*
X149860000Y-104140000D03*
X111125000Y-127635000D03*
X125073000Y-117475000D03*
X149225000Y-121920000D03*
X148590000Y-104140000D03*
X122533000Y-116205000D03*
X106680000Y-114300001D03*
X121920000Y-142875000D03*
X121263000Y-127635000D03*
X122533000Y-111125000D03*
X114300000Y-142875000D03*
X126343000Y-122555000D03*
X121263000Y-128905000D03*
X149860000Y-138430000D03*
X145415000Y-132080000D03*
X109220000Y-125730000D03*
X146685000Y-118110000D03*
X148590000Y-134620000D03*
X149225000Y-132080000D03*
X126343000Y-116205000D03*
X114278000Y-97155000D03*
X147320000Y-105410000D03*
X122533000Y-122555000D03*
X126343000Y-114935000D03*
X133350000Y-97155000D03*
X118088000Y-104775000D03*
X118088000Y-97155000D03*
X114300000Y-135890000D03*
X122533000Y-123825000D03*
X148590000Y-105410000D03*
X121263000Y-112395000D03*
X118110000Y-139065000D03*
X129540000Y-139065000D03*
X110490000Y-139065000D03*
X104775001Y-114300001D03*
X133328000Y-100965000D03*
X151130000Y-138430000D03*
X129540000Y-135255000D03*
X123803000Y-117475000D03*
X149860000Y-135890000D03*
X114300000Y-139065000D03*
X126343000Y-123825000D03*
X123803000Y-122555000D03*
X118110000Y-142875000D03*
X151130000Y-105410000D03*
X129540000Y-104775000D03*
X125073000Y-123825000D03*
X151130000Y-135890000D03*
X148590000Y-135890000D03*
X151130000Y-137160000D03*
X149860000Y-105410000D03*
X129518000Y-97155000D03*
X146685000Y-107950000D03*
X125073000Y-114935000D03*
X147955000Y-132080000D03*
X147955000Y-121920000D03*
X123803000Y-116205000D03*
X129518000Y-100965000D03*
X149860000Y-134620000D03*
X122533000Y-125095000D03*
X147955000Y-118110000D03*
X149860000Y-137160000D03*
X126343000Y-125095000D03*
X111125000Y-123825000D03*
X122533000Y-126365000D03*
X122533000Y-127635000D03*
X121263000Y-109855000D03*
X126343000Y-117475000D03*
X109220000Y-127635000D03*
%TO.N,VCC*%
X130788000Y-130810000D03*
X129518000Y-130810000D03*
X129518000Y-127000000D03*
X129518000Y-111760000D03*
X139700000Y-103505000D03*
X141605000Y-98425000D03*
X140970000Y-103505000D03*
X130788000Y-113030000D03*
X130788000Y-127000000D03*
X140970000Y-136525000D03*
X129518000Y-128270000D03*
X141605000Y-141605000D03*
X130788000Y-110490000D03*
X139700000Y-136525000D03*
X130788000Y-111760000D03*
X129518000Y-113030000D03*
X140335000Y-98425000D03*
X129518000Y-110490000D03*
X130788000Y-109220000D03*
X130788000Y-128270000D03*
X130788000Y-129540000D03*
X129518000Y-129540000D03*
X140335000Y-141605000D03*
X129518000Y-109220000D03*
%TO.N,/SD_LR*%
X116183000Y-111544997D03*
X116183000Y-112395000D03*
%TD*%
D32*
%TO.N,/R+*%
X107683000Y-104385000D02*
X111103000Y-100965000D01*
X102870000Y-104385000D02*
X107683000Y-104385000D01*
%TO.N,Net-(IC1-RINP)*%
X113665000Y-108527000D02*
X111103000Y-105965000D01*
X113665000Y-111717662D02*
X113665000Y-108527000D01*
X120672000Y-117090000D02*
X119037338Y-117090000D01*
X119037338Y-117090000D02*
X113665000Y-111717662D01*
%TO.N,/R-*%
X111103000Y-108585000D02*
X107181500Y-108585000D01*
X107181500Y-108585000D02*
X102848000Y-108585000D01*
%TO.N,Net-(IC1-RINN)*%
X114768662Y-113585000D02*
X118923662Y-117740000D01*
X118923662Y-117740000D02*
X120672000Y-117740000D01*
X111103000Y-113585000D02*
X114768662Y-113585000D01*
D33*
%TO.N,GND*%
X123803000Y-117475000D02*
X123803000Y-122555000D01*
D32*
X119395000Y-121640000D02*
X120672000Y-121640000D01*
D34*
X126343000Y-120015000D02*
X126343000Y-122555000D01*
D32*
X118745000Y-120990000D02*
X120672000Y-120990000D01*
D34*
X122533000Y-120015000D02*
X122533000Y-121285000D01*
D32*
X128248000Y-119690000D02*
X126978000Y-119690000D01*
X120672000Y-122940000D02*
X121898000Y-122940000D01*
D33*
X124460000Y-120015000D02*
X125073000Y-120015000D01*
D32*
X128248000Y-121640000D02*
X126978000Y-121640000D01*
X120672000Y-124240000D02*
X121898000Y-124240000D01*
D34*
X122533000Y-117475000D02*
X122533000Y-120015000D01*
D32*
X120672000Y-116440000D02*
X121898000Y-116440000D01*
X120672000Y-121640000D02*
X121920000Y-121640000D01*
X120672000Y-120340000D02*
X119395000Y-120340000D01*
X119395000Y-120340000D02*
X118745000Y-120990000D01*
X120672000Y-120340000D02*
X121920000Y-120340000D01*
X128248000Y-117740000D02*
X126978000Y-117740000D01*
X120672000Y-123590000D02*
X121898000Y-123590000D01*
X118745000Y-120990000D02*
X119395000Y-121640000D01*
D33*
X125073000Y-117475000D02*
X125073000Y-122555000D01*
D34*
X122533000Y-121285000D02*
X122533000Y-122555000D01*
X126343000Y-117475000D02*
X126343000Y-120015000D01*
D32*
X120672000Y-120990000D02*
X121920000Y-120990000D01*
%TO.N,Net-(IC1-GVDD)*%
X110489999Y-118110000D02*
X110490000Y-120015000D01*
X113643000Y-120650000D02*
X114913000Y-119380000D01*
X114913000Y-119380000D02*
X117453000Y-119380000D01*
X117793000Y-119040000D02*
X120672000Y-119040000D01*
X110489999Y-120014999D02*
X111757498Y-120014999D01*
X111757498Y-120014999D02*
X112392499Y-120650000D01*
X117453000Y-119380000D02*
X117793000Y-119040000D01*
X113643000Y-120650000D02*
X113643000Y-118110000D01*
X112392499Y-120650000D02*
X113643000Y-120650000D01*
D33*
%TO.N,VCC*%
X142875000Y-109855000D02*
X142875000Y-130175000D01*
D32*
X117833000Y-108585000D02*
X128248000Y-108585000D01*
D33*
X160655000Y-135255000D02*
X152400000Y-143510000D01*
X144145000Y-143510000D02*
X142240000Y-141605000D01*
X152560000Y-96520000D02*
X144145000Y-96520000D01*
X140335000Y-107315000D02*
X142875000Y-109855000D01*
X144145000Y-96520000D02*
X142240000Y-98425000D01*
X140335000Y-132715000D02*
X140335000Y-135255000D01*
X152400000Y-143510000D02*
X144145000Y-143510000D01*
X142875000Y-130175000D02*
X140335000Y-132715000D01*
X160655000Y-104615000D02*
X152560000Y-96520000D01*
X140335000Y-103505000D02*
X140335000Y-107315000D01*
D34*
X128248000Y-125730000D02*
X128248000Y-123855000D01*
X128248000Y-114300000D02*
X128248000Y-115525000D01*
D35*
%TO.N,Net-(C21-Pad2)*%
X154940000Y-104420000D02*
X154940000Y-108840000D01*
D32*
%TO.N,Net-(IC1-BSPR)*%
X132058000Y-114020000D02*
X133963000Y-112115000D01*
X130553000Y-116440000D02*
X132058000Y-114935000D01*
X128248000Y-116440000D02*
X130553000Y-116440000D01*
X132058000Y-114935000D02*
X132058000Y-114020000D01*
%TO.N,Net-(IC1-OUTNR)*%
X131445000Y-117792500D02*
X130742500Y-117090000D01*
X130847500Y-118390000D02*
X131445000Y-117792500D01*
X130742500Y-117090000D02*
X128248000Y-117090000D01*
X128248000Y-118390000D02*
X130847500Y-118390000D01*
%TO.N,Net-(IC1-BSNR)*%
X131925000Y-119040000D02*
X132080000Y-118885000D01*
X132080000Y-118885000D02*
X133963000Y-118885000D01*
X128248000Y-119040000D02*
X131925000Y-119040000D01*
D35*
%TO.N,Net-(C22-Pad2)*%
X154940000Y-131000000D02*
X154940000Y-135610000D01*
D32*
%TO.N,Net-(IC1-BSPL)*%
X131910000Y-120340000D02*
X132080000Y-120510000D01*
X128248000Y-120340000D02*
X131910000Y-120340000D01*
X132080000Y-120510000D02*
X133963000Y-120510000D01*
%TO.N,Net-(IC1-OUTNL)*%
X128248000Y-120990000D02*
X130515000Y-120990000D01*
X130440000Y-122290000D02*
X128248000Y-122290000D01*
X130515000Y-120990000D02*
X131127500Y-121602500D01*
X131127500Y-121602500D02*
X130440000Y-122290000D01*
%TO.N,Net-(IC1-BSNL)*%
X132058000Y-124460000D02*
X132058000Y-125375000D01*
X130538000Y-122940000D02*
X132058000Y-124460000D01*
X128248000Y-122940000D02*
X130538000Y-122940000D01*
X132058000Y-125375000D02*
X133963000Y-127280000D01*
%TO.N,/SD_LR*%
X116183000Y-111544997D02*
X116183000Y-108585000D01*
X117851014Y-115140000D02*
X120672000Y-115140000D01*
X120672000Y-115790000D02*
X120672000Y-115140000D01*
X116183000Y-113471986D02*
X117851014Y-115140000D01*
X116183000Y-112395000D02*
X116183000Y-111544997D01*
X116183000Y-112395000D02*
X116183000Y-113471986D01*
%TO.N,Net-(IC1-GAIN{slash}SLV)*%
X115293000Y-122555000D02*
X115293000Y-120650000D01*
X117453000Y-120650000D02*
X118413000Y-119690000D01*
X115293000Y-120650000D02*
X117453000Y-120650000D01*
X118413000Y-119690000D02*
X120672000Y-119690000D01*
%TO.N,/mute*%
X119327500Y-122290000D02*
X120672000Y-122290000D01*
X114045000Y-129540000D02*
X105800000Y-129540000D01*
X118110000Y-124460000D02*
X118110000Y-123507500D01*
X105800000Y-129540000D02*
X102870000Y-126610000D01*
X115315000Y-128270000D02*
X114045000Y-129540000D01*
X115315000Y-127255000D02*
X118110000Y-124460000D01*
X115315000Y-128270000D02*
X115315000Y-127255000D01*
X118110000Y-123507500D02*
X119327500Y-122290000D01*
%TO.N,Net-(IC1-SYNC)*%
X118443676Y-124890000D02*
X116840000Y-126493676D01*
X120672000Y-124890000D02*
X118443676Y-124890000D01*
X116840000Y-126493676D02*
X116840000Y-129285000D01*
X116840000Y-129285000D02*
X115315000Y-130810000D01*
%TO.N,/sync*%
X113665000Y-130810000D02*
X102870000Y-130810000D01*
%TO.N,Net-(IC1-PLIMIT)*%
X120672000Y-118390000D02*
X117733000Y-118390000D01*
X117453000Y-118110000D02*
X115293000Y-118110000D01*
X115293000Y-116205000D02*
X115293000Y-118110000D01*
X117733000Y-118390000D02*
X117453000Y-118110000D01*
D33*
%TO.N,Net-(J3-Pin_1)*%
X150365000Y-111760000D02*
X155100000Y-111760000D01*
X156370000Y-113030000D02*
X160655000Y-117315000D01*
X149095000Y-113030000D02*
X150365000Y-111760000D01*
X149095000Y-113030000D02*
X153670000Y-113030000D01*
X155100000Y-111760000D02*
X157242500Y-113902500D01*
X153670000Y-113030000D02*
X156370000Y-113030000D01*
%TO.N,Net-(J3-Pin_2)*%
X149095000Y-127000000D02*
X149095000Y-127505000D01*
X149095000Y-127505000D02*
X149860000Y-128270000D01*
X149860000Y-128270000D02*
X155100000Y-128270000D01*
X156370000Y-127000000D02*
X160655000Y-122715000D01*
X153670000Y-127000000D02*
X156370000Y-127000000D01*
X149095000Y-127000000D02*
X153670000Y-127000000D01*
X155100000Y-128270000D02*
X156370000Y-127000000D01*
%TD*%
%TA.AperFunction,Conductor*%
%TO.N,Net-(IC1-OUTNL)*%
G36*
X131727245Y-120835185D02*
G01*
X131741407Y-120845786D01*
X131752446Y-120855351D01*
X131758926Y-120861384D01*
X131767820Y-120870278D01*
X131777907Y-120877829D01*
X131784778Y-120883367D01*
X131820282Y-120914130D01*
X131823840Y-120915755D01*
X131846642Y-120929284D01*
X131849768Y-120931624D01*
X131849770Y-120931625D01*
X131849774Y-120931628D01*
X131849777Y-120931629D01*
X131893772Y-120948039D01*
X131901936Y-120951420D01*
X131944658Y-120970931D01*
X131948534Y-120971488D01*
X131974216Y-120978042D01*
X131977885Y-120979411D01*
X132024719Y-120982760D01*
X132033514Y-120983706D01*
X132045989Y-120985500D01*
X132058587Y-120985500D01*
X132067433Y-120985815D01*
X132114270Y-120989166D01*
X132118101Y-120988332D01*
X132144453Y-120985500D01*
X132999138Y-120985500D01*
X133066177Y-121005185D01*
X133086819Y-121021819D01*
X136525000Y-124460000D01*
X139576000Y-124460000D01*
X139643039Y-124479685D01*
X139688794Y-124532489D01*
X139700000Y-124584000D01*
X139700000Y-128146000D01*
X139680315Y-128213039D01*
X139627511Y-128258794D01*
X139576000Y-128270000D01*
X136576362Y-128270000D01*
X136509323Y-128250315D01*
X136488681Y-128233681D01*
X133985000Y-125730000D01*
X133136821Y-125730000D01*
X133069782Y-125710315D01*
X133049140Y-125693681D01*
X132569819Y-125214360D01*
X132536334Y-125153037D01*
X132533500Y-125126679D01*
X132533500Y-124524458D01*
X132536334Y-124498099D01*
X132537167Y-124494271D01*
X132533816Y-124447420D01*
X132533500Y-124438573D01*
X132533500Y-124425989D01*
X132533499Y-124425983D01*
X132531708Y-124413525D01*
X132530761Y-124404720D01*
X132527412Y-124357886D01*
X132526044Y-124354220D01*
X132519487Y-124328526D01*
X132518931Y-124324658D01*
X132499419Y-124281936D01*
X132496044Y-124273786D01*
X132479629Y-124229774D01*
X132477278Y-124226634D01*
X132463756Y-124203844D01*
X132462130Y-124200282D01*
X132431379Y-124164793D01*
X132425825Y-124157900D01*
X132418286Y-124147829D01*
X132418284Y-124147826D01*
X132418279Y-124147820D01*
X132409372Y-124138913D01*
X132403354Y-124132450D01*
X132372589Y-124096945D01*
X132369291Y-124094825D01*
X132348651Y-124078192D01*
X130919808Y-122649349D01*
X130903172Y-122628704D01*
X130901058Y-122625415D01*
X130901057Y-122625414D01*
X130901056Y-122625413D01*
X130901055Y-122625411D01*
X130865548Y-122594645D01*
X130859097Y-122588638D01*
X130850180Y-122579721D01*
X130840092Y-122572169D01*
X130833211Y-122566625D01*
X130797718Y-122535870D01*
X130794152Y-122534241D01*
X130771362Y-122520718D01*
X130768227Y-122518371D01*
X130724223Y-122501959D01*
X130716068Y-122498581D01*
X130673342Y-122479069D01*
X130673341Y-122479068D01*
X130673337Y-122479067D01*
X130669455Y-122478509D01*
X130643791Y-122471959D01*
X130640122Y-122470591D01*
X130640117Y-122470590D01*
X130640115Y-122470589D01*
X130631760Y-122469991D01*
X130593273Y-122467237D01*
X130584494Y-122466293D01*
X130572019Y-122464501D01*
X130572016Y-122464500D01*
X130572011Y-122464500D01*
X130572005Y-122464500D01*
X130559423Y-122464500D01*
X130550575Y-122464184D01*
X130503731Y-122460833D01*
X130503728Y-122460833D01*
X130501841Y-122461243D01*
X130499898Y-122461666D01*
X130473542Y-122464500D01*
X129188285Y-122464500D01*
X129138199Y-122453934D01*
X129098077Y-122436218D01*
X129055492Y-122417415D01*
X129030368Y-122414500D01*
X128394000Y-122414500D01*
X128326961Y-122394815D01*
X128281206Y-122342011D01*
X128270000Y-122290500D01*
X128270000Y-122289499D01*
X128289685Y-122222460D01*
X128342489Y-122176705D01*
X128393998Y-122165499D01*
X129030364Y-122165499D01*
X129030379Y-122165497D01*
X129030382Y-122165497D01*
X129055487Y-122162586D01*
X129055488Y-122162585D01*
X129055491Y-122162585D01*
X129158265Y-122117206D01*
X129237706Y-122037765D01*
X129283085Y-121934991D01*
X129286000Y-121909865D01*
X129285999Y-121370136D01*
X129285997Y-121370117D01*
X129283086Y-121345012D01*
X129283085Y-121345010D01*
X129283085Y-121345009D01*
X129237706Y-121242235D01*
X129158265Y-121162794D01*
X129055492Y-121117415D01*
X129030368Y-121114500D01*
X128394000Y-121114500D01*
X128326961Y-121094815D01*
X128281206Y-121042011D01*
X128270000Y-120990500D01*
X128270000Y-120989499D01*
X128289685Y-120922460D01*
X128342489Y-120876705D01*
X128393998Y-120865499D01*
X129030364Y-120865499D01*
X129030379Y-120865497D01*
X129030382Y-120865497D01*
X129055487Y-120862586D01*
X129055491Y-120862585D01*
X129138199Y-120826066D01*
X129188285Y-120815500D01*
X131660206Y-120815500D01*
X131727245Y-120835185D01*
G37*
%TD.AperFunction*%
%TD*%
%TA.AperFunction,Conductor*%
%TO.N,VCC*%
G36*
X130356718Y-123435185D02*
G01*
X130377360Y-123451819D01*
X131546181Y-124620640D01*
X131579666Y-124681963D01*
X131582500Y-124708321D01*
X131582500Y-125310542D01*
X131579666Y-125336899D01*
X131578833Y-125340725D01*
X131578833Y-125340730D01*
X131582184Y-125387573D01*
X131582500Y-125396421D01*
X131582500Y-125409004D01*
X131582501Y-125409019D01*
X131584293Y-125421494D01*
X131585237Y-125430273D01*
X131588589Y-125477113D01*
X131588591Y-125477122D01*
X131589959Y-125480791D01*
X131596509Y-125506455D01*
X131597067Y-125510337D01*
X131597068Y-125510341D01*
X131597069Y-125510342D01*
X131616581Y-125553068D01*
X131619959Y-125561223D01*
X131636371Y-125605227D01*
X131638718Y-125608362D01*
X131652241Y-125631152D01*
X131653870Y-125634718D01*
X131684625Y-125670211D01*
X131690169Y-125677092D01*
X131697721Y-125687180D01*
X131706638Y-125696097D01*
X131712645Y-125702548D01*
X131743411Y-125738055D01*
X131743413Y-125738056D01*
X131743414Y-125738057D01*
X131743415Y-125738058D01*
X131746704Y-125740172D01*
X131767349Y-125756808D01*
X132674591Y-126664050D01*
X132693000Y-126697763D01*
X132693000Y-131826000D01*
X128006093Y-131826000D01*
X127993939Y-131825403D01*
X127817065Y-131807982D01*
X127793224Y-131803240D01*
X127629001Y-131753424D01*
X127606543Y-131744121D01*
X127455201Y-131663227D01*
X127434989Y-131649722D01*
X127302333Y-131540854D01*
X127285145Y-131523666D01*
X127176277Y-131391010D01*
X127162774Y-131370802D01*
X127137553Y-131323617D01*
X127123313Y-131255215D01*
X127148314Y-131189971D01*
X127204619Y-131148602D01*
X127259515Y-131141808D01*
X127263000Y-131142164D01*
X127263000Y-130525000D01*
X127963000Y-130525000D01*
X127963000Y-131142165D01*
X127985607Y-131139855D01*
X128146481Y-131086547D01*
X128146492Y-131086542D01*
X128290728Y-130997575D01*
X128290732Y-130997572D01*
X128410572Y-130877732D01*
X128410575Y-130877728D01*
X128499542Y-130733492D01*
X128499548Y-130733479D01*
X128552856Y-130572604D01*
X128557720Y-130525000D01*
X127963000Y-130525000D01*
X127263000Y-130525000D01*
X127263000Y-129207834D01*
X127963000Y-129207834D01*
X127963000Y-129825000D01*
X128557718Y-129825000D01*
X128552855Y-129777394D01*
X128552855Y-129777391D01*
X128499547Y-129616518D01*
X128499542Y-129616507D01*
X128410575Y-129472271D01*
X128410572Y-129472267D01*
X128290732Y-129352427D01*
X128290728Y-129352424D01*
X128146492Y-129263457D01*
X128146481Y-129263452D01*
X127985602Y-129210143D01*
X127985606Y-129210143D01*
X127963000Y-129207834D01*
X127263000Y-129207834D01*
X127240394Y-129210143D01*
X127163003Y-129235788D01*
X127093174Y-129238189D01*
X127033133Y-129202457D01*
X127001941Y-129139936D01*
X127000000Y-129118082D01*
X127000000Y-128691917D01*
X127019685Y-128624878D01*
X127072489Y-128579123D01*
X127141647Y-128569179D01*
X127163005Y-128574211D01*
X127240394Y-128599855D01*
X127262999Y-128602165D01*
X127263000Y-128602165D01*
X127263000Y-127985000D01*
X127963000Y-127985000D01*
X127963000Y-128602165D01*
X127985607Y-128599855D01*
X128146481Y-128546547D01*
X128146492Y-128546542D01*
X128290728Y-128457575D01*
X128290732Y-128457572D01*
X128410572Y-128337732D01*
X128410575Y-128337728D01*
X128499542Y-128193492D01*
X128499548Y-128193479D01*
X128552856Y-128032604D01*
X128557720Y-127985000D01*
X127963000Y-127985000D01*
X127263000Y-127985000D01*
X127263000Y-126667834D01*
X127963000Y-126667834D01*
X127963000Y-127285000D01*
X128557718Y-127285000D01*
X128552855Y-127237394D01*
X128552855Y-127237391D01*
X128499547Y-127076518D01*
X128499542Y-127076507D01*
X128410575Y-126932271D01*
X128410572Y-126932267D01*
X128290732Y-126812427D01*
X128290728Y-126812424D01*
X128146492Y-126723457D01*
X128146481Y-126723452D01*
X127985602Y-126670143D01*
X127985606Y-126670143D01*
X127963000Y-126667834D01*
X127263000Y-126667834D01*
X127240394Y-126670143D01*
X127163003Y-126695788D01*
X127093174Y-126698189D01*
X127033133Y-126662457D01*
X127001941Y-126599936D01*
X127000000Y-126578082D01*
X127000000Y-125605142D01*
X127019685Y-125538103D01*
X127072489Y-125492348D01*
X127141647Y-125482404D01*
X127198312Y-125505876D01*
X127268410Y-125558352D01*
X127268413Y-125558354D01*
X127403120Y-125608596D01*
X127403127Y-125608598D01*
X127462655Y-125614999D01*
X127462672Y-125615000D01*
X128023000Y-125615000D01*
X128023000Y-125115000D01*
X128473000Y-125115000D01*
X128473000Y-125615000D01*
X129033328Y-125615000D01*
X129033344Y-125614999D01*
X129092872Y-125608598D01*
X129092879Y-125608596D01*
X129227586Y-125558354D01*
X129227593Y-125558350D01*
X129342687Y-125472190D01*
X129342690Y-125472187D01*
X129428850Y-125357093D01*
X129428854Y-125357086D01*
X129479096Y-125222379D01*
X129479098Y-125222372D01*
X129485499Y-125162844D01*
X129485500Y-125162827D01*
X129485500Y-125115000D01*
X128473000Y-125115000D01*
X128023000Y-125115000D01*
X128023000Y-124465000D01*
X128473000Y-124465000D01*
X128473000Y-124665000D01*
X129485500Y-124665000D01*
X129485500Y-124617179D01*
X129485499Y-124617168D01*
X129481315Y-124578258D01*
X129481315Y-124551742D01*
X129485499Y-124512831D01*
X129485500Y-124512821D01*
X129485500Y-124465000D01*
X128473000Y-124465000D01*
X128023000Y-124465000D01*
X128023000Y-123815000D01*
X128473000Y-123815000D01*
X128473000Y-124015000D01*
X129485500Y-124015000D01*
X129485500Y-123967179D01*
X129485499Y-123967168D01*
X129481315Y-123928258D01*
X129481315Y-123901742D01*
X129485499Y-123862831D01*
X129485500Y-123862821D01*
X129485500Y-123815000D01*
X128473000Y-123815000D01*
X128023000Y-123815000D01*
X128023000Y-123589499D01*
X128042685Y-123522460D01*
X128095489Y-123476705D01*
X128146997Y-123465499D01*
X129030364Y-123465499D01*
X129030379Y-123465497D01*
X129030382Y-123465497D01*
X129055487Y-123462586D01*
X129055491Y-123462585D01*
X129138199Y-123426066D01*
X129188285Y-123415500D01*
X130289679Y-123415500D01*
X130356718Y-123435185D01*
G37*
%TD.AperFunction*%
%TD*%
%TA.AperFunction,Conductor*%
%TO.N,Net-(IC1-OUTNR)*%
G36*
X139643039Y-111779685D02*
G01*
X139688794Y-111832489D01*
X139700000Y-111884000D01*
X139700000Y-115446000D01*
X139680315Y-115513039D01*
X139627511Y-115558794D01*
X139576000Y-115570000D01*
X135889999Y-115570000D01*
X133086819Y-118373181D01*
X133025496Y-118406666D01*
X132999138Y-118409500D01*
X132144458Y-118409500D01*
X132118101Y-118406666D01*
X132114271Y-118405833D01*
X132114268Y-118405833D01*
X132067425Y-118409184D01*
X132058577Y-118409500D01*
X132045984Y-118409500D01*
X132033508Y-118411293D01*
X132024725Y-118412237D01*
X131977883Y-118415589D01*
X131974211Y-118416959D01*
X131948537Y-118423511D01*
X131944661Y-118424068D01*
X131944658Y-118424069D01*
X131901943Y-118443575D01*
X131893771Y-118446960D01*
X131849776Y-118463370D01*
X131849772Y-118463372D01*
X131846629Y-118465725D01*
X131823856Y-118479237D01*
X131820284Y-118480868D01*
X131820278Y-118480872D01*
X131784800Y-118511613D01*
X131777922Y-118517156D01*
X131767819Y-118524720D01*
X131764359Y-118528181D01*
X131703036Y-118561666D01*
X131676678Y-118564500D01*
X129188285Y-118564500D01*
X129138199Y-118553934D01*
X129072038Y-118524721D01*
X129055492Y-118517415D01*
X129030368Y-118514500D01*
X128394000Y-118514500D01*
X128326961Y-118494815D01*
X128281206Y-118442011D01*
X128270000Y-118390500D01*
X128270000Y-118389499D01*
X128289685Y-118322460D01*
X128342489Y-118276705D01*
X128393998Y-118265499D01*
X129030364Y-118265499D01*
X129030379Y-118265497D01*
X129030382Y-118265497D01*
X129055487Y-118262586D01*
X129055488Y-118262585D01*
X129055491Y-118262585D01*
X129158265Y-118217206D01*
X129237706Y-118137765D01*
X129283085Y-118034991D01*
X129286000Y-118009865D01*
X129285999Y-117470136D01*
X129285997Y-117470117D01*
X129283086Y-117445012D01*
X129283085Y-117445010D01*
X129283085Y-117445009D01*
X129237706Y-117342235D01*
X129158265Y-117262794D01*
X129055492Y-117217415D01*
X129030368Y-117214500D01*
X128394000Y-117214500D01*
X128326961Y-117194815D01*
X128281206Y-117142011D01*
X128270000Y-117090500D01*
X128270000Y-117089499D01*
X128289685Y-117022460D01*
X128342489Y-116976705D01*
X128393998Y-116965499D01*
X129030364Y-116965499D01*
X129030379Y-116965497D01*
X129030382Y-116965497D01*
X129055487Y-116962586D01*
X129055491Y-116962585D01*
X129138199Y-116926066D01*
X129188285Y-116915500D01*
X130488542Y-116915500D01*
X130514898Y-116918333D01*
X130518729Y-116919167D01*
X130565575Y-116915815D01*
X130574423Y-116915500D01*
X130587011Y-116915500D01*
X130599485Y-116913706D01*
X130608266Y-116912761D01*
X130655115Y-116909411D01*
X130658781Y-116908043D01*
X130684469Y-116901487D01*
X130688342Y-116900931D01*
X130731072Y-116881415D01*
X130739207Y-116878045D01*
X130783226Y-116861629D01*
X130786358Y-116859283D01*
X130809158Y-116845756D01*
X130810731Y-116845037D01*
X130812718Y-116844130D01*
X130848206Y-116813378D01*
X130855084Y-116807835D01*
X130865180Y-116800279D01*
X130874098Y-116791360D01*
X130880565Y-116785340D01*
X130916055Y-116754589D01*
X130918171Y-116751295D01*
X130934803Y-116730654D01*
X132348650Y-115316806D01*
X132369291Y-115300173D01*
X132372589Y-115298055D01*
X132403346Y-115262557D01*
X132409366Y-115256091D01*
X132418278Y-115247180D01*
X132425827Y-115237094D01*
X132431374Y-115230212D01*
X132462126Y-115194723D01*
X132462126Y-115194722D01*
X132462130Y-115194718D01*
X132463756Y-115191156D01*
X132477288Y-115168350D01*
X132479628Y-115165226D01*
X132496039Y-115121225D01*
X132499410Y-115113085D01*
X132518931Y-115070342D01*
X132519487Y-115066469D01*
X132526046Y-115040772D01*
X132527411Y-115037115D01*
X132530761Y-114990263D01*
X132531702Y-114981509D01*
X132533500Y-114969011D01*
X132533500Y-114956413D01*
X132533816Y-114947566D01*
X132537166Y-114900731D01*
X132536334Y-114896907D01*
X132533500Y-114870546D01*
X132533500Y-114268321D01*
X132553185Y-114201282D01*
X132569819Y-114180640D01*
X133049140Y-113701319D01*
X133110463Y-113667834D01*
X133136821Y-113665000D01*
X133985000Y-113665000D01*
X135853681Y-111796319D01*
X135915004Y-111762834D01*
X135941362Y-111760000D01*
X139576000Y-111760000D01*
X139643039Y-111779685D01*
G37*
%TD.AperFunction*%
%TD*%
%TA.AperFunction,Conductor*%
%TO.N,VCC*%
G36*
X132693000Y-112701898D02*
G01*
X132684915Y-112720380D01*
X132680918Y-112724621D01*
X131765442Y-113640097D01*
X131748965Y-113653375D01*
X131743413Y-113656943D01*
X131712066Y-113693117D01*
X131707258Y-113698281D01*
X131697721Y-113707818D01*
X131689628Y-113718629D01*
X131685200Y-113724123D01*
X131653869Y-113760282D01*
X131651123Y-113766294D01*
X131640333Y-113784479D01*
X131636371Y-113789772D01*
X131636370Y-113789774D01*
X131619648Y-113834606D01*
X131616945Y-113841133D01*
X131597068Y-113884657D01*
X131596127Y-113891203D01*
X131590899Y-113911688D01*
X131588589Y-113917881D01*
X131588588Y-113917886D01*
X131585172Y-113965621D01*
X131584419Y-113972633D01*
X131582500Y-113985989D01*
X131582500Y-113999466D01*
X131582248Y-114006529D01*
X131578833Y-114054271D01*
X131580237Y-114060727D01*
X131582500Y-114081771D01*
X131582500Y-114697033D01*
X131563593Y-114755224D01*
X131553504Y-114767037D01*
X130385037Y-115935504D01*
X130330520Y-115963281D01*
X130315033Y-115964500D01*
X129183012Y-115964500D01*
X129143026Y-115956065D01*
X129055491Y-115917415D01*
X129055490Y-115917414D01*
X129055488Y-115917414D01*
X129030369Y-115914500D01*
X128122000Y-115914500D01*
X128063809Y-115895593D01*
X128027845Y-115846093D01*
X128023000Y-115815500D01*
X128023000Y-115564999D01*
X128473000Y-115564999D01*
X128473001Y-115565000D01*
X129485499Y-115565000D01*
X129485500Y-115564999D01*
X129485500Y-115517175D01*
X129481028Y-115475584D01*
X129481028Y-115454416D01*
X129485500Y-115412824D01*
X129485500Y-115365001D01*
X129485499Y-115365000D01*
X128473001Y-115365000D01*
X128473000Y-115365001D01*
X128473000Y-115564999D01*
X128023000Y-115564999D01*
X128023000Y-114914999D01*
X128473000Y-114914999D01*
X128473001Y-114915000D01*
X129485499Y-114915000D01*
X129485500Y-114914999D01*
X129485500Y-114867175D01*
X129479098Y-114807629D01*
X129479096Y-114807618D01*
X129428853Y-114672911D01*
X129428852Y-114672909D01*
X129342692Y-114557815D01*
X129342684Y-114557807D01*
X129227590Y-114471647D01*
X129227588Y-114471646D01*
X129092881Y-114421403D01*
X129092870Y-114421401D01*
X129033324Y-114415000D01*
X128473001Y-114415000D01*
X128473000Y-114415001D01*
X128473000Y-114914999D01*
X128023000Y-114914999D01*
X128023000Y-114415001D01*
X128022999Y-114415000D01*
X127462676Y-114415000D01*
X127403129Y-114421401D01*
X127403118Y-114421403D01*
X127268411Y-114471646D01*
X127268409Y-114471647D01*
X127158329Y-114554054D01*
X127100415Y-114573791D01*
X127041960Y-114555717D01*
X127005292Y-114506736D01*
X127000000Y-114474801D01*
X127000000Y-113417296D01*
X127018907Y-113359105D01*
X127068407Y-113323141D01*
X127129593Y-113323141D01*
X127130140Y-113323321D01*
X127240393Y-113359855D01*
X127240398Y-113359856D01*
X127262999Y-113362165D01*
X127263000Y-113362165D01*
X127963000Y-113362165D01*
X127985601Y-113359856D01*
X127985606Y-113359855D01*
X128146487Y-113306545D01*
X128290729Y-113217574D01*
X128410574Y-113097729D01*
X128499545Y-112953487D01*
X128552856Y-112792603D01*
X128557720Y-112745000D01*
X127963001Y-112745000D01*
X127963000Y-112745001D01*
X127963000Y-113362165D01*
X127263000Y-113362165D01*
X127263000Y-111427834D01*
X127262999Y-111427833D01*
X127963000Y-111427833D01*
X127963000Y-112044999D01*
X127963001Y-112045000D01*
X128557719Y-112045000D01*
X128557719Y-112044999D01*
X128552857Y-111997401D01*
X128552854Y-111997390D01*
X128499545Y-111836512D01*
X128410574Y-111692270D01*
X128290729Y-111572425D01*
X128146487Y-111483454D01*
X127985604Y-111430143D01*
X127963000Y-111427833D01*
X127262999Y-111427833D01*
X127240395Y-111430143D01*
X127130140Y-111466678D01*
X127068956Y-111467034D01*
X127019247Y-111431359D01*
X127000002Y-111373279D01*
X127000000Y-111372703D01*
X127000000Y-110877296D01*
X127018907Y-110819105D01*
X127068407Y-110783141D01*
X127129593Y-110783141D01*
X127130140Y-110783321D01*
X127240393Y-110819855D01*
X127240398Y-110819856D01*
X127262999Y-110822165D01*
X127263000Y-110822165D01*
X127963000Y-110822165D01*
X127985601Y-110819856D01*
X127985606Y-110819855D01*
X128146487Y-110766545D01*
X128290729Y-110677574D01*
X128410574Y-110557729D01*
X128499545Y-110413487D01*
X128552856Y-110252603D01*
X128557720Y-110205000D01*
X127963001Y-110205000D01*
X127963000Y-110205001D01*
X127963000Y-110822165D01*
X127263000Y-110822165D01*
X127263000Y-108887834D01*
X127262999Y-108887833D01*
X127963000Y-108887833D01*
X127963000Y-109504999D01*
X127963001Y-109505000D01*
X128557719Y-109505000D01*
X128557719Y-109504999D01*
X128552857Y-109457401D01*
X128552854Y-109457390D01*
X128499545Y-109296512D01*
X128410574Y-109152270D01*
X128290729Y-109032425D01*
X128146487Y-108943454D01*
X127985604Y-108890143D01*
X127963000Y-108887833D01*
X127262999Y-108887833D01*
X127240395Y-108890143D01*
X127240389Y-108890144D01*
X127231348Y-108893140D01*
X127170164Y-108893492D01*
X127120458Y-108857813D01*
X127101217Y-108799732D01*
X127112904Y-108752498D01*
X127163938Y-108657020D01*
X127174707Y-108640902D01*
X127286710Y-108504426D01*
X127300426Y-108490710D01*
X127436902Y-108378707D01*
X127453020Y-108367938D01*
X127608727Y-108284711D01*
X127626635Y-108277293D01*
X127795583Y-108226044D01*
X127814609Y-108222259D01*
X127995157Y-108204476D01*
X128004861Y-108204000D01*
X128851153Y-108204000D01*
X128851159Y-108204000D01*
X132693000Y-108204000D01*
X132693000Y-112701898D01*
G37*
%TD.AperFunction*%
%TD*%
%TA.AperFunction,Conductor*%
%TO.N,VCC*%
G36*
X132868734Y-127153734D02*
G01*
X132868739Y-127153740D01*
X133151181Y-127436181D01*
X133184666Y-127497504D01*
X133187500Y-127523862D01*
X133187500Y-127546144D01*
X133192825Y-127590494D01*
X133197640Y-127630588D01*
X133250636Y-127764976D01*
X133337921Y-127880078D01*
X133453023Y-127967363D01*
X133453024Y-127967363D01*
X133453025Y-127967364D01*
X133587410Y-128020359D01*
X133671856Y-128030500D01*
X133671862Y-128030500D01*
X133694138Y-128030500D01*
X133761177Y-128050185D01*
X133781819Y-128066819D01*
X142693515Y-136978515D01*
X142704210Y-136990710D01*
X142784677Y-137095577D01*
X142800862Y-137123610D01*
X142848307Y-137238153D01*
X142856685Y-137269420D01*
X142873939Y-137400469D01*
X142875000Y-137416655D01*
X142875000Y-141631872D01*
X142873939Y-141648058D01*
X142856685Y-141779107D01*
X142848307Y-141810374D01*
X142800862Y-141924917D01*
X142784677Y-141952950D01*
X142709202Y-142051312D01*
X142686312Y-142074202D01*
X142587950Y-142149677D01*
X142559917Y-142165862D01*
X142445374Y-142213307D01*
X142414107Y-142221685D01*
X142283059Y-142238939D01*
X142266873Y-142240000D01*
X139956288Y-142240000D01*
X139940123Y-142238942D01*
X139809237Y-142221732D01*
X139778009Y-142213376D01*
X139764240Y-142207681D01*
X139663586Y-142166049D01*
X139635581Y-142149906D01*
X139635282Y-142149677D01*
X139530774Y-142069625D01*
X139518599Y-142058968D01*
X137568509Y-140112844D01*
X138835000Y-140112844D01*
X138841401Y-140172372D01*
X138841403Y-140172379D01*
X138891645Y-140307086D01*
X138891649Y-140307093D01*
X138977809Y-140422187D01*
X138977812Y-140422190D01*
X139092906Y-140508350D01*
X139092913Y-140508354D01*
X139227620Y-140558596D01*
X139227627Y-140558598D01*
X139287155Y-140564999D01*
X139287172Y-140565000D01*
X139985000Y-140565000D01*
X139985000Y-139423318D01*
X140061900Y-139489952D01*
X140192685Y-139549680D01*
X140299237Y-139565000D01*
X140370763Y-139565000D01*
X140477315Y-139549680D01*
X140608100Y-139489952D01*
X140685000Y-139423318D01*
X140685000Y-140565000D01*
X141382828Y-140565000D01*
X141382844Y-140564999D01*
X141442372Y-140558598D01*
X141442379Y-140558596D01*
X141577086Y-140508354D01*
X141577093Y-140508350D01*
X141692187Y-140422190D01*
X141692190Y-140422187D01*
X141778350Y-140307093D01*
X141778354Y-140307086D01*
X141828596Y-140172379D01*
X141828598Y-140172372D01*
X141834999Y-140112844D01*
X141835000Y-140112827D01*
X141835000Y-139415000D01*
X140694600Y-139415000D01*
X140716761Y-139395798D01*
X140794493Y-139274844D01*
X140835000Y-139136889D01*
X140835000Y-138993111D01*
X140794493Y-138855156D01*
X140716761Y-138734202D01*
X140694600Y-138715000D01*
X141835000Y-138715000D01*
X141835000Y-138017172D01*
X141834999Y-138017155D01*
X141828598Y-137957627D01*
X141828596Y-137957620D01*
X141778354Y-137822913D01*
X141778350Y-137822906D01*
X141692190Y-137707812D01*
X141692187Y-137707809D01*
X141577093Y-137621649D01*
X141577086Y-137621645D01*
X141442379Y-137571403D01*
X141442372Y-137571401D01*
X141382844Y-137565000D01*
X140685000Y-137565000D01*
X140685000Y-138706681D01*
X140608100Y-138640048D01*
X140477315Y-138580320D01*
X140370763Y-138565000D01*
X140299237Y-138565000D01*
X140192685Y-138580320D01*
X140061900Y-138640048D01*
X139985000Y-138706681D01*
X139985000Y-137565000D01*
X139287155Y-137565000D01*
X139227627Y-137571401D01*
X139227620Y-137571403D01*
X139092913Y-137621645D01*
X139092906Y-137621649D01*
X138977812Y-137707809D01*
X138977809Y-137707812D01*
X138891649Y-137822906D01*
X138891645Y-137822913D01*
X138841403Y-137957620D01*
X138841401Y-137957627D01*
X138835000Y-138017155D01*
X138835000Y-138715000D01*
X139975400Y-138715000D01*
X139953239Y-138734202D01*
X139875507Y-138855156D01*
X139835000Y-138993111D01*
X139835000Y-139136889D01*
X139875507Y-139274844D01*
X139953239Y-139395798D01*
X139975400Y-139415000D01*
X138835000Y-139415000D01*
X138835000Y-140112844D01*
X137568509Y-140112844D01*
X128883000Y-131445000D01*
X128883000Y-126365000D01*
X132080000Y-126365000D01*
X132868734Y-127153734D01*
G37*
%TD.AperFunction*%
%TD*%
%TA.AperFunction,Conductor*%
%TO.N,VCC*%
G36*
X142283058Y-97791061D02*
G01*
X142340772Y-97798659D01*
X142414107Y-97808314D01*
X142445370Y-97816691D01*
X142559919Y-97864138D01*
X142587950Y-97880322D01*
X142686314Y-97955799D01*
X142709202Y-97978687D01*
X142784677Y-98077049D01*
X142800862Y-98105082D01*
X142848307Y-98219625D01*
X142856685Y-98250892D01*
X142873939Y-98381941D01*
X142875000Y-98398127D01*
X142875000Y-101978344D01*
X142873939Y-101994530D01*
X142856685Y-102125579D01*
X142848307Y-102156846D01*
X142800862Y-102271389D01*
X142784677Y-102299422D01*
X142704210Y-102404289D01*
X142693515Y-102416484D01*
X133781819Y-111328181D01*
X133720496Y-111361666D01*
X133697552Y-111364132D01*
X133697561Y-111364278D01*
X133694495Y-111364461D01*
X133694138Y-111364500D01*
X133693856Y-111364500D01*
X133655841Y-111369065D01*
X133609411Y-111374640D01*
X133475023Y-111427636D01*
X133359921Y-111514921D01*
X133272636Y-111630023D01*
X133219640Y-111764411D01*
X133214065Y-111810841D01*
X133209500Y-111848856D01*
X133209500Y-111848862D01*
X133209500Y-111849137D01*
X133209478Y-111849209D01*
X133209278Y-111852561D01*
X133208508Y-111852514D01*
X133189815Y-111916176D01*
X133173181Y-111936818D01*
X132868740Y-112241258D01*
X132868734Y-112241265D01*
X132868730Y-112241269D01*
X131445000Y-113665000D01*
X128883000Y-113665000D01*
X128883000Y-108585000D01*
X135468549Y-102012844D01*
X138835000Y-102012844D01*
X138841401Y-102072372D01*
X138841403Y-102072379D01*
X138891645Y-102207086D01*
X138891649Y-102207093D01*
X138977809Y-102322187D01*
X138977812Y-102322190D01*
X139092906Y-102408350D01*
X139092913Y-102408354D01*
X139227620Y-102458596D01*
X139227627Y-102458598D01*
X139287155Y-102464999D01*
X139287172Y-102465000D01*
X139985000Y-102465000D01*
X139985000Y-101323318D01*
X140061900Y-101389952D01*
X140192685Y-101449680D01*
X140299237Y-101465000D01*
X140370763Y-101465000D01*
X140477315Y-101449680D01*
X140608100Y-101389952D01*
X140685000Y-101323318D01*
X140685000Y-102465000D01*
X141382828Y-102465000D01*
X141382844Y-102464999D01*
X141442372Y-102458598D01*
X141442379Y-102458596D01*
X141577086Y-102408354D01*
X141577093Y-102408350D01*
X141692187Y-102322190D01*
X141692190Y-102322187D01*
X141778350Y-102207093D01*
X141778354Y-102207086D01*
X141828596Y-102072379D01*
X141828598Y-102072372D01*
X141834999Y-102012844D01*
X141835000Y-102012827D01*
X141835000Y-101315000D01*
X140694600Y-101315000D01*
X140716761Y-101295798D01*
X140794493Y-101174844D01*
X140835000Y-101036889D01*
X140835000Y-100893111D01*
X140794493Y-100755156D01*
X140716761Y-100634202D01*
X140694600Y-100615000D01*
X141835000Y-100615000D01*
X141835000Y-99917172D01*
X141834999Y-99917155D01*
X141828598Y-99857627D01*
X141828596Y-99857620D01*
X141778354Y-99722913D01*
X141778350Y-99722906D01*
X141692190Y-99607812D01*
X141692187Y-99607809D01*
X141577093Y-99521649D01*
X141577086Y-99521645D01*
X141442379Y-99471403D01*
X141442372Y-99471401D01*
X141382844Y-99465000D01*
X140685000Y-99465000D01*
X140685000Y-100606681D01*
X140608100Y-100540048D01*
X140477315Y-100480320D01*
X140370763Y-100465000D01*
X140299237Y-100465000D01*
X140192685Y-100480320D01*
X140061900Y-100540048D01*
X139985000Y-100606681D01*
X139985000Y-99465000D01*
X139287155Y-99465000D01*
X139227627Y-99471401D01*
X139227620Y-99471403D01*
X139092913Y-99521645D01*
X139092906Y-99521649D01*
X138977812Y-99607809D01*
X138977809Y-99607812D01*
X138891649Y-99722906D01*
X138891645Y-99722913D01*
X138841403Y-99857620D01*
X138841401Y-99857627D01*
X138835000Y-99917155D01*
X138835000Y-100615000D01*
X139975400Y-100615000D01*
X139953239Y-100634202D01*
X139875507Y-100755156D01*
X139835000Y-100893111D01*
X139835000Y-101036889D01*
X139875507Y-101174844D01*
X139953239Y-101295798D01*
X139975400Y-101315000D01*
X138835000Y-101315000D01*
X138835000Y-102012844D01*
X135468549Y-102012844D01*
X139518599Y-97971030D01*
X139530774Y-97960373D01*
X139635587Y-97880089D01*
X139663580Y-97863952D01*
X139778015Y-97816621D01*
X139809236Y-97808267D01*
X139940123Y-97791057D01*
X139956288Y-97790000D01*
X142266873Y-97790000D01*
X142283058Y-97791061D01*
G37*
%TD.AperFunction*%
%TD*%
%TA.AperFunction,Conductor*%
%TO.N,GND*%
G36*
X112431640Y-108118067D02*
G01*
X112466864Y-108142744D01*
X113053181Y-108729061D01*
X113086666Y-108790384D01*
X113089500Y-108816742D01*
X113089500Y-111671822D01*
X113088439Y-111688006D01*
X113084535Y-111717662D01*
X113085779Y-111727109D01*
X113088969Y-111751344D01*
X113088988Y-111751497D01*
X113104313Y-111867897D01*
X113104313Y-111867898D01*
X113152632Y-111984549D01*
X113152632Y-111984550D01*
X113162301Y-112007895D01*
X113233856Y-112101147D01*
X113233867Y-112101161D01*
X113254545Y-112128109D01*
X113254547Y-112128110D01*
X113254549Y-112128113D01*
X113278286Y-112146327D01*
X113290479Y-112157021D01*
X113931277Y-112797819D01*
X113964762Y-112859142D01*
X113959778Y-112928834D01*
X113917906Y-112984767D01*
X113852442Y-113009184D01*
X113843596Y-113009500D01*
X112233774Y-113009500D01*
X112166735Y-112989815D01*
X112132014Y-112954506D01*
X112131513Y-112954886D01*
X112128618Y-112951053D01*
X112128347Y-112950777D01*
X112128060Y-112950313D01*
X111993979Y-112772761D01*
X111829562Y-112622876D01*
X111829560Y-112622874D01*
X111640404Y-112505754D01*
X111640398Y-112505752D01*
X111432940Y-112425382D01*
X111214243Y-112384500D01*
X110991757Y-112384500D01*
X110773060Y-112425382D01*
X110641864Y-112476207D01*
X110565601Y-112505752D01*
X110565595Y-112505754D01*
X110376439Y-112622874D01*
X110376437Y-112622876D01*
X110212020Y-112772761D01*
X110077943Y-112950308D01*
X110077938Y-112950316D01*
X109978775Y-113149461D01*
X109978769Y-113149476D01*
X109917885Y-113363462D01*
X109917884Y-113363464D01*
X109897357Y-113584999D01*
X109897357Y-113585000D01*
X109917884Y-113806535D01*
X109917885Y-113806537D01*
X109978769Y-114020523D01*
X109978775Y-114020538D01*
X110077938Y-114219683D01*
X110077943Y-114219691D01*
X110212020Y-114397238D01*
X110376437Y-114547123D01*
X110376439Y-114547125D01*
X110565595Y-114664245D01*
X110565596Y-114664245D01*
X110565599Y-114664247D01*
X110773060Y-114744618D01*
X110991757Y-114785500D01*
X110991759Y-114785500D01*
X111214241Y-114785500D01*
X111214243Y-114785500D01*
X111432940Y-114744618D01*
X111640401Y-114664247D01*
X111829562Y-114547124D01*
X111993981Y-114397236D01*
X112128058Y-114219689D01*
X112128058Y-114219687D01*
X112128060Y-114219686D01*
X112128347Y-114219223D01*
X112128542Y-114219048D01*
X112131513Y-114215114D01*
X112132282Y-114215695D01*
X112180375Y-114172587D01*
X112233774Y-114160500D01*
X114478920Y-114160500D01*
X114545959Y-114180185D01*
X114566601Y-114196819D01*
X115487601Y-115117819D01*
X115521086Y-115179142D01*
X115516102Y-115248834D01*
X115474230Y-115304767D01*
X115408766Y-115329184D01*
X115399920Y-115329500D01*
X115053636Y-115329500D01*
X114936246Y-115344953D01*
X114936237Y-115344956D01*
X114790160Y-115405463D01*
X114790159Y-115405464D01*
X114664718Y-115501718D01*
X114664716Y-115501719D01*
X114664715Y-115501721D01*
X114628348Y-115549114D01*
X114571920Y-115590316D01*
X114502174Y-115594469D01*
X114441254Y-115560256D01*
X114423857Y-115537776D01*
X114398072Y-115495122D01*
X114277877Y-115374927D01*
X114132396Y-115286981D01*
X114132395Y-115286980D01*
X113993000Y-115243542D01*
X113993000Y-116431000D01*
X113973315Y-116498039D01*
X113920511Y-116543794D01*
X113869000Y-116555000D01*
X112744675Y-116555000D01*
X112749407Y-116607097D01*
X112749409Y-116607105D01*
X112799980Y-116769395D01*
X112887927Y-116914877D01*
X113008122Y-117035072D01*
X113127315Y-117107127D01*
X113174503Y-117158655D01*
X113186341Y-117227514D01*
X113159072Y-117291843D01*
X113138652Y-117311619D01*
X113014720Y-117406716D01*
X112918463Y-117532160D01*
X112857956Y-117678237D01*
X112857955Y-117678239D01*
X112842500Y-117795638D01*
X112842500Y-118424363D01*
X112857953Y-118541753D01*
X112857956Y-118541762D01*
X112918464Y-118687842D01*
X113014715Y-118813279D01*
X113014716Y-118813280D01*
X113014718Y-118813282D01*
X113018982Y-118816554D01*
X113060187Y-118872978D01*
X113067500Y-118914932D01*
X113067500Y-119845067D01*
X113047815Y-119912106D01*
X113018988Y-119943441D01*
X113014719Y-119946716D01*
X112953894Y-120025986D01*
X112897466Y-120067189D01*
X112855518Y-120074500D01*
X112682241Y-120074500D01*
X112615202Y-120054815D01*
X112594560Y-120038181D01*
X112196857Y-119640478D01*
X112186163Y-119628285D01*
X112167949Y-119604548D01*
X112167946Y-119604546D01*
X112167945Y-119604544D01*
X112140997Y-119583866D01*
X112140987Y-119583858D01*
X112047729Y-119512299D01*
X112009392Y-119496420D01*
X112009391Y-119496420D01*
X111907734Y-119454312D01*
X111884588Y-119451264D01*
X111791333Y-119438987D01*
X111791180Y-119438968D01*
X111779496Y-119437430D01*
X111757498Y-119434534D01*
X111757496Y-119434534D01*
X111757495Y-119434534D01*
X111727843Y-119438438D01*
X111711658Y-119439499D01*
X111481300Y-119439499D01*
X111414261Y-119419814D01*
X111368506Y-119367010D01*
X111362224Y-119350094D01*
X111341745Y-119279605D01*
X111341743Y-119279602D01*
X111341743Y-119279601D01*
X111258080Y-119138134D01*
X111258078Y-119138132D01*
X111258075Y-119138128D01*
X111141868Y-119021921D01*
X111138009Y-119018928D01*
X111097100Y-118962287D01*
X111093308Y-118892520D01*
X111126323Y-118833266D01*
X111213170Y-118746420D01*
X111293618Y-118610390D01*
X111337709Y-118458627D01*
X111340500Y-118423163D01*
X111340499Y-117796838D01*
X111337709Y-117761373D01*
X111293618Y-117609610D01*
X111213170Y-117473580D01*
X111213168Y-117473578D01*
X111213165Y-117473574D01*
X111101425Y-117361834D01*
X111101416Y-117361827D01*
X110965390Y-117281382D01*
X110965385Y-117281380D01*
X110813633Y-117237292D01*
X110813620Y-117237290D01*
X110778163Y-117234500D01*
X110201849Y-117234500D01*
X110201824Y-117234501D01*
X110166372Y-117237291D01*
X110014614Y-117281380D01*
X110014609Y-117281382D01*
X109878585Y-117361826D01*
X109878574Y-117361835D01*
X109873034Y-117367375D01*
X109811710Y-117400857D01*
X109742018Y-117395870D01*
X109697676Y-117367371D01*
X109617732Y-117287427D01*
X109617728Y-117287424D01*
X109473492Y-117198457D01*
X109473481Y-117198452D01*
X109312602Y-117145143D01*
X109312606Y-117145143D01*
X109290000Y-117142834D01*
X109290000Y-118336000D01*
X109270315Y-118403039D01*
X109217511Y-118448794D01*
X109166000Y-118460000D01*
X107995281Y-118460000D01*
X108000144Y-118507605D01*
X108000144Y-118507608D01*
X108053452Y-118668481D01*
X108053457Y-118668492D01*
X108063002Y-118683966D01*
X108081443Y-118751358D01*
X108060521Y-118818022D01*
X108022561Y-118854601D01*
X107871658Y-118947679D01*
X107871654Y-118947682D01*
X107747683Y-119071653D01*
X107655642Y-119220874D01*
X107655640Y-119220879D01*
X107600493Y-119387301D01*
X107600492Y-119387308D01*
X107589999Y-119490012D01*
X107589999Y-119664999D01*
X108815999Y-119664999D01*
X108883038Y-119684684D01*
X108928793Y-119737488D01*
X108939999Y-119788999D01*
X108939999Y-121234886D01*
X108992695Y-121229504D01*
X109159118Y-121174357D01*
X109159123Y-121174355D01*
X109308344Y-121082314D01*
X109432316Y-120958342D01*
X109492462Y-120860830D01*
X109544410Y-120814105D01*
X109613372Y-120802882D01*
X109677454Y-120830725D01*
X109704731Y-120862802D01*
X109721918Y-120891864D01*
X109721920Y-120891866D01*
X109721922Y-120891869D01*
X109838128Y-121008075D01*
X109838132Y-121008078D01*
X109838134Y-121008080D01*
X109979601Y-121091743D01*
X110006817Y-121099650D01*
X110137425Y-121137596D01*
X110137428Y-121137596D01*
X110137430Y-121137597D01*
X110174305Y-121140499D01*
X110174313Y-121140499D01*
X110805685Y-121140499D01*
X110805693Y-121140499D01*
X110842568Y-121137597D01*
X110842570Y-121137596D01*
X110842572Y-121137596D01*
X110898263Y-121121416D01*
X111000397Y-121091743D01*
X111141864Y-121008080D01*
X111258080Y-120891864D01*
X111341743Y-120750397D01*
X111359174Y-120690397D01*
X111396779Y-120631513D01*
X111460251Y-120602306D01*
X111529438Y-120612051D01*
X111565931Y-120637312D01*
X111953141Y-121024522D01*
X111963836Y-121036717D01*
X111982048Y-121060451D01*
X111994188Y-121069767D01*
X112009007Y-121081138D01*
X112009028Y-121081155D01*
X112082586Y-121137597D01*
X112102266Y-121152698D01*
X112242263Y-121210687D01*
X112354779Y-121225500D01*
X112354782Y-121225500D01*
X112358792Y-121226028D01*
X112358818Y-121226031D01*
X112392498Y-121230465D01*
X112392499Y-121230465D01*
X112392500Y-121230465D01*
X112422154Y-121226561D01*
X112438339Y-121225500D01*
X112855518Y-121225500D01*
X112922557Y-121245185D01*
X112953892Y-121274013D01*
X113014718Y-121353282D01*
X113063523Y-121390731D01*
X113138651Y-121448379D01*
X113179854Y-121504807D01*
X113184009Y-121574553D01*
X113149797Y-121635473D01*
X113127316Y-121652871D01*
X113008125Y-121724925D01*
X113008121Y-121724928D01*
X112887927Y-121845122D01*
X112799980Y-121990604D01*
X112749409Y-122152893D01*
X112744674Y-122205000D01*
X113869000Y-122205000D01*
X113936039Y-122224685D01*
X113981794Y-122277489D01*
X113993000Y-122329000D01*
X113993000Y-123516456D01*
X114132395Y-123473019D01*
X114277877Y-123385072D01*
X114398070Y-123264879D01*
X114423856Y-123222224D01*
X114475383Y-123175036D01*
X114544243Y-123163197D01*
X114608572Y-123190465D01*
X114628349Y-123210886D01*
X114664715Y-123258279D01*
X114664716Y-123258280D01*
X114664718Y-123258282D01*
X114790159Y-123354536D01*
X114936238Y-123415044D01*
X115053639Y-123430500D01*
X115532360Y-123430499D01*
X115532363Y-123430499D01*
X115649753Y-123415046D01*
X115649757Y-123415044D01*
X115649762Y-123415044D01*
X115795841Y-123354536D01*
X115921282Y-123258282D01*
X116017536Y-123132841D01*
X116078044Y-122986762D01*
X116093500Y-122869361D01*
X116093499Y-122240640D01*
X116093499Y-122240639D01*
X116093499Y-122240636D01*
X116078046Y-122123246D01*
X116078044Y-122123241D01*
X116078044Y-122123238D01*
X116017536Y-121977159D01*
X115921282Y-121851718D01*
X115920774Y-121851328D01*
X115917012Y-121848441D01*
X115875810Y-121792013D01*
X115868500Y-121750067D01*
X115868500Y-121454932D01*
X115888185Y-121387893D01*
X115917015Y-121356555D01*
X115921282Y-121353282D01*
X115982106Y-121274013D01*
X116038533Y-121232811D01*
X116080482Y-121225500D01*
X117407160Y-121225500D01*
X117423345Y-121226561D01*
X117452999Y-121230465D01*
X117453000Y-121230465D01*
X117490714Y-121225500D01*
X117490720Y-121225500D01*
X117570475Y-121215000D01*
X119434500Y-121215000D01*
X119434500Y-121262835D01*
X119438683Y-121301748D01*
X119438683Y-121328252D01*
X119434500Y-121367164D01*
X119434500Y-121415000D01*
X120447000Y-121415000D01*
X120447000Y-121215000D01*
X120897000Y-121215000D01*
X120897000Y-121415000D01*
X121909500Y-121415000D01*
X121909500Y-121367179D01*
X121909499Y-121367168D01*
X121905315Y-121328258D01*
X121905315Y-121301742D01*
X121909499Y-121262831D01*
X121909500Y-121262821D01*
X121909500Y-121215000D01*
X120897000Y-121215000D01*
X120447000Y-121215000D01*
X119434500Y-121215000D01*
X117570475Y-121215000D01*
X117603236Y-121210687D01*
X117743233Y-121152698D01*
X117762913Y-121137597D01*
X117796125Y-121112113D01*
X117841360Y-121077403D01*
X117841364Y-121077398D01*
X117863451Y-121060451D01*
X117881670Y-121036706D01*
X117892351Y-121024527D01*
X118351879Y-120565000D01*
X119434500Y-120565000D01*
X119434500Y-120612827D01*
X119434501Y-120612846D01*
X119438683Y-120651744D01*
X119438684Y-120678254D01*
X119434500Y-120717171D01*
X119434500Y-120765000D01*
X120447000Y-120765000D01*
X120447000Y-120565000D01*
X120897000Y-120565000D01*
X120897000Y-120765000D01*
X121909500Y-120765000D01*
X121909500Y-120717179D01*
X121909499Y-120717168D01*
X121905315Y-120678258D01*
X121905315Y-120651742D01*
X121909499Y-120612831D01*
X121909500Y-120612821D01*
X121909500Y-120565000D01*
X120897000Y-120565000D01*
X120447000Y-120565000D01*
X119434500Y-120565000D01*
X118351879Y-120565000D01*
X118551880Y-120365000D01*
X122440000Y-120365000D01*
X122440000Y-121932844D01*
X122446401Y-121992372D01*
X122446403Y-121992379D01*
X122496645Y-122127086D01*
X122496649Y-122127093D01*
X122582809Y-122242187D01*
X122582812Y-122242190D01*
X122697906Y-122328350D01*
X122697913Y-122328354D01*
X122832620Y-122378596D01*
X122832627Y-122378598D01*
X122892155Y-122384999D01*
X122892172Y-122385000D01*
X124110000Y-122385000D01*
X124110000Y-120365000D01*
X124810000Y-120365000D01*
X124810000Y-122385000D01*
X126027828Y-122385000D01*
X126027844Y-122384999D01*
X126087372Y-122378598D01*
X126087379Y-122378596D01*
X126222086Y-122328354D01*
X126222093Y-122328350D01*
X126337187Y-122242190D01*
X126337190Y-122242187D01*
X126423350Y-122127093D01*
X126423354Y-122127086D01*
X126473596Y-121992379D01*
X126473598Y-121992372D01*
X126479999Y-121932844D01*
X126480000Y-121932827D01*
X126480000Y-120365000D01*
X124810000Y-120365000D01*
X124110000Y-120365000D01*
X122440000Y-120365000D01*
X118551880Y-120365000D01*
X118615061Y-120301819D01*
X118676384Y-120268334D01*
X118702742Y-120265500D01*
X119710448Y-120265500D01*
X119766742Y-120279015D01*
X119809198Y-120300647D01*
X119902975Y-120315499D01*
X119902981Y-120315500D01*
X121441018Y-120315499D01*
X121534804Y-120300646D01*
X121647842Y-120243050D01*
X121737550Y-120153342D01*
X121737551Y-120153339D01*
X121739572Y-120151319D01*
X121800895Y-120117834D01*
X121827254Y-120115000D01*
X121909500Y-120115000D01*
X121909500Y-120067172D01*
X121909499Y-120067155D01*
X121903098Y-120007627D01*
X121903097Y-120007623D01*
X121852852Y-119872911D01*
X121834732Y-119848706D01*
X121810315Y-119783242D01*
X121809999Y-119774413D01*
X121809999Y-119665000D01*
X122440000Y-119665000D01*
X124110000Y-119665000D01*
X124110000Y-117645000D01*
X124810000Y-117645000D01*
X124810000Y-119665000D01*
X126480000Y-119665000D01*
X126480000Y-118097172D01*
X126479999Y-118097155D01*
X126473598Y-118037627D01*
X126473596Y-118037620D01*
X126423354Y-117902913D01*
X126423350Y-117902906D01*
X126337190Y-117787812D01*
X126337187Y-117787809D01*
X126222093Y-117701649D01*
X126222086Y-117701645D01*
X126087379Y-117651403D01*
X126087372Y-117651401D01*
X126027844Y-117645000D01*
X124810000Y-117645000D01*
X124110000Y-117645000D01*
X122892155Y-117645000D01*
X122832627Y-117651401D01*
X122832620Y-117651403D01*
X122697913Y-117701645D01*
X122697906Y-117701649D01*
X122582812Y-117787809D01*
X122582809Y-117787812D01*
X122496649Y-117902906D01*
X122496645Y-117902913D01*
X122446403Y-118037620D01*
X122446401Y-118037627D01*
X122440000Y-118097155D01*
X122440000Y-119665000D01*
X121809999Y-119665000D01*
X121809999Y-119433482D01*
X121802225Y-119384396D01*
X121802225Y-119345605D01*
X121810000Y-119296519D01*
X121809999Y-118783482D01*
X121802225Y-118734396D01*
X121802225Y-118695605D01*
X121810000Y-118646519D01*
X121809999Y-118133482D01*
X121802225Y-118084396D01*
X121802225Y-118045605D01*
X121810000Y-117996519D01*
X121809999Y-117483482D01*
X121807850Y-117469916D01*
X121804137Y-117446468D01*
X121802225Y-117434396D01*
X121802225Y-117395605D01*
X121810000Y-117346519D01*
X121809999Y-117005602D01*
X121829683Y-116938565D01*
X121834734Y-116931291D01*
X121852851Y-116907090D01*
X121852852Y-116907088D01*
X121903097Y-116772376D01*
X121903098Y-116772372D01*
X121909499Y-116712844D01*
X121909500Y-116712827D01*
X121909500Y-116665000D01*
X121827254Y-116665000D01*
X121760215Y-116645315D01*
X121739572Y-116628681D01*
X121737551Y-116626659D01*
X121737550Y-116626658D01*
X121647842Y-116536950D01*
X121647841Y-116536949D01*
X121640941Y-116530049D01*
X121642985Y-116528004D01*
X121609817Y-116485000D01*
X121603830Y-116415388D01*
X121636429Y-116353589D01*
X121642975Y-116347916D01*
X121647839Y-116343051D01*
X121647842Y-116343050D01*
X121737550Y-116253342D01*
X121737551Y-116253339D01*
X121739572Y-116251319D01*
X121800895Y-116217834D01*
X121827254Y-116215000D01*
X121909500Y-116215000D01*
X121909500Y-116167172D01*
X121909499Y-116167155D01*
X121903098Y-116107627D01*
X121903097Y-116107623D01*
X121852852Y-115972911D01*
X121834732Y-115948706D01*
X121810315Y-115883242D01*
X121809999Y-115874413D01*
X121809999Y-115533482D01*
X121802225Y-115484396D01*
X121802225Y-115445605D01*
X121810000Y-115396519D01*
X121809999Y-114883482D01*
X121795146Y-114789696D01*
X121737550Y-114676658D01*
X121737546Y-114676654D01*
X121737545Y-114676652D01*
X121647847Y-114586954D01*
X121647844Y-114586952D01*
X121647842Y-114586950D01*
X121569679Y-114547124D01*
X121534801Y-114529352D01*
X121441024Y-114514500D01*
X119902982Y-114514500D01*
X119809194Y-114529354D01*
X119766743Y-114550985D01*
X119710448Y-114564500D01*
X118140756Y-114564500D01*
X118073717Y-114544815D01*
X118053075Y-114528181D01*
X116794819Y-113269925D01*
X116761334Y-113208602D01*
X116758500Y-113182244D01*
X116758500Y-113002940D01*
X116778185Y-112935901D01*
X116794819Y-112915259D01*
X116812816Y-112897262D01*
X116908489Y-112745000D01*
X125118281Y-112745000D01*
X125123144Y-112792605D01*
X125123144Y-112792608D01*
X125176452Y-112953481D01*
X125176457Y-112953492D01*
X125265424Y-113097728D01*
X125265427Y-113097732D01*
X125385267Y-113217572D01*
X125385271Y-113217575D01*
X125529507Y-113306542D01*
X125529518Y-113306547D01*
X125690392Y-113359855D01*
X125712999Y-113362165D01*
X125713000Y-113362165D01*
X125713000Y-112745000D01*
X125118281Y-112745000D01*
X116908489Y-112745000D01*
X116908789Y-112744522D01*
X116968368Y-112574255D01*
X116976086Y-112505754D01*
X116988565Y-112395003D01*
X116988565Y-112394996D01*
X116968369Y-112215750D01*
X116968366Y-112215737D01*
X116908790Y-112045481D01*
X116908789Y-112045478D01*
X116908488Y-112044999D01*
X125118280Y-112044999D01*
X125118281Y-112045000D01*
X125713000Y-112045000D01*
X125713000Y-111427834D01*
X125690395Y-111430143D01*
X125529518Y-111483452D01*
X125529507Y-111483457D01*
X125385271Y-111572424D01*
X125385267Y-111572427D01*
X125265427Y-111692267D01*
X125265424Y-111692271D01*
X125176457Y-111836507D01*
X125176451Y-111836520D01*
X125123143Y-111997395D01*
X125118280Y-112044999D01*
X116908488Y-112044999D01*
X116902813Y-112035967D01*
X116883815Y-111968730D01*
X116902817Y-111904023D01*
X116908789Y-111894519D01*
X116968368Y-111724252D01*
X116969111Y-111717659D01*
X116988565Y-111545000D01*
X116988565Y-111544993D01*
X116968369Y-111365747D01*
X116968368Y-111365742D01*
X116949347Y-111311382D01*
X116908789Y-111195475D01*
X116884133Y-111156236D01*
X116812815Y-111042734D01*
X116794819Y-111024738D01*
X116761334Y-110963415D01*
X116758500Y-110937057D01*
X116758500Y-110205000D01*
X125118281Y-110205000D01*
X125123144Y-110252605D01*
X125123144Y-110252608D01*
X125176452Y-110413481D01*
X125176457Y-110413492D01*
X125265424Y-110557728D01*
X125265427Y-110557732D01*
X125385267Y-110677572D01*
X125385271Y-110677575D01*
X125529507Y-110766542D01*
X125529518Y-110766547D01*
X125690392Y-110819855D01*
X125712999Y-110822165D01*
X125713000Y-110822165D01*
X125713000Y-110205000D01*
X125118281Y-110205000D01*
X116758500Y-110205000D01*
X116758500Y-109389932D01*
X116778185Y-109322893D01*
X116807015Y-109291555D01*
X116811282Y-109288282D01*
X116907536Y-109162841D01*
X116907535Y-109162841D01*
X116909624Y-109160120D01*
X116966052Y-109118917D01*
X117035798Y-109114762D01*
X117096718Y-109148974D01*
X117106376Y-109160120D01*
X117204715Y-109288279D01*
X117204718Y-109288282D01*
X117330159Y-109384536D01*
X117476238Y-109445044D01*
X117593639Y-109460500D01*
X118072360Y-109460499D01*
X118072363Y-109460499D01*
X118189753Y-109445046D01*
X118189757Y-109445044D01*
X118189762Y-109445044D01*
X118335841Y-109384536D01*
X118461282Y-109288282D01*
X118522106Y-109209013D01*
X118578534Y-109167811D01*
X118620482Y-109160500D01*
X125049805Y-109160500D01*
X125116844Y-109180185D01*
X125162599Y-109232989D01*
X125172543Y-109302147D01*
X125167511Y-109323504D01*
X125123143Y-109457397D01*
X125118280Y-109504999D01*
X125118281Y-109505000D01*
X126289000Y-109505000D01*
X126356039Y-109524685D01*
X126401794Y-109577489D01*
X126413000Y-109629000D01*
X126413000Y-110822165D01*
X126435609Y-110819855D01*
X126442233Y-110818438D01*
X126442745Y-110820832D01*
X126501314Y-110818814D01*
X126561359Y-110854540D01*
X126592557Y-110917058D01*
X126594500Y-110938924D01*
X126594500Y-111311076D01*
X126574815Y-111378115D01*
X126522011Y-111423870D01*
X126452853Y-111433814D01*
X126442270Y-111431321D01*
X126442219Y-111431560D01*
X126435606Y-111430143D01*
X126413000Y-111427834D01*
X126413000Y-113362165D01*
X126435609Y-113359855D01*
X126442233Y-113358438D01*
X126442745Y-113360832D01*
X126501314Y-113358814D01*
X126561359Y-113394540D01*
X126592557Y-113457058D01*
X126594500Y-113478924D01*
X126594500Y-114474805D01*
X126599953Y-114541083D01*
X126605246Y-114573030D01*
X126605247Y-114573033D01*
X126621467Y-114637538D01*
X126621468Y-114637540D01*
X126621469Y-114637543D01*
X126680677Y-114749749D01*
X126717345Y-114798730D01*
X126808325Y-114887145D01*
X126922176Y-114943121D01*
X126979388Y-114960810D01*
X126980452Y-114961152D01*
X126980628Y-114961194D01*
X126980631Y-114961195D01*
X126980634Y-114961196D01*
X126980638Y-114961196D01*
X126980640Y-114961197D01*
X126993411Y-114963032D01*
X127003644Y-114964504D01*
X127067201Y-114993527D01*
X127104976Y-115052304D01*
X127110000Y-115087242D01*
X127110000Y-115396519D01*
X127117774Y-115445606D01*
X127117773Y-115484397D01*
X127110000Y-115533475D01*
X127110000Y-116046519D01*
X127117774Y-116095606D01*
X127117773Y-116134397D01*
X127110000Y-116183475D01*
X127110000Y-116696519D01*
X127117774Y-116745606D01*
X127117773Y-116784397D01*
X127110000Y-116833475D01*
X127110000Y-117174394D01*
X127090315Y-117241433D01*
X127085269Y-117248702D01*
X127067146Y-117272912D01*
X127067145Y-117272913D01*
X127016903Y-117407620D01*
X127016901Y-117407627D01*
X127010500Y-117467155D01*
X127010500Y-117515000D01*
X127092746Y-117515000D01*
X127159785Y-117534685D01*
X127180428Y-117551319D01*
X127182448Y-117553340D01*
X127182450Y-117553342D01*
X127236410Y-117607302D01*
X127279059Y-117649951D01*
X127277016Y-117651993D01*
X127310189Y-117695016D01*
X127316165Y-117764630D01*
X127283557Y-117826424D01*
X127277020Y-117832087D01*
X127228724Y-117880384D01*
X127182450Y-117926658D01*
X127182449Y-117926659D01*
X127180428Y-117928681D01*
X127119105Y-117962166D01*
X127092746Y-117965000D01*
X127010500Y-117965000D01*
X127010500Y-118012844D01*
X127016901Y-118072372D01*
X127016902Y-118072376D01*
X127067148Y-118207091D01*
X127085267Y-118231294D01*
X127109684Y-118296758D01*
X127110000Y-118305605D01*
X127110000Y-118646519D01*
X127117774Y-118695606D01*
X127117773Y-118734397D01*
X127110000Y-118783475D01*
X127110000Y-119124394D01*
X127090315Y-119191433D01*
X127085269Y-119198702D01*
X127067146Y-119222912D01*
X127067145Y-119222913D01*
X127016903Y-119357620D01*
X127016901Y-119357627D01*
X127010500Y-119417155D01*
X127010500Y-119465000D01*
X127092746Y-119465000D01*
X127159785Y-119484685D01*
X127180428Y-119501319D01*
X127182448Y-119503340D01*
X127182450Y-119503342D01*
X127257652Y-119578544D01*
X127279059Y-119599951D01*
X127277016Y-119601993D01*
X127310189Y-119645016D01*
X127316165Y-119714630D01*
X127283557Y-119776424D01*
X127277020Y-119782087D01*
X127251441Y-119807667D01*
X127182450Y-119876658D01*
X127182449Y-119876659D01*
X127180428Y-119878681D01*
X127119105Y-119912166D01*
X127092746Y-119915000D01*
X127010500Y-119915000D01*
X127010500Y-119962844D01*
X127016901Y-120022372D01*
X127016902Y-120022376D01*
X127067148Y-120157091D01*
X127085267Y-120181294D01*
X127109684Y-120246758D01*
X127110000Y-120255605D01*
X127110000Y-120596519D01*
X127117774Y-120645606D01*
X127117773Y-120684397D01*
X127110000Y-120733475D01*
X127110000Y-121074394D01*
X127090315Y-121141433D01*
X127085269Y-121148702D01*
X127067146Y-121172912D01*
X127067145Y-121172913D01*
X127016903Y-121307620D01*
X127016901Y-121307627D01*
X127010500Y-121367155D01*
X127010500Y-121415000D01*
X127092746Y-121415000D01*
X127159785Y-121434685D01*
X127180428Y-121451319D01*
X127182448Y-121453340D01*
X127182450Y-121453342D01*
X127233915Y-121504807D01*
X127279059Y-121549951D01*
X127277016Y-121551993D01*
X127310189Y-121595016D01*
X127316165Y-121664630D01*
X127283557Y-121726424D01*
X127277020Y-121732087D01*
X127249109Y-121759999D01*
X127182450Y-121826658D01*
X127182449Y-121826659D01*
X127180428Y-121828681D01*
X127119105Y-121862166D01*
X127092746Y-121865000D01*
X127010500Y-121865000D01*
X127010500Y-121912844D01*
X127016901Y-121972372D01*
X127016902Y-121972376D01*
X127067148Y-122107091D01*
X127085267Y-122131294D01*
X127109684Y-122196758D01*
X127110000Y-122205605D01*
X127110000Y-122546519D01*
X127117774Y-122595606D01*
X127117773Y-122634397D01*
X127110000Y-122683475D01*
X127110000Y-123196519D01*
X127117774Y-123245606D01*
X127117773Y-123284397D01*
X127110000Y-123333475D01*
X127110000Y-123846519D01*
X127117774Y-123895606D01*
X127117773Y-123934397D01*
X127110000Y-123983475D01*
X127110000Y-124496519D01*
X127117774Y-124545606D01*
X127117773Y-124584397D01*
X127110000Y-124633475D01*
X127110000Y-124970314D01*
X127090315Y-125037353D01*
X127037511Y-125083108D01*
X127018469Y-125089380D01*
X127018616Y-125089908D01*
X126914640Y-125118831D01*
X126806940Y-125185893D01*
X126806940Y-125185894D01*
X126754145Y-125231640D01*
X126684956Y-125309221D01*
X126630611Y-125423854D01*
X126610926Y-125490894D01*
X126610924Y-125490902D01*
X126594500Y-125605141D01*
X126594500Y-126551076D01*
X126574815Y-126618115D01*
X126522011Y-126663870D01*
X126452853Y-126673814D01*
X126442270Y-126671321D01*
X126442219Y-126671560D01*
X126435606Y-126670143D01*
X126413000Y-126667834D01*
X126413000Y-128602165D01*
X126435609Y-128599855D01*
X126442233Y-128598438D01*
X126442745Y-128600832D01*
X126501314Y-128598814D01*
X126561359Y-128634540D01*
X126592557Y-128697058D01*
X126594500Y-128718924D01*
X126594500Y-129091076D01*
X126574815Y-129158115D01*
X126522011Y-129203870D01*
X126452853Y-129213814D01*
X126442270Y-129211321D01*
X126442219Y-129211560D01*
X126435606Y-129210143D01*
X126413000Y-129207834D01*
X126413000Y-131142165D01*
X126435607Y-131139855D01*
X126557361Y-131099510D01*
X126627189Y-131097108D01*
X126687231Y-131132840D01*
X126718424Y-131195360D01*
X126720221Y-131211246D01*
X126726323Y-131337856D01*
X126726323Y-131337861D01*
X126740560Y-131406250D01*
X126740565Y-131406266D01*
X126779930Y-131514760D01*
X126779933Y-131514767D01*
X126779934Y-131514769D01*
X126805155Y-131561954D01*
X126805160Y-131561962D01*
X126805165Y-131561971D01*
X126825616Y-131596090D01*
X126825619Y-131596095D01*
X126839126Y-131616309D01*
X126862809Y-131648242D01*
X126862827Y-131648265D01*
X126971693Y-131780918D01*
X126998405Y-131810390D01*
X127015608Y-131827593D01*
X127045080Y-131854305D01*
X127134772Y-131927914D01*
X127177742Y-131963178D01*
X127209708Y-131986885D01*
X127229920Y-132000390D01*
X127264050Y-132020846D01*
X127264067Y-132020855D01*
X127264070Y-132020857D01*
X127375995Y-132080682D01*
X127415392Y-132101740D01*
X127415410Y-132101748D01*
X127415413Y-132101750D01*
X127451353Y-132118750D01*
X127461582Y-132122987D01*
X127473814Y-132128054D01*
X127511292Y-132141464D01*
X127675515Y-132191280D01*
X127714119Y-132200949D01*
X127737960Y-132205691D01*
X127737973Y-132205693D01*
X127737971Y-132205693D01*
X127749850Y-132207454D01*
X127777318Y-132211529D01*
X127954192Y-132228950D01*
X127974045Y-132230415D01*
X127986199Y-132231012D01*
X128006093Y-132231500D01*
X129045766Y-132231500D01*
X129112805Y-132251185D01*
X129133357Y-132267729D01*
X135187441Y-138309500D01*
X135958093Y-139078585D01*
X136701520Y-139820500D01*
X137282069Y-140399868D01*
X139232159Y-142345992D01*
X139251520Y-142364090D01*
X139263695Y-142374747D01*
X139284192Y-142391538D01*
X139388999Y-142471819D01*
X139433073Y-142501219D01*
X139433076Y-142501221D01*
X139433081Y-142501224D01*
X139461069Y-142517357D01*
X139461078Y-142517362D01*
X139461088Y-142517367D01*
X139461092Y-142517369D01*
X139508581Y-142540752D01*
X139508588Y-142540755D01*
X139508600Y-142540761D01*
X139508617Y-142540768D01*
X139623020Y-142588087D01*
X139673191Y-142605095D01*
X139704400Y-142613446D01*
X139704421Y-142613451D01*
X139756373Y-142623771D01*
X139887259Y-142640981D01*
X139887266Y-142640981D01*
X139887276Y-142640983D01*
X139898989Y-142642134D01*
X139913640Y-142643576D01*
X139929805Y-142644634D01*
X139956288Y-142645500D01*
X141248532Y-142645500D01*
X141315571Y-142665185D01*
X141336213Y-142681819D01*
X143120358Y-144465964D01*
X143125760Y-144471721D01*
X143172436Y-144524755D01*
X143252590Y-144589474D01*
X143254599Y-144591133D01*
X143333372Y-144657550D01*
X143333375Y-144657552D01*
X143333379Y-144657555D01*
X143338330Y-144660460D01*
X143353469Y-144670929D01*
X143357920Y-144674523D01*
X143447882Y-144724779D01*
X143450107Y-144726054D01*
X143538979Y-144778207D01*
X143538987Y-144778211D01*
X143538991Y-144778213D01*
X143543838Y-144780042D01*
X143544337Y-144780230D01*
X143561048Y-144787997D01*
X143566046Y-144790790D01*
X143627518Y-144812509D01*
X143658859Y-144823583D01*
X143715511Y-144864477D01*
X143741062Y-144929507D01*
X143727398Y-144998028D01*
X143678858Y-145048284D01*
X143617550Y-145064500D01*
X106224255Y-145064500D01*
X106157216Y-145044815D01*
X106111461Y-144992011D01*
X106101517Y-144922853D01*
X106130542Y-144859297D01*
X106149214Y-144841784D01*
X106257837Y-144759211D01*
X106517668Y-144513086D01*
X106749365Y-144240311D01*
X106950211Y-143944085D01*
X107117853Y-143627880D01*
X107250324Y-143295403D01*
X107346071Y-142950552D01*
X107363891Y-142841848D01*
X107403970Y-142597385D01*
X107403970Y-142597382D01*
X107403972Y-142597371D01*
X107423348Y-142240000D01*
X107403972Y-141882629D01*
X107346071Y-141529448D01*
X107294908Y-141345176D01*
X107250327Y-141184607D01*
X107250325Y-141184600D01*
X107117857Y-140852129D01*
X107117848Y-140852111D01*
X106950215Y-140535922D01*
X106950213Y-140535919D01*
X106950211Y-140535915D01*
X106749365Y-140239689D01*
X106749361Y-140239684D01*
X106749358Y-140239680D01*
X106517668Y-139966914D01*
X106257837Y-139720789D01*
X106257830Y-139720783D01*
X106257827Y-139720781D01*
X106190245Y-139669407D01*
X105972919Y-139504200D01*
X105666253Y-139319685D01*
X105666252Y-139319684D01*
X105666248Y-139319682D01*
X105666244Y-139319680D01*
X105341447Y-139169414D01*
X105341441Y-139169411D01*
X105341435Y-139169409D01*
X105171854Y-139112270D01*
X105002273Y-139055131D01*
X104652744Y-138978194D01*
X104296949Y-138939500D01*
X104296948Y-138939500D01*
X103939052Y-138939500D01*
X103939050Y-138939500D01*
X103583255Y-138978194D01*
X103233726Y-139055131D01*
X102977970Y-139141306D01*
X102894565Y-139169409D01*
X102894563Y-139169410D01*
X102894552Y-139169414D01*
X102569755Y-139319680D01*
X102569751Y-139319682D01*
X102443246Y-139395798D01*
X102263081Y-139504200D01*
X102189710Y-139559975D01*
X101978172Y-139720781D01*
X101978163Y-139720789D01*
X101718331Y-139966914D01*
X101534008Y-140183916D01*
X101475604Y-140222267D01*
X101405738Y-140222955D01*
X101346591Y-140185761D01*
X101316942Y-140122494D01*
X101315500Y-140103640D01*
X101315500Y-136124984D01*
X101335185Y-136057945D01*
X101387989Y-136012190D01*
X101457147Y-136002246D01*
X101520703Y-136031271D01*
X101545039Y-136059887D01*
X101602684Y-136153345D01*
X101726654Y-136277315D01*
X101875875Y-136369356D01*
X101875880Y-136369358D01*
X102042302Y-136424505D01*
X102042309Y-136424506D01*
X102145019Y-136434999D01*
X102519999Y-136434999D01*
X102520000Y-136434998D01*
X102520000Y-135259229D01*
X102521882Y-135262923D01*
X102617077Y-135358118D01*
X102737031Y-135419238D01*
X102836549Y-135435000D01*
X102903451Y-135435000D01*
X103002969Y-135419238D01*
X103119229Y-135360000D01*
X103220000Y-135360000D01*
X103220000Y-136434999D01*
X103594972Y-136434999D01*
X103594986Y-136434998D01*
X103697697Y-136424505D01*
X103864119Y-136369358D01*
X103864124Y-136369356D01*
X104013345Y-136277315D01*
X104137315Y-136153345D01*
X104229356Y-136004124D01*
X104229358Y-136004119D01*
X104284505Y-135837697D01*
X104284506Y-135837690D01*
X104294999Y-135734986D01*
X104295000Y-135734973D01*
X104295000Y-135360000D01*
X103220000Y-135360000D01*
X103119229Y-135360000D01*
X103122923Y-135358118D01*
X103218118Y-135262923D01*
X103279238Y-135142969D01*
X103300298Y-135010000D01*
X103298873Y-135001000D01*
X121132652Y-135001000D01*
X121148692Y-135296849D01*
X121152028Y-135358368D01*
X121152029Y-135358385D01*
X121209926Y-135711539D01*
X121209932Y-135711565D01*
X121305672Y-136056392D01*
X121305674Y-136056399D01*
X121438142Y-136388870D01*
X121438151Y-136388888D01*
X121605784Y-136705077D01*
X121605787Y-136705082D01*
X121605789Y-136705085D01*
X121784343Y-136968433D01*
X121806634Y-137001309D01*
X121806641Y-137001319D01*
X122038331Y-137274085D01*
X122038332Y-137274086D01*
X122298163Y-137520211D01*
X122583081Y-137736800D01*
X122889747Y-137921315D01*
X122889749Y-137921316D01*
X122889751Y-137921317D01*
X122889755Y-137921319D01*
X123214552Y-138071585D01*
X123214565Y-138071591D01*
X123553726Y-138185868D01*
X123903254Y-138262805D01*
X124259052Y-138301500D01*
X124259058Y-138301500D01*
X124616942Y-138301500D01*
X124616948Y-138301500D01*
X124972746Y-138262805D01*
X125322274Y-138185868D01*
X125661435Y-138071591D01*
X125986253Y-137921315D01*
X126292919Y-137736800D01*
X126577837Y-137520211D01*
X126837668Y-137274086D01*
X127069365Y-137001311D01*
X127270211Y-136705085D01*
X127437853Y-136388880D01*
X127570324Y-136056403D01*
X127666071Y-135711552D01*
X127696463Y-135526167D01*
X127723970Y-135358385D01*
X127723970Y-135358382D01*
X127723972Y-135358371D01*
X127743348Y-135001000D01*
X127723972Y-134643629D01*
X127716944Y-134600762D01*
X127666073Y-134290460D01*
X127666072Y-134290459D01*
X127666071Y-134290448D01*
X127570324Y-133945597D01*
X127489476Y-133742684D01*
X127437857Y-133613129D01*
X127437848Y-133613111D01*
X127422944Y-133585000D01*
X127339084Y-133426823D01*
X127270215Y-133296922D01*
X127270213Y-133296919D01*
X127270211Y-133296915D01*
X127069365Y-133000689D01*
X127069361Y-133000684D01*
X127069358Y-133000680D01*
X126837668Y-132727914D01*
X126751230Y-132646036D01*
X126577837Y-132481789D01*
X126577830Y-132481783D01*
X126577827Y-132481781D01*
X126473600Y-132402550D01*
X126292919Y-132265200D01*
X125986253Y-132080685D01*
X125986252Y-132080684D01*
X125986248Y-132080682D01*
X125986244Y-132080680D01*
X125661447Y-131930414D01*
X125661441Y-131930411D01*
X125661435Y-131930409D01*
X125437624Y-131854998D01*
X125322273Y-131816131D01*
X124972744Y-131739194D01*
X124616949Y-131700500D01*
X124616948Y-131700500D01*
X124259052Y-131700500D01*
X124259050Y-131700500D01*
X123903255Y-131739194D01*
X123553726Y-131816131D01*
X123320492Y-131894718D01*
X123214565Y-131930409D01*
X123214563Y-131930410D01*
X123214552Y-131930414D01*
X122889755Y-132080680D01*
X122889751Y-132080682D01*
X122681986Y-132205691D01*
X122583081Y-132265200D01*
X122495165Y-132332032D01*
X122298172Y-132481781D01*
X122298163Y-132481789D01*
X122038331Y-132727914D01*
X121806641Y-133000680D01*
X121806634Y-133000690D01*
X121605790Y-133296913D01*
X121605784Y-133296922D01*
X121438151Y-133613111D01*
X121438142Y-133613129D01*
X121305674Y-133945600D01*
X121305672Y-133945607D01*
X121209932Y-134290434D01*
X121209926Y-134290460D01*
X121152029Y-134643614D01*
X121152028Y-134643627D01*
X121152028Y-134643629D01*
X121145877Y-134757077D01*
X121134581Y-134965430D01*
X121132652Y-135001000D01*
X103298873Y-135001000D01*
X103279238Y-134877031D01*
X103218118Y-134757077D01*
X103122923Y-134661882D01*
X103002969Y-134600762D01*
X102903451Y-134585000D01*
X102836549Y-134585000D01*
X102737031Y-134600762D01*
X102617077Y-134661882D01*
X102521882Y-134757077D01*
X102520000Y-134760770D01*
X102520000Y-133585000D01*
X103220000Y-133585000D01*
X103220000Y-134660000D01*
X104294999Y-134660000D01*
X104294999Y-134285028D01*
X104294998Y-134285013D01*
X104284505Y-134182302D01*
X104229358Y-134015880D01*
X104229356Y-134015875D01*
X104137315Y-133866654D01*
X104013345Y-133742684D01*
X103864124Y-133650643D01*
X103864119Y-133650641D01*
X103697697Y-133595494D01*
X103697690Y-133595493D01*
X103594986Y-133585000D01*
X103220000Y-133585000D01*
X102520000Y-133585000D01*
X102145028Y-133585000D01*
X102145012Y-133585001D01*
X102042302Y-133595494D01*
X101875880Y-133650641D01*
X101875875Y-133650643D01*
X101726654Y-133742684D01*
X101602683Y-133866655D01*
X101602680Y-133866659D01*
X101545038Y-133960112D01*
X101493090Y-134006837D01*
X101424128Y-134018058D01*
X101360046Y-133990215D01*
X101321190Y-133932146D01*
X101315500Y-133895015D01*
X101315500Y-131071739D01*
X101335185Y-131004700D01*
X101387989Y-130958945D01*
X101457147Y-130949001D01*
X101520703Y-130978026D01*
X101558477Y-131036804D01*
X101559275Y-131039645D01*
X101559650Y-131041047D01*
X101559651Y-131041050D01*
X101578158Y-131110119D01*
X101619678Y-131265074D01*
X101619679Y-131265076D01*
X101619680Y-131265079D01*
X101717699Y-131475282D01*
X101850730Y-131665269D01*
X102014731Y-131829270D01*
X102204718Y-131962301D01*
X102414921Y-132060320D01*
X102638950Y-132120349D01*
X102803985Y-132134787D01*
X102869998Y-132140563D01*
X102870000Y-132140563D01*
X102870002Y-132140563D01*
X102927762Y-132135509D01*
X103101050Y-132120349D01*
X103325079Y-132060320D01*
X103535282Y-131962301D01*
X103725269Y-131829270D01*
X103889270Y-131665269D01*
X104022301Y-131475282D01*
X104030783Y-131457093D01*
X104076956Y-131404655D01*
X104143164Y-131385500D01*
X112877518Y-131385500D01*
X112944557Y-131405185D01*
X112975894Y-131434014D01*
X113028704Y-131502839D01*
X113036718Y-131513282D01*
X113162159Y-131609536D01*
X113308238Y-131670044D01*
X113425639Y-131685500D01*
X113904360Y-131685499D01*
X113904363Y-131685499D01*
X114021753Y-131670046D01*
X114021757Y-131670044D01*
X114021762Y-131670044D01*
X114167841Y-131609536D01*
X114293282Y-131513282D01*
X114389536Y-131387841D01*
X114389535Y-131387841D01*
X114391624Y-131385120D01*
X114448052Y-131343917D01*
X114517798Y-131339762D01*
X114578718Y-131373974D01*
X114588376Y-131385120D01*
X114678704Y-131502839D01*
X114686718Y-131513282D01*
X114812159Y-131609536D01*
X114958238Y-131670044D01*
X115075639Y-131685500D01*
X115554360Y-131685499D01*
X115554363Y-131685499D01*
X115671753Y-131670046D01*
X115671757Y-131670044D01*
X115671762Y-131670044D01*
X115817841Y-131609536D01*
X115943282Y-131513282D01*
X116039536Y-131387841D01*
X116100044Y-131241762D01*
X116115500Y-131124361D01*
X116115499Y-130874740D01*
X116135183Y-130807702D01*
X116151813Y-130787065D01*
X116413878Y-130525000D01*
X125118281Y-130525000D01*
X125123144Y-130572605D01*
X125123144Y-130572608D01*
X125176452Y-130733481D01*
X125176457Y-130733492D01*
X125265424Y-130877728D01*
X125265427Y-130877732D01*
X125385267Y-130997572D01*
X125385271Y-130997575D01*
X125529507Y-131086542D01*
X125529518Y-131086547D01*
X125690392Y-131139855D01*
X125712999Y-131142165D01*
X125713000Y-131142165D01*
X125713000Y-130525000D01*
X125118281Y-130525000D01*
X116413878Y-130525000D01*
X117113879Y-129824999D01*
X125118280Y-129824999D01*
X125118281Y-129825000D01*
X125713000Y-129825000D01*
X125713000Y-129207834D01*
X125690395Y-129210143D01*
X125529518Y-129263452D01*
X125529507Y-129263457D01*
X125385271Y-129352424D01*
X125385267Y-129352427D01*
X125265427Y-129472267D01*
X125265424Y-129472271D01*
X125176457Y-129616507D01*
X125176451Y-129616520D01*
X125123143Y-129777395D01*
X125118280Y-129824999D01*
X117113879Y-129824999D01*
X117214527Y-129724351D01*
X117226706Y-129713670D01*
X117250451Y-129695451D01*
X117273609Y-129665270D01*
X117273612Y-129665268D01*
X117342699Y-129575232D01*
X117400687Y-129435235D01*
X117420466Y-129285000D01*
X117416561Y-129255337D01*
X117415500Y-129239152D01*
X117415500Y-127985000D01*
X125118281Y-127985000D01*
X125123144Y-128032605D01*
X125123144Y-128032608D01*
X125176452Y-128193481D01*
X125176457Y-128193492D01*
X125265424Y-128337728D01*
X125265427Y-128337732D01*
X125385267Y-128457572D01*
X125385271Y-128457575D01*
X125529507Y-128546542D01*
X125529518Y-128546547D01*
X125690392Y-128599855D01*
X125712999Y-128602165D01*
X125713000Y-128602165D01*
X125713000Y-127985000D01*
X125118281Y-127985000D01*
X117415500Y-127985000D01*
X117415500Y-127284999D01*
X125118280Y-127284999D01*
X125118281Y-127285000D01*
X125713000Y-127285000D01*
X125713000Y-126667834D01*
X125690395Y-126670143D01*
X125529518Y-126723452D01*
X125529507Y-126723457D01*
X125385271Y-126812424D01*
X125385267Y-126812427D01*
X125265427Y-126932267D01*
X125265424Y-126932271D01*
X125176457Y-127076507D01*
X125176451Y-127076520D01*
X125123143Y-127237395D01*
X125118280Y-127284999D01*
X117415500Y-127284999D01*
X117415500Y-126783418D01*
X117435185Y-126716379D01*
X117451819Y-126695737D01*
X118645737Y-125501819D01*
X118707060Y-125468334D01*
X118733418Y-125465500D01*
X119710448Y-125465500D01*
X119766742Y-125479015D01*
X119809198Y-125500647D01*
X119902975Y-125515499D01*
X119902981Y-125515500D01*
X121441018Y-125515499D01*
X121534804Y-125500646D01*
X121647842Y-125443050D01*
X121737550Y-125353342D01*
X121795146Y-125240304D01*
X121795146Y-125240302D01*
X121795147Y-125240301D01*
X121809999Y-125146524D01*
X121810000Y-125146519D01*
X121809999Y-124805602D01*
X121829683Y-124738565D01*
X121834734Y-124731291D01*
X121852851Y-124707090D01*
X121852852Y-124707088D01*
X121903097Y-124572376D01*
X121903098Y-124572372D01*
X121909499Y-124512844D01*
X121909500Y-124512827D01*
X121909500Y-124465000D01*
X121827254Y-124465000D01*
X121760215Y-124445315D01*
X121739572Y-124428681D01*
X121737551Y-124426659D01*
X121737550Y-124426658D01*
X121647842Y-124336950D01*
X121565148Y-124294815D01*
X121534801Y-124279352D01*
X121441024Y-124264500D01*
X119902982Y-124264500D01*
X119809194Y-124279354D01*
X119766743Y-124300985D01*
X119710448Y-124314500D01*
X118809500Y-124314500D01*
X118742461Y-124294815D01*
X118696706Y-124242011D01*
X118685500Y-124190500D01*
X118685500Y-123815000D01*
X119434500Y-123815000D01*
X119434500Y-123862827D01*
X119434501Y-123862846D01*
X119438683Y-123901744D01*
X119438684Y-123928254D01*
X119434500Y-123967171D01*
X119434500Y-124015000D01*
X120447000Y-124015000D01*
X120447000Y-123815000D01*
X120897000Y-123815000D01*
X120897000Y-124015000D01*
X121909500Y-124015000D01*
X121909500Y-123967179D01*
X121909499Y-123967168D01*
X121905315Y-123928258D01*
X121905315Y-123901742D01*
X121909499Y-123862831D01*
X121909500Y-123862821D01*
X121909500Y-123815000D01*
X120897000Y-123815000D01*
X120447000Y-123815000D01*
X119434500Y-123815000D01*
X118685500Y-123815000D01*
X118685500Y-123797242D01*
X118705185Y-123730203D01*
X118721819Y-123709561D01*
X118961600Y-123469780D01*
X119224541Y-123206838D01*
X119285862Y-123173355D01*
X119355553Y-123178339D01*
X119411487Y-123220210D01*
X119435904Y-123285675D01*
X119435510Y-123307774D01*
X119434500Y-123317166D01*
X119434500Y-123365000D01*
X120447000Y-123365000D01*
X120447000Y-123165000D01*
X120897000Y-123165000D01*
X120897000Y-123365000D01*
X121909500Y-123365000D01*
X121909500Y-123317179D01*
X121909499Y-123317168D01*
X121905315Y-123278258D01*
X121905315Y-123251742D01*
X121909499Y-123212831D01*
X121909500Y-123212821D01*
X121909500Y-123165000D01*
X120897000Y-123165000D01*
X120447000Y-123165000D01*
X120447000Y-123039499D01*
X120466685Y-122972460D01*
X120519489Y-122926705D01*
X120570997Y-122915499D01*
X121441018Y-122915499D01*
X121534804Y-122900646D01*
X121647842Y-122843050D01*
X121737550Y-122753342D01*
X121737551Y-122753339D01*
X121739572Y-122751319D01*
X121800895Y-122717834D01*
X121827254Y-122715000D01*
X121909500Y-122715000D01*
X121909500Y-122667172D01*
X121909499Y-122667155D01*
X121903098Y-122607627D01*
X121903097Y-122607623D01*
X121852852Y-122472911D01*
X121834732Y-122448706D01*
X121810315Y-122383242D01*
X121809999Y-122374413D01*
X121809999Y-122205602D01*
X121829684Y-122138565D01*
X121834734Y-122131291D01*
X121852851Y-122107090D01*
X121852852Y-122107088D01*
X121903097Y-121972376D01*
X121903098Y-121972372D01*
X121909499Y-121912844D01*
X121909500Y-121912827D01*
X121909500Y-121865000D01*
X121827254Y-121865000D01*
X121760215Y-121845315D01*
X121739572Y-121828681D01*
X121737551Y-121826659D01*
X121737550Y-121826658D01*
X121647842Y-121736950D01*
X121577257Y-121700985D01*
X121534801Y-121679352D01*
X121441024Y-121664500D01*
X119902982Y-121664500D01*
X119809194Y-121679354D01*
X119766743Y-121700985D01*
X119710448Y-121714500D01*
X119373340Y-121714500D01*
X119357155Y-121713439D01*
X119327501Y-121709535D01*
X119327500Y-121709535D01*
X119319950Y-121710528D01*
X119293816Y-121713969D01*
X119293815Y-121713968D01*
X119293805Y-121713970D01*
X119177264Y-121729313D01*
X119177263Y-121729313D01*
X119103182Y-121759999D01*
X119103181Y-121759999D01*
X119037268Y-121787300D01*
X118948886Y-121855118D01*
X118948866Y-121855132D01*
X118948867Y-121855133D01*
X118917048Y-121879550D01*
X118898832Y-121903288D01*
X118888141Y-121915477D01*
X117735477Y-123068141D01*
X117723288Y-123078832D01*
X117699550Y-123097048D01*
X117675133Y-123128867D01*
X117675033Y-123128995D01*
X117622930Y-123196900D01*
X117622929Y-123196901D01*
X117607302Y-123217265D01*
X117549313Y-123357263D01*
X117549313Y-123357264D01*
X117533970Y-123473805D01*
X117533968Y-123473815D01*
X117533969Y-123473816D01*
X117529535Y-123507500D01*
X117533439Y-123537153D01*
X117534500Y-123553339D01*
X117534500Y-124170257D01*
X117514815Y-124237296D01*
X117498181Y-124257938D01*
X114940477Y-126815641D01*
X114928288Y-126826332D01*
X114904550Y-126844548D01*
X114880133Y-126876367D01*
X114880119Y-126876385D01*
X114850150Y-126915441D01*
X114827681Y-126944725D01*
X114818106Y-126957202D01*
X114812300Y-126964769D01*
X114754313Y-127104763D01*
X114754313Y-127104764D01*
X114738970Y-127221305D01*
X114738968Y-127221315D01*
X114738969Y-127221316D01*
X114734535Y-127255000D01*
X114738439Y-127284653D01*
X114739500Y-127300839D01*
X114739500Y-127465067D01*
X114719815Y-127532106D01*
X114690988Y-127563441D01*
X114686719Y-127566716D01*
X114686716Y-127566719D01*
X114650348Y-127614114D01*
X114593920Y-127655316D01*
X114524174Y-127659469D01*
X114463254Y-127625256D01*
X114445857Y-127602776D01*
X114420072Y-127560122D01*
X114299877Y-127439927D01*
X114154396Y-127351981D01*
X114154395Y-127351980D01*
X114015000Y-127308542D01*
X114015000Y-128496000D01*
X113995315Y-128563039D01*
X113942511Y-128608794D01*
X113891000Y-128620000D01*
X112766675Y-128620000D01*
X112771407Y-128672097D01*
X112812388Y-128803610D01*
X112813538Y-128873470D01*
X112776737Y-128932863D01*
X112713668Y-128962931D01*
X112694002Y-128964500D01*
X106089742Y-128964500D01*
X106022703Y-128944815D01*
X106002061Y-128928181D01*
X104993880Y-127920000D01*
X112766674Y-127920000D01*
X113315000Y-127920000D01*
X113315000Y-127308543D01*
X113314999Y-127308542D01*
X113175604Y-127351980D01*
X113175603Y-127351981D01*
X113030122Y-127439927D01*
X112909927Y-127560122D01*
X112821980Y-127705604D01*
X112771409Y-127867893D01*
X112766674Y-127920000D01*
X104993880Y-127920000D01*
X104174881Y-127101001D01*
X104141396Y-127039678D01*
X104142788Y-126981225D01*
X104152568Y-126944726D01*
X104180349Y-126841050D01*
X104200563Y-126610000D01*
X104180349Y-126378950D01*
X104120320Y-126154921D01*
X104022301Y-125944719D01*
X104022299Y-125944716D01*
X104022298Y-125944714D01*
X103889273Y-125754735D01*
X103889268Y-125754729D01*
X103725269Y-125590730D01*
X103634269Y-125527011D01*
X103535282Y-125457699D01*
X103325079Y-125359680D01*
X103325076Y-125359679D01*
X103325074Y-125359678D01*
X103101051Y-125299651D01*
X103101044Y-125299650D01*
X102870002Y-125279437D01*
X102869998Y-125279437D01*
X102638955Y-125299650D01*
X102638948Y-125299651D01*
X102414917Y-125359681D01*
X102204718Y-125457699D01*
X102204714Y-125457701D01*
X102014735Y-125590726D01*
X102014729Y-125590731D01*
X101850731Y-125754729D01*
X101850726Y-125754735D01*
X101717701Y-125944714D01*
X101717699Y-125944718D01*
X101619681Y-126154917D01*
X101619680Y-126154921D01*
X101567875Y-126348260D01*
X101559275Y-126380354D01*
X101522909Y-126440014D01*
X101460062Y-126470543D01*
X101390687Y-126462248D01*
X101336809Y-126417762D01*
X101315535Y-126351210D01*
X101315500Y-126348260D01*
X101315500Y-122671739D01*
X101335185Y-122604700D01*
X101387989Y-122558945D01*
X101457147Y-122549001D01*
X101520703Y-122578026D01*
X101558477Y-122636804D01*
X101559275Y-122639645D01*
X101559650Y-122641044D01*
X101559651Y-122641050D01*
X101579466Y-122714998D01*
X101619678Y-122865074D01*
X101619679Y-122865076D01*
X101619680Y-122865079D01*
X101717699Y-123075282D01*
X101850730Y-123265269D01*
X102014731Y-123429270D01*
X102204718Y-123562301D01*
X102414921Y-123660320D01*
X102638950Y-123720349D01*
X102803985Y-123734787D01*
X102869998Y-123740563D01*
X102870000Y-123740563D01*
X102870002Y-123740563D01*
X102927762Y-123735509D01*
X103101050Y-123720349D01*
X103325079Y-123660320D01*
X103535282Y-123562301D01*
X103725269Y-123429270D01*
X103889270Y-123265269D01*
X104022301Y-123075282D01*
X104101705Y-122905000D01*
X112744675Y-122905000D01*
X112749407Y-122957097D01*
X112749409Y-122957105D01*
X112799980Y-123119395D01*
X112887927Y-123264877D01*
X113008122Y-123385072D01*
X113153604Y-123473019D01*
X113153603Y-123473019D01*
X113292999Y-123516456D01*
X113293000Y-123516455D01*
X113293000Y-122905000D01*
X112744675Y-122905000D01*
X104101705Y-122905000D01*
X104120320Y-122865079D01*
X104180349Y-122641050D01*
X104200563Y-122410000D01*
X104180349Y-122178950D01*
X104120320Y-121954921D01*
X104022301Y-121744719D01*
X104022299Y-121744716D01*
X104022298Y-121744714D01*
X103889273Y-121554735D01*
X103889268Y-121554729D01*
X103725269Y-121390730D01*
X103691613Y-121367164D01*
X103535282Y-121257699D01*
X103325079Y-121159680D01*
X103325076Y-121159679D01*
X103325074Y-121159678D01*
X103101051Y-121099651D01*
X103101044Y-121099650D01*
X102870002Y-121079437D01*
X102869998Y-121079437D01*
X102638955Y-121099650D01*
X102638948Y-121099651D01*
X102414917Y-121159681D01*
X102204718Y-121257699D01*
X102204714Y-121257701D01*
X102014735Y-121390726D01*
X102014729Y-121390731D01*
X101850731Y-121554729D01*
X101850726Y-121554735D01*
X101717701Y-121744714D01*
X101717699Y-121744718D01*
X101619681Y-121954917D01*
X101619680Y-121954921D01*
X101559851Y-122178206D01*
X101559275Y-122180354D01*
X101522909Y-122240014D01*
X101460062Y-122270543D01*
X101390687Y-122262248D01*
X101336809Y-122217762D01*
X101315535Y-122151210D01*
X101315500Y-122148260D01*
X101315500Y-120364999D01*
X107590000Y-120364999D01*
X107590000Y-120539985D01*
X107600493Y-120642696D01*
X107655640Y-120809118D01*
X107655642Y-120809123D01*
X107747683Y-120958344D01*
X107871653Y-121082314D01*
X108020874Y-121174355D01*
X108020879Y-121174357D01*
X108187302Y-121229504D01*
X108239999Y-121234887D01*
X108239999Y-120364999D01*
X107590000Y-120364999D01*
X101315500Y-120364999D01*
X101315500Y-117759999D01*
X107995280Y-117759999D01*
X107995281Y-117760000D01*
X108590000Y-117760000D01*
X108590000Y-117142834D01*
X108567395Y-117145143D01*
X108406518Y-117198452D01*
X108406507Y-117198457D01*
X108262271Y-117287424D01*
X108262267Y-117287427D01*
X108142427Y-117407267D01*
X108142424Y-117407271D01*
X108053457Y-117551507D01*
X108053451Y-117551520D01*
X108000143Y-117712395D01*
X107995280Y-117759999D01*
X101315500Y-117759999D01*
X101315500Y-115855000D01*
X112744674Y-115855000D01*
X113293000Y-115855000D01*
X113293000Y-115243543D01*
X113292999Y-115243542D01*
X113153604Y-115286980D01*
X113153603Y-115286981D01*
X113008122Y-115374927D01*
X112887927Y-115495122D01*
X112799980Y-115640604D01*
X112749409Y-115802893D01*
X112744674Y-115855000D01*
X101315500Y-115855000D01*
X101315500Y-109435626D01*
X101335185Y-109368587D01*
X101387989Y-109322832D01*
X101457147Y-109312888D01*
X101520703Y-109341913D01*
X101558477Y-109400691D01*
X101558576Y-109401031D01*
X101593254Y-109520393D01*
X101593255Y-109520396D01*
X101676917Y-109661862D01*
X101676923Y-109661870D01*
X101793129Y-109778076D01*
X101793133Y-109778079D01*
X101793135Y-109778081D01*
X101934602Y-109861744D01*
X101971989Y-109872606D01*
X102092426Y-109907597D01*
X102092429Y-109907597D01*
X102092431Y-109907598D01*
X102129306Y-109910500D01*
X102129314Y-109910500D01*
X103610686Y-109910500D01*
X103610694Y-109910500D01*
X103647569Y-109907598D01*
X103647571Y-109907597D01*
X103647573Y-109907597D01*
X103691083Y-109894956D01*
X103805398Y-109861744D01*
X103946865Y-109778081D01*
X104063081Y-109661865D01*
X104146744Y-109520398D01*
X104192598Y-109362569D01*
X104195500Y-109325694D01*
X104195500Y-109284500D01*
X104215185Y-109217461D01*
X104267989Y-109171706D01*
X104319500Y-109160500D01*
X107143780Y-109160500D01*
X109972226Y-109160500D01*
X110039265Y-109180185D01*
X110073985Y-109215493D01*
X110074487Y-109215114D01*
X110077381Y-109218946D01*
X110077653Y-109219223D01*
X110077939Y-109219686D01*
X110212020Y-109397238D01*
X110376437Y-109547123D01*
X110376439Y-109547125D01*
X110565595Y-109664245D01*
X110565596Y-109664245D01*
X110565599Y-109664247D01*
X110773060Y-109744618D01*
X110991757Y-109785500D01*
X110991759Y-109785500D01*
X111214241Y-109785500D01*
X111214243Y-109785500D01*
X111432940Y-109744618D01*
X111640401Y-109664247D01*
X111829562Y-109547124D01*
X111993981Y-109397236D01*
X112128058Y-109219689D01*
X112227229Y-109020528D01*
X112288115Y-108806536D01*
X112308643Y-108585000D01*
X112288115Y-108363464D01*
X112259917Y-108264358D01*
X112260503Y-108194492D01*
X112298770Y-108136033D01*
X112362567Y-108107543D01*
X112431640Y-108118067D01*
G37*
%TD.AperFunction*%
%TA.AperFunction,Conductor*%
G36*
X151995571Y-97940185D02*
G01*
X152016213Y-97956819D01*
X158722737Y-104663343D01*
X158756222Y-104724666D01*
X158758740Y-104742177D01*
X158769039Y-104886161D01*
X158769040Y-104886168D01*
X158817115Y-105107165D01*
X158826825Y-105151801D01*
X158893405Y-105330308D01*
X158921830Y-105406519D01*
X159052109Y-105645107D01*
X159052110Y-105645108D01*
X159052113Y-105645113D01*
X159215029Y-105862742D01*
X159215033Y-105862746D01*
X159215038Y-105862752D01*
X159407247Y-106054961D01*
X159407253Y-106054966D01*
X159407258Y-106054971D01*
X159624887Y-106217887D01*
X159624891Y-106217889D01*
X159624892Y-106217890D01*
X159863481Y-106348169D01*
X159863480Y-106348169D01*
X159863484Y-106348170D01*
X159863487Y-106348172D01*
X160118199Y-106443175D01*
X160383840Y-106500961D01*
X160635605Y-106518967D01*
X160654999Y-106520355D01*
X160655000Y-106520355D01*
X160655001Y-106520355D01*
X160673100Y-106519060D01*
X160926160Y-106500961D01*
X161191801Y-106443175D01*
X161446513Y-106348172D01*
X161446517Y-106348169D01*
X161446519Y-106348169D01*
X161657461Y-106232986D01*
X161685113Y-106217887D01*
X161902742Y-106054971D01*
X162094971Y-105862742D01*
X162257887Y-105645113D01*
X162388172Y-105406513D01*
X162483175Y-105151801D01*
X162540961Y-104886160D01*
X162560355Y-104615000D01*
X162560126Y-104611804D01*
X162554820Y-104537608D01*
X162540961Y-104343840D01*
X162483175Y-104078199D01*
X162388172Y-103823487D01*
X162388170Y-103823484D01*
X162388169Y-103823480D01*
X162257890Y-103584892D01*
X162257889Y-103584891D01*
X162257887Y-103584887D01*
X162094971Y-103367258D01*
X162094966Y-103367253D01*
X162094961Y-103367247D01*
X161902752Y-103175038D01*
X161902746Y-103175033D01*
X161902742Y-103175029D01*
X161685113Y-103012113D01*
X161685108Y-103012110D01*
X161685107Y-103012109D01*
X161446518Y-102881830D01*
X161446519Y-102881830D01*
X161396920Y-102863330D01*
X161191801Y-102786825D01*
X161191794Y-102786823D01*
X161191793Y-102786823D01*
X160926168Y-102729040D01*
X160926161Y-102729039D01*
X160782177Y-102718740D01*
X160716713Y-102694323D01*
X160703343Y-102682737D01*
X159255869Y-101235263D01*
X159222384Y-101173940D01*
X159227368Y-101104248D01*
X159269240Y-101048315D01*
X159334704Y-101023898D01*
X159370206Y-101026481D01*
X159485254Y-101051805D01*
X159841052Y-101090500D01*
X159841058Y-101090500D01*
X160198942Y-101090500D01*
X160198948Y-101090500D01*
X160554746Y-101051805D01*
X160904274Y-100974868D01*
X161243435Y-100860591D01*
X161568253Y-100710315D01*
X161874919Y-100525800D01*
X162159837Y-100309211D01*
X162419668Y-100063086D01*
X162625992Y-99820181D01*
X162684395Y-99781831D01*
X162754261Y-99781143D01*
X162813409Y-99818336D01*
X162843058Y-99881603D01*
X162844500Y-99900458D01*
X162844500Y-108468182D01*
X162824815Y-108535221D01*
X162772011Y-108580976D01*
X162702853Y-108590920D01*
X162639297Y-108561895D01*
X162603459Y-108509137D01*
X162582882Y-108450334D01*
X162490237Y-108302890D01*
X162367109Y-108179762D01*
X162219667Y-108087118D01*
X162055306Y-108029606D01*
X162055301Y-108029605D01*
X161925671Y-108015000D01*
X161005000Y-108015000D01*
X161005000Y-109212820D01*
X160936036Y-109180914D01*
X160750162Y-109140000D01*
X160607555Y-109140000D01*
X160465792Y-109155418D01*
X160305000Y-109209594D01*
X160305000Y-108015000D01*
X159384335Y-108015000D01*
X159384327Y-108015001D01*
X159254696Y-108029605D01*
X159254683Y-108029608D01*
X159090334Y-108087117D01*
X158942890Y-108179762D01*
X158819762Y-108302890D01*
X158727118Y-108450332D01*
X158669606Y-108614693D01*
X158669605Y-108614698D01*
X158655000Y-108744328D01*
X158655000Y-109665000D01*
X159852556Y-109665000D01*
X159806922Y-109779532D01*
X159776131Y-109967349D01*
X159786435Y-110157394D01*
X159837352Y-110340781D01*
X159850192Y-110365000D01*
X158655001Y-110365000D01*
X158655001Y-111285672D01*
X158669605Y-111415303D01*
X158669608Y-111415316D01*
X158727117Y-111579665D01*
X158819762Y-111727109D01*
X158942890Y-111850237D01*
X159090332Y-111942881D01*
X159254693Y-112000393D01*
X159254698Y-112000394D01*
X159384330Y-112014999D01*
X160304999Y-112014999D01*
X160305000Y-112014998D01*
X160305000Y-110817179D01*
X160373964Y-110849086D01*
X160559838Y-110890000D01*
X160702445Y-110890000D01*
X160844208Y-110874582D01*
X161005000Y-110820405D01*
X161005000Y-112014999D01*
X161925665Y-112014999D01*
X161925672Y-112014998D01*
X162055303Y-112000394D01*
X162055316Y-112000391D01*
X162219665Y-111942882D01*
X162367109Y-111850237D01*
X162490237Y-111727109D01*
X162582881Y-111579667D01*
X162603458Y-111520862D01*
X162644180Y-111464086D01*
X162709132Y-111438338D01*
X162777694Y-111451794D01*
X162828097Y-111500181D01*
X162844500Y-111561816D01*
X162844500Y-128308182D01*
X162824815Y-128375221D01*
X162772011Y-128420976D01*
X162702853Y-128430920D01*
X162639297Y-128401895D01*
X162603459Y-128349137D01*
X162582882Y-128290334D01*
X162490237Y-128142890D01*
X162367109Y-128019762D01*
X162219667Y-127927118D01*
X162055306Y-127869606D01*
X162055301Y-127869605D01*
X161925671Y-127855000D01*
X161005000Y-127855000D01*
X161005000Y-129052820D01*
X160936036Y-129020914D01*
X160750162Y-128980000D01*
X160607555Y-128980000D01*
X160465792Y-128995418D01*
X160305000Y-129049594D01*
X160305000Y-127855000D01*
X159384335Y-127855000D01*
X159384327Y-127855001D01*
X159254696Y-127869605D01*
X159254683Y-127869608D01*
X159090334Y-127927117D01*
X158942890Y-128019762D01*
X158819762Y-128142890D01*
X158727118Y-128290332D01*
X158669606Y-128454693D01*
X158669605Y-128454698D01*
X158655000Y-128584328D01*
X158655000Y-129505000D01*
X159852556Y-129505000D01*
X159806922Y-129619532D01*
X159776131Y-129807349D01*
X159786435Y-129997394D01*
X159837352Y-130180781D01*
X159850192Y-130205000D01*
X158655001Y-130205000D01*
X158655001Y-131125672D01*
X158669605Y-131255303D01*
X158669608Y-131255316D01*
X158727117Y-131419665D01*
X158819762Y-131567109D01*
X158942890Y-131690237D01*
X159090332Y-131782881D01*
X159254693Y-131840393D01*
X159254698Y-131840394D01*
X159384330Y-131854999D01*
X160304999Y-131854999D01*
X160305000Y-131854998D01*
X160305000Y-130657179D01*
X160373964Y-130689086D01*
X160559838Y-130730000D01*
X160702445Y-130730000D01*
X160844208Y-130714582D01*
X161005000Y-130660405D01*
X161005000Y-131854999D01*
X161925665Y-131854999D01*
X161925672Y-131854998D01*
X162055303Y-131840394D01*
X162055316Y-131840391D01*
X162219665Y-131782882D01*
X162367109Y-131690237D01*
X162490237Y-131567109D01*
X162582881Y-131419667D01*
X162603458Y-131360862D01*
X162644180Y-131304086D01*
X162709132Y-131278338D01*
X162777694Y-131291794D01*
X162828097Y-131340181D01*
X162844500Y-131401816D01*
X162844500Y-140129541D01*
X162824815Y-140196580D01*
X162772011Y-140242335D01*
X162702853Y-140252279D01*
X162639297Y-140223254D01*
X162625992Y-140209817D01*
X162419668Y-139966914D01*
X162159837Y-139720789D01*
X162159830Y-139720783D01*
X162159827Y-139720781D01*
X162092245Y-139669407D01*
X161874919Y-139504200D01*
X161568253Y-139319685D01*
X161568252Y-139319684D01*
X161568248Y-139319682D01*
X161568244Y-139319680D01*
X161243447Y-139169414D01*
X161243441Y-139169411D01*
X161243435Y-139169409D01*
X161073854Y-139112270D01*
X160904273Y-139055131D01*
X160554744Y-138978194D01*
X160198949Y-138939500D01*
X160198948Y-138939500D01*
X159841052Y-138939500D01*
X159841050Y-138939500D01*
X159485254Y-138978194D01*
X159165046Y-139048677D01*
X159095342Y-139043864D01*
X159039306Y-139002130D01*
X159014728Y-138936726D01*
X159029412Y-138868417D01*
X159050706Y-138839898D01*
X160703345Y-137187259D01*
X160764666Y-137153776D01*
X160782170Y-137151259D01*
X160926160Y-137140961D01*
X161191801Y-137083175D01*
X161446513Y-136988172D01*
X161446517Y-136988169D01*
X161446519Y-136988169D01*
X161621127Y-136892826D01*
X161685113Y-136857887D01*
X161902742Y-136694971D01*
X162094971Y-136502742D01*
X162257887Y-136285113D01*
X162353293Y-136110390D01*
X162388169Y-136046519D01*
X162388169Y-136046517D01*
X162388172Y-136046513D01*
X162483175Y-135791801D01*
X162540961Y-135526160D01*
X162559997Y-135260000D01*
X162560355Y-135255001D01*
X162560355Y-135254998D01*
X162552342Y-135142969D01*
X162540961Y-134983840D01*
X162483175Y-134718199D01*
X162388172Y-134463487D01*
X162388170Y-134463484D01*
X162388169Y-134463480D01*
X162257890Y-134224892D01*
X162257889Y-134224891D01*
X162257887Y-134224887D01*
X162094971Y-134007258D01*
X162094966Y-134007253D01*
X162094961Y-134007247D01*
X161902752Y-133815038D01*
X161902746Y-133815033D01*
X161902742Y-133815029D01*
X161685113Y-133652113D01*
X161685108Y-133652110D01*
X161685107Y-133652109D01*
X161446518Y-133521830D01*
X161446519Y-133521830D01*
X161396920Y-133503330D01*
X161191801Y-133426825D01*
X161191794Y-133426823D01*
X161191793Y-133426823D01*
X160926167Y-133369040D01*
X160926160Y-133369039D01*
X160655001Y-133349645D01*
X160654999Y-133349645D01*
X160383839Y-133369039D01*
X160383832Y-133369040D01*
X160118206Y-133426823D01*
X160118202Y-133426824D01*
X160118199Y-133426825D01*
X159990843Y-133474326D01*
X159863480Y-133521830D01*
X159624892Y-133652109D01*
X159624891Y-133652110D01*
X159407259Y-133815028D01*
X159407247Y-133815038D01*
X159215038Y-134007247D01*
X159215028Y-134007259D01*
X159052110Y-134224891D01*
X159052109Y-134224892D01*
X158921830Y-134463480D01*
X158876506Y-134585000D01*
X158826825Y-134718199D01*
X158826824Y-134718202D01*
X158826823Y-134718206D01*
X158769040Y-134983831D01*
X158769039Y-134983838D01*
X158758740Y-135127821D01*
X158734322Y-135193285D01*
X158722737Y-135206655D01*
X151856213Y-142073181D01*
X151794890Y-142106666D01*
X151768532Y-142109500D01*
X144776468Y-142109500D01*
X144709429Y-142089815D01*
X144688787Y-142073181D01*
X143316819Y-140701213D01*
X143283334Y-140639890D01*
X143280500Y-140613532D01*
X143280500Y-139065005D01*
X143829859Y-139065005D01*
X143850385Y-139312729D01*
X143850387Y-139312738D01*
X143911412Y-139553717D01*
X144011265Y-139781362D01*
X144011267Y-139781366D01*
X144055679Y-139849344D01*
X144835000Y-139070024D01*
X144835000Y-139136889D01*
X144875507Y-139274844D01*
X144953239Y-139395798D01*
X145061900Y-139489952D01*
X145192685Y-139549680D01*
X145299237Y-139565000D01*
X145329975Y-139565000D01*
X144549500Y-140345473D01*
X144730391Y-140443367D01*
X144730399Y-140443370D01*
X144965506Y-140524083D01*
X145210707Y-140565000D01*
X145459293Y-140565000D01*
X145704493Y-140524083D01*
X145939600Y-140443370D01*
X145939608Y-140443367D01*
X146120498Y-140345473D01*
X145340025Y-139565000D01*
X145370763Y-139565000D01*
X145477315Y-139549680D01*
X145608100Y-139489952D01*
X145716761Y-139395798D01*
X145794493Y-139274844D01*
X145835000Y-139136889D01*
X145835000Y-139070026D01*
X146614319Y-139849345D01*
X146658731Y-139781369D01*
X146758587Y-139553717D01*
X146819612Y-139312738D01*
X146819614Y-139312729D01*
X146840141Y-139065005D01*
X146840141Y-139064994D01*
X146819614Y-138817270D01*
X146819612Y-138817261D01*
X146758587Y-138576282D01*
X146658732Y-138348632D01*
X146614319Y-138280653D01*
X145835000Y-139059973D01*
X145835000Y-138993111D01*
X145794493Y-138855156D01*
X145716761Y-138734202D01*
X145608100Y-138640048D01*
X145477315Y-138580320D01*
X145370763Y-138565000D01*
X145340026Y-138565000D01*
X146120498Y-137784525D01*
X145939609Y-137686632D01*
X145939603Y-137686630D01*
X145704493Y-137605916D01*
X145459293Y-137565000D01*
X145210707Y-137565000D01*
X144965506Y-137605916D01*
X144730396Y-137686630D01*
X144730385Y-137686635D01*
X144549500Y-137784524D01*
X144549500Y-137784525D01*
X145329975Y-138565000D01*
X145299237Y-138565000D01*
X145192685Y-138580320D01*
X145061900Y-138640048D01*
X144953239Y-138734202D01*
X144875507Y-138855156D01*
X144835000Y-138993111D01*
X144835000Y-139059975D01*
X144055679Y-138280654D01*
X144011267Y-138348634D01*
X143911411Y-138576282D01*
X143850387Y-138817261D01*
X143850385Y-138817270D01*
X143829859Y-139064994D01*
X143829859Y-139065005D01*
X143280500Y-139065005D01*
X143280500Y-137416667D01*
X143280500Y-137416655D01*
X143279632Y-137390131D01*
X143278571Y-137373945D01*
X143278569Y-137373920D01*
X143275971Y-137347552D01*
X143258715Y-137216490D01*
X143248368Y-137164467D01*
X143242069Y-137140960D01*
X143239990Y-137133201D01*
X143222940Y-137082976D01*
X143175495Y-136968433D01*
X143152035Y-136920859D01*
X143135850Y-136892826D01*
X143106382Y-136848725D01*
X143025915Y-136743858D01*
X143021254Y-136738178D01*
X143009081Y-136723344D01*
X143005067Y-136718767D01*
X142998383Y-136711146D01*
X142980247Y-136691783D01*
X142248464Y-135960000D01*
X152445281Y-135960000D01*
X152450144Y-136007605D01*
X152450144Y-136007608D01*
X152503452Y-136168481D01*
X152503457Y-136168492D01*
X152592424Y-136312728D01*
X152592427Y-136312732D01*
X152712267Y-136432572D01*
X152712271Y-136432575D01*
X152856507Y-136521542D01*
X152856518Y-136521547D01*
X153017392Y-136574855D01*
X153039999Y-136577165D01*
X153040000Y-136577165D01*
X153040000Y-135960000D01*
X152445281Y-135960000D01*
X142248464Y-135960000D01*
X141770220Y-135481756D01*
X141736735Y-135420433D01*
X141735831Y-135379519D01*
X141735053Y-135379453D01*
X141735500Y-135374198D01*
X141735500Y-135259999D01*
X152445280Y-135259999D01*
X152445281Y-135260000D01*
X153040000Y-135260000D01*
X153040000Y-134642834D01*
X153017395Y-134645143D01*
X152856518Y-134698452D01*
X152856507Y-134698457D01*
X152712271Y-134787424D01*
X152712267Y-134787427D01*
X152592427Y-134907267D01*
X152592424Y-134907271D01*
X152503457Y-135051507D01*
X152503451Y-135051520D01*
X152450143Y-135212395D01*
X152445280Y-135259999D01*
X141735500Y-135259999D01*
X141735500Y-133346467D01*
X141755185Y-133279428D01*
X141771814Y-133258791D01*
X143730604Y-131300000D01*
X151432835Y-131300000D01*
X151435144Y-131322607D01*
X151488452Y-131483481D01*
X151488457Y-131483492D01*
X151577424Y-131627728D01*
X151577427Y-131627732D01*
X151697267Y-131747572D01*
X151697271Y-131747575D01*
X151841507Y-131836542D01*
X151841518Y-131836547D01*
X152002392Y-131889855D01*
X152050000Y-131894718D01*
X152050000Y-131300000D01*
X152750000Y-131300000D01*
X152750000Y-131894717D01*
X152797605Y-131889855D01*
X152797608Y-131889855D01*
X152958481Y-131836547D01*
X152958492Y-131836542D01*
X153102728Y-131747575D01*
X153102732Y-131747572D01*
X153222572Y-131627732D01*
X153222575Y-131627728D01*
X153311542Y-131483492D01*
X153311547Y-131483481D01*
X153364856Y-131322604D01*
X153367166Y-131300000D01*
X152750000Y-131300000D01*
X152050000Y-131300000D01*
X151432835Y-131300000D01*
X143730604Y-131300000D01*
X143830978Y-131199626D01*
X143836703Y-131194254D01*
X143889755Y-131147564D01*
X143954487Y-131067393D01*
X143956095Y-131065444D01*
X144022554Y-130986621D01*
X144025453Y-130981680D01*
X144035933Y-130966524D01*
X144039523Y-130962080D01*
X144089817Y-130872047D01*
X144091002Y-130869977D01*
X144143213Y-130781009D01*
X144145232Y-130775655D01*
X144152995Y-130758956D01*
X144155790Y-130753954D01*
X144190125Y-130656774D01*
X144191013Y-130654344D01*
X144195205Y-130643238D01*
X144227386Y-130557963D01*
X144228472Y-130552345D01*
X144233304Y-130534567D01*
X144235211Y-130529171D01*
X144252639Y-130427518D01*
X144253082Y-130425093D01*
X144272654Y-130323900D01*
X144272775Y-130318175D01*
X144274531Y-130299849D01*
X144275500Y-130294200D01*
X144275500Y-130191181D01*
X144275528Y-130188548D01*
X144277715Y-130085554D01*
X144277715Y-130085553D01*
X144277271Y-130082590D01*
X144276866Y-130079878D01*
X144275500Y-130061526D01*
X144275500Y-129731517D01*
X147244500Y-129731517D01*
X147253878Y-129790726D01*
X147259354Y-129825304D01*
X147316950Y-129938342D01*
X147316952Y-129938344D01*
X147316954Y-129938347D01*
X147406652Y-130028045D01*
X147406654Y-130028046D01*
X147406658Y-130028050D01*
X147519515Y-130085554D01*
X147519698Y-130085647D01*
X147613475Y-130100499D01*
X147613481Y-130100500D01*
X150576518Y-130100499D01*
X150670304Y-130085646D01*
X150783342Y-130028050D01*
X150873050Y-129938342D01*
X150930646Y-129825304D01*
X150930646Y-129825302D01*
X150930647Y-129825301D01*
X150938598Y-129775102D01*
X150968527Y-129711967D01*
X151027839Y-129675036D01*
X151061071Y-129670500D01*
X151418754Y-129670500D01*
X151485793Y-129690185D01*
X151531548Y-129742989D01*
X151537830Y-129759905D01*
X151571380Y-129875384D01*
X151571382Y-129875390D01*
X151651827Y-130011416D01*
X151651834Y-130011425D01*
X151657370Y-130016961D01*
X151690855Y-130078284D01*
X151685871Y-130147976D01*
X151657371Y-130192322D01*
X151577427Y-130272267D01*
X151577424Y-130272271D01*
X151488457Y-130416507D01*
X151488452Y-130416518D01*
X151435143Y-130577395D01*
X151432834Y-130600000D01*
X153367165Y-130600000D01*
X153367165Y-130599999D01*
X153364855Y-130577392D01*
X153311547Y-130416518D01*
X153311542Y-130416507D01*
X153222575Y-130272271D01*
X153222572Y-130272267D01*
X153142628Y-130192323D01*
X153109143Y-130131000D01*
X153114127Y-130061308D01*
X153142630Y-130016959D01*
X153148170Y-130011420D01*
X153228618Y-129875390D01*
X153248386Y-129807349D01*
X153262170Y-129759905D01*
X153299776Y-129701019D01*
X153363249Y-129671813D01*
X153381246Y-129670500D01*
X153982082Y-129670500D01*
X154049121Y-129690185D01*
X154094876Y-129742989D01*
X154096635Y-129747029D01*
X154140464Y-129852841D01*
X154236718Y-129978282D01*
X154343533Y-130060244D01*
X154364880Y-130076624D01*
X154406082Y-130133053D01*
X154410237Y-130202799D01*
X154376024Y-130263719D01*
X154364880Y-130273376D01*
X154236718Y-130371718D01*
X154140463Y-130497160D01*
X154079956Y-130643237D01*
X154079955Y-130643239D01*
X154064500Y-130760638D01*
X154064500Y-131239363D01*
X154079953Y-131356753D01*
X154079956Y-131356762D01*
X154121514Y-131457093D01*
X154140464Y-131502841D01*
X154213877Y-131598515D01*
X154239070Y-131663681D01*
X154239500Y-131673999D01*
X154239500Y-134671199D01*
X154219815Y-134738238D01*
X154167011Y-134783993D01*
X154097853Y-134793937D01*
X154050403Y-134776738D01*
X153923486Y-134698454D01*
X153923481Y-134698452D01*
X153762602Y-134645143D01*
X153762606Y-134645143D01*
X153740000Y-134642834D01*
X153740000Y-136577165D01*
X153762607Y-136574855D01*
X153923481Y-136521547D01*
X153923492Y-136521542D01*
X154067727Y-136432576D01*
X154147675Y-136352628D01*
X154208998Y-136319143D01*
X154278690Y-136324127D01*
X154323042Y-136352632D01*
X154328580Y-136358170D01*
X154464610Y-136438618D01*
X154616373Y-136482709D01*
X154651837Y-136485500D01*
X155228162Y-136485499D01*
X155263627Y-136482709D01*
X155415390Y-136438618D01*
X155551420Y-136358170D01*
X155663170Y-136246420D01*
X155743618Y-136110390D01*
X155787709Y-135958627D01*
X155790500Y-135923163D01*
X155790499Y-135296838D01*
X155787709Y-135261373D01*
X155743618Y-135109610D01*
X155669233Y-134983832D01*
X155659199Y-134966865D01*
X155661623Y-134965430D01*
X155640985Y-134912858D01*
X155640500Y-134901899D01*
X155640500Y-131673999D01*
X155660185Y-131606960D01*
X155666110Y-131598531D01*
X155739536Y-131502841D01*
X155800044Y-131356762D01*
X155815500Y-131239361D01*
X155815499Y-130760640D01*
X155815499Y-130760638D01*
X155815499Y-130760636D01*
X155800046Y-130643246D01*
X155800044Y-130643239D01*
X155800044Y-130643238D01*
X155739536Y-130497159D01*
X155643282Y-130371718D01*
X155643280Y-130371717D01*
X155643280Y-130371716D01*
X155515120Y-130273376D01*
X155473917Y-130216948D01*
X155469762Y-130147202D01*
X155503974Y-130086282D01*
X155515120Y-130076624D01*
X155536824Y-130059969D01*
X155643282Y-129978282D01*
X155739536Y-129852841D01*
X155800044Y-129706762D01*
X155815500Y-129589361D01*
X155815499Y-129543513D01*
X155835182Y-129476476D01*
X155867890Y-129442281D01*
X155895643Y-129422652D01*
X155897577Y-129421316D01*
X155983003Y-129363579D01*
X155987136Y-129359616D01*
X156001336Y-129347899D01*
X156006016Y-129344590D01*
X156078900Y-129271704D01*
X156080686Y-129269956D01*
X156155118Y-129198621D01*
X156158527Y-129194010D01*
X156170539Y-129180065D01*
X157348878Y-128001726D01*
X157350663Y-127999978D01*
X157425118Y-127928621D01*
X157428527Y-127924010D01*
X157440539Y-127910065D01*
X160703345Y-124647259D01*
X160764666Y-124613776D01*
X160782170Y-124611259D01*
X160926160Y-124600961D01*
X161191801Y-124543175D01*
X161446513Y-124448172D01*
X161446517Y-124448169D01*
X161446519Y-124448169D01*
X161565813Y-124383029D01*
X161685113Y-124317887D01*
X161902742Y-124154971D01*
X162094971Y-123962742D01*
X162257887Y-123745113D01*
X162367040Y-123545214D01*
X162388169Y-123506519D01*
X162388169Y-123506517D01*
X162388172Y-123506513D01*
X162483175Y-123251801D01*
X162540961Y-122986160D01*
X162560355Y-122715000D01*
X162540961Y-122443840D01*
X162483175Y-122178199D01*
X162388172Y-121923487D01*
X162388170Y-121923484D01*
X162388169Y-121923480D01*
X162257890Y-121684892D01*
X162257889Y-121684891D01*
X162257887Y-121684887D01*
X162094971Y-121467258D01*
X162094966Y-121467253D01*
X162094961Y-121467247D01*
X161902752Y-121275038D01*
X161902746Y-121275033D01*
X161902742Y-121275029D01*
X161685113Y-121112113D01*
X161685108Y-121112110D01*
X161685107Y-121112109D01*
X161446518Y-120981830D01*
X161446519Y-120981830D01*
X161383545Y-120958342D01*
X161191801Y-120886825D01*
X161191794Y-120886823D01*
X161191793Y-120886823D01*
X160926167Y-120829040D01*
X160926160Y-120829039D01*
X160655001Y-120809645D01*
X160654999Y-120809645D01*
X160383839Y-120829039D01*
X160383832Y-120829040D01*
X160118206Y-120886823D01*
X160118202Y-120886824D01*
X160118199Y-120886825D01*
X159990843Y-120934326D01*
X159863480Y-120981830D01*
X159624892Y-121112109D01*
X159624891Y-121112110D01*
X159407259Y-121275028D01*
X159407247Y-121275038D01*
X159215038Y-121467247D01*
X159215028Y-121467259D01*
X159052110Y-121684891D01*
X159052109Y-121684892D01*
X158921830Y-121923480D01*
X158893291Y-121999997D01*
X158826825Y-122178199D01*
X158826824Y-122178202D01*
X158826823Y-122178206D01*
X158769040Y-122443831D01*
X158769039Y-122443838D01*
X158758740Y-122587821D01*
X158734322Y-122653285D01*
X158722737Y-122666655D01*
X155826213Y-125563181D01*
X155764890Y-125596666D01*
X155738532Y-125599500D01*
X151069499Y-125599500D01*
X151002460Y-125579815D01*
X150956705Y-125527011D01*
X150945499Y-125475500D01*
X150945499Y-124268482D01*
X150945498Y-124268475D01*
X150930646Y-124174696D01*
X150873050Y-124061658D01*
X150873046Y-124061654D01*
X150873045Y-124061652D01*
X150783347Y-123971954D01*
X150783344Y-123971952D01*
X150783342Y-123971950D01*
X150697584Y-123928254D01*
X150670301Y-123914352D01*
X150576524Y-123899500D01*
X147613482Y-123899500D01*
X147532519Y-123912323D01*
X147519696Y-123914354D01*
X147406658Y-123971950D01*
X147406657Y-123971951D01*
X147406652Y-123971954D01*
X147316954Y-124061652D01*
X147316951Y-124061657D01*
X147259352Y-124174698D01*
X147244500Y-124268475D01*
X147244500Y-129731517D01*
X144275500Y-129731517D01*
X144275500Y-123135642D01*
X153029331Y-123135642D01*
X153223673Y-123226265D01*
X153223682Y-123226269D01*
X153443389Y-123285139D01*
X153443400Y-123285141D01*
X153669998Y-123304966D01*
X153670002Y-123304966D01*
X153896599Y-123285141D01*
X153896610Y-123285139D01*
X154116317Y-123226269D01*
X154116326Y-123226265D01*
X154310668Y-123135642D01*
X153670001Y-122494975D01*
X153670000Y-122494975D01*
X153029331Y-123135642D01*
X144275500Y-123135642D01*
X144275500Y-122000002D01*
X152365034Y-122000002D01*
X152384858Y-122226599D01*
X152384860Y-122226610D01*
X152443730Y-122446317D01*
X152443735Y-122446331D01*
X152534355Y-122640668D01*
X152534356Y-122640668D01*
X153175025Y-122000000D01*
X153265014Y-122000000D01*
X153284835Y-122125148D01*
X153342359Y-122238045D01*
X153431955Y-122327641D01*
X153544852Y-122385165D01*
X153638519Y-122400000D01*
X153701481Y-122400000D01*
X153795148Y-122385165D01*
X153908045Y-122327641D01*
X153997641Y-122238045D01*
X154055165Y-122125148D01*
X154074986Y-122000000D01*
X154164975Y-122000000D01*
X154805642Y-122640667D01*
X154896265Y-122446326D01*
X154896269Y-122446317D01*
X154955139Y-122226610D01*
X154955141Y-122226599D01*
X154974966Y-122000002D01*
X154974966Y-121999997D01*
X154955141Y-121773400D01*
X154955139Y-121773389D01*
X154896269Y-121553682D01*
X154896265Y-121553673D01*
X154805642Y-121359331D01*
X154164975Y-121999999D01*
X154164975Y-122000000D01*
X154074986Y-122000000D01*
X154055165Y-121874852D01*
X153997641Y-121761955D01*
X153908045Y-121672359D01*
X153795148Y-121614835D01*
X153701481Y-121600000D01*
X153638519Y-121600000D01*
X153544852Y-121614835D01*
X153431955Y-121672359D01*
X153342359Y-121761955D01*
X153284835Y-121874852D01*
X153265014Y-122000000D01*
X153175025Y-122000000D01*
X152534355Y-121359330D01*
X152443735Y-121553668D01*
X152443730Y-121553682D01*
X152384860Y-121773389D01*
X152384858Y-121773400D01*
X152365034Y-121999997D01*
X152365034Y-122000002D01*
X144275500Y-122000002D01*
X144275500Y-120864355D01*
X153029330Y-120864355D01*
X153670000Y-121505025D01*
X153670001Y-121505025D01*
X154310668Y-120864356D01*
X154310668Y-120864355D01*
X154116331Y-120773735D01*
X154116317Y-120773730D01*
X153896610Y-120714860D01*
X153896599Y-120714858D01*
X153670002Y-120695034D01*
X153669998Y-120695034D01*
X153443400Y-120714858D01*
X153443389Y-120714860D01*
X153223682Y-120773730D01*
X153223668Y-120773735D01*
X153029330Y-120864355D01*
X144275500Y-120864355D01*
X144275500Y-119165642D01*
X153029331Y-119165642D01*
X153223673Y-119256265D01*
X153223682Y-119256269D01*
X153443389Y-119315139D01*
X153443400Y-119315141D01*
X153669998Y-119334966D01*
X153670002Y-119334966D01*
X153896599Y-119315141D01*
X153896610Y-119315139D01*
X154116317Y-119256269D01*
X154116326Y-119256265D01*
X154310668Y-119165642D01*
X153670001Y-118524975D01*
X153670000Y-118524975D01*
X153029331Y-119165642D01*
X144275500Y-119165642D01*
X144275500Y-118030002D01*
X152365034Y-118030002D01*
X152384858Y-118256599D01*
X152384860Y-118256610D01*
X152443730Y-118476317D01*
X152443735Y-118476331D01*
X152534355Y-118670668D01*
X152534356Y-118670668D01*
X153175025Y-118030000D01*
X153265014Y-118030000D01*
X153284835Y-118155148D01*
X153342359Y-118268045D01*
X153431955Y-118357641D01*
X153544852Y-118415165D01*
X153638519Y-118430000D01*
X153701481Y-118430000D01*
X153795148Y-118415165D01*
X153908045Y-118357641D01*
X153997641Y-118268045D01*
X154055165Y-118155148D01*
X154074986Y-118030000D01*
X154164975Y-118030000D01*
X154805642Y-118670667D01*
X154896265Y-118476326D01*
X154896269Y-118476317D01*
X154955139Y-118256610D01*
X154955141Y-118256599D01*
X154974966Y-118030002D01*
X154974966Y-118029997D01*
X154955141Y-117803400D01*
X154955139Y-117803389D01*
X154896269Y-117583682D01*
X154896265Y-117583673D01*
X154805642Y-117389331D01*
X154164975Y-118029999D01*
X154164975Y-118030000D01*
X154074986Y-118030000D01*
X154055165Y-117904852D01*
X153997641Y-117791955D01*
X153908045Y-117702359D01*
X153795148Y-117644835D01*
X153701481Y-117630000D01*
X153638519Y-117630000D01*
X153544852Y-117644835D01*
X153431955Y-117702359D01*
X153342359Y-117791955D01*
X153284835Y-117904852D01*
X153265014Y-118030000D01*
X153175025Y-118030000D01*
X152534355Y-117389330D01*
X152443735Y-117583668D01*
X152443730Y-117583682D01*
X152384860Y-117803389D01*
X152384858Y-117803400D01*
X152365034Y-118029997D01*
X152365034Y-118030002D01*
X144275500Y-118030002D01*
X144275500Y-116894355D01*
X153029330Y-116894355D01*
X153670000Y-117535025D01*
X153670001Y-117535025D01*
X154310668Y-116894356D01*
X154310668Y-116894355D01*
X154116331Y-116803735D01*
X154116317Y-116803730D01*
X153896610Y-116744860D01*
X153896599Y-116744858D01*
X153670002Y-116725034D01*
X153669998Y-116725034D01*
X153443400Y-116744858D01*
X153443389Y-116744860D01*
X153223682Y-116803730D01*
X153223668Y-116803735D01*
X153029330Y-116894355D01*
X144275500Y-116894355D01*
X144275500Y-115761517D01*
X147244500Y-115761517D01*
X147255292Y-115829657D01*
X147259354Y-115855304D01*
X147316950Y-115968342D01*
X147316952Y-115968344D01*
X147316954Y-115968347D01*
X147406652Y-116058045D01*
X147406654Y-116058046D01*
X147406658Y-116058050D01*
X147503950Y-116107623D01*
X147519698Y-116115647D01*
X147613475Y-116130499D01*
X147613481Y-116130500D01*
X150576518Y-116130499D01*
X150670304Y-116115646D01*
X150783342Y-116058050D01*
X150873050Y-115968342D01*
X150930646Y-115855304D01*
X150930646Y-115855302D01*
X150930647Y-115855301D01*
X150945500Y-115761524D01*
X150945500Y-114554500D01*
X150965185Y-114487461D01*
X151017989Y-114441706D01*
X151069500Y-114430500D01*
X153550800Y-114430500D01*
X155738532Y-114430500D01*
X155805571Y-114450185D01*
X155826213Y-114466819D01*
X158718181Y-117358787D01*
X158751666Y-117420110D01*
X158754500Y-117446468D01*
X158754500Y-118596688D01*
X158754514Y-118596838D01*
X158760663Y-118664513D01*
X158760663Y-118664515D01*
X158760664Y-118664517D01*
X158804284Y-118804500D01*
X158809303Y-118820605D01*
X158893876Y-118960508D01*
X158893880Y-118960513D01*
X159009486Y-119076119D01*
X159009491Y-119076123D01*
X159112075Y-119138136D01*
X159149397Y-119160698D01*
X159305483Y-119209336D01*
X159373312Y-119215500D01*
X159373315Y-119215500D01*
X161936685Y-119215500D01*
X161936688Y-119215500D01*
X162004517Y-119209336D01*
X162160603Y-119160698D01*
X162290086Y-119082423D01*
X162300508Y-119076123D01*
X162300509Y-119076121D01*
X162300514Y-119076119D01*
X162416119Y-118960514D01*
X162424659Y-118946388D01*
X162465146Y-118879413D01*
X162500698Y-118820603D01*
X162549336Y-118664517D01*
X162555500Y-118596688D01*
X162555500Y-116033312D01*
X162549336Y-115965483D01*
X162500698Y-115809397D01*
X162458887Y-115740233D01*
X162416123Y-115669491D01*
X162416119Y-115669486D01*
X162300513Y-115553880D01*
X162300508Y-115553876D01*
X162160605Y-115469303D01*
X162160604Y-115469302D01*
X162160603Y-115469302D01*
X162004517Y-115420664D01*
X162004515Y-115420663D01*
X162004513Y-115420663D01*
X161957025Y-115416348D01*
X161936688Y-115414500D01*
X161936685Y-115414500D01*
X160786468Y-115414500D01*
X160719429Y-115394815D01*
X160698787Y-115378181D01*
X157394640Y-112074034D01*
X157389238Y-112068277D01*
X157342563Y-112015244D01*
X157342561Y-112015242D01*
X157312827Y-111991234D01*
X157303044Y-111982438D01*
X156124640Y-110804034D01*
X156119238Y-110798277D01*
X156072564Y-110745245D01*
X155992428Y-110680539D01*
X155990399Y-110678865D01*
X155911621Y-110612446D01*
X155906671Y-110609541D01*
X155891541Y-110599078D01*
X155887084Y-110595480D01*
X155887083Y-110595479D01*
X155887080Y-110595477D01*
X155879023Y-110590976D01*
X155830098Y-110541097D01*
X155815499Y-110482723D01*
X155815499Y-110440636D01*
X155800046Y-110323246D01*
X155800044Y-110323241D01*
X155800044Y-110323238D01*
X155739536Y-110177159D01*
X155643282Y-110051718D01*
X155643280Y-110051717D01*
X155643280Y-110051716D01*
X155515120Y-109953376D01*
X155473917Y-109896948D01*
X155469762Y-109827202D01*
X155503974Y-109766282D01*
X155515120Y-109756624D01*
X155562660Y-109720145D01*
X155643282Y-109658282D01*
X155739536Y-109532841D01*
X155800044Y-109386762D01*
X155815500Y-109269361D01*
X155815499Y-108790640D01*
X155815499Y-108790638D01*
X155815499Y-108790636D01*
X155800046Y-108673246D01*
X155800044Y-108673239D01*
X155800044Y-108673238D01*
X155739536Y-108527159D01*
X155739535Y-108527158D01*
X155739535Y-108527157D01*
X155666124Y-108431485D01*
X155640930Y-108366315D01*
X155640500Y-108355999D01*
X155640500Y-104848100D01*
X155659520Y-104783324D01*
X155659199Y-104783135D01*
X155659947Y-104781868D01*
X155660185Y-104781061D01*
X155661654Y-104778982D01*
X155663167Y-104776422D01*
X155663170Y-104776420D01*
X155743618Y-104640390D01*
X155787709Y-104488627D01*
X155790500Y-104453163D01*
X155790499Y-103826838D01*
X155787709Y-103791373D01*
X155743618Y-103639610D01*
X155678636Y-103529731D01*
X155663172Y-103503583D01*
X155663165Y-103503574D01*
X155551425Y-103391834D01*
X155551416Y-103391827D01*
X155415390Y-103311382D01*
X155415385Y-103311380D01*
X155263633Y-103267292D01*
X155263620Y-103267290D01*
X155228163Y-103264500D01*
X154651849Y-103264500D01*
X154651824Y-103264501D01*
X154616372Y-103267291D01*
X154464614Y-103311380D01*
X154464609Y-103311382D01*
X154328585Y-103391826D01*
X154328574Y-103391835D01*
X154323034Y-103397375D01*
X154261710Y-103430857D01*
X154192018Y-103425870D01*
X154147676Y-103397371D01*
X154067732Y-103317427D01*
X154067728Y-103317424D01*
X153923492Y-103228457D01*
X153923481Y-103228452D01*
X153762602Y-103175143D01*
X153762606Y-103175143D01*
X153740000Y-103172834D01*
X153740000Y-105107165D01*
X153762607Y-105104855D01*
X153923481Y-105051547D01*
X153923492Y-105051542D01*
X154050403Y-104973262D01*
X154117795Y-104954821D01*
X154184458Y-104975743D01*
X154229228Y-105029385D01*
X154239500Y-105078800D01*
X154239500Y-108355999D01*
X154219815Y-108423038D01*
X154213876Y-108431485D01*
X154140464Y-108527157D01*
X154079956Y-108673237D01*
X154079955Y-108673239D01*
X154064500Y-108790638D01*
X154064500Y-109269363D01*
X154079953Y-109386753D01*
X154079956Y-109386762D01*
X154135586Y-109521066D01*
X154140464Y-109532841D01*
X154236718Y-109658282D01*
X154320758Y-109722768D01*
X154364880Y-109756624D01*
X154406082Y-109813053D01*
X154410237Y-109882799D01*
X154376024Y-109943719D01*
X154364880Y-109953376D01*
X154236718Y-110051718D01*
X154140463Y-110177160D01*
X154096643Y-110282953D01*
X154052802Y-110337356D01*
X153986508Y-110359421D01*
X153982082Y-110359500D01*
X153381246Y-110359500D01*
X153314207Y-110339815D01*
X153268452Y-110287011D01*
X153262170Y-110270095D01*
X153232555Y-110168162D01*
X153228618Y-110154610D01*
X153148170Y-110018580D01*
X153142632Y-110013042D01*
X153109144Y-109951721D01*
X153114125Y-109882029D01*
X153142628Y-109837675D01*
X153222576Y-109757727D01*
X153311542Y-109613492D01*
X153311547Y-109613481D01*
X153364856Y-109452604D01*
X153367166Y-109430000D01*
X151432835Y-109430000D01*
X151435144Y-109452607D01*
X151488452Y-109613481D01*
X151488457Y-109613492D01*
X151577424Y-109757728D01*
X151577427Y-109757732D01*
X151657371Y-109837676D01*
X151690856Y-109898999D01*
X151685872Y-109968691D01*
X151657375Y-110013034D01*
X151651835Y-110018574D01*
X151651826Y-110018585D01*
X151571382Y-110154609D01*
X151571380Y-110154615D01*
X151537830Y-110270095D01*
X151500224Y-110328981D01*
X151436751Y-110358187D01*
X151418754Y-110359500D01*
X151061070Y-110359500D01*
X150994031Y-110339815D01*
X150948276Y-110287011D01*
X150938596Y-110254896D01*
X150935988Y-110238428D01*
X150930646Y-110204696D01*
X150873050Y-110091658D01*
X150873046Y-110091654D01*
X150873045Y-110091652D01*
X150783347Y-110001954D01*
X150783344Y-110001952D01*
X150783342Y-110001950D01*
X150688011Y-109953376D01*
X150670301Y-109944352D01*
X150576524Y-109929500D01*
X147613482Y-109929500D01*
X147532519Y-109942323D01*
X147519696Y-109944354D01*
X147406658Y-110001950D01*
X147406657Y-110001951D01*
X147406652Y-110001954D01*
X147316954Y-110091652D01*
X147316951Y-110091657D01*
X147259352Y-110204698D01*
X147244500Y-110298475D01*
X147244500Y-115761517D01*
X144275500Y-115761517D01*
X144275500Y-109903548D01*
X144275751Y-109895657D01*
X144277913Y-109861745D01*
X144280246Y-109825166D01*
X144269332Y-109722731D01*
X144269085Y-109720145D01*
X144260347Y-109617467D01*
X144260347Y-109617464D01*
X144258899Y-109611903D01*
X144255597Y-109593796D01*
X144254991Y-109588109D01*
X144254991Y-109588107D01*
X144226911Y-109488949D01*
X144226232Y-109486444D01*
X144200276Y-109386752D01*
X144197917Y-109381534D01*
X144191596Y-109364231D01*
X144190039Y-109358734D01*
X144190038Y-109358733D01*
X144190037Y-109358727D01*
X144145585Y-109265700D01*
X144144506Y-109263378D01*
X144130769Y-109232989D01*
X144102077Y-109169514D01*
X144098866Y-109164763D01*
X144089723Y-109148794D01*
X144087254Y-109143628D01*
X144087250Y-109143621D01*
X144066839Y-109114762D01*
X144027727Y-109059461D01*
X144026284Y-109057374D01*
X143968579Y-108971997D01*
X143964612Y-108967858D01*
X143952898Y-108953661D01*
X143949590Y-108948984D01*
X143876726Y-108876120D01*
X143874931Y-108874286D01*
X143803620Y-108799881D01*
X143803619Y-108799880D01*
X143799008Y-108796470D01*
X143785062Y-108784456D01*
X143730606Y-108730000D01*
X151432834Y-108730000D01*
X152050000Y-108730000D01*
X152050000Y-108135280D01*
X152750000Y-108135280D01*
X152750000Y-108730000D01*
X153367165Y-108730000D01*
X153367165Y-108729999D01*
X153364855Y-108707392D01*
X153311547Y-108546518D01*
X153311542Y-108546507D01*
X153222575Y-108402271D01*
X153222572Y-108402267D01*
X153102732Y-108282427D01*
X153102728Y-108282424D01*
X152958492Y-108193457D01*
X152958479Y-108193451D01*
X152797604Y-108140143D01*
X152750000Y-108135280D01*
X152050000Y-108135280D01*
X152049999Y-108135280D01*
X152002395Y-108140143D01*
X151841520Y-108193451D01*
X151841507Y-108193457D01*
X151697271Y-108282424D01*
X151697267Y-108282427D01*
X151577427Y-108402267D01*
X151577424Y-108402271D01*
X151488457Y-108546507D01*
X151488452Y-108546518D01*
X151435143Y-108707395D01*
X151432834Y-108730000D01*
X143730606Y-108730000D01*
X141771819Y-106771213D01*
X141738334Y-106709890D01*
X141735500Y-106683532D01*
X141735500Y-104490000D01*
X152445281Y-104490000D01*
X152450144Y-104537605D01*
X152450144Y-104537608D01*
X152503452Y-104698481D01*
X152503457Y-104698492D01*
X152592424Y-104842728D01*
X152592427Y-104842732D01*
X152712267Y-104962572D01*
X152712271Y-104962575D01*
X152856507Y-105051542D01*
X152856518Y-105051547D01*
X153017392Y-105104855D01*
X153039999Y-105107165D01*
X153040000Y-105107165D01*
X153040000Y-104490000D01*
X152445281Y-104490000D01*
X141735500Y-104490000D01*
X141735500Y-103999325D01*
X141755185Y-103932286D01*
X141771819Y-103911644D01*
X141893464Y-103789999D01*
X152445280Y-103789999D01*
X152445281Y-103790000D01*
X153040000Y-103790000D01*
X153040000Y-103172834D01*
X153017395Y-103175143D01*
X152856518Y-103228452D01*
X152856507Y-103228457D01*
X152712271Y-103317424D01*
X152712267Y-103317427D01*
X152592427Y-103437267D01*
X152592424Y-103437271D01*
X152503457Y-103581507D01*
X152503451Y-103581520D01*
X152450143Y-103742395D01*
X152445280Y-103789999D01*
X141893464Y-103789999D01*
X142372083Y-103311380D01*
X142980247Y-102703216D01*
X142998383Y-102683853D01*
X143009078Y-102671658D01*
X143025915Y-102651141D01*
X143106382Y-102546274D01*
X143135850Y-102502173D01*
X143152035Y-102474140D01*
X143175495Y-102426566D01*
X143222940Y-102312023D01*
X143239990Y-102261798D01*
X143248368Y-102230531D01*
X143258715Y-102178511D01*
X143275969Y-102047462D01*
X143278571Y-102021054D01*
X143279632Y-102004868D01*
X143280500Y-101978344D01*
X143280500Y-100965005D01*
X143829859Y-100965005D01*
X143850385Y-101212729D01*
X143850387Y-101212738D01*
X143911412Y-101453717D01*
X144011265Y-101681362D01*
X144011267Y-101681366D01*
X144055679Y-101749344D01*
X144835000Y-100970024D01*
X144835000Y-101036889D01*
X144875507Y-101174844D01*
X144953239Y-101295798D01*
X145061900Y-101389952D01*
X145192685Y-101449680D01*
X145299237Y-101465000D01*
X145329975Y-101465000D01*
X144549500Y-102245473D01*
X144730391Y-102343367D01*
X144730399Y-102343370D01*
X144965506Y-102424083D01*
X145210707Y-102465000D01*
X145459293Y-102465000D01*
X145704493Y-102424083D01*
X145939600Y-102343370D01*
X145939608Y-102343367D01*
X146120498Y-102245473D01*
X145340025Y-101465000D01*
X145370763Y-101465000D01*
X145477315Y-101449680D01*
X145608100Y-101389952D01*
X145716761Y-101295798D01*
X145794493Y-101174844D01*
X145835000Y-101036889D01*
X145835000Y-100970026D01*
X146614319Y-101749345D01*
X146658731Y-101681369D01*
X146758587Y-101453717D01*
X146819612Y-101212738D01*
X146819614Y-101212729D01*
X146840141Y-100965005D01*
X146840141Y-100964994D01*
X146819614Y-100717270D01*
X146819612Y-100717261D01*
X146758587Y-100476282D01*
X146658732Y-100248632D01*
X146614319Y-100180653D01*
X145835000Y-100959973D01*
X145835000Y-100893111D01*
X145794493Y-100755156D01*
X145716761Y-100634202D01*
X145608100Y-100540048D01*
X145477315Y-100480320D01*
X145370763Y-100465000D01*
X145340026Y-100465000D01*
X146120498Y-99684525D01*
X145939609Y-99586632D01*
X145939603Y-99586630D01*
X145704493Y-99505916D01*
X145459293Y-99465000D01*
X145210707Y-99465000D01*
X144965506Y-99505916D01*
X144730396Y-99586630D01*
X144730385Y-99586635D01*
X144549500Y-99684524D01*
X144549500Y-99684525D01*
X145329975Y-100465000D01*
X145299237Y-100465000D01*
X145192685Y-100480320D01*
X145061900Y-100540048D01*
X144953239Y-100634202D01*
X144875507Y-100755156D01*
X144835000Y-100893111D01*
X144835000Y-100959975D01*
X144055679Y-100180654D01*
X144011267Y-100248634D01*
X143911411Y-100476282D01*
X143850387Y-100717261D01*
X143850385Y-100717270D01*
X143829859Y-100964994D01*
X143829859Y-100965005D01*
X143280500Y-100965005D01*
X143280500Y-99416468D01*
X143300185Y-99349429D01*
X143316819Y-99328787D01*
X144688787Y-97956819D01*
X144750110Y-97923334D01*
X144776468Y-97920500D01*
X151928532Y-97920500D01*
X151995571Y-97940185D01*
G37*
%TD.AperFunction*%
%TA.AperFunction,Conductor*%
G36*
X141250702Y-110211754D02*
G01*
X141257180Y-110217786D01*
X141438181Y-110398787D01*
X141471666Y-110460110D01*
X141474500Y-110486468D01*
X141474500Y-129543531D01*
X141454815Y-129610570D01*
X141438181Y-129631212D01*
X141257180Y-129812212D01*
X141195857Y-129845697D01*
X141126165Y-129840713D01*
X141070232Y-129798841D01*
X141045815Y-129733377D01*
X141045499Y-129724558D01*
X141045499Y-124268482D01*
X141030646Y-124174696D01*
X140973050Y-124061658D01*
X140973046Y-124061654D01*
X140973045Y-124061652D01*
X140883347Y-123971954D01*
X140883344Y-123971952D01*
X140883342Y-123971950D01*
X140797584Y-123928254D01*
X140770301Y-123914352D01*
X140676524Y-123899500D01*
X137713482Y-123899500D01*
X137632519Y-123912323D01*
X137619696Y-123914354D01*
X137506658Y-123971950D01*
X137506657Y-123971951D01*
X137506653Y-123971953D01*
X137460428Y-124018180D01*
X137399105Y-124051666D01*
X137372746Y-124054500D01*
X136744326Y-124054500D01*
X136677287Y-124034815D01*
X136656645Y-124018181D01*
X134874818Y-122236354D01*
X134841333Y-122175031D01*
X134838499Y-122148673D01*
X134838499Y-121771849D01*
X134838498Y-121771824D01*
X134838221Y-121768310D01*
X134835709Y-121736373D01*
X134791618Y-121584610D01*
X134712790Y-121451319D01*
X134711172Y-121448583D01*
X134711165Y-121448574D01*
X134635272Y-121372681D01*
X134601787Y-121311358D01*
X134606771Y-121241666D01*
X134635272Y-121197319D01*
X134711165Y-121121425D01*
X134711170Y-121121420D01*
X134791618Y-120985390D01*
X134835709Y-120833627D01*
X134838500Y-120798163D01*
X134838499Y-120221838D01*
X134835709Y-120186373D01*
X134791618Y-120034610D01*
X134720881Y-119915000D01*
X134711172Y-119898583D01*
X134711165Y-119898574D01*
X134597772Y-119785181D01*
X134564287Y-119723858D01*
X134569271Y-119654166D01*
X134597772Y-119609819D01*
X134711165Y-119496425D01*
X134711170Y-119496420D01*
X134791618Y-119360390D01*
X134835709Y-119208627D01*
X134838500Y-119173163D01*
X134838499Y-118596838D01*
X134835709Y-118561373D01*
X134791618Y-118409610D01*
X134730110Y-118305605D01*
X134711172Y-118273583D01*
X134711165Y-118273574D01*
X134635272Y-118197681D01*
X134601787Y-118136358D01*
X134606771Y-118066666D01*
X134635272Y-118022319D01*
X134711165Y-117946425D01*
X134711170Y-117946420D01*
X134791618Y-117810390D01*
X134835709Y-117658627D01*
X134838500Y-117623163D01*
X134838499Y-117246324D01*
X134858183Y-117179286D01*
X134874813Y-117158649D01*
X136021644Y-116011819D01*
X136082967Y-115978334D01*
X136109325Y-115975500D01*
X137372746Y-115975500D01*
X137439785Y-115995185D01*
X137460428Y-116011820D01*
X137506653Y-116058046D01*
X137506655Y-116058047D01*
X137506658Y-116058050D01*
X137603950Y-116107623D01*
X137619698Y-116115647D01*
X137713475Y-116130499D01*
X137713481Y-116130500D01*
X140676518Y-116130499D01*
X140770304Y-116115646D01*
X140883342Y-116058050D01*
X140973050Y-115968342D01*
X141030646Y-115855304D01*
X141030646Y-115855302D01*
X141030647Y-115855301D01*
X141045499Y-115761524D01*
X141045500Y-115761519D01*
X141045499Y-110305466D01*
X141065184Y-110238428D01*
X141117988Y-110192673D01*
X141187146Y-110182729D01*
X141250702Y-110211754D01*
G37*
%TD.AperFunction*%
%TA.AperFunction,Conductor*%
G36*
X143670523Y-94985185D02*
G01*
X143716278Y-95037989D01*
X143726222Y-95107147D01*
X143697197Y-95170703D01*
X143652937Y-95201560D01*
X143653478Y-95202692D01*
X143555760Y-95249385D01*
X143553408Y-95250478D01*
X143459514Y-95292923D01*
X143459510Y-95292925D01*
X143459507Y-95292927D01*
X143459506Y-95292927D01*
X143454765Y-95296132D01*
X143438803Y-95305272D01*
X143433622Y-95307749D01*
X143433620Y-95307750D01*
X143349511Y-95367236D01*
X143347348Y-95368731D01*
X143262004Y-95426415D01*
X143261992Y-95426424D01*
X143257850Y-95430394D01*
X143243680Y-95442087D01*
X143238989Y-95445405D01*
X143238987Y-95445407D01*
X143166142Y-95518250D01*
X143164263Y-95520089D01*
X143089879Y-95591381D01*
X143086466Y-95595996D01*
X143074457Y-95609935D01*
X141336213Y-97348181D01*
X141274890Y-97381666D01*
X141248532Y-97384500D01*
X139956288Y-97384500D01*
X139954868Y-97384546D01*
X139929843Y-97385363D01*
X139913664Y-97386421D01*
X139905325Y-97387241D01*
X139887260Y-97389018D01*
X139887253Y-97389018D01*
X139887252Y-97389019D01*
X139756382Y-97406226D01*
X139704422Y-97416547D01*
X139682773Y-97422340D01*
X139673200Y-97424902D01*
X139673195Y-97424903D01*
X139673190Y-97424905D01*
X139673168Y-97424911D01*
X139623055Y-97441897D01*
X139623054Y-97441897D01*
X139508588Y-97489241D01*
X139461077Y-97512636D01*
X139461060Y-97512645D01*
X139433083Y-97528773D01*
X139433044Y-97528797D01*
X139389010Y-97558173D01*
X139389002Y-97558178D01*
X139284204Y-97638450D01*
X139263695Y-97655250D01*
X139251518Y-97665908D01*
X139232152Y-97684012D01*
X137030084Y-99881603D01*
X136701519Y-100209500D01*
X135930867Y-100978585D01*
X135187440Y-101720500D01*
X135182109Y-101725820D01*
X129186235Y-107709501D01*
X129133358Y-107762270D01*
X129072001Y-107795693D01*
X129045766Y-107798500D01*
X128004861Y-107798500D01*
X128002166Y-107798566D01*
X127985003Y-107798986D01*
X127975267Y-107799464D01*
X127955424Y-107800927D01*
X127774859Y-107818711D01*
X127774855Y-107818712D01*
X127735497Y-107824551D01*
X127716456Y-107828339D01*
X127685427Y-107836112D01*
X127677874Y-107838004D01*
X127677869Y-107838005D01*
X127677863Y-107838007D01*
X127508909Y-107889258D01*
X127471480Y-107902651D01*
X127471432Y-107902669D01*
X127453557Y-107910074D01*
X127453508Y-107910096D01*
X127417602Y-107927078D01*
X127417554Y-107927102D01*
X127290794Y-107994858D01*
X127232341Y-108009500D01*
X126354831Y-108009500D01*
X126287792Y-107989815D01*
X126242037Y-107937011D01*
X126232093Y-107867853D01*
X126261118Y-107804297D01*
X126290898Y-107779252D01*
X126314919Y-107764800D01*
X126599837Y-107548211D01*
X126859668Y-107302086D01*
X127091365Y-107029311D01*
X127292211Y-106733085D01*
X127459853Y-106416880D01*
X127592324Y-106084403D01*
X127688071Y-105739552D01*
X127721228Y-105537301D01*
X127745970Y-105386385D01*
X127745970Y-105386382D01*
X127745972Y-105386371D01*
X127765348Y-105029000D01*
X127763931Y-105002874D01*
X127762673Y-104979655D01*
X127745972Y-104671629D01*
X127741891Y-104646739D01*
X127688073Y-104318460D01*
X127688072Y-104318459D01*
X127688071Y-104318448D01*
X127633878Y-104123260D01*
X127592327Y-103973607D01*
X127592325Y-103973600D01*
X127459857Y-103641129D01*
X127459848Y-103641111D01*
X127459054Y-103639614D01*
X127327690Y-103391835D01*
X127292215Y-103324922D01*
X127292213Y-103324919D01*
X127292211Y-103324915D01*
X127091365Y-103028689D01*
X127091361Y-103028684D01*
X127091358Y-103028680D01*
X126859668Y-102755914D01*
X126770720Y-102671658D01*
X126599837Y-102509789D01*
X126599830Y-102509783D01*
X126599827Y-102509781D01*
X126490335Y-102426548D01*
X126314919Y-102293200D01*
X126008253Y-102108685D01*
X126008252Y-102108684D01*
X126008248Y-102108682D01*
X126008244Y-102108680D01*
X125683447Y-101958414D01*
X125683441Y-101958411D01*
X125683435Y-101958409D01*
X125513854Y-101901270D01*
X125344273Y-101844131D01*
X124994744Y-101767194D01*
X124638949Y-101728500D01*
X124638948Y-101728500D01*
X124281052Y-101728500D01*
X124281050Y-101728500D01*
X123925255Y-101767194D01*
X123575726Y-101844131D01*
X123329418Y-101927123D01*
X123236565Y-101958409D01*
X123236563Y-101958410D01*
X123236552Y-101958414D01*
X122911755Y-102108680D01*
X122911751Y-102108682D01*
X122684404Y-102245473D01*
X122605081Y-102293200D01*
X122516768Y-102360333D01*
X122320172Y-102509781D01*
X122320163Y-102509789D01*
X122060331Y-102755914D01*
X121828641Y-103028680D01*
X121828634Y-103028690D01*
X121627790Y-103324913D01*
X121627784Y-103324922D01*
X121460151Y-103641111D01*
X121460142Y-103641129D01*
X121327674Y-103973600D01*
X121327672Y-103973607D01*
X121231932Y-104318434D01*
X121231926Y-104318460D01*
X121174029Y-104671614D01*
X121174028Y-104671631D01*
X121154652Y-105028997D01*
X121154652Y-105029002D01*
X121174028Y-105386368D01*
X121174029Y-105386385D01*
X121231926Y-105739539D01*
X121231932Y-105739565D01*
X121327672Y-106084392D01*
X121327674Y-106084399D01*
X121460142Y-106416870D01*
X121460151Y-106416888D01*
X121627784Y-106733077D01*
X121627787Y-106733082D01*
X121627789Y-106733085D01*
X121791143Y-106974015D01*
X121828634Y-107029309D01*
X121828641Y-107029319D01*
X122060331Y-107302085D01*
X122060332Y-107302086D01*
X122320163Y-107548211D01*
X122605081Y-107764800D01*
X122629098Y-107779251D01*
X122676392Y-107830678D01*
X122688375Y-107899513D01*
X122661240Y-107963898D01*
X122603604Y-108003393D01*
X122565169Y-108009500D01*
X118620482Y-108009500D01*
X118553443Y-107989815D01*
X118522106Y-107960986D01*
X118517425Y-107954886D01*
X118477353Y-107902662D01*
X118461283Y-107881719D01*
X118461282Y-107881718D01*
X118335841Y-107785464D01*
X118330481Y-107783244D01*
X118189762Y-107724956D01*
X118189760Y-107724955D01*
X118072361Y-107709500D01*
X117593636Y-107709500D01*
X117476246Y-107724953D01*
X117476237Y-107724956D01*
X117330160Y-107785463D01*
X117204718Y-107881718D01*
X117106376Y-108009880D01*
X117049947Y-108051082D01*
X116980201Y-108055237D01*
X116919281Y-108021024D01*
X116909624Y-108009880D01*
X116898097Y-107994858D01*
X116811282Y-107881718D01*
X116685841Y-107785464D01*
X116680481Y-107783244D01*
X116539762Y-107724956D01*
X116539760Y-107724955D01*
X116422361Y-107709500D01*
X115943636Y-107709500D01*
X115826246Y-107724953D01*
X115826237Y-107724956D01*
X115680160Y-107785463D01*
X115554718Y-107881718D01*
X115458463Y-108007160D01*
X115397956Y-108153237D01*
X115397955Y-108153239D01*
X115382500Y-108270638D01*
X115382500Y-108899363D01*
X115397953Y-109016753D01*
X115397956Y-109016762D01*
X115458464Y-109162842D01*
X115554715Y-109288279D01*
X115554716Y-109288280D01*
X115554718Y-109288282D01*
X115558982Y-109291554D01*
X115600187Y-109347978D01*
X115607500Y-109389932D01*
X115607500Y-110937057D01*
X115587815Y-111004096D01*
X115571181Y-111024738D01*
X115553184Y-111042734D01*
X115457211Y-111195473D01*
X115397631Y-111365742D01*
X115397630Y-111365747D01*
X115377435Y-111544993D01*
X115377435Y-111545000D01*
X115397630Y-111724246D01*
X115397633Y-111724259D01*
X115457209Y-111894515D01*
X115457210Y-111894517D01*
X115457211Y-111894519D01*
X115463183Y-111904023D01*
X115463185Y-111904026D01*
X115482185Y-111971263D01*
X115463187Y-112035967D01*
X115457209Y-112045481D01*
X115397633Y-112215737D01*
X115397630Y-112215749D01*
X115383862Y-112337946D01*
X115356795Y-112402360D01*
X115299200Y-112441915D01*
X115229363Y-112444052D01*
X115172961Y-112411743D01*
X114276819Y-111515601D01*
X114243334Y-111454278D01*
X114240500Y-111427920D01*
X114240500Y-108572839D01*
X114241561Y-108556653D01*
X114245465Y-108526999D01*
X114245465Y-108526998D01*
X114241031Y-108493319D01*
X114241030Y-108493305D01*
X114237722Y-108468182D01*
X114225687Y-108376764D01*
X114167698Y-108236767D01*
X114122032Y-108177254D01*
X114098612Y-108146732D01*
X114098611Y-108146731D01*
X114096142Y-108143513D01*
X114096142Y-108143514D01*
X114075451Y-108116549D01*
X114075449Y-108116547D01*
X114075448Y-108116546D01*
X114051717Y-108098337D01*
X114039522Y-108087642D01*
X112306483Y-106354603D01*
X112272998Y-106293280D01*
X112274897Y-106232988D01*
X112288115Y-106186536D01*
X112308643Y-105965000D01*
X112299168Y-105862752D01*
X112288115Y-105743464D01*
X112288114Y-105743462D01*
X112287005Y-105739565D01*
X112227229Y-105529472D01*
X112227224Y-105529461D01*
X112128061Y-105330316D01*
X112128056Y-105330308D01*
X111993979Y-105152761D01*
X111829562Y-105002876D01*
X111829560Y-105002874D01*
X111640404Y-104885754D01*
X111640398Y-104885752D01*
X111432940Y-104805382D01*
X111214243Y-104764500D01*
X110991757Y-104764500D01*
X110773060Y-104805382D01*
X110655327Y-104850992D01*
X110565601Y-104885752D01*
X110565595Y-104885754D01*
X110376439Y-105002874D01*
X110376437Y-105002876D01*
X110212020Y-105152761D01*
X110077943Y-105330308D01*
X110077938Y-105330316D01*
X109978775Y-105529461D01*
X109978769Y-105529476D01*
X109917885Y-105743462D01*
X109917884Y-105743464D01*
X109897357Y-105964999D01*
X109897357Y-105965000D01*
X109917884Y-106186535D01*
X109917885Y-106186537D01*
X109978769Y-106400523D01*
X109978775Y-106400538D01*
X110077938Y-106599683D01*
X110077943Y-106599691D01*
X110212020Y-106777238D01*
X110376437Y-106927123D01*
X110376439Y-106927125D01*
X110565595Y-107044245D01*
X110565596Y-107044245D01*
X110565599Y-107044247D01*
X110773060Y-107124618D01*
X110925484Y-107153111D01*
X110987765Y-107184780D01*
X111023038Y-107245092D01*
X111020104Y-107314900D01*
X110979895Y-107372040D01*
X110925485Y-107396888D01*
X110773060Y-107425382D01*
X110641864Y-107476207D01*
X110565601Y-107505752D01*
X110565595Y-107505754D01*
X110376439Y-107622874D01*
X110376437Y-107622876D01*
X110212020Y-107772761D01*
X110077939Y-107950313D01*
X110077653Y-107950777D01*
X110077457Y-107950951D01*
X110074487Y-107954886D01*
X110073717Y-107954304D01*
X110025625Y-107997413D01*
X109972226Y-108009500D01*
X104319500Y-108009500D01*
X104252461Y-107989815D01*
X104206706Y-107937011D01*
X104195500Y-107885500D01*
X104195500Y-107844313D01*
X104195499Y-107844298D01*
X104192598Y-107807432D01*
X104192597Y-107807426D01*
X104146745Y-107649606D01*
X104146744Y-107649603D01*
X104146744Y-107649602D01*
X104063081Y-107508135D01*
X104063079Y-107508133D01*
X104063076Y-107508129D01*
X103946870Y-107391923D01*
X103946862Y-107391917D01*
X103805396Y-107308255D01*
X103805393Y-107308254D01*
X103647573Y-107262402D01*
X103647567Y-107262401D01*
X103610701Y-107259500D01*
X103610694Y-107259500D01*
X102129306Y-107259500D01*
X102129298Y-107259500D01*
X102092432Y-107262401D01*
X102092426Y-107262402D01*
X101934606Y-107308254D01*
X101934603Y-107308255D01*
X101793137Y-107391917D01*
X101793129Y-107391923D01*
X101676923Y-107508129D01*
X101676917Y-107508137D01*
X101593255Y-107649603D01*
X101593253Y-107649606D01*
X101558576Y-107768968D01*
X101520970Y-107827854D01*
X101457497Y-107857060D01*
X101388311Y-107847314D01*
X101335376Y-107801710D01*
X101315501Y-107734727D01*
X101315500Y-107734373D01*
X101315500Y-104646739D01*
X101335185Y-104579700D01*
X101387989Y-104533945D01*
X101457147Y-104524001D01*
X101520703Y-104553026D01*
X101558477Y-104611804D01*
X101559275Y-104614645D01*
X101559650Y-104616047D01*
X101559651Y-104616050D01*
X101584469Y-104708671D01*
X101619678Y-104840074D01*
X101619679Y-104840076D01*
X101619680Y-104840079D01*
X101717699Y-105050282D01*
X101850730Y-105240269D01*
X102014731Y-105404270D01*
X102204718Y-105537301D01*
X102414921Y-105635320D01*
X102638950Y-105695349D01*
X102803985Y-105709787D01*
X102869998Y-105715563D01*
X102870000Y-105715563D01*
X102870002Y-105715563D01*
X102927762Y-105710509D01*
X103101050Y-105695349D01*
X103325079Y-105635320D01*
X103535282Y-105537301D01*
X103725269Y-105404270D01*
X103889270Y-105240269D01*
X104022301Y-105050282D01*
X104030783Y-105032093D01*
X104076956Y-104979655D01*
X104143164Y-104960500D01*
X107637160Y-104960500D01*
X107653345Y-104961561D01*
X107682999Y-104965465D01*
X107683000Y-104965465D01*
X107720714Y-104960500D01*
X107720720Y-104960500D01*
X107833236Y-104945687D01*
X107973233Y-104887698D01*
X108000300Y-104866928D01*
X108021070Y-104850992D01*
X108021070Y-104850990D01*
X108063268Y-104818612D01*
X108063268Y-104818611D01*
X108071358Y-104812404D01*
X108071362Y-104812399D01*
X108093451Y-104795451D01*
X108111670Y-104771706D01*
X108122351Y-104759527D01*
X110713533Y-102168345D01*
X110774854Y-102134862D01*
X110823992Y-102134139D01*
X110991757Y-102165500D01*
X110991760Y-102165500D01*
X111214241Y-102165500D01*
X111214243Y-102165500D01*
X111432940Y-102124618D01*
X111640401Y-102044247D01*
X111829562Y-101927124D01*
X111993981Y-101777236D01*
X112128058Y-101599689D01*
X112227229Y-101400528D01*
X112288115Y-101186536D01*
X112308643Y-100965000D01*
X112308642Y-100964994D01*
X112288115Y-100743464D01*
X112288114Y-100743462D01*
X112280659Y-100717261D01*
X112227229Y-100529472D01*
X112225401Y-100525800D01*
X112128061Y-100330316D01*
X112128056Y-100330308D01*
X111993979Y-100152761D01*
X111829562Y-100002876D01*
X111829560Y-100002874D01*
X111640404Y-99885754D01*
X111640398Y-99885752D01*
X111432940Y-99805382D01*
X111214243Y-99764500D01*
X110991757Y-99764500D01*
X110773060Y-99805382D01*
X110702684Y-99832646D01*
X110565601Y-99885752D01*
X110565595Y-99885754D01*
X110376439Y-100002874D01*
X110376437Y-100002876D01*
X110212020Y-100152761D01*
X110077943Y-100330308D01*
X110077938Y-100330316D01*
X109978775Y-100529461D01*
X109978769Y-100529476D01*
X109917885Y-100743462D01*
X109917884Y-100743464D01*
X109897357Y-100964999D01*
X109897357Y-100965000D01*
X109917884Y-101186532D01*
X109917884Y-101186535D01*
X109917885Y-101186536D01*
X109931101Y-101232989D01*
X109930514Y-101302855D01*
X109899516Y-101354602D01*
X107480939Y-103773181D01*
X107419616Y-103806666D01*
X107393258Y-103809500D01*
X104143164Y-103809500D01*
X104076125Y-103789815D01*
X104030783Y-103737907D01*
X104022302Y-103719721D01*
X104022300Y-103719717D01*
X103889273Y-103529735D01*
X103889268Y-103529729D01*
X103725269Y-103365730D01*
X103666979Y-103324915D01*
X103535282Y-103232699D01*
X103325079Y-103134680D01*
X103325076Y-103134679D01*
X103325074Y-103134678D01*
X103101051Y-103074651D01*
X103101044Y-103074650D01*
X102870002Y-103054437D01*
X102869998Y-103054437D01*
X102638955Y-103074650D01*
X102638948Y-103074651D01*
X102414917Y-103134681D01*
X102204718Y-103232699D01*
X102204714Y-103232701D01*
X102014735Y-103365726D01*
X102014729Y-103365731D01*
X101850731Y-103529729D01*
X101850726Y-103529735D01*
X101717701Y-103719714D01*
X101717699Y-103719718D01*
X101619681Y-103929917D01*
X101619680Y-103929921D01*
X101567875Y-104123260D01*
X101559275Y-104155354D01*
X101522909Y-104215014D01*
X101460062Y-104245543D01*
X101390687Y-104237248D01*
X101336809Y-104192762D01*
X101315535Y-104126210D01*
X101315500Y-104123260D01*
X101315500Y-99926359D01*
X101335185Y-99859320D01*
X101387989Y-99813565D01*
X101457147Y-99803621D01*
X101520703Y-99832646D01*
X101534008Y-99846083D01*
X101667187Y-100002874D01*
X101718332Y-100063086D01*
X101978163Y-100309211D01*
X102263081Y-100525800D01*
X102569747Y-100710315D01*
X102569749Y-100710316D01*
X102569751Y-100710317D01*
X102569755Y-100710319D01*
X102894552Y-100860585D01*
X102894565Y-100860591D01*
X103233726Y-100974868D01*
X103583254Y-101051805D01*
X103939052Y-101090500D01*
X103939058Y-101090500D01*
X104296942Y-101090500D01*
X104296948Y-101090500D01*
X104652746Y-101051805D01*
X105002274Y-100974868D01*
X105341435Y-100860591D01*
X105666253Y-100710315D01*
X105972919Y-100525800D01*
X106257837Y-100309211D01*
X106517668Y-100063086D01*
X106749365Y-99790311D01*
X106950211Y-99494085D01*
X107117853Y-99177880D01*
X107250324Y-98845403D01*
X107346071Y-98500552D01*
X107403972Y-98147371D01*
X107423348Y-97790000D01*
X107403972Y-97432629D01*
X107402705Y-97424902D01*
X107346073Y-97079460D01*
X107346072Y-97079459D01*
X107346071Y-97079448D01*
X107250324Y-96734597D01*
X107117853Y-96402120D01*
X106950211Y-96085915D01*
X106749365Y-95789689D01*
X106749361Y-95789684D01*
X106749358Y-95789680D01*
X106517668Y-95516914D01*
X106437040Y-95440539D01*
X106257837Y-95270789D01*
X106257830Y-95270783D01*
X106257827Y-95270781D01*
X106160328Y-95196664D01*
X106149213Y-95188215D01*
X106107756Y-95131975D01*
X106103287Y-95062248D01*
X106137224Y-95001174D01*
X106198792Y-94968142D01*
X106224255Y-94965500D01*
X143603484Y-94965500D01*
X143670523Y-94985185D01*
G37*
%TD.AperFunction*%
%TD*%
M02*
