%TF.GenerationSoftware,KiCad,Pcbnew,7.0.11+dfsg-1build4*%
%TF.CreationDate,2025-07-13T15:39:34+04:00*%
%TF.ProjectId,tpa3116_amplifier_board,74706133-3131-4365-9f61-6d706c696669,rev?*%
%TF.SameCoordinates,Original*%
%TF.FileFunction,Legend,Top*%
%TF.FilePolarity,Positive*%
%FSLAX46Y46*%
G04 Gerber Fmt 4.6, Leading zero omitted, Abs format (unit mm)*
G04 Created by KiCad (PCBNEW 7.0.11+dfsg-1build4) date 2025-07-13 15:39:34*
%MOMM*%
%LPD*%
G01*
G04 APERTURE LIST*
%ADD10C,0.150000*%
%ADD11C,0.254000*%
%ADD12C,0.120000*%
%ADD13C,0.200000*%
G04 APERTURE END LIST*
D10*
X126749398Y-97813200D02*
X127663684Y-97813200D01*
X132464398Y-97813200D02*
X133378684Y-97813200D01*
X132921541Y-98270342D02*
X132921541Y-97356057D01*
X96955112Y-102715342D02*
X96555112Y-102143914D01*
X96269398Y-102715342D02*
X96269398Y-101515342D01*
X96269398Y-101515342D02*
X96726541Y-101515342D01*
X96726541Y-101515342D02*
X96840826Y-101572485D01*
X96840826Y-101572485D02*
X96897969Y-101629628D01*
X96897969Y-101629628D02*
X96955112Y-101743914D01*
X96955112Y-101743914D02*
X96955112Y-101915342D01*
X96955112Y-101915342D02*
X96897969Y-102029628D01*
X96897969Y-102029628D02*
X96840826Y-102086771D01*
X96840826Y-102086771D02*
X96726541Y-102143914D01*
X96726541Y-102143914D02*
X96269398Y-102143914D01*
X97469398Y-102258200D02*
X98383684Y-102258200D01*
X97926541Y-102715342D02*
X97926541Y-101801057D01*
X96955112Y-107160342D02*
X96555112Y-106588914D01*
X96269398Y-107160342D02*
X96269398Y-105960342D01*
X96269398Y-105960342D02*
X96726541Y-105960342D01*
X96726541Y-105960342D02*
X96840826Y-106017485D01*
X96840826Y-106017485D02*
X96897969Y-106074628D01*
X96897969Y-106074628D02*
X96955112Y-106188914D01*
X96955112Y-106188914D02*
X96955112Y-106360342D01*
X96955112Y-106360342D02*
X96897969Y-106474628D01*
X96897969Y-106474628D02*
X96840826Y-106531771D01*
X96840826Y-106531771D02*
X96726541Y-106588914D01*
X96726541Y-106588914D02*
X96269398Y-106588914D01*
X97469398Y-106703200D02*
X98383684Y-106703200D01*
X96840826Y-110970342D02*
X96269398Y-110970342D01*
X96269398Y-110970342D02*
X96269398Y-109770342D01*
X97240827Y-110513200D02*
X98155113Y-110513200D01*
X97697970Y-110970342D02*
X97697970Y-110056057D01*
X96840826Y-115415342D02*
X96269398Y-115415342D01*
X96269398Y-115415342D02*
X96269398Y-114215342D01*
X97240827Y-114958200D02*
X98155113Y-114958200D01*
X96212255Y-125518200D02*
X96326541Y-125575342D01*
X96326541Y-125575342D02*
X96555112Y-125575342D01*
X96555112Y-125575342D02*
X96669398Y-125518200D01*
X96669398Y-125518200D02*
X96726541Y-125403914D01*
X96726541Y-125403914D02*
X96726541Y-125346771D01*
X96726541Y-125346771D02*
X96669398Y-125232485D01*
X96669398Y-125232485D02*
X96555112Y-125175342D01*
X96555112Y-125175342D02*
X96383684Y-125175342D01*
X96383684Y-125175342D02*
X96269398Y-125118200D01*
X96269398Y-125118200D02*
X96212255Y-125003914D01*
X96212255Y-125003914D02*
X96212255Y-124946771D01*
X96212255Y-124946771D02*
X96269398Y-124832485D01*
X96269398Y-124832485D02*
X96383684Y-124775342D01*
X96383684Y-124775342D02*
X96555112Y-124775342D01*
X96555112Y-124775342D02*
X96669398Y-124832485D01*
X97755113Y-125575342D02*
X97755113Y-124375342D01*
X97755113Y-125518200D02*
X97640827Y-125575342D01*
X97640827Y-125575342D02*
X97412255Y-125575342D01*
X97412255Y-125575342D02*
X97297970Y-125518200D01*
X97297970Y-125518200D02*
X97240827Y-125461057D01*
X97240827Y-125461057D02*
X97183684Y-125346771D01*
X97183684Y-125346771D02*
X97183684Y-125003914D01*
X97183684Y-125003914D02*
X97240827Y-124889628D01*
X97240827Y-124889628D02*
X97297970Y-124832485D01*
X97297970Y-124832485D02*
X97412255Y-124775342D01*
X97412255Y-124775342D02*
X97640827Y-124775342D01*
X97640827Y-124775342D02*
X97755113Y-124832485D01*
X98040827Y-125689628D02*
X98955112Y-125689628D01*
X99412255Y-125575342D02*
X99297970Y-125518200D01*
X99297970Y-125518200D02*
X99240827Y-125403914D01*
X99240827Y-125403914D02*
X99240827Y-124375342D01*
X99869398Y-125575342D02*
X99869398Y-124775342D01*
X99869398Y-125003914D02*
X99926541Y-124889628D01*
X99926541Y-124889628D02*
X99983684Y-124832485D01*
X99983684Y-124832485D02*
X100097969Y-124775342D01*
X100097969Y-124775342D02*
X100212255Y-124775342D01*
X96212255Y-129963200D02*
X96326541Y-130020342D01*
X96326541Y-130020342D02*
X96555112Y-130020342D01*
X96555112Y-130020342D02*
X96669398Y-129963200D01*
X96669398Y-129963200D02*
X96726541Y-129848914D01*
X96726541Y-129848914D02*
X96726541Y-129791771D01*
X96726541Y-129791771D02*
X96669398Y-129677485D01*
X96669398Y-129677485D02*
X96555112Y-129620342D01*
X96555112Y-129620342D02*
X96383684Y-129620342D01*
X96383684Y-129620342D02*
X96269398Y-129563200D01*
X96269398Y-129563200D02*
X96212255Y-129448914D01*
X96212255Y-129448914D02*
X96212255Y-129391771D01*
X96212255Y-129391771D02*
X96269398Y-129277485D01*
X96269398Y-129277485D02*
X96383684Y-129220342D01*
X96383684Y-129220342D02*
X96555112Y-129220342D01*
X96555112Y-129220342D02*
X96669398Y-129277485D01*
X97126541Y-129220342D02*
X97412255Y-130020342D01*
X97697970Y-129220342D02*
X97412255Y-130020342D01*
X97412255Y-130020342D02*
X97297970Y-130306057D01*
X97297970Y-130306057D02*
X97240827Y-130363200D01*
X97240827Y-130363200D02*
X97126541Y-130420342D01*
X98155113Y-129220342D02*
X98155113Y-130020342D01*
X98155113Y-129334628D02*
X98212256Y-129277485D01*
X98212256Y-129277485D02*
X98326541Y-129220342D01*
X98326541Y-129220342D02*
X98497970Y-129220342D01*
X98497970Y-129220342D02*
X98612256Y-129277485D01*
X98612256Y-129277485D02*
X98669399Y-129391771D01*
X98669399Y-129391771D02*
X98669399Y-130020342D01*
X99755113Y-129963200D02*
X99640827Y-130020342D01*
X99640827Y-130020342D02*
X99412255Y-130020342D01*
X99412255Y-130020342D02*
X99297970Y-129963200D01*
X99297970Y-129963200D02*
X99240827Y-129906057D01*
X99240827Y-129906057D02*
X99183684Y-129791771D01*
X99183684Y-129791771D02*
X99183684Y-129448914D01*
X99183684Y-129448914D02*
X99240827Y-129334628D01*
X99240827Y-129334628D02*
X99297970Y-129277485D01*
X99297970Y-129277485D02*
X99412255Y-129220342D01*
X99412255Y-129220342D02*
X99640827Y-129220342D01*
X99640827Y-129220342D02*
X99755113Y-129277485D01*
X96897969Y-137132485D02*
X96783684Y-137075342D01*
X96783684Y-137075342D02*
X96612255Y-137075342D01*
X96612255Y-137075342D02*
X96440826Y-137132485D01*
X96440826Y-137132485D02*
X96326541Y-137246771D01*
X96326541Y-137246771D02*
X96269398Y-137361057D01*
X96269398Y-137361057D02*
X96212255Y-137589628D01*
X96212255Y-137589628D02*
X96212255Y-137761057D01*
X96212255Y-137761057D02*
X96269398Y-137989628D01*
X96269398Y-137989628D02*
X96326541Y-138103914D01*
X96326541Y-138103914D02*
X96440826Y-138218200D01*
X96440826Y-138218200D02*
X96612255Y-138275342D01*
X96612255Y-138275342D02*
X96726541Y-138275342D01*
X96726541Y-138275342D02*
X96897969Y-138218200D01*
X96897969Y-138218200D02*
X96955112Y-138161057D01*
X96955112Y-138161057D02*
X96955112Y-137761057D01*
X96955112Y-137761057D02*
X96726541Y-137761057D01*
X97469398Y-138275342D02*
X97469398Y-137075342D01*
X97469398Y-137075342D02*
X98155112Y-138275342D01*
X98155112Y-138275342D02*
X98155112Y-137075342D01*
X98726541Y-138275342D02*
X98726541Y-137075342D01*
X98726541Y-137075342D02*
X99012255Y-137075342D01*
X99012255Y-137075342D02*
X99183684Y-137132485D01*
X99183684Y-137132485D02*
X99297969Y-137246771D01*
X99297969Y-137246771D02*
X99355112Y-137361057D01*
X99355112Y-137361057D02*
X99412255Y-137589628D01*
X99412255Y-137589628D02*
X99412255Y-137761057D01*
X99412255Y-137761057D02*
X99355112Y-137989628D01*
X99355112Y-137989628D02*
X99297969Y-138103914D01*
X99297969Y-138103914D02*
X99183684Y-138218200D01*
X99183684Y-138218200D02*
X99012255Y-138275342D01*
X99012255Y-138275342D02*
X98726541Y-138275342D01*
X96269398Y-133830342D02*
X96269398Y-133030342D01*
X96269398Y-133144628D02*
X96326541Y-133087485D01*
X96326541Y-133087485D02*
X96440826Y-133030342D01*
X96440826Y-133030342D02*
X96612255Y-133030342D01*
X96612255Y-133030342D02*
X96726541Y-133087485D01*
X96726541Y-133087485D02*
X96783684Y-133201771D01*
X96783684Y-133201771D02*
X96783684Y-133830342D01*
X96783684Y-133201771D02*
X96840826Y-133087485D01*
X96840826Y-133087485D02*
X96955112Y-133030342D01*
X96955112Y-133030342D02*
X97126541Y-133030342D01*
X97126541Y-133030342D02*
X97240826Y-133087485D01*
X97240826Y-133087485D02*
X97297969Y-133201771D01*
X97297969Y-133201771D02*
X97297969Y-133830342D01*
X98383684Y-133030342D02*
X98383684Y-133830342D01*
X97869398Y-133030342D02*
X97869398Y-133658914D01*
X97869398Y-133658914D02*
X97926541Y-133773200D01*
X97926541Y-133773200D02*
X98040826Y-133830342D01*
X98040826Y-133830342D02*
X98212255Y-133830342D01*
X98212255Y-133830342D02*
X98326541Y-133773200D01*
X98326541Y-133773200D02*
X98383684Y-133716057D01*
X98783683Y-133030342D02*
X99240826Y-133030342D01*
X98955112Y-132630342D02*
X98955112Y-133658914D01*
X98955112Y-133658914D02*
X99012255Y-133773200D01*
X99012255Y-133773200D02*
X99126540Y-133830342D01*
X99126540Y-133830342D02*
X99240826Y-133830342D01*
X100097969Y-133773200D02*
X99983683Y-133830342D01*
X99983683Y-133830342D02*
X99755112Y-133830342D01*
X99755112Y-133830342D02*
X99640826Y-133773200D01*
X99640826Y-133773200D02*
X99583683Y-133658914D01*
X99583683Y-133658914D02*
X99583683Y-133201771D01*
X99583683Y-133201771D02*
X99640826Y-133087485D01*
X99640826Y-133087485D02*
X99755112Y-133030342D01*
X99755112Y-133030342D02*
X99983683Y-133030342D01*
X99983683Y-133030342D02*
X100097969Y-133087485D01*
X100097969Y-133087485D02*
X100155112Y-133201771D01*
X100155112Y-133201771D02*
X100155112Y-133316057D01*
X100155112Y-133316057D02*
X99583683Y-133430342D01*
X134453333Y-127454819D02*
X133977143Y-127454819D01*
X133977143Y-127454819D02*
X133977143Y-126454819D01*
X134691429Y-126454819D02*
X135310476Y-126454819D01*
X135310476Y-126454819D02*
X134977143Y-126835771D01*
X134977143Y-126835771D02*
X135120000Y-126835771D01*
X135120000Y-126835771D02*
X135215238Y-126883390D01*
X135215238Y-126883390D02*
X135262857Y-126931009D01*
X135262857Y-126931009D02*
X135310476Y-127026247D01*
X135310476Y-127026247D02*
X135310476Y-127264342D01*
X135310476Y-127264342D02*
X135262857Y-127359580D01*
X135262857Y-127359580D02*
X135215238Y-127407200D01*
X135215238Y-127407200D02*
X135120000Y-127454819D01*
X135120000Y-127454819D02*
X134834286Y-127454819D01*
X134834286Y-127454819D02*
X134739048Y-127407200D01*
X134739048Y-127407200D02*
X134691429Y-127359580D01*
X100054580Y-112561666D02*
X100102200Y-112609285D01*
X100102200Y-112609285D02*
X100149819Y-112752142D01*
X100149819Y-112752142D02*
X100149819Y-112847380D01*
X100149819Y-112847380D02*
X100102200Y-112990237D01*
X100102200Y-112990237D02*
X100006961Y-113085475D01*
X100006961Y-113085475D02*
X99911723Y-113133094D01*
X99911723Y-113133094D02*
X99721247Y-113180713D01*
X99721247Y-113180713D02*
X99578390Y-113180713D01*
X99578390Y-113180713D02*
X99387914Y-113133094D01*
X99387914Y-113133094D02*
X99292676Y-113085475D01*
X99292676Y-113085475D02*
X99197438Y-112990237D01*
X99197438Y-112990237D02*
X99149819Y-112847380D01*
X99149819Y-112847380D02*
X99149819Y-112752142D01*
X99149819Y-112752142D02*
X99197438Y-112609285D01*
X99197438Y-112609285D02*
X99245057Y-112561666D01*
X99149819Y-112228332D02*
X99149819Y-111609285D01*
X99149819Y-111609285D02*
X99530771Y-111942618D01*
X99530771Y-111942618D02*
X99530771Y-111799761D01*
X99530771Y-111799761D02*
X99578390Y-111704523D01*
X99578390Y-111704523D02*
X99626009Y-111656904D01*
X99626009Y-111656904D02*
X99721247Y-111609285D01*
X99721247Y-111609285D02*
X99959342Y-111609285D01*
X99959342Y-111609285D02*
X100054580Y-111656904D01*
X100054580Y-111656904D02*
X100102200Y-111704523D01*
X100102200Y-111704523D02*
X100149819Y-111799761D01*
X100149819Y-111799761D02*
X100149819Y-112085475D01*
X100149819Y-112085475D02*
X100102200Y-112180713D01*
X100102200Y-112180713D02*
X100054580Y-112228332D01*
X106404580Y-135421666D02*
X106452200Y-135469285D01*
X106452200Y-135469285D02*
X106499819Y-135612142D01*
X106499819Y-135612142D02*
X106499819Y-135707380D01*
X106499819Y-135707380D02*
X106452200Y-135850237D01*
X106452200Y-135850237D02*
X106356961Y-135945475D01*
X106356961Y-135945475D02*
X106261723Y-135993094D01*
X106261723Y-135993094D02*
X106071247Y-136040713D01*
X106071247Y-136040713D02*
X105928390Y-136040713D01*
X105928390Y-136040713D02*
X105737914Y-135993094D01*
X105737914Y-135993094D02*
X105642676Y-135945475D01*
X105642676Y-135945475D02*
X105547438Y-135850237D01*
X105547438Y-135850237D02*
X105499819Y-135707380D01*
X105499819Y-135707380D02*
X105499819Y-135612142D01*
X105499819Y-135612142D02*
X105547438Y-135469285D01*
X105547438Y-135469285D02*
X105595057Y-135421666D01*
X105833152Y-134564523D02*
X106499819Y-134564523D01*
X105452200Y-134802618D02*
X106166485Y-135040713D01*
X106166485Y-135040713D02*
X106166485Y-134421666D01*
X152392142Y-140039580D02*
X152344523Y-140087200D01*
X152344523Y-140087200D02*
X152201666Y-140134819D01*
X152201666Y-140134819D02*
X152106428Y-140134819D01*
X152106428Y-140134819D02*
X151963571Y-140087200D01*
X151963571Y-140087200D02*
X151868333Y-139991961D01*
X151868333Y-139991961D02*
X151820714Y-139896723D01*
X151820714Y-139896723D02*
X151773095Y-139706247D01*
X151773095Y-139706247D02*
X151773095Y-139563390D01*
X151773095Y-139563390D02*
X151820714Y-139372914D01*
X151820714Y-139372914D02*
X151868333Y-139277676D01*
X151868333Y-139277676D02*
X151963571Y-139182438D01*
X151963571Y-139182438D02*
X152106428Y-139134819D01*
X152106428Y-139134819D02*
X152201666Y-139134819D01*
X152201666Y-139134819D02*
X152344523Y-139182438D01*
X152344523Y-139182438D02*
X152392142Y-139230057D01*
X152773095Y-139230057D02*
X152820714Y-139182438D01*
X152820714Y-139182438D02*
X152915952Y-139134819D01*
X152915952Y-139134819D02*
X153154047Y-139134819D01*
X153154047Y-139134819D02*
X153249285Y-139182438D01*
X153249285Y-139182438D02*
X153296904Y-139230057D01*
X153296904Y-139230057D02*
X153344523Y-139325295D01*
X153344523Y-139325295D02*
X153344523Y-139420533D01*
X153344523Y-139420533D02*
X153296904Y-139563390D01*
X153296904Y-139563390D02*
X152725476Y-140134819D01*
X152725476Y-140134819D02*
X153344523Y-140134819D01*
X153963571Y-139134819D02*
X154058809Y-139134819D01*
X154058809Y-139134819D02*
X154154047Y-139182438D01*
X154154047Y-139182438D02*
X154201666Y-139230057D01*
X154201666Y-139230057D02*
X154249285Y-139325295D01*
X154249285Y-139325295D02*
X154296904Y-139515771D01*
X154296904Y-139515771D02*
X154296904Y-139753866D01*
X154296904Y-139753866D02*
X154249285Y-139944342D01*
X154249285Y-139944342D02*
X154201666Y-140039580D01*
X154201666Y-140039580D02*
X154154047Y-140087200D01*
X154154047Y-140087200D02*
X154058809Y-140134819D01*
X154058809Y-140134819D02*
X153963571Y-140134819D01*
X153963571Y-140134819D02*
X153868333Y-140087200D01*
X153868333Y-140087200D02*
X153820714Y-140039580D01*
X153820714Y-140039580D02*
X153773095Y-139944342D01*
X153773095Y-139944342D02*
X153725476Y-139753866D01*
X153725476Y-139753866D02*
X153725476Y-139515771D01*
X153725476Y-139515771D02*
X153773095Y-139325295D01*
X153773095Y-139325295D02*
X153820714Y-139230057D01*
X153820714Y-139230057D02*
X153868333Y-139182438D01*
X153868333Y-139182438D02*
X153963571Y-139134819D01*
X152392142Y-126724580D02*
X152344523Y-126772200D01*
X152344523Y-126772200D02*
X152201666Y-126819819D01*
X152201666Y-126819819D02*
X152106428Y-126819819D01*
X152106428Y-126819819D02*
X151963571Y-126772200D01*
X151963571Y-126772200D02*
X151868333Y-126676961D01*
X151868333Y-126676961D02*
X151820714Y-126581723D01*
X151820714Y-126581723D02*
X151773095Y-126391247D01*
X151773095Y-126391247D02*
X151773095Y-126248390D01*
X151773095Y-126248390D02*
X151820714Y-126057914D01*
X151820714Y-126057914D02*
X151868333Y-125962676D01*
X151868333Y-125962676D02*
X151963571Y-125867438D01*
X151963571Y-125867438D02*
X152106428Y-125819819D01*
X152106428Y-125819819D02*
X152201666Y-125819819D01*
X152201666Y-125819819D02*
X152344523Y-125867438D01*
X152344523Y-125867438D02*
X152392142Y-125915057D01*
X153344523Y-126819819D02*
X152773095Y-126819819D01*
X153058809Y-126819819D02*
X153058809Y-125819819D01*
X153058809Y-125819819D02*
X152963571Y-125962676D01*
X152963571Y-125962676D02*
X152868333Y-126057914D01*
X152868333Y-126057914D02*
X152773095Y-126105533D01*
X153820714Y-126819819D02*
X154011190Y-126819819D01*
X154011190Y-126819819D02*
X154106428Y-126772200D01*
X154106428Y-126772200D02*
X154154047Y-126724580D01*
X154154047Y-126724580D02*
X154249285Y-126581723D01*
X154249285Y-126581723D02*
X154296904Y-126391247D01*
X154296904Y-126391247D02*
X154296904Y-126010295D01*
X154296904Y-126010295D02*
X154249285Y-125915057D01*
X154249285Y-125915057D02*
X154201666Y-125867438D01*
X154201666Y-125867438D02*
X154106428Y-125819819D01*
X154106428Y-125819819D02*
X153915952Y-125819819D01*
X153915952Y-125819819D02*
X153820714Y-125867438D01*
X153820714Y-125867438D02*
X153773095Y-125915057D01*
X153773095Y-125915057D02*
X153725476Y-126010295D01*
X153725476Y-126010295D02*
X153725476Y-126248390D01*
X153725476Y-126248390D02*
X153773095Y-126343628D01*
X153773095Y-126343628D02*
X153820714Y-126391247D01*
X153820714Y-126391247D02*
X153915952Y-126438866D01*
X153915952Y-126438866D02*
X154106428Y-126438866D01*
X154106428Y-126438866D02*
X154201666Y-126391247D01*
X154201666Y-126391247D02*
X154249285Y-126343628D01*
X154249285Y-126343628D02*
X154296904Y-126248390D01*
X152432142Y-112754580D02*
X152384523Y-112802200D01*
X152384523Y-112802200D02*
X152241666Y-112849819D01*
X152241666Y-112849819D02*
X152146428Y-112849819D01*
X152146428Y-112849819D02*
X152003571Y-112802200D01*
X152003571Y-112802200D02*
X151908333Y-112706961D01*
X151908333Y-112706961D02*
X151860714Y-112611723D01*
X151860714Y-112611723D02*
X151813095Y-112421247D01*
X151813095Y-112421247D02*
X151813095Y-112278390D01*
X151813095Y-112278390D02*
X151860714Y-112087914D01*
X151860714Y-112087914D02*
X151908333Y-111992676D01*
X151908333Y-111992676D02*
X152003571Y-111897438D01*
X152003571Y-111897438D02*
X152146428Y-111849819D01*
X152146428Y-111849819D02*
X152241666Y-111849819D01*
X152241666Y-111849819D02*
X152384523Y-111897438D01*
X152384523Y-111897438D02*
X152432142Y-111945057D01*
X153384523Y-112849819D02*
X152813095Y-112849819D01*
X153098809Y-112849819D02*
X153098809Y-111849819D01*
X153098809Y-111849819D02*
X153003571Y-111992676D01*
X153003571Y-111992676D02*
X152908333Y-112087914D01*
X152908333Y-112087914D02*
X152813095Y-112135533D01*
X153955952Y-112278390D02*
X153860714Y-112230771D01*
X153860714Y-112230771D02*
X153813095Y-112183152D01*
X153813095Y-112183152D02*
X153765476Y-112087914D01*
X153765476Y-112087914D02*
X153765476Y-112040295D01*
X153765476Y-112040295D02*
X153813095Y-111945057D01*
X153813095Y-111945057D02*
X153860714Y-111897438D01*
X153860714Y-111897438D02*
X153955952Y-111849819D01*
X153955952Y-111849819D02*
X154146428Y-111849819D01*
X154146428Y-111849819D02*
X154241666Y-111897438D01*
X154241666Y-111897438D02*
X154289285Y-111945057D01*
X154289285Y-111945057D02*
X154336904Y-112040295D01*
X154336904Y-112040295D02*
X154336904Y-112087914D01*
X154336904Y-112087914D02*
X154289285Y-112183152D01*
X154289285Y-112183152D02*
X154241666Y-112230771D01*
X154241666Y-112230771D02*
X154146428Y-112278390D01*
X154146428Y-112278390D02*
X153955952Y-112278390D01*
X153955952Y-112278390D02*
X153860714Y-112326009D01*
X153860714Y-112326009D02*
X153813095Y-112373628D01*
X153813095Y-112373628D02*
X153765476Y-112468866D01*
X153765476Y-112468866D02*
X153765476Y-112659342D01*
X153765476Y-112659342D02*
X153813095Y-112754580D01*
X153813095Y-112754580D02*
X153860714Y-112802200D01*
X153860714Y-112802200D02*
X153955952Y-112849819D01*
X153955952Y-112849819D02*
X154146428Y-112849819D01*
X154146428Y-112849819D02*
X154241666Y-112802200D01*
X154241666Y-112802200D02*
X154289285Y-112754580D01*
X154289285Y-112754580D02*
X154336904Y-112659342D01*
X154336904Y-112659342D02*
X154336904Y-112468866D01*
X154336904Y-112468866D02*
X154289285Y-112373628D01*
X154289285Y-112373628D02*
X154241666Y-112326009D01*
X154241666Y-112326009D02*
X154146428Y-112278390D01*
X152392142Y-99419580D02*
X152344523Y-99467200D01*
X152344523Y-99467200D02*
X152201666Y-99514819D01*
X152201666Y-99514819D02*
X152106428Y-99514819D01*
X152106428Y-99514819D02*
X151963571Y-99467200D01*
X151963571Y-99467200D02*
X151868333Y-99371961D01*
X151868333Y-99371961D02*
X151820714Y-99276723D01*
X151820714Y-99276723D02*
X151773095Y-99086247D01*
X151773095Y-99086247D02*
X151773095Y-98943390D01*
X151773095Y-98943390D02*
X151820714Y-98752914D01*
X151820714Y-98752914D02*
X151868333Y-98657676D01*
X151868333Y-98657676D02*
X151963571Y-98562438D01*
X151963571Y-98562438D02*
X152106428Y-98514819D01*
X152106428Y-98514819D02*
X152201666Y-98514819D01*
X152201666Y-98514819D02*
X152344523Y-98562438D01*
X152344523Y-98562438D02*
X152392142Y-98610057D01*
X153344523Y-99514819D02*
X152773095Y-99514819D01*
X153058809Y-99514819D02*
X153058809Y-98514819D01*
X153058809Y-98514819D02*
X152963571Y-98657676D01*
X152963571Y-98657676D02*
X152868333Y-98752914D01*
X152868333Y-98752914D02*
X152773095Y-98800533D01*
X153677857Y-98514819D02*
X154344523Y-98514819D01*
X154344523Y-98514819D02*
X153915952Y-99514819D01*
X106404580Y-128436666D02*
X106452200Y-128484285D01*
X106452200Y-128484285D02*
X106499819Y-128627142D01*
X106499819Y-128627142D02*
X106499819Y-128722380D01*
X106499819Y-128722380D02*
X106452200Y-128865237D01*
X106452200Y-128865237D02*
X106356961Y-128960475D01*
X106356961Y-128960475D02*
X106261723Y-129008094D01*
X106261723Y-129008094D02*
X106071247Y-129055713D01*
X106071247Y-129055713D02*
X105928390Y-129055713D01*
X105928390Y-129055713D02*
X105737914Y-129008094D01*
X105737914Y-129008094D02*
X105642676Y-128960475D01*
X105642676Y-128960475D02*
X105547438Y-128865237D01*
X105547438Y-128865237D02*
X105499819Y-128722380D01*
X105499819Y-128722380D02*
X105499819Y-128627142D01*
X105499819Y-128627142D02*
X105547438Y-128484285D01*
X105547438Y-128484285D02*
X105595057Y-128436666D01*
X105595057Y-128055713D02*
X105547438Y-128008094D01*
X105547438Y-128008094D02*
X105499819Y-127912856D01*
X105499819Y-127912856D02*
X105499819Y-127674761D01*
X105499819Y-127674761D02*
X105547438Y-127579523D01*
X105547438Y-127579523D02*
X105595057Y-127531904D01*
X105595057Y-127531904D02*
X105690295Y-127484285D01*
X105690295Y-127484285D02*
X105785533Y-127484285D01*
X105785533Y-127484285D02*
X105928390Y-127531904D01*
X105928390Y-127531904D02*
X106499819Y-128103332D01*
X106499819Y-128103332D02*
X106499819Y-127484285D01*
X100054580Y-104981666D02*
X100102200Y-105029285D01*
X100102200Y-105029285D02*
X100149819Y-105172142D01*
X100149819Y-105172142D02*
X100149819Y-105267380D01*
X100149819Y-105267380D02*
X100102200Y-105410237D01*
X100102200Y-105410237D02*
X100006961Y-105505475D01*
X100006961Y-105505475D02*
X99911723Y-105553094D01*
X99911723Y-105553094D02*
X99721247Y-105600713D01*
X99721247Y-105600713D02*
X99578390Y-105600713D01*
X99578390Y-105600713D02*
X99387914Y-105553094D01*
X99387914Y-105553094D02*
X99292676Y-105505475D01*
X99292676Y-105505475D02*
X99197438Y-105410237D01*
X99197438Y-105410237D02*
X99149819Y-105267380D01*
X99149819Y-105267380D02*
X99149819Y-105172142D01*
X99149819Y-105172142D02*
X99197438Y-105029285D01*
X99197438Y-105029285D02*
X99245057Y-104981666D01*
X100149819Y-104029285D02*
X100149819Y-104600713D01*
X100149819Y-104314999D02*
X99149819Y-104314999D01*
X99149819Y-104314999D02*
X99292676Y-104410237D01*
X99292676Y-104410237D02*
X99387914Y-104505475D01*
X99387914Y-104505475D02*
X99435533Y-104600713D01*
X130322142Y-129729580D02*
X130274523Y-129777200D01*
X130274523Y-129777200D02*
X130131666Y-129824819D01*
X130131666Y-129824819D02*
X130036428Y-129824819D01*
X130036428Y-129824819D02*
X129893571Y-129777200D01*
X129893571Y-129777200D02*
X129798333Y-129681961D01*
X129798333Y-129681961D02*
X129750714Y-129586723D01*
X129750714Y-129586723D02*
X129703095Y-129396247D01*
X129703095Y-129396247D02*
X129703095Y-129253390D01*
X129703095Y-129253390D02*
X129750714Y-129062914D01*
X129750714Y-129062914D02*
X129798333Y-128967676D01*
X129798333Y-128967676D02*
X129893571Y-128872438D01*
X129893571Y-128872438D02*
X130036428Y-128824819D01*
X130036428Y-128824819D02*
X130131666Y-128824819D01*
X130131666Y-128824819D02*
X130274523Y-128872438D01*
X130274523Y-128872438D02*
X130322142Y-128920057D01*
X131274523Y-129824819D02*
X130703095Y-129824819D01*
X130988809Y-129824819D02*
X130988809Y-128824819D01*
X130988809Y-128824819D02*
X130893571Y-128967676D01*
X130893571Y-128967676D02*
X130798333Y-129062914D01*
X130798333Y-129062914D02*
X130703095Y-129110533D01*
X132131666Y-128824819D02*
X131941190Y-128824819D01*
X131941190Y-128824819D02*
X131845952Y-128872438D01*
X131845952Y-128872438D02*
X131798333Y-128920057D01*
X131798333Y-128920057D02*
X131703095Y-129062914D01*
X131703095Y-129062914D02*
X131655476Y-129253390D01*
X131655476Y-129253390D02*
X131655476Y-129634342D01*
X131655476Y-129634342D02*
X131703095Y-129729580D01*
X131703095Y-129729580D02*
X131750714Y-129777200D01*
X131750714Y-129777200D02*
X131845952Y-129824819D01*
X131845952Y-129824819D02*
X132036428Y-129824819D01*
X132036428Y-129824819D02*
X132131666Y-129777200D01*
X132131666Y-129777200D02*
X132179285Y-129729580D01*
X132179285Y-129729580D02*
X132226904Y-129634342D01*
X132226904Y-129634342D02*
X132226904Y-129396247D01*
X132226904Y-129396247D02*
X132179285Y-129301009D01*
X132179285Y-129301009D02*
X132131666Y-129253390D01*
X132131666Y-129253390D02*
X132036428Y-129205771D01*
X132036428Y-129205771D02*
X131845952Y-129205771D01*
X131845952Y-129205771D02*
X131750714Y-129253390D01*
X131750714Y-129253390D02*
X131703095Y-129301009D01*
X131703095Y-129301009D02*
X131655476Y-129396247D01*
X130322142Y-100519580D02*
X130274523Y-100567200D01*
X130274523Y-100567200D02*
X130131666Y-100614819D01*
X130131666Y-100614819D02*
X130036428Y-100614819D01*
X130036428Y-100614819D02*
X129893571Y-100567200D01*
X129893571Y-100567200D02*
X129798333Y-100471961D01*
X129798333Y-100471961D02*
X129750714Y-100376723D01*
X129750714Y-100376723D02*
X129703095Y-100186247D01*
X129703095Y-100186247D02*
X129703095Y-100043390D01*
X129703095Y-100043390D02*
X129750714Y-99852914D01*
X129750714Y-99852914D02*
X129798333Y-99757676D01*
X129798333Y-99757676D02*
X129893571Y-99662438D01*
X129893571Y-99662438D02*
X130036428Y-99614819D01*
X130036428Y-99614819D02*
X130131666Y-99614819D01*
X130131666Y-99614819D02*
X130274523Y-99662438D01*
X130274523Y-99662438D02*
X130322142Y-99710057D01*
X131274523Y-100614819D02*
X130703095Y-100614819D01*
X130988809Y-100614819D02*
X130988809Y-99614819D01*
X130988809Y-99614819D02*
X130893571Y-99757676D01*
X130893571Y-99757676D02*
X130798333Y-99852914D01*
X130798333Y-99852914D02*
X130703095Y-99900533D01*
X132179285Y-99614819D02*
X131703095Y-99614819D01*
X131703095Y-99614819D02*
X131655476Y-100091009D01*
X131655476Y-100091009D02*
X131703095Y-100043390D01*
X131703095Y-100043390D02*
X131798333Y-99995771D01*
X131798333Y-99995771D02*
X132036428Y-99995771D01*
X132036428Y-99995771D02*
X132131666Y-100043390D01*
X132131666Y-100043390D02*
X132179285Y-100091009D01*
X132179285Y-100091009D02*
X132226904Y-100186247D01*
X132226904Y-100186247D02*
X132226904Y-100424342D01*
X132226904Y-100424342D02*
X132179285Y-100519580D01*
X132179285Y-100519580D02*
X132131666Y-100567200D01*
X132131666Y-100567200D02*
X132036428Y-100614819D01*
X132036428Y-100614819D02*
X131798333Y-100614819D01*
X131798333Y-100614819D02*
X131703095Y-100567200D01*
X131703095Y-100567200D02*
X131655476Y-100519580D01*
X129976666Y-115024819D02*
X129976666Y-115739104D01*
X129976666Y-115739104D02*
X129929047Y-115881961D01*
X129929047Y-115881961D02*
X129833809Y-115977200D01*
X129833809Y-115977200D02*
X129690952Y-116024819D01*
X129690952Y-116024819D02*
X129595714Y-116024819D01*
X130452857Y-116024819D02*
X130452857Y-115024819D01*
X130452857Y-115024819D02*
X130833809Y-115024819D01*
X130833809Y-115024819D02*
X130929047Y-115072438D01*
X130929047Y-115072438D02*
X130976666Y-115120057D01*
X130976666Y-115120057D02*
X131024285Y-115215295D01*
X131024285Y-115215295D02*
X131024285Y-115358152D01*
X131024285Y-115358152D02*
X130976666Y-115453390D01*
X130976666Y-115453390D02*
X130929047Y-115501009D01*
X130929047Y-115501009D02*
X130833809Y-115548628D01*
X130833809Y-115548628D02*
X130452857Y-115548628D01*
X131357619Y-115024819D02*
X131976666Y-115024819D01*
X131976666Y-115024819D02*
X131643333Y-115405771D01*
X131643333Y-115405771D02*
X131786190Y-115405771D01*
X131786190Y-115405771D02*
X131881428Y-115453390D01*
X131881428Y-115453390D02*
X131929047Y-115501009D01*
X131929047Y-115501009D02*
X131976666Y-115596247D01*
X131976666Y-115596247D02*
X131976666Y-115834342D01*
X131976666Y-115834342D02*
X131929047Y-115929580D01*
X131929047Y-115929580D02*
X131881428Y-115977200D01*
X131881428Y-115977200D02*
X131786190Y-116024819D01*
X131786190Y-116024819D02*
X131500476Y-116024819D01*
X131500476Y-116024819D02*
X131405238Y-115977200D01*
X131405238Y-115977200D02*
X131357619Y-115929580D01*
X94281666Y-122009819D02*
X94281666Y-122724104D01*
X94281666Y-122724104D02*
X94234047Y-122866961D01*
X94234047Y-122866961D02*
X94138809Y-122962200D01*
X94138809Y-122962200D02*
X93995952Y-123009819D01*
X93995952Y-123009819D02*
X93900714Y-123009819D01*
X95281666Y-123009819D02*
X94710238Y-123009819D01*
X94995952Y-123009819D02*
X94995952Y-122009819D01*
X94995952Y-122009819D02*
X94900714Y-122152676D01*
X94900714Y-122152676D02*
X94805476Y-122247914D01*
X94805476Y-122247914D02*
X94710238Y-122295533D01*
X159258095Y-140789819D02*
X159258095Y-139789819D01*
X159258095Y-140266009D02*
X159829523Y-140266009D01*
X159829523Y-140789819D02*
X159829523Y-139789819D01*
X160210476Y-139789819D02*
X160829523Y-139789819D01*
X160829523Y-139789819D02*
X160496190Y-140170771D01*
X160496190Y-140170771D02*
X160639047Y-140170771D01*
X160639047Y-140170771D02*
X160734285Y-140218390D01*
X160734285Y-140218390D02*
X160781904Y-140266009D01*
X160781904Y-140266009D02*
X160829523Y-140361247D01*
X160829523Y-140361247D02*
X160829523Y-140599342D01*
X160829523Y-140599342D02*
X160781904Y-140694580D01*
X160781904Y-140694580D02*
X160734285Y-140742200D01*
X160734285Y-140742200D02*
X160639047Y-140789819D01*
X160639047Y-140789819D02*
X160353333Y-140789819D01*
X160353333Y-140789819D02*
X160258095Y-140742200D01*
X160258095Y-140742200D02*
X160210476Y-140694580D01*
X115443095Y-139519819D02*
X115443095Y-138519819D01*
X115443095Y-138996009D02*
X116014523Y-138996009D01*
X116014523Y-139519819D02*
X116014523Y-138519819D01*
X116919285Y-138519819D02*
X116728809Y-138519819D01*
X116728809Y-138519819D02*
X116633571Y-138567438D01*
X116633571Y-138567438D02*
X116585952Y-138615057D01*
X116585952Y-138615057D02*
X116490714Y-138757914D01*
X116490714Y-138757914D02*
X116443095Y-138948390D01*
X116443095Y-138948390D02*
X116443095Y-139329342D01*
X116443095Y-139329342D02*
X116490714Y-139424580D01*
X116490714Y-139424580D02*
X116538333Y-139472200D01*
X116538333Y-139472200D02*
X116633571Y-139519819D01*
X116633571Y-139519819D02*
X116824047Y-139519819D01*
X116824047Y-139519819D02*
X116919285Y-139472200D01*
X116919285Y-139472200D02*
X116966904Y-139424580D01*
X116966904Y-139424580D02*
X117014523Y-139329342D01*
X117014523Y-139329342D02*
X117014523Y-139091247D01*
X117014523Y-139091247D02*
X116966904Y-138996009D01*
X116966904Y-138996009D02*
X116919285Y-138948390D01*
X116919285Y-138948390D02*
X116824047Y-138900771D01*
X116824047Y-138900771D02*
X116633571Y-138900771D01*
X116633571Y-138900771D02*
X116538333Y-138948390D01*
X116538333Y-138948390D02*
X116490714Y-138996009D01*
X116490714Y-138996009D02*
X116443095Y-139091247D01*
X155934580Y-133377857D02*
X155982200Y-133425476D01*
X155982200Y-133425476D02*
X156029819Y-133568333D01*
X156029819Y-133568333D02*
X156029819Y-133663571D01*
X156029819Y-133663571D02*
X155982200Y-133806428D01*
X155982200Y-133806428D02*
X155886961Y-133901666D01*
X155886961Y-133901666D02*
X155791723Y-133949285D01*
X155791723Y-133949285D02*
X155601247Y-133996904D01*
X155601247Y-133996904D02*
X155458390Y-133996904D01*
X155458390Y-133996904D02*
X155267914Y-133949285D01*
X155267914Y-133949285D02*
X155172676Y-133901666D01*
X155172676Y-133901666D02*
X155077438Y-133806428D01*
X155077438Y-133806428D02*
X155029819Y-133663571D01*
X155029819Y-133663571D02*
X155029819Y-133568333D01*
X155029819Y-133568333D02*
X155077438Y-133425476D01*
X155077438Y-133425476D02*
X155125057Y-133377857D01*
X155125057Y-132996904D02*
X155077438Y-132949285D01*
X155077438Y-132949285D02*
X155029819Y-132854047D01*
X155029819Y-132854047D02*
X155029819Y-132615952D01*
X155029819Y-132615952D02*
X155077438Y-132520714D01*
X155077438Y-132520714D02*
X155125057Y-132473095D01*
X155125057Y-132473095D02*
X155220295Y-132425476D01*
X155220295Y-132425476D02*
X155315533Y-132425476D01*
X155315533Y-132425476D02*
X155458390Y-132473095D01*
X155458390Y-132473095D02*
X156029819Y-133044523D01*
X156029819Y-133044523D02*
X156029819Y-132425476D01*
X155029819Y-132092142D02*
X155029819Y-131473095D01*
X155029819Y-131473095D02*
X155410771Y-131806428D01*
X155410771Y-131806428D02*
X155410771Y-131663571D01*
X155410771Y-131663571D02*
X155458390Y-131568333D01*
X155458390Y-131568333D02*
X155506009Y-131520714D01*
X155506009Y-131520714D02*
X155601247Y-131473095D01*
X155601247Y-131473095D02*
X155839342Y-131473095D01*
X155839342Y-131473095D02*
X155934580Y-131520714D01*
X155934580Y-131520714D02*
X155982200Y-131568333D01*
X155982200Y-131568333D02*
X156029819Y-131663571D01*
X156029819Y-131663571D02*
X156029819Y-131949285D01*
X156029819Y-131949285D02*
X155982200Y-132044523D01*
X155982200Y-132044523D02*
X155934580Y-132092142D01*
X100163333Y-119739580D02*
X100115714Y-119787200D01*
X100115714Y-119787200D02*
X99972857Y-119834819D01*
X99972857Y-119834819D02*
X99877619Y-119834819D01*
X99877619Y-119834819D02*
X99734762Y-119787200D01*
X99734762Y-119787200D02*
X99639524Y-119691961D01*
X99639524Y-119691961D02*
X99591905Y-119596723D01*
X99591905Y-119596723D02*
X99544286Y-119406247D01*
X99544286Y-119406247D02*
X99544286Y-119263390D01*
X99544286Y-119263390D02*
X99591905Y-119072914D01*
X99591905Y-119072914D02*
X99639524Y-118977676D01*
X99639524Y-118977676D02*
X99734762Y-118882438D01*
X99734762Y-118882438D02*
X99877619Y-118834819D01*
X99877619Y-118834819D02*
X99972857Y-118834819D01*
X99972857Y-118834819D02*
X100115714Y-118882438D01*
X100115714Y-118882438D02*
X100163333Y-118930057D01*
X101020476Y-118834819D02*
X100830000Y-118834819D01*
X100830000Y-118834819D02*
X100734762Y-118882438D01*
X100734762Y-118882438D02*
X100687143Y-118930057D01*
X100687143Y-118930057D02*
X100591905Y-119072914D01*
X100591905Y-119072914D02*
X100544286Y-119263390D01*
X100544286Y-119263390D02*
X100544286Y-119644342D01*
X100544286Y-119644342D02*
X100591905Y-119739580D01*
X100591905Y-119739580D02*
X100639524Y-119787200D01*
X100639524Y-119787200D02*
X100734762Y-119834819D01*
X100734762Y-119834819D02*
X100925238Y-119834819D01*
X100925238Y-119834819D02*
X101020476Y-119787200D01*
X101020476Y-119787200D02*
X101068095Y-119739580D01*
X101068095Y-119739580D02*
X101115714Y-119644342D01*
X101115714Y-119644342D02*
X101115714Y-119406247D01*
X101115714Y-119406247D02*
X101068095Y-119311009D01*
X101068095Y-119311009D02*
X101020476Y-119263390D01*
X101020476Y-119263390D02*
X100925238Y-119215771D01*
X100925238Y-119215771D02*
X100734762Y-119215771D01*
X100734762Y-119215771D02*
X100639524Y-119263390D01*
X100639524Y-119263390D02*
X100591905Y-119311009D01*
X100591905Y-119311009D02*
X100544286Y-119406247D01*
X127627142Y-118469580D02*
X127579523Y-118517200D01*
X127579523Y-118517200D02*
X127436666Y-118564819D01*
X127436666Y-118564819D02*
X127341428Y-118564819D01*
X127341428Y-118564819D02*
X127198571Y-118517200D01*
X127198571Y-118517200D02*
X127103333Y-118421961D01*
X127103333Y-118421961D02*
X127055714Y-118326723D01*
X127055714Y-118326723D02*
X127008095Y-118136247D01*
X127008095Y-118136247D02*
X127008095Y-117993390D01*
X127008095Y-117993390D02*
X127055714Y-117802914D01*
X127055714Y-117802914D02*
X127103333Y-117707676D01*
X127103333Y-117707676D02*
X127198571Y-117612438D01*
X127198571Y-117612438D02*
X127341428Y-117564819D01*
X127341428Y-117564819D02*
X127436666Y-117564819D01*
X127436666Y-117564819D02*
X127579523Y-117612438D01*
X127579523Y-117612438D02*
X127627142Y-117660057D01*
X128579523Y-118564819D02*
X128008095Y-118564819D01*
X128293809Y-118564819D02*
X128293809Y-117564819D01*
X128293809Y-117564819D02*
X128198571Y-117707676D01*
X128198571Y-117707676D02*
X128103333Y-117802914D01*
X128103333Y-117802914D02*
X128008095Y-117850533D01*
X128960476Y-117660057D02*
X129008095Y-117612438D01*
X129008095Y-117612438D02*
X129103333Y-117564819D01*
X129103333Y-117564819D02*
X129341428Y-117564819D01*
X129341428Y-117564819D02*
X129436666Y-117612438D01*
X129436666Y-117612438D02*
X129484285Y-117660057D01*
X129484285Y-117660057D02*
X129531904Y-117755295D01*
X129531904Y-117755295D02*
X129531904Y-117850533D01*
X129531904Y-117850533D02*
X129484285Y-117993390D01*
X129484285Y-117993390D02*
X128912857Y-118564819D01*
X128912857Y-118564819D02*
X129531904Y-118564819D01*
X116038333Y-112754580D02*
X115990714Y-112802200D01*
X115990714Y-112802200D02*
X115847857Y-112849819D01*
X115847857Y-112849819D02*
X115752619Y-112849819D01*
X115752619Y-112849819D02*
X115609762Y-112802200D01*
X115609762Y-112802200D02*
X115514524Y-112706961D01*
X115514524Y-112706961D02*
X115466905Y-112611723D01*
X115466905Y-112611723D02*
X115419286Y-112421247D01*
X115419286Y-112421247D02*
X115419286Y-112278390D01*
X115419286Y-112278390D02*
X115466905Y-112087914D01*
X115466905Y-112087914D02*
X115514524Y-111992676D01*
X115514524Y-111992676D02*
X115609762Y-111897438D01*
X115609762Y-111897438D02*
X115752619Y-111849819D01*
X115752619Y-111849819D02*
X115847857Y-111849819D01*
X115847857Y-111849819D02*
X115990714Y-111897438D01*
X115990714Y-111897438D02*
X116038333Y-111945057D01*
X116371667Y-111849819D02*
X117038333Y-111849819D01*
X117038333Y-111849819D02*
X116609762Y-112849819D01*
X127627142Y-121644580D02*
X127579523Y-121692200D01*
X127579523Y-121692200D02*
X127436666Y-121739819D01*
X127436666Y-121739819D02*
X127341428Y-121739819D01*
X127341428Y-121739819D02*
X127198571Y-121692200D01*
X127198571Y-121692200D02*
X127103333Y-121596961D01*
X127103333Y-121596961D02*
X127055714Y-121501723D01*
X127055714Y-121501723D02*
X127008095Y-121311247D01*
X127008095Y-121311247D02*
X127008095Y-121168390D01*
X127008095Y-121168390D02*
X127055714Y-120977914D01*
X127055714Y-120977914D02*
X127103333Y-120882676D01*
X127103333Y-120882676D02*
X127198571Y-120787438D01*
X127198571Y-120787438D02*
X127341428Y-120739819D01*
X127341428Y-120739819D02*
X127436666Y-120739819D01*
X127436666Y-120739819D02*
X127579523Y-120787438D01*
X127579523Y-120787438D02*
X127627142Y-120835057D01*
X128579523Y-121739819D02*
X128008095Y-121739819D01*
X128293809Y-121739819D02*
X128293809Y-120739819D01*
X128293809Y-120739819D02*
X128198571Y-120882676D01*
X128198571Y-120882676D02*
X128103333Y-120977914D01*
X128103333Y-120977914D02*
X128008095Y-121025533D01*
X128912857Y-120739819D02*
X129531904Y-120739819D01*
X129531904Y-120739819D02*
X129198571Y-121120771D01*
X129198571Y-121120771D02*
X129341428Y-121120771D01*
X129341428Y-121120771D02*
X129436666Y-121168390D01*
X129436666Y-121168390D02*
X129484285Y-121216009D01*
X129484285Y-121216009D02*
X129531904Y-121311247D01*
X129531904Y-121311247D02*
X129531904Y-121549342D01*
X129531904Y-121549342D02*
X129484285Y-121644580D01*
X129484285Y-121644580D02*
X129436666Y-121692200D01*
X129436666Y-121692200D02*
X129341428Y-121739819D01*
X129341428Y-121739819D02*
X129055714Y-121739819D01*
X129055714Y-121739819D02*
X128960476Y-121692200D01*
X128960476Y-121692200D02*
X128912857Y-121644580D01*
X109666333Y-121739819D02*
X109333000Y-121263628D01*
X109094905Y-121739819D02*
X109094905Y-120739819D01*
X109094905Y-120739819D02*
X109475857Y-120739819D01*
X109475857Y-120739819D02*
X109571095Y-120787438D01*
X109571095Y-120787438D02*
X109618714Y-120835057D01*
X109618714Y-120835057D02*
X109666333Y-120930295D01*
X109666333Y-120930295D02*
X109666333Y-121073152D01*
X109666333Y-121073152D02*
X109618714Y-121168390D01*
X109618714Y-121168390D02*
X109571095Y-121216009D01*
X109571095Y-121216009D02*
X109475857Y-121263628D01*
X109475857Y-121263628D02*
X109094905Y-121263628D01*
X110618714Y-121739819D02*
X110047286Y-121739819D01*
X110333000Y-121739819D02*
X110333000Y-120739819D01*
X110333000Y-120739819D02*
X110237762Y-120882676D01*
X110237762Y-120882676D02*
X110142524Y-120977914D01*
X110142524Y-120977914D02*
X110047286Y-121025533D01*
X116038333Y-127994580D02*
X115990714Y-128042200D01*
X115990714Y-128042200D02*
X115847857Y-128089819D01*
X115847857Y-128089819D02*
X115752619Y-128089819D01*
X115752619Y-128089819D02*
X115609762Y-128042200D01*
X115609762Y-128042200D02*
X115514524Y-127946961D01*
X115514524Y-127946961D02*
X115466905Y-127851723D01*
X115466905Y-127851723D02*
X115419286Y-127661247D01*
X115419286Y-127661247D02*
X115419286Y-127518390D01*
X115419286Y-127518390D02*
X115466905Y-127327914D01*
X115466905Y-127327914D02*
X115514524Y-127232676D01*
X115514524Y-127232676D02*
X115609762Y-127137438D01*
X115609762Y-127137438D02*
X115752619Y-127089819D01*
X115752619Y-127089819D02*
X115847857Y-127089819D01*
X115847857Y-127089819D02*
X115990714Y-127137438D01*
X115990714Y-127137438D02*
X116038333Y-127185057D01*
X116514524Y-128089819D02*
X116705000Y-128089819D01*
X116705000Y-128089819D02*
X116800238Y-128042200D01*
X116800238Y-128042200D02*
X116847857Y-127994580D01*
X116847857Y-127994580D02*
X116943095Y-127851723D01*
X116943095Y-127851723D02*
X116990714Y-127661247D01*
X116990714Y-127661247D02*
X116990714Y-127280295D01*
X116990714Y-127280295D02*
X116943095Y-127185057D01*
X116943095Y-127185057D02*
X116895476Y-127137438D01*
X116895476Y-127137438D02*
X116800238Y-127089819D01*
X116800238Y-127089819D02*
X116609762Y-127089819D01*
X116609762Y-127089819D02*
X116514524Y-127137438D01*
X116514524Y-127137438D02*
X116466905Y-127185057D01*
X116466905Y-127185057D02*
X116419286Y-127280295D01*
X116419286Y-127280295D02*
X116419286Y-127518390D01*
X116419286Y-127518390D02*
X116466905Y-127613628D01*
X116466905Y-127613628D02*
X116514524Y-127661247D01*
X116514524Y-127661247D02*
X116609762Y-127708866D01*
X116609762Y-127708866D02*
X116800238Y-127708866D01*
X116800238Y-127708866D02*
X116895476Y-127661247D01*
X116895476Y-127661247D02*
X116943095Y-127613628D01*
X116943095Y-127613628D02*
X116990714Y-127518390D01*
X154124819Y-104941669D02*
X153648628Y-105275002D01*
X154124819Y-105513097D02*
X153124819Y-105513097D01*
X153124819Y-105513097D02*
X153124819Y-105132145D01*
X153124819Y-105132145D02*
X153172438Y-105036907D01*
X153172438Y-105036907D02*
X153220057Y-104989288D01*
X153220057Y-104989288D02*
X153315295Y-104941669D01*
X153315295Y-104941669D02*
X153458152Y-104941669D01*
X153458152Y-104941669D02*
X153553390Y-104989288D01*
X153553390Y-104989288D02*
X153601009Y-105036907D01*
X153601009Y-105036907D02*
X153648628Y-105132145D01*
X153648628Y-105132145D02*
X153648628Y-105513097D01*
X153124819Y-104084526D02*
X153124819Y-104275002D01*
X153124819Y-104275002D02*
X153172438Y-104370240D01*
X153172438Y-104370240D02*
X153220057Y-104417859D01*
X153220057Y-104417859D02*
X153362914Y-104513097D01*
X153362914Y-104513097D02*
X153553390Y-104560716D01*
X153553390Y-104560716D02*
X153934342Y-104560716D01*
X153934342Y-104560716D02*
X154029580Y-104513097D01*
X154029580Y-104513097D02*
X154077200Y-104465478D01*
X154077200Y-104465478D02*
X154124819Y-104370240D01*
X154124819Y-104370240D02*
X154124819Y-104179764D01*
X154124819Y-104179764D02*
X154077200Y-104084526D01*
X154077200Y-104084526D02*
X154029580Y-104036907D01*
X154029580Y-104036907D02*
X153934342Y-103989288D01*
X153934342Y-103989288D02*
X153696247Y-103989288D01*
X153696247Y-103989288D02*
X153601009Y-104036907D01*
X153601009Y-104036907D02*
X153553390Y-104084526D01*
X153553390Y-104084526D02*
X153505771Y-104179764D01*
X153505771Y-104179764D02*
X153505771Y-104370240D01*
X153505771Y-104370240D02*
X153553390Y-104465478D01*
X153553390Y-104465478D02*
X153601009Y-104513097D01*
X153601009Y-104513097D02*
X153696247Y-104560716D01*
X134453333Y-113484819D02*
X133977143Y-113484819D01*
X133977143Y-113484819D02*
X133977143Y-112484819D01*
X134739048Y-112580057D02*
X134786667Y-112532438D01*
X134786667Y-112532438D02*
X134881905Y-112484819D01*
X134881905Y-112484819D02*
X135120000Y-112484819D01*
X135120000Y-112484819D02*
X135215238Y-112532438D01*
X135215238Y-112532438D02*
X135262857Y-112580057D01*
X135262857Y-112580057D02*
X135310476Y-112675295D01*
X135310476Y-112675295D02*
X135310476Y-112770533D01*
X135310476Y-112770533D02*
X135262857Y-112913390D01*
X135262857Y-112913390D02*
X134691429Y-113484819D01*
X134691429Y-113484819D02*
X135310476Y-113484819D01*
X160321666Y-109944819D02*
X160321666Y-110659104D01*
X160321666Y-110659104D02*
X160274047Y-110801961D01*
X160274047Y-110801961D02*
X160178809Y-110897200D01*
X160178809Y-110897200D02*
X160035952Y-110944819D01*
X160035952Y-110944819D02*
X159940714Y-110944819D01*
X161226428Y-110278152D02*
X161226428Y-110944819D01*
X160988333Y-109897200D02*
X160750238Y-110611485D01*
X160750238Y-110611485D02*
X161369285Y-110611485D01*
X110276666Y-137249819D02*
X110276666Y-137964104D01*
X110276666Y-137964104D02*
X110229047Y-138106961D01*
X110229047Y-138106961D02*
X110133809Y-138202200D01*
X110133809Y-138202200D02*
X109990952Y-138249819D01*
X109990952Y-138249819D02*
X109895714Y-138249819D01*
X110752857Y-138249819D02*
X110752857Y-137249819D01*
X110752857Y-137249819D02*
X111133809Y-137249819D01*
X111133809Y-137249819D02*
X111229047Y-137297438D01*
X111229047Y-137297438D02*
X111276666Y-137345057D01*
X111276666Y-137345057D02*
X111324285Y-137440295D01*
X111324285Y-137440295D02*
X111324285Y-137583152D01*
X111324285Y-137583152D02*
X111276666Y-137678390D01*
X111276666Y-137678390D02*
X111229047Y-137726009D01*
X111229047Y-137726009D02*
X111133809Y-137773628D01*
X111133809Y-137773628D02*
X110752857Y-137773628D01*
X111705238Y-137345057D02*
X111752857Y-137297438D01*
X111752857Y-137297438D02*
X111848095Y-137249819D01*
X111848095Y-137249819D02*
X112086190Y-137249819D01*
X112086190Y-137249819D02*
X112181428Y-137297438D01*
X112181428Y-137297438D02*
X112229047Y-137345057D01*
X112229047Y-137345057D02*
X112276666Y-137440295D01*
X112276666Y-137440295D02*
X112276666Y-137535533D01*
X112276666Y-137535533D02*
X112229047Y-137678390D01*
X112229047Y-137678390D02*
X111657619Y-138249819D01*
X111657619Y-138249819D02*
X112276666Y-138249819D01*
X129976666Y-123279819D02*
X129976666Y-123994104D01*
X129976666Y-123994104D02*
X129929047Y-124136961D01*
X129929047Y-124136961D02*
X129833809Y-124232200D01*
X129833809Y-124232200D02*
X129690952Y-124279819D01*
X129690952Y-124279819D02*
X129595714Y-124279819D01*
X130452857Y-124279819D02*
X130452857Y-123279819D01*
X130452857Y-123279819D02*
X130833809Y-123279819D01*
X130833809Y-123279819D02*
X130929047Y-123327438D01*
X130929047Y-123327438D02*
X130976666Y-123375057D01*
X130976666Y-123375057D02*
X131024285Y-123470295D01*
X131024285Y-123470295D02*
X131024285Y-123613152D01*
X131024285Y-123613152D02*
X130976666Y-123708390D01*
X130976666Y-123708390D02*
X130929047Y-123756009D01*
X130929047Y-123756009D02*
X130833809Y-123803628D01*
X130833809Y-123803628D02*
X130452857Y-123803628D01*
X131881428Y-123613152D02*
X131881428Y-124279819D01*
X131643333Y-123232200D02*
X131405238Y-123946485D01*
X131405238Y-123946485D02*
X132024285Y-123946485D01*
X99568095Y-144599819D02*
X99568095Y-143599819D01*
X99568095Y-144076009D02*
X100139523Y-144076009D01*
X100139523Y-144599819D02*
X100139523Y-143599819D01*
X100568095Y-143695057D02*
X100615714Y-143647438D01*
X100615714Y-143647438D02*
X100710952Y-143599819D01*
X100710952Y-143599819D02*
X100949047Y-143599819D01*
X100949047Y-143599819D02*
X101044285Y-143647438D01*
X101044285Y-143647438D02*
X101091904Y-143695057D01*
X101091904Y-143695057D02*
X101139523Y-143790295D01*
X101139523Y-143790295D02*
X101139523Y-143885533D01*
X101139523Y-143885533D02*
X101091904Y-144028390D01*
X101091904Y-144028390D02*
X100520476Y-144599819D01*
X100520476Y-144599819D02*
X101139523Y-144599819D01*
X109666333Y-115389819D02*
X109333000Y-114913628D01*
X109094905Y-115389819D02*
X109094905Y-114389819D01*
X109094905Y-114389819D02*
X109475857Y-114389819D01*
X109475857Y-114389819D02*
X109571095Y-114437438D01*
X109571095Y-114437438D02*
X109618714Y-114485057D01*
X109618714Y-114485057D02*
X109666333Y-114580295D01*
X109666333Y-114580295D02*
X109666333Y-114723152D01*
X109666333Y-114723152D02*
X109618714Y-114818390D01*
X109618714Y-114818390D02*
X109571095Y-114866009D01*
X109571095Y-114866009D02*
X109475857Y-114913628D01*
X109475857Y-114913628D02*
X109094905Y-114913628D01*
X110571095Y-114389819D02*
X110094905Y-114389819D01*
X110094905Y-114389819D02*
X110047286Y-114866009D01*
X110047286Y-114866009D02*
X110094905Y-114818390D01*
X110094905Y-114818390D02*
X110190143Y-114770771D01*
X110190143Y-114770771D02*
X110428238Y-114770771D01*
X110428238Y-114770771D02*
X110523476Y-114818390D01*
X110523476Y-114818390D02*
X110571095Y-114866009D01*
X110571095Y-114866009D02*
X110618714Y-114961247D01*
X110618714Y-114961247D02*
X110618714Y-115199342D01*
X110618714Y-115199342D02*
X110571095Y-115294580D01*
X110571095Y-115294580D02*
X110523476Y-115342200D01*
X110523476Y-115342200D02*
X110428238Y-115389819D01*
X110428238Y-115389819D02*
X110190143Y-115389819D01*
X110190143Y-115389819D02*
X110094905Y-115342200D01*
X110094905Y-115342200D02*
X110047286Y-115294580D01*
X127352642Y-113249580D02*
X127305023Y-113297200D01*
X127305023Y-113297200D02*
X127162166Y-113344819D01*
X127162166Y-113344819D02*
X127066928Y-113344819D01*
X127066928Y-113344819D02*
X126924071Y-113297200D01*
X126924071Y-113297200D02*
X126828833Y-113201961D01*
X126828833Y-113201961D02*
X126781214Y-113106723D01*
X126781214Y-113106723D02*
X126733595Y-112916247D01*
X126733595Y-112916247D02*
X126733595Y-112773390D01*
X126733595Y-112773390D02*
X126781214Y-112582914D01*
X126781214Y-112582914D02*
X126828833Y-112487676D01*
X126828833Y-112487676D02*
X126924071Y-112392438D01*
X126924071Y-112392438D02*
X127066928Y-112344819D01*
X127066928Y-112344819D02*
X127162166Y-112344819D01*
X127162166Y-112344819D02*
X127305023Y-112392438D01*
X127305023Y-112392438D02*
X127352642Y-112440057D01*
X128305023Y-113344819D02*
X127733595Y-113344819D01*
X128019309Y-113344819D02*
X128019309Y-112344819D01*
X128019309Y-112344819D02*
X127924071Y-112487676D01*
X127924071Y-112487676D02*
X127828833Y-112582914D01*
X127828833Y-112582914D02*
X127733595Y-112630533D01*
X129257404Y-113344819D02*
X128685976Y-113344819D01*
X128971690Y-113344819D02*
X128971690Y-112344819D01*
X128971690Y-112344819D02*
X128876452Y-112487676D01*
X128876452Y-112487676D02*
X128781214Y-112582914D01*
X128781214Y-112582914D02*
X128685976Y-112630533D01*
X151489580Y-146565857D02*
X151537200Y-146613476D01*
X151537200Y-146613476D02*
X151584819Y-146756333D01*
X151584819Y-146756333D02*
X151584819Y-146851571D01*
X151584819Y-146851571D02*
X151537200Y-146994428D01*
X151537200Y-146994428D02*
X151441961Y-147089666D01*
X151441961Y-147089666D02*
X151346723Y-147137285D01*
X151346723Y-147137285D02*
X151156247Y-147184904D01*
X151156247Y-147184904D02*
X151013390Y-147184904D01*
X151013390Y-147184904D02*
X150822914Y-147137285D01*
X150822914Y-147137285D02*
X150727676Y-147089666D01*
X150727676Y-147089666D02*
X150632438Y-146994428D01*
X150632438Y-146994428D02*
X150584819Y-146851571D01*
X150584819Y-146851571D02*
X150584819Y-146756333D01*
X150584819Y-146756333D02*
X150632438Y-146613476D01*
X150632438Y-146613476D02*
X150680057Y-146565857D01*
X150680057Y-146184904D02*
X150632438Y-146137285D01*
X150632438Y-146137285D02*
X150584819Y-146042047D01*
X150584819Y-146042047D02*
X150584819Y-145803952D01*
X150584819Y-145803952D02*
X150632438Y-145708714D01*
X150632438Y-145708714D02*
X150680057Y-145661095D01*
X150680057Y-145661095D02*
X150775295Y-145613476D01*
X150775295Y-145613476D02*
X150870533Y-145613476D01*
X150870533Y-145613476D02*
X151013390Y-145661095D01*
X151013390Y-145661095D02*
X151584819Y-146232523D01*
X151584819Y-146232523D02*
X151584819Y-145613476D01*
X151013390Y-145042047D02*
X150965771Y-145137285D01*
X150965771Y-145137285D02*
X150918152Y-145184904D01*
X150918152Y-145184904D02*
X150822914Y-145232523D01*
X150822914Y-145232523D02*
X150775295Y-145232523D01*
X150775295Y-145232523D02*
X150680057Y-145184904D01*
X150680057Y-145184904D02*
X150632438Y-145137285D01*
X150632438Y-145137285D02*
X150584819Y-145042047D01*
X150584819Y-145042047D02*
X150584819Y-144851571D01*
X150584819Y-144851571D02*
X150632438Y-144756333D01*
X150632438Y-144756333D02*
X150680057Y-144708714D01*
X150680057Y-144708714D02*
X150775295Y-144661095D01*
X150775295Y-144661095D02*
X150822914Y-144661095D01*
X150822914Y-144661095D02*
X150918152Y-144708714D01*
X150918152Y-144708714D02*
X150965771Y-144756333D01*
X150965771Y-144756333D02*
X151013390Y-144851571D01*
X151013390Y-144851571D02*
X151013390Y-145042047D01*
X151013390Y-145042047D02*
X151061009Y-145137285D01*
X151061009Y-145137285D02*
X151108628Y-145184904D01*
X151108628Y-145184904D02*
X151203866Y-145232523D01*
X151203866Y-145232523D02*
X151394342Y-145232523D01*
X151394342Y-145232523D02*
X151489580Y-145184904D01*
X151489580Y-145184904D02*
X151537200Y-145137285D01*
X151537200Y-145137285D02*
X151584819Y-145042047D01*
X151584819Y-145042047D02*
X151584819Y-144851571D01*
X151584819Y-144851571D02*
X151537200Y-144756333D01*
X151537200Y-144756333D02*
X151489580Y-144708714D01*
X151489580Y-144708714D02*
X151394342Y-144661095D01*
X151394342Y-144661095D02*
X151203866Y-144661095D01*
X151203866Y-144661095D02*
X151108628Y-144708714D01*
X151108628Y-144708714D02*
X151061009Y-144756333D01*
X151061009Y-144756333D02*
X151013390Y-144851571D01*
X155934580Y-146077857D02*
X155982200Y-146125476D01*
X155982200Y-146125476D02*
X156029819Y-146268333D01*
X156029819Y-146268333D02*
X156029819Y-146363571D01*
X156029819Y-146363571D02*
X155982200Y-146506428D01*
X155982200Y-146506428D02*
X155886961Y-146601666D01*
X155886961Y-146601666D02*
X155791723Y-146649285D01*
X155791723Y-146649285D02*
X155601247Y-146696904D01*
X155601247Y-146696904D02*
X155458390Y-146696904D01*
X155458390Y-146696904D02*
X155267914Y-146649285D01*
X155267914Y-146649285D02*
X155172676Y-146601666D01*
X155172676Y-146601666D02*
X155077438Y-146506428D01*
X155077438Y-146506428D02*
X155029819Y-146363571D01*
X155029819Y-146363571D02*
X155029819Y-146268333D01*
X155029819Y-146268333D02*
X155077438Y-146125476D01*
X155077438Y-146125476D02*
X155125057Y-146077857D01*
X155125057Y-145696904D02*
X155077438Y-145649285D01*
X155077438Y-145649285D02*
X155029819Y-145554047D01*
X155029819Y-145554047D02*
X155029819Y-145315952D01*
X155029819Y-145315952D02*
X155077438Y-145220714D01*
X155077438Y-145220714D02*
X155125057Y-145173095D01*
X155125057Y-145173095D02*
X155220295Y-145125476D01*
X155220295Y-145125476D02*
X155315533Y-145125476D01*
X155315533Y-145125476D02*
X155458390Y-145173095D01*
X155458390Y-145173095D02*
X156029819Y-145744523D01*
X156029819Y-145744523D02*
X156029819Y-145125476D01*
X155363152Y-144268333D02*
X156029819Y-144268333D01*
X154982200Y-144506428D02*
X155696485Y-144744523D01*
X155696485Y-144744523D02*
X155696485Y-144125476D01*
X154251819Y-132901666D02*
X153775628Y-133234999D01*
X154251819Y-133473094D02*
X153251819Y-133473094D01*
X153251819Y-133473094D02*
X153251819Y-133092142D01*
X153251819Y-133092142D02*
X153299438Y-132996904D01*
X153299438Y-132996904D02*
X153347057Y-132949285D01*
X153347057Y-132949285D02*
X153442295Y-132901666D01*
X153442295Y-132901666D02*
X153585152Y-132901666D01*
X153585152Y-132901666D02*
X153680390Y-132949285D01*
X153680390Y-132949285D02*
X153728009Y-132996904D01*
X153728009Y-132996904D02*
X153775628Y-133092142D01*
X153775628Y-133092142D02*
X153775628Y-133473094D01*
X153680390Y-132330237D02*
X153632771Y-132425475D01*
X153632771Y-132425475D02*
X153585152Y-132473094D01*
X153585152Y-132473094D02*
X153489914Y-132520713D01*
X153489914Y-132520713D02*
X153442295Y-132520713D01*
X153442295Y-132520713D02*
X153347057Y-132473094D01*
X153347057Y-132473094D02*
X153299438Y-132425475D01*
X153299438Y-132425475D02*
X153251819Y-132330237D01*
X153251819Y-132330237D02*
X153251819Y-132139761D01*
X153251819Y-132139761D02*
X153299438Y-132044523D01*
X153299438Y-132044523D02*
X153347057Y-131996904D01*
X153347057Y-131996904D02*
X153442295Y-131949285D01*
X153442295Y-131949285D02*
X153489914Y-131949285D01*
X153489914Y-131949285D02*
X153585152Y-131996904D01*
X153585152Y-131996904D02*
X153632771Y-132044523D01*
X153632771Y-132044523D02*
X153680390Y-132139761D01*
X153680390Y-132139761D02*
X153680390Y-132330237D01*
X153680390Y-132330237D02*
X153728009Y-132425475D01*
X153728009Y-132425475D02*
X153775628Y-132473094D01*
X153775628Y-132473094D02*
X153870866Y-132520713D01*
X153870866Y-132520713D02*
X154061342Y-132520713D01*
X154061342Y-132520713D02*
X154156580Y-132473094D01*
X154156580Y-132473094D02*
X154204200Y-132425475D01*
X154204200Y-132425475D02*
X154251819Y-132330237D01*
X154251819Y-132330237D02*
X154251819Y-132139761D01*
X154251819Y-132139761D02*
X154204200Y-132044523D01*
X154204200Y-132044523D02*
X154156580Y-131996904D01*
X154156580Y-131996904D02*
X154061342Y-131949285D01*
X154061342Y-131949285D02*
X153870866Y-131949285D01*
X153870866Y-131949285D02*
X153775628Y-131996904D01*
X153775628Y-131996904D02*
X153728009Y-132044523D01*
X153728009Y-132044523D02*
X153680390Y-132139761D01*
X116038333Y-110214580D02*
X115990714Y-110262200D01*
X115990714Y-110262200D02*
X115847857Y-110309819D01*
X115847857Y-110309819D02*
X115752619Y-110309819D01*
X115752619Y-110309819D02*
X115609762Y-110262200D01*
X115609762Y-110262200D02*
X115514524Y-110166961D01*
X115514524Y-110166961D02*
X115466905Y-110071723D01*
X115466905Y-110071723D02*
X115419286Y-109881247D01*
X115419286Y-109881247D02*
X115419286Y-109738390D01*
X115419286Y-109738390D02*
X115466905Y-109547914D01*
X115466905Y-109547914D02*
X115514524Y-109452676D01*
X115514524Y-109452676D02*
X115609762Y-109357438D01*
X115609762Y-109357438D02*
X115752619Y-109309819D01*
X115752619Y-109309819D02*
X115847857Y-109309819D01*
X115847857Y-109309819D02*
X115990714Y-109357438D01*
X115990714Y-109357438D02*
X116038333Y-109405057D01*
X116609762Y-109738390D02*
X116514524Y-109690771D01*
X116514524Y-109690771D02*
X116466905Y-109643152D01*
X116466905Y-109643152D02*
X116419286Y-109547914D01*
X116419286Y-109547914D02*
X116419286Y-109500295D01*
X116419286Y-109500295D02*
X116466905Y-109405057D01*
X116466905Y-109405057D02*
X116514524Y-109357438D01*
X116514524Y-109357438D02*
X116609762Y-109309819D01*
X116609762Y-109309819D02*
X116800238Y-109309819D01*
X116800238Y-109309819D02*
X116895476Y-109357438D01*
X116895476Y-109357438D02*
X116943095Y-109405057D01*
X116943095Y-109405057D02*
X116990714Y-109500295D01*
X116990714Y-109500295D02*
X116990714Y-109547914D01*
X116990714Y-109547914D02*
X116943095Y-109643152D01*
X116943095Y-109643152D02*
X116895476Y-109690771D01*
X116895476Y-109690771D02*
X116800238Y-109738390D01*
X116800238Y-109738390D02*
X116609762Y-109738390D01*
X116609762Y-109738390D02*
X116514524Y-109786009D01*
X116514524Y-109786009D02*
X116466905Y-109833628D01*
X116466905Y-109833628D02*
X116419286Y-109928866D01*
X116419286Y-109928866D02*
X116419286Y-110119342D01*
X116419286Y-110119342D02*
X116466905Y-110214580D01*
X116466905Y-110214580D02*
X116514524Y-110262200D01*
X116514524Y-110262200D02*
X116609762Y-110309819D01*
X116609762Y-110309819D02*
X116800238Y-110309819D01*
X116800238Y-110309819D02*
X116895476Y-110262200D01*
X116895476Y-110262200D02*
X116943095Y-110214580D01*
X116943095Y-110214580D02*
X116990714Y-110119342D01*
X116990714Y-110119342D02*
X116990714Y-109928866D01*
X116990714Y-109928866D02*
X116943095Y-109833628D01*
X116943095Y-109833628D02*
X116895476Y-109786009D01*
X116895476Y-109786009D02*
X116800238Y-109738390D01*
X151489580Y-106052857D02*
X151537200Y-106100476D01*
X151537200Y-106100476D02*
X151584819Y-106243333D01*
X151584819Y-106243333D02*
X151584819Y-106338571D01*
X151584819Y-106338571D02*
X151537200Y-106481428D01*
X151537200Y-106481428D02*
X151441961Y-106576666D01*
X151441961Y-106576666D02*
X151346723Y-106624285D01*
X151346723Y-106624285D02*
X151156247Y-106671904D01*
X151156247Y-106671904D02*
X151013390Y-106671904D01*
X151013390Y-106671904D02*
X150822914Y-106624285D01*
X150822914Y-106624285D02*
X150727676Y-106576666D01*
X150727676Y-106576666D02*
X150632438Y-106481428D01*
X150632438Y-106481428D02*
X150584819Y-106338571D01*
X150584819Y-106338571D02*
X150584819Y-106243333D01*
X150584819Y-106243333D02*
X150632438Y-106100476D01*
X150632438Y-106100476D02*
X150680057Y-106052857D01*
X150680057Y-105671904D02*
X150632438Y-105624285D01*
X150632438Y-105624285D02*
X150584819Y-105529047D01*
X150584819Y-105529047D02*
X150584819Y-105290952D01*
X150584819Y-105290952D02*
X150632438Y-105195714D01*
X150632438Y-105195714D02*
X150680057Y-105148095D01*
X150680057Y-105148095D02*
X150775295Y-105100476D01*
X150775295Y-105100476D02*
X150870533Y-105100476D01*
X150870533Y-105100476D02*
X151013390Y-105148095D01*
X151013390Y-105148095D02*
X151584819Y-105719523D01*
X151584819Y-105719523D02*
X151584819Y-105100476D01*
X150584819Y-104195714D02*
X150584819Y-104671904D01*
X150584819Y-104671904D02*
X151061009Y-104719523D01*
X151061009Y-104719523D02*
X151013390Y-104671904D01*
X151013390Y-104671904D02*
X150965771Y-104576666D01*
X150965771Y-104576666D02*
X150965771Y-104338571D01*
X150965771Y-104338571D02*
X151013390Y-104243333D01*
X151013390Y-104243333D02*
X151061009Y-104195714D01*
X151061009Y-104195714D02*
X151156247Y-104148095D01*
X151156247Y-104148095D02*
X151394342Y-104148095D01*
X151394342Y-104148095D02*
X151489580Y-104195714D01*
X151489580Y-104195714D02*
X151537200Y-104243333D01*
X151537200Y-104243333D02*
X151584819Y-104338571D01*
X151584819Y-104338571D02*
X151584819Y-104576666D01*
X151584819Y-104576666D02*
X151537200Y-104671904D01*
X151537200Y-104671904D02*
X151489580Y-104719523D01*
X129841666Y-94704819D02*
X129841666Y-95419104D01*
X129841666Y-95419104D02*
X129794047Y-95561961D01*
X129794047Y-95561961D02*
X129698809Y-95657200D01*
X129698809Y-95657200D02*
X129555952Y-95704819D01*
X129555952Y-95704819D02*
X129460714Y-95704819D01*
X130222619Y-94704819D02*
X130841666Y-94704819D01*
X130841666Y-94704819D02*
X130508333Y-95085771D01*
X130508333Y-95085771D02*
X130651190Y-95085771D01*
X130651190Y-95085771D02*
X130746428Y-95133390D01*
X130746428Y-95133390D02*
X130794047Y-95181009D01*
X130794047Y-95181009D02*
X130841666Y-95276247D01*
X130841666Y-95276247D02*
X130841666Y-95514342D01*
X130841666Y-95514342D02*
X130794047Y-95609580D01*
X130794047Y-95609580D02*
X130746428Y-95657200D01*
X130746428Y-95657200D02*
X130651190Y-95704819D01*
X130651190Y-95704819D02*
X130365476Y-95704819D01*
X130365476Y-95704819D02*
X130270238Y-95657200D01*
X130270238Y-95657200D02*
X130222619Y-95609580D01*
X154124819Y-118911666D02*
X153648628Y-119244999D01*
X154124819Y-119483094D02*
X153124819Y-119483094D01*
X153124819Y-119483094D02*
X153124819Y-119102142D01*
X153124819Y-119102142D02*
X153172438Y-119006904D01*
X153172438Y-119006904D02*
X153220057Y-118959285D01*
X153220057Y-118959285D02*
X153315295Y-118911666D01*
X153315295Y-118911666D02*
X153458152Y-118911666D01*
X153458152Y-118911666D02*
X153553390Y-118959285D01*
X153553390Y-118959285D02*
X153601009Y-119006904D01*
X153601009Y-119006904D02*
X153648628Y-119102142D01*
X153648628Y-119102142D02*
X153648628Y-119483094D01*
X153124819Y-118578332D02*
X153124819Y-117911666D01*
X153124819Y-117911666D02*
X154124819Y-118340237D01*
X134453333Y-140809819D02*
X133977143Y-140809819D01*
X133977143Y-140809819D02*
X133977143Y-139809819D01*
X135215238Y-140143152D02*
X135215238Y-140809819D01*
X134977143Y-139762200D02*
X134739048Y-140476485D01*
X134739048Y-140476485D02*
X135358095Y-140476485D01*
X94281666Y-116929819D02*
X94281666Y-117644104D01*
X94281666Y-117644104D02*
X94234047Y-117786961D01*
X94234047Y-117786961D02*
X94138809Y-117882200D01*
X94138809Y-117882200D02*
X93995952Y-117929819D01*
X93995952Y-117929819D02*
X93900714Y-117929819D01*
X94710238Y-117025057D02*
X94757857Y-116977438D01*
X94757857Y-116977438D02*
X94853095Y-116929819D01*
X94853095Y-116929819D02*
X95091190Y-116929819D01*
X95091190Y-116929819D02*
X95186428Y-116977438D01*
X95186428Y-116977438D02*
X95234047Y-117025057D01*
X95234047Y-117025057D02*
X95281666Y-117120295D01*
X95281666Y-117120295D02*
X95281666Y-117215533D01*
X95281666Y-117215533D02*
X95234047Y-117358390D01*
X95234047Y-117358390D02*
X94662619Y-117929819D01*
X94662619Y-117929819D02*
X95281666Y-117929819D01*
D11*
X121315237Y-119954318D02*
X121315237Y-118684318D01*
X122645714Y-119833365D02*
X122585238Y-119893842D01*
X122585238Y-119893842D02*
X122403809Y-119954318D01*
X122403809Y-119954318D02*
X122282857Y-119954318D01*
X122282857Y-119954318D02*
X122101428Y-119893842D01*
X122101428Y-119893842D02*
X121980476Y-119772889D01*
X121980476Y-119772889D02*
X121919999Y-119651937D01*
X121919999Y-119651937D02*
X121859523Y-119410032D01*
X121859523Y-119410032D02*
X121859523Y-119228603D01*
X121859523Y-119228603D02*
X121919999Y-118986699D01*
X121919999Y-118986699D02*
X121980476Y-118865746D01*
X121980476Y-118865746D02*
X122101428Y-118744794D01*
X122101428Y-118744794D02*
X122282857Y-118684318D01*
X122282857Y-118684318D02*
X122403809Y-118684318D01*
X122403809Y-118684318D02*
X122585238Y-118744794D01*
X122585238Y-118744794D02*
X122645714Y-118805270D01*
X123855238Y-119954318D02*
X123129523Y-119954318D01*
X123492380Y-119954318D02*
X123492380Y-118684318D01*
X123492380Y-118684318D02*
X123371428Y-118865746D01*
X123371428Y-118865746D02*
X123250476Y-118986699D01*
X123250476Y-118986699D02*
X123129523Y-119047175D01*
D10*
X99568095Y-96339819D02*
X99568095Y-95339819D01*
X99568095Y-95816009D02*
X100139523Y-95816009D01*
X100139523Y-96339819D02*
X100139523Y-95339819D01*
X101139523Y-96339819D02*
X100568095Y-96339819D01*
X100853809Y-96339819D02*
X100853809Y-95339819D01*
X100853809Y-95339819D02*
X100758571Y-95482676D01*
X100758571Y-95482676D02*
X100663333Y-95577914D01*
X100663333Y-95577914D02*
X100568095Y-95625533D01*
X160321666Y-129014819D02*
X160321666Y-129729104D01*
X160321666Y-129729104D02*
X160274047Y-129871961D01*
X160274047Y-129871961D02*
X160178809Y-129967200D01*
X160178809Y-129967200D02*
X160035952Y-130014819D01*
X160035952Y-130014819D02*
X159940714Y-130014819D01*
X161274047Y-129014819D02*
X160797857Y-129014819D01*
X160797857Y-129014819D02*
X160750238Y-129491009D01*
X160750238Y-129491009D02*
X160797857Y-129443390D01*
X160797857Y-129443390D02*
X160893095Y-129395771D01*
X160893095Y-129395771D02*
X161131190Y-129395771D01*
X161131190Y-129395771D02*
X161226428Y-129443390D01*
X161226428Y-129443390D02*
X161274047Y-129491009D01*
X161274047Y-129491009D02*
X161321666Y-129586247D01*
X161321666Y-129586247D02*
X161321666Y-129824342D01*
X161321666Y-129824342D02*
X161274047Y-129919580D01*
X161274047Y-129919580D02*
X161226428Y-129967200D01*
X161226428Y-129967200D02*
X161131190Y-130014819D01*
X161131190Y-130014819D02*
X160893095Y-130014819D01*
X160893095Y-130014819D02*
X160797857Y-129967200D01*
X160797857Y-129967200D02*
X160750238Y-129919580D01*
X109666333Y-126819819D02*
X109333000Y-126343628D01*
X109094905Y-126819819D02*
X109094905Y-125819819D01*
X109094905Y-125819819D02*
X109475857Y-125819819D01*
X109475857Y-125819819D02*
X109571095Y-125867438D01*
X109571095Y-125867438D02*
X109618714Y-125915057D01*
X109618714Y-125915057D02*
X109666333Y-126010295D01*
X109666333Y-126010295D02*
X109666333Y-126153152D01*
X109666333Y-126153152D02*
X109618714Y-126248390D01*
X109618714Y-126248390D02*
X109571095Y-126296009D01*
X109571095Y-126296009D02*
X109475857Y-126343628D01*
X109475857Y-126343628D02*
X109094905Y-126343628D01*
X109999667Y-125819819D02*
X110618714Y-125819819D01*
X110618714Y-125819819D02*
X110285381Y-126200771D01*
X110285381Y-126200771D02*
X110428238Y-126200771D01*
X110428238Y-126200771D02*
X110523476Y-126248390D01*
X110523476Y-126248390D02*
X110571095Y-126296009D01*
X110571095Y-126296009D02*
X110618714Y-126391247D01*
X110618714Y-126391247D02*
X110618714Y-126629342D01*
X110618714Y-126629342D02*
X110571095Y-126724580D01*
X110571095Y-126724580D02*
X110523476Y-126772200D01*
X110523476Y-126772200D02*
X110428238Y-126819819D01*
X110428238Y-126819819D02*
X110142524Y-126819819D01*
X110142524Y-126819819D02*
X110047286Y-126772200D01*
X110047286Y-126772200D02*
X109999667Y-126724580D01*
X100141334Y-121644580D02*
X100093715Y-121692200D01*
X100093715Y-121692200D02*
X99950858Y-121739819D01*
X99950858Y-121739819D02*
X99855620Y-121739819D01*
X99855620Y-121739819D02*
X99712763Y-121692200D01*
X99712763Y-121692200D02*
X99617525Y-121596961D01*
X99617525Y-121596961D02*
X99569906Y-121501723D01*
X99569906Y-121501723D02*
X99522287Y-121311247D01*
X99522287Y-121311247D02*
X99522287Y-121168390D01*
X99522287Y-121168390D02*
X99569906Y-120977914D01*
X99569906Y-120977914D02*
X99617525Y-120882676D01*
X99617525Y-120882676D02*
X99712763Y-120787438D01*
X99712763Y-120787438D02*
X99855620Y-120739819D01*
X99855620Y-120739819D02*
X99950858Y-120739819D01*
X99950858Y-120739819D02*
X100093715Y-120787438D01*
X100093715Y-120787438D02*
X100141334Y-120835057D01*
X101046096Y-120739819D02*
X100569906Y-120739819D01*
X100569906Y-120739819D02*
X100522287Y-121216009D01*
X100522287Y-121216009D02*
X100569906Y-121168390D01*
X100569906Y-121168390D02*
X100665144Y-121120771D01*
X100665144Y-121120771D02*
X100903239Y-121120771D01*
X100903239Y-121120771D02*
X100998477Y-121168390D01*
X100998477Y-121168390D02*
X101046096Y-121216009D01*
X101046096Y-121216009D02*
X101093715Y-121311247D01*
X101093715Y-121311247D02*
X101093715Y-121549342D01*
X101093715Y-121549342D02*
X101046096Y-121644580D01*
X101046096Y-121644580D02*
X100998477Y-121692200D01*
X100998477Y-121692200D02*
X100903239Y-121739819D01*
X100903239Y-121739819D02*
X100665144Y-121739819D01*
X100665144Y-121739819D02*
X100569906Y-121692200D01*
X100569906Y-121692200D02*
X100522287Y-121644580D01*
X115443095Y-101419819D02*
X115443095Y-100419819D01*
X115443095Y-100896009D02*
X116014523Y-100896009D01*
X116014523Y-101419819D02*
X116014523Y-100419819D01*
X116966904Y-100419819D02*
X116490714Y-100419819D01*
X116490714Y-100419819D02*
X116443095Y-100896009D01*
X116443095Y-100896009D02*
X116490714Y-100848390D01*
X116490714Y-100848390D02*
X116585952Y-100800771D01*
X116585952Y-100800771D02*
X116824047Y-100800771D01*
X116824047Y-100800771D02*
X116919285Y-100848390D01*
X116919285Y-100848390D02*
X116966904Y-100896009D01*
X116966904Y-100896009D02*
X117014523Y-100991247D01*
X117014523Y-100991247D02*
X117014523Y-101229342D01*
X117014523Y-101229342D02*
X116966904Y-101324580D01*
X116966904Y-101324580D02*
X116919285Y-101372200D01*
X116919285Y-101372200D02*
X116824047Y-101419819D01*
X116824047Y-101419819D02*
X116585952Y-101419819D01*
X116585952Y-101419819D02*
X116490714Y-101372200D01*
X116490714Y-101372200D02*
X116443095Y-101324580D01*
X109688333Y-130629819D02*
X109355000Y-130153628D01*
X109116905Y-130629819D02*
X109116905Y-129629819D01*
X109116905Y-129629819D02*
X109497857Y-129629819D01*
X109497857Y-129629819D02*
X109593095Y-129677438D01*
X109593095Y-129677438D02*
X109640714Y-129725057D01*
X109640714Y-129725057D02*
X109688333Y-129820295D01*
X109688333Y-129820295D02*
X109688333Y-129963152D01*
X109688333Y-129963152D02*
X109640714Y-130058390D01*
X109640714Y-130058390D02*
X109593095Y-130106009D01*
X109593095Y-130106009D02*
X109497857Y-130153628D01*
X109497857Y-130153628D02*
X109116905Y-130153628D01*
X110545476Y-129963152D02*
X110545476Y-130629819D01*
X110307381Y-129582200D02*
X110069286Y-130296485D01*
X110069286Y-130296485D02*
X110688333Y-130296485D01*
X134323333Y-100149819D02*
X133847143Y-100149819D01*
X133847143Y-100149819D02*
X133847143Y-99149819D01*
X135180476Y-100149819D02*
X134609048Y-100149819D01*
X134894762Y-100149819D02*
X134894762Y-99149819D01*
X134894762Y-99149819D02*
X134799524Y-99292676D01*
X134799524Y-99292676D02*
X134704286Y-99387914D01*
X134704286Y-99387914D02*
X134609048Y-99435533D01*
X159258095Y-100149819D02*
X159258095Y-99149819D01*
X159258095Y-99626009D02*
X159829523Y-99626009D01*
X159829523Y-100149819D02*
X159829523Y-99149819D01*
X160734285Y-99483152D02*
X160734285Y-100149819D01*
X160496190Y-99102200D02*
X160258095Y-99816485D01*
X160258095Y-99816485D02*
X160877142Y-99816485D01*
X114927142Y-130534580D02*
X114879523Y-130582200D01*
X114879523Y-130582200D02*
X114736666Y-130629819D01*
X114736666Y-130629819D02*
X114641428Y-130629819D01*
X114641428Y-130629819D02*
X114498571Y-130582200D01*
X114498571Y-130582200D02*
X114403333Y-130486961D01*
X114403333Y-130486961D02*
X114355714Y-130391723D01*
X114355714Y-130391723D02*
X114308095Y-130201247D01*
X114308095Y-130201247D02*
X114308095Y-130058390D01*
X114308095Y-130058390D02*
X114355714Y-129867914D01*
X114355714Y-129867914D02*
X114403333Y-129772676D01*
X114403333Y-129772676D02*
X114498571Y-129677438D01*
X114498571Y-129677438D02*
X114641428Y-129629819D01*
X114641428Y-129629819D02*
X114736666Y-129629819D01*
X114736666Y-129629819D02*
X114879523Y-129677438D01*
X114879523Y-129677438D02*
X114927142Y-129725057D01*
X115879523Y-130629819D02*
X115308095Y-130629819D01*
X115593809Y-130629819D02*
X115593809Y-129629819D01*
X115593809Y-129629819D02*
X115498571Y-129772676D01*
X115498571Y-129772676D02*
X115403333Y-129867914D01*
X115403333Y-129867914D02*
X115308095Y-129915533D01*
X116498571Y-129629819D02*
X116593809Y-129629819D01*
X116593809Y-129629819D02*
X116689047Y-129677438D01*
X116689047Y-129677438D02*
X116736666Y-129725057D01*
X116736666Y-129725057D02*
X116784285Y-129820295D01*
X116784285Y-129820295D02*
X116831904Y-130010771D01*
X116831904Y-130010771D02*
X116831904Y-130248866D01*
X116831904Y-130248866D02*
X116784285Y-130439342D01*
X116784285Y-130439342D02*
X116736666Y-130534580D01*
X116736666Y-130534580D02*
X116689047Y-130582200D01*
X116689047Y-130582200D02*
X116593809Y-130629819D01*
X116593809Y-130629819D02*
X116498571Y-130629819D01*
X116498571Y-130629819D02*
X116403333Y-130582200D01*
X116403333Y-130582200D02*
X116355714Y-130534580D01*
X116355714Y-130534580D02*
X116308095Y-130439342D01*
X116308095Y-130439342D02*
X116260476Y-130248866D01*
X116260476Y-130248866D02*
X116260476Y-130010771D01*
X116260476Y-130010771D02*
X116308095Y-129820295D01*
X116308095Y-129820295D02*
X116355714Y-129725057D01*
X116355714Y-129725057D02*
X116403333Y-129677438D01*
X116403333Y-129677438D02*
X116498571Y-129629819D01*
X109666333Y-119834819D02*
X109333000Y-119358628D01*
X109094905Y-119834819D02*
X109094905Y-118834819D01*
X109094905Y-118834819D02*
X109475857Y-118834819D01*
X109475857Y-118834819D02*
X109571095Y-118882438D01*
X109571095Y-118882438D02*
X109618714Y-118930057D01*
X109618714Y-118930057D02*
X109666333Y-119025295D01*
X109666333Y-119025295D02*
X109666333Y-119168152D01*
X109666333Y-119168152D02*
X109618714Y-119263390D01*
X109618714Y-119263390D02*
X109571095Y-119311009D01*
X109571095Y-119311009D02*
X109475857Y-119358628D01*
X109475857Y-119358628D02*
X109094905Y-119358628D01*
X110047286Y-118930057D02*
X110094905Y-118882438D01*
X110094905Y-118882438D02*
X110190143Y-118834819D01*
X110190143Y-118834819D02*
X110428238Y-118834819D01*
X110428238Y-118834819D02*
X110523476Y-118882438D01*
X110523476Y-118882438D02*
X110571095Y-118930057D01*
X110571095Y-118930057D02*
X110618714Y-119025295D01*
X110618714Y-119025295D02*
X110618714Y-119120533D01*
X110618714Y-119120533D02*
X110571095Y-119263390D01*
X110571095Y-119263390D02*
X109999667Y-119834819D01*
X109999667Y-119834819D02*
X110618714Y-119834819D01*
X155934580Y-105417857D02*
X155982200Y-105465476D01*
X155982200Y-105465476D02*
X156029819Y-105608333D01*
X156029819Y-105608333D02*
X156029819Y-105703571D01*
X156029819Y-105703571D02*
X155982200Y-105846428D01*
X155982200Y-105846428D02*
X155886961Y-105941666D01*
X155886961Y-105941666D02*
X155791723Y-105989285D01*
X155791723Y-105989285D02*
X155601247Y-106036904D01*
X155601247Y-106036904D02*
X155458390Y-106036904D01*
X155458390Y-106036904D02*
X155267914Y-105989285D01*
X155267914Y-105989285D02*
X155172676Y-105941666D01*
X155172676Y-105941666D02*
X155077438Y-105846428D01*
X155077438Y-105846428D02*
X155029819Y-105703571D01*
X155029819Y-105703571D02*
X155029819Y-105608333D01*
X155029819Y-105608333D02*
X155077438Y-105465476D01*
X155077438Y-105465476D02*
X155125057Y-105417857D01*
X155125057Y-105036904D02*
X155077438Y-104989285D01*
X155077438Y-104989285D02*
X155029819Y-104894047D01*
X155029819Y-104894047D02*
X155029819Y-104655952D01*
X155029819Y-104655952D02*
X155077438Y-104560714D01*
X155077438Y-104560714D02*
X155125057Y-104513095D01*
X155125057Y-104513095D02*
X155220295Y-104465476D01*
X155220295Y-104465476D02*
X155315533Y-104465476D01*
X155315533Y-104465476D02*
X155458390Y-104513095D01*
X155458390Y-104513095D02*
X156029819Y-105084523D01*
X156029819Y-105084523D02*
X156029819Y-104465476D01*
X156029819Y-103513095D02*
X156029819Y-104084523D01*
X156029819Y-103798809D02*
X155029819Y-103798809D01*
X155029819Y-103798809D02*
X155172676Y-103894047D01*
X155172676Y-103894047D02*
X155267914Y-103989285D01*
X155267914Y-103989285D02*
X155315533Y-104084523D01*
X154124819Y-145601666D02*
X153648628Y-145934999D01*
X154124819Y-146173094D02*
X153124819Y-146173094D01*
X153124819Y-146173094D02*
X153124819Y-145792142D01*
X153124819Y-145792142D02*
X153172438Y-145696904D01*
X153172438Y-145696904D02*
X153220057Y-145649285D01*
X153220057Y-145649285D02*
X153315295Y-145601666D01*
X153315295Y-145601666D02*
X153458152Y-145601666D01*
X153458152Y-145601666D02*
X153553390Y-145649285D01*
X153553390Y-145649285D02*
X153601009Y-145696904D01*
X153601009Y-145696904D02*
X153648628Y-145792142D01*
X153648628Y-145792142D02*
X153648628Y-146173094D01*
X154124819Y-145125475D02*
X154124819Y-144934999D01*
X154124819Y-144934999D02*
X154077200Y-144839761D01*
X154077200Y-144839761D02*
X154029580Y-144792142D01*
X154029580Y-144792142D02*
X153886723Y-144696904D01*
X153886723Y-144696904D02*
X153696247Y-144649285D01*
X153696247Y-144649285D02*
X153315295Y-144649285D01*
X153315295Y-144649285D02*
X153220057Y-144696904D01*
X153220057Y-144696904D02*
X153172438Y-144744523D01*
X153172438Y-144744523D02*
X153124819Y-144839761D01*
X153124819Y-144839761D02*
X153124819Y-145030237D01*
X153124819Y-145030237D02*
X153172438Y-145125475D01*
X153172438Y-145125475D02*
X153220057Y-145173094D01*
X153220057Y-145173094D02*
X153315295Y-145220713D01*
X153315295Y-145220713D02*
X153553390Y-145220713D01*
X153553390Y-145220713D02*
X153648628Y-145173094D01*
X153648628Y-145173094D02*
X153696247Y-145125475D01*
X153696247Y-145125475D02*
X153743866Y-145030237D01*
X153743866Y-145030237D02*
X153743866Y-144839761D01*
X153743866Y-144839761D02*
X153696247Y-144744523D01*
X153696247Y-144744523D02*
X153648628Y-144696904D01*
X153648628Y-144696904D02*
X153553390Y-144649285D01*
X151489580Y-119387857D02*
X151537200Y-119435476D01*
X151537200Y-119435476D02*
X151584819Y-119578333D01*
X151584819Y-119578333D02*
X151584819Y-119673571D01*
X151584819Y-119673571D02*
X151537200Y-119816428D01*
X151537200Y-119816428D02*
X151441961Y-119911666D01*
X151441961Y-119911666D02*
X151346723Y-119959285D01*
X151346723Y-119959285D02*
X151156247Y-120006904D01*
X151156247Y-120006904D02*
X151013390Y-120006904D01*
X151013390Y-120006904D02*
X150822914Y-119959285D01*
X150822914Y-119959285D02*
X150727676Y-119911666D01*
X150727676Y-119911666D02*
X150632438Y-119816428D01*
X150632438Y-119816428D02*
X150584819Y-119673571D01*
X150584819Y-119673571D02*
X150584819Y-119578333D01*
X150584819Y-119578333D02*
X150632438Y-119435476D01*
X150632438Y-119435476D02*
X150680057Y-119387857D01*
X150680057Y-119006904D02*
X150632438Y-118959285D01*
X150632438Y-118959285D02*
X150584819Y-118864047D01*
X150584819Y-118864047D02*
X150584819Y-118625952D01*
X150584819Y-118625952D02*
X150632438Y-118530714D01*
X150632438Y-118530714D02*
X150680057Y-118483095D01*
X150680057Y-118483095D02*
X150775295Y-118435476D01*
X150775295Y-118435476D02*
X150870533Y-118435476D01*
X150870533Y-118435476D02*
X151013390Y-118483095D01*
X151013390Y-118483095D02*
X151584819Y-119054523D01*
X151584819Y-119054523D02*
X151584819Y-118435476D01*
X150584819Y-117578333D02*
X150584819Y-117768809D01*
X150584819Y-117768809D02*
X150632438Y-117864047D01*
X150632438Y-117864047D02*
X150680057Y-117911666D01*
X150680057Y-117911666D02*
X150822914Y-118006904D01*
X150822914Y-118006904D02*
X151013390Y-118054523D01*
X151013390Y-118054523D02*
X151394342Y-118054523D01*
X151394342Y-118054523D02*
X151489580Y-118006904D01*
X151489580Y-118006904D02*
X151537200Y-117959285D01*
X151537200Y-117959285D02*
X151584819Y-117864047D01*
X151584819Y-117864047D02*
X151584819Y-117673571D01*
X151584819Y-117673571D02*
X151537200Y-117578333D01*
X151537200Y-117578333D02*
X151489580Y-117530714D01*
X151489580Y-117530714D02*
X151394342Y-117483095D01*
X151394342Y-117483095D02*
X151156247Y-117483095D01*
X151156247Y-117483095D02*
X151061009Y-117530714D01*
X151061009Y-117530714D02*
X151013390Y-117578333D01*
X151013390Y-117578333D02*
X150965771Y-117673571D01*
X150965771Y-117673571D02*
X150965771Y-117864047D01*
X150965771Y-117864047D02*
X151013390Y-117959285D01*
X151013390Y-117959285D02*
X151061009Y-118006904D01*
X151061009Y-118006904D02*
X151156247Y-118054523D01*
X151489580Y-133357857D02*
X151537200Y-133405476D01*
X151537200Y-133405476D02*
X151584819Y-133548333D01*
X151584819Y-133548333D02*
X151584819Y-133643571D01*
X151584819Y-133643571D02*
X151537200Y-133786428D01*
X151537200Y-133786428D02*
X151441961Y-133881666D01*
X151441961Y-133881666D02*
X151346723Y-133929285D01*
X151346723Y-133929285D02*
X151156247Y-133976904D01*
X151156247Y-133976904D02*
X151013390Y-133976904D01*
X151013390Y-133976904D02*
X150822914Y-133929285D01*
X150822914Y-133929285D02*
X150727676Y-133881666D01*
X150727676Y-133881666D02*
X150632438Y-133786428D01*
X150632438Y-133786428D02*
X150584819Y-133643571D01*
X150584819Y-133643571D02*
X150584819Y-133548333D01*
X150584819Y-133548333D02*
X150632438Y-133405476D01*
X150632438Y-133405476D02*
X150680057Y-133357857D01*
X150680057Y-132976904D02*
X150632438Y-132929285D01*
X150632438Y-132929285D02*
X150584819Y-132834047D01*
X150584819Y-132834047D02*
X150584819Y-132595952D01*
X150584819Y-132595952D02*
X150632438Y-132500714D01*
X150632438Y-132500714D02*
X150680057Y-132453095D01*
X150680057Y-132453095D02*
X150775295Y-132405476D01*
X150775295Y-132405476D02*
X150870533Y-132405476D01*
X150870533Y-132405476D02*
X151013390Y-132453095D01*
X151013390Y-132453095D02*
X151584819Y-133024523D01*
X151584819Y-133024523D02*
X151584819Y-132405476D01*
X150584819Y-132072142D02*
X150584819Y-131405476D01*
X150584819Y-131405476D02*
X151584819Y-131834047D01*
X127352642Y-126864580D02*
X127305023Y-126912200D01*
X127305023Y-126912200D02*
X127162166Y-126959819D01*
X127162166Y-126959819D02*
X127066928Y-126959819D01*
X127066928Y-126959819D02*
X126924071Y-126912200D01*
X126924071Y-126912200D02*
X126828833Y-126816961D01*
X126828833Y-126816961D02*
X126781214Y-126721723D01*
X126781214Y-126721723D02*
X126733595Y-126531247D01*
X126733595Y-126531247D02*
X126733595Y-126388390D01*
X126733595Y-126388390D02*
X126781214Y-126197914D01*
X126781214Y-126197914D02*
X126828833Y-126102676D01*
X126828833Y-126102676D02*
X126924071Y-126007438D01*
X126924071Y-126007438D02*
X127066928Y-125959819D01*
X127066928Y-125959819D02*
X127162166Y-125959819D01*
X127162166Y-125959819D02*
X127305023Y-126007438D01*
X127305023Y-126007438D02*
X127352642Y-126055057D01*
X128305023Y-126959819D02*
X127733595Y-126959819D01*
X128019309Y-126959819D02*
X128019309Y-125959819D01*
X128019309Y-125959819D02*
X127924071Y-126102676D01*
X127924071Y-126102676D02*
X127828833Y-126197914D01*
X127828833Y-126197914D02*
X127733595Y-126245533D01*
X129162166Y-126293152D02*
X129162166Y-126959819D01*
X128924071Y-125912200D02*
X128685976Y-126626485D01*
X128685976Y-126626485D02*
X129305023Y-126626485D01*
X110261666Y-140424819D02*
X110261666Y-141139104D01*
X110261666Y-141139104D02*
X110214047Y-141281961D01*
X110214047Y-141281961D02*
X110118809Y-141377200D01*
X110118809Y-141377200D02*
X109975952Y-141424819D01*
X109975952Y-141424819D02*
X109880714Y-141424819D01*
X110737857Y-141424819D02*
X110737857Y-140424819D01*
X110737857Y-140424819D02*
X111118809Y-140424819D01*
X111118809Y-140424819D02*
X111214047Y-140472438D01*
X111214047Y-140472438D02*
X111261666Y-140520057D01*
X111261666Y-140520057D02*
X111309285Y-140615295D01*
X111309285Y-140615295D02*
X111309285Y-140758152D01*
X111309285Y-140758152D02*
X111261666Y-140853390D01*
X111261666Y-140853390D02*
X111214047Y-140901009D01*
X111214047Y-140901009D02*
X111118809Y-140948628D01*
X111118809Y-140948628D02*
X110737857Y-140948628D01*
X112261666Y-141424819D02*
X111690238Y-141424819D01*
X111975952Y-141424819D02*
X111975952Y-140424819D01*
X111975952Y-140424819D02*
X111880714Y-140567676D01*
X111880714Y-140567676D02*
X111785476Y-140662914D01*
X111785476Y-140662914D02*
X111690238Y-140710533D01*
X155934582Y-119387857D02*
X155982202Y-119435476D01*
X155982202Y-119435476D02*
X156029821Y-119578333D01*
X156029821Y-119578333D02*
X156029821Y-119673571D01*
X156029821Y-119673571D02*
X155982202Y-119816428D01*
X155982202Y-119816428D02*
X155886963Y-119911666D01*
X155886963Y-119911666D02*
X155791725Y-119959285D01*
X155791725Y-119959285D02*
X155601249Y-120006904D01*
X155601249Y-120006904D02*
X155458392Y-120006904D01*
X155458392Y-120006904D02*
X155267916Y-119959285D01*
X155267916Y-119959285D02*
X155172678Y-119911666D01*
X155172678Y-119911666D02*
X155077440Y-119816428D01*
X155077440Y-119816428D02*
X155029821Y-119673571D01*
X155029821Y-119673571D02*
X155029821Y-119578333D01*
X155029821Y-119578333D02*
X155077440Y-119435476D01*
X155077440Y-119435476D02*
X155125059Y-119387857D01*
X155125059Y-119006904D02*
X155077440Y-118959285D01*
X155077440Y-118959285D02*
X155029821Y-118864047D01*
X155029821Y-118864047D02*
X155029821Y-118625952D01*
X155029821Y-118625952D02*
X155077440Y-118530714D01*
X155077440Y-118530714D02*
X155125059Y-118483095D01*
X155125059Y-118483095D02*
X155220297Y-118435476D01*
X155220297Y-118435476D02*
X155315535Y-118435476D01*
X155315535Y-118435476D02*
X155458392Y-118483095D01*
X155458392Y-118483095D02*
X156029821Y-119054523D01*
X156029821Y-119054523D02*
X156029821Y-118435476D01*
X155125059Y-118054523D02*
X155077440Y-118006904D01*
X155077440Y-118006904D02*
X155029821Y-117911666D01*
X155029821Y-117911666D02*
X155029821Y-117673571D01*
X155029821Y-117673571D02*
X155077440Y-117578333D01*
X155077440Y-117578333D02*
X155125059Y-117530714D01*
X155125059Y-117530714D02*
X155220297Y-117483095D01*
X155220297Y-117483095D02*
X155315535Y-117483095D01*
X155315535Y-117483095D02*
X155458392Y-117530714D01*
X155458392Y-117530714D02*
X156029821Y-118102142D01*
X156029821Y-118102142D02*
X156029821Y-117483095D01*
D12*
%TO.C,L3*%
X148540000Y-133320000D02*
X135940000Y-133320000D01*
X148540000Y-130320000D02*
X148540000Y-133320000D01*
X148540000Y-120720000D02*
X148540000Y-123720000D01*
X135940000Y-133320000D02*
X135940000Y-130320000D01*
X135940000Y-123720000D02*
X135940000Y-120720000D01*
X135940000Y-120720000D02*
X148540000Y-120720000D01*
%TO.C,C3*%
X105240000Y-108775000D02*
X100500000Y-108775000D01*
X100500000Y-108775000D02*
X100500000Y-116015000D01*
X105240000Y-116015000D02*
X100500000Y-116015000D01*
X105240000Y-108775000D02*
X105240000Y-116015000D01*
%TO.C,C4*%
X105218000Y-131675000D02*
X105218000Y-138915000D01*
X105218000Y-138915000D02*
X100478000Y-138915000D01*
X100478000Y-131675000D02*
X100478000Y-138915000D01*
X105218000Y-131675000D02*
X100478000Y-131675000D01*
%TO.C,C20*%
X149375000Y-134155000D02*
X156615000Y-134155000D01*
X156615000Y-134155000D02*
X156615000Y-138895000D01*
X149375000Y-138895000D02*
X156615000Y-138895000D01*
X149375000Y-134155000D02*
X149375000Y-138895000D01*
%TO.C,C19*%
X156615000Y-125580000D02*
X156615000Y-120840000D01*
X156615000Y-120840000D02*
X149375000Y-120840000D01*
X149375000Y-125580000D02*
X149375000Y-120840000D01*
X156615000Y-125580000D02*
X149375000Y-125580000D01*
%TO.C,C18*%
X149415000Y-106850000D02*
X156655000Y-106850000D01*
X156655000Y-106850000D02*
X156655000Y-111590000D01*
X149415000Y-111590000D02*
X156655000Y-111590000D01*
X149415000Y-106850000D02*
X149415000Y-111590000D01*
%TO.C,C17*%
X156615000Y-98255000D02*
X156615000Y-93515000D01*
X156615000Y-93515000D02*
X149375000Y-93515000D01*
X149375000Y-98255000D02*
X149375000Y-93515000D01*
X156615000Y-98255000D02*
X149375000Y-98255000D01*
%TO.C,C2*%
X105218000Y-124135000D02*
X100478000Y-124135000D01*
X100478000Y-124135000D02*
X100478000Y-131375000D01*
X105218000Y-131375000D02*
X100478000Y-131375000D01*
X105218000Y-124135000D02*
X105218000Y-131375000D01*
%TO.C,C1*%
X105240000Y-101155000D02*
X100500000Y-101155000D01*
X100500000Y-101155000D02*
X100500000Y-108395000D01*
X105240000Y-108395000D02*
X100500000Y-108395000D01*
X105240000Y-101155000D02*
X105240000Y-108395000D01*
%TO.C,C16*%
X135085000Y-134620000D02*
G75*
G03*
X126845000Y-134620000I-4120000J0D01*
G01*
X126845000Y-134620000D02*
G75*
G03*
X135085000Y-134620000I4120000J0D01*
G01*
X133366000Y-135660000D02*
X133366000Y-137929000D01*
X132126000Y-130706000D02*
X132126000Y-133580000D01*
X134246000Y-132166000D02*
X134246000Y-137074000D01*
X134966000Y-133672000D02*
X134966000Y-135568000D01*
X131405000Y-130563000D02*
X131405000Y-138677000D01*
X132726000Y-135660000D02*
X132726000Y-138306000D01*
X132566000Y-130863000D02*
X132566000Y-133580000D01*
X133166000Y-131176000D02*
X133166000Y-133580000D01*
X132806000Y-135660000D02*
X132806000Y-138267000D01*
X134806000Y-133167000D02*
X134806000Y-136073000D01*
X131285000Y-130552000D02*
X131285000Y-138688000D01*
X134686000Y-132889000D02*
X134686000Y-136351000D01*
X134926000Y-133522000D02*
X134926000Y-135718000D01*
X133366000Y-131311000D02*
X133366000Y-133580000D01*
X132806000Y-130973000D02*
X132806000Y-133580000D01*
X131565000Y-130583000D02*
X131565000Y-138657000D01*
X134126000Y-132016000D02*
X134126000Y-137224000D01*
X131045000Y-130540000D02*
X131045000Y-138700000D01*
X132326000Y-135660000D02*
X132326000Y-138470000D01*
X134846000Y-133274000D02*
X134846000Y-135966000D01*
X133446000Y-131370000D02*
X133446000Y-133580000D01*
X134406000Y-132392000D02*
X134406000Y-136848000D01*
X133566000Y-131464000D02*
X133566000Y-133580000D01*
X133206000Y-131202000D02*
X133206000Y-133580000D01*
X131686000Y-130603000D02*
X131686000Y-133580000D01*
X131445000Y-130568000D02*
X131445000Y-138672000D01*
X131886000Y-135660000D02*
X131886000Y-138596000D01*
X132446000Y-130815000D02*
X132446000Y-133580000D01*
X133126000Y-135660000D02*
X133126000Y-138089000D01*
X130965000Y-130540000D02*
X130965000Y-138700000D01*
X134766000Y-133068000D02*
X134766000Y-136172000D01*
X132846000Y-130993000D02*
X132846000Y-133580000D01*
X132526000Y-130846000D02*
X132526000Y-133580000D01*
X133486000Y-131400000D02*
X133486000Y-133580000D01*
X133526000Y-131431000D02*
X133526000Y-133580000D01*
X132766000Y-130954000D02*
X132766000Y-133580000D01*
X133166000Y-135660000D02*
X133166000Y-138064000D01*
X134326000Y-132275000D02*
X134326000Y-136965000D01*
X132566000Y-135660000D02*
X132566000Y-138377000D01*
X132086000Y-135660000D02*
X132086000Y-138545000D01*
X132926000Y-131036000D02*
X132926000Y-133580000D01*
X133286000Y-131255000D02*
X133286000Y-133580000D01*
X133446000Y-135660000D02*
X133446000Y-137870000D01*
X134606000Y-132730000D02*
X134606000Y-136510000D01*
X131846000Y-130635000D02*
X131846000Y-133580000D01*
X133886000Y-131753000D02*
X133886000Y-137487000D01*
X132006000Y-135660000D02*
X132006000Y-138567000D01*
X132166000Y-130718000D02*
X132166000Y-133580000D01*
X132446000Y-135660000D02*
X132446000Y-138425000D01*
X135006000Y-133852000D02*
X135006000Y-135388000D01*
X126555302Y-132305000D02*
X127355302Y-132305000D01*
X131966000Y-135660000D02*
X131966000Y-138577000D01*
X133086000Y-131127000D02*
X133086000Y-133580000D01*
X133406000Y-135660000D02*
X133406000Y-137900000D01*
X132646000Y-130898000D02*
X132646000Y-133580000D01*
X132246000Y-130743000D02*
X132246000Y-133580000D01*
X132046000Y-135660000D02*
X132046000Y-138556000D01*
X133326000Y-135660000D02*
X133326000Y-137958000D01*
X132406000Y-130799000D02*
X132406000Y-133580000D01*
X132686000Y-130916000D02*
X132686000Y-133580000D01*
X133686000Y-131565000D02*
X133686000Y-133580000D01*
X133966000Y-131836000D02*
X133966000Y-137404000D01*
X131205000Y-130546000D02*
X131205000Y-138694000D01*
X132846000Y-135660000D02*
X132846000Y-138247000D01*
X133646000Y-135660000D02*
X133646000Y-137710000D01*
X133726000Y-135660000D02*
X133726000Y-137639000D01*
X133766000Y-131637000D02*
X133766000Y-137603000D01*
X132406000Y-135660000D02*
X132406000Y-138441000D01*
X131085000Y-130541000D02*
X131085000Y-138699000D01*
X132966000Y-131058000D02*
X132966000Y-133580000D01*
X133046000Y-135660000D02*
X133046000Y-138137000D01*
X134526000Y-132586000D02*
X134526000Y-136654000D01*
X132286000Y-130757000D02*
X132286000Y-133580000D01*
X133406000Y-131340000D02*
X133406000Y-133580000D01*
X133246000Y-135660000D02*
X133246000Y-138012000D01*
X134286000Y-132220000D02*
X134286000Y-137020000D01*
X135046000Y-134087000D02*
X135046000Y-135153000D01*
X134486000Y-132518000D02*
X134486000Y-136722000D01*
X134566000Y-132656000D02*
X134566000Y-136584000D01*
X133646000Y-131530000D02*
X133646000Y-133580000D01*
X131846000Y-135660000D02*
X131846000Y-138605000D01*
X131645000Y-130596000D02*
X131645000Y-138644000D01*
X133326000Y-131282000D02*
X133326000Y-133580000D01*
X132486000Y-135660000D02*
X132486000Y-138410000D01*
X132686000Y-135660000D02*
X132686000Y-138324000D01*
X131485000Y-130572000D02*
X131485000Y-138668000D01*
X133726000Y-131601000D02*
X133726000Y-133580000D01*
X133606000Y-135660000D02*
X133606000Y-137744000D01*
X133006000Y-131080000D02*
X133006000Y-133580000D01*
X132366000Y-135660000D02*
X132366000Y-138455000D01*
X133046000Y-131103000D02*
X133046000Y-133580000D01*
X134006000Y-131879000D02*
X134006000Y-137361000D01*
X133686000Y-135660000D02*
X133686000Y-137675000D01*
X133566000Y-135660000D02*
X133566000Y-137776000D01*
X132966000Y-135660000D02*
X132966000Y-138182000D01*
X131686000Y-135660000D02*
X131686000Y-138637000D01*
X133286000Y-135660000D02*
X133286000Y-137985000D01*
X132206000Y-135660000D02*
X132206000Y-138509000D01*
X132606000Y-135660000D02*
X132606000Y-138360000D01*
X134086000Y-131969000D02*
X134086000Y-137271000D01*
X132886000Y-135660000D02*
X132886000Y-138226000D01*
X131806000Y-130626000D02*
X131806000Y-133580000D01*
X132126000Y-135660000D02*
X132126000Y-138534000D01*
X133526000Y-135660000D02*
X133526000Y-137809000D01*
X132766000Y-135660000D02*
X132766000Y-138286000D01*
X132886000Y-131014000D02*
X132886000Y-133580000D01*
X132366000Y-130785000D02*
X132366000Y-133580000D01*
X131245000Y-130549000D02*
X131245000Y-138691000D01*
X133206000Y-135660000D02*
X133206000Y-138038000D01*
X132646000Y-135660000D02*
X132646000Y-138342000D01*
X131966000Y-130663000D02*
X131966000Y-133580000D01*
X131766000Y-135660000D02*
X131766000Y-138622000D01*
X132086000Y-130695000D02*
X132086000Y-133580000D01*
X126955302Y-131905000D02*
X126955302Y-132705000D01*
X131886000Y-130644000D02*
X131886000Y-133580000D01*
X132926000Y-135660000D02*
X132926000Y-138204000D01*
X134886000Y-133391000D02*
X134886000Y-135849000D01*
X131325000Y-130555000D02*
X131325000Y-138685000D01*
X133486000Y-135660000D02*
X133486000Y-137840000D01*
X133606000Y-131496000D02*
X133606000Y-133580000D01*
X134446000Y-132454000D02*
X134446000Y-136786000D01*
X133926000Y-131794000D02*
X133926000Y-137446000D01*
X132286000Y-135660000D02*
X132286000Y-138483000D01*
X132046000Y-130684000D02*
X132046000Y-133580000D01*
X133126000Y-131151000D02*
X133126000Y-133580000D01*
X131005000Y-130540000D02*
X131005000Y-138700000D01*
X131605000Y-130590000D02*
X131605000Y-138650000D01*
X131726000Y-130610000D02*
X131726000Y-133580000D01*
X134646000Y-132807000D02*
X134646000Y-136433000D01*
X134166000Y-132064000D02*
X134166000Y-137176000D01*
X133086000Y-135660000D02*
X133086000Y-138113000D01*
X131926000Y-130653000D02*
X131926000Y-133580000D01*
X132206000Y-130731000D02*
X132206000Y-133580000D01*
X132166000Y-135660000D02*
X132166000Y-138522000D01*
X132486000Y-130830000D02*
X132486000Y-133580000D01*
X133246000Y-131228000D02*
X133246000Y-133580000D01*
X131726000Y-135660000D02*
X131726000Y-138630000D01*
X131766000Y-130618000D02*
X131766000Y-133580000D01*
X134046000Y-131923000D02*
X134046000Y-137317000D01*
X132606000Y-130880000D02*
X132606000Y-133580000D01*
X132726000Y-130934000D02*
X132726000Y-133580000D01*
X133846000Y-131713000D02*
X133846000Y-137527000D01*
X132526000Y-135660000D02*
X132526000Y-138394000D01*
X131926000Y-135660000D02*
X131926000Y-138587000D01*
X133006000Y-135660000D02*
X133006000Y-138160000D01*
X131125000Y-130543000D02*
X131125000Y-138697000D01*
X134206000Y-132115000D02*
X134206000Y-137125000D01*
X134726000Y-132975000D02*
X134726000Y-136265000D01*
X132006000Y-130673000D02*
X132006000Y-133580000D01*
X132326000Y-130770000D02*
X132326000Y-133580000D01*
X134366000Y-132333000D02*
X134366000Y-136907000D01*
X132246000Y-135660000D02*
X132246000Y-138497000D01*
X131365000Y-130559000D02*
X131365000Y-138681000D01*
X131165000Y-130544000D02*
X131165000Y-138696000D01*
X131806000Y-135660000D02*
X131806000Y-138614000D01*
X131525000Y-130578000D02*
X131525000Y-138662000D01*
X133806000Y-131675000D02*
X133806000Y-137565000D01*
%TO.C,C15*%
X133806000Y-102465000D02*
X133806000Y-108355000D01*
X131525000Y-101368000D02*
X131525000Y-109452000D01*
X131806000Y-106450000D02*
X131806000Y-109404000D01*
X131165000Y-101334000D02*
X131165000Y-109486000D01*
X131365000Y-101349000D02*
X131365000Y-109471000D01*
X132246000Y-106450000D02*
X132246000Y-109287000D01*
X134366000Y-103123000D02*
X134366000Y-107697000D01*
X132326000Y-101560000D02*
X132326000Y-104370000D01*
X132006000Y-101463000D02*
X132006000Y-104370000D01*
X134726000Y-103765000D02*
X134726000Y-107055000D01*
X134206000Y-102905000D02*
X134206000Y-107915000D01*
X131125000Y-101333000D02*
X131125000Y-109487000D01*
X133006000Y-106450000D02*
X133006000Y-108950000D01*
X131926000Y-106450000D02*
X131926000Y-109377000D01*
X132526000Y-106450000D02*
X132526000Y-109184000D01*
X133846000Y-102503000D02*
X133846000Y-108317000D01*
X132726000Y-101724000D02*
X132726000Y-104370000D01*
X132606000Y-101670000D02*
X132606000Y-104370000D01*
X134046000Y-102713000D02*
X134046000Y-108107000D01*
X131766000Y-101408000D02*
X131766000Y-104370000D01*
X131726000Y-106450000D02*
X131726000Y-109420000D01*
X133246000Y-102018000D02*
X133246000Y-104370000D01*
X132486000Y-101620000D02*
X132486000Y-104370000D01*
X132166000Y-106450000D02*
X132166000Y-109312000D01*
X132206000Y-101521000D02*
X132206000Y-104370000D01*
X131926000Y-101443000D02*
X131926000Y-104370000D01*
X133086000Y-106450000D02*
X133086000Y-108903000D01*
X134166000Y-102854000D02*
X134166000Y-107966000D01*
X134646000Y-103597000D02*
X134646000Y-107223000D01*
X131726000Y-101400000D02*
X131726000Y-104370000D01*
X131605000Y-101380000D02*
X131605000Y-109440000D01*
X131005000Y-101330000D02*
X131005000Y-109490000D01*
X133126000Y-101941000D02*
X133126000Y-104370000D01*
X132046000Y-101474000D02*
X132046000Y-104370000D01*
X132286000Y-106450000D02*
X132286000Y-109273000D01*
X133926000Y-102584000D02*
X133926000Y-108236000D01*
X134446000Y-103244000D02*
X134446000Y-107576000D01*
X133606000Y-102286000D02*
X133606000Y-104370000D01*
X133486000Y-106450000D02*
X133486000Y-108630000D01*
X131325000Y-101345000D02*
X131325000Y-109475000D01*
X134886000Y-104181000D02*
X134886000Y-106639000D01*
X132926000Y-106450000D02*
X132926000Y-108994000D01*
X131886000Y-101434000D02*
X131886000Y-104370000D01*
X126955302Y-102695000D02*
X126955302Y-103495000D01*
X132086000Y-101485000D02*
X132086000Y-104370000D01*
X131766000Y-106450000D02*
X131766000Y-109412000D01*
X131966000Y-101453000D02*
X131966000Y-104370000D01*
X132646000Y-106450000D02*
X132646000Y-109132000D01*
X133206000Y-106450000D02*
X133206000Y-108828000D01*
X131245000Y-101339000D02*
X131245000Y-109481000D01*
X132366000Y-101575000D02*
X132366000Y-104370000D01*
X132886000Y-101804000D02*
X132886000Y-104370000D01*
X132766000Y-106450000D02*
X132766000Y-109076000D01*
X133526000Y-106450000D02*
X133526000Y-108599000D01*
X132126000Y-106450000D02*
X132126000Y-109324000D01*
X131806000Y-101416000D02*
X131806000Y-104370000D01*
X132886000Y-106450000D02*
X132886000Y-109016000D01*
X134086000Y-102759000D02*
X134086000Y-108061000D01*
X132606000Y-106450000D02*
X132606000Y-109150000D01*
X132206000Y-106450000D02*
X132206000Y-109299000D01*
X133286000Y-106450000D02*
X133286000Y-108775000D01*
X131686000Y-106450000D02*
X131686000Y-109427000D01*
X132966000Y-106450000D02*
X132966000Y-108972000D01*
X133566000Y-106450000D02*
X133566000Y-108566000D01*
X133686000Y-106450000D02*
X133686000Y-108465000D01*
X134006000Y-102669000D02*
X134006000Y-108151000D01*
X133046000Y-101893000D02*
X133046000Y-104370000D01*
X132366000Y-106450000D02*
X132366000Y-109245000D01*
X133006000Y-101870000D02*
X133006000Y-104370000D01*
X133606000Y-106450000D02*
X133606000Y-108534000D01*
X133726000Y-102391000D02*
X133726000Y-104370000D01*
X131485000Y-101362000D02*
X131485000Y-109458000D01*
X132686000Y-106450000D02*
X132686000Y-109114000D01*
X132486000Y-106450000D02*
X132486000Y-109200000D01*
X133326000Y-102072000D02*
X133326000Y-104370000D01*
X131645000Y-101386000D02*
X131645000Y-109434000D01*
X131846000Y-106450000D02*
X131846000Y-109395000D01*
X133646000Y-102320000D02*
X133646000Y-104370000D01*
X134566000Y-103446000D02*
X134566000Y-107374000D01*
X134486000Y-103308000D02*
X134486000Y-107512000D01*
X135046000Y-104877000D02*
X135046000Y-105943000D01*
X134286000Y-103010000D02*
X134286000Y-107810000D01*
X133246000Y-106450000D02*
X133246000Y-108802000D01*
X133406000Y-102130000D02*
X133406000Y-104370000D01*
X132286000Y-101547000D02*
X132286000Y-104370000D01*
X134526000Y-103376000D02*
X134526000Y-107444000D01*
X133046000Y-106450000D02*
X133046000Y-108927000D01*
X132966000Y-101848000D02*
X132966000Y-104370000D01*
X131085000Y-101331000D02*
X131085000Y-109489000D01*
X132406000Y-106450000D02*
X132406000Y-109231000D01*
X133766000Y-102427000D02*
X133766000Y-108393000D01*
X133726000Y-106450000D02*
X133726000Y-108429000D01*
X133646000Y-106450000D02*
X133646000Y-108500000D01*
X132846000Y-106450000D02*
X132846000Y-109037000D01*
X131205000Y-101336000D02*
X131205000Y-109484000D01*
X133966000Y-102626000D02*
X133966000Y-108194000D01*
X133686000Y-102355000D02*
X133686000Y-104370000D01*
X132686000Y-101706000D02*
X132686000Y-104370000D01*
X132406000Y-101589000D02*
X132406000Y-104370000D01*
X133326000Y-106450000D02*
X133326000Y-108748000D01*
X132046000Y-106450000D02*
X132046000Y-109346000D01*
X132246000Y-101533000D02*
X132246000Y-104370000D01*
X132646000Y-101688000D02*
X132646000Y-104370000D01*
X133406000Y-106450000D02*
X133406000Y-108690000D01*
X133086000Y-101917000D02*
X133086000Y-104370000D01*
X131966000Y-106450000D02*
X131966000Y-109367000D01*
X126555302Y-103095000D02*
X127355302Y-103095000D01*
X135006000Y-104642000D02*
X135006000Y-106178000D01*
X132446000Y-106450000D02*
X132446000Y-109215000D01*
X132166000Y-101508000D02*
X132166000Y-104370000D01*
X132006000Y-106450000D02*
X132006000Y-109357000D01*
X133886000Y-102543000D02*
X133886000Y-108277000D01*
X131846000Y-101425000D02*
X131846000Y-104370000D01*
X134606000Y-103520000D02*
X134606000Y-107300000D01*
X133446000Y-106450000D02*
X133446000Y-108660000D01*
X133286000Y-102045000D02*
X133286000Y-104370000D01*
X132926000Y-101826000D02*
X132926000Y-104370000D01*
X132086000Y-106450000D02*
X132086000Y-109335000D01*
X132566000Y-106450000D02*
X132566000Y-109167000D01*
X134326000Y-103065000D02*
X134326000Y-107755000D01*
X133166000Y-106450000D02*
X133166000Y-108854000D01*
X132766000Y-101744000D02*
X132766000Y-104370000D01*
X133526000Y-102221000D02*
X133526000Y-104370000D01*
X133486000Y-102190000D02*
X133486000Y-104370000D01*
X132526000Y-101636000D02*
X132526000Y-104370000D01*
X132846000Y-101783000D02*
X132846000Y-104370000D01*
X134766000Y-103858000D02*
X134766000Y-106962000D01*
X130965000Y-101330000D02*
X130965000Y-109490000D01*
X133126000Y-106450000D02*
X133126000Y-108879000D01*
X132446000Y-101605000D02*
X132446000Y-104370000D01*
X131886000Y-106450000D02*
X131886000Y-109386000D01*
X131445000Y-101358000D02*
X131445000Y-109462000D01*
X131686000Y-101393000D02*
X131686000Y-104370000D01*
X133206000Y-101992000D02*
X133206000Y-104370000D01*
X133566000Y-102254000D02*
X133566000Y-104370000D01*
X134406000Y-103182000D02*
X134406000Y-107638000D01*
X133446000Y-102160000D02*
X133446000Y-104370000D01*
X134846000Y-104064000D02*
X134846000Y-106756000D01*
X132326000Y-106450000D02*
X132326000Y-109260000D01*
X131045000Y-101330000D02*
X131045000Y-109490000D01*
X134126000Y-102806000D02*
X134126000Y-108014000D01*
X131565000Y-101373000D02*
X131565000Y-109447000D01*
X132806000Y-101763000D02*
X132806000Y-104370000D01*
X133366000Y-102101000D02*
X133366000Y-104370000D01*
X134926000Y-104312000D02*
X134926000Y-106508000D01*
X134686000Y-103679000D02*
X134686000Y-107141000D01*
X131285000Y-101342000D02*
X131285000Y-109478000D01*
X134806000Y-103957000D02*
X134806000Y-106863000D01*
X132806000Y-106450000D02*
X132806000Y-109057000D01*
X133166000Y-101966000D02*
X133166000Y-104370000D01*
X132566000Y-101653000D02*
X132566000Y-104370000D01*
X132726000Y-106450000D02*
X132726000Y-109096000D01*
X131405000Y-101353000D02*
X131405000Y-109467000D01*
X134966000Y-104462000D02*
X134966000Y-106358000D01*
X134246000Y-102956000D02*
X134246000Y-107864000D01*
X132126000Y-101496000D02*
X132126000Y-104370000D01*
X133366000Y-106450000D02*
X133366000Y-108719000D01*
X135085000Y-105410000D02*
G75*
G03*
X126845000Y-105410000I-4120000J0D01*
G01*
X126845000Y-105410000D02*
G75*
G03*
X135085000Y-105410000I4120000J0D01*
G01*
%TO.C,JP3*%
X128570000Y-116955000D02*
X127970000Y-116955000D01*
X127270000Y-116255000D02*
X127270000Y-114855000D01*
X129270000Y-114855000D02*
X129270000Y-116255000D01*
X127970000Y-114155000D02*
X128570000Y-114155000D01*
X127270000Y-116255000D02*
G75*
G03*
X127970000Y-116955000I699999J-1D01*
G01*
X128570000Y-116955000D02*
G75*
G03*
X129270000Y-116255000I1J699999D01*
G01*
X127970000Y-114155000D02*
G75*
G03*
X127270000Y-114855000I0J-700000D01*
G01*
X129270000Y-114855000D02*
G75*
G03*
X128570000Y-114155000I-700000J0D01*
G01*
%TO.C,C23*%
X155065000Y-129205580D02*
X155065000Y-128924420D01*
X156085000Y-129205580D02*
X156085000Y-128924420D01*
%TO.C,C6*%
X102928748Y-120115000D02*
X103451252Y-120115000D01*
X102928748Y-118645000D02*
X103451252Y-118645000D01*
%TO.C,C12*%
X125220000Y-117969420D02*
X125220000Y-118250580D01*
X126240000Y-117969420D02*
X126240000Y-118250580D01*
%TO.C,C7*%
X118745580Y-112905000D02*
X118464420Y-112905000D01*
X118745580Y-111885000D02*
X118464420Y-111885000D01*
%TO.C,C13*%
X126240000Y-121425580D02*
X126240000Y-121144420D01*
X125220000Y-121425580D02*
X125220000Y-121144420D01*
%TO.C,R1*%
X107552258Y-120762500D02*
X107077742Y-120762500D01*
X107552258Y-121807500D02*
X107077742Y-121807500D01*
%TO.C,C9*%
X118745580Y-128145000D02*
X118464420Y-128145000D01*
X118745580Y-127125000D02*
X118464420Y-127125000D01*
%TO.C,R6*%
X152935000Y-101650439D02*
X152935000Y-102104567D01*
X154405000Y-101650439D02*
X154405000Y-102104567D01*
%TO.C,L2*%
X135940000Y-106730000D02*
X148540000Y-106730000D01*
X135940000Y-109730000D02*
X135940000Y-106730000D01*
X135940000Y-119330000D02*
X135940000Y-116330000D01*
X148540000Y-106730000D02*
X148540000Y-109730000D01*
X148540000Y-116330000D02*
X148540000Y-119330000D01*
X148540000Y-119330000D02*
X135940000Y-119330000D01*
%TO.C,JP2*%
X109350000Y-137495000D02*
X109350000Y-138095000D01*
X108650000Y-138795000D02*
X107250000Y-138795000D01*
X107250000Y-136795000D02*
X108650000Y-136795000D01*
X106550000Y-138095000D02*
X106550000Y-137495000D01*
X108650000Y-138795000D02*
G75*
G03*
X109350000Y-138095000I1J699999D01*
G01*
X109350000Y-137495000D02*
G75*
G03*
X108650000Y-136795000I-699999J1D01*
G01*
X106550000Y-138095000D02*
G75*
G03*
X107250000Y-138795000I700000J0D01*
G01*
X107250000Y-136795000D02*
G75*
G03*
X106550000Y-137495000I0J-700000D01*
G01*
%TO.C,JP4*%
X128570000Y-125240000D02*
X127970000Y-125240000D01*
X127270000Y-124540000D02*
X127270000Y-123140000D01*
X129270000Y-123140000D02*
X129270000Y-124540000D01*
X127970000Y-122440000D02*
X128570000Y-122440000D01*
X127270000Y-124540000D02*
G75*
G03*
X127970000Y-125240000I699999J-1D01*
G01*
X128570000Y-125240000D02*
G75*
G03*
X129270000Y-124540000I1J699999D01*
G01*
X127970000Y-122440000D02*
G75*
G03*
X127270000Y-123140000I0J-700000D01*
G01*
X129270000Y-123140000D02*
G75*
G03*
X128570000Y-122440000I-700000J0D01*
G01*
%TO.C,R5*%
X107077742Y-115457500D02*
X107552258Y-115457500D01*
X107077742Y-114412500D02*
X107552258Y-114412500D01*
%TO.C,C11*%
X125220000Y-113030580D02*
X125220000Y-112749420D01*
X126240000Y-113030580D02*
X126240000Y-112749420D01*
%TO.C,C28*%
X150620000Y-143175580D02*
X150620000Y-142894420D01*
X151640000Y-143175580D02*
X151640000Y-142894420D01*
%TO.C,C24*%
X156085000Y-142259420D02*
X156085000Y-142540580D01*
X155065000Y-142259420D02*
X155065000Y-142540580D01*
%TO.C,R8*%
X154532000Y-128928436D02*
X154532000Y-129382564D01*
X153062000Y-128928436D02*
X153062000Y-129382564D01*
%TO.C,C8*%
X118464420Y-109345000D02*
X118745580Y-109345000D01*
X118464420Y-110365000D02*
X118745580Y-110365000D01*
%TO.C,C25*%
X150620000Y-102515580D02*
X150620000Y-102234420D01*
X151640000Y-102515580D02*
X151640000Y-102234420D01*
%TO.C,R7*%
X152935000Y-114985436D02*
X152935000Y-115439564D01*
X154405000Y-114985436D02*
X154405000Y-115439564D01*
%TO.C,L4*%
X135940000Y-134055000D02*
X148540000Y-134055000D01*
X135940000Y-137055000D02*
X135940000Y-134055000D01*
X135940000Y-146655000D02*
X135940000Y-143655000D01*
X148540000Y-134055000D02*
X148540000Y-137055000D01*
X148540000Y-143655000D02*
X148540000Y-146655000D01*
X148540000Y-146655000D02*
X135940000Y-146655000D01*
D13*
%TO.C,IC1*%
X111702000Y-114565000D02*
X113177000Y-114565000D01*
D12*
%TO.C,R3*%
X107552258Y-126887500D02*
X107077742Y-126887500D01*
X107552258Y-125842500D02*
X107077742Y-125842500D01*
%TO.C,C5*%
X103202420Y-120775000D02*
X103483580Y-120775000D01*
X103202420Y-121795000D02*
X103483580Y-121795000D01*
%TO.C,R4*%
X107077742Y-129652500D02*
X107552258Y-129652500D01*
X107077742Y-130697500D02*
X107552258Y-130697500D01*
%TO.C,L1*%
X148540000Y-105995000D02*
X135940000Y-105995000D01*
X148540000Y-102995000D02*
X148540000Y-105995000D01*
X148540000Y-93395000D02*
X148540000Y-96395000D01*
X135940000Y-105995000D02*
X135940000Y-102995000D01*
X135940000Y-96395000D02*
X135940000Y-93395000D01*
X135940000Y-93395000D02*
X148540000Y-93395000D01*
%TO.C,C10*%
X118745580Y-130685000D02*
X118464420Y-130685000D01*
X118745580Y-129665000D02*
X118464420Y-129665000D01*
%TO.C,R2*%
X107077742Y-119902500D02*
X107552258Y-119902500D01*
X107077742Y-118857500D02*
X107552258Y-118857500D01*
%TO.C,C21*%
X156085000Y-101880580D02*
X156085000Y-101599420D01*
X155065000Y-101880580D02*
X155065000Y-101599420D01*
%TO.C,R9*%
X154405000Y-142310436D02*
X154405000Y-142764564D01*
X152935000Y-142310436D02*
X152935000Y-142764564D01*
%TO.C,C26*%
X151640000Y-115850580D02*
X151640000Y-115569420D01*
X150620000Y-115850580D02*
X150620000Y-115569420D01*
%TO.C,C27*%
X150620000Y-129840580D02*
X150620000Y-129559420D01*
X151640000Y-129840580D02*
X151640000Y-129559420D01*
%TO.C,C14*%
X125220000Y-126364420D02*
X125220000Y-126645580D01*
X126240000Y-126364420D02*
X126240000Y-126645580D01*
%TO.C,JP1*%
X109335000Y-140670000D02*
X109335000Y-141270000D01*
X108635000Y-141970000D02*
X107235000Y-141970000D01*
X107235000Y-139970000D02*
X108635000Y-139970000D01*
X106535000Y-141270000D02*
X106535000Y-140670000D01*
X108635000Y-141970000D02*
G75*
G03*
X109335000Y-141270000I1J699999D01*
G01*
X109335000Y-140670000D02*
G75*
G03*
X108635000Y-139970000I-699999J1D01*
G01*
X106535000Y-141270000D02*
G75*
G03*
X107235000Y-141970000I700000J0D01*
G01*
X107235000Y-139970000D02*
G75*
G03*
X106535000Y-140670000I0J-700000D01*
G01*
%TO.C,C22*%
X155065000Y-114934420D02*
X155065000Y-115215580D01*
X156085000Y-114934420D02*
X156085000Y-115215580D01*
%TD*%
M02*
