%TF.GenerationSoftware,KiCad,Pcbnew,7.0.11+dfsg-1build4*%
%TF.CreationDate,2025-07-20T09:39:31+04:00*%
%TF.ProjectId,tpa3116_amplifier_board,74706133-3131-4365-9f61-6d706c696669,rev?*%
%TF.SameCoordinates,Original*%
%TF.FileFunction,Soldermask,Top*%
%TF.FilePolarity,Negative*%
%FSLAX46Y46*%
G04 Gerber Fmt 4.6, Leading zero omitted, Abs format (unit mm)*
G04 Created by KiCad (PCBNEW 7.0.11+dfsg-1build4) date 2025-07-20 09:39:31*
%MOMM*%
%LPD*%
G01*
G04 APERTURE LIST*
G04 Aperture macros list*
%AMRoundRect*
0 Rectangle with rounded corners*
0 $1 Rounding radius*
0 $2 $3 $4 $5 $6 $7 $8 $9 X,Y pos of 4 corners*
0 Add a 4 corners polygon primitive as box body*
4,1,4,$2,$3,$4,$5,$6,$7,$8,$9,$2,$3,0*
0 Add four circle primitives for the rounded corners*
1,1,$1+$1,$2,$3*
1,1,$1+$1,$4,$5*
1,1,$1+$1,$6,$7*
1,1,$1+$1,$8,$9*
0 Add four rect primitives between the rounded corners*
20,1,$1+$1,$2,$3,$4,$5,0*
20,1,$1+$1,$4,$5,$6,$7,0*
20,1,$1+$1,$6,$7,$8,$9,0*
20,1,$1+$1,$8,$9,$2,$3,0*%
G04 Aperture macros list end*
%ADD10RoundRect,0.200000X-0.200000X-0.275000X0.200000X-0.275000X0.200000X0.275000X-0.200000X0.275000X0*%
%ADD11RoundRect,0.250000X0.675000X-0.675000X0.675000X0.675000X-0.675000X0.675000X-0.675000X-0.675000X0*%
%ADD12C,1.850000*%
%ADD13C,5.600000*%
%ADD14RoundRect,0.200000X0.200000X0.275000X-0.200000X0.275000X-0.200000X-0.275000X0.200000X-0.275000X0*%
%ADD15RoundRect,0.249999X1.450001X-0.450001X1.450001X0.450001X-1.450001X0.450001X-1.450001X-0.450001X0*%
%ADD16RoundRect,0.250000X-0.250000X-0.475000X0.250000X-0.475000X0.250000X0.475000X-0.250000X0.475000X0*%
%ADD17RoundRect,0.225000X-0.250000X0.225000X-0.250000X-0.225000X0.250000X-0.225000X0.250000X0.225000X0*%
%ADD18RoundRect,0.225000X0.225000X0.250000X-0.225000X0.250000X-0.225000X-0.250000X0.225000X-0.250000X0*%
%ADD19RoundRect,0.225000X0.250000X-0.225000X0.250000X0.225000X-0.250000X0.225000X-0.250000X-0.225000X0*%
%ADD20C,1.600000*%
%ADD21R,2.900000X5.400000*%
%ADD22RoundRect,0.269607X1.105393X-1.105393X1.105393X1.105393X-1.105393X1.105393X-1.105393X-1.105393X0*%
%ADD23C,2.750000*%
%ADD24RoundRect,0.225000X-0.225000X-0.250000X0.225000X-0.250000X0.225000X0.250000X-0.225000X0.250000X0*%
%ADD25RoundRect,0.200000X0.275000X-0.200000X0.275000X0.200000X-0.275000X0.200000X-0.275000X-0.200000X0*%
%ADD26RoundRect,0.269607X-1.105393X1.105393X-1.105393X-1.105393X1.105393X-1.105393X1.105393X1.105393X0*%
%ADD27R,1.475000X0.450000*%
%ADD28R,3.040000X3.740000*%
%ADD29RoundRect,0.200000X-0.275000X0.200000X-0.275000X-0.200000X0.275000X-0.200000X0.275000X0.200000X0*%
%ADD30R,2.000000X2.000000*%
%ADD31C,2.000000*%
G04 APERTURE END LIST*
D10*
%TO.C,R4*%
X113643000Y-118110000D03*
X115293000Y-118110000D03*
%TD*%
D11*
%TO.C,J1*%
X102870000Y-135010000D03*
D12*
X102870000Y-130810000D03*
X102870000Y-126610000D03*
X102870000Y-122410000D03*
%TD*%
D13*
%TO.C,H3*%
X158115000Y-142240000D03*
%TD*%
D14*
%TO.C,R6*%
X115315000Y-128270000D03*
X113665000Y-128270000D03*
%TD*%
D13*
%TO.C,H6*%
X124438000Y-135001000D03*
%TD*%
D15*
%TO.C,C17*%
X151635000Y-118255000D03*
X151635000Y-114155000D03*
%TD*%
D16*
%TO.C,C6*%
X108589999Y-120014999D03*
X110489999Y-120014999D03*
%TD*%
D14*
%TO.C,R7*%
X117833000Y-108585000D03*
X116183000Y-108585000D03*
%TD*%
D17*
%TO.C,C12*%
X133350000Y-117335000D03*
X133350000Y-118885000D03*
%TD*%
D18*
%TO.C,C7*%
X127613000Y-112395000D03*
X126063000Y-112395000D03*
%TD*%
D14*
%TO.C,R5*%
X115315000Y-130810000D03*
X113665000Y-130810000D03*
%TD*%
D19*
%TO.C,C13*%
X133350000Y-122060000D03*
X133350000Y-120510000D03*
%TD*%
D18*
%TO.C,C9*%
X127613000Y-127635000D03*
X126063000Y-127635000D03*
%TD*%
D20*
%TO.C,C1*%
X111103000Y-100965000D03*
X111103000Y-105965000D03*
%TD*%
D21*
%TO.C,L2*%
X137160000Y-127000000D03*
X147060000Y-127000000D03*
%TD*%
D22*
%TO.C,J4*%
X158750000Y-110015000D03*
D23*
X158750000Y-105215000D03*
%TD*%
D13*
%TO.C,H2*%
X104118000Y-142240000D03*
%TD*%
D19*
%TO.C,C11*%
X133350000Y-114580000D03*
X133350000Y-113030000D03*
%TD*%
D17*
%TO.C,C20*%
X150365000Y-128130000D03*
X150365000Y-129680000D03*
%TD*%
D24*
%TO.C,C8*%
X126063000Y-109855000D03*
X127613000Y-109855000D03*
%TD*%
D25*
%TO.C,R8*%
X152905000Y-111950000D03*
X152905000Y-110300000D03*
%TD*%
D26*
%TO.C,J3*%
X158750000Y-122200000D03*
D23*
X158750000Y-127000000D03*
%TD*%
D11*
%TO.C,J2*%
X102870000Y-108585000D03*
D12*
X102870000Y-104385000D03*
%TD*%
D27*
%TO.C,IC1*%
X120672000Y-115140000D03*
X120672000Y-115790000D03*
X120672000Y-116440000D03*
X120672000Y-117090000D03*
X120672000Y-117740000D03*
X120672000Y-118390000D03*
X120672000Y-119040000D03*
X120672000Y-119690000D03*
X120672000Y-120340000D03*
X120672000Y-120990000D03*
X120672000Y-121640000D03*
X120672000Y-122290000D03*
X120672000Y-122940000D03*
X120672000Y-123590000D03*
X120672000Y-124240000D03*
X120672000Y-124890000D03*
X128248000Y-124890000D03*
X128248000Y-124240000D03*
X128248000Y-123590000D03*
X128248000Y-122940000D03*
X128248000Y-122290000D03*
X128248000Y-121640000D03*
X128248000Y-120990000D03*
X128248000Y-120340000D03*
X128248000Y-119690000D03*
X128248000Y-119040000D03*
X128248000Y-118390000D03*
X128248000Y-117740000D03*
X128248000Y-117090000D03*
X128248000Y-116440000D03*
X128248000Y-115790000D03*
X128248000Y-115140000D03*
D28*
X124460000Y-120015000D03*
%TD*%
D10*
%TO.C,R3*%
X113643000Y-120650000D03*
X115293000Y-120650000D03*
%TD*%
D29*
%TO.C,R9*%
X152905000Y-128080000D03*
X152905000Y-129730000D03*
%TD*%
D13*
%TO.C,H1*%
X104118000Y-97790000D03*
%TD*%
D24*
%TO.C,C5*%
X108940000Y-118110000D03*
X110490000Y-118110000D03*
%TD*%
D13*
%TO.C,H5*%
X124460000Y-105029000D03*
%TD*%
D21*
%TO.C,L1*%
X137160000Y-113030000D03*
X147060000Y-113030000D03*
%TD*%
D30*
%TO.C,C15*%
X139065000Y-100330000D03*
D31*
X144065000Y-100330000D03*
%TD*%
D13*
%TO.C,H4*%
X158115000Y-97790000D03*
%TD*%
D14*
%TO.C,R2*%
X115293000Y-116205000D03*
X113643000Y-116205000D03*
%TD*%
D18*
%TO.C,C10*%
X127613000Y-130175000D03*
X126063000Y-130175000D03*
%TD*%
D24*
%TO.C,C21*%
X151355000Y-105410000D03*
X152905000Y-105410000D03*
%TD*%
D20*
%TO.C,C3*%
X111103000Y-108585000D03*
X111103000Y-113585000D03*
%TD*%
D17*
%TO.C,C14*%
X133350000Y-125450000D03*
X133350000Y-127000000D03*
%TD*%
D15*
%TO.C,C18*%
X151635000Y-125875000D03*
X151635000Y-121775000D03*
%TD*%
D30*
%TO.C,C16*%
X138935000Y-139700000D03*
D31*
X143935000Y-139700000D03*
%TD*%
D14*
%TO.C,R1*%
X115293000Y-122555000D03*
X113643000Y-122555000D03*
%TD*%
D17*
%TO.C,C19*%
X150365000Y-110350000D03*
X150365000Y-111900000D03*
%TD*%
D24*
%TO.C,C22*%
X151355000Y-134340000D03*
X152905000Y-134340000D03*
%TD*%
M02*
