%TF.GenerationSoftware,KiCad,Pcbnew,7.0.11+dfsg-1build4*%
%TF.CreationDate,2025-07-13T15:39:34+04:00*%
%TF.ProjectId,tpa3116_amplifier_board,74706133-3131-4365-9f61-6d706c696669,rev?*%
%TF.SameCoordinates,Original*%
%TF.FileFunction,Paste,Top*%
%TF.FilePolarity,Positive*%
%FSLAX46Y46*%
G04 Gerber Fmt 4.6, Leading zero omitted, Abs format (unit mm)*
G04 Created by KiCad (PCBNEW 7.0.11+dfsg-1build4) date 2025-07-13 15:39:34*
%MOMM*%
%LPD*%
G01*
G04 APERTURE LIST*
G04 Aperture macros list*
%AMRoundRect*
0 Rectangle with rounded corners*
0 $1 Rounding radius*
0 $2 $3 $4 $5 $6 $7 $8 $9 X,Y pos of 4 corners*
0 Add a 4 corners polygon primitive as box body*
4,1,4,$2,$3,$4,$5,$6,$7,$8,$9,$2,$3,0*
0 Add four circle primitives for the rounded corners*
1,1,$1+$1,$2,$3*
1,1,$1+$1,$4,$5*
1,1,$1+$1,$6,$7*
1,1,$1+$1,$8,$9*
0 Add four rect primitives between the rounded corners*
20,1,$1+$1,$2,$3,$4,$5,0*
20,1,$1+$1,$4,$5,$6,$7,0*
20,1,$1+$1,$6,$7,$8,$9,0*
20,1,$1+$1,$8,$9,$2,$3,0*%
G04 Aperture macros list end*
%ADD10R,2.900000X5.400000*%
%ADD11RoundRect,0.225000X0.250000X-0.225000X0.250000X0.225000X-0.250000X0.225000X-0.250000X-0.225000X0*%
%ADD12RoundRect,0.250000X-0.250000X-0.475000X0.250000X-0.475000X0.250000X0.475000X-0.250000X0.475000X0*%
%ADD13RoundRect,0.225000X-0.250000X0.225000X-0.250000X-0.225000X0.250000X-0.225000X0.250000X0.225000X0*%
%ADD14RoundRect,0.225000X0.225000X0.250000X-0.225000X0.250000X-0.225000X-0.250000X0.225000X-0.250000X0*%
%ADD15RoundRect,0.200000X0.200000X0.275000X-0.200000X0.275000X-0.200000X-0.275000X0.200000X-0.275000X0*%
%ADD16RoundRect,0.250000X-0.450000X0.262500X-0.450000X-0.262500X0.450000X-0.262500X0.450000X0.262500X0*%
%ADD17RoundRect,0.200000X-0.200000X-0.275000X0.200000X-0.275000X0.200000X0.275000X-0.200000X0.275000X0*%
%ADD18RoundRect,0.225000X-0.225000X-0.250000X0.225000X-0.250000X0.225000X0.250000X-0.225000X0.250000X0*%
%ADD19R,3.040000X3.740000*%
%ADD20R,1.475000X0.450000*%
G04 APERTURE END LIST*
D10*
%TO.C,L3*%
X147190000Y-127020000D03*
X137290000Y-127020000D03*
%TD*%
D11*
%TO.C,C23*%
X155575000Y-129840000D03*
X155575000Y-128290000D03*
%TD*%
D12*
%TO.C,C6*%
X104140000Y-119380000D03*
X102240000Y-119380000D03*
%TD*%
D13*
%TO.C,C12*%
X125730000Y-118885000D03*
X125730000Y-117335000D03*
%TD*%
D14*
%TO.C,C7*%
X119380000Y-112395000D03*
X117830000Y-112395000D03*
%TD*%
D11*
%TO.C,C13*%
X125730000Y-120510000D03*
X125730000Y-122060000D03*
%TD*%
D15*
%TO.C,R1*%
X106490000Y-121285000D03*
X108140000Y-121285000D03*
%TD*%
D14*
%TO.C,C9*%
X119380000Y-127635000D03*
X117830000Y-127635000D03*
%TD*%
D16*
%TO.C,R6*%
X153670000Y-102790003D03*
X153670000Y-100965003D03*
%TD*%
D10*
%TO.C,L2*%
X137290000Y-113030000D03*
X147190000Y-113030000D03*
%TD*%
D17*
%TO.C,R5*%
X108140000Y-114935000D03*
X106490000Y-114935000D03*
%TD*%
D11*
%TO.C,C11*%
X125730000Y-113665000D03*
X125730000Y-112115000D03*
%TD*%
%TO.C,C28*%
X151130000Y-143810000D03*
X151130000Y-142260000D03*
%TD*%
D13*
%TO.C,C24*%
X155575000Y-141625000D03*
X155575000Y-143175000D03*
%TD*%
D16*
%TO.C,R8*%
X153797000Y-128243000D03*
X153797000Y-130068000D03*
%TD*%
D18*
%TO.C,C8*%
X117830000Y-109855000D03*
X119380000Y-109855000D03*
%TD*%
D11*
%TO.C,C25*%
X151130000Y-103150000D03*
X151130000Y-101600000D03*
%TD*%
D16*
%TO.C,R7*%
X153670000Y-116125000D03*
X153670000Y-114300000D03*
%TD*%
D10*
%TO.C,L4*%
X137290000Y-140355000D03*
X147190000Y-140355000D03*
%TD*%
D19*
%TO.C,IC1*%
X116227000Y-120015000D03*
D20*
X120015000Y-115140000D03*
X120015000Y-115790000D03*
X120015000Y-116440000D03*
X120015000Y-117090000D03*
X120015000Y-117740000D03*
X120015000Y-118390000D03*
X120015000Y-119040000D03*
X120015000Y-119690000D03*
X120015000Y-120340000D03*
X120015000Y-120990000D03*
X120015000Y-121640000D03*
X120015000Y-122290000D03*
X120015000Y-122940000D03*
X120015000Y-123590000D03*
X120015000Y-124240000D03*
X120015000Y-124890000D03*
X112439000Y-124890000D03*
X112439000Y-124240000D03*
X112439000Y-123590000D03*
X112439000Y-122940000D03*
X112439000Y-122290000D03*
X112439000Y-121640000D03*
X112439000Y-120990000D03*
X112439000Y-120340000D03*
X112439000Y-119690000D03*
X112439000Y-119040000D03*
X112439000Y-118390000D03*
X112439000Y-117740000D03*
X112439000Y-117090000D03*
X112439000Y-116440000D03*
X112439000Y-115790000D03*
X112439000Y-115140000D03*
%TD*%
D15*
%TO.C,R3*%
X108140000Y-126365000D03*
X106490000Y-126365000D03*
%TD*%
D18*
%TO.C,C5*%
X102568000Y-121285000D03*
X104118000Y-121285000D03*
%TD*%
D17*
%TO.C,R4*%
X106490000Y-130175000D03*
X108140000Y-130175000D03*
%TD*%
D10*
%TO.C,L1*%
X147190000Y-99695000D03*
X137290000Y-99695000D03*
%TD*%
D14*
%TO.C,C10*%
X119380000Y-130175000D03*
X117830000Y-130175000D03*
%TD*%
D17*
%TO.C,R2*%
X108140000Y-119380000D03*
X106490000Y-119380000D03*
%TD*%
D11*
%TO.C,C21*%
X155575000Y-100965000D03*
X155575000Y-102515000D03*
%TD*%
D16*
%TO.C,R9*%
X153670000Y-141625000D03*
X153670000Y-143450000D03*
%TD*%
D11*
%TO.C,C26*%
X151130000Y-114935000D03*
X151130000Y-116485000D03*
%TD*%
%TO.C,C27*%
X151130000Y-130475000D03*
X151130000Y-128925000D03*
%TD*%
D13*
%TO.C,C14*%
X125730000Y-127280000D03*
X125730000Y-125730000D03*
%TD*%
%TO.C,C22*%
X155575000Y-115850000D03*
X155575000Y-114300000D03*
%TD*%
M02*
