%TF.GenerationSoftware,KiCad,Pcbnew,7.0.11+dfsg-1build4*%
%TF.CreationDate,2025-07-13T15:39:34+04:00*%
%TF.ProjectId,tpa3116_amplifier_board,74706133-3131-4365-9f61-6d706c696669,rev?*%
%TF.SameCoordinates,Original*%
%TF.FileFunction,Soldermask,Bot*%
%TF.FilePolarity,Negative*%
%FSLAX46Y46*%
G04 Gerber Fmt 4.6, Leading zero omitted, Abs format (unit mm)*
G04 Created by KiCad (PCBNEW 7.0.11+dfsg-1build4) date 2025-07-13 15:39:34*
%MOMM*%
%LPD*%
G01*
G04 APERTURE LIST*
G04 Aperture macros list*
%AMRoundRect*
0 Rectangle with rounded corners*
0 $1 Rounding radius*
0 $2 $3 $4 $5 $6 $7 $8 $9 X,Y pos of 4 corners*
0 Add a 4 corners polygon primitive as box body*
4,1,4,$2,$3,$4,$5,$6,$7,$8,$9,$2,$3,0*
0 Add four circle primitives for the rounded corners*
1,1,$1+$1,$2,$3*
1,1,$1+$1,$4,$5*
1,1,$1+$1,$6,$7*
1,1,$1+$1,$8,$9*
0 Add four rect primitives between the rounded corners*
20,1,$1+$1,$2,$3,$4,$5,0*
20,1,$1+$1,$4,$5,$6,$7,0*
20,1,$1+$1,$6,$7,$8,$9,0*
20,1,$1+$1,$8,$9,$2,$3,0*%
G04 Aperture macros list end*
%ADD10C,1.600000*%
%ADD11R,1.600000X1.600000*%
%ADD12C,1.850000*%
%ADD13RoundRect,0.250000X0.675000X-0.675000X0.675000X0.675000X-0.675000X0.675000X-0.675000X-0.675000X0*%
%ADD14C,5.600000*%
%ADD15C,2.750000*%
%ADD16RoundRect,0.250000X-1.125000X1.125000X-1.125000X-1.125000X1.125000X-1.125000X1.125000X1.125000X0*%
%ADD17RoundRect,0.250000X-1.125000X-1.125000X1.125000X-1.125000X1.125000X1.125000X-1.125000X1.125000X0*%
G04 APERTURE END LIST*
D10*
%TO.C,C3*%
X102870000Y-109895000D03*
X102870000Y-114895000D03*
%TD*%
%TO.C,C4*%
X102848000Y-137795000D03*
X102848000Y-132795000D03*
%TD*%
%TO.C,C20*%
X155495000Y-136525000D03*
X150495000Y-136525000D03*
%TD*%
%TO.C,C19*%
X155495000Y-123210000D03*
X150495000Y-123210000D03*
%TD*%
%TO.C,C18*%
X155535000Y-109220000D03*
X150535000Y-109220000D03*
%TD*%
%TO.C,C17*%
X155495000Y-95885000D03*
X150495000Y-95885000D03*
%TD*%
%TO.C,C2*%
X102848000Y-125255000D03*
X102848000Y-130255000D03*
%TD*%
%TO.C,C1*%
X102870000Y-102275000D03*
X102870000Y-107275000D03*
%TD*%
%TO.C,C16*%
X132715000Y-134620000D03*
D11*
X129215000Y-134620000D03*
%TD*%
%TO.C,C15*%
X129215000Y-105410000D03*
D10*
X132715000Y-105410000D03*
%TD*%
D12*
%TO.C,J1*%
X94615000Y-125195000D03*
X94615000Y-129395000D03*
X94615000Y-133595000D03*
D13*
X94615000Y-137795000D03*
%TD*%
D14*
%TO.C,H3*%
X160020000Y-144145000D03*
%TD*%
%TO.C,H6*%
X116205000Y-135001000D03*
%TD*%
D15*
%TO.C,J4*%
X160655000Y-113030000D03*
D16*
X160655000Y-107630000D03*
%TD*%
D14*
%TO.C,H2*%
X95885000Y-144145000D03*
%TD*%
D15*
%TO.C,J3*%
X132715000Y-95250000D03*
D17*
X127315000Y-95250000D03*
%TD*%
D13*
%TO.C,J2*%
X94615000Y-114875000D03*
D12*
X94615000Y-110675000D03*
X94615000Y-106475000D03*
X94615000Y-102275000D03*
%TD*%
D14*
%TO.C,H1*%
X95885000Y-95885000D03*
%TD*%
D16*
%TO.C,J5*%
X160655000Y-127020000D03*
D15*
X160655000Y-132420000D03*
%TD*%
D14*
%TO.C,H5*%
X116227000Y-105029000D03*
%TD*%
%TO.C,H4*%
X160020000Y-95885000D03*
%TD*%
M02*
