%TF.GenerationSoftware,KiCad,Pcbnew,7.0.11+dfsg-1build4*%
%TF.CreationDate,2025-07-18T03:09:10+04:00*%
%TF.ProjectId,tpa3116_amplifier_board,74706133-3131-4365-9f61-6d706c696669,rev?*%
%TF.SameCoordinates,Original*%
%TF.FileFunction,Copper,L2,Bot*%
%TF.FilePolarity,Positive*%
%FSLAX46Y46*%
G04 Gerber Fmt 4.6, Leading zero omitted, Abs format (unit mm)*
G04 Created by KiCad (PCBNEW 7.0.11+dfsg-1build4) date 2025-07-18 03:09:10*
%MOMM*%
%LPD*%
G01*
G04 APERTURE LIST*
G04 Aperture macros list*
%AMRoundRect*
0 Rectangle with rounded corners*
0 $1 Rounding radius*
0 $2 $3 $4 $5 $6 $7 $8 $9 X,Y pos of 4 corners*
0 Add a 4 corners polygon primitive as box body*
4,1,4,$2,$3,$4,$5,$6,$7,$8,$9,$2,$3,0*
0 Add four circle primitives for the rounded corners*
1,1,$1+$1,$2,$3*
1,1,$1+$1,$4,$5*
1,1,$1+$1,$6,$7*
1,1,$1+$1,$8,$9*
0 Add four rect primitives between the rounded corners*
20,1,$1+$1,$2,$3,$4,$5,0*
20,1,$1+$1,$4,$5,$6,$7,0*
20,1,$1+$1,$6,$7,$8,$9,0*
20,1,$1+$1,$8,$9,$2,$3,0*%
G04 Aperture macros list end*
%TA.AperFunction,ComponentPad*%
%ADD10C,1.600000*%
%TD*%
%TA.AperFunction,ComponentPad*%
%ADD11RoundRect,0.250000X0.675000X-0.675000X0.675000X0.675000X-0.675000X0.675000X-0.675000X-0.675000X0*%
%TD*%
%TA.AperFunction,ComponentPad*%
%ADD12C,1.850000*%
%TD*%
%TA.AperFunction,ComponentPad*%
%ADD13C,5.600000*%
%TD*%
%TA.AperFunction,ComponentPad*%
%ADD14RoundRect,0.272727X-1.227273X1.227273X-1.227273X-1.227273X1.227273X-1.227273X1.227273X1.227273X0*%
%TD*%
%TA.AperFunction,ComponentPad*%
%ADD15C,3.000000*%
%TD*%
%TA.AperFunction,ComponentPad*%
%ADD16RoundRect,0.272727X-1.227273X-1.227273X1.227273X-1.227273X1.227273X1.227273X-1.227273X1.227273X0*%
%TD*%
%TA.AperFunction,ComponentPad*%
%ADD17R,2.000000X2.000000*%
%TD*%
%TA.AperFunction,ComponentPad*%
%ADD18C,2.000000*%
%TD*%
%TA.AperFunction,ViaPad*%
%ADD19C,0.800000*%
%TD*%
%TA.AperFunction,Conductor*%
%ADD20C,0.350000*%
%TD*%
G04 APERTURE END LIST*
D10*
%TO.P,C4,1*%
%TO.N,/L-*%
X102848000Y-133945000D03*
%TO.P,C4,2*%
%TO.N,Net-(IC1-LINN)*%
X102848000Y-138945000D03*
%TD*%
D11*
%TO.P,J1,1,Pin_1*%
%TO.N,GND*%
X94615000Y-136525000D03*
D12*
%TO.P,J1,2,Pin_2*%
%TO.N,/mute*%
X94615000Y-132325000D03*
%TO.P,J1,3,Pin_3*%
%TO.N,/sync*%
X94615000Y-128125000D03*
%TO.P,J1,4,Pin_4*%
%TO.N,/SD_LR*%
X94615000Y-123925000D03*
%TD*%
D13*
%TO.P,H3,1*%
%TO.N,N/C*%
X161925000Y-144145000D03*
%TD*%
D10*
%TO.P,C2,1*%
%TO.N,/L+*%
X102848000Y-126405000D03*
%TO.P,C2,2*%
%TO.N,Net-(IC1-LINP)*%
X102848000Y-131405000D03*
%TD*%
D13*
%TO.P,H6,1*%
%TO.N,N/C*%
X116205000Y-135001000D03*
%TD*%
D10*
%TO.P,C17,1*%
%TO.N,GND*%
X157400000Y-95885000D03*
%TO.P,C17,2*%
%TO.N,Net-(J3-Pin_1)*%
X152400000Y-95885000D03*
%TD*%
%TO.P,C1,1*%
%TO.N,/R+*%
X102870000Y-100965000D03*
%TO.P,C1,2*%
%TO.N,Net-(IC1-RINP)*%
X102870000Y-105965000D03*
%TD*%
D14*
%TO.P,J4,1,Pin_1*%
%TO.N,Net-(J4-Pin_1)*%
X162560000Y-127000000D03*
D15*
%TO.P,J4,2,Pin_2*%
%TO.N,Net-(J4-Pin_2)*%
X162560000Y-132400000D03*
%TD*%
D13*
%TO.P,H2,1*%
%TO.N,N/C*%
X95885000Y-144145000D03*
%TD*%
D10*
%TO.P,C20,1*%
%TO.N,Net-(J4-Pin_2)*%
X152400000Y-136525000D03*
%TO.P,C20,2*%
%TO.N,GND*%
X157400000Y-136525000D03*
%TD*%
D14*
%TO.P,J3,1,Pin_1*%
%TO.N,Net-(J3-Pin_1)*%
X162560000Y-107630000D03*
D15*
%TO.P,J3,2,Pin_2*%
%TO.N,Net-(J3-Pin_2)*%
X162560000Y-113030000D03*
%TD*%
D11*
%TO.P,J2,1,Pin_1*%
%TO.N,/L-*%
X94615000Y-116105000D03*
D12*
%TO.P,J2,2,Pin_2*%
%TO.N,/L+*%
X94615000Y-111905000D03*
%TO.P,J2,3,Pin_3*%
%TO.N,/R-*%
X94615000Y-107705000D03*
%TO.P,J2,4,Pin_4*%
%TO.N,/R+*%
X94615000Y-103505000D03*
%TD*%
D16*
%TO.P,J6,1,Pin_1*%
%TO.N,GND*%
X127315000Y-144780000D03*
D15*
%TO.P,J6,2,Pin_2*%
%TO.N,VCC*%
X132715000Y-144780000D03*
%TD*%
D13*
%TO.P,H1,1*%
%TO.N,N/C*%
X95885000Y-95885000D03*
%TD*%
D16*
%TO.P,J5,1,Pin_1*%
%TO.N,GND*%
X127315000Y-95250000D03*
D15*
%TO.P,J5,2,Pin_2*%
%TO.N,VCC*%
X132715000Y-95250000D03*
%TD*%
D13*
%TO.P,H5,1*%
%TO.N,N/C*%
X116227000Y-105029000D03*
%TD*%
D17*
%TO.P,C15,1*%
%TO.N,VCC*%
X129215000Y-105410000D03*
D18*
%TO.P,C15,2*%
%TO.N,GND*%
X134215000Y-105410000D03*
%TD*%
D13*
%TO.P,H4,1*%
%TO.N,N/C*%
X161925000Y-95885000D03*
%TD*%
D10*
%TO.P,C3,1*%
%TO.N,/R-*%
X102870000Y-108585000D03*
%TO.P,C3,2*%
%TO.N,Net-(IC1-RINN)*%
X102870000Y-113585000D03*
%TD*%
%TO.P,C18,1*%
%TO.N,Net-(J3-Pin_2)*%
X152440000Y-109220000D03*
%TO.P,C18,2*%
%TO.N,GND*%
X157440000Y-109220000D03*
%TD*%
D17*
%TO.P,C16,1*%
%TO.N,VCC*%
X129215000Y-134620000D03*
D18*
%TO.P,C16,2*%
%TO.N,GND*%
X134215000Y-134620000D03*
%TD*%
D10*
%TO.P,C19,1*%
%TO.N,GND*%
X157400000Y-123190000D03*
%TO.P,C19,2*%
%TO.N,Net-(J4-Pin_1)*%
X152400000Y-123190000D03*
%TD*%
D19*
%TO.N,GND*%
X114300000Y-113665000D03*
X145415000Y-112395000D03*
X116840000Y-125095000D03*
X101600000Y-115570000D03*
X145415000Y-101600000D03*
X146685000Y-134620000D03*
X109855000Y-99060000D03*
X102235000Y-123190000D03*
X147955000Y-117475000D03*
X115570000Y-114935000D03*
X99060000Y-115570000D03*
X113030000Y-113665000D03*
X139065000Y-117475000D03*
X113665000Y-95250000D03*
X149225000Y-122555000D03*
X125095000Y-140970000D03*
X145415000Y-97790000D03*
X114300000Y-109855000D03*
X114300000Y-114935000D03*
X145415000Y-128905000D03*
X145415000Y-134620000D03*
X113665000Y-140970000D03*
X116840000Y-122555000D03*
X114300000Y-112395000D03*
X145415000Y-96520000D03*
X113030000Y-130175000D03*
X115570000Y-123825000D03*
X114300000Y-117475000D03*
X113665000Y-99060000D03*
X146685000Y-122555000D03*
X147955000Y-95250000D03*
X145415000Y-135890000D03*
X145415000Y-116205000D03*
X117475000Y-144780000D03*
X116840000Y-116205000D03*
X146685000Y-131445000D03*
X100330000Y-116840000D03*
X121285000Y-144780000D03*
X145415000Y-137160000D03*
X103505000Y-124460000D03*
X113030000Y-126365000D03*
X145415000Y-99060000D03*
X114300000Y-128905000D03*
X145415000Y-114935000D03*
X145415000Y-125095000D03*
X145415000Y-139700000D03*
X113030000Y-111125000D03*
X115570000Y-125095000D03*
X145415000Y-102870000D03*
X111760000Y-135890000D03*
X145415000Y-131445000D03*
X117475000Y-95250000D03*
X145415000Y-126365000D03*
X147955000Y-134620000D03*
X116840000Y-117475000D03*
X145415000Y-104140000D03*
X114300000Y-116205000D03*
X113665000Y-144780000D03*
X149225000Y-104140000D03*
X100330000Y-115570000D03*
X113030000Y-127635000D03*
X114300000Y-111125000D03*
X106045000Y-144780000D03*
X118110000Y-122555000D03*
X100965000Y-123190000D03*
X113030000Y-128905000D03*
X145415000Y-117475000D03*
X104775000Y-124460000D03*
X147955000Y-144780000D03*
X146685000Y-104140000D03*
X149225000Y-117475000D03*
X118110000Y-116205000D03*
X146685000Y-117475000D03*
X146685000Y-95250000D03*
X106045000Y-95250000D03*
X114300000Y-122555000D03*
X118110000Y-114935000D03*
X145415000Y-144780000D03*
X145415000Y-100330000D03*
X149225000Y-108585000D03*
X145415000Y-123825000D03*
X109855000Y-102870000D03*
X109855000Y-95250000D03*
X147955000Y-131445000D03*
X149225000Y-131445000D03*
X107950000Y-135890000D03*
X145415000Y-138430000D03*
X145415000Y-95250000D03*
X114300000Y-123825000D03*
X149225000Y-134620000D03*
X103505000Y-123190000D03*
X117475000Y-99060000D03*
X113030000Y-112395000D03*
X121285000Y-140970000D03*
X146685000Y-108585000D03*
X102870000Y-116840000D03*
X149225000Y-95250000D03*
X149225000Y-144780000D03*
X117475000Y-140970000D03*
X125095000Y-99060000D03*
X145415000Y-142240000D03*
X121285000Y-137160000D03*
X115570000Y-117475000D03*
X101600000Y-116840000D03*
X145415000Y-122555000D03*
X118110000Y-123825000D03*
X139065000Y-122555000D03*
X115570000Y-122555000D03*
X109855000Y-144780000D03*
X121285000Y-102870000D03*
X145415000Y-130175000D03*
X102235000Y-124460000D03*
X116840000Y-123825000D03*
X145415000Y-140970000D03*
X147955000Y-122555000D03*
X121285000Y-95250000D03*
X147955000Y-104140000D03*
X145415000Y-113665000D03*
X116840000Y-114935000D03*
X145415000Y-127635000D03*
X145415000Y-109855000D03*
X115570000Y-116205000D03*
X121285000Y-99060000D03*
X147955000Y-108585000D03*
X114300000Y-125095000D03*
X146685000Y-144780000D03*
X118110000Y-125095000D03*
X114300000Y-126365000D03*
X114300000Y-127635000D03*
X113030000Y-109855000D03*
X118110000Y-117475000D03*
X145415000Y-111125000D03*
X145415000Y-108585000D03*
X145415000Y-143510000D03*
%TO.N,VCC*%
X128905000Y-101600000D03*
X122555000Y-130810000D03*
X121285000Y-130810000D03*
X121285000Y-127000000D03*
X121285000Y-111760000D03*
X130175000Y-138430000D03*
X130175000Y-102870000D03*
X122555000Y-113030000D03*
X122555000Y-127000000D03*
X121285000Y-128270000D03*
X128905000Y-137160000D03*
X122555000Y-110490000D03*
X128905000Y-138430000D03*
X122555000Y-111760000D03*
X121285000Y-113030000D03*
X128905000Y-102870000D03*
X130175000Y-101600000D03*
X121285000Y-110490000D03*
X122555000Y-109220000D03*
X122555000Y-128270000D03*
X122555000Y-129540000D03*
X121285000Y-129540000D03*
X121285000Y-109220000D03*
X130175000Y-137160000D03*
%TO.N,/SD_LR*%
X107950000Y-111544997D03*
X107950000Y-112395000D03*
%TO.N,/mute*%
X109855000Y-132080000D03*
X110490000Y-132715000D03*
%TO.N,/sync*%
X110490000Y-128905000D03*
X109855000Y-128270000D03*
%TD*%
D20*
%TO.N,/SD_LR*%
X107950000Y-112395000D02*
X107950000Y-111544997D01*
X107950000Y-112395000D02*
X107950000Y-113919000D01*
X97944000Y-123925000D02*
X94615000Y-123925000D01*
X107950000Y-113919000D02*
X97944000Y-123925000D01*
%TO.N,/mute*%
X109855000Y-132080000D02*
X110490000Y-132715000D01*
X98130000Y-128810000D02*
X94615000Y-132325000D01*
X109855000Y-132080000D02*
X106585000Y-128810000D01*
X106585000Y-128810000D02*
X98130000Y-128810000D01*
%TO.N,/sync*%
X109855000Y-128270000D02*
X110490000Y-128905000D01*
X109855000Y-128270000D02*
X94760000Y-128270000D01*
X94760000Y-128270000D02*
X94615000Y-128125000D01*
%TD*%
%TA.AperFunction,Conductor*%
%TO.N,VCC*%
G36*
X124219530Y-126366061D02*
G01*
X124277244Y-126373659D01*
X124350579Y-126383314D01*
X124381842Y-126391691D01*
X124496391Y-126439138D01*
X124524422Y-126455322D01*
X124629289Y-126535789D01*
X124641484Y-126546484D01*
X131263515Y-133168515D01*
X131274210Y-133180710D01*
X131354677Y-133285577D01*
X131370862Y-133313610D01*
X131418307Y-133428153D01*
X131426685Y-133459420D01*
X131443939Y-133590469D01*
X131445000Y-133606655D01*
X131445000Y-138456872D01*
X131443939Y-138473058D01*
X131426685Y-138604107D01*
X131418307Y-138635374D01*
X131370862Y-138749917D01*
X131354677Y-138777950D01*
X131279202Y-138876312D01*
X131256312Y-138899202D01*
X131157950Y-138974677D01*
X131129917Y-138990862D01*
X131015374Y-139038307D01*
X130984107Y-139046685D01*
X130853059Y-139063939D01*
X130836873Y-139065000D01*
X128526655Y-139065000D01*
X128510469Y-139063939D01*
X128379420Y-139046685D01*
X128348153Y-139038307D01*
X128233610Y-138990862D01*
X128205577Y-138974677D01*
X128100710Y-138894210D01*
X128088515Y-138883515D01*
X124872844Y-135667844D01*
X127715000Y-135667844D01*
X127721401Y-135727372D01*
X127721403Y-135727379D01*
X127771645Y-135862086D01*
X127771649Y-135862093D01*
X127857809Y-135977187D01*
X127857812Y-135977190D01*
X127972906Y-136063350D01*
X127972913Y-136063354D01*
X128107620Y-136113596D01*
X128107627Y-136113598D01*
X128167155Y-136119999D01*
X128167172Y-136120000D01*
X128865000Y-136120000D01*
X128865000Y-134978318D01*
X128941900Y-135044952D01*
X129072685Y-135104680D01*
X129179237Y-135120000D01*
X129250763Y-135120000D01*
X129357315Y-135104680D01*
X129488100Y-135044952D01*
X129565000Y-134978318D01*
X129565000Y-136120000D01*
X130262828Y-136120000D01*
X130262844Y-136119999D01*
X130322372Y-136113598D01*
X130322379Y-136113596D01*
X130457086Y-136063354D01*
X130457093Y-136063350D01*
X130572187Y-135977190D01*
X130572190Y-135977187D01*
X130658350Y-135862093D01*
X130658354Y-135862086D01*
X130708596Y-135727379D01*
X130708598Y-135727372D01*
X130714999Y-135667844D01*
X130715000Y-135667827D01*
X130715000Y-134970000D01*
X129574600Y-134970000D01*
X129596761Y-134950798D01*
X129674493Y-134829844D01*
X129715000Y-134691889D01*
X129715000Y-134548111D01*
X129674493Y-134410156D01*
X129596761Y-134289202D01*
X129574600Y-134270000D01*
X130715000Y-134270000D01*
X130715000Y-133572172D01*
X130714999Y-133572155D01*
X130708598Y-133512627D01*
X130708596Y-133512620D01*
X130658354Y-133377913D01*
X130658350Y-133377906D01*
X130572190Y-133262812D01*
X130572187Y-133262809D01*
X130457093Y-133176649D01*
X130457086Y-133176645D01*
X130322379Y-133126403D01*
X130322372Y-133126401D01*
X130262844Y-133120000D01*
X129565000Y-133120000D01*
X129565000Y-134261681D01*
X129488100Y-134195048D01*
X129357315Y-134135320D01*
X129250763Y-134120000D01*
X129179237Y-134120000D01*
X129072685Y-134135320D01*
X128941900Y-134195048D01*
X128865000Y-134261681D01*
X128865000Y-133120000D01*
X128167155Y-133120000D01*
X128107627Y-133126401D01*
X128107620Y-133126403D01*
X127972913Y-133176645D01*
X127972906Y-133176649D01*
X127857812Y-133262809D01*
X127857809Y-133262812D01*
X127771649Y-133377906D01*
X127771645Y-133377913D01*
X127721403Y-133512620D01*
X127721401Y-133512627D01*
X127715000Y-133572155D01*
X127715000Y-134270000D01*
X128855400Y-134270000D01*
X128833239Y-134289202D01*
X128755507Y-134410156D01*
X128715000Y-134548111D01*
X128715000Y-134691889D01*
X128755507Y-134829844D01*
X128833239Y-134950798D01*
X128855400Y-134970000D01*
X127715000Y-134970000D01*
X127715000Y-135667844D01*
X124872844Y-135667844D01*
X120831484Y-131626484D01*
X120820789Y-131614289D01*
X120740322Y-131509422D01*
X120724137Y-131481389D01*
X120676691Y-131366842D01*
X120668314Y-131335578D01*
X120651061Y-131204529D01*
X120650000Y-131188344D01*
X120650000Y-126973127D01*
X120651061Y-126956942D01*
X120668314Y-126825893D01*
X120676690Y-126794631D01*
X120724140Y-126680076D01*
X120740320Y-126652052D01*
X120815802Y-126553681D01*
X120838681Y-126530802D01*
X120937052Y-126455320D01*
X120965076Y-126439140D01*
X121079631Y-126391690D01*
X121110890Y-126383314D01*
X121203513Y-126371120D01*
X121241942Y-126366061D01*
X121258127Y-126365000D01*
X124203345Y-126365000D01*
X124219530Y-126366061D01*
G37*
%TD.AperFunction*%
%TD*%
%TA.AperFunction,Conductor*%
%TO.N,VCC*%
G36*
X130853058Y-100966061D02*
G01*
X130910772Y-100973659D01*
X130984107Y-100983314D01*
X131015370Y-100991691D01*
X131129919Y-101039138D01*
X131157950Y-101055322D01*
X131256314Y-101130799D01*
X131279202Y-101153687D01*
X131354677Y-101252049D01*
X131370862Y-101280082D01*
X131418307Y-101394625D01*
X131426685Y-101425892D01*
X131443939Y-101556941D01*
X131445000Y-101573127D01*
X131445000Y-106423344D01*
X131443939Y-106439530D01*
X131426685Y-106570579D01*
X131418307Y-106601846D01*
X131370862Y-106716389D01*
X131354677Y-106744422D01*
X131274210Y-106849289D01*
X131263515Y-106861484D01*
X124641484Y-113483515D01*
X124629289Y-113494210D01*
X124524422Y-113574677D01*
X124496389Y-113590862D01*
X124381846Y-113638307D01*
X124350579Y-113646685D01*
X124219531Y-113663939D01*
X124203345Y-113665000D01*
X121258127Y-113665000D01*
X121241941Y-113663939D01*
X121110892Y-113646685D01*
X121079625Y-113638307D01*
X120965082Y-113590862D01*
X120937049Y-113574677D01*
X120838687Y-113499202D01*
X120815799Y-113476314D01*
X120740322Y-113377950D01*
X120724137Y-113349917D01*
X120676691Y-113235370D01*
X120668314Y-113204106D01*
X120651061Y-113073057D01*
X120650000Y-113056872D01*
X120650000Y-108841655D01*
X120651061Y-108825470D01*
X120668314Y-108694421D01*
X120676690Y-108663159D01*
X120724140Y-108548604D01*
X120740320Y-108520580D01*
X120820795Y-108415702D01*
X120831476Y-108403523D01*
X122777155Y-106457844D01*
X127715000Y-106457844D01*
X127721401Y-106517372D01*
X127721403Y-106517379D01*
X127771645Y-106652086D01*
X127771649Y-106652093D01*
X127857809Y-106767187D01*
X127857812Y-106767190D01*
X127972906Y-106853350D01*
X127972913Y-106853354D01*
X128107620Y-106903596D01*
X128107627Y-106903598D01*
X128167155Y-106909999D01*
X128167172Y-106910000D01*
X128865000Y-106910000D01*
X128865000Y-105768318D01*
X128941900Y-105834952D01*
X129072685Y-105894680D01*
X129179237Y-105910000D01*
X129250763Y-105910000D01*
X129357315Y-105894680D01*
X129488100Y-105834952D01*
X129565000Y-105768318D01*
X129565000Y-106910000D01*
X130262828Y-106910000D01*
X130262844Y-106909999D01*
X130322372Y-106903598D01*
X130322379Y-106903596D01*
X130457086Y-106853354D01*
X130457093Y-106853350D01*
X130572187Y-106767190D01*
X130572190Y-106767187D01*
X130658350Y-106652093D01*
X130658354Y-106652086D01*
X130708596Y-106517379D01*
X130708598Y-106517372D01*
X130714999Y-106457844D01*
X130715000Y-106457827D01*
X130715000Y-105760000D01*
X129574600Y-105760000D01*
X129596761Y-105740798D01*
X129674493Y-105619844D01*
X129715000Y-105481889D01*
X129715000Y-105338111D01*
X129674493Y-105200156D01*
X129596761Y-105079202D01*
X129574600Y-105060000D01*
X130715000Y-105060000D01*
X130715000Y-104362172D01*
X130714999Y-104362155D01*
X130708598Y-104302627D01*
X130708596Y-104302620D01*
X130658354Y-104167913D01*
X130658350Y-104167906D01*
X130572190Y-104052812D01*
X130572187Y-104052809D01*
X130457093Y-103966649D01*
X130457086Y-103966645D01*
X130322379Y-103916403D01*
X130322372Y-103916401D01*
X130262844Y-103910000D01*
X129565000Y-103910000D01*
X129565000Y-105051681D01*
X129488100Y-104985048D01*
X129357315Y-104925320D01*
X129250763Y-104910000D01*
X129179237Y-104910000D01*
X129072685Y-104925320D01*
X128941900Y-104985048D01*
X128865000Y-105051681D01*
X128865000Y-103910000D01*
X128167155Y-103910000D01*
X128107627Y-103916401D01*
X128107620Y-103916403D01*
X127972913Y-103966645D01*
X127972906Y-103966649D01*
X127857812Y-104052809D01*
X127857809Y-104052812D01*
X127771649Y-104167906D01*
X127771645Y-104167913D01*
X127721403Y-104302620D01*
X127721401Y-104302627D01*
X127715000Y-104362155D01*
X127715000Y-105060000D01*
X128855400Y-105060000D01*
X128833239Y-105079202D01*
X128755507Y-105200156D01*
X128715000Y-105338111D01*
X128715000Y-105481889D01*
X128755507Y-105619844D01*
X128833239Y-105740798D01*
X128855400Y-105760000D01*
X127715000Y-105760000D01*
X127715000Y-106457844D01*
X122777155Y-106457844D01*
X128088523Y-101146476D01*
X128100702Y-101135795D01*
X128205580Y-101055320D01*
X128233604Y-101039140D01*
X128348159Y-100991690D01*
X128379418Y-100983314D01*
X128472041Y-100971120D01*
X128510470Y-100966061D01*
X128526655Y-100965000D01*
X130836873Y-100965000D01*
X130853058Y-100966061D01*
G37*
%TD.AperFunction*%
%TD*%
%TA.AperFunction,Conductor*%
%TO.N,GND*%
G36*
X125835221Y-93080185D02*
G01*
X125880976Y-93132989D01*
X125890920Y-93202147D01*
X125861895Y-93265703D01*
X125809137Y-93301541D01*
X125750334Y-93322117D01*
X125602890Y-93414762D01*
X125479762Y-93537890D01*
X125387118Y-93685332D01*
X125329606Y-93849693D01*
X125329605Y-93849698D01*
X125315000Y-93979328D01*
X125315000Y-94900000D01*
X126512556Y-94900000D01*
X126466922Y-95014532D01*
X126436131Y-95202349D01*
X126446435Y-95392394D01*
X126497352Y-95575781D01*
X126510192Y-95600000D01*
X125315001Y-95600000D01*
X125315001Y-96520672D01*
X125329605Y-96650303D01*
X125329608Y-96650316D01*
X125387117Y-96814665D01*
X125479762Y-96962109D01*
X125602890Y-97085237D01*
X125750332Y-97177881D01*
X125914693Y-97235393D01*
X125914698Y-97235394D01*
X126044330Y-97249999D01*
X126964999Y-97249999D01*
X126965000Y-97249998D01*
X126965000Y-96052179D01*
X127033964Y-96084086D01*
X127219838Y-96125000D01*
X127362445Y-96125000D01*
X127504208Y-96109582D01*
X127665000Y-96055405D01*
X127665000Y-97249999D01*
X128585665Y-97249999D01*
X128585672Y-97249998D01*
X128715303Y-97235394D01*
X128715316Y-97235391D01*
X128879665Y-97177882D01*
X129027109Y-97085237D01*
X129150237Y-96962109D01*
X129242881Y-96814667D01*
X129300393Y-96650306D01*
X129300394Y-96650301D01*
X129314999Y-96520671D01*
X129315000Y-96520667D01*
X129315000Y-95600000D01*
X128117444Y-95600000D01*
X128163078Y-95485468D01*
X128193869Y-95297651D01*
X128191285Y-95250001D01*
X130809645Y-95250001D01*
X130829039Y-95521160D01*
X130829040Y-95521167D01*
X130886823Y-95786793D01*
X130886825Y-95786801D01*
X130947952Y-95950689D01*
X130981830Y-96041519D01*
X131112109Y-96280107D01*
X131112110Y-96280108D01*
X131112113Y-96280113D01*
X131275029Y-96497742D01*
X131275033Y-96497746D01*
X131275038Y-96497752D01*
X131467247Y-96689961D01*
X131467253Y-96689966D01*
X131467258Y-96689971D01*
X131684887Y-96852887D01*
X131684891Y-96852889D01*
X131684892Y-96852890D01*
X131923481Y-96983169D01*
X131923480Y-96983169D01*
X131923484Y-96983170D01*
X131923487Y-96983172D01*
X132178199Y-97078175D01*
X132443840Y-97135961D01*
X132695605Y-97153967D01*
X132714999Y-97155355D01*
X132715000Y-97155355D01*
X132715001Y-97155355D01*
X132733100Y-97154060D01*
X132986160Y-97135961D01*
X133251801Y-97078175D01*
X133506513Y-96983172D01*
X133506517Y-96983169D01*
X133506519Y-96983169D01*
X133625813Y-96918029D01*
X133745113Y-96852887D01*
X133962742Y-96689971D01*
X134154971Y-96497742D01*
X134317887Y-96280113D01*
X134412667Y-96106536D01*
X134448169Y-96041519D01*
X134448169Y-96041517D01*
X134448172Y-96041513D01*
X134506549Y-95885000D01*
X151194357Y-95885000D01*
X151214884Y-96106535D01*
X151214885Y-96106537D01*
X151275769Y-96320523D01*
X151275775Y-96320538D01*
X151374938Y-96519683D01*
X151374943Y-96519691D01*
X151509020Y-96697238D01*
X151673437Y-96847123D01*
X151673439Y-96847125D01*
X151862595Y-96964245D01*
X151862596Y-96964245D01*
X151862599Y-96964247D01*
X152070060Y-97044618D01*
X152288757Y-97085500D01*
X152288759Y-97085500D01*
X152511241Y-97085500D01*
X152511243Y-97085500D01*
X152729940Y-97044618D01*
X152791829Y-97020642D01*
X156759331Y-97020642D01*
X156953673Y-97111265D01*
X156953682Y-97111269D01*
X157173389Y-97170139D01*
X157173400Y-97170141D01*
X157399998Y-97189966D01*
X157400002Y-97189966D01*
X157626599Y-97170141D01*
X157626610Y-97170139D01*
X157846317Y-97111269D01*
X157846326Y-97111265D01*
X158040668Y-97020642D01*
X157400001Y-96379975D01*
X157400000Y-96379975D01*
X156759331Y-97020642D01*
X152791829Y-97020642D01*
X152937401Y-96964247D01*
X153126562Y-96847124D01*
X153290981Y-96697236D01*
X153425058Y-96519689D01*
X153524229Y-96320528D01*
X153585115Y-96106536D01*
X153605643Y-95885002D01*
X156095034Y-95885002D01*
X156114858Y-96111599D01*
X156114860Y-96111610D01*
X156173730Y-96331317D01*
X156173735Y-96331331D01*
X156264355Y-96525668D01*
X156264356Y-96525668D01*
X156905025Y-95885000D01*
X156995014Y-95885000D01*
X157014835Y-96010148D01*
X157072359Y-96123045D01*
X157161955Y-96212641D01*
X157274852Y-96270165D01*
X157368519Y-96285000D01*
X157431481Y-96285000D01*
X157525148Y-96270165D01*
X157638045Y-96212641D01*
X157727641Y-96123045D01*
X157785165Y-96010148D01*
X157804986Y-95885000D01*
X157785165Y-95759852D01*
X157727641Y-95646955D01*
X157638045Y-95557359D01*
X157525148Y-95499835D01*
X157431481Y-95485000D01*
X157368519Y-95485000D01*
X157274852Y-95499835D01*
X157161955Y-95557359D01*
X157072359Y-95646955D01*
X157014835Y-95759852D01*
X156995014Y-95885000D01*
X156905025Y-95885000D01*
X156905025Y-95884999D01*
X156264355Y-95244330D01*
X156173735Y-95438668D01*
X156173730Y-95438682D01*
X156114860Y-95658389D01*
X156114858Y-95658400D01*
X156095034Y-95884997D01*
X156095034Y-95885002D01*
X153605643Y-95885002D01*
X153605643Y-95885000D01*
X153585115Y-95663464D01*
X153524229Y-95449472D01*
X153524224Y-95449461D01*
X153425061Y-95250316D01*
X153425056Y-95250308D01*
X153290979Y-95072761D01*
X153126562Y-94922876D01*
X153126560Y-94922874D01*
X152937404Y-94805754D01*
X152937398Y-94805752D01*
X152791821Y-94749355D01*
X156759330Y-94749355D01*
X157400000Y-95390025D01*
X157400001Y-95390025D01*
X158040668Y-94749356D01*
X158040668Y-94749355D01*
X157846331Y-94658735D01*
X157846317Y-94658730D01*
X157626610Y-94599860D01*
X157626599Y-94599858D01*
X157400002Y-94580034D01*
X157399998Y-94580034D01*
X157173400Y-94599858D01*
X157173389Y-94599860D01*
X156953682Y-94658730D01*
X156953668Y-94658735D01*
X156759330Y-94749355D01*
X152791821Y-94749355D01*
X152729940Y-94725382D01*
X152511243Y-94684500D01*
X152288757Y-94684500D01*
X152070060Y-94725382D01*
X151990856Y-94756066D01*
X151862601Y-94805752D01*
X151862595Y-94805754D01*
X151673439Y-94922874D01*
X151673437Y-94922876D01*
X151509020Y-95072761D01*
X151374943Y-95250308D01*
X151374938Y-95250316D01*
X151275775Y-95449461D01*
X151275769Y-95449476D01*
X151214885Y-95663462D01*
X151214884Y-95663464D01*
X151194357Y-95884999D01*
X151194357Y-95885000D01*
X134506549Y-95885000D01*
X134543175Y-95786801D01*
X134600961Y-95521160D01*
X134620355Y-95250000D01*
X134619949Y-95244330D01*
X134613895Y-95159685D01*
X134600961Y-94978840D01*
X134543175Y-94713199D01*
X134448172Y-94458487D01*
X134448170Y-94458484D01*
X134448169Y-94458480D01*
X134317890Y-94219892D01*
X134317889Y-94219891D01*
X134317887Y-94219887D01*
X134154971Y-94002258D01*
X134154966Y-94002253D01*
X134154961Y-94002247D01*
X133962752Y-93810038D01*
X133962746Y-93810033D01*
X133962742Y-93810029D01*
X133745113Y-93647113D01*
X133745108Y-93647110D01*
X133745107Y-93647109D01*
X133506518Y-93516830D01*
X133506519Y-93516830D01*
X133456920Y-93498330D01*
X133251801Y-93421825D01*
X133251794Y-93421823D01*
X133251793Y-93421823D01*
X132986167Y-93364040D01*
X132986160Y-93364039D01*
X132715001Y-93344645D01*
X132714999Y-93344645D01*
X132443839Y-93364039D01*
X132443832Y-93364040D01*
X132178206Y-93421823D01*
X132178202Y-93421824D01*
X132178199Y-93421825D01*
X132050843Y-93469326D01*
X131923480Y-93516830D01*
X131684892Y-93647109D01*
X131684891Y-93647110D01*
X131467259Y-93810028D01*
X131467247Y-93810038D01*
X131275038Y-94002247D01*
X131275028Y-94002259D01*
X131112110Y-94219891D01*
X131112109Y-94219892D01*
X130981830Y-94458480D01*
X130967415Y-94497129D01*
X130886825Y-94713199D01*
X130886824Y-94713202D01*
X130886823Y-94713206D01*
X130829040Y-94978832D01*
X130829039Y-94978839D01*
X130809645Y-95249998D01*
X130809645Y-95250001D01*
X128191285Y-95250001D01*
X128183565Y-95107606D01*
X128132648Y-94924219D01*
X128119808Y-94900000D01*
X129314999Y-94900000D01*
X129314999Y-93979335D01*
X129314998Y-93979327D01*
X129300394Y-93849696D01*
X129300391Y-93849683D01*
X129242882Y-93685334D01*
X129150237Y-93537890D01*
X129027109Y-93414762D01*
X128879667Y-93322118D01*
X128820863Y-93301542D01*
X128764086Y-93260820D01*
X128738339Y-93195867D01*
X128751795Y-93127306D01*
X128800182Y-93076903D01*
X128861817Y-93060500D01*
X159818745Y-93060500D01*
X159885784Y-93080185D01*
X159931539Y-93132989D01*
X159941483Y-93202147D01*
X159912458Y-93265703D01*
X159893786Y-93283216D01*
X159785172Y-93365781D01*
X159785163Y-93365789D01*
X159525331Y-93611914D01*
X159293641Y-93884680D01*
X159293634Y-93884690D01*
X159092790Y-94180913D01*
X159092784Y-94180922D01*
X158925151Y-94497111D01*
X158925142Y-94497129D01*
X158792674Y-94829600D01*
X158792672Y-94829607D01*
X158701027Y-95159685D01*
X158664125Y-95219015D01*
X158601005Y-95248976D01*
X158560015Y-95248628D01*
X158535643Y-95244330D01*
X157894975Y-95884999D01*
X157894975Y-95885000D01*
X158535642Y-96525667D01*
X158560013Y-96521370D01*
X158629452Y-96529114D01*
X158683681Y-96573170D01*
X158701026Y-96610312D01*
X158792673Y-96940397D01*
X158792674Y-96940399D01*
X158925142Y-97272870D01*
X158925151Y-97272888D01*
X159092784Y-97589077D01*
X159092787Y-97589082D01*
X159092789Y-97589085D01*
X159291840Y-97882664D01*
X159293634Y-97885309D01*
X159293641Y-97885319D01*
X159525331Y-98158085D01*
X159525332Y-98158086D01*
X159785163Y-98404211D01*
X160070081Y-98620800D01*
X160376747Y-98805315D01*
X160376749Y-98805316D01*
X160376751Y-98805317D01*
X160376755Y-98805319D01*
X160701552Y-98955585D01*
X160701565Y-98955591D01*
X161040726Y-99069868D01*
X161390254Y-99146805D01*
X161746052Y-99185500D01*
X161746058Y-99185500D01*
X162103942Y-99185500D01*
X162103948Y-99185500D01*
X162459746Y-99146805D01*
X162809274Y-99069868D01*
X163148435Y-98955591D01*
X163473253Y-98805315D01*
X163779919Y-98620800D01*
X164064837Y-98404211D01*
X164324668Y-98158086D01*
X164530992Y-97915181D01*
X164589395Y-97876831D01*
X164659261Y-97876143D01*
X164718409Y-97913336D01*
X164748058Y-97976603D01*
X164749500Y-97995458D01*
X164749500Y-142034541D01*
X164729815Y-142101580D01*
X164677011Y-142147335D01*
X164607853Y-142157279D01*
X164544297Y-142128254D01*
X164530992Y-142114817D01*
X164324668Y-141871914D01*
X164064837Y-141625789D01*
X164064830Y-141625783D01*
X164064827Y-141625781D01*
X163997245Y-141574407D01*
X163779919Y-141409200D01*
X163473253Y-141224685D01*
X163473252Y-141224684D01*
X163473248Y-141224682D01*
X163473244Y-141224680D01*
X163148447Y-141074414D01*
X163148441Y-141074411D01*
X163148435Y-141074409D01*
X162978854Y-141017270D01*
X162809273Y-140960131D01*
X162459744Y-140883194D01*
X162103949Y-140844500D01*
X162103948Y-140844500D01*
X161746052Y-140844500D01*
X161746050Y-140844500D01*
X161390255Y-140883194D01*
X161040726Y-140960131D01*
X160784970Y-141046306D01*
X160701565Y-141074409D01*
X160701563Y-141074410D01*
X160701552Y-141074414D01*
X160376755Y-141224680D01*
X160376751Y-141224682D01*
X160148367Y-141362096D01*
X160070081Y-141409200D01*
X159981768Y-141476333D01*
X159785172Y-141625781D01*
X159785163Y-141625789D01*
X159525331Y-141871914D01*
X159293641Y-142144680D01*
X159293634Y-142144690D01*
X159092790Y-142440913D01*
X159092784Y-142440922D01*
X158925151Y-142757111D01*
X158925142Y-142757129D01*
X158792674Y-143089600D01*
X158792672Y-143089607D01*
X158696932Y-143434434D01*
X158696926Y-143434460D01*
X158639029Y-143787614D01*
X158639028Y-143787631D01*
X158619652Y-144144997D01*
X158619652Y-144145002D01*
X158639028Y-144502368D01*
X158639029Y-144502385D01*
X158696926Y-144855539D01*
X158696932Y-144855565D01*
X158792672Y-145200392D01*
X158792674Y-145200399D01*
X158925142Y-145532870D01*
X158925151Y-145532888D01*
X159092784Y-145849077D01*
X159092787Y-145849082D01*
X159092789Y-145849085D01*
X159291840Y-146142664D01*
X159293634Y-146145309D01*
X159293641Y-146145319D01*
X159495435Y-146382889D01*
X159525332Y-146418086D01*
X159785163Y-146664211D01*
X159785170Y-146664216D01*
X159785172Y-146664218D01*
X159893786Y-146746784D01*
X159935244Y-146803025D01*
X159939713Y-146872752D01*
X159905776Y-146933826D01*
X159844208Y-146966858D01*
X159818745Y-146969500D01*
X128861818Y-146969500D01*
X128794779Y-146949815D01*
X128749024Y-146897011D01*
X128739080Y-146827853D01*
X128768105Y-146764297D01*
X128820863Y-146728459D01*
X128879665Y-146707882D01*
X129027109Y-146615237D01*
X129150237Y-146492109D01*
X129242881Y-146344667D01*
X129300393Y-146180306D01*
X129300394Y-146180301D01*
X129314999Y-146050671D01*
X129315000Y-146050667D01*
X129315000Y-145130000D01*
X128117444Y-145130000D01*
X128163078Y-145015468D01*
X128193869Y-144827651D01*
X128191285Y-144780001D01*
X130809645Y-144780001D01*
X130829039Y-145051160D01*
X130829040Y-145051167D01*
X130861504Y-145200403D01*
X130886825Y-145316801D01*
X130947952Y-145480689D01*
X130981830Y-145571519D01*
X131112109Y-145810107D01*
X131112110Y-145810108D01*
X131112113Y-145810113D01*
X131275029Y-146027742D01*
X131275033Y-146027746D01*
X131275038Y-146027752D01*
X131467247Y-146219961D01*
X131467253Y-146219966D01*
X131467258Y-146219971D01*
X131684887Y-146382887D01*
X131684891Y-146382889D01*
X131684892Y-146382890D01*
X131923481Y-146513169D01*
X131923480Y-146513169D01*
X131923484Y-146513170D01*
X131923487Y-146513172D01*
X132178199Y-146608175D01*
X132443840Y-146665961D01*
X132695605Y-146683967D01*
X132714999Y-146685355D01*
X132715000Y-146685355D01*
X132715001Y-146685355D01*
X132733100Y-146684060D01*
X132986160Y-146665961D01*
X133251801Y-146608175D01*
X133506513Y-146513172D01*
X133506517Y-146513169D01*
X133506519Y-146513169D01*
X133625813Y-146448029D01*
X133745113Y-146382887D01*
X133962742Y-146219971D01*
X134154971Y-146027742D01*
X134317887Y-145810113D01*
X134411004Y-145639582D01*
X134448169Y-145571519D01*
X134448169Y-145571517D01*
X134448172Y-145571513D01*
X134543175Y-145316801D01*
X134600961Y-145051160D01*
X134620355Y-144780000D01*
X134600961Y-144508840D01*
X134543175Y-144243199D01*
X134448172Y-143988487D01*
X134448170Y-143988484D01*
X134448169Y-143988480D01*
X134317890Y-143749892D01*
X134317889Y-143749891D01*
X134317887Y-143749887D01*
X134154971Y-143532258D01*
X134154966Y-143532253D01*
X134154961Y-143532247D01*
X133962752Y-143340038D01*
X133962746Y-143340033D01*
X133962742Y-143340029D01*
X133745113Y-143177113D01*
X133745108Y-143177110D01*
X133745107Y-143177109D01*
X133506518Y-143046830D01*
X133506519Y-143046830D01*
X133456920Y-143028330D01*
X133251801Y-142951825D01*
X133251794Y-142951823D01*
X133251793Y-142951823D01*
X132986167Y-142894040D01*
X132986160Y-142894039D01*
X132715001Y-142874645D01*
X132714999Y-142874645D01*
X132443839Y-142894039D01*
X132443832Y-142894040D01*
X132178206Y-142951823D01*
X132178202Y-142951824D01*
X132178199Y-142951825D01*
X132050843Y-142999326D01*
X131923480Y-143046830D01*
X131684892Y-143177109D01*
X131684891Y-143177110D01*
X131467259Y-143340028D01*
X131467247Y-143340038D01*
X131275038Y-143532247D01*
X131275028Y-143532259D01*
X131112110Y-143749891D01*
X131112109Y-143749892D01*
X130981830Y-143988480D01*
X130967900Y-144025829D01*
X130886825Y-144243199D01*
X130886824Y-144243202D01*
X130886823Y-144243206D01*
X130829040Y-144508832D01*
X130829039Y-144508839D01*
X130809645Y-144779998D01*
X130809645Y-144780001D01*
X128191285Y-144780001D01*
X128183565Y-144637606D01*
X128132648Y-144454219D01*
X128119808Y-144430000D01*
X129314999Y-144430000D01*
X129314999Y-143509335D01*
X129314998Y-143509327D01*
X129300394Y-143379696D01*
X129300391Y-143379683D01*
X129242882Y-143215334D01*
X129150237Y-143067890D01*
X129027109Y-142944762D01*
X128879667Y-142852118D01*
X128715306Y-142794606D01*
X128715301Y-142794605D01*
X128585671Y-142780000D01*
X127665000Y-142780000D01*
X127665000Y-143977820D01*
X127596036Y-143945914D01*
X127410162Y-143905000D01*
X127267555Y-143905000D01*
X127125792Y-143920418D01*
X126965000Y-143974594D01*
X126965000Y-142780000D01*
X126044335Y-142780000D01*
X126044327Y-142780001D01*
X125914696Y-142794605D01*
X125914683Y-142794608D01*
X125750334Y-142852117D01*
X125602890Y-142944762D01*
X125479762Y-143067890D01*
X125387118Y-143215332D01*
X125329606Y-143379693D01*
X125329605Y-143379698D01*
X125315000Y-143509328D01*
X125315000Y-144430000D01*
X126512556Y-144430000D01*
X126466922Y-144544532D01*
X126436131Y-144732349D01*
X126446435Y-144922394D01*
X126497352Y-145105781D01*
X126510192Y-145130000D01*
X125315001Y-145130000D01*
X125315001Y-146050672D01*
X125329605Y-146180303D01*
X125329608Y-146180316D01*
X125387117Y-146344665D01*
X125479762Y-146492109D01*
X125602890Y-146615237D01*
X125750332Y-146707881D01*
X125809137Y-146728458D01*
X125865914Y-146769180D01*
X125891661Y-146834133D01*
X125878205Y-146902694D01*
X125829818Y-146953097D01*
X125768183Y-146969500D01*
X97991255Y-146969500D01*
X97924216Y-146949815D01*
X97878461Y-146897011D01*
X97868517Y-146827853D01*
X97897542Y-146764297D01*
X97916214Y-146746784D01*
X97940320Y-146728459D01*
X98024837Y-146664211D01*
X98284668Y-146418086D01*
X98516365Y-146145311D01*
X98717211Y-145849085D01*
X98884853Y-145532880D01*
X99017324Y-145200403D01*
X99113071Y-144855552D01*
X99133269Y-144732349D01*
X99170970Y-144502385D01*
X99170970Y-144502382D01*
X99170972Y-144502371D01*
X99190348Y-144145000D01*
X99170972Y-143787629D01*
X99164785Y-143749892D01*
X99113073Y-143434460D01*
X99113072Y-143434459D01*
X99113071Y-143434448D01*
X99041622Y-143177110D01*
X99017327Y-143089607D01*
X99017325Y-143089600D01*
X98884857Y-142757129D01*
X98884848Y-142757111D01*
X98717215Y-142440922D01*
X98717213Y-142440919D01*
X98717211Y-142440915D01*
X98516365Y-142144689D01*
X98516361Y-142144684D01*
X98516358Y-142144680D01*
X98284668Y-141871914D01*
X98024837Y-141625789D01*
X98024830Y-141625783D01*
X98024827Y-141625781D01*
X97957245Y-141574407D01*
X97739919Y-141409200D01*
X97433253Y-141224685D01*
X97433252Y-141224684D01*
X97433248Y-141224682D01*
X97433244Y-141224680D01*
X97108447Y-141074414D01*
X97108441Y-141074411D01*
X97108435Y-141074409D01*
X96938854Y-141017270D01*
X96769273Y-140960131D01*
X96419744Y-140883194D01*
X96063949Y-140844500D01*
X96063948Y-140844500D01*
X95706052Y-140844500D01*
X95706050Y-140844500D01*
X95350255Y-140883194D01*
X95000726Y-140960131D01*
X94744970Y-141046306D01*
X94661565Y-141074409D01*
X94661563Y-141074410D01*
X94661552Y-141074414D01*
X94336755Y-141224680D01*
X94336751Y-141224682D01*
X94108367Y-141362096D01*
X94030081Y-141409200D01*
X93941768Y-141476333D01*
X93745172Y-141625781D01*
X93745163Y-141625789D01*
X93485331Y-141871914D01*
X93279008Y-142114817D01*
X93220605Y-142153168D01*
X93150738Y-142153856D01*
X93091591Y-142116663D01*
X93061942Y-142053396D01*
X93060500Y-142034541D01*
X93060500Y-138945000D01*
X101642357Y-138945000D01*
X101662884Y-139166535D01*
X101662885Y-139166537D01*
X101723769Y-139380523D01*
X101723775Y-139380538D01*
X101822938Y-139579683D01*
X101822943Y-139579691D01*
X101957020Y-139757238D01*
X102121437Y-139907123D01*
X102121439Y-139907125D01*
X102310595Y-140024245D01*
X102310596Y-140024245D01*
X102310599Y-140024247D01*
X102518060Y-140104618D01*
X102736757Y-140145500D01*
X102736759Y-140145500D01*
X102959241Y-140145500D01*
X102959243Y-140145500D01*
X103177940Y-140104618D01*
X103385401Y-140024247D01*
X103574562Y-139907124D01*
X103738981Y-139757236D01*
X103873058Y-139579689D01*
X103972229Y-139380528D01*
X104033115Y-139166536D01*
X104053643Y-138945000D01*
X104033115Y-138723464D01*
X103972229Y-138509472D01*
X103972224Y-138509461D01*
X103873061Y-138310316D01*
X103873056Y-138310308D01*
X103738979Y-138132761D01*
X103574562Y-137982876D01*
X103574560Y-137982874D01*
X103385404Y-137865754D01*
X103385398Y-137865752D01*
X103177940Y-137785382D01*
X102959243Y-137744500D01*
X102736757Y-137744500D01*
X102518060Y-137785382D01*
X102454155Y-137810139D01*
X102310601Y-137865752D01*
X102310595Y-137865754D01*
X102121439Y-137982874D01*
X102121437Y-137982876D01*
X101957020Y-138132761D01*
X101822943Y-138310308D01*
X101822938Y-138310316D01*
X101723775Y-138509461D01*
X101723769Y-138509476D01*
X101662885Y-138723462D01*
X101662884Y-138723464D01*
X101642357Y-138944999D01*
X101642357Y-138945000D01*
X93060500Y-138945000D01*
X93060500Y-137639984D01*
X93080185Y-137572945D01*
X93132989Y-137527190D01*
X93202147Y-137517246D01*
X93265703Y-137546271D01*
X93290039Y-137574887D01*
X93347684Y-137668345D01*
X93471654Y-137792315D01*
X93620875Y-137884356D01*
X93620880Y-137884358D01*
X93787302Y-137939505D01*
X93787309Y-137939506D01*
X93890019Y-137949999D01*
X94264999Y-137949999D01*
X94265000Y-137949998D01*
X94265000Y-136774229D01*
X94266882Y-136777923D01*
X94362077Y-136873118D01*
X94482031Y-136934238D01*
X94581549Y-136950000D01*
X94648451Y-136950000D01*
X94747969Y-136934238D01*
X94864229Y-136875000D01*
X94965000Y-136875000D01*
X94965000Y-137949999D01*
X95339972Y-137949999D01*
X95339986Y-137949998D01*
X95442697Y-137939505D01*
X95609119Y-137884358D01*
X95609124Y-137884356D01*
X95758345Y-137792315D01*
X95882315Y-137668345D01*
X95974356Y-137519124D01*
X95974358Y-137519119D01*
X96029505Y-137352697D01*
X96029506Y-137352690D01*
X96039999Y-137249986D01*
X96040000Y-137249973D01*
X96040000Y-136875000D01*
X94965000Y-136875000D01*
X94864229Y-136875000D01*
X94867923Y-136873118D01*
X94963118Y-136777923D01*
X95024238Y-136657969D01*
X95045298Y-136525000D01*
X95024238Y-136392031D01*
X94963118Y-136272077D01*
X94867923Y-136176882D01*
X94747969Y-136115762D01*
X94648451Y-136100000D01*
X94581549Y-136100000D01*
X94482031Y-136115762D01*
X94362077Y-136176882D01*
X94266882Y-136272077D01*
X94265000Y-136275770D01*
X94265000Y-135100000D01*
X94965000Y-135100000D01*
X94965000Y-136175000D01*
X96039999Y-136175000D01*
X96039999Y-135800028D01*
X96039998Y-135800013D01*
X96029505Y-135697302D01*
X95974358Y-135530880D01*
X95974356Y-135530875D01*
X95882315Y-135381654D01*
X95758345Y-135257684D01*
X95609124Y-135165643D01*
X95609119Y-135165641D01*
X95442697Y-135110494D01*
X95442690Y-135110493D01*
X95339986Y-135100000D01*
X94965000Y-135100000D01*
X94265000Y-135100000D01*
X93890028Y-135100000D01*
X93890012Y-135100001D01*
X93787302Y-135110494D01*
X93620880Y-135165641D01*
X93620875Y-135165643D01*
X93471654Y-135257684D01*
X93347683Y-135381655D01*
X93347680Y-135381659D01*
X93290038Y-135475112D01*
X93238090Y-135521837D01*
X93169128Y-135533058D01*
X93105046Y-135505215D01*
X93066190Y-135447146D01*
X93060500Y-135410015D01*
X93060500Y-133945000D01*
X101642357Y-133945000D01*
X101662884Y-134166535D01*
X101662885Y-134166537D01*
X101723769Y-134380523D01*
X101723775Y-134380538D01*
X101822938Y-134579683D01*
X101822943Y-134579691D01*
X101957020Y-134757238D01*
X102121437Y-134907123D01*
X102121439Y-134907125D01*
X102310595Y-135024245D01*
X102310596Y-135024245D01*
X102310599Y-135024247D01*
X102518060Y-135104618D01*
X102736757Y-135145500D01*
X102736759Y-135145500D01*
X102959241Y-135145500D01*
X102959243Y-135145500D01*
X103177940Y-135104618D01*
X103385401Y-135024247D01*
X103422943Y-135001002D01*
X112899652Y-135001002D01*
X112906104Y-135120000D01*
X112912602Y-135239858D01*
X112919028Y-135358368D01*
X112919029Y-135358385D01*
X112976926Y-135711539D01*
X112976932Y-135711565D01*
X113072672Y-136056392D01*
X113072674Y-136056399D01*
X113205142Y-136388870D01*
X113205151Y-136388888D01*
X113372784Y-136705077D01*
X113372787Y-136705082D01*
X113372789Y-136705085D01*
X113545990Y-136960538D01*
X113573634Y-137001309D01*
X113573641Y-137001319D01*
X113589488Y-137019975D01*
X113805332Y-137274086D01*
X114065163Y-137520211D01*
X114350081Y-137736800D01*
X114656747Y-137921315D01*
X114656749Y-137921316D01*
X114656751Y-137921317D01*
X114656755Y-137921319D01*
X114981552Y-138071585D01*
X114981565Y-138071591D01*
X115320726Y-138185868D01*
X115670254Y-138262805D01*
X116026052Y-138301500D01*
X116026058Y-138301500D01*
X116383942Y-138301500D01*
X116383948Y-138301500D01*
X116739746Y-138262805D01*
X117089274Y-138185868D01*
X117428435Y-138071591D01*
X117753253Y-137921315D01*
X118059919Y-137736800D01*
X118344837Y-137520211D01*
X118604668Y-137274086D01*
X118836365Y-137001311D01*
X119037211Y-136705085D01*
X119204853Y-136388880D01*
X119337324Y-136056403D01*
X119433071Y-135711552D01*
X119457445Y-135562876D01*
X119490970Y-135358385D01*
X119490970Y-135358382D01*
X119490972Y-135358371D01*
X119510348Y-135001000D01*
X119490972Y-134643629D01*
X119489325Y-134633585D01*
X119433073Y-134290460D01*
X119433072Y-134290459D01*
X119433071Y-134290448D01*
X119353231Y-134002889D01*
X119337327Y-133945607D01*
X119337325Y-133945600D01*
X119320603Y-133903632D01*
X119248818Y-133723464D01*
X119204857Y-133613129D01*
X119204848Y-133613111D01*
X119187360Y-133580126D01*
X119130807Y-133473456D01*
X119037215Y-133296922D01*
X119037213Y-133296919D01*
X119037211Y-133296915D01*
X118836365Y-133000689D01*
X118836361Y-133000684D01*
X118836358Y-133000680D01*
X118604668Y-132727914D01*
X118544761Y-132671167D01*
X118344837Y-132481789D01*
X118344830Y-132481783D01*
X118344827Y-132481781D01*
X118276080Y-132429521D01*
X118059919Y-132265200D01*
X117753253Y-132080685D01*
X117753252Y-132080684D01*
X117753248Y-132080682D01*
X117753244Y-132080680D01*
X117428447Y-131930414D01*
X117428441Y-131930411D01*
X117428435Y-131930409D01*
X117236621Y-131865779D01*
X117089273Y-131816131D01*
X116739744Y-131739194D01*
X116383949Y-131700500D01*
X116383948Y-131700500D01*
X116026052Y-131700500D01*
X116026050Y-131700500D01*
X115670255Y-131739194D01*
X115320726Y-131816131D01*
X115090059Y-131893853D01*
X114981565Y-131930409D01*
X114981563Y-131930410D01*
X114981552Y-131930414D01*
X114656755Y-132080680D01*
X114656751Y-132080682D01*
X114570194Y-132132762D01*
X114350081Y-132265200D01*
X114271414Y-132325001D01*
X114065172Y-132481781D01*
X114065163Y-132481789D01*
X113805331Y-132727914D01*
X113573641Y-133000680D01*
X113573634Y-133000690D01*
X113372790Y-133296913D01*
X113372784Y-133296922D01*
X113205151Y-133613111D01*
X113205142Y-133613129D01*
X113072674Y-133945600D01*
X113072672Y-133945607D01*
X112976932Y-134290434D01*
X112976926Y-134290460D01*
X112919029Y-134643614D01*
X112919028Y-134643627D01*
X112919028Y-134643629D01*
X112912868Y-134757236D01*
X112899652Y-135000997D01*
X112899652Y-135001002D01*
X103422943Y-135001002D01*
X103574562Y-134907124D01*
X103738981Y-134757236D01*
X103873058Y-134579689D01*
X103972229Y-134380528D01*
X104033115Y-134166536D01*
X104053643Y-133945000D01*
X104033115Y-133723464D01*
X103972229Y-133509472D01*
X103972224Y-133509461D01*
X103873061Y-133310316D01*
X103873056Y-133310308D01*
X103738979Y-133132761D01*
X103574562Y-132982876D01*
X103574560Y-132982874D01*
X103385404Y-132865754D01*
X103385395Y-132865750D01*
X103291956Y-132829552D01*
X103191475Y-132790625D01*
X103136075Y-132748054D01*
X103112484Y-132682288D01*
X103128195Y-132614207D01*
X103178219Y-132565428D01*
X103191466Y-132559377D01*
X103385401Y-132484247D01*
X103574562Y-132367124D01*
X103738981Y-132217236D01*
X103873058Y-132039689D01*
X103972229Y-131840528D01*
X104033115Y-131626536D01*
X104053643Y-131405000D01*
X104033115Y-131183464D01*
X103972229Y-130969472D01*
X103972224Y-130969461D01*
X103873061Y-130770316D01*
X103873056Y-130770308D01*
X103738979Y-130592761D01*
X103574562Y-130442876D01*
X103574560Y-130442874D01*
X103385404Y-130325754D01*
X103385398Y-130325752D01*
X103177940Y-130245382D01*
X102959243Y-130204500D01*
X102736757Y-130204500D01*
X102518060Y-130245382D01*
X102386864Y-130296207D01*
X102310601Y-130325752D01*
X102310595Y-130325754D01*
X102121439Y-130442874D01*
X102121437Y-130442876D01*
X101957020Y-130592761D01*
X101822943Y-130770308D01*
X101822938Y-130770316D01*
X101723775Y-130969461D01*
X101723769Y-130969476D01*
X101662885Y-131183462D01*
X101662884Y-131183464D01*
X101642357Y-131404999D01*
X101642357Y-131405000D01*
X101662884Y-131626535D01*
X101662885Y-131626537D01*
X101723769Y-131840523D01*
X101723775Y-131840538D01*
X101822938Y-132039683D01*
X101822943Y-132039691D01*
X101957020Y-132217238D01*
X102075228Y-132324998D01*
X102119632Y-132365478D01*
X102121437Y-132367123D01*
X102121439Y-132367125D01*
X102310595Y-132484245D01*
X102310596Y-132484245D01*
X102310599Y-132484247D01*
X102504524Y-132559374D01*
X102559924Y-132601946D01*
X102583515Y-132667713D01*
X102567804Y-132735793D01*
X102517780Y-132784572D01*
X102504533Y-132790622D01*
X102356488Y-132847975D01*
X102310601Y-132865752D01*
X102310595Y-132865754D01*
X102121439Y-132982874D01*
X102121437Y-132982876D01*
X101957020Y-133132761D01*
X101822943Y-133310308D01*
X101822938Y-133310316D01*
X101723775Y-133509461D01*
X101723769Y-133509476D01*
X101662885Y-133723462D01*
X101662884Y-133723464D01*
X101642357Y-133944999D01*
X101642357Y-133945000D01*
X93060500Y-133945000D01*
X93060500Y-132586739D01*
X93080185Y-132519700D01*
X93132989Y-132473945D01*
X93202147Y-132464001D01*
X93265703Y-132493026D01*
X93303477Y-132551804D01*
X93304275Y-132554645D01*
X93304650Y-132556044D01*
X93304651Y-132556050D01*
X93306947Y-132564618D01*
X93364678Y-132780074D01*
X93364679Y-132780076D01*
X93364680Y-132780079D01*
X93462699Y-132990282D01*
X93595730Y-133180269D01*
X93759731Y-133344270D01*
X93949718Y-133477301D01*
X94159921Y-133575320D01*
X94383950Y-133635349D01*
X94525719Y-133647752D01*
X94614998Y-133655563D01*
X94615000Y-133655563D01*
X94615002Y-133655563D01*
X94672762Y-133650509D01*
X94846050Y-133635349D01*
X95070079Y-133575320D01*
X95280282Y-133477301D01*
X95470269Y-133344270D01*
X95634270Y-133180269D01*
X95767301Y-132990282D01*
X95865320Y-132780079D01*
X95925349Y-132556050D01*
X95945563Y-132325000D01*
X95935741Y-132212738D01*
X95925349Y-132093951D01*
X95925349Y-132093950D01*
X95887787Y-131953770D01*
X95889450Y-131883923D01*
X95919879Y-131833999D01*
X98332061Y-129421819D01*
X98393384Y-129388334D01*
X98419742Y-129385500D01*
X106295258Y-129385500D01*
X106362297Y-129405185D01*
X106382939Y-129421819D01*
X109019808Y-132058688D01*
X109053293Y-132120011D01*
X109055347Y-132132485D01*
X109069630Y-132259249D01*
X109129210Y-132429521D01*
X109214606Y-132565428D01*
X109225184Y-132582262D01*
X109352738Y-132709816D01*
X109481348Y-132790627D01*
X109505478Y-132805789D01*
X109640779Y-132853133D01*
X109697556Y-132893855D01*
X109716867Y-132929221D01*
X109764210Y-133064521D01*
X109823219Y-133158433D01*
X109860184Y-133217262D01*
X109987738Y-133344816D01*
X110078080Y-133401582D01*
X110123477Y-133430107D01*
X110140478Y-133440789D01*
X110310745Y-133500368D01*
X110310750Y-133500369D01*
X110489996Y-133520565D01*
X110490000Y-133520565D01*
X110490004Y-133520565D01*
X110669249Y-133500369D01*
X110669252Y-133500368D01*
X110669255Y-133500368D01*
X110839522Y-133440789D01*
X110992262Y-133344816D01*
X111119816Y-133217262D01*
X111215789Y-133064522D01*
X111275368Y-132894255D01*
X111275413Y-132893855D01*
X111295565Y-132715003D01*
X111295565Y-132714996D01*
X111275369Y-132535750D01*
X111275368Y-132535745D01*
X111238199Y-132429522D01*
X111215789Y-132365478D01*
X111119816Y-132212738D01*
X110992262Y-132085184D01*
X110950094Y-132058688D01*
X110839521Y-131989210D01*
X110704221Y-131941867D01*
X110647444Y-131901145D01*
X110628133Y-131865779D01*
X110580789Y-131730478D01*
X110569287Y-131712173D01*
X110484816Y-131577738D01*
X110357262Y-131450184D01*
X110259104Y-131388507D01*
X110204521Y-131354210D01*
X110034249Y-131294630D01*
X109907485Y-131280347D01*
X109843071Y-131253280D01*
X109833688Y-131244808D01*
X109777211Y-131188331D01*
X120244500Y-131188331D01*
X120245368Y-131214870D01*
X120246429Y-131231054D01*
X120249031Y-131257471D01*
X120266283Y-131388506D01*
X120266284Y-131388512D01*
X120276632Y-131440533D01*
X120285003Y-131471777D01*
X120285011Y-131471800D01*
X120302052Y-131522007D01*
X120302056Y-131522018D01*
X120349495Y-131636547D01*
X120349497Y-131636553D01*
X120372969Y-131684150D01*
X120385871Y-131706496D01*
X120389149Y-131712173D01*
X120418617Y-131756274D01*
X120418621Y-131756279D01*
X120418629Y-131756290D01*
X120499075Y-131861130D01*
X120515917Y-131881654D01*
X120521268Y-131887755D01*
X120526616Y-131893853D01*
X120544752Y-131913216D01*
X122496036Y-133864500D01*
X123265121Y-134633585D01*
X124007036Y-135375500D01*
X127801783Y-139170247D01*
X127821146Y-139188383D01*
X127828767Y-139195067D01*
X127833344Y-139199081D01*
X127848178Y-139211254D01*
X127853858Y-139215915D01*
X127958725Y-139296382D01*
X128002826Y-139325850D01*
X128030859Y-139342035D01*
X128078433Y-139365495D01*
X128192976Y-139412940D01*
X128243201Y-139429990D01*
X128264901Y-139435804D01*
X128274467Y-139438368D01*
X128291808Y-139441817D01*
X128326488Y-139448715D01*
X128446150Y-139464469D01*
X128457552Y-139465971D01*
X128483920Y-139468569D01*
X128483934Y-139468569D01*
X128483945Y-139468571D01*
X128500131Y-139469632D01*
X128526655Y-139470500D01*
X128526668Y-139470500D01*
X130836860Y-139470500D01*
X130836873Y-139470500D01*
X130863397Y-139469632D01*
X130879583Y-139468571D01*
X130879595Y-139468569D01*
X130879607Y-139468569D01*
X130905975Y-139465971D01*
X130905987Y-139465969D01*
X130905991Y-139465969D01*
X131037039Y-139448715D01*
X131089059Y-139438368D01*
X131120326Y-139429990D01*
X131170551Y-139412940D01*
X131285094Y-139365495D01*
X131332668Y-139342035D01*
X131360701Y-139325850D01*
X131404801Y-139296383D01*
X131503163Y-139220908D01*
X131503170Y-139220902D01*
X131543031Y-139185946D01*
X131543035Y-139185941D01*
X131543044Y-139185934D01*
X131565934Y-139163044D01*
X131565941Y-139163035D01*
X131565946Y-139163031D01*
X131600902Y-139123170D01*
X131600906Y-139123165D01*
X131600908Y-139123163D01*
X131676383Y-139024801D01*
X131705850Y-138980701D01*
X131722035Y-138952668D01*
X131745495Y-138905094D01*
X131792940Y-138790551D01*
X131809990Y-138740326D01*
X131818368Y-138709059D01*
X131828715Y-138657039D01*
X131845969Y-138525990D01*
X131847597Y-138509476D01*
X131848569Y-138499606D01*
X131848571Y-138499582D01*
X131849632Y-138483396D01*
X131850500Y-138456872D01*
X131850500Y-136525000D01*
X151194357Y-136525000D01*
X151214884Y-136746535D01*
X151214885Y-136746537D01*
X151275769Y-136960523D01*
X151275775Y-136960538D01*
X151374938Y-137159683D01*
X151374943Y-137159691D01*
X151509020Y-137337238D01*
X151673437Y-137487123D01*
X151673439Y-137487125D01*
X151862595Y-137604245D01*
X151862596Y-137604245D01*
X151862599Y-137604247D01*
X152070060Y-137684618D01*
X152288757Y-137725500D01*
X152288759Y-137725500D01*
X152511241Y-137725500D01*
X152511243Y-137725500D01*
X152729940Y-137684618D01*
X152791829Y-137660642D01*
X156759331Y-137660642D01*
X156953673Y-137751265D01*
X156953682Y-137751269D01*
X157173389Y-137810139D01*
X157173400Y-137810141D01*
X157399998Y-137829966D01*
X157400002Y-137829966D01*
X157626599Y-137810141D01*
X157626610Y-137810139D01*
X157846317Y-137751269D01*
X157846326Y-137751265D01*
X158040668Y-137660642D01*
X157400001Y-137019975D01*
X157400000Y-137019975D01*
X156759331Y-137660642D01*
X152791829Y-137660642D01*
X152937401Y-137604247D01*
X153126562Y-137487124D01*
X153290981Y-137337236D01*
X153425058Y-137159689D01*
X153524229Y-136960528D01*
X153585115Y-136746536D01*
X153605643Y-136525002D01*
X156095034Y-136525002D01*
X156114858Y-136751599D01*
X156114860Y-136751610D01*
X156173730Y-136971317D01*
X156173735Y-136971331D01*
X156264355Y-137165668D01*
X156264356Y-137165668D01*
X156905025Y-136525000D01*
X156995014Y-136525000D01*
X157014835Y-136650148D01*
X157072359Y-136763045D01*
X157161955Y-136852641D01*
X157274852Y-136910165D01*
X157368519Y-136925000D01*
X157431481Y-136925000D01*
X157525148Y-136910165D01*
X157638045Y-136852641D01*
X157727641Y-136763045D01*
X157785165Y-136650148D01*
X157804986Y-136525000D01*
X157894975Y-136525000D01*
X158535642Y-137165667D01*
X158626265Y-136971326D01*
X158626269Y-136971317D01*
X158685139Y-136751610D01*
X158685141Y-136751599D01*
X158704966Y-136525002D01*
X158704966Y-136524997D01*
X158685141Y-136298400D01*
X158685139Y-136298389D01*
X158626269Y-136078682D01*
X158626265Y-136078673D01*
X158535642Y-135884331D01*
X157894975Y-136524999D01*
X157894975Y-136525000D01*
X157804986Y-136525000D01*
X157785165Y-136399852D01*
X157727641Y-136286955D01*
X157638045Y-136197359D01*
X157525148Y-136139835D01*
X157431481Y-136125000D01*
X157368519Y-136125000D01*
X157274852Y-136139835D01*
X157161955Y-136197359D01*
X157072359Y-136286955D01*
X157014835Y-136399852D01*
X156995014Y-136525000D01*
X156905025Y-136525000D01*
X156264355Y-135884330D01*
X156173735Y-136078668D01*
X156173730Y-136078682D01*
X156114860Y-136298389D01*
X156114858Y-136298400D01*
X156095034Y-136524997D01*
X156095034Y-136525002D01*
X153605643Y-136525002D01*
X153605643Y-136525000D01*
X153585115Y-136303464D01*
X153524229Y-136089472D01*
X153519056Y-136079083D01*
X153425061Y-135890316D01*
X153425056Y-135890308D01*
X153290979Y-135712761D01*
X153126562Y-135562876D01*
X153126560Y-135562874D01*
X152937404Y-135445754D01*
X152937398Y-135445752D01*
X152791821Y-135389355D01*
X156759330Y-135389355D01*
X157400000Y-136030025D01*
X157400001Y-136030025D01*
X158040668Y-135389356D01*
X158040668Y-135389355D01*
X157846331Y-135298735D01*
X157846317Y-135298730D01*
X157626610Y-135239860D01*
X157626599Y-135239858D01*
X157400002Y-135220034D01*
X157399998Y-135220034D01*
X157173400Y-135239858D01*
X157173389Y-135239860D01*
X156953682Y-135298730D01*
X156953668Y-135298735D01*
X156759330Y-135389355D01*
X152791821Y-135389355D01*
X152729940Y-135365382D01*
X152511243Y-135324500D01*
X152288757Y-135324500D01*
X152070060Y-135365382D01*
X151969488Y-135404344D01*
X151862601Y-135445752D01*
X151862595Y-135445754D01*
X151673439Y-135562874D01*
X151673437Y-135562876D01*
X151509020Y-135712761D01*
X151374943Y-135890308D01*
X151374938Y-135890316D01*
X151275775Y-136089461D01*
X151275769Y-136089476D01*
X151214885Y-136303462D01*
X151214884Y-136303464D01*
X151194357Y-136524999D01*
X151194357Y-136525000D01*
X131850500Y-136525000D01*
X131850500Y-134620005D01*
X132709859Y-134620005D01*
X132730385Y-134867729D01*
X132730387Y-134867738D01*
X132791412Y-135108717D01*
X132891265Y-135336362D01*
X132891267Y-135336366D01*
X132935679Y-135404344D01*
X133715000Y-134625024D01*
X133715000Y-134691889D01*
X133755507Y-134829844D01*
X133833239Y-134950798D01*
X133941900Y-135044952D01*
X134072685Y-135104680D01*
X134179237Y-135120000D01*
X134209975Y-135120000D01*
X133429500Y-135900473D01*
X133610391Y-135998367D01*
X133610399Y-135998370D01*
X133845506Y-136079083D01*
X134090707Y-136120000D01*
X134339293Y-136120000D01*
X134584493Y-136079083D01*
X134819600Y-135998370D01*
X134819608Y-135998367D01*
X135000498Y-135900473D01*
X134220025Y-135120000D01*
X134250763Y-135120000D01*
X134357315Y-135104680D01*
X134488100Y-135044952D01*
X134596761Y-134950798D01*
X134674493Y-134829844D01*
X134715000Y-134691889D01*
X134715000Y-134625026D01*
X135494319Y-135404345D01*
X135538731Y-135336369D01*
X135638587Y-135108717D01*
X135699612Y-134867738D01*
X135699614Y-134867729D01*
X135720141Y-134620005D01*
X135720141Y-134619994D01*
X135699614Y-134372270D01*
X135699612Y-134372261D01*
X135638587Y-134131282D01*
X135538732Y-133903632D01*
X135494319Y-133835653D01*
X134715000Y-134614973D01*
X134715000Y-134548111D01*
X134674493Y-134410156D01*
X134596761Y-134289202D01*
X134488100Y-134195048D01*
X134357315Y-134135320D01*
X134250763Y-134120000D01*
X134220026Y-134120000D01*
X135000498Y-133339525D01*
X134819609Y-133241632D01*
X134819603Y-133241630D01*
X134584493Y-133160916D01*
X134339293Y-133120000D01*
X134090707Y-133120000D01*
X133845506Y-133160916D01*
X133610396Y-133241630D01*
X133610385Y-133241635D01*
X133429500Y-133339524D01*
X133429500Y-133339525D01*
X134209975Y-134120000D01*
X134179237Y-134120000D01*
X134072685Y-134135320D01*
X133941900Y-134195048D01*
X133833239Y-134289202D01*
X133755507Y-134410156D01*
X133715000Y-134548111D01*
X133715000Y-134614975D01*
X132935679Y-133835654D01*
X132891267Y-133903634D01*
X132791411Y-134131282D01*
X132730387Y-134372261D01*
X132730385Y-134372270D01*
X132709859Y-134619994D01*
X132709859Y-134620005D01*
X131850500Y-134620005D01*
X131850500Y-133606655D01*
X131849632Y-133580131D01*
X131848571Y-133563945D01*
X131848569Y-133563920D01*
X131845971Y-133537552D01*
X131831825Y-133430108D01*
X131828715Y-133406488D01*
X131818368Y-133354468D01*
X131809990Y-133323201D01*
X131792940Y-133272976D01*
X131745495Y-133158433D01*
X131722035Y-133110859D01*
X131705850Y-133082826D01*
X131676382Y-133038725D01*
X131633526Y-132982874D01*
X131595923Y-132933868D01*
X131579081Y-132913344D01*
X131575067Y-132908767D01*
X131568383Y-132901146D01*
X131550247Y-132881783D01*
X131068465Y-132400001D01*
X160654645Y-132400001D01*
X160674039Y-132671160D01*
X160674040Y-132671167D01*
X160726722Y-132913344D01*
X160731825Y-132936801D01*
X160779463Y-133064522D01*
X160826830Y-133191519D01*
X160957109Y-133430107D01*
X160957110Y-133430108D01*
X160957113Y-133430113D01*
X161120029Y-133647742D01*
X161120033Y-133647746D01*
X161120038Y-133647752D01*
X161312247Y-133839961D01*
X161312253Y-133839966D01*
X161312258Y-133839971D01*
X161529887Y-134002887D01*
X161529891Y-134002889D01*
X161529892Y-134002890D01*
X161768481Y-134133169D01*
X161768480Y-134133169D01*
X161768484Y-134133170D01*
X161768487Y-134133172D01*
X162023199Y-134228175D01*
X162288840Y-134285961D01*
X162540605Y-134303967D01*
X162559999Y-134305355D01*
X162560000Y-134305355D01*
X162560001Y-134305355D01*
X162578100Y-134304060D01*
X162831160Y-134285961D01*
X163096801Y-134228175D01*
X163351513Y-134133172D01*
X163351517Y-134133169D01*
X163351519Y-134133169D01*
X163470813Y-134068029D01*
X163590113Y-134002887D01*
X163807742Y-133839971D01*
X163999971Y-133647742D01*
X164162887Y-133430113D01*
X164248690Y-133272976D01*
X164293169Y-133191519D01*
X164293169Y-133191517D01*
X164293172Y-133191513D01*
X164388175Y-132936801D01*
X164445961Y-132671160D01*
X164465355Y-132400000D01*
X164445961Y-132128840D01*
X164388175Y-131863199D01*
X164293172Y-131608487D01*
X164293170Y-131608484D01*
X164293169Y-131608480D01*
X164162890Y-131369892D01*
X164162889Y-131369891D01*
X164162887Y-131369887D01*
X163999971Y-131152258D01*
X163999966Y-131152253D01*
X163999961Y-131152247D01*
X163807752Y-130960038D01*
X163807746Y-130960033D01*
X163807742Y-130960029D01*
X163590113Y-130797113D01*
X163590108Y-130797110D01*
X163590107Y-130797109D01*
X163351518Y-130666830D01*
X163351519Y-130666830D01*
X163301920Y-130648330D01*
X163096801Y-130571825D01*
X163096794Y-130571823D01*
X163096793Y-130571823D01*
X162831167Y-130514040D01*
X162831160Y-130514039D01*
X162560001Y-130494645D01*
X162559999Y-130494645D01*
X162288839Y-130514039D01*
X162288832Y-130514040D01*
X162023206Y-130571823D01*
X162023202Y-130571824D01*
X162023199Y-130571825D01*
X161967060Y-130592764D01*
X161768480Y-130666830D01*
X161529892Y-130797109D01*
X161529891Y-130797110D01*
X161312259Y-130960028D01*
X161312247Y-130960038D01*
X161120038Y-131152247D01*
X161120028Y-131152259D01*
X160957110Y-131369891D01*
X160957109Y-131369892D01*
X160826830Y-131608480D01*
X160807719Y-131659719D01*
X160731825Y-131863199D01*
X160731824Y-131863202D01*
X160731823Y-131863206D01*
X160674040Y-132128832D01*
X160674039Y-132128839D01*
X160654645Y-132399998D01*
X160654645Y-132400001D01*
X131068465Y-132400001D01*
X126950149Y-128281685D01*
X160659500Y-128281685D01*
X160665663Y-128349513D01*
X160665663Y-128349515D01*
X160665664Y-128349517D01*
X160682248Y-128402738D01*
X160714303Y-128505605D01*
X160798876Y-128645508D01*
X160798880Y-128645513D01*
X160914486Y-128761119D01*
X160914491Y-128761123D01*
X161031982Y-128832147D01*
X161054397Y-128845698D01*
X161210483Y-128894336D01*
X161278312Y-128900500D01*
X161278315Y-128900500D01*
X163841685Y-128900500D01*
X163841688Y-128900500D01*
X163909517Y-128894336D01*
X164065603Y-128845698D01*
X164160684Y-128788219D01*
X164205508Y-128761123D01*
X164205509Y-128761121D01*
X164205514Y-128761119D01*
X164321119Y-128645514D01*
X164405698Y-128505603D01*
X164454336Y-128349517D01*
X164460500Y-128281688D01*
X164460500Y-125718312D01*
X164454336Y-125650483D01*
X164405698Y-125494397D01*
X164374553Y-125442876D01*
X164321123Y-125354491D01*
X164321119Y-125354486D01*
X164205513Y-125238880D01*
X164205508Y-125238876D01*
X164065605Y-125154303D01*
X164065604Y-125154302D01*
X164065603Y-125154302D01*
X163909517Y-125105664D01*
X163909515Y-125105663D01*
X163909513Y-125105663D01*
X163862025Y-125101348D01*
X163841688Y-125099500D01*
X161278312Y-125099500D01*
X161259823Y-125101180D01*
X161210486Y-125105663D01*
X161054394Y-125154303D01*
X160914491Y-125238876D01*
X160914486Y-125238880D01*
X160798880Y-125354486D01*
X160798876Y-125354491D01*
X160714303Y-125494394D01*
X160665663Y-125650486D01*
X160659500Y-125718314D01*
X160659500Y-128281685D01*
X126950149Y-128281685D01*
X124928216Y-126259752D01*
X124908853Y-126241616D01*
X124902755Y-126236268D01*
X124896654Y-126230917D01*
X124876130Y-126214075D01*
X124771290Y-126133629D01*
X124771283Y-126133624D01*
X124771274Y-126133617D01*
X124749525Y-126119084D01*
X124727183Y-126104155D01*
X124727167Y-126104145D01*
X124699155Y-126087972D01*
X124699134Y-126087961D01*
X124651555Y-126064498D01*
X124651549Y-126064496D01*
X124537037Y-126017064D01*
X124537015Y-126017056D01*
X124486796Y-126000008D01*
X124486776Y-126000002D01*
X124455554Y-125991637D01*
X124455549Y-125991635D01*
X124455531Y-125991631D01*
X124438827Y-125988308D01*
X124403510Y-125981283D01*
X124272472Y-125964031D01*
X124246055Y-125961429D01*
X124229871Y-125960368D01*
X124227975Y-125960306D01*
X124203345Y-125959500D01*
X121258127Y-125959500D01*
X121236575Y-125960205D01*
X121231599Y-125960368D01*
X121215418Y-125961428D01*
X121188995Y-125964032D01*
X121057967Y-125981282D01*
X121057957Y-125981284D01*
X121005934Y-125991632D01*
X121005923Y-125991635D01*
X120974674Y-126000009D01*
X120924456Y-126017056D01*
X120924445Y-126017060D01*
X120809895Y-126064508D01*
X120762344Y-126087958D01*
X120762301Y-126087980D01*
X120734302Y-126104146D01*
X120690202Y-126133613D01*
X120591827Y-126209097D01*
X120591822Y-126209101D01*
X120551961Y-126244057D01*
X120529057Y-126266961D01*
X120494101Y-126306822D01*
X120494097Y-126306827D01*
X120418613Y-126405202D01*
X120389146Y-126449302D01*
X120372980Y-126477301D01*
X120372958Y-126477344D01*
X120349508Y-126524895D01*
X120302060Y-126639445D01*
X120302059Y-126639447D01*
X120285007Y-126689679D01*
X120276627Y-126720957D01*
X120266282Y-126772969D01*
X120249031Y-126903999D01*
X120246429Y-126930416D01*
X120245368Y-126946600D01*
X120244500Y-126973139D01*
X120244500Y-131188331D01*
X109777211Y-131188331D01*
X107646061Y-129057181D01*
X107612576Y-128995858D01*
X107617560Y-128926166D01*
X107659432Y-128870233D01*
X107724896Y-128845816D01*
X107733742Y-128845500D01*
X109247060Y-128845500D01*
X109314099Y-128865185D01*
X109334741Y-128881819D01*
X109352738Y-128899816D01*
X109394674Y-128926166D01*
X109505478Y-128995789D01*
X109640779Y-129043133D01*
X109697556Y-129083855D01*
X109716867Y-129119221D01*
X109764210Y-129254521D01*
X109778523Y-129277300D01*
X109860184Y-129407262D01*
X109987738Y-129534816D01*
X110140478Y-129630789D01*
X110310745Y-129690368D01*
X110310750Y-129690369D01*
X110489996Y-129710565D01*
X110490000Y-129710565D01*
X110490004Y-129710565D01*
X110669249Y-129690369D01*
X110669252Y-129690368D01*
X110669255Y-129690368D01*
X110839522Y-129630789D01*
X110992262Y-129534816D01*
X111119816Y-129407262D01*
X111215789Y-129254522D01*
X111275368Y-129084255D01*
X111275413Y-129083855D01*
X111295565Y-128905003D01*
X111295565Y-128904996D01*
X111275369Y-128725750D01*
X111275368Y-128725745D01*
X111247294Y-128645514D01*
X111215789Y-128555478D01*
X111119816Y-128402738D01*
X110992262Y-128275184D01*
X110974464Y-128264001D01*
X110839521Y-128179210D01*
X110704221Y-128131867D01*
X110647444Y-128091145D01*
X110628133Y-128055779D01*
X110580789Y-127920478D01*
X110484816Y-127767738D01*
X110357262Y-127640184D01*
X110302063Y-127605500D01*
X110204523Y-127544211D01*
X110034254Y-127484631D01*
X110034249Y-127484630D01*
X109855004Y-127464435D01*
X109854996Y-127464435D01*
X109675750Y-127484630D01*
X109675745Y-127484631D01*
X109505476Y-127544211D01*
X109352737Y-127640184D01*
X109334741Y-127658181D01*
X109273418Y-127691666D01*
X109247060Y-127694500D01*
X103481646Y-127694500D01*
X103414607Y-127674815D01*
X103368852Y-127622011D01*
X103358908Y-127552853D01*
X103387933Y-127489297D01*
X103416369Y-127465073D01*
X103574560Y-127367125D01*
X103574559Y-127367125D01*
X103574562Y-127367124D01*
X103738981Y-127217236D01*
X103873058Y-127039689D01*
X103972229Y-126840528D01*
X104033115Y-126626536D01*
X104053643Y-126405000D01*
X104038503Y-126241616D01*
X104033115Y-126183464D01*
X104033114Y-126183462D01*
X104018935Y-126133629D01*
X103972229Y-125969472D01*
X103972224Y-125969461D01*
X103873061Y-125770316D01*
X103873056Y-125770308D01*
X103738979Y-125592761D01*
X103574562Y-125442876D01*
X103574560Y-125442874D01*
X103385404Y-125325754D01*
X103385398Y-125325752D01*
X103177940Y-125245382D01*
X102959243Y-125204500D01*
X102736757Y-125204500D01*
X102518060Y-125245382D01*
X102386864Y-125296207D01*
X102310601Y-125325752D01*
X102310595Y-125325754D01*
X102121439Y-125442874D01*
X102121437Y-125442876D01*
X101957020Y-125592761D01*
X101822943Y-125770308D01*
X101822938Y-125770316D01*
X101723775Y-125969461D01*
X101723769Y-125969476D01*
X101662885Y-126183462D01*
X101662884Y-126183464D01*
X101642357Y-126404999D01*
X101642357Y-126405000D01*
X101662884Y-126626535D01*
X101662885Y-126626537D01*
X101723769Y-126840523D01*
X101723775Y-126840538D01*
X101822938Y-127039683D01*
X101822943Y-127039691D01*
X101957020Y-127217238D01*
X102121437Y-127367123D01*
X102121439Y-127367125D01*
X102279631Y-127465073D01*
X102326267Y-127517101D01*
X102337371Y-127586082D01*
X102309418Y-127650117D01*
X102251283Y-127688873D01*
X102214354Y-127694500D01*
X95955778Y-127694500D01*
X95888739Y-127674815D01*
X95843396Y-127622905D01*
X95806700Y-127544211D01*
X95767301Y-127459719D01*
X95767299Y-127459716D01*
X95767298Y-127459714D01*
X95634273Y-127269735D01*
X95634268Y-127269729D01*
X95470269Y-127105730D01*
X95375953Y-127039689D01*
X95280282Y-126972699D01*
X95070079Y-126874680D01*
X95070076Y-126874679D01*
X95070074Y-126874678D01*
X94846051Y-126814651D01*
X94846044Y-126814650D01*
X94615002Y-126794437D01*
X94614998Y-126794437D01*
X94383955Y-126814650D01*
X94383948Y-126814651D01*
X94159917Y-126874681D01*
X93949718Y-126972699D01*
X93949714Y-126972701D01*
X93759735Y-127105726D01*
X93759729Y-127105731D01*
X93595731Y-127269729D01*
X93595726Y-127269735D01*
X93462701Y-127459714D01*
X93462699Y-127459718D01*
X93364681Y-127669917D01*
X93364680Y-127669921D01*
X93312875Y-127863260D01*
X93304275Y-127895354D01*
X93267909Y-127955014D01*
X93205062Y-127985543D01*
X93135687Y-127977248D01*
X93081809Y-127932762D01*
X93060535Y-127866210D01*
X93060500Y-127863260D01*
X93060500Y-124186739D01*
X93080185Y-124119700D01*
X93132989Y-124073945D01*
X93202147Y-124064001D01*
X93265703Y-124093026D01*
X93303477Y-124151804D01*
X93304275Y-124154645D01*
X93364678Y-124380074D01*
X93364679Y-124380076D01*
X93364680Y-124380079D01*
X93462699Y-124590282D01*
X93595730Y-124780269D01*
X93759731Y-124944270D01*
X93949718Y-125077301D01*
X94159921Y-125175320D01*
X94383950Y-125235349D01*
X94548985Y-125249787D01*
X94614998Y-125255563D01*
X94615000Y-125255563D01*
X94615002Y-125255563D01*
X94672762Y-125250509D01*
X94846050Y-125235349D01*
X95070079Y-125175320D01*
X95280282Y-125077301D01*
X95470269Y-124944270D01*
X95634270Y-124780269D01*
X95767301Y-124590282D01*
X95775783Y-124572093D01*
X95821956Y-124519655D01*
X95888164Y-124500500D01*
X97898160Y-124500500D01*
X97914345Y-124501561D01*
X97943999Y-124505465D01*
X97944000Y-124505465D01*
X97981714Y-124500500D01*
X97981720Y-124500500D01*
X98094236Y-124485687D01*
X98234233Y-124427698D01*
X98261300Y-124406928D01*
X98282070Y-124390992D01*
X98282070Y-124390990D01*
X98324268Y-124358612D01*
X98324268Y-124358611D01*
X98332358Y-124352404D01*
X98332362Y-124352399D01*
X98354451Y-124335451D01*
X98372670Y-124311706D01*
X98383351Y-124299527D01*
X99492878Y-123190000D01*
X151194357Y-123190000D01*
X151214884Y-123411535D01*
X151214885Y-123411537D01*
X151275769Y-123625523D01*
X151275775Y-123625538D01*
X151374938Y-123824683D01*
X151374943Y-123824691D01*
X151509020Y-124002238D01*
X151673437Y-124152123D01*
X151673439Y-124152125D01*
X151862595Y-124269245D01*
X151862596Y-124269245D01*
X151862599Y-124269247D01*
X152070060Y-124349618D01*
X152288757Y-124390500D01*
X152288759Y-124390500D01*
X152511241Y-124390500D01*
X152511243Y-124390500D01*
X152729940Y-124349618D01*
X152791829Y-124325642D01*
X156759331Y-124325642D01*
X156953673Y-124416265D01*
X156953682Y-124416269D01*
X157173389Y-124475139D01*
X157173400Y-124475141D01*
X157399998Y-124494966D01*
X157400002Y-124494966D01*
X157626599Y-124475141D01*
X157626610Y-124475139D01*
X157846317Y-124416269D01*
X157846326Y-124416265D01*
X158040668Y-124325642D01*
X157400001Y-123684975D01*
X157400000Y-123684975D01*
X156759331Y-124325642D01*
X152791829Y-124325642D01*
X152937401Y-124269247D01*
X153126562Y-124152124D01*
X153290981Y-124002236D01*
X153425058Y-123824689D01*
X153524229Y-123625528D01*
X153585115Y-123411536D01*
X153605643Y-123190002D01*
X156095034Y-123190002D01*
X156114858Y-123416599D01*
X156114860Y-123416610D01*
X156173730Y-123636317D01*
X156173735Y-123636331D01*
X156264355Y-123830668D01*
X156264356Y-123830668D01*
X156905025Y-123190000D01*
X156995014Y-123190000D01*
X157014835Y-123315148D01*
X157072359Y-123428045D01*
X157161955Y-123517641D01*
X157274852Y-123575165D01*
X157368519Y-123590000D01*
X157431481Y-123590000D01*
X157525148Y-123575165D01*
X157638045Y-123517641D01*
X157727641Y-123428045D01*
X157785165Y-123315148D01*
X157804986Y-123190000D01*
X157894975Y-123190000D01*
X158535642Y-123830667D01*
X158626265Y-123636326D01*
X158626269Y-123636317D01*
X158685139Y-123416610D01*
X158685141Y-123416599D01*
X158704966Y-123190002D01*
X158704966Y-123189997D01*
X158685141Y-122963400D01*
X158685139Y-122963389D01*
X158626269Y-122743682D01*
X158626265Y-122743673D01*
X158535642Y-122549331D01*
X157894975Y-123189999D01*
X157894975Y-123190000D01*
X157804986Y-123190000D01*
X157785165Y-123064852D01*
X157727641Y-122951955D01*
X157638045Y-122862359D01*
X157525148Y-122804835D01*
X157431481Y-122790000D01*
X157368519Y-122790000D01*
X157274852Y-122804835D01*
X157161955Y-122862359D01*
X157072359Y-122951955D01*
X157014835Y-123064852D01*
X156995014Y-123190000D01*
X156905025Y-123190000D01*
X156905025Y-123189999D01*
X156264355Y-122549330D01*
X156173735Y-122743668D01*
X156173730Y-122743682D01*
X156114860Y-122963389D01*
X156114858Y-122963400D01*
X156095034Y-123189997D01*
X156095034Y-123190002D01*
X153605643Y-123190002D01*
X153605643Y-123190000D01*
X153585115Y-122968464D01*
X153524229Y-122754472D01*
X153524224Y-122754461D01*
X153425061Y-122555316D01*
X153425056Y-122555308D01*
X153290979Y-122377761D01*
X153126562Y-122227876D01*
X153126560Y-122227874D01*
X152937404Y-122110754D01*
X152937398Y-122110752D01*
X152791821Y-122054355D01*
X156759330Y-122054355D01*
X157400000Y-122695025D01*
X157400001Y-122695025D01*
X158040668Y-122054356D01*
X158040668Y-122054355D01*
X157846331Y-121963735D01*
X157846317Y-121963730D01*
X157626610Y-121904860D01*
X157626599Y-121904858D01*
X157400002Y-121885034D01*
X157399998Y-121885034D01*
X157173400Y-121904858D01*
X157173389Y-121904860D01*
X156953682Y-121963730D01*
X156953668Y-121963735D01*
X156759330Y-122054355D01*
X152791821Y-122054355D01*
X152729940Y-122030382D01*
X152511243Y-121989500D01*
X152288757Y-121989500D01*
X152070060Y-122030382D01*
X151938864Y-122081207D01*
X151862601Y-122110752D01*
X151862595Y-122110754D01*
X151673439Y-122227874D01*
X151673437Y-122227876D01*
X151509020Y-122377761D01*
X151374943Y-122555308D01*
X151374938Y-122555316D01*
X151275775Y-122754461D01*
X151275769Y-122754476D01*
X151214885Y-122968462D01*
X151214884Y-122968464D01*
X151194357Y-123189999D01*
X151194357Y-123190000D01*
X99492878Y-123190000D01*
X108324527Y-114358351D01*
X108336706Y-114347670D01*
X108360451Y-114329451D01*
X108377405Y-114307356D01*
X108383610Y-114299269D01*
X108383612Y-114299268D01*
X108452699Y-114209233D01*
X108510687Y-114069235D01*
X108525500Y-113956720D01*
X108525500Y-113956714D01*
X108530465Y-113919000D01*
X108526560Y-113889344D01*
X108525500Y-113873160D01*
X108525500Y-113056859D01*
X120244500Y-113056859D01*
X120245368Y-113083398D01*
X120246429Y-113099582D01*
X120249031Y-113125999D01*
X120266283Y-113257034D01*
X120266284Y-113257040D01*
X120276632Y-113309061D01*
X120285003Y-113340305D01*
X120285011Y-113340328D01*
X120302052Y-113390535D01*
X120302056Y-113390546D01*
X120349495Y-113505075D01*
X120349497Y-113505081D01*
X120372969Y-113552678D01*
X120385871Y-113575024D01*
X120389149Y-113580701D01*
X120418617Y-113624802D01*
X120418621Y-113624807D01*
X120418629Y-113624818D01*
X120494088Y-113723159D01*
X120529066Y-113763045D01*
X120551967Y-113785946D01*
X120591828Y-113820902D01*
X120591833Y-113820906D01*
X120591836Y-113820908D01*
X120690198Y-113896383D01*
X120734298Y-113925850D01*
X120762331Y-113942035D01*
X120809905Y-113965495D01*
X120924448Y-114012940D01*
X120974673Y-114029990D01*
X120996373Y-114035804D01*
X121005939Y-114038368D01*
X121023280Y-114041817D01*
X121057960Y-114048715D01*
X121177622Y-114064469D01*
X121189024Y-114065971D01*
X121215392Y-114068569D01*
X121215406Y-114068569D01*
X121215417Y-114068571D01*
X121231603Y-114069632D01*
X121258127Y-114070500D01*
X121258140Y-114070500D01*
X124203332Y-114070500D01*
X124203345Y-114070500D01*
X124229869Y-114069632D01*
X124246055Y-114068571D01*
X124246067Y-114068569D01*
X124246079Y-114068569D01*
X124272447Y-114065971D01*
X124272459Y-114065969D01*
X124272463Y-114065969D01*
X124403511Y-114048715D01*
X124455531Y-114038368D01*
X124486798Y-114029990D01*
X124537023Y-114012940D01*
X124651566Y-113965495D01*
X124699140Y-113942035D01*
X124727173Y-113925850D01*
X124771274Y-113896382D01*
X124876141Y-113815915D01*
X124896658Y-113799078D01*
X124908853Y-113788383D01*
X124928216Y-113770247D01*
X125668462Y-113030001D01*
X160654645Y-113030001D01*
X160674039Y-113301160D01*
X160674040Y-113301167D01*
X160731823Y-113566793D01*
X160731825Y-113566801D01*
X160805021Y-113763046D01*
X160826830Y-113821519D01*
X160957109Y-114060107D01*
X160957110Y-114060108D01*
X160957113Y-114060113D01*
X161120029Y-114277742D01*
X161120033Y-114277746D01*
X161120038Y-114277752D01*
X161312247Y-114469961D01*
X161312253Y-114469966D01*
X161312258Y-114469971D01*
X161529887Y-114632887D01*
X161529891Y-114632889D01*
X161529892Y-114632890D01*
X161768481Y-114763169D01*
X161768480Y-114763169D01*
X161768484Y-114763170D01*
X161768487Y-114763172D01*
X162023199Y-114858175D01*
X162288840Y-114915961D01*
X162540605Y-114933967D01*
X162559999Y-114935355D01*
X162560000Y-114935355D01*
X162560001Y-114935355D01*
X162578100Y-114934060D01*
X162831160Y-114915961D01*
X163096801Y-114858175D01*
X163351513Y-114763172D01*
X163351517Y-114763169D01*
X163351519Y-114763169D01*
X163532685Y-114664245D01*
X163590113Y-114632887D01*
X163807742Y-114469971D01*
X163999971Y-114277742D01*
X164162887Y-114060113D01*
X164293172Y-113821513D01*
X164388175Y-113566801D01*
X164445961Y-113301160D01*
X164465355Y-113030000D01*
X164445961Y-112758840D01*
X164388175Y-112493199D01*
X164293172Y-112238487D01*
X164293170Y-112238484D01*
X164293169Y-112238480D01*
X164162890Y-111999892D01*
X164162889Y-111999891D01*
X164162887Y-111999887D01*
X163999971Y-111782258D01*
X163999966Y-111782253D01*
X163999961Y-111782247D01*
X163807752Y-111590038D01*
X163807746Y-111590033D01*
X163807742Y-111590029D01*
X163590113Y-111427113D01*
X163590108Y-111427110D01*
X163590107Y-111427109D01*
X163351518Y-111296830D01*
X163351519Y-111296830D01*
X163301920Y-111278330D01*
X163096801Y-111201825D01*
X163096794Y-111201823D01*
X163096793Y-111201823D01*
X162831167Y-111144040D01*
X162831160Y-111144039D01*
X162560001Y-111124645D01*
X162559999Y-111124645D01*
X162288839Y-111144039D01*
X162288832Y-111144040D01*
X162023206Y-111201823D01*
X162023202Y-111201824D01*
X162023199Y-111201825D01*
X161921602Y-111239719D01*
X161768480Y-111296830D01*
X161529892Y-111427109D01*
X161529891Y-111427110D01*
X161312259Y-111590028D01*
X161312247Y-111590038D01*
X161120038Y-111782247D01*
X161120028Y-111782259D01*
X160957110Y-111999891D01*
X160957109Y-111999892D01*
X160826830Y-112238480D01*
X160781478Y-112360074D01*
X160731825Y-112493199D01*
X160731824Y-112493202D01*
X160731823Y-112493206D01*
X160674040Y-112758832D01*
X160674039Y-112758839D01*
X160654645Y-113029998D01*
X160654645Y-113030001D01*
X125668462Y-113030001D01*
X129478463Y-109220000D01*
X151234357Y-109220000D01*
X151254884Y-109441535D01*
X151254885Y-109441537D01*
X151315769Y-109655523D01*
X151315775Y-109655538D01*
X151414938Y-109854683D01*
X151414943Y-109854691D01*
X151549020Y-110032238D01*
X151713437Y-110182123D01*
X151713439Y-110182125D01*
X151902595Y-110299245D01*
X151902596Y-110299245D01*
X151902599Y-110299247D01*
X152110060Y-110379618D01*
X152328757Y-110420500D01*
X152328759Y-110420500D01*
X152551241Y-110420500D01*
X152551243Y-110420500D01*
X152769940Y-110379618D01*
X152831829Y-110355642D01*
X156799331Y-110355642D01*
X156993673Y-110446265D01*
X156993682Y-110446269D01*
X157213389Y-110505139D01*
X157213400Y-110505141D01*
X157439998Y-110524966D01*
X157440002Y-110524966D01*
X157666599Y-110505141D01*
X157666610Y-110505139D01*
X157886317Y-110446269D01*
X157886326Y-110446265D01*
X158080668Y-110355642D01*
X157440001Y-109714975D01*
X157440000Y-109714975D01*
X156799331Y-110355642D01*
X152831829Y-110355642D01*
X152977401Y-110299247D01*
X153166562Y-110182124D01*
X153330981Y-110032236D01*
X153465058Y-109854689D01*
X153564229Y-109655528D01*
X153625115Y-109441536D01*
X153645643Y-109220002D01*
X156135034Y-109220002D01*
X156154858Y-109446599D01*
X156154860Y-109446610D01*
X156213730Y-109666317D01*
X156213735Y-109666331D01*
X156304355Y-109860668D01*
X156304356Y-109860668D01*
X156945025Y-109220000D01*
X157035014Y-109220000D01*
X157054835Y-109345148D01*
X157112359Y-109458045D01*
X157201955Y-109547641D01*
X157314852Y-109605165D01*
X157408519Y-109620000D01*
X157471481Y-109620000D01*
X157565148Y-109605165D01*
X157678045Y-109547641D01*
X157767641Y-109458045D01*
X157825165Y-109345148D01*
X157844986Y-109220000D01*
X157934975Y-109220000D01*
X158575642Y-109860667D01*
X158666265Y-109666326D01*
X158666269Y-109666317D01*
X158725139Y-109446610D01*
X158725141Y-109446599D01*
X158744966Y-109220002D01*
X158744966Y-109219997D01*
X158725141Y-108993400D01*
X158725139Y-108993389D01*
X158703247Y-108911685D01*
X160659500Y-108911685D01*
X160665663Y-108979513D01*
X160665663Y-108979515D01*
X160665664Y-108979517D01*
X160678443Y-109020528D01*
X160714303Y-109135605D01*
X160798876Y-109275508D01*
X160798880Y-109275513D01*
X160914486Y-109391119D01*
X160914491Y-109391123D01*
X161006261Y-109446599D01*
X161054397Y-109475698D01*
X161210483Y-109524336D01*
X161278312Y-109530500D01*
X161278315Y-109530500D01*
X163841685Y-109530500D01*
X163841688Y-109530500D01*
X163909517Y-109524336D01*
X164065603Y-109475698D01*
X164195392Y-109397238D01*
X164205508Y-109391123D01*
X164205509Y-109391121D01*
X164205514Y-109391119D01*
X164321119Y-109275514D01*
X164405698Y-109135603D01*
X164454336Y-108979517D01*
X164460500Y-108911688D01*
X164460500Y-106348312D01*
X164454336Y-106280483D01*
X164405698Y-106124397D01*
X164381521Y-106084403D01*
X164321123Y-105984491D01*
X164321119Y-105984486D01*
X164205513Y-105868880D01*
X164205508Y-105868876D01*
X164065605Y-105784303D01*
X164065604Y-105784302D01*
X164065603Y-105784302D01*
X163909517Y-105735664D01*
X163909515Y-105735663D01*
X163909513Y-105735663D01*
X163862025Y-105731348D01*
X163841688Y-105729500D01*
X161278312Y-105729500D01*
X161259823Y-105731180D01*
X161210486Y-105735663D01*
X161054394Y-105784303D01*
X160914491Y-105868876D01*
X160914486Y-105868880D01*
X160798880Y-105984486D01*
X160798876Y-105984491D01*
X160714303Y-106124394D01*
X160714302Y-106124396D01*
X160714302Y-106124397D01*
X160713688Y-106126369D01*
X160665663Y-106280486D01*
X160659500Y-106348314D01*
X160659500Y-108911685D01*
X158703247Y-108911685D01*
X158666269Y-108773682D01*
X158666265Y-108773673D01*
X158575642Y-108579331D01*
X157934975Y-109219999D01*
X157934975Y-109220000D01*
X157844986Y-109220000D01*
X157825165Y-109094852D01*
X157767641Y-108981955D01*
X157678045Y-108892359D01*
X157565148Y-108834835D01*
X157471481Y-108820000D01*
X157408519Y-108820000D01*
X157314852Y-108834835D01*
X157201955Y-108892359D01*
X157112359Y-108981955D01*
X157054835Y-109094852D01*
X157035014Y-109220000D01*
X156945025Y-109220000D01*
X156304355Y-108579330D01*
X156213735Y-108773668D01*
X156213730Y-108773682D01*
X156154860Y-108993389D01*
X156154858Y-108993400D01*
X156135034Y-109219997D01*
X156135034Y-109220002D01*
X153645643Y-109220002D01*
X153645643Y-109220000D01*
X153627159Y-109020528D01*
X153625115Y-108998464D01*
X153625114Y-108998462D01*
X153620417Y-108981955D01*
X153564229Y-108784472D01*
X153564224Y-108784461D01*
X153465061Y-108585316D01*
X153465056Y-108585308D01*
X153330979Y-108407761D01*
X153166562Y-108257876D01*
X153166560Y-108257874D01*
X152977404Y-108140754D01*
X152977398Y-108140752D01*
X152831821Y-108084355D01*
X156799330Y-108084355D01*
X157440000Y-108725025D01*
X157440001Y-108725025D01*
X158080668Y-108084356D01*
X158080668Y-108084355D01*
X157886331Y-107993735D01*
X157886317Y-107993730D01*
X157666610Y-107934860D01*
X157666599Y-107934858D01*
X157440002Y-107915034D01*
X157439998Y-107915034D01*
X157213400Y-107934858D01*
X157213389Y-107934860D01*
X156993682Y-107993730D01*
X156993668Y-107993735D01*
X156799330Y-108084355D01*
X152831821Y-108084355D01*
X152769940Y-108060382D01*
X152551243Y-108019500D01*
X152328757Y-108019500D01*
X152110060Y-108060382D01*
X152008850Y-108099591D01*
X151902601Y-108140752D01*
X151902595Y-108140754D01*
X151713439Y-108257874D01*
X151713437Y-108257876D01*
X151549020Y-108407761D01*
X151414943Y-108585308D01*
X151414938Y-108585316D01*
X151315775Y-108784461D01*
X151315769Y-108784476D01*
X151254885Y-108998462D01*
X151254884Y-108998464D01*
X151234357Y-109219999D01*
X151234357Y-109220000D01*
X129478463Y-109220000D01*
X131550247Y-107148216D01*
X131568383Y-107128853D01*
X131579078Y-107116658D01*
X131595915Y-107096141D01*
X131676382Y-106991274D01*
X131705850Y-106947173D01*
X131722035Y-106919140D01*
X131745495Y-106871566D01*
X131792940Y-106757023D01*
X131809990Y-106706798D01*
X131818368Y-106675531D01*
X131828715Y-106623511D01*
X131845969Y-106492462D01*
X131848571Y-106466054D01*
X131849632Y-106449868D01*
X131850500Y-106423344D01*
X131850500Y-105410005D01*
X132709859Y-105410005D01*
X132730385Y-105657729D01*
X132730387Y-105657738D01*
X132791412Y-105898717D01*
X132891265Y-106126362D01*
X132891267Y-106126366D01*
X132935679Y-106194344D01*
X133715000Y-105415024D01*
X133715000Y-105481889D01*
X133755507Y-105619844D01*
X133833239Y-105740798D01*
X133941900Y-105834952D01*
X134072685Y-105894680D01*
X134179237Y-105910000D01*
X134209975Y-105910000D01*
X133429500Y-106690473D01*
X133610391Y-106788367D01*
X133610399Y-106788370D01*
X133845506Y-106869083D01*
X134090707Y-106910000D01*
X134339293Y-106910000D01*
X134584493Y-106869083D01*
X134819600Y-106788370D01*
X134819608Y-106788367D01*
X135000498Y-106690473D01*
X134220025Y-105910000D01*
X134250763Y-105910000D01*
X134357315Y-105894680D01*
X134488100Y-105834952D01*
X134596761Y-105740798D01*
X134674493Y-105619844D01*
X134715000Y-105481889D01*
X134715000Y-105415026D01*
X135494319Y-106194345D01*
X135538731Y-106126369D01*
X135638587Y-105898717D01*
X135699612Y-105657738D01*
X135699614Y-105657729D01*
X135720141Y-105410005D01*
X135720141Y-105409994D01*
X135699614Y-105162270D01*
X135699612Y-105162261D01*
X135638587Y-104921282D01*
X135538732Y-104693632D01*
X135494319Y-104625653D01*
X134715000Y-105404973D01*
X134715000Y-105338111D01*
X134674493Y-105200156D01*
X134596761Y-105079202D01*
X134488100Y-104985048D01*
X134357315Y-104925320D01*
X134250763Y-104910000D01*
X134220026Y-104910000D01*
X135000498Y-104129525D01*
X134819609Y-104031632D01*
X134819603Y-104031630D01*
X134584493Y-103950916D01*
X134339293Y-103910000D01*
X134090707Y-103910000D01*
X133845506Y-103950916D01*
X133610396Y-104031630D01*
X133610385Y-104031635D01*
X133429500Y-104129524D01*
X133429500Y-104129525D01*
X134209975Y-104910000D01*
X134179237Y-104910000D01*
X134072685Y-104925320D01*
X133941900Y-104985048D01*
X133833239Y-105079202D01*
X133755507Y-105200156D01*
X133715000Y-105338111D01*
X133715000Y-105404975D01*
X132935679Y-104625654D01*
X132891267Y-104693634D01*
X132791411Y-104921282D01*
X132730387Y-105162261D01*
X132730385Y-105162270D01*
X132709859Y-105409994D01*
X132709859Y-105410005D01*
X131850500Y-105410005D01*
X131850500Y-101573127D01*
X131849632Y-101546603D01*
X131848571Y-101530417D01*
X131848569Y-101530392D01*
X131845971Y-101504024D01*
X131832346Y-101400538D01*
X131828715Y-101372960D01*
X131818368Y-101320940D01*
X131809990Y-101289673D01*
X131792940Y-101239448D01*
X131745495Y-101124905D01*
X131722035Y-101077331D01*
X131705850Y-101049298D01*
X131676383Y-101005198D01*
X131600908Y-100906836D01*
X131600906Y-100906833D01*
X131600902Y-100906828D01*
X131565946Y-100866967D01*
X131543045Y-100844066D01*
X131503159Y-100809088D01*
X131404818Y-100733629D01*
X131404811Y-100733624D01*
X131404802Y-100733617D01*
X131383053Y-100719084D01*
X131360711Y-100704155D01*
X131360695Y-100704145D01*
X131332683Y-100687972D01*
X131332662Y-100687961D01*
X131285083Y-100664498D01*
X131285077Y-100664496D01*
X131170565Y-100617064D01*
X131170543Y-100617056D01*
X131120324Y-100600008D01*
X131120304Y-100600002D01*
X131089082Y-100591637D01*
X131089077Y-100591635D01*
X131089059Y-100591631D01*
X131072355Y-100588308D01*
X131037038Y-100581283D01*
X130906000Y-100564031D01*
X130879583Y-100561429D01*
X130863399Y-100560368D01*
X130861503Y-100560306D01*
X130836873Y-100559500D01*
X128526655Y-100559500D01*
X128505103Y-100560205D01*
X128500127Y-100560368D01*
X128483946Y-100561428D01*
X128457523Y-100564032D01*
X128326495Y-100581282D01*
X128326485Y-100581284D01*
X128274462Y-100591632D01*
X128274451Y-100591635D01*
X128243202Y-100600009D01*
X128192984Y-100617056D01*
X128192973Y-100617060D01*
X128078423Y-100664508D01*
X128030872Y-100687958D01*
X128030829Y-100687980D01*
X128002830Y-100704146D01*
X127958728Y-100733614D01*
X127853851Y-100814089D01*
X127833335Y-100830926D01*
X127821158Y-100841604D01*
X127801775Y-100859758D01*
X124007035Y-104654500D01*
X122496035Y-106165500D01*
X120544758Y-108116775D01*
X120526604Y-108136158D01*
X120515926Y-108148335D01*
X120499089Y-108168851D01*
X120418614Y-108273728D01*
X120389146Y-108317830D01*
X120372980Y-108345829D01*
X120372958Y-108345872D01*
X120349508Y-108393423D01*
X120302060Y-108507973D01*
X120302059Y-108507975D01*
X120285007Y-108558207D01*
X120276627Y-108589485D01*
X120266282Y-108641497D01*
X120249031Y-108772527D01*
X120246429Y-108798944D01*
X120245368Y-108815128D01*
X120244500Y-108841667D01*
X120244500Y-113056859D01*
X108525500Y-113056859D01*
X108525500Y-113002940D01*
X108545185Y-112935901D01*
X108561819Y-112915259D01*
X108579816Y-112897262D01*
X108675789Y-112744522D01*
X108735368Y-112574255D01*
X108743086Y-112505754D01*
X108755565Y-112395003D01*
X108755565Y-112394996D01*
X108735369Y-112215750D01*
X108735366Y-112215737D01*
X108675790Y-112045481D01*
X108675789Y-112045478D01*
X108669813Y-112035967D01*
X108650815Y-111968730D01*
X108669817Y-111904023D01*
X108675789Y-111894519D01*
X108735368Y-111724252D01*
X108736663Y-111712762D01*
X108755565Y-111545000D01*
X108755565Y-111544993D01*
X108735369Y-111365747D01*
X108735368Y-111365742D01*
X108711254Y-111296828D01*
X108675789Y-111195475D01*
X108579816Y-111042735D01*
X108452262Y-110915181D01*
X108405385Y-110885726D01*
X108299523Y-110819208D01*
X108129254Y-110759628D01*
X108129249Y-110759627D01*
X107950004Y-110739432D01*
X107949996Y-110739432D01*
X107770750Y-110759627D01*
X107770745Y-110759628D01*
X107600476Y-110819208D01*
X107447737Y-110915181D01*
X107320184Y-111042734D01*
X107224211Y-111195473D01*
X107164631Y-111365742D01*
X107164630Y-111365747D01*
X107144435Y-111544993D01*
X107144435Y-111545000D01*
X107164630Y-111724246D01*
X107164633Y-111724259D01*
X107224209Y-111894515D01*
X107224210Y-111894517D01*
X107224211Y-111894519D01*
X107230183Y-111904023D01*
X107230185Y-111904026D01*
X107249185Y-111971263D01*
X107230187Y-112035967D01*
X107224209Y-112045481D01*
X107164633Y-112215737D01*
X107164630Y-112215750D01*
X107144435Y-112394996D01*
X107144435Y-112395003D01*
X107164630Y-112574249D01*
X107164631Y-112574254D01*
X107224211Y-112744523D01*
X107320184Y-112897262D01*
X107338181Y-112915259D01*
X107371666Y-112976582D01*
X107374500Y-113002940D01*
X107374500Y-113629258D01*
X107354815Y-113696297D01*
X107338181Y-113716939D01*
X97741939Y-123313181D01*
X97680616Y-123346666D01*
X97654258Y-123349500D01*
X95888164Y-123349500D01*
X95821125Y-123329815D01*
X95775783Y-123277907D01*
X95767302Y-123259721D01*
X95767300Y-123259717D01*
X95634273Y-123069735D01*
X95634268Y-123069729D01*
X95470269Y-122905730D01*
X95408329Y-122862359D01*
X95280282Y-122772699D01*
X95070079Y-122674680D01*
X95070076Y-122674679D01*
X95070074Y-122674678D01*
X94846051Y-122614651D01*
X94846044Y-122614650D01*
X94615002Y-122594437D01*
X94614998Y-122594437D01*
X94383955Y-122614650D01*
X94383948Y-122614651D01*
X94159917Y-122674681D01*
X93949718Y-122772699D01*
X93949714Y-122772701D01*
X93759735Y-122905726D01*
X93759729Y-122905731D01*
X93595731Y-123069729D01*
X93595726Y-123069735D01*
X93462701Y-123259714D01*
X93462699Y-123259718D01*
X93364681Y-123469917D01*
X93364680Y-123469921D01*
X93312875Y-123663260D01*
X93304275Y-123695354D01*
X93267909Y-123755014D01*
X93205062Y-123785543D01*
X93135687Y-123777248D01*
X93081809Y-123732762D01*
X93060535Y-123666210D01*
X93060500Y-123663260D01*
X93060500Y-116955626D01*
X93080185Y-116888587D01*
X93132989Y-116842832D01*
X93202147Y-116832888D01*
X93265703Y-116861913D01*
X93303477Y-116920691D01*
X93303576Y-116921031D01*
X93338254Y-117040393D01*
X93338255Y-117040396D01*
X93421917Y-117181862D01*
X93421923Y-117181870D01*
X93538129Y-117298076D01*
X93538133Y-117298079D01*
X93538135Y-117298081D01*
X93679602Y-117381744D01*
X93721224Y-117393836D01*
X93837426Y-117427597D01*
X93837429Y-117427597D01*
X93837431Y-117427598D01*
X93874306Y-117430500D01*
X93874314Y-117430500D01*
X95355686Y-117430500D01*
X95355694Y-117430500D01*
X95392569Y-117427598D01*
X95392571Y-117427597D01*
X95392573Y-117427597D01*
X95434191Y-117415505D01*
X95550398Y-117381744D01*
X95691865Y-117298081D01*
X95808081Y-117181865D01*
X95891744Y-117040398D01*
X95937598Y-116882569D01*
X95940500Y-116845694D01*
X95940500Y-115364306D01*
X95937598Y-115327431D01*
X95926423Y-115288968D01*
X95891745Y-115169606D01*
X95891744Y-115169603D01*
X95891744Y-115169602D01*
X95808081Y-115028135D01*
X95808079Y-115028133D01*
X95808076Y-115028129D01*
X95691870Y-114911923D01*
X95691862Y-114911917D01*
X95550396Y-114828255D01*
X95550393Y-114828254D01*
X95392573Y-114782402D01*
X95392567Y-114782401D01*
X95355701Y-114779500D01*
X95355694Y-114779500D01*
X93874306Y-114779500D01*
X93874298Y-114779500D01*
X93837432Y-114782401D01*
X93837426Y-114782402D01*
X93679606Y-114828254D01*
X93679603Y-114828255D01*
X93538137Y-114911917D01*
X93538129Y-114911923D01*
X93421923Y-115028129D01*
X93421917Y-115028137D01*
X93338255Y-115169603D01*
X93338253Y-115169606D01*
X93303576Y-115288968D01*
X93265970Y-115347854D01*
X93202497Y-115377060D01*
X93133311Y-115367314D01*
X93080376Y-115321710D01*
X93060501Y-115254727D01*
X93060500Y-115254373D01*
X93060500Y-113585000D01*
X101664357Y-113585000D01*
X101684884Y-113806535D01*
X101684885Y-113806537D01*
X101745769Y-114020523D01*
X101745775Y-114020538D01*
X101844938Y-114219683D01*
X101844943Y-114219691D01*
X101979020Y-114397238D01*
X102143437Y-114547123D01*
X102143439Y-114547125D01*
X102332595Y-114664245D01*
X102332596Y-114664245D01*
X102332599Y-114664247D01*
X102540060Y-114744618D01*
X102758757Y-114785500D01*
X102758759Y-114785500D01*
X102981241Y-114785500D01*
X102981243Y-114785500D01*
X103199940Y-114744618D01*
X103407401Y-114664247D01*
X103596562Y-114547124D01*
X103760981Y-114397236D01*
X103895058Y-114219689D01*
X103994229Y-114020528D01*
X104055115Y-113806536D01*
X104075643Y-113585000D01*
X104055115Y-113363464D01*
X103994229Y-113149472D01*
X103982541Y-113125999D01*
X103895061Y-112950316D01*
X103895056Y-112950308D01*
X103760979Y-112772761D01*
X103596562Y-112622876D01*
X103596560Y-112622874D01*
X103407404Y-112505754D01*
X103407398Y-112505752D01*
X103199940Y-112425382D01*
X102981243Y-112384500D01*
X102758757Y-112384500D01*
X102540060Y-112425382D01*
X102408864Y-112476207D01*
X102332601Y-112505752D01*
X102332595Y-112505754D01*
X102143439Y-112622874D01*
X102143437Y-112622876D01*
X101979020Y-112772761D01*
X101844943Y-112950308D01*
X101844938Y-112950316D01*
X101745775Y-113149461D01*
X101745769Y-113149476D01*
X101684885Y-113363462D01*
X101684884Y-113363464D01*
X101664357Y-113584999D01*
X101664357Y-113585000D01*
X93060500Y-113585000D01*
X93060500Y-112166739D01*
X93080185Y-112099700D01*
X93132989Y-112053945D01*
X93202147Y-112044001D01*
X93265703Y-112073026D01*
X93303477Y-112131804D01*
X93304275Y-112134645D01*
X93304650Y-112136044D01*
X93304651Y-112136050D01*
X93312874Y-112166739D01*
X93364678Y-112360074D01*
X93364679Y-112360076D01*
X93364680Y-112360079D01*
X93462699Y-112570282D01*
X93595730Y-112760269D01*
X93759731Y-112924270D01*
X93949718Y-113057301D01*
X94159921Y-113155320D01*
X94383950Y-113215349D01*
X94548985Y-113229787D01*
X94614998Y-113235563D01*
X94615000Y-113235563D01*
X94615002Y-113235563D01*
X94672762Y-113230509D01*
X94846050Y-113215349D01*
X95070079Y-113155320D01*
X95280282Y-113057301D01*
X95470269Y-112924270D01*
X95634270Y-112760269D01*
X95767301Y-112570282D01*
X95865320Y-112360079D01*
X95925349Y-112136050D01*
X95945563Y-111905000D01*
X95925349Y-111673950D01*
X95865320Y-111449921D01*
X95767301Y-111239719D01*
X95767299Y-111239716D01*
X95767298Y-111239714D01*
X95634273Y-111049735D01*
X95634268Y-111049729D01*
X95470269Y-110885730D01*
X95375266Y-110819208D01*
X95280282Y-110752699D01*
X95070079Y-110654680D01*
X95070076Y-110654679D01*
X95070074Y-110654678D01*
X94846051Y-110594651D01*
X94846044Y-110594650D01*
X94615002Y-110574437D01*
X94614998Y-110574437D01*
X94383955Y-110594650D01*
X94383948Y-110594651D01*
X94159917Y-110654681D01*
X93949718Y-110752699D01*
X93949714Y-110752701D01*
X93759735Y-110885726D01*
X93759729Y-110885731D01*
X93595731Y-111049729D01*
X93595726Y-111049735D01*
X93462701Y-111239714D01*
X93462699Y-111239718D01*
X93364681Y-111449917D01*
X93364680Y-111449921D01*
X93312875Y-111643260D01*
X93304275Y-111675354D01*
X93267909Y-111735014D01*
X93205062Y-111765543D01*
X93135687Y-111757248D01*
X93081809Y-111712762D01*
X93060535Y-111646210D01*
X93060500Y-111643260D01*
X93060500Y-107966739D01*
X93080185Y-107899700D01*
X93132989Y-107853945D01*
X93202147Y-107844001D01*
X93265703Y-107873026D01*
X93303477Y-107931804D01*
X93304275Y-107934645D01*
X93304650Y-107936044D01*
X93304651Y-107936050D01*
X93320108Y-107993735D01*
X93364678Y-108160074D01*
X93364679Y-108160076D01*
X93364680Y-108160079D01*
X93462699Y-108370282D01*
X93595730Y-108560269D01*
X93759731Y-108724270D01*
X93949718Y-108857301D01*
X94159921Y-108955320D01*
X94383950Y-109015349D01*
X94548985Y-109029787D01*
X94614998Y-109035563D01*
X94615000Y-109035563D01*
X94615002Y-109035563D01*
X94672762Y-109030509D01*
X94846050Y-109015349D01*
X95070079Y-108955320D01*
X95280282Y-108857301D01*
X95470269Y-108724270D01*
X95609539Y-108585000D01*
X101664357Y-108585000D01*
X101684884Y-108806535D01*
X101684885Y-108806537D01*
X101745769Y-109020523D01*
X101745775Y-109020538D01*
X101844938Y-109219683D01*
X101844943Y-109219691D01*
X101979020Y-109397238D01*
X102143437Y-109547123D01*
X102143439Y-109547125D01*
X102332595Y-109664245D01*
X102332596Y-109664245D01*
X102332599Y-109664247D01*
X102540060Y-109744618D01*
X102758757Y-109785500D01*
X102758759Y-109785500D01*
X102981241Y-109785500D01*
X102981243Y-109785500D01*
X103199940Y-109744618D01*
X103407401Y-109664247D01*
X103596562Y-109547124D01*
X103760981Y-109397236D01*
X103895058Y-109219689D01*
X103994229Y-109020528D01*
X104055115Y-108806536D01*
X104075643Y-108585000D01*
X104055115Y-108363464D01*
X103994229Y-108149472D01*
X103989888Y-108140754D01*
X103895061Y-107950316D01*
X103895056Y-107950308D01*
X103760979Y-107772761D01*
X103596562Y-107622876D01*
X103596560Y-107622874D01*
X103407404Y-107505754D01*
X103407398Y-107505752D01*
X103199940Y-107425382D01*
X103047513Y-107396888D01*
X102985234Y-107365221D01*
X102949961Y-107304908D01*
X102952895Y-107235100D01*
X102993104Y-107177960D01*
X103047513Y-107153111D01*
X103199940Y-107124618D01*
X103407401Y-107044247D01*
X103596562Y-106927124D01*
X103760981Y-106777236D01*
X103895058Y-106599689D01*
X103994229Y-106400528D01*
X104055115Y-106186536D01*
X104075643Y-105965000D01*
X104063592Y-105834952D01*
X104055115Y-105743464D01*
X104055114Y-105743462D01*
X104054005Y-105739565D01*
X103994229Y-105529472D01*
X103994224Y-105529461D01*
X103895061Y-105330316D01*
X103895056Y-105330308D01*
X103760979Y-105152761D01*
X103625219Y-105029000D01*
X112921652Y-105029000D01*
X112938411Y-105338111D01*
X112941028Y-105386368D01*
X112941029Y-105386385D01*
X112998926Y-105739539D01*
X112998932Y-105739565D01*
X113094672Y-106084392D01*
X113094674Y-106084399D01*
X113227142Y-106416870D01*
X113227151Y-106416888D01*
X113394784Y-106733077D01*
X113394787Y-106733082D01*
X113394789Y-106733085D01*
X113569856Y-106991290D01*
X113595634Y-107029309D01*
X113595641Y-107029319D01*
X113827331Y-107302085D01*
X113827332Y-107302086D01*
X114087163Y-107548211D01*
X114372081Y-107764800D01*
X114678747Y-107949315D01*
X114678749Y-107949316D01*
X114678751Y-107949317D01*
X114678755Y-107949319D01*
X114970633Y-108084355D01*
X115003565Y-108099591D01*
X115342726Y-108213868D01*
X115692254Y-108290805D01*
X116048052Y-108329500D01*
X116048058Y-108329500D01*
X116405942Y-108329500D01*
X116405948Y-108329500D01*
X116761746Y-108290805D01*
X117111274Y-108213868D01*
X117450435Y-108099591D01*
X117775253Y-107949315D01*
X118081919Y-107764800D01*
X118366837Y-107548211D01*
X118626668Y-107302086D01*
X118858365Y-107029311D01*
X119059211Y-106733085D01*
X119226853Y-106416880D01*
X119359324Y-106084403D01*
X119455071Y-105739552D01*
X119506871Y-105423585D01*
X119512970Y-105386385D01*
X119512970Y-105386382D01*
X119512972Y-105386371D01*
X119532348Y-105029000D01*
X119530931Y-105002874D01*
X119529868Y-104983266D01*
X119512972Y-104671629D01*
X119455071Y-104318448D01*
X119359324Y-103973597D01*
X119262985Y-103731804D01*
X119226857Y-103641129D01*
X119226848Y-103641111D01*
X119059215Y-103324922D01*
X119059213Y-103324919D01*
X119059211Y-103324915D01*
X118858365Y-103028689D01*
X118858361Y-103028684D01*
X118858358Y-103028680D01*
X118626668Y-102755914D01*
X118514572Y-102649731D01*
X118366837Y-102509789D01*
X118366830Y-102509783D01*
X118366827Y-102509781D01*
X118299245Y-102458407D01*
X118081919Y-102293200D01*
X117775253Y-102108685D01*
X117775252Y-102108684D01*
X117775248Y-102108682D01*
X117775244Y-102108680D01*
X117450447Y-101958414D01*
X117450441Y-101958411D01*
X117450435Y-101958409D01*
X117280854Y-101901270D01*
X117111273Y-101844131D01*
X116761744Y-101767194D01*
X116405949Y-101728500D01*
X116405948Y-101728500D01*
X116048052Y-101728500D01*
X116048050Y-101728500D01*
X115692255Y-101767194D01*
X115342726Y-101844131D01*
X115096418Y-101927123D01*
X115003565Y-101958409D01*
X115003563Y-101958410D01*
X115003552Y-101958414D01*
X114678755Y-102108680D01*
X114678751Y-102108682D01*
X114450367Y-102246096D01*
X114372081Y-102293200D01*
X114293811Y-102352699D01*
X114087172Y-102509781D01*
X114087163Y-102509789D01*
X113827331Y-102755914D01*
X113595641Y-103028680D01*
X113595634Y-103028690D01*
X113394790Y-103324913D01*
X113394784Y-103324922D01*
X113227151Y-103641111D01*
X113227142Y-103641129D01*
X113094674Y-103973600D01*
X113094672Y-103973607D01*
X112998932Y-104318434D01*
X112998926Y-104318460D01*
X112941029Y-104671614D01*
X112941028Y-104671631D01*
X112923069Y-105002874D01*
X112921652Y-105029000D01*
X103625219Y-105029000D01*
X103596562Y-105002876D01*
X103596560Y-105002874D01*
X103407404Y-104885754D01*
X103407398Y-104885752D01*
X103199940Y-104805382D01*
X102981243Y-104764500D01*
X102758757Y-104764500D01*
X102540060Y-104805382D01*
X102462154Y-104835563D01*
X102332601Y-104885752D01*
X102332595Y-104885754D01*
X102143439Y-105002874D01*
X102143437Y-105002876D01*
X101979020Y-105152761D01*
X101844943Y-105330308D01*
X101844938Y-105330316D01*
X101745775Y-105529461D01*
X101745769Y-105529476D01*
X101684885Y-105743462D01*
X101684884Y-105743464D01*
X101664357Y-105964999D01*
X101664357Y-105965000D01*
X101684884Y-106186535D01*
X101684885Y-106186537D01*
X101745769Y-106400523D01*
X101745775Y-106400538D01*
X101844938Y-106599683D01*
X101844943Y-106599691D01*
X101979020Y-106777238D01*
X102143437Y-106927123D01*
X102143439Y-106927125D01*
X102332595Y-107044245D01*
X102332596Y-107044245D01*
X102332599Y-107044247D01*
X102540060Y-107124618D01*
X102692484Y-107153111D01*
X102754765Y-107184780D01*
X102790038Y-107245092D01*
X102787104Y-107314900D01*
X102746895Y-107372040D01*
X102692485Y-107396888D01*
X102540060Y-107425382D01*
X102493912Y-107443260D01*
X102332601Y-107505752D01*
X102332595Y-107505754D01*
X102143439Y-107622874D01*
X102143437Y-107622876D01*
X101979020Y-107772761D01*
X101844943Y-107950308D01*
X101844938Y-107950316D01*
X101745775Y-108149461D01*
X101745769Y-108149476D01*
X101684885Y-108363462D01*
X101684884Y-108363464D01*
X101664357Y-108584999D01*
X101664357Y-108585000D01*
X95609539Y-108585000D01*
X95634270Y-108560269D01*
X95767301Y-108370282D01*
X95865320Y-108160079D01*
X95925349Y-107936050D01*
X95945563Y-107705000D01*
X95925349Y-107473950D01*
X95865320Y-107249921D01*
X95767301Y-107039719D01*
X95767299Y-107039716D01*
X95767298Y-107039714D01*
X95634273Y-106849735D01*
X95634268Y-106849729D01*
X95470269Y-106685730D01*
X95455703Y-106675531D01*
X95280282Y-106552699D01*
X95070079Y-106454680D01*
X95070076Y-106454679D01*
X95070074Y-106454678D01*
X94846051Y-106394651D01*
X94846044Y-106394650D01*
X94615002Y-106374437D01*
X94614998Y-106374437D01*
X94383955Y-106394650D01*
X94383948Y-106394651D01*
X94159917Y-106454681D01*
X93949718Y-106552699D01*
X93949714Y-106552701D01*
X93759735Y-106685726D01*
X93759729Y-106685731D01*
X93595731Y-106849729D01*
X93595726Y-106849735D01*
X93462701Y-107039714D01*
X93462699Y-107039718D01*
X93364681Y-107249917D01*
X93364680Y-107249921D01*
X93312875Y-107443260D01*
X93304275Y-107475354D01*
X93267909Y-107535014D01*
X93205062Y-107565543D01*
X93135687Y-107557248D01*
X93081809Y-107512762D01*
X93060535Y-107446210D01*
X93060500Y-107443260D01*
X93060500Y-103766739D01*
X93080185Y-103699700D01*
X93132989Y-103653945D01*
X93202147Y-103644001D01*
X93265703Y-103673026D01*
X93303477Y-103731804D01*
X93304275Y-103734645D01*
X93304650Y-103736044D01*
X93304651Y-103736050D01*
X93312874Y-103766739D01*
X93364678Y-103960074D01*
X93364679Y-103960076D01*
X93364680Y-103960079D01*
X93462699Y-104170282D01*
X93595730Y-104360269D01*
X93759731Y-104524270D01*
X93949718Y-104657301D01*
X94159921Y-104755320D01*
X94383950Y-104815349D01*
X94548985Y-104829787D01*
X94614998Y-104835563D01*
X94615000Y-104835563D01*
X94615002Y-104835563D01*
X94672762Y-104830509D01*
X94846050Y-104815349D01*
X95070079Y-104755320D01*
X95280282Y-104657301D01*
X95470269Y-104524270D01*
X95634270Y-104360269D01*
X95767301Y-104170282D01*
X95865320Y-103960079D01*
X95925349Y-103736050D01*
X95945563Y-103505000D01*
X95925349Y-103273950D01*
X95865320Y-103049921D01*
X95767301Y-102839719D01*
X95767299Y-102839716D01*
X95767298Y-102839714D01*
X95634273Y-102649735D01*
X95634268Y-102649729D01*
X95470269Y-102485730D01*
X95470263Y-102485726D01*
X95280282Y-102352699D01*
X95070079Y-102254680D01*
X95070076Y-102254679D01*
X95070074Y-102254678D01*
X94846051Y-102194651D01*
X94846044Y-102194650D01*
X94615002Y-102174437D01*
X94614998Y-102174437D01*
X94383955Y-102194650D01*
X94383948Y-102194651D01*
X94159917Y-102254681D01*
X93949718Y-102352699D01*
X93949714Y-102352701D01*
X93759735Y-102485726D01*
X93759729Y-102485731D01*
X93595731Y-102649729D01*
X93595726Y-102649735D01*
X93462701Y-102839714D01*
X93462699Y-102839718D01*
X93364681Y-103049917D01*
X93364680Y-103049921D01*
X93312875Y-103243260D01*
X93304275Y-103275354D01*
X93267909Y-103335014D01*
X93205062Y-103365543D01*
X93135687Y-103357248D01*
X93081809Y-103312762D01*
X93060535Y-103246210D01*
X93060500Y-103243260D01*
X93060500Y-100965000D01*
X101664357Y-100965000D01*
X101684884Y-101186535D01*
X101684885Y-101186537D01*
X101745769Y-101400523D01*
X101745775Y-101400538D01*
X101844938Y-101599683D01*
X101844943Y-101599691D01*
X101979020Y-101777238D01*
X102143437Y-101927123D01*
X102143439Y-101927125D01*
X102332595Y-102044245D01*
X102332596Y-102044245D01*
X102332599Y-102044247D01*
X102540060Y-102124618D01*
X102758757Y-102165500D01*
X102758759Y-102165500D01*
X102981241Y-102165500D01*
X102981243Y-102165500D01*
X103199940Y-102124618D01*
X103407401Y-102044247D01*
X103596562Y-101927124D01*
X103760981Y-101777236D01*
X103895058Y-101599689D01*
X103994229Y-101400528D01*
X104055115Y-101186536D01*
X104075643Y-100965000D01*
X104055115Y-100743464D01*
X103994229Y-100529472D01*
X103994224Y-100529461D01*
X103895061Y-100330316D01*
X103895056Y-100330308D01*
X103760979Y-100152761D01*
X103596562Y-100002876D01*
X103596560Y-100002874D01*
X103407404Y-99885754D01*
X103407398Y-99885752D01*
X103199940Y-99805382D01*
X102981243Y-99764500D01*
X102758757Y-99764500D01*
X102540060Y-99805382D01*
X102408864Y-99856207D01*
X102332601Y-99885752D01*
X102332595Y-99885754D01*
X102143439Y-100002874D01*
X102143437Y-100002876D01*
X101979020Y-100152761D01*
X101844943Y-100330308D01*
X101844938Y-100330316D01*
X101745775Y-100529461D01*
X101745769Y-100529476D01*
X101684885Y-100743462D01*
X101684884Y-100743464D01*
X101664357Y-100964999D01*
X101664357Y-100965000D01*
X93060500Y-100965000D01*
X93060500Y-97995458D01*
X93080185Y-97928419D01*
X93132989Y-97882664D01*
X93202147Y-97872720D01*
X93265703Y-97901745D01*
X93279005Y-97915179D01*
X93485332Y-98158086D01*
X93745163Y-98404211D01*
X94030081Y-98620800D01*
X94336747Y-98805315D01*
X94336749Y-98805316D01*
X94336751Y-98805317D01*
X94336755Y-98805319D01*
X94661552Y-98955585D01*
X94661565Y-98955591D01*
X95000726Y-99069868D01*
X95350254Y-99146805D01*
X95706052Y-99185500D01*
X95706058Y-99185500D01*
X96063942Y-99185500D01*
X96063948Y-99185500D01*
X96419746Y-99146805D01*
X96769274Y-99069868D01*
X97108435Y-98955591D01*
X97433253Y-98805315D01*
X97739919Y-98620800D01*
X98024837Y-98404211D01*
X98284668Y-98158086D01*
X98516365Y-97885311D01*
X98717211Y-97589085D01*
X98884853Y-97272880D01*
X99017324Y-96940403D01*
X99113071Y-96595552D01*
X99158160Y-96320523D01*
X99170970Y-96242385D01*
X99170970Y-96242382D01*
X99170972Y-96242371D01*
X99190348Y-95885000D01*
X99170972Y-95527629D01*
X99169911Y-95521160D01*
X99113073Y-95174460D01*
X99113072Y-95174459D01*
X99113071Y-95174448D01*
X99017324Y-94829597D01*
X98930230Y-94611008D01*
X98884857Y-94497129D01*
X98884848Y-94497111D01*
X98884168Y-94495829D01*
X98810807Y-94357456D01*
X98717215Y-94180922D01*
X98717213Y-94180919D01*
X98717211Y-94180915D01*
X98516365Y-93884689D01*
X98516361Y-93884684D01*
X98516358Y-93884680D01*
X98284668Y-93611914D01*
X98083991Y-93421823D01*
X98024837Y-93365789D01*
X98024830Y-93365783D01*
X98024827Y-93365781D01*
X97916214Y-93283216D01*
X97874756Y-93226975D01*
X97870287Y-93157248D01*
X97904224Y-93096174D01*
X97965792Y-93063142D01*
X97991255Y-93060500D01*
X125768182Y-93060500D01*
X125835221Y-93080185D01*
G37*
%TD.AperFunction*%
%TD*%
M02*
