M48
; DRILL file {KiCad 7.0.11+dfsg-1build4} date Сб 26 июл 2025 23:15:45
; FORMAT={-:-/ absolute / inch / decimal}
; #@! TF.CreationDate,2025-07-26T23:15:45+04:00
; #@! TF.GenerationSoftware,Kicad,Pcbnew,7.0.11+dfsg-1build4
; #@! TF.FileFunction,Plated,1,2,PTH
FMAT,2
INCH
; #@! TA.AperFunction,Plated,PTH,ViaDrill
T1C0.0157
; #@! TA.AperFunction,Plated,PTH,ComponentDrill
T2C0.0315
; #@! TA.AperFunction,Plated,PTH,ComponentDrill
T3C0.0335
; #@! TA.AperFunction,Plated,PTH,ComponentDrill
T4C0.0394
; #@! TA.AperFunction,Plated,PTH,ComponentDrill
T5C0.0610
; #@! TA.AperFunction,Plated,PTH,ComponentDrill
T6C0.1260
%
G90
G05
T1
X4.2Y-4.7
X4.2Y-4.875
X4.2Y-5.025
X4.25Y-5.225
X4.25Y-5.425
X4.3Y-4.6
X4.3Y-4.875
X4.3Y-5.025
X4.4Y-4.875
X4.4Y-5.025
X4.45Y-3.825
X4.45Y-5.425
X4.45Y-5.625
X4.575Y-4.35
X4.575Y-4.4
X4.65Y-3.825
X4.65Y-4.025
X4.65Y-5.425
X4.65Y-5.625
X4.7741Y-4.325
X4.7741Y-4.375
X4.7741Y-4.425
X4.7741Y-4.475
X4.7741Y-4.975
X4.7741Y-5.025
X4.7741Y-5.075
X4.7741Y-5.125
X4.8241Y-4.325
X4.8241Y-4.375
X4.8241Y-4.425
X4.8241Y-4.475
X4.8241Y-4.975
X4.8241Y-5.025
X4.8241Y-5.075
X4.825Y-5.125
X4.85Y-4.225
X4.85Y-4.525
X4.85Y-4.575
X4.85Y-4.625
X4.85Y-4.825
X4.85Y-4.875
X4.85Y-4.925
X4.9Y-4.525
X4.9Y-4.575
X4.9Y-4.625
X4.9Y-4.825
X4.9Y-4.875
X4.9Y-4.925
X4.95Y-4.525
X4.95Y-4.575
X4.95Y-4.625
X4.95Y-4.825
X4.95Y-4.875
X4.95Y-4.925
X5.05Y-3.825
X5.05Y-4.025
X5.05Y-4.225
X5.05Y-5.425
X5.05Y-5.625
X5.125Y-4.35
X5.125Y-4.4
X5.125Y-4.45
X5.125Y-5.05
X5.125Y-5.15
X5.1259Y-4.3
X5.1259Y-5.0
X5.1259Y-5.1
X5.175Y-4.3
X5.175Y-4.35
X5.175Y-4.4
X5.175Y-5.05
X5.175Y-5.1
X5.175Y-5.15
X5.1759Y-4.45
X5.1759Y-5.0
X5.25Y-3.825
X5.25Y-5.625
X5.3949Y-4.65
X5.3949Y-4.8
X5.55Y-3.875
X5.55Y-3.925
X5.55Y-3.975
X5.55Y-4.025
X5.55Y-5.425
X5.55Y-5.475
X5.55Y-5.525
X5.55Y-5.575
X5.6Y-4.25
X5.6Y-4.35
X5.6Y-4.55
X5.6Y-4.65
X5.6Y-4.8
X5.6Y-4.9
X5.6Y-5.1
X5.6Y-5.2
X5.7Y-4.15
X5.7Y-4.25
X5.7Y-4.35
X5.7Y-4.55
X5.7Y-4.65
X5.7Y-4.8
X5.7Y-4.9
X5.7Y-5.1
X5.7Y-5.2
X5.7Y-5.3
X5.8Y-4.05
X5.8Y-4.15
X5.8Y-4.25
X5.8Y-4.65
X5.8Y-4.8
X5.8Y-5.2
X5.8Y-5.3
X5.8Y-5.4
X5.9Y-3.95
X5.9Y-4.05
X5.9Y-5.4
X5.9Y-5.5
X6.0Y-4.05
X6.0Y-5.4
X6.025Y-3.775
T2
X4.36Y-4.0031
X4.36Y-4.2
X4.36Y-4.3031
X4.36Y-4.5
T3
X4.05Y-4.175
X4.05Y-4.3404
X4.05Y-4.7789
X4.05Y-4.9443
X4.05Y-5.1096
X4.05Y-5.275
T4
X5.475Y-3.95
X5.475Y-5.5
X5.6719Y-3.95
X5.6719Y-5.5
T5
X6.25Y-4.136
X6.25Y-4.325
X6.25Y-4.811
X6.25Y-5.0
T6
X4.0991Y-3.85
X4.0991Y-5.6
X4.9Y-3.937
X4.9Y-5.5118
X6.225Y-3.85
X6.225Y-5.6
M30
