%TF.GenerationSoftware,KiCad,Pcbnew,7.0.11+dfsg-1build4*%
%TF.CreationDate,2025-07-13T15:39:34+04:00*%
%TF.ProjectId,tpa3116_amplifier_board,74706133-3131-4365-9f61-6d706c696669,rev?*%
%TF.SameCoordinates,Original*%
%TF.FileFunction,Soldermask,Top*%
%TF.FilePolarity,Negative*%
%FSLAX46Y46*%
G04 Gerber Fmt 4.6, Leading zero omitted, Abs format (unit mm)*
G04 Created by KiCad (PCBNEW 7.0.11+dfsg-1build4) date 2025-07-13 15:39:34*
%MOMM*%
%LPD*%
G01*
G04 APERTURE LIST*
G04 Aperture macros list*
%AMRoundRect*
0 Rectangle with rounded corners*
0 $1 Rounding radius*
0 $2 $3 $4 $5 $6 $7 $8 $9 X,Y pos of 4 corners*
0 Add a 4 corners polygon primitive as box body*
4,1,4,$2,$3,$4,$5,$6,$7,$8,$9,$2,$3,0*
0 Add four circle primitives for the rounded corners*
1,1,$1+$1,$2,$3*
1,1,$1+$1,$4,$5*
1,1,$1+$1,$6,$7*
1,1,$1+$1,$8,$9*
0 Add four rect primitives between the rounded corners*
20,1,$1+$1,$2,$3,$4,$5,0*
20,1,$1+$1,$4,$5,$6,$7,0*
20,1,$1+$1,$6,$7,$8,$9,0*
20,1,$1+$1,$8,$9,$2,$3,0*%
%AMFreePoly0*
4,1,19,0.500000,-0.750000,0.000000,-0.750000,0.000000,-0.744911,-0.071157,-0.744911,-0.207708,-0.704816,-0.327430,-0.627875,-0.420627,-0.520320,-0.479746,-0.390866,-0.500000,-0.250000,-0.500000,0.250000,-0.479746,0.390866,-0.420627,0.520320,-0.327430,0.627875,-0.207708,0.704816,-0.071157,0.744911,0.000000,0.744911,0.000000,0.750000,0.500000,0.750000,0.500000,-0.750000,0.500000,-0.750000,
$1*%
%AMFreePoly1*
4,1,19,0.000000,0.744911,0.071157,0.744911,0.207708,0.704816,0.327430,0.627875,0.420627,0.520320,0.479746,0.390866,0.500000,0.250000,0.500000,-0.250000,0.479746,-0.390866,0.420627,-0.520320,0.327430,-0.627875,0.207708,-0.704816,0.071157,-0.744911,0.000000,-0.744911,0.000000,-0.750000,-0.500000,-0.750000,-0.500000,0.750000,0.000000,0.750000,0.000000,0.744911,0.000000,0.744911,
$1*%
G04 Aperture macros list end*
%ADD10R,2.900000X5.400000*%
%ADD11C,1.600000*%
%ADD12R,1.600000X1.600000*%
%ADD13FreePoly0,90.000000*%
%ADD14FreePoly1,90.000000*%
%ADD15C,1.850000*%
%ADD16RoundRect,0.250000X0.675000X-0.675000X0.675000X0.675000X-0.675000X0.675000X-0.675000X-0.675000X0*%
%ADD17C,5.600000*%
%ADD18RoundRect,0.225000X0.250000X-0.225000X0.250000X0.225000X-0.250000X0.225000X-0.250000X-0.225000X0*%
%ADD19RoundRect,0.250000X-0.250000X-0.475000X0.250000X-0.475000X0.250000X0.475000X-0.250000X0.475000X0*%
%ADD20RoundRect,0.225000X-0.250000X0.225000X-0.250000X-0.225000X0.250000X-0.225000X0.250000X0.225000X0*%
%ADD21RoundRect,0.225000X0.225000X0.250000X-0.225000X0.250000X-0.225000X-0.250000X0.225000X-0.250000X0*%
%ADD22RoundRect,0.200000X0.200000X0.275000X-0.200000X0.275000X-0.200000X-0.275000X0.200000X-0.275000X0*%
%ADD23RoundRect,0.250000X-0.450000X0.262500X-0.450000X-0.262500X0.450000X-0.262500X0.450000X0.262500X0*%
%ADD24C,2.750000*%
%ADD25RoundRect,0.250000X-1.125000X1.125000X-1.125000X-1.125000X1.125000X-1.125000X1.125000X1.125000X0*%
%ADD26FreePoly0,180.000000*%
%ADD27FreePoly1,180.000000*%
%ADD28RoundRect,0.200000X-0.200000X-0.275000X0.200000X-0.275000X0.200000X0.275000X-0.200000X0.275000X0*%
%ADD29RoundRect,0.225000X-0.225000X-0.250000X0.225000X-0.250000X0.225000X0.250000X-0.225000X0.250000X0*%
%ADD30RoundRect,0.250000X-1.125000X-1.125000X1.125000X-1.125000X1.125000X1.125000X-1.125000X1.125000X0*%
%ADD31R,3.040000X3.740000*%
%ADD32R,1.475000X0.450000*%
G04 APERTURE END LIST*
D10*
%TO.C,L3*%
X147190000Y-127020000D03*
X137290000Y-127020000D03*
%TD*%
D11*
%TO.C,C3*%
X102870000Y-109895000D03*
X102870000Y-114895000D03*
%TD*%
%TO.C,C4*%
X102848000Y-137795000D03*
X102848000Y-132795000D03*
%TD*%
%TO.C,C20*%
X155495000Y-136525000D03*
X150495000Y-136525000D03*
%TD*%
%TO.C,C19*%
X155495000Y-123210000D03*
X150495000Y-123210000D03*
%TD*%
%TO.C,C18*%
X155535000Y-109220000D03*
X150535000Y-109220000D03*
%TD*%
%TO.C,C17*%
X155495000Y-95885000D03*
X150495000Y-95885000D03*
%TD*%
%TO.C,C2*%
X102848000Y-125255000D03*
X102848000Y-130255000D03*
%TD*%
%TO.C,C1*%
X102870000Y-102275000D03*
X102870000Y-107275000D03*
%TD*%
%TO.C,C16*%
X132715000Y-134620000D03*
D12*
X129215000Y-134620000D03*
%TD*%
%TO.C,C15*%
X129215000Y-105410000D03*
D11*
X132715000Y-105410000D03*
%TD*%
D13*
%TO.C,JP3*%
X128270000Y-116205000D03*
D14*
X128270000Y-114905000D03*
%TD*%
D15*
%TO.C,J1*%
X94615000Y-125195000D03*
X94615000Y-129395000D03*
X94615000Y-133595000D03*
D16*
X94615000Y-137795000D03*
%TD*%
D17*
%TO.C,H3*%
X160020000Y-144145000D03*
%TD*%
%TO.C,H6*%
X116205000Y-135001000D03*
%TD*%
D18*
%TO.C,C23*%
X155575000Y-129840000D03*
X155575000Y-128290000D03*
%TD*%
D19*
%TO.C,C6*%
X104140000Y-119380000D03*
X102240000Y-119380000D03*
%TD*%
D20*
%TO.C,C12*%
X125730000Y-118885000D03*
X125730000Y-117335000D03*
%TD*%
D21*
%TO.C,C7*%
X119380000Y-112395000D03*
X117830000Y-112395000D03*
%TD*%
D18*
%TO.C,C13*%
X125730000Y-120510000D03*
X125730000Y-122060000D03*
%TD*%
D22*
%TO.C,R1*%
X106490000Y-121285000D03*
X108140000Y-121285000D03*
%TD*%
D21*
%TO.C,C9*%
X119380000Y-127635000D03*
X117830000Y-127635000D03*
%TD*%
D23*
%TO.C,R6*%
X153670000Y-102790003D03*
X153670000Y-100965003D03*
%TD*%
D10*
%TO.C,L2*%
X137290000Y-113030000D03*
X147190000Y-113030000D03*
%TD*%
D24*
%TO.C,J4*%
X160655000Y-113030000D03*
D25*
X160655000Y-107630000D03*
%TD*%
D26*
%TO.C,JP2*%
X108600000Y-137795000D03*
D27*
X107300000Y-137795000D03*
%TD*%
D13*
%TO.C,JP4*%
X128270000Y-124490000D03*
D14*
X128270000Y-123190000D03*
%TD*%
D17*
%TO.C,H2*%
X95885000Y-144145000D03*
%TD*%
D28*
%TO.C,R5*%
X108140000Y-114935000D03*
X106490000Y-114935000D03*
%TD*%
D18*
%TO.C,C11*%
X125730000Y-113665000D03*
X125730000Y-112115000D03*
%TD*%
%TO.C,C28*%
X151130000Y-143810000D03*
X151130000Y-142260000D03*
%TD*%
D20*
%TO.C,C24*%
X155575000Y-141625000D03*
X155575000Y-143175000D03*
%TD*%
D23*
%TO.C,R8*%
X153797000Y-128243000D03*
X153797000Y-130068000D03*
%TD*%
D29*
%TO.C,C8*%
X117830000Y-109855000D03*
X119380000Y-109855000D03*
%TD*%
D18*
%TO.C,C25*%
X151130000Y-103150000D03*
X151130000Y-101600000D03*
%TD*%
D24*
%TO.C,J3*%
X132715000Y-95250000D03*
D30*
X127315000Y-95250000D03*
%TD*%
D23*
%TO.C,R7*%
X153670000Y-116125000D03*
X153670000Y-114300000D03*
%TD*%
D10*
%TO.C,L4*%
X137290000Y-140355000D03*
X147190000Y-140355000D03*
%TD*%
D16*
%TO.C,J2*%
X94615000Y-114875000D03*
D15*
X94615000Y-110675000D03*
X94615000Y-106475000D03*
X94615000Y-102275000D03*
%TD*%
D31*
%TO.C,IC1*%
X116227000Y-120015000D03*
D32*
X120015000Y-115140000D03*
X120015000Y-115790000D03*
X120015000Y-116440000D03*
X120015000Y-117090000D03*
X120015000Y-117740000D03*
X120015000Y-118390000D03*
X120015000Y-119040000D03*
X120015000Y-119690000D03*
X120015000Y-120340000D03*
X120015000Y-120990000D03*
X120015000Y-121640000D03*
X120015000Y-122290000D03*
X120015000Y-122940000D03*
X120015000Y-123590000D03*
X120015000Y-124240000D03*
X120015000Y-124890000D03*
X112439000Y-124890000D03*
X112439000Y-124240000D03*
X112439000Y-123590000D03*
X112439000Y-122940000D03*
X112439000Y-122290000D03*
X112439000Y-121640000D03*
X112439000Y-120990000D03*
X112439000Y-120340000D03*
X112439000Y-119690000D03*
X112439000Y-119040000D03*
X112439000Y-118390000D03*
X112439000Y-117740000D03*
X112439000Y-117090000D03*
X112439000Y-116440000D03*
X112439000Y-115790000D03*
X112439000Y-115140000D03*
%TD*%
D17*
%TO.C,H1*%
X95885000Y-95885000D03*
%TD*%
D25*
%TO.C,J5*%
X160655000Y-127020000D03*
D24*
X160655000Y-132420000D03*
%TD*%
D22*
%TO.C,R3*%
X108140000Y-126365000D03*
X106490000Y-126365000D03*
%TD*%
D29*
%TO.C,C5*%
X102568000Y-121285000D03*
X104118000Y-121285000D03*
%TD*%
D17*
%TO.C,H5*%
X116227000Y-105029000D03*
%TD*%
D28*
%TO.C,R4*%
X106490000Y-130175000D03*
X108140000Y-130175000D03*
%TD*%
D10*
%TO.C,L1*%
X147190000Y-99695000D03*
X137290000Y-99695000D03*
%TD*%
D17*
%TO.C,H4*%
X160020000Y-95885000D03*
%TD*%
D21*
%TO.C,C10*%
X119380000Y-130175000D03*
X117830000Y-130175000D03*
%TD*%
D28*
%TO.C,R2*%
X108140000Y-119380000D03*
X106490000Y-119380000D03*
%TD*%
D18*
%TO.C,C21*%
X155575000Y-100965000D03*
X155575000Y-102515000D03*
%TD*%
D23*
%TO.C,R9*%
X153670000Y-141625000D03*
X153670000Y-143450000D03*
%TD*%
D18*
%TO.C,C26*%
X151130000Y-114935000D03*
X151130000Y-116485000D03*
%TD*%
%TO.C,C27*%
X151130000Y-130475000D03*
X151130000Y-128925000D03*
%TD*%
D20*
%TO.C,C14*%
X125730000Y-127280000D03*
X125730000Y-125730000D03*
%TD*%
D26*
%TO.C,JP1*%
X108585000Y-140970000D03*
D27*
X107285000Y-140970000D03*
%TD*%
D20*
%TO.C,C22*%
X155575000Y-115850000D03*
X155575000Y-114300000D03*
%TD*%
M02*
