%TF.GenerationSoftware,KiCad,Pcbnew,7.0.11+dfsg-1build4*%
%TF.CreationDate,2025-08-03T13:38:59+04:00*%
%TF.ProjectId,tpa3116_amplifier_board,74706133-3131-4365-9f61-6d706c696669,rev?*%
%TF.SameCoordinates,Original*%
%TF.FileFunction,Soldermask,Top*%
%TF.FilePolarity,Negative*%
%FSLAX46Y46*%
G04 Gerber Fmt 4.6, Leading zero omitted, Abs format (unit mm)*
G04 Created by KiCad (PCBNEW 7.0.11+dfsg-1build4) date 2025-08-03 13:38:59*
%MOMM*%
%LPD*%
G01*
G04 APERTURE LIST*
G04 Aperture macros list*
%AMRoundRect*
0 Rectangle with rounded corners*
0 $1 Rounding radius*
0 $2 $3 $4 $5 $6 $7 $8 $9 X,Y pos of 4 corners*
0 Add a 4 corners polygon primitive as box body*
4,1,4,$2,$3,$4,$5,$6,$7,$8,$9,$2,$3,0*
0 Add four circle primitives for the rounded corners*
1,1,$1+$1,$2,$3*
1,1,$1+$1,$4,$5*
1,1,$1+$1,$6,$7*
1,1,$1+$1,$8,$9*
0 Add four rect primitives between the rounded corners*
20,1,$1+$1,$2,$3,$4,$5,0*
20,1,$1+$1,$4,$5,$6,$7,0*
20,1,$1+$1,$6,$7,$8,$9,0*
20,1,$1+$1,$8,$9,$2,$3,0*%
G04 Aperture macros list end*
%ADD10RoundRect,0.200000X-0.275000X0.200000X-0.275000X-0.200000X0.275000X-0.200000X0.275000X0.200000X0*%
%ADD11RoundRect,0.200000X-0.200000X-0.275000X0.200000X-0.275000X0.200000X0.275000X-0.200000X0.275000X0*%
%ADD12RoundRect,0.250000X0.750000X-0.600000X0.750000X0.600000X-0.750000X0.600000X-0.750000X-0.600000X0*%
%ADD13O,2.000000X1.700000*%
%ADD14C,5.600000*%
%ADD15C,1.600000*%
%ADD16RoundRect,0.200000X0.200000X0.275000X-0.200000X0.275000X-0.200000X-0.275000X0.200000X-0.275000X0*%
%ADD17RoundRect,0.249999X-1.450001X0.450001X-1.450001X-0.450001X1.450001X-0.450001X1.450001X0.450001X0*%
%ADD18R,2.000000X2.000000*%
%ADD19C,2.000000*%
%ADD20R,2.900000X5.400000*%
%ADD21RoundRect,0.225000X0.225000X0.250000X-0.225000X0.250000X-0.225000X-0.250000X0.225000X-0.250000X0*%
%ADD22RoundRect,0.249999X1.450001X-0.450001X1.450001X0.450001X-1.450001X0.450001X-1.450001X-0.450001X0*%
%ADD23RoundRect,0.250001X1.099999X-1.099999X1.099999X1.099999X-1.099999X1.099999X-1.099999X-1.099999X0*%
%ADD24C,2.700000*%
%ADD25RoundRect,0.225000X-0.250000X0.225000X-0.250000X-0.225000X0.250000X-0.225000X0.250000X0.225000X0*%
%ADD26RoundRect,0.225000X0.250000X-0.225000X0.250000X0.225000X-0.250000X0.225000X-0.250000X-0.225000X0*%
%ADD27RoundRect,0.250000X0.725000X-0.600000X0.725000X0.600000X-0.725000X0.600000X-0.725000X-0.600000X0*%
%ADD28O,1.950000X1.700000*%
%ADD29R,1.475000X0.450000*%
%ADD30R,3.040000X3.740000*%
%ADD31RoundRect,0.225000X-0.225000X-0.250000X0.225000X-0.250000X0.225000X0.250000X-0.225000X0.250000X0*%
%ADD32RoundRect,0.250000X-0.250000X-0.475000X0.250000X-0.475000X0.250000X0.475000X-0.250000X0.475000X0*%
G04 APERTURE END LIST*
D10*
%TO.C,R9*%
X151130000Y-123495000D03*
X151130000Y-125145000D03*
%TD*%
D11*
%TO.C,R4*%
X113643000Y-120015000D03*
X115293000Y-120015000D03*
%TD*%
D12*
%TO.C,J1*%
X106045000Y-118110000D03*
D13*
X106045000Y-115610000D03*
%TD*%
D14*
%TO.C,H3*%
X161925000Y-142240000D03*
%TD*%
D15*
%TO.C,C2*%
X106045000Y-104775000D03*
X111045000Y-104775000D03*
%TD*%
D16*
%TO.C,R6*%
X115315000Y-128270000D03*
X113665000Y-128270000D03*
%TD*%
D17*
%TO.C,C15*%
X152400000Y-133840000D03*
X152400000Y-137940000D03*
%TD*%
D14*
%TO.C,H6*%
X124460000Y-140000000D03*
%TD*%
D16*
%TO.C,R7*%
X119570000Y-108585000D03*
X117920000Y-108585000D03*
%TD*%
D18*
%TO.C,C12*%
X139700000Y-100330000D03*
D19*
X144700000Y-100330000D03*
%TD*%
D16*
%TO.C,R5*%
X115315000Y-130810000D03*
X113665000Y-130810000D03*
%TD*%
D18*
%TO.C,C13*%
X139700000Y-139700000D03*
D19*
X144700000Y-139700000D03*
%TD*%
D15*
%TO.C,C1*%
X106045000Y-109855000D03*
X111045000Y-109855000D03*
%TD*%
D20*
%TO.C,L2*%
X137795000Y-127000000D03*
X147695000Y-127000000D03*
%TD*%
D21*
%TO.C,C6*%
X127635000Y-130175000D03*
X126085000Y-130175000D03*
%TD*%
D22*
%TO.C,C14*%
X152400000Y-118255000D03*
X152400000Y-114155000D03*
%TD*%
D14*
%TO.C,H2*%
X106680000Y-142240000D03*
%TD*%
D23*
%TO.C,J4*%
X159385000Y-132567500D03*
D24*
X159385000Y-128607500D03*
%TD*%
D25*
%TO.C,C11*%
X133985000Y-125590000D03*
X133985000Y-127140000D03*
%TD*%
%TO.C,C16*%
X153670000Y-110350000D03*
X153670000Y-111900000D03*
%TD*%
D26*
%TO.C,C19*%
X151130000Y-131445000D03*
X151130000Y-129895000D03*
%TD*%
D23*
%TO.C,J3*%
X159385000Y-110977500D03*
D24*
X159385000Y-107017500D03*
%TD*%
D26*
%TO.C,C8*%
X133985000Y-114440000D03*
X133985000Y-112890000D03*
%TD*%
D10*
%TO.C,R8*%
X151130000Y-103950000D03*
X151130000Y-105600000D03*
%TD*%
D27*
%TO.C,J2*%
X106045000Y-134540000D03*
D28*
X106045000Y-132040000D03*
X106045000Y-129540000D03*
X106045000Y-127040000D03*
%TD*%
D29*
%TO.C,IC1*%
X120672000Y-115140000D03*
X120672000Y-115790000D03*
X120672000Y-116440000D03*
X120672000Y-117090000D03*
X120672000Y-117740000D03*
X120672000Y-118390000D03*
X120672000Y-119040000D03*
X120672000Y-119690000D03*
X120672000Y-120340000D03*
X120672000Y-120990000D03*
X120672000Y-121640000D03*
X120672000Y-122290000D03*
X120672000Y-122940000D03*
X120672000Y-123590000D03*
X120672000Y-124240000D03*
X120672000Y-124890000D03*
X128248000Y-124890000D03*
X128248000Y-124240000D03*
X128248000Y-123590000D03*
X128248000Y-122940000D03*
X128248000Y-122290000D03*
X128248000Y-121640000D03*
X128248000Y-120990000D03*
X128248000Y-120340000D03*
X128248000Y-119690000D03*
X128248000Y-119040000D03*
X128248000Y-118390000D03*
X128248000Y-117740000D03*
X128248000Y-117090000D03*
X128248000Y-116440000D03*
X128248000Y-115790000D03*
X128248000Y-115140000D03*
D30*
X124460000Y-120015000D03*
%TD*%
D11*
%TO.C,R3*%
X113643000Y-122555000D03*
X115293000Y-122555000D03*
%TD*%
D25*
%TO.C,C9*%
X133985000Y-117195000D03*
X133985000Y-118745000D03*
%TD*%
D31*
%TO.C,C5*%
X126085000Y-112395000D03*
X127635000Y-112395000D03*
%TD*%
D14*
%TO.C,H1*%
X106680000Y-97790000D03*
%TD*%
D26*
%TO.C,C10*%
X133985000Y-122200000D03*
X133985000Y-120650000D03*
%TD*%
D21*
%TO.C,C7*%
X127635000Y-109855000D03*
X126085000Y-109855000D03*
%TD*%
D32*
%TO.C,C3*%
X108905000Y-122555000D03*
X110805000Y-122555000D03*
%TD*%
D21*
%TO.C,C4*%
X127635000Y-127635000D03*
X126085000Y-127635000D03*
%TD*%
D14*
%TO.C,H5*%
X124460000Y-100000000D03*
%TD*%
D20*
%TO.C,L1*%
X137795000Y-113030000D03*
X147695000Y-113030000D03*
%TD*%
D14*
%TO.C,H4*%
X161925000Y-97790000D03*
%TD*%
D26*
%TO.C,C17*%
X153670000Y-131585000D03*
X153670000Y-130035000D03*
%TD*%
D16*
%TO.C,R2*%
X115293000Y-117792500D03*
X113643000Y-117792500D03*
%TD*%
D26*
%TO.C,C18*%
X151130000Y-111900000D03*
X151130000Y-110350000D03*
%TD*%
D16*
%TO.C,R1*%
X115293000Y-124777500D03*
X113643000Y-124777500D03*
%TD*%
M02*
