%TF.GenerationSoftware,KiCad,Pcbnew,7.0.11+dfsg-1build4*%
%TF.CreationDate,2025-07-20T08:41:22+04:00*%
%TF.ProjectId,tpa3116_amplifier_board,74706133-3131-4365-9f61-6d706c696669,rev?*%
%TF.SameCoordinates,Original*%
%TF.FileFunction,Copper,L2,Bot*%
%TF.FilePolarity,Positive*%
%FSLAX46Y46*%
G04 Gerber Fmt 4.6, Leading zero omitted, Abs format (unit mm)*
G04 Created by KiCad (PCBNEW 7.0.11+dfsg-1build4) date 2025-07-20 08:41:22*
%MOMM*%
%LPD*%
G01*
G04 APERTURE LIST*
G04 Aperture macros list*
%AMRoundRect*
0 Rectangle with rounded corners*
0 $1 Rounding radius*
0 $2 $3 $4 $5 $6 $7 $8 $9 X,Y pos of 4 corners*
0 Add a 4 corners polygon primitive as box body*
4,1,4,$2,$3,$4,$5,$6,$7,$8,$9,$2,$3,0*
0 Add four circle primitives for the rounded corners*
1,1,$1+$1,$2,$3*
1,1,$1+$1,$4,$5*
1,1,$1+$1,$6,$7*
1,1,$1+$1,$8,$9*
0 Add four rect primitives between the rounded corners*
20,1,$1+$1,$2,$3,$4,$5,0*
20,1,$1+$1,$4,$5,$6,$7,0*
20,1,$1+$1,$6,$7,$8,$9,0*
20,1,$1+$1,$8,$9,$2,$3,0*%
G04 Aperture macros list end*
%TA.AperFunction,ComponentPad*%
%ADD10RoundRect,0.250000X0.675000X-0.675000X0.675000X0.675000X-0.675000X0.675000X-0.675000X-0.675000X0*%
%TD*%
%TA.AperFunction,ComponentPad*%
%ADD11C,1.850000*%
%TD*%
%TA.AperFunction,ComponentPad*%
%ADD12C,5.600000*%
%TD*%
%TA.AperFunction,ComponentPad*%
%ADD13C,1.600000*%
%TD*%
%TA.AperFunction,ComponentPad*%
%ADD14RoundRect,0.272727X1.227273X-1.227273X1.227273X1.227273X-1.227273X1.227273X-1.227273X-1.227273X0*%
%TD*%
%TA.AperFunction,ComponentPad*%
%ADD15C,3.000000*%
%TD*%
%TA.AperFunction,ComponentPad*%
%ADD16RoundRect,0.272727X-1.227273X1.227273X-1.227273X-1.227273X1.227273X-1.227273X1.227273X1.227273X0*%
%TD*%
%TA.AperFunction,ComponentPad*%
%ADD17R,2.000000X2.000000*%
%TD*%
%TA.AperFunction,ComponentPad*%
%ADD18C,2.000000*%
%TD*%
%TA.AperFunction,ViaPad*%
%ADD19C,0.800000*%
%TD*%
%TA.AperFunction,Conductor*%
%ADD20C,0.350000*%
%TD*%
G04 APERTURE END LIST*
D10*
%TO.P,J1,1,Pin_1*%
%TO.N,GND*%
X102870000Y-135010000D03*
D11*
%TO.P,J1,2,Pin_2*%
%TO.N,/sync*%
X102870000Y-130810000D03*
%TO.P,J1,3,Pin_3*%
%TO.N,/mute*%
X102870000Y-126610000D03*
%TO.P,J1,4,Pin_4*%
%TO.N,/SD_LR*%
X102870000Y-122410000D03*
%TD*%
D12*
%TO.P,H3,1*%
%TO.N,N/C*%
X158115000Y-142240000D03*
%TD*%
%TO.P,H6,1*%
%TO.N,N/C*%
X124438000Y-135001000D03*
%TD*%
D13*
%TO.P,C1,1*%
%TO.N,/R+*%
X111103000Y-100965000D03*
%TO.P,C1,2*%
%TO.N,Net-(IC1-RINP)*%
X111103000Y-105965000D03*
%TD*%
D14*
%TO.P,J4,1,Pin_1*%
%TO.N,GND*%
X158750000Y-110015000D03*
D15*
%TO.P,J4,2,Pin_2*%
%TO.N,VCC*%
X158750000Y-104615000D03*
%TD*%
D12*
%TO.P,H2,1*%
%TO.N,N/C*%
X104118000Y-142240000D03*
%TD*%
D16*
%TO.P,J3,1,Pin_1*%
%TO.N,Net-(J3-Pin_1)*%
X158750000Y-121600000D03*
D15*
%TO.P,J3,2,Pin_2*%
%TO.N,Net-(J3-Pin_2)*%
X158750000Y-127000000D03*
%TD*%
D10*
%TO.P,J2,1,Pin_1*%
%TO.N,/R-*%
X102870000Y-108585000D03*
D11*
%TO.P,J2,2,Pin_2*%
%TO.N,/R+*%
X102870000Y-104385000D03*
%TD*%
D12*
%TO.P,H1,1*%
%TO.N,N/C*%
X104118000Y-97790000D03*
%TD*%
%TO.P,H5,1*%
%TO.N,N/C*%
X124460000Y-105029000D03*
%TD*%
D17*
%TO.P,C15,1*%
%TO.N,VCC*%
X139065000Y-100330000D03*
D18*
%TO.P,C15,2*%
%TO.N,GND*%
X144065000Y-100330000D03*
%TD*%
D12*
%TO.P,H4,1*%
%TO.N,N/C*%
X158115000Y-97790000D03*
%TD*%
D13*
%TO.P,C3,1*%
%TO.N,/R-*%
X111103000Y-108585000D03*
%TO.P,C3,2*%
%TO.N,Net-(IC1-RINN)*%
X111103000Y-113585000D03*
%TD*%
D17*
%TO.P,C16,1*%
%TO.N,VCC*%
X138935000Y-139700000D03*
D18*
%TO.P,C16,2*%
%TO.N,GND*%
X143935000Y-139700000D03*
%TD*%
D19*
%TO.N,GND*%
X143510000Y-120015000D03*
X144780000Y-120015000D03*
X146050000Y-120015000D03*
X147320000Y-120015000D03*
X106680000Y-112395000D03*
%TO.N,VCC*%
X139065000Y-135890000D03*
X139065000Y-104140000D03*
X137795000Y-137160000D03*
X140335000Y-137160000D03*
X139065000Y-137160000D03*
X140335000Y-102870000D03*
X137795000Y-102870000D03*
X139065000Y-102870000D03*
X140970000Y-97790000D03*
X139700000Y-97790000D03*
X138430000Y-97790000D03*
%TO.N,GND*%
X122533000Y-113665000D03*
X147320000Y-118110000D03*
X125073000Y-125095000D03*
X144780000Y-121920000D03*
X147320000Y-104140000D03*
X143510000Y-121920000D03*
X106680000Y-116205000D03*
X118088000Y-100965000D03*
X147320000Y-107950000D03*
X104775000Y-118110000D03*
X137030000Y-118110000D03*
X104775000Y-116205001D03*
X123803000Y-114935000D03*
X146050000Y-105410000D03*
X121263000Y-113665000D03*
X121898000Y-97155000D03*
X143380000Y-130810000D03*
X137030000Y-121920000D03*
X122533000Y-109855000D03*
X147320000Y-135890000D03*
X122533000Y-114935000D03*
X111125000Y-125730000D03*
X144780000Y-132080000D03*
X143510000Y-109220000D03*
X148590000Y-102870000D03*
X125073000Y-122555000D03*
X122533000Y-112395000D03*
X121263000Y-130175000D03*
X143510000Y-118110000D03*
X123803000Y-123825000D03*
X149860000Y-102870000D03*
X122533000Y-117475000D03*
X143510000Y-123190000D03*
X125730000Y-142875000D03*
X125073000Y-116205000D03*
X146050000Y-107950000D03*
X143510000Y-107950000D03*
X109220000Y-123825000D03*
X133350000Y-142875000D03*
X129540000Y-142875000D03*
X121263000Y-126365000D03*
X122533000Y-128905000D03*
X143510000Y-116840000D03*
X121263000Y-111125000D03*
X123803000Y-125095000D03*
X118110000Y-135890000D03*
X125708000Y-97155000D03*
X148590000Y-104140000D03*
X111125000Y-127635000D03*
X125073000Y-117475000D03*
X147320000Y-121920000D03*
X122533000Y-116205000D03*
X106680000Y-114300001D03*
X121920000Y-142875000D03*
X121263000Y-127635000D03*
X122533000Y-111125000D03*
X149860000Y-138430000D03*
X114300000Y-142875000D03*
X126343000Y-122555000D03*
X121263000Y-128905000D03*
X146050000Y-134620000D03*
X143510000Y-132080000D03*
X109220000Y-125730000D03*
X143510000Y-124460000D03*
X144780000Y-118110000D03*
X147320000Y-134620000D03*
X147320000Y-132080000D03*
X126343000Y-116205000D03*
X114278000Y-97155000D03*
X122533000Y-122555000D03*
X126343000Y-114935000D03*
X143510000Y-129540000D03*
X133350000Y-97155000D03*
X118088000Y-104775000D03*
X118088000Y-97155000D03*
X114300000Y-135890000D03*
X122533000Y-123825000D03*
X147320000Y-105410000D03*
X143510000Y-115570000D03*
X121263000Y-112395000D03*
X118110000Y-139065000D03*
X148590000Y-137160000D03*
X129540000Y-139065000D03*
X104775001Y-114300001D03*
X123803000Y-117475000D03*
X148590000Y-135890000D03*
X114300000Y-139065000D03*
X126343000Y-123825000D03*
X123803000Y-122555000D03*
X118110000Y-142875000D03*
X125073000Y-123825000D03*
X143510000Y-110490000D03*
X149860000Y-137160000D03*
X129518000Y-97155000D03*
X144780000Y-107950000D03*
X125073000Y-114935000D03*
X146050000Y-132080000D03*
X146050000Y-121920000D03*
X149860000Y-101600000D03*
X123803000Y-116205000D03*
X129518000Y-100965000D03*
X122533000Y-125095000D03*
X146050000Y-118110000D03*
X126343000Y-125095000D03*
X111125000Y-123825000D03*
X122533000Y-126365000D03*
X122533000Y-127635000D03*
X121263000Y-109855000D03*
X126343000Y-117475000D03*
X109220000Y-127635000D03*
%TO.N,VCC*%
X131445000Y-130810000D03*
X130175000Y-130810000D03*
X130197000Y-127000000D03*
X130175000Y-113030000D03*
X130197000Y-109220000D03*
X131467000Y-127000000D03*
X130175000Y-128270000D03*
X131445000Y-110490000D03*
X131467000Y-111760000D03*
X131467000Y-113030000D03*
X130175000Y-111760000D03*
X131445000Y-109220000D03*
X131445000Y-128270000D03*
X131445000Y-129540000D03*
X130197000Y-129540000D03*
X130175000Y-110490000D03*
%TO.N,/SD_LR*%
X116183000Y-111544997D03*
X116183000Y-112395000D03*
%TD*%
D20*
%TO.N,/SD_LR*%
X116183000Y-112395000D02*
X116183000Y-111544997D01*
X107692000Y-122410000D02*
X102870000Y-122410000D01*
X116183000Y-113919000D02*
X107692000Y-122410000D01*
X116183000Y-112395000D02*
X116183000Y-113919000D01*
%TO.N,/mute*%
X103015000Y-126755000D02*
X102870000Y-126610000D01*
%TD*%
%TA.AperFunction,Conductor*%
%TO.N,GND*%
G36*
X156075784Y-94985185D02*
G01*
X156121539Y-95037989D01*
X156131483Y-95107147D01*
X156102458Y-95170703D01*
X156083786Y-95188216D01*
X155975172Y-95270781D01*
X155975163Y-95270789D01*
X155715331Y-95516914D01*
X155483641Y-95789680D01*
X155483634Y-95789690D01*
X155282790Y-96085913D01*
X155282784Y-96085922D01*
X155115151Y-96402111D01*
X155115142Y-96402129D01*
X154982674Y-96734600D01*
X154982672Y-96734607D01*
X154886932Y-97079434D01*
X154886926Y-97079460D01*
X154829029Y-97432614D01*
X154829028Y-97432631D01*
X154809652Y-97789997D01*
X154809652Y-97790002D01*
X154829028Y-98147368D01*
X154829029Y-98147385D01*
X154886926Y-98500539D01*
X154886932Y-98500565D01*
X154982672Y-98845392D01*
X154982674Y-98845399D01*
X155115142Y-99177870D01*
X155115151Y-99177888D01*
X155282784Y-99494077D01*
X155282787Y-99494082D01*
X155282789Y-99494085D01*
X155477885Y-99781831D01*
X155483634Y-99790309D01*
X155483641Y-99790319D01*
X155664189Y-100002876D01*
X155715332Y-100063086D01*
X155975163Y-100309211D01*
X156260081Y-100525800D01*
X156566747Y-100710315D01*
X156566749Y-100710316D01*
X156566751Y-100710317D01*
X156566755Y-100710319D01*
X156792329Y-100814680D01*
X156891565Y-100860591D01*
X157230726Y-100974868D01*
X157580254Y-101051805D01*
X157936052Y-101090500D01*
X157936058Y-101090500D01*
X158293942Y-101090500D01*
X158293948Y-101090500D01*
X158649746Y-101051805D01*
X158999274Y-100974868D01*
X159338435Y-100860591D01*
X159663253Y-100710315D01*
X159969919Y-100525800D01*
X160254837Y-100309211D01*
X160514668Y-100063086D01*
X160720992Y-99820181D01*
X160779395Y-99781831D01*
X160849261Y-99781143D01*
X160908409Y-99818336D01*
X160938058Y-99881603D01*
X160939500Y-99900458D01*
X160939500Y-108468182D01*
X160919815Y-108535221D01*
X160867011Y-108580976D01*
X160797853Y-108590920D01*
X160734297Y-108561895D01*
X160698459Y-108509137D01*
X160677882Y-108450334D01*
X160585237Y-108302890D01*
X160462109Y-108179762D01*
X160314667Y-108087118D01*
X160150306Y-108029606D01*
X160150301Y-108029605D01*
X160020671Y-108015000D01*
X159100000Y-108015000D01*
X159100000Y-109212820D01*
X159031036Y-109180914D01*
X158845162Y-109140000D01*
X158702555Y-109140000D01*
X158560792Y-109155418D01*
X158400000Y-109209594D01*
X158400000Y-108015000D01*
X157479335Y-108015000D01*
X157479327Y-108015001D01*
X157349696Y-108029605D01*
X157349683Y-108029608D01*
X157185334Y-108087117D01*
X157037890Y-108179762D01*
X156914762Y-108302890D01*
X156822118Y-108450332D01*
X156764606Y-108614693D01*
X156764605Y-108614698D01*
X156750000Y-108744328D01*
X156750000Y-109665000D01*
X157947556Y-109665000D01*
X157901922Y-109779532D01*
X157871131Y-109967349D01*
X157881435Y-110157394D01*
X157932352Y-110340781D01*
X157945192Y-110365000D01*
X156750001Y-110365000D01*
X156750001Y-111285672D01*
X156764605Y-111415303D01*
X156764608Y-111415316D01*
X156822117Y-111579665D01*
X156914762Y-111727109D01*
X157037890Y-111850237D01*
X157185332Y-111942881D01*
X157349693Y-112000393D01*
X157349698Y-112000394D01*
X157479330Y-112014999D01*
X158399999Y-112014999D01*
X158400000Y-112014998D01*
X158400000Y-110817179D01*
X158468964Y-110849086D01*
X158654838Y-110890000D01*
X158797445Y-110890000D01*
X158939208Y-110874582D01*
X159100000Y-110820405D01*
X159100000Y-112014999D01*
X160020665Y-112014999D01*
X160020672Y-112014998D01*
X160150303Y-112000394D01*
X160150316Y-112000391D01*
X160314665Y-111942882D01*
X160462109Y-111850237D01*
X160585237Y-111727109D01*
X160677881Y-111579667D01*
X160698458Y-111520862D01*
X160739180Y-111464086D01*
X160804132Y-111438338D01*
X160872694Y-111451794D01*
X160923097Y-111500181D01*
X160939500Y-111561816D01*
X160939500Y-140129541D01*
X160919815Y-140196580D01*
X160867011Y-140242335D01*
X160797853Y-140252279D01*
X160734297Y-140223254D01*
X160720992Y-140209817D01*
X160514668Y-139966914D01*
X160454420Y-139909844D01*
X160254837Y-139720789D01*
X160254830Y-139720783D01*
X160254827Y-139720781D01*
X160132921Y-139628111D01*
X159969919Y-139504200D01*
X159663253Y-139319685D01*
X159663252Y-139319684D01*
X159663248Y-139319682D01*
X159663244Y-139319680D01*
X159338447Y-139169414D01*
X159338441Y-139169411D01*
X159338435Y-139169409D01*
X159168854Y-139112270D01*
X158999273Y-139055131D01*
X158649744Y-138978194D01*
X158293949Y-138939500D01*
X158293948Y-138939500D01*
X157936052Y-138939500D01*
X157936050Y-138939500D01*
X157580255Y-138978194D01*
X157230726Y-139055131D01*
X156974970Y-139141306D01*
X156891565Y-139169409D01*
X156891563Y-139169410D01*
X156891552Y-139169414D01*
X156566755Y-139319680D01*
X156566751Y-139319682D01*
X156484449Y-139369202D01*
X156260081Y-139504200D01*
X156171768Y-139571333D01*
X155975172Y-139720781D01*
X155975163Y-139720789D01*
X155715331Y-139966914D01*
X155483641Y-140239680D01*
X155483634Y-140239690D01*
X155282790Y-140535913D01*
X155282784Y-140535922D01*
X155115151Y-140852111D01*
X155115142Y-140852129D01*
X154982674Y-141184600D01*
X154982672Y-141184607D01*
X154886932Y-141529434D01*
X154886926Y-141529460D01*
X154829029Y-141882614D01*
X154829028Y-141882631D01*
X154809652Y-142239997D01*
X154809652Y-142240002D01*
X154811408Y-142272393D01*
X154825726Y-142536477D01*
X154829028Y-142597368D01*
X154829029Y-142597385D01*
X154886926Y-142950539D01*
X154886932Y-142950565D01*
X154982672Y-143295392D01*
X154982674Y-143295399D01*
X155115142Y-143627870D01*
X155115151Y-143627888D01*
X155282784Y-143944077D01*
X155282787Y-143944082D01*
X155282789Y-143944085D01*
X155477885Y-144231831D01*
X155483634Y-144240309D01*
X155483641Y-144240319D01*
X155599195Y-144376359D01*
X155715332Y-144513086D01*
X155975163Y-144759211D01*
X155975170Y-144759216D01*
X155975172Y-144759218D01*
X156083786Y-144841784D01*
X156125244Y-144898025D01*
X156129713Y-144967752D01*
X156095776Y-145028826D01*
X156034208Y-145061858D01*
X156008745Y-145064500D01*
X106224255Y-145064500D01*
X106157216Y-145044815D01*
X106111461Y-144992011D01*
X106101517Y-144922853D01*
X106130542Y-144859297D01*
X106149214Y-144841784D01*
X106257837Y-144759211D01*
X106517668Y-144513086D01*
X106749365Y-144240311D01*
X106950211Y-143944085D01*
X107117853Y-143627880D01*
X107250324Y-143295403D01*
X107346071Y-142950552D01*
X107396082Y-142645500D01*
X107403970Y-142597385D01*
X107403970Y-142597382D01*
X107403972Y-142597371D01*
X107421694Y-142270488D01*
X107423348Y-142240002D01*
X107423348Y-142239997D01*
X107417964Y-142140693D01*
X107403972Y-141882629D01*
X107400562Y-141861830D01*
X107346073Y-141529460D01*
X107346072Y-141529459D01*
X107346071Y-141529448D01*
X107250324Y-141184597D01*
X107117853Y-140852120D01*
X106950211Y-140535915D01*
X106749365Y-140239689D01*
X106749361Y-140239684D01*
X106749358Y-140239680D01*
X106517668Y-139966914D01*
X106457420Y-139909844D01*
X106257837Y-139720789D01*
X106257830Y-139720783D01*
X106257827Y-139720781D01*
X106135921Y-139628111D01*
X105972919Y-139504200D01*
X105666253Y-139319685D01*
X105666252Y-139319684D01*
X105666248Y-139319682D01*
X105666244Y-139319680D01*
X105341447Y-139169414D01*
X105341441Y-139169411D01*
X105341435Y-139169409D01*
X105171854Y-139112270D01*
X105002273Y-139055131D01*
X104652744Y-138978194D01*
X104296949Y-138939500D01*
X104296948Y-138939500D01*
X103939052Y-138939500D01*
X103939050Y-138939500D01*
X103583255Y-138978194D01*
X103233726Y-139055131D01*
X102977970Y-139141306D01*
X102894565Y-139169409D01*
X102894563Y-139169410D01*
X102894552Y-139169414D01*
X102569755Y-139319680D01*
X102569751Y-139319682D01*
X102487449Y-139369202D01*
X102263081Y-139504200D01*
X102174768Y-139571333D01*
X101978172Y-139720781D01*
X101978163Y-139720789D01*
X101718331Y-139966914D01*
X101534008Y-140183916D01*
X101475604Y-140222267D01*
X101405738Y-140222955D01*
X101346591Y-140185761D01*
X101316942Y-140122494D01*
X101315500Y-140103640D01*
X101315500Y-136124984D01*
X101335185Y-136057945D01*
X101387989Y-136012190D01*
X101457147Y-136002246D01*
X101520703Y-136031271D01*
X101545039Y-136059887D01*
X101602684Y-136153345D01*
X101726654Y-136277315D01*
X101875875Y-136369356D01*
X101875880Y-136369358D01*
X102042302Y-136424505D01*
X102042309Y-136424506D01*
X102145019Y-136434999D01*
X102519999Y-136434999D01*
X102520000Y-136434998D01*
X102520000Y-135259229D01*
X102521882Y-135262923D01*
X102617077Y-135358118D01*
X102737031Y-135419238D01*
X102836549Y-135435000D01*
X102903451Y-135435000D01*
X103002969Y-135419238D01*
X103119229Y-135360000D01*
X103220000Y-135360000D01*
X103220000Y-136434999D01*
X103594972Y-136434999D01*
X103594986Y-136434998D01*
X103697697Y-136424505D01*
X103864119Y-136369358D01*
X103864124Y-136369356D01*
X104013345Y-136277315D01*
X104137315Y-136153345D01*
X104229356Y-136004124D01*
X104229358Y-136004119D01*
X104284505Y-135837697D01*
X104284506Y-135837690D01*
X104294999Y-135734986D01*
X104295000Y-135734973D01*
X104295000Y-135360000D01*
X103220000Y-135360000D01*
X103119229Y-135360000D01*
X103122923Y-135358118D01*
X103218118Y-135262923D01*
X103279238Y-135142969D01*
X103300298Y-135010000D01*
X103298873Y-135001002D01*
X121132652Y-135001002D01*
X121152028Y-135358368D01*
X121152029Y-135358385D01*
X121209926Y-135711539D01*
X121209932Y-135711565D01*
X121305672Y-136056392D01*
X121305674Y-136056399D01*
X121438142Y-136388870D01*
X121438151Y-136388888D01*
X121605784Y-136705077D01*
X121605787Y-136705082D01*
X121605789Y-136705085D01*
X121792694Y-136980750D01*
X121806634Y-137001309D01*
X121806641Y-137001319D01*
X121992081Y-137219635D01*
X122038332Y-137274086D01*
X122298163Y-137520211D01*
X122583081Y-137736800D01*
X122889747Y-137921315D01*
X122889749Y-137921316D01*
X122889751Y-137921317D01*
X122889755Y-137921319D01*
X123102464Y-138019728D01*
X123214565Y-138071591D01*
X123553726Y-138185868D01*
X123903254Y-138262805D01*
X124259052Y-138301500D01*
X124259058Y-138301500D01*
X124616942Y-138301500D01*
X124616948Y-138301500D01*
X124972746Y-138262805D01*
X125322274Y-138185868D01*
X125661435Y-138071591D01*
X125986253Y-137921315D01*
X126292919Y-137736800D01*
X126577837Y-137520211D01*
X126837668Y-137274086D01*
X127069365Y-137001311D01*
X127270211Y-136705085D01*
X127437853Y-136388880D01*
X127570324Y-136056403D01*
X127666071Y-135711552D01*
X127683891Y-135602848D01*
X127723970Y-135358385D01*
X127723970Y-135358382D01*
X127723972Y-135358371D01*
X127743348Y-135001000D01*
X127723972Y-134643629D01*
X127716944Y-134600762D01*
X127666073Y-134290460D01*
X127666072Y-134290459D01*
X127666071Y-134290448D01*
X127570324Y-133945597D01*
X127437853Y-133613120D01*
X127270211Y-133296915D01*
X127069365Y-133000689D01*
X127069361Y-133000684D01*
X127069358Y-133000680D01*
X126837668Y-132727914D01*
X126577837Y-132481789D01*
X126577830Y-132481783D01*
X126577827Y-132481781D01*
X126510245Y-132430407D01*
X126292919Y-132265200D01*
X125986253Y-132080685D01*
X125986252Y-132080684D01*
X125986248Y-132080682D01*
X125986244Y-132080680D01*
X125661447Y-131930414D01*
X125661441Y-131930411D01*
X125661435Y-131930409D01*
X125462459Y-131863366D01*
X129134500Y-131863366D01*
X129135081Y-131885049D01*
X129135793Y-131898335D01*
X129137540Y-131920015D01*
X129149837Y-132034228D01*
X129156799Y-132077133D01*
X129156801Y-132077141D01*
X129162447Y-132103061D01*
X129162449Y-132103071D01*
X129162450Y-132103072D01*
X129173966Y-132144990D01*
X129173967Y-132144992D01*
X129208179Y-132247629D01*
X129208183Y-132247640D01*
X129224120Y-132288081D01*
X129235147Y-132312188D01*
X129235153Y-132312201D01*
X129255326Y-132350702D01*
X129314024Y-132449462D01*
X129325620Y-132467833D01*
X129333019Y-132478887D01*
X129336163Y-132483322D01*
X129345593Y-132496624D01*
X133798422Y-138433729D01*
X134181500Y-138944500D01*
X134758314Y-139713585D01*
X135314750Y-140455500D01*
X135716483Y-140991144D01*
X136642284Y-142225546D01*
X136656924Y-142243930D01*
X136666201Y-142254912D01*
X136681859Y-142272393D01*
X136767295Y-142362390D01*
X136767308Y-142362403D01*
X136801558Y-142394530D01*
X136801564Y-142394536D01*
X136823574Y-142412906D01*
X136823584Y-142412913D01*
X136861316Y-142440862D01*
X136861337Y-142440876D01*
X136901801Y-142467361D01*
X136959101Y-142504866D01*
X136999837Y-142528276D01*
X137025488Y-142541101D01*
X137068643Y-142559637D01*
X137068648Y-142559639D01*
X137172784Y-142597385D01*
X137178495Y-142599455D01*
X137223512Y-142612878D01*
X137251427Y-142619468D01*
X137297696Y-142627595D01*
X137420956Y-142641947D01*
X137444368Y-142643987D01*
X137458709Y-142644819D01*
X137482195Y-142645500D01*
X137482197Y-142645500D01*
X140966859Y-142645500D01*
X140966874Y-142645500D01*
X140993403Y-142644631D01*
X141009586Y-142643570D01*
X141035988Y-142640970D01*
X141174801Y-142622694D01*
X141226825Y-142612345D01*
X141258091Y-142603967D01*
X141308313Y-142586919D01*
X141430092Y-142536477D01*
X141477665Y-142513016D01*
X141505700Y-142496830D01*
X141549804Y-142467361D01*
X141654379Y-142387117D01*
X141694257Y-142352145D01*
X141717145Y-142329257D01*
X141752117Y-142289379D01*
X141832361Y-142184804D01*
X141861830Y-142140700D01*
X141878016Y-142112665D01*
X141901477Y-142065092D01*
X141951919Y-141943313D01*
X141968967Y-141893091D01*
X141977345Y-141861825D01*
X141987693Y-141809802D01*
X142005969Y-141670991D01*
X142008571Y-141644583D01*
X142009632Y-141628397D01*
X142010500Y-141601873D01*
X142010500Y-139700005D01*
X142429859Y-139700005D01*
X142450385Y-139947729D01*
X142450387Y-139947738D01*
X142511412Y-140188717D01*
X142611265Y-140416362D01*
X142611267Y-140416366D01*
X142655679Y-140484344D01*
X143435000Y-139705024D01*
X143435000Y-139771889D01*
X143475507Y-139909844D01*
X143553239Y-140030798D01*
X143661900Y-140124952D01*
X143792685Y-140184680D01*
X143899237Y-140200000D01*
X143929975Y-140200000D01*
X143149500Y-140980473D01*
X143330391Y-141078367D01*
X143330399Y-141078370D01*
X143565506Y-141159083D01*
X143810707Y-141200000D01*
X144059293Y-141200000D01*
X144304493Y-141159083D01*
X144539600Y-141078370D01*
X144539608Y-141078367D01*
X144720498Y-140980473D01*
X143940025Y-140200000D01*
X143970763Y-140200000D01*
X144077315Y-140184680D01*
X144208100Y-140124952D01*
X144316761Y-140030798D01*
X144394493Y-139909844D01*
X144435000Y-139771889D01*
X144435000Y-139705026D01*
X145214319Y-140484345D01*
X145258731Y-140416369D01*
X145358587Y-140188717D01*
X145419612Y-139947738D01*
X145419614Y-139947729D01*
X145440141Y-139700005D01*
X145440141Y-139699994D01*
X145419614Y-139452270D01*
X145419612Y-139452261D01*
X145358587Y-139211282D01*
X145258732Y-138983632D01*
X145214319Y-138915653D01*
X144435000Y-139694973D01*
X144435000Y-139628111D01*
X144394493Y-139490156D01*
X144316761Y-139369202D01*
X144208100Y-139275048D01*
X144077315Y-139215320D01*
X143970763Y-139200000D01*
X143940026Y-139200000D01*
X144720498Y-138419525D01*
X144539609Y-138321632D01*
X144539603Y-138321630D01*
X144304493Y-138240916D01*
X144059293Y-138200000D01*
X143810707Y-138200000D01*
X143565506Y-138240916D01*
X143330396Y-138321630D01*
X143330385Y-138321635D01*
X143149500Y-138419524D01*
X143149500Y-138419525D01*
X143929975Y-139200000D01*
X143899237Y-139200000D01*
X143792685Y-139215320D01*
X143661900Y-139275048D01*
X143553239Y-139369202D01*
X143475507Y-139490156D01*
X143435000Y-139628111D01*
X143435000Y-139694975D01*
X142655679Y-138915654D01*
X142611267Y-138983634D01*
X142511411Y-139211282D01*
X142450387Y-139452261D01*
X142450385Y-139452270D01*
X142429859Y-139699994D01*
X142429859Y-139700005D01*
X142010500Y-139700005D01*
X142010500Y-138655628D01*
X142009872Y-138633068D01*
X142009104Y-138619285D01*
X142007219Y-138596771D01*
X141993961Y-138478236D01*
X141986454Y-138433722D01*
X141980364Y-138406838D01*
X141976238Y-138392408D01*
X141967964Y-138363463D01*
X141967945Y-138363404D01*
X141933020Y-138262805D01*
X141931122Y-138257337D01*
X141913967Y-138215583D01*
X141913962Y-138215573D01*
X141913959Y-138215565D01*
X141902098Y-138190728D01*
X141902094Y-138190721D01*
X141902088Y-138190708D01*
X141880397Y-138151118D01*
X141817353Y-138049867D01*
X141804881Y-138031027D01*
X141796943Y-138019733D01*
X141783459Y-138001640D01*
X141783449Y-138001626D01*
X141166086Y-137219635D01*
X141140191Y-137156682D01*
X141120369Y-136980750D01*
X141120368Y-136980745D01*
X141060788Y-136810476D01*
X140964815Y-136657737D01*
X140837262Y-136530184D01*
X140684521Y-136434210D01*
X140527178Y-136379154D01*
X140470808Y-136338948D01*
X133699769Y-127762300D01*
X133097954Y-127000001D01*
X156844645Y-127000001D01*
X156864039Y-127271160D01*
X156864040Y-127271167D01*
X156906264Y-127465269D01*
X156921825Y-127536801D01*
X156998330Y-127741920D01*
X157016830Y-127791519D01*
X157147109Y-128030107D01*
X157147110Y-128030108D01*
X157147113Y-128030113D01*
X157310029Y-128247742D01*
X157310033Y-128247746D01*
X157310038Y-128247752D01*
X157502247Y-128439961D01*
X157502253Y-128439966D01*
X157502258Y-128439971D01*
X157719887Y-128602887D01*
X157719891Y-128602889D01*
X157719892Y-128602890D01*
X157958481Y-128733169D01*
X157958480Y-128733169D01*
X157958484Y-128733170D01*
X157958487Y-128733172D01*
X158213199Y-128828175D01*
X158478840Y-128885961D01*
X158730605Y-128903967D01*
X158749999Y-128905355D01*
X158750000Y-128905355D01*
X158750001Y-128905355D01*
X158768100Y-128904060D01*
X159021160Y-128885961D01*
X159286801Y-128828175D01*
X159541513Y-128733172D01*
X159541517Y-128733169D01*
X159541519Y-128733169D01*
X159660813Y-128668029D01*
X159780113Y-128602887D01*
X159997742Y-128439971D01*
X160189971Y-128247742D01*
X160352887Y-128030113D01*
X160483172Y-127791513D01*
X160578175Y-127536801D01*
X160635961Y-127271160D01*
X160655355Y-127000000D01*
X160635961Y-126728840D01*
X160578175Y-126463199D01*
X160483172Y-126208487D01*
X160483170Y-126208484D01*
X160483169Y-126208480D01*
X160352890Y-125969892D01*
X160352889Y-125969891D01*
X160352887Y-125969887D01*
X160189971Y-125752258D01*
X160189966Y-125752253D01*
X160189961Y-125752247D01*
X159997752Y-125560038D01*
X159997746Y-125560033D01*
X159997742Y-125560029D01*
X159780113Y-125397113D01*
X159780108Y-125397110D01*
X159780107Y-125397109D01*
X159541518Y-125266830D01*
X159541519Y-125266830D01*
X159491920Y-125248330D01*
X159286801Y-125171825D01*
X159286794Y-125171823D01*
X159286793Y-125171823D01*
X159021167Y-125114040D01*
X159021160Y-125114039D01*
X158750001Y-125094645D01*
X158749999Y-125094645D01*
X158478839Y-125114039D01*
X158478832Y-125114040D01*
X158213206Y-125171823D01*
X158213202Y-125171824D01*
X158213199Y-125171825D01*
X158085843Y-125219326D01*
X157958480Y-125266830D01*
X157719892Y-125397109D01*
X157719891Y-125397110D01*
X157502259Y-125560028D01*
X157502247Y-125560038D01*
X157310038Y-125752247D01*
X157310028Y-125752259D01*
X157147110Y-125969891D01*
X157147109Y-125969892D01*
X157016830Y-126208480D01*
X157009410Y-126228375D01*
X156921825Y-126463199D01*
X156921824Y-126463202D01*
X156921823Y-126463206D01*
X156864040Y-126728832D01*
X156864039Y-126728839D01*
X156844645Y-126999998D01*
X156844645Y-127000001D01*
X133097954Y-127000001D01*
X132591799Y-126358871D01*
X132591796Y-126358867D01*
X132591787Y-126358856D01*
X132582925Y-126348260D01*
X132577110Y-126341306D01*
X132567860Y-126330859D01*
X132552211Y-126314158D01*
X132467162Y-126228375D01*
X132433196Y-126197775D01*
X132433186Y-126197767D01*
X132411448Y-126180299D01*
X132374232Y-126153703D01*
X132278102Y-126092888D01*
X132278088Y-126092880D01*
X132238146Y-126070661D01*
X132238147Y-126070661D01*
X132213037Y-126058493D01*
X132213033Y-126058491D01*
X132213022Y-126058486D01*
X132170818Y-126040899D01*
X132170806Y-126040894D01*
X132170797Y-126040891D01*
X132063538Y-126003138D01*
X132019613Y-125990410D01*
X132015528Y-125989472D01*
X131992405Y-125984165D01*
X131947337Y-125976465D01*
X131947330Y-125976464D01*
X131947329Y-125976464D01*
X131827307Y-125962866D01*
X131820792Y-125962313D01*
X131804511Y-125960933D01*
X131790552Y-125960145D01*
X131767697Y-125959500D01*
X130178126Y-125959500D01*
X130151625Y-125960367D01*
X130139227Y-125961178D01*
X130135439Y-125961427D01*
X130109007Y-125964030D01*
X129970202Y-125982305D01*
X129918179Y-125992652D01*
X129886923Y-126001026D01*
X129886902Y-126001033D01*
X129836688Y-126018079D01*
X129836666Y-126018087D01*
X129714923Y-126068514D01*
X129714908Y-126068521D01*
X129667321Y-126091989D01*
X129639305Y-126108164D01*
X129595187Y-126137642D01*
X129490626Y-126217876D01*
X129450737Y-126252858D01*
X129427858Y-126275737D01*
X129392876Y-126315626D01*
X129312642Y-126420187D01*
X129283164Y-126464305D01*
X129266989Y-126492321D01*
X129243521Y-126539908D01*
X129243514Y-126539923D01*
X129193087Y-126661666D01*
X129193079Y-126661688D01*
X129176033Y-126711902D01*
X129176029Y-126711916D01*
X129167653Y-126743175D01*
X129167653Y-126743177D01*
X129157304Y-126795206D01*
X129139031Y-126933998D01*
X129139030Y-126934012D01*
X129136429Y-126960416D01*
X129135368Y-126976601D01*
X129134603Y-127000001D01*
X129134500Y-127003138D01*
X129134500Y-131863366D01*
X125462459Y-131863366D01*
X125462406Y-131863348D01*
X125322273Y-131816131D01*
X124972744Y-131739194D01*
X124616949Y-131700500D01*
X124616948Y-131700500D01*
X124259052Y-131700500D01*
X124259050Y-131700500D01*
X123903255Y-131739194D01*
X123553726Y-131816131D01*
X123309757Y-131898335D01*
X123214565Y-131930409D01*
X123214563Y-131930410D01*
X123214552Y-131930414D01*
X122889755Y-132080680D01*
X122889751Y-132080682D01*
X122782871Y-132144990D01*
X122583081Y-132265200D01*
X122521252Y-132312201D01*
X122298172Y-132481781D01*
X122298163Y-132481789D01*
X122038331Y-132727914D01*
X121806641Y-133000680D01*
X121806634Y-133000690D01*
X121605790Y-133296913D01*
X121605784Y-133296922D01*
X121438151Y-133613111D01*
X121438142Y-133613129D01*
X121305674Y-133945600D01*
X121305672Y-133945607D01*
X121209932Y-134290434D01*
X121209926Y-134290460D01*
X121152029Y-134643614D01*
X121152028Y-134643631D01*
X121132652Y-135000997D01*
X121132652Y-135001002D01*
X103298873Y-135001002D01*
X103279238Y-134877031D01*
X103218118Y-134757077D01*
X103122923Y-134661882D01*
X103002969Y-134600762D01*
X102903451Y-134585000D01*
X102836549Y-134585000D01*
X102737031Y-134600762D01*
X102617077Y-134661882D01*
X102521882Y-134757077D01*
X102520000Y-134760770D01*
X102520000Y-133585000D01*
X103220000Y-133585000D01*
X103220000Y-134660000D01*
X104294999Y-134660000D01*
X104294999Y-134285028D01*
X104294998Y-134285013D01*
X104284505Y-134182302D01*
X104229358Y-134015880D01*
X104229356Y-134015875D01*
X104137315Y-133866654D01*
X104013345Y-133742684D01*
X103864124Y-133650643D01*
X103864119Y-133650641D01*
X103697697Y-133595494D01*
X103697690Y-133595493D01*
X103594986Y-133585000D01*
X103220000Y-133585000D01*
X102520000Y-133585000D01*
X102145028Y-133585000D01*
X102145012Y-133585001D01*
X102042302Y-133595494D01*
X101875880Y-133650641D01*
X101875875Y-133650643D01*
X101726654Y-133742684D01*
X101602683Y-133866655D01*
X101602680Y-133866659D01*
X101545038Y-133960112D01*
X101493090Y-134006837D01*
X101424128Y-134018058D01*
X101360046Y-133990215D01*
X101321190Y-133932146D01*
X101315500Y-133895015D01*
X101315500Y-131071739D01*
X101335185Y-131004700D01*
X101387989Y-130958945D01*
X101457147Y-130949001D01*
X101520703Y-130978026D01*
X101558477Y-131036804D01*
X101559275Y-131039645D01*
X101559650Y-131041044D01*
X101559651Y-131041050D01*
X101567874Y-131071739D01*
X101619678Y-131265074D01*
X101619679Y-131265076D01*
X101619680Y-131265079D01*
X101717699Y-131475282D01*
X101850730Y-131665269D01*
X102014731Y-131829270D01*
X102204718Y-131962301D01*
X102414921Y-132060320D01*
X102638950Y-132120349D01*
X102803985Y-132134787D01*
X102869998Y-132140563D01*
X102870000Y-132140563D01*
X102870002Y-132140563D01*
X102927762Y-132135509D01*
X103101050Y-132120349D01*
X103325079Y-132060320D01*
X103535282Y-131962301D01*
X103725269Y-131829270D01*
X103889270Y-131665269D01*
X104022301Y-131475282D01*
X104120320Y-131265079D01*
X104180349Y-131041050D01*
X104200563Y-130810000D01*
X104180349Y-130578950D01*
X104120320Y-130354921D01*
X104022301Y-130144719D01*
X104022299Y-130144716D01*
X104022298Y-130144714D01*
X103889273Y-129954735D01*
X103889268Y-129954729D01*
X103725269Y-129790730D01*
X103725263Y-129790726D01*
X103535282Y-129657699D01*
X103325079Y-129559680D01*
X103325076Y-129559679D01*
X103325074Y-129559678D01*
X103101051Y-129499651D01*
X103101044Y-129499650D01*
X102870002Y-129479437D01*
X102869998Y-129479437D01*
X102638955Y-129499650D01*
X102638948Y-129499651D01*
X102414917Y-129559681D01*
X102204718Y-129657699D01*
X102204714Y-129657701D01*
X102014735Y-129790726D01*
X102014729Y-129790731D01*
X101850731Y-129954729D01*
X101850726Y-129954735D01*
X101717701Y-130144714D01*
X101717699Y-130144718D01*
X101619681Y-130354917D01*
X101619680Y-130354921D01*
X101567875Y-130548260D01*
X101559275Y-130580354D01*
X101522909Y-130640014D01*
X101460062Y-130670543D01*
X101390687Y-130662248D01*
X101336809Y-130617762D01*
X101315535Y-130551210D01*
X101315500Y-130548260D01*
X101315500Y-126871739D01*
X101335185Y-126804700D01*
X101387989Y-126758945D01*
X101457147Y-126749001D01*
X101520703Y-126778026D01*
X101558477Y-126836804D01*
X101559275Y-126839645D01*
X101559650Y-126841044D01*
X101559651Y-126841050D01*
X101567874Y-126871739D01*
X101619678Y-127065074D01*
X101619679Y-127065076D01*
X101619680Y-127065079D01*
X101717699Y-127275282D01*
X101850730Y-127465269D01*
X102014731Y-127629270D01*
X102204718Y-127762301D01*
X102414921Y-127860320D01*
X102638950Y-127920349D01*
X102803985Y-127934787D01*
X102869998Y-127940563D01*
X102870000Y-127940563D01*
X102870002Y-127940563D01*
X102927762Y-127935509D01*
X103101050Y-127920349D01*
X103325079Y-127860320D01*
X103535282Y-127762301D01*
X103725269Y-127629270D01*
X103889270Y-127465269D01*
X104022301Y-127275282D01*
X104120320Y-127065079D01*
X104180349Y-126841050D01*
X104200563Y-126610000D01*
X104180349Y-126378950D01*
X104120320Y-126154921D01*
X104022301Y-125944719D01*
X104022299Y-125944716D01*
X104022298Y-125944714D01*
X103889273Y-125754735D01*
X103889268Y-125754729D01*
X103725269Y-125590730D01*
X103725263Y-125590726D01*
X103535282Y-125457699D01*
X103325079Y-125359680D01*
X103325076Y-125359679D01*
X103325074Y-125359678D01*
X103101051Y-125299651D01*
X103101044Y-125299650D01*
X102870002Y-125279437D01*
X102869998Y-125279437D01*
X102638955Y-125299650D01*
X102638948Y-125299651D01*
X102414917Y-125359681D01*
X102204718Y-125457699D01*
X102204714Y-125457701D01*
X102014735Y-125590726D01*
X102014729Y-125590731D01*
X101850731Y-125754729D01*
X101850726Y-125754735D01*
X101717701Y-125944714D01*
X101717699Y-125944718D01*
X101619681Y-126154917D01*
X101619680Y-126154921D01*
X101567875Y-126348260D01*
X101559275Y-126380354D01*
X101522909Y-126440014D01*
X101460062Y-126470543D01*
X101390687Y-126462248D01*
X101336809Y-126417762D01*
X101315535Y-126351210D01*
X101315500Y-126348260D01*
X101315500Y-122671739D01*
X101335185Y-122604700D01*
X101387989Y-122558945D01*
X101457147Y-122549001D01*
X101520703Y-122578026D01*
X101558477Y-122636804D01*
X101559275Y-122639645D01*
X101619678Y-122865074D01*
X101619679Y-122865076D01*
X101619680Y-122865079D01*
X101717699Y-123075282D01*
X101850730Y-123265269D01*
X102014731Y-123429270D01*
X102204718Y-123562301D01*
X102414921Y-123660320D01*
X102638950Y-123720349D01*
X102803985Y-123734787D01*
X102869998Y-123740563D01*
X102870000Y-123740563D01*
X102870002Y-123740563D01*
X102927762Y-123735509D01*
X103101050Y-123720349D01*
X103325079Y-123660320D01*
X103535282Y-123562301D01*
X103725269Y-123429270D01*
X103889270Y-123265269D01*
X104022301Y-123075282D01*
X104030783Y-123057093D01*
X104076956Y-123004655D01*
X104143164Y-122985500D01*
X107646160Y-122985500D01*
X107662345Y-122986561D01*
X107691999Y-122990465D01*
X107692000Y-122990465D01*
X107729714Y-122985500D01*
X107729720Y-122985500D01*
X107842236Y-122970687D01*
X107982233Y-122912698D01*
X108009300Y-122891928D01*
X108022650Y-122881685D01*
X156849500Y-122881685D01*
X156855663Y-122949513D01*
X156855663Y-122949515D01*
X156855664Y-122949517D01*
X156894853Y-123075281D01*
X156904303Y-123105605D01*
X156988876Y-123245508D01*
X156988880Y-123245513D01*
X157104486Y-123361119D01*
X157104491Y-123361123D01*
X157217220Y-123429269D01*
X157244397Y-123445698D01*
X157400483Y-123494336D01*
X157468312Y-123500500D01*
X157468315Y-123500500D01*
X160031685Y-123500500D01*
X160031688Y-123500500D01*
X160099517Y-123494336D01*
X160255603Y-123445698D01*
X160350684Y-123388219D01*
X160395508Y-123361123D01*
X160395509Y-123361121D01*
X160395514Y-123361119D01*
X160511119Y-123245514D01*
X160595698Y-123105603D01*
X160644336Y-122949517D01*
X160650500Y-122881688D01*
X160650500Y-120318312D01*
X160644336Y-120250483D01*
X160595698Y-120094397D01*
X160582147Y-120071982D01*
X160511123Y-119954491D01*
X160511119Y-119954486D01*
X160395513Y-119838880D01*
X160395508Y-119838876D01*
X160255605Y-119754303D01*
X160255604Y-119754302D01*
X160255603Y-119754302D01*
X160099517Y-119705664D01*
X160099515Y-119705663D01*
X160099513Y-119705663D01*
X160052025Y-119701348D01*
X160031688Y-119699500D01*
X157468312Y-119699500D01*
X157449823Y-119701180D01*
X157400486Y-119705663D01*
X157244394Y-119754303D01*
X157104491Y-119838876D01*
X157104486Y-119838880D01*
X156988880Y-119954486D01*
X156988876Y-119954491D01*
X156904303Y-120094394D01*
X156855663Y-120250486D01*
X156849500Y-120318314D01*
X156849500Y-122881685D01*
X108022650Y-122881685D01*
X108030070Y-122875992D01*
X108030070Y-122875990D01*
X108072268Y-122843612D01*
X108072268Y-122843611D01*
X108080358Y-122837404D01*
X108080362Y-122837399D01*
X108102451Y-122820451D01*
X108120670Y-122796706D01*
X108131351Y-122784527D01*
X116557527Y-114358351D01*
X116569706Y-114347670D01*
X116593451Y-114329451D01*
X116610394Y-114307370D01*
X116610405Y-114307358D01*
X116685698Y-114209233D01*
X116743687Y-114069236D01*
X116747590Y-114039588D01*
X116758500Y-113956720D01*
X116758500Y-113956714D01*
X116763465Y-113919000D01*
X116759560Y-113889344D01*
X116758500Y-113873160D01*
X116758500Y-113026860D01*
X129134500Y-113026860D01*
X129135368Y-113053399D01*
X129136429Y-113069583D01*
X129139031Y-113096000D01*
X129157304Y-113234792D01*
X129167653Y-113286821D01*
X129167653Y-113286823D01*
X129176029Y-113318082D01*
X129176033Y-113318096D01*
X129193079Y-113368310D01*
X129193087Y-113368332D01*
X129243514Y-113490075D01*
X129243521Y-113490090D01*
X129266989Y-113537677D01*
X129283164Y-113565693D01*
X129312642Y-113609811D01*
X129392876Y-113714372D01*
X129392881Y-113714377D01*
X129392882Y-113714379D01*
X129427854Y-113754257D01*
X129450742Y-113777145D01*
X129490620Y-113812117D01*
X129490626Y-113812122D01*
X129595187Y-113892356D01*
X129639305Y-113921834D01*
X129667322Y-113938009D01*
X129667321Y-113938009D01*
X129667327Y-113938011D01*
X129667334Y-113938016D01*
X129714907Y-113961477D01*
X129714915Y-113961480D01*
X129714923Y-113961484D01*
X129836666Y-114011911D01*
X129836671Y-114011913D01*
X129836686Y-114011919D01*
X129862077Y-114020538D01*
X129886892Y-114028962D01*
X129886898Y-114028963D01*
X129886908Y-114028967D01*
X129912919Y-114035936D01*
X129918166Y-114037343D01*
X129918168Y-114037343D01*
X129918174Y-114037345D01*
X129970198Y-114047694D01*
X130109011Y-114065970D01*
X130135415Y-114068570D01*
X130135429Y-114068570D01*
X130135430Y-114068571D01*
X130151567Y-114069629D01*
X130151569Y-114069629D01*
X130151599Y-114069631D01*
X130178126Y-114070500D01*
X130178140Y-114070500D01*
X131767682Y-114070500D01*
X131767697Y-114070500D01*
X131790553Y-114069855D01*
X131804511Y-114069067D01*
X131827305Y-114067134D01*
X131947335Y-114053535D01*
X131992407Y-114045834D01*
X132019617Y-114039588D01*
X132063528Y-114026864D01*
X132170820Y-113989099D01*
X132213021Y-113971513D01*
X132238145Y-113959338D01*
X132278103Y-113937110D01*
X132374230Y-113876297D01*
X132411430Y-113849713D01*
X132433193Y-113832226D01*
X132467162Y-113801624D01*
X132552210Y-113715842D01*
X132567854Y-113699146D01*
X132570376Y-113696297D01*
X132577120Y-113688681D01*
X132583861Y-113680620D01*
X132591787Y-113671143D01*
X139741371Y-104615001D01*
X156844645Y-104615001D01*
X156864039Y-104886160D01*
X156864040Y-104886167D01*
X156895112Y-105029002D01*
X156921825Y-105151801D01*
X156988405Y-105330308D01*
X157016830Y-105406519D01*
X157147109Y-105645107D01*
X157147110Y-105645108D01*
X157147113Y-105645113D01*
X157310029Y-105862742D01*
X157310033Y-105862746D01*
X157310038Y-105862752D01*
X157502247Y-106054961D01*
X157502253Y-106054966D01*
X157502258Y-106054971D01*
X157719887Y-106217887D01*
X157719891Y-106217889D01*
X157719892Y-106217890D01*
X157958481Y-106348169D01*
X157958480Y-106348169D01*
X157958484Y-106348170D01*
X157958487Y-106348172D01*
X158213199Y-106443175D01*
X158478840Y-106500961D01*
X158730605Y-106518967D01*
X158749999Y-106520355D01*
X158750000Y-106520355D01*
X158750001Y-106520355D01*
X158768100Y-106519060D01*
X159021160Y-106500961D01*
X159286801Y-106443175D01*
X159541513Y-106348172D01*
X159541517Y-106348169D01*
X159541519Y-106348169D01*
X159660813Y-106283029D01*
X159780113Y-106217887D01*
X159997742Y-106054971D01*
X160189971Y-105862742D01*
X160352887Y-105645113D01*
X160483172Y-105406513D01*
X160578175Y-105151801D01*
X160635961Y-104886160D01*
X160655355Y-104615000D01*
X160655126Y-104611804D01*
X160649558Y-104533945D01*
X160635961Y-104343840D01*
X160578175Y-104078199D01*
X160483172Y-103823487D01*
X160483170Y-103823484D01*
X160483169Y-103823480D01*
X160352890Y-103584892D01*
X160352889Y-103584891D01*
X160352887Y-103584887D01*
X160189971Y-103367258D01*
X160189966Y-103367253D01*
X160189961Y-103367247D01*
X159997752Y-103175038D01*
X159997746Y-103175033D01*
X159997742Y-103175029D01*
X159780113Y-103012113D01*
X159780108Y-103012110D01*
X159780107Y-103012109D01*
X159541518Y-102881830D01*
X159541519Y-102881830D01*
X159491920Y-102863330D01*
X159286801Y-102786825D01*
X159286794Y-102786823D01*
X159286793Y-102786823D01*
X159021167Y-102729040D01*
X159021160Y-102729039D01*
X158750001Y-102709645D01*
X158749999Y-102709645D01*
X158478839Y-102729039D01*
X158478832Y-102729040D01*
X158213206Y-102786823D01*
X158213202Y-102786824D01*
X158213199Y-102786825D01*
X158085843Y-102834326D01*
X157958480Y-102881830D01*
X157719892Y-103012109D01*
X157719891Y-103012110D01*
X157502259Y-103175028D01*
X157502247Y-103175038D01*
X157310038Y-103367247D01*
X157310028Y-103367259D01*
X157147110Y-103584891D01*
X157147109Y-103584892D01*
X157016830Y-103823480D01*
X156977130Y-103929921D01*
X156921825Y-104078199D01*
X156921824Y-104078202D01*
X156921823Y-104078206D01*
X156864040Y-104343832D01*
X156864039Y-104343839D01*
X156844645Y-104614998D01*
X156844645Y-104615001D01*
X139741371Y-104615001D01*
X140470805Y-103691051D01*
X140527172Y-103650847D01*
X140684522Y-103595789D01*
X140837262Y-103499816D01*
X140964816Y-103372262D01*
X141060789Y-103219522D01*
X141120368Y-103049255D01*
X141122686Y-103028689D01*
X141139232Y-102881828D01*
X141140191Y-102873311D01*
X141166084Y-102810363D01*
X141783464Y-102028351D01*
X141796939Y-102010271D01*
X141804872Y-101998985D01*
X141817353Y-101980132D01*
X141880397Y-101878881D01*
X141902088Y-101839291D01*
X141913967Y-101814416D01*
X141931122Y-101772662D01*
X141967956Y-101666562D01*
X141980364Y-101623161D01*
X141986454Y-101596277D01*
X141993961Y-101551763D01*
X142007219Y-101433228D01*
X142009104Y-101410714D01*
X142009872Y-101396931D01*
X142010500Y-101374371D01*
X142010500Y-100330005D01*
X142559859Y-100330005D01*
X142580385Y-100577729D01*
X142580387Y-100577738D01*
X142641412Y-100818717D01*
X142741265Y-101046362D01*
X142741267Y-101046366D01*
X142785679Y-101114344D01*
X143565000Y-100335024D01*
X143565000Y-100401889D01*
X143605507Y-100539844D01*
X143683239Y-100660798D01*
X143791900Y-100754952D01*
X143922685Y-100814680D01*
X144029237Y-100830000D01*
X144059975Y-100830000D01*
X143279500Y-101610473D01*
X143460391Y-101708367D01*
X143460399Y-101708370D01*
X143695506Y-101789083D01*
X143940707Y-101830000D01*
X144189293Y-101830000D01*
X144434493Y-101789083D01*
X144669600Y-101708370D01*
X144669608Y-101708367D01*
X144850498Y-101610473D01*
X144070025Y-100830000D01*
X144100763Y-100830000D01*
X144207315Y-100814680D01*
X144338100Y-100754952D01*
X144446761Y-100660798D01*
X144524493Y-100539844D01*
X144565000Y-100401889D01*
X144565000Y-100335026D01*
X145344319Y-101114345D01*
X145388731Y-101046369D01*
X145488587Y-100818717D01*
X145549612Y-100577738D01*
X145549614Y-100577729D01*
X145570141Y-100330005D01*
X145570141Y-100329994D01*
X145549614Y-100082270D01*
X145549612Y-100082261D01*
X145488587Y-99841282D01*
X145388732Y-99613632D01*
X145344319Y-99545653D01*
X144565000Y-100324973D01*
X144565000Y-100258111D01*
X144524493Y-100120156D01*
X144446761Y-99999202D01*
X144338100Y-99905048D01*
X144207315Y-99845320D01*
X144100763Y-99830000D01*
X144070026Y-99830000D01*
X144850498Y-99049525D01*
X144669609Y-98951632D01*
X144669603Y-98951630D01*
X144434493Y-98870916D01*
X144189293Y-98830000D01*
X143940707Y-98830000D01*
X143695506Y-98870916D01*
X143460396Y-98951630D01*
X143460385Y-98951635D01*
X143279500Y-99049524D01*
X143279500Y-99049525D01*
X144059975Y-99830000D01*
X144029237Y-99830000D01*
X143922685Y-99845320D01*
X143791900Y-99905048D01*
X143683239Y-99999202D01*
X143605507Y-100120156D01*
X143565000Y-100258111D01*
X143565000Y-100324975D01*
X142785679Y-99545654D01*
X142741267Y-99613634D01*
X142641411Y-99841282D01*
X142580387Y-100082261D01*
X142580385Y-100082270D01*
X142559859Y-100329994D01*
X142559859Y-100330005D01*
X142010500Y-100330005D01*
X142010500Y-97793126D01*
X142009632Y-97766602D01*
X142008571Y-97750416D01*
X142008569Y-97750391D01*
X142005971Y-97724023D01*
X141987692Y-97585191D01*
X141985141Y-97572369D01*
X141977345Y-97533174D01*
X141968967Y-97501908D01*
X141951919Y-97451686D01*
X141951911Y-97451666D01*
X141901484Y-97329923D01*
X141901477Y-97329908D01*
X141901477Y-97329907D01*
X141878016Y-97282334D01*
X141878011Y-97282327D01*
X141878009Y-97282321D01*
X141861834Y-97254305D01*
X141832356Y-97210187D01*
X141752122Y-97105626D01*
X141729175Y-97079460D01*
X141717145Y-97065742D01*
X141694257Y-97042854D01*
X141654379Y-97007882D01*
X141654377Y-97007881D01*
X141654372Y-97007876D01*
X141549811Y-96927642D01*
X141505693Y-96898164D01*
X141477676Y-96881989D01*
X141477677Y-96881989D01*
X141430090Y-96858521D01*
X141430075Y-96858514D01*
X141308332Y-96808087D01*
X141308310Y-96808079D01*
X141258106Y-96791036D01*
X141226832Y-96782655D01*
X141174801Y-96772305D01*
X141035988Y-96754029D01*
X141035986Y-96754028D01*
X141035980Y-96754028D01*
X141009571Y-96751427D01*
X140999622Y-96750775D01*
X140993378Y-96750367D01*
X140966874Y-96749500D01*
X138113455Y-96749500D01*
X138105707Y-96749722D01*
X138090211Y-96750167D01*
X138076021Y-96750981D01*
X138052841Y-96752979D01*
X137930786Y-96767046D01*
X137892034Y-96773783D01*
X137884952Y-96775015D01*
X137884950Y-96775015D01*
X137884941Y-96775017D01*
X137884935Y-96775018D01*
X137857343Y-96781464D01*
X137857299Y-96781476D01*
X137812743Y-96794620D01*
X137812704Y-96794633D01*
X137703820Y-96833669D01*
X137661044Y-96851834D01*
X137661032Y-96851839D01*
X137635576Y-96864418D01*
X137595130Y-96887382D01*
X137595115Y-96887391D01*
X137497982Y-96950160D01*
X137497970Y-96950169D01*
X137460418Y-96977611D01*
X137460401Y-96977625D01*
X137438502Y-96995642D01*
X137438498Y-96995645D01*
X137404355Y-97027187D01*
X137319029Y-97115607D01*
X137303402Y-97132758D01*
X137294133Y-97143535D01*
X137279438Y-97161649D01*
X135434318Y-99574500D01*
X134846194Y-100343585D01*
X134278848Y-101085500D01*
X134243654Y-101131523D01*
X129351537Y-107528904D01*
X129338597Y-107546816D01*
X129331035Y-107557907D01*
X129319117Y-107576451D01*
X129319111Y-107576461D01*
X129274866Y-107649602D01*
X129258778Y-107676196D01*
X129238055Y-107715081D01*
X129238035Y-107715122D01*
X129226705Y-107739489D01*
X129226692Y-107739518D01*
X129210301Y-107780458D01*
X129175114Y-107884400D01*
X129175112Y-107884408D01*
X129163272Y-107926851D01*
X129163264Y-107926885D01*
X129157450Y-107953173D01*
X129150285Y-107996688D01*
X129137628Y-108112552D01*
X129135833Y-108134508D01*
X129135098Y-108148001D01*
X129134500Y-108170026D01*
X129134500Y-113026860D01*
X116758500Y-113026860D01*
X116758500Y-113002940D01*
X116778185Y-112935901D01*
X116794819Y-112915259D01*
X116812816Y-112897262D01*
X116908789Y-112744522D01*
X116968368Y-112574255D01*
X116976086Y-112505754D01*
X116988565Y-112395003D01*
X116988565Y-112394996D01*
X116968369Y-112215750D01*
X116968366Y-112215737D01*
X116908790Y-112045481D01*
X116908789Y-112045478D01*
X116902813Y-112035967D01*
X116883815Y-111968730D01*
X116902817Y-111904023D01*
X116908789Y-111894519D01*
X116968368Y-111724252D01*
X116988565Y-111544997D01*
X116983515Y-111500181D01*
X116968369Y-111365747D01*
X116968368Y-111365742D01*
X116908788Y-111195473D01*
X116812815Y-111042734D01*
X116685262Y-110915181D01*
X116532523Y-110819208D01*
X116362254Y-110759628D01*
X116362249Y-110759627D01*
X116183004Y-110739432D01*
X116182996Y-110739432D01*
X116003750Y-110759627D01*
X116003745Y-110759628D01*
X115833476Y-110819208D01*
X115680737Y-110915181D01*
X115553184Y-111042734D01*
X115457211Y-111195473D01*
X115397631Y-111365742D01*
X115397630Y-111365747D01*
X115377435Y-111544993D01*
X115377435Y-111545000D01*
X115397630Y-111724246D01*
X115397633Y-111724259D01*
X115457209Y-111894515D01*
X115457210Y-111894517D01*
X115457211Y-111894519D01*
X115463183Y-111904023D01*
X115463185Y-111904026D01*
X115482185Y-111971263D01*
X115463187Y-112035967D01*
X115457209Y-112045481D01*
X115397633Y-112215737D01*
X115397630Y-112215750D01*
X115377435Y-112394996D01*
X115377435Y-112395003D01*
X115397630Y-112574249D01*
X115397631Y-112574254D01*
X115457211Y-112744523D01*
X115553184Y-112897262D01*
X115571181Y-112915259D01*
X115604666Y-112976582D01*
X115607500Y-113002940D01*
X115607500Y-113629258D01*
X115587815Y-113696297D01*
X115571181Y-113716939D01*
X107489939Y-121798181D01*
X107428616Y-121831666D01*
X107402258Y-121834500D01*
X104143164Y-121834500D01*
X104076125Y-121814815D01*
X104030783Y-121762907D01*
X104022302Y-121744721D01*
X104022300Y-121744717D01*
X103889273Y-121554735D01*
X103889268Y-121554729D01*
X103725269Y-121390730D01*
X103725263Y-121390726D01*
X103535282Y-121257699D01*
X103325079Y-121159680D01*
X103325076Y-121159679D01*
X103325074Y-121159678D01*
X103101051Y-121099651D01*
X103101044Y-121099650D01*
X102870002Y-121079437D01*
X102869998Y-121079437D01*
X102638955Y-121099650D01*
X102638948Y-121099651D01*
X102414917Y-121159681D01*
X102204718Y-121257699D01*
X102204714Y-121257701D01*
X102014735Y-121390726D01*
X102014729Y-121390731D01*
X101850731Y-121554729D01*
X101850726Y-121554735D01*
X101717701Y-121744714D01*
X101717699Y-121744718D01*
X101619681Y-121954917D01*
X101619680Y-121954921D01*
X101567875Y-122148260D01*
X101559275Y-122180354D01*
X101522909Y-122240014D01*
X101460062Y-122270543D01*
X101390687Y-122262248D01*
X101336809Y-122217762D01*
X101315535Y-122151210D01*
X101315500Y-122148260D01*
X101315500Y-113585000D01*
X109897357Y-113585000D01*
X109917884Y-113806535D01*
X109917885Y-113806537D01*
X109978769Y-114020523D01*
X109978775Y-114020538D01*
X110077938Y-114219683D01*
X110077943Y-114219691D01*
X110212020Y-114397238D01*
X110376437Y-114547123D01*
X110376439Y-114547125D01*
X110565595Y-114664245D01*
X110565596Y-114664245D01*
X110565599Y-114664247D01*
X110773060Y-114744618D01*
X110991757Y-114785500D01*
X110991759Y-114785500D01*
X111214241Y-114785500D01*
X111214243Y-114785500D01*
X111432940Y-114744618D01*
X111640401Y-114664247D01*
X111829562Y-114547124D01*
X111993981Y-114397236D01*
X112128058Y-114219689D01*
X112227229Y-114020528D01*
X112288115Y-113806536D01*
X112308643Y-113585000D01*
X112288115Y-113363464D01*
X112227229Y-113149472D01*
X112200603Y-113096000D01*
X112128061Y-112950316D01*
X112128056Y-112950308D01*
X111993979Y-112772761D01*
X111829562Y-112622876D01*
X111829560Y-112622874D01*
X111640404Y-112505754D01*
X111640398Y-112505752D01*
X111432940Y-112425382D01*
X111214243Y-112384500D01*
X110991757Y-112384500D01*
X110773060Y-112425382D01*
X110641864Y-112476207D01*
X110565601Y-112505752D01*
X110565595Y-112505754D01*
X110376439Y-112622874D01*
X110376437Y-112622876D01*
X110212020Y-112772761D01*
X110077943Y-112950308D01*
X110077938Y-112950316D01*
X109978775Y-113149461D01*
X109978769Y-113149476D01*
X109917885Y-113363462D01*
X109917884Y-113363464D01*
X109897357Y-113584999D01*
X109897357Y-113585000D01*
X101315500Y-113585000D01*
X101315500Y-109435626D01*
X101335185Y-109368587D01*
X101387989Y-109322832D01*
X101457147Y-109312888D01*
X101520703Y-109341913D01*
X101558477Y-109400691D01*
X101558576Y-109401031D01*
X101593254Y-109520393D01*
X101593255Y-109520396D01*
X101676917Y-109661862D01*
X101676923Y-109661870D01*
X101793129Y-109778076D01*
X101793133Y-109778079D01*
X101793135Y-109778081D01*
X101934602Y-109861744D01*
X101971989Y-109872606D01*
X102092426Y-109907597D01*
X102092429Y-109907597D01*
X102092431Y-109907598D01*
X102129306Y-109910500D01*
X102129314Y-109910500D01*
X103610686Y-109910500D01*
X103610694Y-109910500D01*
X103647569Y-109907598D01*
X103647571Y-109907597D01*
X103647573Y-109907597D01*
X103689191Y-109895505D01*
X103805398Y-109861744D01*
X103946865Y-109778081D01*
X104063081Y-109661865D01*
X104146744Y-109520398D01*
X104192598Y-109362569D01*
X104195500Y-109325694D01*
X104195500Y-108585000D01*
X109897357Y-108585000D01*
X109917884Y-108806535D01*
X109917885Y-108806537D01*
X109978769Y-109020523D01*
X109978775Y-109020538D01*
X110077938Y-109219683D01*
X110077943Y-109219691D01*
X110212020Y-109397238D01*
X110376437Y-109547123D01*
X110376439Y-109547125D01*
X110565595Y-109664245D01*
X110565596Y-109664245D01*
X110565599Y-109664247D01*
X110773060Y-109744618D01*
X110991757Y-109785500D01*
X110991759Y-109785500D01*
X111214241Y-109785500D01*
X111214243Y-109785500D01*
X111432940Y-109744618D01*
X111640401Y-109664247D01*
X111829562Y-109547124D01*
X111993981Y-109397236D01*
X112128058Y-109219689D01*
X112227229Y-109020528D01*
X112288115Y-108806536D01*
X112308643Y-108585000D01*
X112288115Y-108363464D01*
X112227229Y-108149472D01*
X112226497Y-108148001D01*
X112128061Y-107950316D01*
X112128056Y-107950308D01*
X111993979Y-107772761D01*
X111829562Y-107622876D01*
X111829560Y-107622874D01*
X111640404Y-107505754D01*
X111640398Y-107505752D01*
X111432940Y-107425382D01*
X111280513Y-107396888D01*
X111218234Y-107365221D01*
X111182961Y-107304908D01*
X111185895Y-107235100D01*
X111226104Y-107177960D01*
X111280513Y-107153111D01*
X111432940Y-107124618D01*
X111640401Y-107044247D01*
X111829562Y-106927124D01*
X111993981Y-106777236D01*
X112128058Y-106599689D01*
X112227229Y-106400528D01*
X112288115Y-106186536D01*
X112308643Y-105965000D01*
X112299168Y-105862752D01*
X112288115Y-105743464D01*
X112288114Y-105743462D01*
X112287005Y-105739565D01*
X112227229Y-105529472D01*
X112227224Y-105529461D01*
X112128061Y-105330316D01*
X112128056Y-105330308D01*
X111993979Y-105152761D01*
X111858221Y-105029002D01*
X121154652Y-105029002D01*
X121174028Y-105386368D01*
X121174029Y-105386385D01*
X121231926Y-105739539D01*
X121231932Y-105739565D01*
X121327672Y-106084392D01*
X121327674Y-106084399D01*
X121460142Y-106416870D01*
X121460151Y-106416888D01*
X121627784Y-106733077D01*
X121627787Y-106733082D01*
X121627789Y-106733085D01*
X121759351Y-106927125D01*
X121828634Y-107029309D01*
X121828641Y-107029319D01*
X122011921Y-107245092D01*
X122060332Y-107302086D01*
X122320163Y-107548211D01*
X122320170Y-107548216D01*
X122320172Y-107548218D01*
X122347051Y-107568651D01*
X122605081Y-107764800D01*
X122911747Y-107949315D01*
X122911749Y-107949316D01*
X122911751Y-107949317D01*
X122911755Y-107949319D01*
X123085292Y-108029605D01*
X123236565Y-108099591D01*
X123575726Y-108213868D01*
X123925254Y-108290805D01*
X124281052Y-108329500D01*
X124281058Y-108329500D01*
X124638942Y-108329500D01*
X124638948Y-108329500D01*
X124994746Y-108290805D01*
X125344274Y-108213868D01*
X125683435Y-108099591D01*
X126008253Y-107949315D01*
X126314919Y-107764800D01*
X126599837Y-107548211D01*
X126859668Y-107302086D01*
X127091365Y-107029311D01*
X127292211Y-106733085D01*
X127459853Y-106416880D01*
X127592324Y-106084403D01*
X127688071Y-105739552D01*
X127721228Y-105537301D01*
X127745970Y-105386385D01*
X127745970Y-105386382D01*
X127745972Y-105386371D01*
X127765348Y-105029000D01*
X127763931Y-105002874D01*
X127755105Y-104840079D01*
X127745972Y-104671629D01*
X127741891Y-104646739D01*
X127688073Y-104318460D01*
X127688072Y-104318459D01*
X127688071Y-104318448D01*
X127633878Y-104123260D01*
X127592327Y-103973607D01*
X127592325Y-103973600D01*
X127459857Y-103641129D01*
X127459848Y-103641111D01*
X127292215Y-103324922D01*
X127292213Y-103324919D01*
X127292211Y-103324915D01*
X127091365Y-103028689D01*
X127091361Y-103028684D01*
X127091358Y-103028680D01*
X126859668Y-102755914D01*
X126810822Y-102709645D01*
X126599837Y-102509789D01*
X126599830Y-102509783D01*
X126599827Y-102509781D01*
X126532245Y-102458407D01*
X126314919Y-102293200D01*
X126008253Y-102108685D01*
X126008252Y-102108684D01*
X126008248Y-102108682D01*
X126008244Y-102108680D01*
X125683447Y-101958414D01*
X125683441Y-101958411D01*
X125683435Y-101958409D01*
X125513854Y-101901270D01*
X125344273Y-101844131D01*
X124994744Y-101767194D01*
X124638949Y-101728500D01*
X124638948Y-101728500D01*
X124281052Y-101728500D01*
X124281050Y-101728500D01*
X123925255Y-101767194D01*
X123575726Y-101844131D01*
X123329418Y-101927123D01*
X123236565Y-101958409D01*
X123236563Y-101958410D01*
X123236552Y-101958414D01*
X122911755Y-102108680D01*
X122911751Y-102108682D01*
X122683367Y-102246096D01*
X122605081Y-102293200D01*
X122516768Y-102360333D01*
X122320172Y-102509781D01*
X122320163Y-102509789D01*
X122060331Y-102755914D01*
X121828641Y-103028680D01*
X121828634Y-103028690D01*
X121627790Y-103324913D01*
X121627784Y-103324922D01*
X121460151Y-103641111D01*
X121460142Y-103641129D01*
X121327674Y-103973600D01*
X121327672Y-103973607D01*
X121231932Y-104318434D01*
X121231926Y-104318460D01*
X121174029Y-104671614D01*
X121174028Y-104671631D01*
X121154652Y-105028997D01*
X121154652Y-105029002D01*
X111858221Y-105029002D01*
X111829562Y-105002876D01*
X111829560Y-105002874D01*
X111640404Y-104885754D01*
X111640398Y-104885752D01*
X111432940Y-104805382D01*
X111214243Y-104764500D01*
X110991757Y-104764500D01*
X110773060Y-104805382D01*
X110641864Y-104856207D01*
X110565601Y-104885752D01*
X110565595Y-104885754D01*
X110376439Y-105002874D01*
X110376437Y-105002876D01*
X110212020Y-105152761D01*
X110077943Y-105330308D01*
X110077938Y-105330316D01*
X109978775Y-105529461D01*
X109978769Y-105529476D01*
X109917885Y-105743462D01*
X109917884Y-105743464D01*
X109897357Y-105964999D01*
X109897357Y-105965000D01*
X109917884Y-106186535D01*
X109917885Y-106186537D01*
X109978769Y-106400523D01*
X109978775Y-106400538D01*
X110077938Y-106599683D01*
X110077943Y-106599691D01*
X110212020Y-106777238D01*
X110376437Y-106927123D01*
X110376439Y-106927125D01*
X110565595Y-107044245D01*
X110565596Y-107044245D01*
X110565599Y-107044247D01*
X110773060Y-107124618D01*
X110925484Y-107153111D01*
X110987765Y-107184780D01*
X111023038Y-107245092D01*
X111020104Y-107314900D01*
X110979895Y-107372040D01*
X110925485Y-107396888D01*
X110773060Y-107425382D01*
X110641864Y-107476207D01*
X110565601Y-107505752D01*
X110565595Y-107505754D01*
X110376439Y-107622874D01*
X110376437Y-107622876D01*
X110212020Y-107772761D01*
X110077943Y-107950308D01*
X110077938Y-107950316D01*
X109978775Y-108149461D01*
X109978769Y-108149476D01*
X109917885Y-108363462D01*
X109917884Y-108363464D01*
X109897357Y-108584999D01*
X109897357Y-108585000D01*
X104195500Y-108585000D01*
X104195500Y-107844306D01*
X104192598Y-107807431D01*
X104184760Y-107780454D01*
X104146745Y-107649606D01*
X104146744Y-107649603D01*
X104146744Y-107649602D01*
X104063081Y-107508135D01*
X104063079Y-107508133D01*
X104063076Y-107508129D01*
X103946870Y-107391923D01*
X103946862Y-107391917D01*
X103805396Y-107308255D01*
X103805393Y-107308254D01*
X103647573Y-107262402D01*
X103647567Y-107262401D01*
X103610701Y-107259500D01*
X103610694Y-107259500D01*
X102129306Y-107259500D01*
X102129298Y-107259500D01*
X102092432Y-107262401D01*
X102092426Y-107262402D01*
X101934606Y-107308254D01*
X101934603Y-107308255D01*
X101793137Y-107391917D01*
X101793129Y-107391923D01*
X101676923Y-107508129D01*
X101676917Y-107508137D01*
X101593255Y-107649603D01*
X101593253Y-107649606D01*
X101558576Y-107768968D01*
X101520970Y-107827854D01*
X101457497Y-107857060D01*
X101388311Y-107847314D01*
X101335376Y-107801710D01*
X101315501Y-107734727D01*
X101315500Y-107734373D01*
X101315500Y-104646739D01*
X101335185Y-104579700D01*
X101387989Y-104533945D01*
X101457147Y-104524001D01*
X101520703Y-104553026D01*
X101558477Y-104611804D01*
X101559275Y-104614645D01*
X101559650Y-104616044D01*
X101559651Y-104616050D01*
X101574544Y-104671631D01*
X101619678Y-104840074D01*
X101619679Y-104840076D01*
X101619680Y-104840079D01*
X101717699Y-105050282D01*
X101850730Y-105240269D01*
X102014731Y-105404270D01*
X102204718Y-105537301D01*
X102414921Y-105635320D01*
X102638950Y-105695349D01*
X102803985Y-105709787D01*
X102869998Y-105715563D01*
X102870000Y-105715563D01*
X102870002Y-105715563D01*
X102927762Y-105710509D01*
X103101050Y-105695349D01*
X103325079Y-105635320D01*
X103535282Y-105537301D01*
X103725269Y-105404270D01*
X103889270Y-105240269D01*
X104022301Y-105050282D01*
X104120320Y-104840079D01*
X104180349Y-104616050D01*
X104200563Y-104385000D01*
X104180349Y-104153950D01*
X104120320Y-103929921D01*
X104022301Y-103719719D01*
X104022299Y-103719716D01*
X104022298Y-103719714D01*
X103889273Y-103529735D01*
X103889268Y-103529729D01*
X103725269Y-103365730D01*
X103666979Y-103324915D01*
X103535282Y-103232699D01*
X103325079Y-103134680D01*
X103325076Y-103134679D01*
X103325074Y-103134678D01*
X103101051Y-103074651D01*
X103101044Y-103074650D01*
X102870002Y-103054437D01*
X102869998Y-103054437D01*
X102638955Y-103074650D01*
X102638948Y-103074651D01*
X102414917Y-103134681D01*
X102204718Y-103232699D01*
X102204714Y-103232701D01*
X102014735Y-103365726D01*
X102014729Y-103365731D01*
X101850731Y-103529729D01*
X101850726Y-103529735D01*
X101717701Y-103719714D01*
X101717699Y-103719718D01*
X101619681Y-103929917D01*
X101619680Y-103929921D01*
X101567875Y-104123260D01*
X101559275Y-104155354D01*
X101522909Y-104215014D01*
X101460062Y-104245543D01*
X101390687Y-104237248D01*
X101336809Y-104192762D01*
X101315535Y-104126210D01*
X101315500Y-104123260D01*
X101315500Y-99926359D01*
X101335185Y-99859320D01*
X101387989Y-99813565D01*
X101457147Y-99803621D01*
X101520703Y-99832646D01*
X101534008Y-99846083D01*
X101667187Y-100002874D01*
X101718332Y-100063086D01*
X101978163Y-100309211D01*
X102263081Y-100525800D01*
X102569747Y-100710315D01*
X102569749Y-100710316D01*
X102569751Y-100710317D01*
X102569755Y-100710319D01*
X102795329Y-100814680D01*
X102894565Y-100860591D01*
X103233726Y-100974868D01*
X103583254Y-101051805D01*
X103939052Y-101090500D01*
X103939058Y-101090500D01*
X104296942Y-101090500D01*
X104296948Y-101090500D01*
X104652746Y-101051805D01*
X105002274Y-100974868D01*
X105031561Y-100965000D01*
X109897357Y-100965000D01*
X109917884Y-101186535D01*
X109917885Y-101186537D01*
X109978769Y-101400523D01*
X109978775Y-101400538D01*
X110077938Y-101599683D01*
X110077943Y-101599691D01*
X110212020Y-101777238D01*
X110376437Y-101927123D01*
X110376439Y-101927125D01*
X110565595Y-102044245D01*
X110565596Y-102044245D01*
X110565599Y-102044247D01*
X110773060Y-102124618D01*
X110991757Y-102165500D01*
X110991759Y-102165500D01*
X111214241Y-102165500D01*
X111214243Y-102165500D01*
X111432940Y-102124618D01*
X111640401Y-102044247D01*
X111829562Y-101927124D01*
X111969282Y-101799751D01*
X111993979Y-101777238D01*
X111997433Y-101772665D01*
X112128058Y-101599689D01*
X112227229Y-101400528D01*
X112288115Y-101186536D01*
X112308643Y-100965000D01*
X112288115Y-100743464D01*
X112227229Y-100529472D01*
X112134668Y-100343585D01*
X112128061Y-100330316D01*
X112128056Y-100330308D01*
X111993979Y-100152761D01*
X111829562Y-100002876D01*
X111829560Y-100002874D01*
X111640404Y-99885754D01*
X111640398Y-99885752D01*
X111432940Y-99805382D01*
X111214243Y-99764500D01*
X110991757Y-99764500D01*
X110773060Y-99805382D01*
X110667999Y-99846083D01*
X110565601Y-99885752D01*
X110565595Y-99885754D01*
X110376439Y-100002874D01*
X110376437Y-100002876D01*
X110212020Y-100152761D01*
X110077943Y-100330308D01*
X110077938Y-100330316D01*
X109978775Y-100529461D01*
X109978769Y-100529476D01*
X109917885Y-100743462D01*
X109917884Y-100743464D01*
X109897357Y-100964999D01*
X109897357Y-100965000D01*
X105031561Y-100965000D01*
X105341435Y-100860591D01*
X105666253Y-100710315D01*
X105972919Y-100525800D01*
X106257837Y-100309211D01*
X106517668Y-100063086D01*
X106749365Y-99790311D01*
X106950211Y-99494085D01*
X107117853Y-99177880D01*
X107250324Y-98845403D01*
X107346071Y-98500552D01*
X107403972Y-98147371D01*
X107423348Y-97790000D01*
X107403972Y-97432629D01*
X107387134Y-97329923D01*
X107346073Y-97079460D01*
X107346072Y-97079459D01*
X107346071Y-97079448D01*
X107286369Y-96864419D01*
X107250327Y-96734607D01*
X107250325Y-96734600D01*
X107117857Y-96402129D01*
X107117848Y-96402111D01*
X106950215Y-96085922D01*
X106950213Y-96085919D01*
X106950211Y-96085915D01*
X106749365Y-95789689D01*
X106749361Y-95789684D01*
X106749358Y-95789680D01*
X106517668Y-95516914D01*
X106257837Y-95270789D01*
X106257830Y-95270783D01*
X106257827Y-95270781D01*
X106149214Y-95188216D01*
X106107756Y-95131975D01*
X106103287Y-95062248D01*
X106137224Y-95001174D01*
X106198792Y-94968142D01*
X106224255Y-94965500D01*
X156008745Y-94965500D01*
X156075784Y-94985185D01*
G37*
%TD.AperFunction*%
%TD*%
%TA.AperFunction,Conductor*%
%TO.N,VCC*%
G36*
X140983057Y-97156060D02*
G01*
X141121870Y-97174336D01*
X141153136Y-97182714D01*
X141274915Y-97233156D01*
X141302950Y-97249342D01*
X141407525Y-97329586D01*
X141430413Y-97352474D01*
X141510657Y-97457049D01*
X141526843Y-97485084D01*
X141577285Y-97606863D01*
X141585663Y-97638129D01*
X141603939Y-97776940D01*
X141605000Y-97793126D01*
X141605000Y-101374371D01*
X141604232Y-101388154D01*
X141590974Y-101506689D01*
X141584884Y-101533573D01*
X141548050Y-101639673D01*
X141536171Y-101664548D01*
X141473127Y-101765799D01*
X141465194Y-101777085D01*
X141423420Y-101830000D01*
X132273517Y-113419877D01*
X132264249Y-113430345D01*
X132179201Y-113516127D01*
X132157438Y-113533614D01*
X132061311Y-113594427D01*
X132036187Y-113606602D01*
X131928895Y-113644367D01*
X131901685Y-113650613D01*
X131802776Y-113661819D01*
X131781655Y-113664212D01*
X131767697Y-113665000D01*
X130178126Y-113665000D01*
X130161942Y-113663939D01*
X130142681Y-113661403D01*
X130023129Y-113645663D01*
X129991863Y-113637285D01*
X129870084Y-113586843D01*
X129842049Y-113570657D01*
X129737474Y-113490413D01*
X129714586Y-113467525D01*
X129634342Y-113362950D01*
X129618156Y-113334915D01*
X129567714Y-113213136D01*
X129559336Y-113181869D01*
X129541061Y-113043058D01*
X129540000Y-113026873D01*
X129540000Y-108170032D01*
X129540733Y-108156566D01*
X129553388Y-108040719D01*
X129559201Y-108014429D01*
X129594391Y-107910479D01*
X129605741Y-107886070D01*
X129666067Y-107786347D01*
X129673645Y-107775232D01*
X134395882Y-101600000D01*
X134565766Y-101377844D01*
X137565000Y-101377844D01*
X137571401Y-101437372D01*
X137571403Y-101437379D01*
X137621645Y-101572086D01*
X137621649Y-101572093D01*
X137707809Y-101687187D01*
X137707812Y-101687190D01*
X137822906Y-101773350D01*
X137822913Y-101773354D01*
X137957620Y-101823596D01*
X137957627Y-101823598D01*
X138017155Y-101829999D01*
X138017172Y-101830000D01*
X138715000Y-101830000D01*
X138715000Y-100688318D01*
X138791900Y-100754952D01*
X138922685Y-100814680D01*
X139029237Y-100830000D01*
X139100763Y-100830000D01*
X139207315Y-100814680D01*
X139338100Y-100754952D01*
X139415000Y-100688318D01*
X139415000Y-101830000D01*
X140112828Y-101830000D01*
X140112844Y-101829999D01*
X140172372Y-101823598D01*
X140172379Y-101823596D01*
X140307086Y-101773354D01*
X140307093Y-101773350D01*
X140422187Y-101687190D01*
X140422190Y-101687187D01*
X140508350Y-101572093D01*
X140508354Y-101572086D01*
X140558596Y-101437379D01*
X140558598Y-101437372D01*
X140564999Y-101377844D01*
X140565000Y-101377827D01*
X140565000Y-100680000D01*
X139424600Y-100680000D01*
X139446761Y-100660798D01*
X139524493Y-100539844D01*
X139565000Y-100401889D01*
X139565000Y-100258111D01*
X139524493Y-100120156D01*
X139446761Y-99999202D01*
X139424600Y-99980000D01*
X140565000Y-99980000D01*
X140565000Y-99282172D01*
X140564999Y-99282155D01*
X140558598Y-99222627D01*
X140558596Y-99222620D01*
X140508354Y-99087913D01*
X140508350Y-99087906D01*
X140422190Y-98972812D01*
X140422187Y-98972809D01*
X140307093Y-98886649D01*
X140307086Y-98886645D01*
X140172379Y-98836403D01*
X140172372Y-98836401D01*
X140112844Y-98830000D01*
X139415000Y-98830000D01*
X139415000Y-99971681D01*
X139338100Y-99905048D01*
X139207315Y-99845320D01*
X139100763Y-99830000D01*
X139029237Y-99830000D01*
X138922685Y-99845320D01*
X138791900Y-99905048D01*
X138715000Y-99971681D01*
X138715000Y-98830000D01*
X138017155Y-98830000D01*
X137957627Y-98836401D01*
X137957620Y-98836403D01*
X137822913Y-98886645D01*
X137822906Y-98886649D01*
X137707812Y-98972809D01*
X137707809Y-98972812D01*
X137621649Y-99087906D01*
X137621645Y-99087913D01*
X137571403Y-99222620D01*
X137571401Y-99222627D01*
X137565000Y-99282155D01*
X137565000Y-99980000D01*
X138705400Y-99980000D01*
X138683239Y-99999202D01*
X138605507Y-100120156D01*
X138565000Y-100258111D01*
X138565000Y-100401889D01*
X138605507Y-100539844D01*
X138683239Y-100660798D01*
X138705400Y-100680000D01*
X137565000Y-100680000D01*
X137565000Y-101377844D01*
X134565766Y-101377844D01*
X137601562Y-97407955D01*
X137610830Y-97397179D01*
X137676058Y-97329586D01*
X137696136Y-97308780D01*
X137718055Y-97290746D01*
X137815217Y-97227957D01*
X137840669Y-97215380D01*
X137949564Y-97176340D01*
X137977209Y-97169881D01*
X138074230Y-97158699D01*
X138099259Y-97155815D01*
X138113455Y-97155000D01*
X140966874Y-97155000D01*
X140983057Y-97156060D01*
G37*
%TD.AperFunction*%
%TD*%
%TA.AperFunction,Conductor*%
%TO.N,VCC*%
G36*
X131781656Y-126365788D02*
G01*
X131901688Y-126379387D01*
X131928891Y-126385631D01*
X132036188Y-126423397D01*
X132061310Y-126435571D01*
X132157440Y-126496386D01*
X132179201Y-126513872D01*
X132264249Y-126599654D01*
X132273517Y-126610122D01*
X141465189Y-138252906D01*
X141473127Y-138264200D01*
X141536171Y-138365451D01*
X141548050Y-138390326D01*
X141584884Y-138496426D01*
X141590974Y-138523310D01*
X141604232Y-138641845D01*
X141605000Y-138655628D01*
X141605000Y-141601873D01*
X141603939Y-141618059D01*
X141585663Y-141756870D01*
X141577285Y-141788136D01*
X141526843Y-141909915D01*
X141510657Y-141937950D01*
X141430413Y-142042525D01*
X141407525Y-142065413D01*
X141302950Y-142145657D01*
X141274915Y-142161843D01*
X141153136Y-142212285D01*
X141121870Y-142220663D01*
X140999984Y-142236710D01*
X140983057Y-142238939D01*
X140966874Y-142240000D01*
X137482195Y-142240000D01*
X137467854Y-142239168D01*
X137344594Y-142224816D01*
X137316679Y-142218226D01*
X137206827Y-142178408D01*
X137181176Y-142165583D01*
X137083402Y-142101586D01*
X137061390Y-142083215D01*
X136975954Y-141993218D01*
X136966684Y-141982245D01*
X136040883Y-140747844D01*
X137435000Y-140747844D01*
X137441401Y-140807372D01*
X137441403Y-140807379D01*
X137491645Y-140942086D01*
X137491649Y-140942093D01*
X137577809Y-141057187D01*
X137577812Y-141057190D01*
X137692906Y-141143350D01*
X137692913Y-141143354D01*
X137827620Y-141193596D01*
X137827627Y-141193598D01*
X137887155Y-141199999D01*
X137887172Y-141200000D01*
X138585000Y-141200000D01*
X138585000Y-140058318D01*
X138661900Y-140124952D01*
X138792685Y-140184680D01*
X138899237Y-140200000D01*
X138970763Y-140200000D01*
X139077315Y-140184680D01*
X139208100Y-140124952D01*
X139285000Y-140058318D01*
X139285000Y-141200000D01*
X139982828Y-141200000D01*
X139982844Y-141199999D01*
X140042372Y-141193598D01*
X140042379Y-141193596D01*
X140177086Y-141143354D01*
X140177093Y-141143350D01*
X140292187Y-141057190D01*
X140292190Y-141057187D01*
X140378350Y-140942093D01*
X140378354Y-140942086D01*
X140428596Y-140807379D01*
X140428598Y-140807372D01*
X140434999Y-140747844D01*
X140435000Y-140747827D01*
X140435000Y-140050000D01*
X139294600Y-140050000D01*
X139316761Y-140030798D01*
X139394493Y-139909844D01*
X139435000Y-139771889D01*
X139435000Y-139628111D01*
X139394493Y-139490156D01*
X139316761Y-139369202D01*
X139294600Y-139350000D01*
X140435000Y-139350000D01*
X140435000Y-138652172D01*
X140434999Y-138652155D01*
X140428598Y-138592627D01*
X140428596Y-138592620D01*
X140378354Y-138457913D01*
X140378350Y-138457906D01*
X140292190Y-138342812D01*
X140292187Y-138342809D01*
X140177093Y-138256649D01*
X140177086Y-138256645D01*
X140042379Y-138206403D01*
X140042372Y-138206401D01*
X139982844Y-138200000D01*
X139285000Y-138200000D01*
X139285000Y-139341681D01*
X139208100Y-139275048D01*
X139077315Y-139215320D01*
X138970763Y-139200000D01*
X138899237Y-139200000D01*
X138792685Y-139215320D01*
X138661900Y-139275048D01*
X138585000Y-139341681D01*
X138585000Y-138200000D01*
X137887155Y-138200000D01*
X137827627Y-138206401D01*
X137827620Y-138206403D01*
X137692913Y-138256645D01*
X137692906Y-138256649D01*
X137577812Y-138342809D01*
X137577809Y-138342812D01*
X137491649Y-138457906D01*
X137491645Y-138457913D01*
X137441403Y-138592620D01*
X137441401Y-138592627D01*
X137435000Y-138652155D01*
X137435000Y-139350000D01*
X138575400Y-139350000D01*
X138553239Y-139369202D01*
X138475507Y-139490156D01*
X138435000Y-139628111D01*
X138435000Y-139771889D01*
X138475507Y-139909844D01*
X138553239Y-140030798D01*
X138575400Y-140050000D01*
X137435000Y-140050000D01*
X137435000Y-140747844D01*
X136040883Y-140747844D01*
X129669993Y-132253324D01*
X129662599Y-132242278D01*
X129603910Y-132143533D01*
X129592867Y-132119391D01*
X129558656Y-132016757D01*
X129553010Y-131990837D01*
X129540711Y-131876605D01*
X129540000Y-131863348D01*
X129540000Y-127003126D01*
X129541061Y-126986941D01*
X129559336Y-126848130D01*
X129567714Y-126816863D01*
X129618156Y-126695084D01*
X129634342Y-126667049D01*
X129714586Y-126562474D01*
X129737474Y-126539586D01*
X129842049Y-126459342D01*
X129870084Y-126443156D01*
X129991863Y-126392714D01*
X130023130Y-126384336D01*
X130048713Y-126380968D01*
X130161941Y-126366060D01*
X130178126Y-126365000D01*
X131767697Y-126365000D01*
X131781656Y-126365788D01*
G37*
%TD.AperFunction*%
%TD*%
M02*
